M48
; DRILL file {KiCad (5.1.6-0-10_14)} date Sunday, April 17, 2022 at 05:35:45 PM
; FORMAT={-:-/ absolute / inch / decimal}
; #@! TF.CreationDate,2022-04-17T17:35:45+02:00
; #@! TF.GenerationSoftware,Kicad,Pcbnew,(5.1.6-0-10_14)
FMAT,2
INCH
T1C0.0118
T2C0.0157
T3C0.0197
T4C0.0236
T5C0.0315
T6C0.0335
T7C0.0394
T8C0.0591
T9C0.0598
T10C0.0610
T11C0.1260
%
G90
G05
T1
X1.2323Y-1.2047
X1.2323Y-1.2402
X1.2323Y-1.2795
X1.2323Y-1.315
X1.2323Y-1.3543
X1.2323Y-1.3898
X1.2323Y-1.4291
X1.2677Y-1.1299
X1.2677Y-1.1654
X1.2677Y-1.2047
X1.2677Y-1.2402
X1.2677Y-1.2795
X1.2677Y-1.315
X1.2677Y-1.3543
X1.2677Y-1.3898
X1.2677Y-1.4291
X1.3031Y-1.1299
X1.3031Y-1.1654
X1.3031Y-1.2047
X1.3031Y-1.2402
X1.3031Y-1.2795
X1.3031Y-1.315
X1.3031Y-1.3543
X1.3031Y-1.3898
X1.3031Y-1.4291
X1.3425Y-1.1299
X1.3425Y-1.1654
X1.3425Y-1.2047
X1.3425Y-1.2402
X1.3425Y-1.2795
X1.3425Y-1.315
X1.3425Y-1.3543
X1.3425Y-1.3898
X1.3425Y-1.4291
X1.378Y-1.1299
X1.378Y-1.1654
X1.378Y-1.2047
X1.378Y-1.2402
X1.378Y-1.2795
X1.378Y-1.315
X1.378Y-1.3543
X1.378Y-1.3898
X1.378Y-1.4291
X1.4173Y-1.1299
X1.4173Y-1.1654
X1.4173Y-1.2047
X1.4173Y-1.2402
X1.4173Y-1.2795
X1.4173Y-1.315
X1.4173Y-1.3543
X1.4173Y-1.3898
X1.4173Y-1.4291
X1.4528Y-1.1299
X1.4528Y-1.1654
X1.4528Y-1.2047
X1.4528Y-1.2402
X1.4528Y-1.2795
X1.4528Y-1.315
X1.4528Y-1.3543
X1.4921Y-0.937
X1.4921Y-0.9764
X1.4921Y-1.0157
X1.4921Y-1.0551
X1.4921Y-1.0906
X1.4921Y-1.1299
X1.4921Y-1.1654
X1.4921Y-1.2047
X1.4921Y-1.2402
X1.5276Y-0.937
X1.5276Y-0.9764
X1.5276Y-1.0157
X1.5276Y-1.0551
X1.5276Y-1.0906
X1.5276Y-1.1299
X1.5276Y-1.1654
X1.5276Y-1.2047
X1.5276Y-1.2402
X1.5984Y-0.937
X1.5984Y-0.9764
X1.7461Y-0.813
X1.7461Y-0.9961
X1.8268Y-1.1693
X1.8622Y-1.1693
X1.9016Y-1.3996
X1.9016Y-1.439
X1.9016Y-1.4783
X1.9016Y-1.5177
X1.9055Y-0.6378
X1.9055Y-0.6772
X1.9055Y-0.7165
X1.9055Y-0.7559
X1.9055Y-0.7953
X1.9055Y-0.8386
X1.9055Y-0.8858
X1.9055Y-0.9213
X1.9055Y-0.9606
X1.9055Y-1.0039
X1.9055Y-1.0433
X1.9055Y-1.0906
X1.9055Y-1.1299
X1.9055Y-1.1693
X1.937Y-1.3996
X1.937Y-1.439
X1.937Y-1.4783
X1.937Y-1.5177
X1.9409Y-1.0906
X1.9409Y-1.1299
X1.9409Y-1.1693
X1.9724Y-1.3996
X1.9724Y-1.439
X1.9724Y-1.4783
X1.9724Y-1.5177
X1.9843Y-1.1693
X2.0118Y-1.3996
X2.0118Y-1.439
X2.0118Y-1.4783
X2.0118Y-1.5177
X2.0472Y-1.3996
X2.0472Y-1.439
X2.0472Y-1.4783
X2.0472Y-1.5177
X2.0551Y-1.939
X2.0866Y-1.4783
X2.0866Y-1.5177
X2.0906Y-1.0394
X2.0984Y-0.9547
X2.128Y-1.4783
X2.128Y-1.5177
X2.1339Y-0.9547
X2.1634Y-1.4783
X2.1634Y-1.5177
X2.1969Y-0.9921
X2.1988Y-1.4783
X2.1988Y-1.5177
X2.2382Y-1.4783
X2.2382Y-1.5177
X2.2736Y-1.4783
X2.2736Y-1.5177
X2.313Y-1.4783
X2.313Y-1.5177
X2.3228Y-2.0669
X2.3504Y-0.9685
X2.3504Y-1.0039
X2.3563Y-1.3996
X2.3563Y-1.439
X2.3563Y-1.4783
X2.3563Y-1.5177
X2.3858Y-0.9685
X2.3858Y-1.0039
X2.3917Y-1.3996
X2.3917Y-1.439
X2.3917Y-1.4783
X2.3917Y-1.5177
X2.4291Y-0.9685
X2.4291Y-1.0039
X2.4291Y-1.0433
X2.4291Y-1.0787
X2.4291Y-1.1181
X2.4291Y-1.1575
X2.4646Y-1.0787
X2.4646Y-1.1181
X2.4646Y-1.1575
X2.5079Y-1.0787
X2.5079Y-1.1181
X2.5079Y-1.1575
X2.5433Y-1.0787
X2.5433Y-1.1181
X2.5433Y-1.1575
X2.5512Y-1.1969
X2.5512Y-1.2362
X2.5512Y-1.2756
X2.5512Y-1.315
X2.5512Y-1.3583
X2.5866Y-1.0787
X2.5866Y-1.1181
X2.5866Y-1.1575
X2.5866Y-1.1969
X2.5866Y-1.2362
X2.5866Y-1.2756
X2.5866Y-1.315
X2.5866Y-1.3583
X2.622Y-1.0787
X2.622Y-1.1181
X2.622Y-1.1575
X2.622Y-1.1969
X2.622Y-1.2362
X2.622Y-1.2756
X2.622Y-1.315
X2.622Y-1.3583
X2.6575Y-1.1181
X2.6575Y-1.1575
X2.6575Y-1.1969
X2.6575Y-1.2362
X2.6614Y-1.2756
X2.6614Y-1.315
X2.6614Y-1.3583
X2.6929Y-1.1181
X2.6929Y-1.1575
X2.6929Y-1.1969
X2.6929Y-1.2362
X2.6969Y-1.2756
X2.6969Y-1.315
X2.6969Y-1.3583
T2
X0.878Y-1.437
X0.878Y-1.4803
X0.878Y-1.5236
X0.878Y-1.5669
X0.878Y-1.6142
X0.9173Y-1.437
X0.9173Y-1.4803
X0.9173Y-1.5236
X0.9173Y-1.5669
X0.9173Y-1.6142
X2.125Y-1.9065
X2.1614Y-1.9094
T3
X1.5965Y-1.3976
X1.6241Y-1.3308
X1.6241Y-1.4645
X1.6909Y-1.3031
X1.6909Y-1.4921
X1.7578Y-1.3308
X1.7578Y-1.4645
X1.7854Y-1.3976
T5
X1.4272Y-0.872
X1.4272Y-1.0098
X2.5276Y-0.8583
X2.5276Y-0.9961
X1.937Y-1.6673
X2.0354Y-1.6673
X2.1614Y-1.6299
X2.2598Y-1.6299
T6
X2.0472Y-1.2913
X2.2047Y-1.2913
X2.2835Y-1.2913
X2.3622Y-1.2913
T7
X2.6004Y-1.6425
X2.6004Y-1.7425
X2.6004Y-1.8425
T9
X2.8898Y-0.8386
X2.8898Y-1.0386
X1.5126Y-1.9961
X1.7126Y-1.9961
X2.8898Y-1.2579
X2.8898Y-1.4579
T10
X1.9646Y-1.2913
X2.4449Y-1.2913
T11
X1.6909Y-1.3976
T4
G00X2.9016Y-1.6339
M15
G01X2.874Y-1.6339
M16
G05
G00X2.9016Y-1.9705
M15
G01X2.874Y-1.9705
M16
G05
T8
G00X0.811Y-0.7402
M15
G01X0.9488Y-0.7402
M16
G05
G00X0.811Y-1.0157
M15
G01X0.9488Y-1.0157
M16
G05
G00X0.811Y-1.2913
M15
G01X0.9488Y-1.2913
M16
G05
T0
M30
