%TF.GenerationSoftware,KiCad,Pcbnew,(5.1.6-0-10_14)*%
%TF.CreationDate,2022-04-17T17:35:50+02:00*%
%TF.ProjectId,smoke_extractor,736d6f6b-655f-4657-9874-726163746f72,rev?*%
%TF.SameCoordinates,Original*%
%TF.FileFunction,Legend,Top*%
%TF.FilePolarity,Positive*%
%FSLAX46Y46*%
G04 Gerber Fmt 4.6, Leading zero omitted, Abs format (unit mm)*
G04 Created by KiCad (PCBNEW (5.1.6-0-10_14)) date 2022-04-17 17:35:50*
%MOMM*%
%LPD*%
G01*
G04 APERTURE LIST*
%ADD10C,0.120000*%
%ADD11C,0.150000*%
%ADD12C,0.100000*%
G04 APERTURE END LIST*
D10*
X18556571Y-52216785D02*
X18556571Y-51466785D01*
X18985142Y-52216785D01*
X18985142Y-51466785D01*
X19663714Y-51716785D02*
X19663714Y-52216785D01*
X19342285Y-51716785D02*
X19342285Y-52109642D01*
X19378000Y-52181071D01*
X19449428Y-52216785D01*
X19556571Y-52216785D01*
X19628000Y-52181071D01*
X19663714Y-52145357D01*
X20020857Y-51716785D02*
X20020857Y-52216785D01*
X20020857Y-51788214D02*
X20056571Y-51752500D01*
X20128000Y-51716785D01*
X20235142Y-51716785D01*
X20306571Y-51752500D01*
X20342285Y-51823928D01*
X20342285Y-52216785D01*
X20806571Y-52216785D02*
X20735142Y-52181071D01*
X20699428Y-52145357D01*
X20663714Y-52073928D01*
X20663714Y-51859642D01*
X20699428Y-51788214D01*
X20735142Y-51752500D01*
X20806571Y-51716785D01*
X20913714Y-51716785D01*
X20985142Y-51752500D01*
X21020857Y-51788214D01*
X21056571Y-51859642D01*
X21056571Y-52073928D01*
X21020857Y-52145357D01*
X20985142Y-52181071D01*
X20913714Y-52216785D01*
X20806571Y-52216785D01*
X21949428Y-52216785D02*
X21949428Y-51466785D01*
X22378000Y-52216785D01*
X22378000Y-51466785D01*
X22842285Y-52216785D02*
X22770857Y-52181071D01*
X22735142Y-52145357D01*
X22699428Y-52073928D01*
X22699428Y-51859642D01*
X22735142Y-51788214D01*
X22770857Y-51752500D01*
X22842285Y-51716785D01*
X22949428Y-51716785D01*
X23020857Y-51752500D01*
X23056571Y-51788214D01*
X23092285Y-51859642D01*
X23092285Y-52073928D01*
X23056571Y-52145357D01*
X23020857Y-52181071D01*
X22949428Y-52216785D01*
X22842285Y-52216785D01*
X23735142Y-51716785D02*
X23735142Y-52323928D01*
X23699428Y-52395357D01*
X23663714Y-52431071D01*
X23592285Y-52466785D01*
X23485142Y-52466785D01*
X23413714Y-52431071D01*
X23735142Y-52181071D02*
X23663714Y-52216785D01*
X23520857Y-52216785D01*
X23449428Y-52181071D01*
X23413714Y-52145357D01*
X23378000Y-52073928D01*
X23378000Y-51859642D01*
X23413714Y-51788214D01*
X23449428Y-51752500D01*
X23520857Y-51716785D01*
X23663714Y-51716785D01*
X23735142Y-51752500D01*
X24413714Y-51716785D02*
X24413714Y-52216785D01*
X24092285Y-51716785D02*
X24092285Y-52109642D01*
X24128000Y-52181071D01*
X24199428Y-52216785D01*
X24306571Y-52216785D01*
X24378000Y-52181071D01*
X24413714Y-52145357D01*
X25056571Y-52181071D02*
X24985142Y-52216785D01*
X24842285Y-52216785D01*
X24770857Y-52181071D01*
X24735142Y-52109642D01*
X24735142Y-51823928D01*
X24770857Y-51752500D01*
X24842285Y-51716785D01*
X24985142Y-51716785D01*
X25056571Y-51752500D01*
X25092285Y-51823928D01*
X25092285Y-51895357D01*
X24735142Y-51966785D01*
X25413714Y-52216785D02*
X25413714Y-51716785D01*
X25413714Y-51466785D02*
X25378000Y-51502500D01*
X25413714Y-51538214D01*
X25449428Y-51502500D01*
X25413714Y-51466785D01*
X25413714Y-51538214D01*
X25770857Y-52216785D02*
X25770857Y-51716785D01*
X25770857Y-51859642D02*
X25806571Y-51788214D01*
X25842285Y-51752500D01*
X25913714Y-51716785D01*
X25985142Y-51716785D01*
X26556571Y-52216785D02*
X26556571Y-51823928D01*
X26520857Y-51752500D01*
X26449428Y-51716785D01*
X26306571Y-51716785D01*
X26235142Y-51752500D01*
X26556571Y-52181071D02*
X26485142Y-52216785D01*
X26306571Y-52216785D01*
X26235142Y-52181071D01*
X26199428Y-52109642D01*
X26199428Y-52038214D01*
X26235142Y-51966785D01*
X26306571Y-51931071D01*
X26485142Y-51931071D01*
X26556571Y-51895357D01*
X18520857Y-53426071D02*
X18628000Y-53461785D01*
X18806571Y-53461785D01*
X18878000Y-53426071D01*
X18913714Y-53390357D01*
X18949428Y-53318928D01*
X18949428Y-53247500D01*
X18913714Y-53176071D01*
X18878000Y-53140357D01*
X18806571Y-53104642D01*
X18663714Y-53068928D01*
X18592285Y-53033214D01*
X18556571Y-52997500D01*
X18520857Y-52926071D01*
X18520857Y-52854642D01*
X18556571Y-52783214D01*
X18592285Y-52747500D01*
X18663714Y-52711785D01*
X18842285Y-52711785D01*
X18949428Y-52747500D01*
X19163714Y-52961785D02*
X19449428Y-52961785D01*
X19270857Y-52711785D02*
X19270857Y-53354642D01*
X19306571Y-53426071D01*
X19378000Y-53461785D01*
X19449428Y-53461785D01*
X19806571Y-53461785D02*
X19735142Y-53426071D01*
X19699428Y-53390357D01*
X19663714Y-53318928D01*
X19663714Y-53104642D01*
X19699428Y-53033214D01*
X19735142Y-52997500D01*
X19806571Y-52961785D01*
X19913714Y-52961785D01*
X19985142Y-52997500D01*
X20020857Y-53033214D01*
X20056571Y-53104642D01*
X20056571Y-53318928D01*
X20020857Y-53390357D01*
X19985142Y-53426071D01*
X19913714Y-53461785D01*
X19806571Y-53461785D01*
X20699428Y-53426071D02*
X20628000Y-53461785D01*
X20485142Y-53461785D01*
X20413714Y-53426071D01*
X20378000Y-53390357D01*
X20342285Y-53318928D01*
X20342285Y-53104642D01*
X20378000Y-53033214D01*
X20413714Y-52997500D01*
X20485142Y-52961785D01*
X20628000Y-52961785D01*
X20699428Y-52997500D01*
X21020857Y-53461785D02*
X21020857Y-52711785D01*
X21092285Y-53176071D02*
X21306571Y-53461785D01*
X21306571Y-52961785D02*
X21020857Y-53247500D01*
X21628000Y-53461785D02*
X21628000Y-52711785D01*
X21949428Y-53461785D02*
X21949428Y-53068928D01*
X21913714Y-52997500D01*
X21842285Y-52961785D01*
X21735142Y-52961785D01*
X21663714Y-52997500D01*
X21628000Y-53033214D01*
X22413714Y-53461785D02*
X22342285Y-53426071D01*
X22306571Y-53390357D01*
X22270857Y-53318928D01*
X22270857Y-53104642D01*
X22306571Y-53033214D01*
X22342285Y-52997500D01*
X22413714Y-52961785D01*
X22520857Y-52961785D01*
X22592285Y-52997500D01*
X22628000Y-53033214D01*
X22663714Y-53104642D01*
X22663714Y-53318928D01*
X22628000Y-53390357D01*
X22592285Y-53426071D01*
X22520857Y-53461785D01*
X22413714Y-53461785D01*
X23092285Y-53461785D02*
X23020857Y-53426071D01*
X22985142Y-53354642D01*
X22985142Y-52711785D01*
X23378000Y-53461785D02*
X23378000Y-52961785D01*
X23378000Y-53033214D02*
X23413714Y-52997500D01*
X23485142Y-52961785D01*
X23592285Y-52961785D01*
X23663714Y-52997500D01*
X23699428Y-53068928D01*
X23699428Y-53461785D01*
X23699428Y-53068928D02*
X23735142Y-52997500D01*
X23806571Y-52961785D01*
X23913714Y-52961785D01*
X23985142Y-52997500D01*
X24020857Y-53068928D01*
X24020857Y-53461785D01*
X24413714Y-53426071D02*
X24413714Y-53461785D01*
X24378000Y-53533214D01*
X24342285Y-53568928D01*
X25449428Y-52711785D02*
X25520857Y-52711785D01*
X25592285Y-52747500D01*
X25628000Y-52783214D01*
X25663714Y-52854642D01*
X25699428Y-52997500D01*
X25699428Y-53176071D01*
X25663714Y-53318928D01*
X25628000Y-53390357D01*
X25592285Y-53426071D01*
X25520857Y-53461785D01*
X25449428Y-53461785D01*
X25378000Y-53426071D01*
X25342285Y-53390357D01*
X25306571Y-53318928D01*
X25270857Y-53176071D01*
X25270857Y-52997500D01*
X25306571Y-52854642D01*
X25342285Y-52783214D01*
X25378000Y-52747500D01*
X25449428Y-52711785D01*
X26342285Y-52961785D02*
X26342285Y-53461785D01*
X26163714Y-52676071D02*
X25985142Y-53211785D01*
X26449428Y-53211785D01*
X27270857Y-52676071D02*
X26628000Y-53640357D01*
X27485142Y-52783214D02*
X27520857Y-52747500D01*
X27592285Y-52711785D01*
X27770857Y-52711785D01*
X27842285Y-52747500D01*
X27878000Y-52783214D01*
X27913714Y-52854642D01*
X27913714Y-52926071D01*
X27878000Y-53033214D01*
X27449428Y-53461785D01*
X27913714Y-53461785D01*
X28378000Y-52711785D02*
X28449428Y-52711785D01*
X28520857Y-52747500D01*
X28556571Y-52783214D01*
X28592285Y-52854642D01*
X28628000Y-52997500D01*
X28628000Y-53176071D01*
X28592285Y-53318928D01*
X28556571Y-53390357D01*
X28520857Y-53426071D01*
X28449428Y-53461785D01*
X28378000Y-53461785D01*
X28306571Y-53426071D01*
X28270857Y-53390357D01*
X28235142Y-53318928D01*
X28199428Y-53176071D01*
X28199428Y-52997500D01*
X28235142Y-52854642D01*
X28270857Y-52783214D01*
X28306571Y-52747500D01*
X28378000Y-52711785D01*
X28913714Y-52783214D02*
X28949428Y-52747500D01*
X29020857Y-52711785D01*
X29199428Y-52711785D01*
X29270857Y-52747500D01*
X29306571Y-52783214D01*
X29342285Y-52854642D01*
X29342285Y-52926071D01*
X29306571Y-53033214D01*
X28878000Y-53461785D01*
X29342285Y-53461785D01*
X29628000Y-52783214D02*
X29663714Y-52747500D01*
X29735142Y-52711785D01*
X29913714Y-52711785D01*
X29985142Y-52747500D01*
X30020857Y-52783214D01*
X30056571Y-52854642D01*
X30056571Y-52926071D01*
X30020857Y-53033214D01*
X29592285Y-53461785D01*
X30056571Y-53461785D01*
D11*
X18642857Y-50154761D02*
X18738095Y-50202380D01*
X18928571Y-50202380D01*
X19023809Y-50154761D01*
X19071428Y-50059523D01*
X19071428Y-50011904D01*
X19023809Y-49916666D01*
X18928571Y-49869047D01*
X18785714Y-49869047D01*
X18690476Y-49821428D01*
X18642857Y-49726190D01*
X18642857Y-49678571D01*
X18690476Y-49583333D01*
X18785714Y-49535714D01*
X18928571Y-49535714D01*
X19023809Y-49583333D01*
X19500000Y-50202380D02*
X19500000Y-49535714D01*
X19500000Y-49630952D02*
X19547619Y-49583333D01*
X19642857Y-49535714D01*
X19785714Y-49535714D01*
X19880952Y-49583333D01*
X19928571Y-49678571D01*
X19928571Y-50202380D01*
X19928571Y-49678571D02*
X19976190Y-49583333D01*
X20071428Y-49535714D01*
X20214285Y-49535714D01*
X20309523Y-49583333D01*
X20357142Y-49678571D01*
X20357142Y-50202380D01*
X20976190Y-50202380D02*
X20880952Y-50154761D01*
X20833333Y-50107142D01*
X20785714Y-50011904D01*
X20785714Y-49726190D01*
X20833333Y-49630952D01*
X20880952Y-49583333D01*
X20976190Y-49535714D01*
X21119047Y-49535714D01*
X21214285Y-49583333D01*
X21261904Y-49630952D01*
X21309523Y-49726190D01*
X21309523Y-50011904D01*
X21261904Y-50107142D01*
X21214285Y-50154761D01*
X21119047Y-50202380D01*
X20976190Y-50202380D01*
X21738095Y-50202380D02*
X21738095Y-49202380D01*
X21833333Y-49821428D02*
X22119047Y-50202380D01*
X22119047Y-49535714D02*
X21738095Y-49916666D01*
X22928571Y-50154761D02*
X22833333Y-50202380D01*
X22642857Y-50202380D01*
X22547619Y-50154761D01*
X22500000Y-50059523D01*
X22500000Y-49678571D01*
X22547619Y-49583333D01*
X22642857Y-49535714D01*
X22833333Y-49535714D01*
X22928571Y-49583333D01*
X22976190Y-49678571D01*
X22976190Y-49773809D01*
X22500000Y-49869047D01*
X24547619Y-50154761D02*
X24452380Y-50202380D01*
X24261904Y-50202380D01*
X24166666Y-50154761D01*
X24119047Y-50059523D01*
X24119047Y-49678571D01*
X24166666Y-49583333D01*
X24261904Y-49535714D01*
X24452380Y-49535714D01*
X24547619Y-49583333D01*
X24595238Y-49678571D01*
X24595238Y-49773809D01*
X24119047Y-49869047D01*
X24928571Y-50202380D02*
X25452380Y-49535714D01*
X24928571Y-49535714D02*
X25452380Y-50202380D01*
X25690476Y-49535714D02*
X26071428Y-49535714D01*
X25833333Y-49202380D02*
X25833333Y-50059523D01*
X25880952Y-50154761D01*
X25976190Y-50202380D01*
X26071428Y-50202380D01*
X26404761Y-50202380D02*
X26404761Y-49535714D01*
X26404761Y-49726190D02*
X26452380Y-49630952D01*
X26500000Y-49583333D01*
X26595238Y-49535714D01*
X26690476Y-49535714D01*
X27452380Y-50202380D02*
X27452380Y-49678571D01*
X27404761Y-49583333D01*
X27309523Y-49535714D01*
X27119047Y-49535714D01*
X27023809Y-49583333D01*
X27452380Y-50154761D02*
X27357142Y-50202380D01*
X27119047Y-50202380D01*
X27023809Y-50154761D01*
X26976190Y-50059523D01*
X26976190Y-49964285D01*
X27023809Y-49869047D01*
X27119047Y-49821428D01*
X27357142Y-49821428D01*
X27452380Y-49773809D01*
X28357142Y-50154761D02*
X28261904Y-50202380D01*
X28071428Y-50202380D01*
X27976190Y-50154761D01*
X27928571Y-50107142D01*
X27880952Y-50011904D01*
X27880952Y-49726190D01*
X27928571Y-49630952D01*
X27976190Y-49583333D01*
X28071428Y-49535714D01*
X28261904Y-49535714D01*
X28357142Y-49583333D01*
X28642857Y-49535714D02*
X29023809Y-49535714D01*
X28785714Y-49202380D02*
X28785714Y-50059523D01*
X28833333Y-50154761D01*
X28928571Y-50202380D01*
X29023809Y-50202380D01*
X29500000Y-50202380D02*
X29404761Y-50154761D01*
X29357142Y-50107142D01*
X29309523Y-50011904D01*
X29309523Y-49726190D01*
X29357142Y-49630952D01*
X29404761Y-49583333D01*
X29500000Y-49535714D01*
X29642857Y-49535714D01*
X29738095Y-49583333D01*
X29785714Y-49630952D01*
X29833333Y-49726190D01*
X29833333Y-50011904D01*
X29785714Y-50107142D01*
X29738095Y-50154761D01*
X29642857Y-50202380D01*
X29500000Y-50202380D01*
X30261904Y-50202380D02*
X30261904Y-49535714D01*
X30261904Y-49726190D02*
X30309523Y-49630952D01*
X30357142Y-49583333D01*
X30452380Y-49535714D01*
X30547619Y-49535714D01*
X31547619Y-49535714D02*
X31785714Y-50202380D01*
X32023809Y-49535714D01*
X32928571Y-50202380D02*
X32357142Y-50202380D01*
X32642857Y-50202380D02*
X32642857Y-49202380D01*
X32547619Y-49345238D01*
X32452380Y-49440476D01*
X32357142Y-49488095D01*
X33357142Y-50107142D02*
X33404761Y-50154761D01*
X33357142Y-50202380D01*
X33309523Y-50154761D01*
X33357142Y-50107142D01*
X33357142Y-50202380D01*
X34357142Y-50202380D02*
X33785714Y-50202380D01*
X34071428Y-50202380D02*
X34071428Y-49202380D01*
X33976190Y-49345238D01*
X33880952Y-49440476D01*
X33785714Y-49488095D01*
D12*
%TO.C,kibuzzard-625C31CC*%
G36*
X62189714Y-43295797D02*
G01*
X62721394Y-43097007D01*
X62707106Y-43044884D01*
X62702344Y-42992584D01*
X62705221Y-42954980D01*
X62713853Y-42916781D01*
X62737269Y-42858441D01*
X62748381Y-42839391D01*
X62762669Y-42817166D01*
X62800372Y-42796528D01*
X62844425Y-42813197D01*
X62876572Y-42842566D01*
X62887287Y-42868759D01*
X62869825Y-42909241D01*
X62849584Y-42948134D01*
X62842837Y-42998141D01*
X62851767Y-43049338D01*
X62878556Y-43099741D01*
X62927769Y-43139428D01*
X62961602Y-43151334D01*
X62999603Y-43155303D01*
X63037604Y-43151334D01*
X63071438Y-43139428D01*
X63121444Y-43098947D01*
X63147638Y-43049536D01*
X63156369Y-42998141D01*
X63150019Y-42951706D01*
X63137319Y-42920353D01*
X63127000Y-42906066D01*
X63111125Y-42867966D01*
X63122238Y-42842367D01*
X63192088Y-42751284D01*
X62748381Y-42536972D01*
X62719012Y-42510381D01*
X62707900Y-42472678D01*
X62718219Y-42435372D01*
X62749175Y-42409178D01*
X63217488Y-42137716D01*
X62776956Y-42137716D01*
X62749175Y-42136525D01*
X62728537Y-42128984D01*
X62712464Y-42107950D01*
X62707106Y-42067072D01*
X62707106Y-41867047D01*
X62712751Y-41821009D01*
X62729684Y-41780264D01*
X62757906Y-41744809D01*
X62794595Y-41716146D01*
X62835870Y-41698948D01*
X62881731Y-41693216D01*
X62931936Y-41700756D01*
X62977775Y-41723378D01*
X63016316Y-41697361D01*
X63057856Y-41681750D01*
X63102394Y-41676547D01*
X63152444Y-41683294D01*
X63196762Y-41701418D01*
X63235347Y-41730919D01*
X63219075Y-41624953D01*
X62777750Y-41624953D01*
X62750366Y-41623762D01*
X62729331Y-41616222D01*
X62713258Y-41595187D01*
X62707900Y-41554309D01*
X62715242Y-41510058D01*
X62737269Y-41488428D01*
X62778544Y-41484459D01*
X63172244Y-41484459D01*
X63172244Y-41268559D01*
X63178197Y-41230459D01*
X63219075Y-41159022D01*
X62777750Y-41159022D01*
X62722584Y-41143941D01*
X62707900Y-41086791D01*
X62707900Y-40774053D01*
X62709091Y-40746669D01*
X62716631Y-40725634D01*
X62737666Y-40709561D01*
X62778544Y-40704203D01*
X62822597Y-40711545D01*
X62843631Y-40733572D01*
X62848394Y-40774847D01*
X62848394Y-41018528D01*
X62928562Y-41018528D01*
X62928562Y-40861366D01*
X62929753Y-40833981D01*
X62937294Y-40812947D01*
X62958328Y-40796873D01*
X62999206Y-40791516D01*
X63043259Y-40799056D01*
X63064294Y-40821678D01*
X63069056Y-40862953D01*
X63069056Y-41018528D01*
X63149225Y-41018528D01*
X63149225Y-40774053D01*
X63150416Y-40746669D01*
X63157956Y-40725634D01*
X63178991Y-40709561D01*
X63219869Y-40704203D01*
X63263922Y-40711545D01*
X63284956Y-40733572D01*
X63289719Y-40774847D01*
X63289719Y-41089172D01*
X63282178Y-41133225D01*
X63259556Y-41154259D01*
X63219075Y-41159022D01*
X63178197Y-41230459D01*
X63196850Y-41214584D01*
X63230584Y-41210616D01*
X63264319Y-41214584D01*
X63281781Y-41228078D01*
X63289719Y-41269353D01*
X63289719Y-41555103D01*
X63282178Y-41599156D01*
X63259556Y-41620191D01*
X63219075Y-41624953D01*
X63235347Y-41730919D01*
X63265113Y-41768622D01*
X63282972Y-41811352D01*
X63288925Y-41859109D01*
X63288925Y-42067866D01*
X63281384Y-42111919D01*
X63258763Y-42132953D01*
X63217488Y-42137716D01*
X62749175Y-42409178D01*
X63192088Y-42194866D01*
X63232569Y-42181372D01*
X63259755Y-42192881D01*
X63284163Y-42227409D01*
X63297656Y-42269875D01*
X63290513Y-42295275D01*
X63275431Y-42309563D01*
X63251619Y-42321866D01*
X63165894Y-42363141D01*
X63165894Y-42583009D01*
X63251619Y-42624284D01*
X63274638Y-42636588D01*
X63289322Y-42650875D01*
X63296863Y-42676275D01*
X63283369Y-42718741D01*
X63259556Y-42753269D01*
X63232569Y-42764778D01*
X63192088Y-42751284D01*
X63122238Y-42842367D01*
X63155575Y-42814784D01*
X63200025Y-42797322D01*
X63227806Y-42808038D01*
X63247650Y-42833041D01*
X63264319Y-42860425D01*
X63284956Y-42914003D01*
X63294481Y-42953790D01*
X63297656Y-42992188D01*
X63295176Y-43030089D01*
X63287734Y-43068388D01*
X63274439Y-43107480D01*
X63254397Y-43147763D01*
X63228402Y-43186557D01*
X63197247Y-43221184D01*
X63158750Y-43250851D01*
X63110728Y-43274763D01*
X63055662Y-43290538D01*
X62996031Y-43295797D01*
X62936996Y-43290638D01*
X62883716Y-43275159D01*
X62837678Y-43251645D01*
X62800372Y-43222375D01*
X62770110Y-43187946D01*
X62745206Y-43148953D01*
X62721394Y-43097007D01*
X62189714Y-43295797D01*
X62189714Y-43808427D01*
X63810286Y-43808427D01*
X63810286Y-43295797D01*
X63810286Y-40704203D01*
X63810286Y-40191573D01*
X62189714Y-40191573D01*
X62189714Y-40704203D01*
X62189714Y-43295797D01*
G37*
G36*
X63094456Y-41817041D02*
G01*
X63064294Y-41821406D01*
X63048419Y-41836091D01*
X63042069Y-41880541D01*
X63030956Y-41923403D01*
X62985316Y-41937691D01*
X62939675Y-41923006D01*
X62928562Y-41874191D01*
X62911894Y-41836091D01*
X62883319Y-41833709D01*
X62855537Y-41846806D01*
X62847600Y-41886097D01*
X62847600Y-41997222D01*
X63148431Y-41997222D01*
X63148431Y-41867047D01*
X63134938Y-41829542D01*
X63094456Y-41817041D01*
G37*
G36*
X62939675Y-42473472D02*
G01*
X63048419Y-42525859D01*
X63048419Y-42420291D01*
X62939675Y-42473472D01*
G37*
%TO.C,kibuzzard-625C31B6*%
G36*
X62192095Y-46828278D02*
G01*
X62704725Y-46557609D01*
X62710369Y-46511572D01*
X62727303Y-46470826D01*
X62755525Y-46435372D01*
X62792214Y-46406709D01*
X62833489Y-46389511D01*
X62879350Y-46383778D01*
X62929555Y-46391319D01*
X62975394Y-46413941D01*
X63013935Y-46387923D01*
X63189706Y-46321866D01*
X62746000Y-46107553D01*
X62716631Y-46080963D01*
X62705519Y-46043259D01*
X62715837Y-46005953D01*
X62746794Y-45979759D01*
X62704725Y-45670197D01*
X62704725Y-45228872D01*
X62710678Y-45191566D01*
X62729331Y-45175691D01*
X62762669Y-45171722D01*
X62795609Y-45175691D01*
X62812675Y-45189184D01*
X62819819Y-45229666D01*
X62819819Y-45381272D01*
X63219075Y-45381272D01*
X63246063Y-45382462D01*
X63266303Y-45389606D01*
X63282575Y-45410641D01*
X63287338Y-45450328D01*
X63282575Y-45489619D01*
X63266303Y-45510256D01*
X63245666Y-45517400D01*
X63218281Y-45518591D01*
X62819819Y-45518591D01*
X62819819Y-45670991D01*
X62813866Y-45708297D01*
X62795212Y-45724172D01*
X62761875Y-45728141D01*
X62728934Y-45724172D01*
X62711869Y-45710678D01*
X62704725Y-45670197D01*
X62746794Y-45979759D01*
X63189706Y-45765447D01*
X63230188Y-45751953D01*
X63257373Y-45763462D01*
X63281781Y-45797991D01*
X63295275Y-45840456D01*
X63288131Y-45865856D01*
X63273050Y-45880144D01*
X63249238Y-45892447D01*
X63163513Y-45933722D01*
X63163513Y-46153591D01*
X63249238Y-46194866D01*
X63272256Y-46207169D01*
X63286941Y-46221456D01*
X63294481Y-46246856D01*
X63280988Y-46289322D01*
X63257175Y-46323850D01*
X63230188Y-46335359D01*
X63189706Y-46321866D01*
X63013935Y-46387923D01*
X63055474Y-46372313D01*
X63100013Y-46367109D01*
X63150063Y-46373856D01*
X63194381Y-46391980D01*
X63232966Y-46421481D01*
X63262731Y-46459184D01*
X63280591Y-46501915D01*
X63286544Y-46549672D01*
X63286544Y-46758428D01*
X63279003Y-46802481D01*
X63256381Y-46823516D01*
X63215106Y-46828278D01*
X62774575Y-46828278D01*
X62746794Y-46827088D01*
X62726156Y-46819547D01*
X62710083Y-46798513D01*
X62704725Y-46757634D01*
X62704725Y-46557609D01*
X62192095Y-46828278D01*
X62192095Y-47340908D01*
X63807905Y-47340908D01*
X63807905Y-46828278D01*
X63807905Y-45171722D01*
X63807905Y-44659092D01*
X62192095Y-44659092D01*
X62192095Y-45171722D01*
X62192095Y-46828278D01*
G37*
G36*
X63092075Y-46507603D02*
G01*
X63061913Y-46511969D01*
X63046038Y-46526653D01*
X63039688Y-46571103D01*
X63028575Y-46613966D01*
X62982934Y-46628253D01*
X62937294Y-46613569D01*
X62926181Y-46564753D01*
X62909512Y-46526653D01*
X62880937Y-46524272D01*
X62853156Y-46537369D01*
X62845219Y-46576659D01*
X62845219Y-46687784D01*
X63146050Y-46687784D01*
X63146050Y-46557609D01*
X63132556Y-46520105D01*
X63092075Y-46507603D01*
G37*
G36*
X62937294Y-46044053D02*
G01*
X63046038Y-46096441D01*
X63046038Y-45990872D01*
X62937294Y-46044053D01*
G37*
%TO.C,kibuzzard-625C3168*%
G36*
X18265911Y-42126372D02*
G01*
X18529754Y-42639002D01*
X18602355Y-42646411D01*
X18663950Y-42668636D01*
X18714539Y-42705677D01*
X18752110Y-42751980D01*
X18774652Y-42801986D01*
X18782166Y-42855696D01*
X18773911Y-42906126D01*
X18749146Y-42946290D01*
X18707871Y-42976187D01*
X18707871Y-42982855D01*
X18735970Y-43003334D01*
X18765974Y-43034290D01*
X18789548Y-43077152D01*
X18797406Y-43125730D01*
X19362239Y-42819025D01*
X19145069Y-42819025D01*
X19089824Y-42809500D01*
X19066964Y-42781877D01*
X19061249Y-42734252D01*
X19066964Y-42686627D01*
X19085061Y-42661862D01*
X19140306Y-42650432D01*
X19483206Y-42650432D01*
X19536070Y-42659481D01*
X19561311Y-42686627D01*
X19567026Y-42739967D01*
X19560835Y-42782711D01*
X19542261Y-42834741D01*
X19514996Y-42891058D01*
X19482730Y-42946660D01*
X19836584Y-42717107D01*
X19841346Y-42677579D01*
X19857539Y-42657100D01*
X19906116Y-42648527D01*
X20435706Y-42648527D01*
X20480474Y-42655671D01*
X20499524Y-42678055D01*
X20504286Y-42718060D01*
X20756699Y-42667577D01*
X20819564Y-42647575D01*
X20884334Y-42640907D01*
X20952497Y-42647277D01*
X21016017Y-42666387D01*
X21074893Y-42698236D01*
X21646334Y-42647575D01*
X21791114Y-42648527D01*
X21880649Y-42648527D01*
X21913986Y-42649956D01*
X21938751Y-42659005D01*
X21958039Y-42684722D01*
X21964469Y-42735205D01*
X22031144Y-42766637D01*
X22016856Y-42720917D01*
X22030906Y-42689009D01*
X22073054Y-42659957D01*
X22121155Y-42643765D01*
X22146396Y-42647575D01*
X22162589Y-42660910D01*
X22178305Y-42686151D01*
X22191045Y-42712821D01*
X22214976Y-42765209D01*
X22245575Y-42832479D01*
X22278318Y-42903797D01*
X22311179Y-42975116D01*
X22342135Y-43042386D01*
X22365590Y-43093226D01*
X22375949Y-43115252D01*
X22566449Y-42698057D01*
X22579784Y-42669482D01*
X22621694Y-42643765D01*
X22677891Y-42659957D01*
X22720039Y-42689009D01*
X22734089Y-42720917D01*
X22719801Y-42766637D01*
X22456911Y-43300037D01*
X22425003Y-43333851D01*
X22380711Y-43346710D01*
X22371186Y-43346710D01*
X22325943Y-43333851D01*
X22294034Y-43300037D01*
X22031144Y-42766637D01*
X21964469Y-42735205D01*
X21958516Y-42781163D01*
X21940656Y-42804737D01*
X21917320Y-42813786D01*
X21886364Y-42815215D01*
X21719676Y-42815215D01*
X21710151Y-42887605D01*
X21743489Y-42885700D01*
X21801803Y-42893267D01*
X21856095Y-42915968D01*
X21906366Y-42953804D01*
X21946583Y-43002593D01*
X21970713Y-43058155D01*
X21978756Y-43120491D01*
X21971136Y-43183145D01*
X21948276Y-43239660D01*
X21910176Y-43290036D01*
X21860752Y-43329459D01*
X21803920Y-43353113D01*
X21739679Y-43360997D01*
X21682529Y-43356023D01*
X21629189Y-43341101D01*
X21579659Y-43316230D01*
X21555846Y-43298132D01*
X21548226Y-43291465D01*
X21512031Y-43234315D01*
X21547274Y-43172402D01*
X21602519Y-43140970D01*
X21666336Y-43171450D01*
X21725868Y-43191452D01*
X21788733Y-43173355D01*
X21809211Y-43123349D01*
X21786828Y-43072866D01*
X21735869Y-43054292D01*
X21690149Y-43071437D01*
X21638238Y-43093345D01*
X21578230Y-43075247D01*
X21533939Y-43046196D01*
X21523461Y-43022860D01*
X21528224Y-42978331D01*
X21542511Y-42869507D01*
X21557037Y-42762351D01*
X21562514Y-42722822D01*
X21569181Y-42702820D01*
X21582993Y-42677102D01*
X21607758Y-42656624D01*
X21646334Y-42647575D01*
X21074893Y-42698236D01*
X21129126Y-42742825D01*
X21174549Y-42796850D01*
X21206993Y-42857006D01*
X21226460Y-42923294D01*
X21232949Y-42995714D01*
X21226758Y-43068401D01*
X21208184Y-43135493D01*
X21177228Y-43196989D01*
X21133889Y-43252889D01*
X21081501Y-43299353D01*
X21023399Y-43332542D01*
X20959581Y-43352455D01*
X20890049Y-43359092D01*
X20820367Y-43352544D01*
X20756103Y-43332899D01*
X20697257Y-43300157D01*
X20643828Y-43254317D01*
X20599447Y-43199430D01*
X20567747Y-43139541D01*
X20548726Y-43074652D01*
X20542386Y-43004762D01*
X20549530Y-42928205D01*
X20570961Y-42856649D01*
X20604299Y-42793188D01*
X20647161Y-42740920D01*
X20698358Y-42699248D01*
X20756699Y-42667577D01*
X20504286Y-42718060D01*
X20499524Y-42757589D01*
X20483331Y-42778067D01*
X20434754Y-42786640D01*
X20252826Y-42786640D01*
X20252826Y-43265747D01*
X20251397Y-43298132D01*
X20242825Y-43322421D01*
X20217584Y-43341947D01*
X20169959Y-43347662D01*
X20122810Y-43341947D01*
X20098045Y-43322421D01*
X20089472Y-43297656D01*
X20088044Y-43264795D01*
X20088044Y-42786640D01*
X19905164Y-42786640D01*
X19860396Y-42779496D01*
X19841346Y-42757112D01*
X19836584Y-42717107D01*
X19482730Y-42946660D01*
X19447845Y-43002143D01*
X19412721Y-43058102D01*
X19376050Y-43122872D01*
X19349856Y-43180975D01*
X19334140Y-43232410D01*
X19328901Y-43277177D01*
X19326996Y-43308134D01*
X19317471Y-43329089D01*
X19292230Y-43343852D01*
X19244129Y-43347662D01*
X19196027Y-43343852D01*
X19170786Y-43328612D01*
X19161737Y-43307181D01*
X19160309Y-43275272D01*
X19165547Y-43212527D01*
X19181264Y-43148114D01*
X19204362Y-43086320D01*
X19231746Y-43031432D01*
X19261274Y-42982022D01*
X19290801Y-42936659D01*
X19318186Y-42896416D01*
X19341284Y-42862364D01*
X19362239Y-42819025D01*
X18797406Y-43125730D01*
X18788940Y-43189706D01*
X18763540Y-43245745D01*
X18721206Y-43293846D01*
X18666067Y-43330623D01*
X18602250Y-43352690D01*
X18529754Y-43360045D01*
X18457787Y-43352637D01*
X18394287Y-43330412D01*
X18339254Y-43293370D01*
X18312346Y-43263604D01*
X18288771Y-43225742D01*
X18278294Y-43200977D01*
X18276389Y-43191452D01*
X18265911Y-43140017D01*
X18289247Y-43098584D01*
X18359256Y-43084772D01*
X18409739Y-43094297D01*
X18438314Y-43143827D01*
X18490701Y-43189547D01*
X18530706Y-43195262D01*
X18574521Y-43190143D01*
X18605001Y-43174784D01*
X18628814Y-43128587D01*
X18605477Y-43083344D01*
X18550232Y-43063817D01*
X18506894Y-43061912D01*
X18482129Y-43052387D01*
X18462841Y-43027861D01*
X18456411Y-42979045D01*
X18465222Y-42925943D01*
X18491654Y-42899987D01*
X18541184Y-42895225D01*
X18595476Y-42885938D01*
X18613574Y-42858077D01*
X18594524Y-42819977D01*
X18541660Y-42801880D01*
X18487844Y-42813310D01*
X18463079Y-42836170D01*
X18457364Y-42847600D01*
X18430694Y-42883319D01*
X18394499Y-42895225D01*
X18342111Y-42878080D01*
X18306392Y-42848314D01*
X18294486Y-42814262D01*
X18316394Y-42749492D01*
X18337349Y-42719489D01*
X18376877Y-42681865D01*
X18439742Y-42652337D01*
X18482486Y-42642336D01*
X18529754Y-42639002D01*
X18265911Y-42126372D01*
X17753281Y-42126372D01*
X17753281Y-43873628D01*
X18863605Y-43330517D01*
X18845031Y-43261937D01*
X18845031Y-43258127D01*
X18846460Y-43224790D01*
X18855509Y-43199072D01*
X18880631Y-43177641D01*
X18927422Y-43170497D01*
X18976119Y-43175498D01*
X19006956Y-43190500D01*
X19023149Y-43257175D01*
X19023149Y-43260985D01*
X19021720Y-43294799D01*
X19011719Y-43320992D01*
X18986597Y-43341709D01*
X18939805Y-43348615D01*
X18891942Y-43344091D01*
X18863605Y-43330517D01*
X17753281Y-43873628D01*
X18265911Y-43873628D01*
X22734089Y-43873628D01*
X23246719Y-43873628D01*
X23246719Y-42126372D01*
X22734089Y-42126372D01*
X18265911Y-42126372D01*
G37*
G36*
X20710979Y-43000000D02*
G01*
X20717064Y-43052970D01*
X20735320Y-43098848D01*
X20765748Y-43137636D01*
X20823731Y-43177284D01*
X20888144Y-43190500D01*
X20952438Y-43177641D01*
X21010064Y-43139065D01*
X21040226Y-43100859D01*
X21058324Y-43054822D01*
X21064356Y-43000952D01*
X21058271Y-42946977D01*
X21040015Y-42900622D01*
X21009588Y-42861887D01*
X20951604Y-42822597D01*
X20887191Y-42809500D01*
X20822898Y-42822716D01*
X20765271Y-42862364D01*
X20735109Y-42901152D01*
X20717011Y-42947030D01*
X20710979Y-43000000D01*
G37*
%TO.C,kibuzzard-625C3140*%
G36*
X30186705Y-16626849D02*
G01*
X30271477Y-17149956D01*
X30511507Y-17149956D01*
X30566752Y-17156730D01*
X30615647Y-17177050D01*
X30658192Y-17210916D01*
X30692588Y-17254943D01*
X30713226Y-17304473D01*
X30720105Y-17359506D01*
X30711056Y-17419752D01*
X30683910Y-17474759D01*
X30794876Y-17429634D01*
X30816307Y-17358077D01*
X30849645Y-17294617D01*
X30892507Y-17242349D01*
X30943704Y-17200677D01*
X31002045Y-17169006D01*
X31064910Y-17149004D01*
X31129680Y-17142336D01*
X31197843Y-17148706D01*
X31261363Y-17167816D01*
X31320240Y-17199665D01*
X31374472Y-17244254D01*
X31419895Y-17298278D01*
X31452339Y-17358435D01*
X31587832Y-17294617D01*
X31630695Y-17242349D01*
X31681892Y-17200677D01*
X31740232Y-17169006D01*
X31803097Y-17149004D01*
X31867867Y-17142336D01*
X31936031Y-17148706D01*
X31999551Y-17167816D01*
X32058427Y-17199665D01*
X32112660Y-17244254D01*
X32158082Y-17298278D01*
X32190527Y-17358435D01*
X32209994Y-17424723D01*
X32216482Y-17497142D01*
X32210291Y-17569830D01*
X32191717Y-17636922D01*
X32160761Y-17698418D01*
X32117422Y-17754317D01*
X32065035Y-17800782D01*
X32288872Y-17750984D01*
X32264107Y-17696215D01*
X32274347Y-17667997D01*
X32305065Y-17631921D01*
X32355547Y-17609061D01*
X32387456Y-17620967D01*
X32429842Y-17656686D01*
X32467942Y-17687642D01*
X32513662Y-17702406D01*
X32562875Y-17694363D01*
X32592402Y-17670233D01*
X32602245Y-17630016D01*
X32577956Y-17593345D01*
X32517472Y-17571914D01*
X32479849Y-17563222D01*
X32439367Y-17550482D01*
X32398886Y-17534409D01*
X32361262Y-17515716D01*
X32328044Y-17489880D01*
X32300779Y-17452375D01*
X32282562Y-17404631D01*
X32276490Y-17348076D01*
X32283422Y-17294577D01*
X32304218Y-17245841D01*
X32338879Y-17201867D01*
X32385498Y-17167207D01*
X32442172Y-17146411D01*
X32508900Y-17139479D01*
X32563550Y-17143170D01*
X32613199Y-17154242D01*
X32678445Y-17184246D01*
X32702257Y-17202344D01*
X32814652Y-17179007D01*
X32830845Y-17158529D01*
X32879422Y-17149956D01*
X33409012Y-17149956D01*
X33453780Y-17157100D01*
X33472830Y-17179484D01*
X33477592Y-17219489D01*
X33472830Y-17259017D01*
X33456638Y-17279496D01*
X33408060Y-17288069D01*
X33226132Y-17288069D01*
X33226132Y-17767176D01*
X33224704Y-17799561D01*
X33846210Y-17738125D01*
X33810610Y-17691929D01*
X33781916Y-17634302D01*
X33762985Y-17568223D01*
X33756675Y-17496666D01*
X33762866Y-17425824D01*
X33781440Y-17361887D01*
X33809658Y-17306642D01*
X33844781Y-17261875D01*
X33886096Y-17225561D01*
X33932887Y-17195676D01*
X33995223Y-17167101D01*
X34057771Y-17149956D01*
X34120530Y-17144241D01*
X34165655Y-17147694D01*
X34211494Y-17158052D01*
X34281502Y-17186151D01*
X34745370Y-17142336D01*
X34813533Y-17148706D01*
X34877053Y-17167816D01*
X34935930Y-17199665D01*
X35155897Y-17232824D01*
X35164946Y-17179960D01*
X35192092Y-17157576D01*
X35238765Y-17151861D01*
X35284009Y-17157100D01*
X35307345Y-17169006D01*
X35329252Y-17193771D01*
X35392541Y-17279734D01*
X35448421Y-17355379D01*
X35496892Y-17420704D01*
X35537956Y-17475711D01*
X35571611Y-17520399D01*
X35597857Y-17554769D01*
X35597857Y-17232824D01*
X35606906Y-17179960D01*
X35634052Y-17157576D01*
X35679296Y-17151861D01*
X35723111Y-17156624D01*
X35747876Y-17168054D01*
X35759782Y-17188056D01*
X35765497Y-17236634D01*
X35832172Y-17268066D01*
X35817885Y-17222346D01*
X35831934Y-17190437D01*
X35874082Y-17161386D01*
X35922184Y-17145194D01*
X35947425Y-17149004D01*
X35963617Y-17162339D01*
X35979334Y-17187580D01*
X35992073Y-17214250D01*
X36016005Y-17266637D01*
X36046604Y-17333908D01*
X36079346Y-17405226D01*
X36112207Y-17476545D01*
X36143164Y-17543815D01*
X36166619Y-17594655D01*
X36176977Y-17616681D01*
X36367477Y-17199486D01*
X36380812Y-17170911D01*
X36422722Y-17145194D01*
X36478920Y-17161386D01*
X36521068Y-17190437D01*
X36535117Y-17222346D01*
X36520830Y-17268066D01*
X36587505Y-17764319D01*
X36587505Y-17234729D01*
X36605602Y-17168530D01*
X36674182Y-17150909D01*
X37049467Y-17150909D01*
X37082329Y-17152337D01*
X37107570Y-17161386D01*
X37126858Y-17186627D01*
X37133287Y-17235681D01*
X37124477Y-17288545D01*
X37098045Y-17313786D01*
X37048515Y-17319501D01*
X36756097Y-17319501D01*
X36756097Y-17415704D01*
X36944692Y-17415704D01*
X36977554Y-17417132D01*
X37002795Y-17426181D01*
X37022083Y-17451422D01*
X37028512Y-17500476D01*
X37019464Y-17553340D01*
X36992317Y-17578581D01*
X36942787Y-17584296D01*
X36756097Y-17584296D01*
X36756097Y-17680499D01*
X37049467Y-17680499D01*
X37082329Y-17681927D01*
X37107570Y-17690976D01*
X37126858Y-17716217D01*
X37133287Y-17765271D01*
X37195200Y-17763366D01*
X37195200Y-17234729D01*
X37196629Y-17201867D01*
X37205677Y-17176626D01*
X37230919Y-17157338D01*
X37279972Y-17150909D01*
X37485712Y-17150909D01*
X37541063Y-17157682D01*
X37595356Y-17178002D01*
X37648590Y-17211869D01*
X37683356Y-17246635D01*
X37711455Y-17291879D01*
X37730029Y-17345219D01*
X37736220Y-17404274D01*
X37728283Y-17471795D01*
X37704470Y-17530850D01*
X37664783Y-17581439D01*
X37681293Y-17620491D01*
X37702883Y-17670339D01*
X37729553Y-17730981D01*
X37743840Y-17780511D01*
X37729076Y-17813849D01*
X37684785Y-17841471D01*
X37635731Y-17854806D01*
X37605251Y-17845757D01*
X37587630Y-17827184D01*
X37575142Y-17799985D01*
X37550377Y-17742517D01*
X37513335Y-17654781D01*
X37483808Y-17656686D01*
X37363792Y-17656686D01*
X37363792Y-17764319D01*
X37362364Y-17797180D01*
X37353315Y-17822421D01*
X37328074Y-17841709D01*
X37279020Y-17848139D01*
X37226156Y-17839328D01*
X37200915Y-17812896D01*
X37195200Y-17763366D01*
X37133287Y-17765271D01*
X37124477Y-17818135D01*
X37098045Y-17843376D01*
X37048515Y-17849091D01*
X36671325Y-17849091D01*
X36618461Y-17840042D01*
X36593220Y-17812896D01*
X36587505Y-17764319D01*
X36520830Y-17268066D01*
X36257940Y-17801466D01*
X36226031Y-17835280D01*
X36181740Y-17848139D01*
X36172215Y-17848139D01*
X36126971Y-17835280D01*
X36095062Y-17801466D01*
X35832172Y-17268066D01*
X35765497Y-17236634D01*
X35765497Y-17765271D01*
X35764069Y-17798609D01*
X35755020Y-17823374D01*
X35729779Y-17842662D01*
X35680725Y-17849091D01*
X35629290Y-17843376D01*
X35605477Y-17825279D01*
X35538115Y-17735532D01*
X35478901Y-17656792D01*
X35427836Y-17589059D01*
X35384921Y-17532332D01*
X35350155Y-17486612D01*
X35323537Y-17451899D01*
X35323537Y-17765271D01*
X35322109Y-17798609D01*
X35313060Y-17823374D01*
X35287819Y-17842662D01*
X35238765Y-17849091D01*
X35191140Y-17842662D01*
X35166375Y-17823374D01*
X35157326Y-17797656D01*
X35155897Y-17764319D01*
X35155897Y-17232824D01*
X34935930Y-17199665D01*
X34990162Y-17244254D01*
X35035585Y-17298278D01*
X35068029Y-17358435D01*
X35087496Y-17424723D01*
X35093985Y-17497142D01*
X35087794Y-17569830D01*
X35069220Y-17636922D01*
X35038264Y-17698418D01*
X34994925Y-17754317D01*
X34942537Y-17800782D01*
X34884435Y-17833970D01*
X34820617Y-17853884D01*
X34751085Y-17860521D01*
X34681404Y-17853973D01*
X34617140Y-17834327D01*
X34558293Y-17801585D01*
X34504864Y-17755746D01*
X34460483Y-17700858D01*
X34428783Y-17640970D01*
X34409763Y-17576081D01*
X34403422Y-17506191D01*
X34410566Y-17429634D01*
X34431997Y-17358077D01*
X34465335Y-17294617D01*
X34508197Y-17242349D01*
X34559394Y-17200677D01*
X34617735Y-17169006D01*
X34680600Y-17149004D01*
X34745370Y-17142336D01*
X34281502Y-17186151D01*
X34304362Y-17199486D01*
X34331032Y-17216631D01*
X34355797Y-17261875D01*
X34335795Y-17314739D01*
X34300552Y-17353315D01*
X34269120Y-17366174D01*
X34220542Y-17345219D01*
X34173870Y-17320930D01*
X34113862Y-17312834D01*
X34052426Y-17323549D01*
X33991942Y-17355696D01*
X33944317Y-17414751D01*
X33930030Y-17455352D01*
X33925267Y-17500952D01*
X33930030Y-17546553D01*
X33944317Y-17587154D01*
X33992895Y-17647161D01*
X34052188Y-17678594D01*
X34113862Y-17689071D01*
X34169584Y-17681451D01*
X34207207Y-17666211D01*
X34224352Y-17653829D01*
X34270072Y-17634779D01*
X34300791Y-17648114D01*
X34333890Y-17688119D01*
X34354845Y-17741459D01*
X34341986Y-17774796D01*
X34311982Y-17798609D01*
X34279121Y-17818611D01*
X34214827Y-17843376D01*
X34167083Y-17854806D01*
X34121006Y-17858616D01*
X34075524Y-17855640D01*
X34029566Y-17846710D01*
X33982656Y-17830756D01*
X33934316Y-17806705D01*
X33887763Y-17775511D01*
X33846210Y-17738125D01*
X33224704Y-17799561D01*
X33216131Y-17823850D01*
X33190890Y-17843376D01*
X33143265Y-17849091D01*
X33096116Y-17843376D01*
X33071351Y-17823850D01*
X33062779Y-17799085D01*
X33061350Y-17766224D01*
X33061350Y-17288069D01*
X32878470Y-17288069D01*
X32833702Y-17280925D01*
X32814652Y-17258541D01*
X32809890Y-17218536D01*
X32814652Y-17179007D01*
X32702257Y-17202344D01*
X32731785Y-17249016D01*
X32708925Y-17301404D01*
X32676064Y-17337122D01*
X32642250Y-17349029D01*
X32592720Y-17329979D01*
X32581766Y-17320454D01*
X32567002Y-17308071D01*
X32516044Y-17295689D01*
X32464609Y-17310452D01*
X32444130Y-17351410D01*
X32468419Y-17393796D01*
X32528902Y-17415704D01*
X32566764Y-17422967D01*
X32607960Y-17433325D01*
X32649156Y-17446541D01*
X32687017Y-17462376D01*
X32720236Y-17485832D01*
X32747501Y-17521907D01*
X32765718Y-17569175D01*
X32771790Y-17626206D01*
X32765599Y-17684428D01*
X32747025Y-17735267D01*
X32718450Y-17777058D01*
X32682255Y-17808134D01*
X32629656Y-17836180D01*
X32574728Y-17853007D01*
X32517472Y-17858616D01*
X32473896Y-17855878D01*
X32432700Y-17847662D01*
X32367930Y-17820516D01*
X32325067Y-17790512D01*
X32297445Y-17761461D01*
X32288872Y-17750984D01*
X32065035Y-17800782D01*
X32006932Y-17833970D01*
X31943115Y-17853884D01*
X31873582Y-17860521D01*
X31803901Y-17853973D01*
X31739637Y-17834327D01*
X31680791Y-17801585D01*
X31627361Y-17755746D01*
X31582981Y-17700858D01*
X31551280Y-17640970D01*
X31532260Y-17576081D01*
X31525920Y-17506191D01*
X31533064Y-17429634D01*
X31554495Y-17358077D01*
X31587832Y-17294617D01*
X31452339Y-17358435D01*
X31471806Y-17424723D01*
X31478295Y-17497142D01*
X31472104Y-17569830D01*
X31453530Y-17636922D01*
X31422574Y-17698418D01*
X31379235Y-17754317D01*
X31326847Y-17800782D01*
X31268745Y-17833970D01*
X31204927Y-17853884D01*
X31135395Y-17860521D01*
X31065714Y-17853973D01*
X31001450Y-17834327D01*
X30942603Y-17801585D01*
X30889174Y-17755746D01*
X30844793Y-17700858D01*
X30813093Y-17640970D01*
X30794073Y-17576081D01*
X30787732Y-17506191D01*
X30794876Y-17429634D01*
X30683910Y-17474759D01*
X30715131Y-17521008D01*
X30733863Y-17570855D01*
X30740107Y-17624301D01*
X30732011Y-17684362D01*
X30710262Y-17737543D01*
X30674861Y-17783845D01*
X30629617Y-17819564D01*
X30578341Y-17840995D01*
X30521032Y-17848139D01*
X30270525Y-17848139D01*
X30217661Y-17839090D01*
X30192420Y-17811944D01*
X30186705Y-17762414D01*
X30186705Y-17233776D01*
X30188134Y-17200439D01*
X30197182Y-17175674D01*
X30222424Y-17156386D01*
X30271477Y-17149956D01*
X30186705Y-16626849D01*
X29674075Y-16626849D01*
X29674075Y-18373151D01*
X30186705Y-18373151D01*
X44813295Y-18373151D01*
X44799008Y-17268066D01*
X44536118Y-17801466D01*
X44504209Y-17835280D01*
X44459918Y-17848139D01*
X44450393Y-17848139D01*
X44405149Y-17835280D01*
X44373240Y-17801466D01*
X44110350Y-17268066D01*
X44096063Y-17222346D01*
X44110112Y-17190437D01*
X44152260Y-17161386D01*
X44200361Y-17145194D01*
X44225603Y-17149004D01*
X44241795Y-17162339D01*
X44257511Y-17187580D01*
X44270251Y-17214250D01*
X44294183Y-17266637D01*
X44324782Y-17333908D01*
X44357524Y-17405226D01*
X44390385Y-17476545D01*
X44421341Y-17543815D01*
X44444797Y-17594655D01*
X44455155Y-17616681D01*
X44645655Y-17199486D01*
X44658990Y-17170911D01*
X44700900Y-17145194D01*
X44757098Y-17161386D01*
X44799246Y-17190437D01*
X44813295Y-17222346D01*
X44799008Y-17268066D01*
X44813295Y-18373151D01*
X45325925Y-18373151D01*
X45325925Y-16626849D01*
X37841948Y-17149956D01*
X38371538Y-17149956D01*
X42500625Y-17142336D01*
X42568788Y-17148706D01*
X43321680Y-17174721D01*
X43375496Y-17149956D01*
X43420740Y-17154719D01*
X43445505Y-17165672D01*
X43458840Y-17186151D01*
X43463603Y-17236634D01*
X43533400Y-17332889D01*
X43557053Y-17273675D01*
X43596476Y-17219012D01*
X43648652Y-17175356D01*
X43710565Y-17149162D01*
X43782214Y-17140431D01*
X43853916Y-17149268D01*
X43915987Y-17175780D01*
X43968428Y-17219965D01*
X44008115Y-17275475D01*
X44031928Y-17335958D01*
X44039865Y-17401416D01*
X44033912Y-17454280D01*
X44016053Y-17504286D01*
X43989859Y-17548101D01*
X43958903Y-17582391D01*
X43892228Y-17635017D01*
X43833173Y-17667164D01*
X43809360Y-17676689D01*
X43809360Y-17681451D01*
X43983668Y-17681451D01*
X44039389Y-17690500D01*
X44061773Y-17718122D01*
X44067488Y-17766700D01*
X44061296Y-17814801D01*
X44040818Y-17839566D01*
X43981763Y-17850996D01*
X43609335Y-17850996D01*
X43550280Y-17825279D01*
X43525515Y-17765271D01*
X43534445Y-17715860D01*
X43561234Y-17670497D01*
X43600643Y-17630254D01*
X43647435Y-17596202D01*
X43697918Y-17565484D01*
X43748400Y-17535242D01*
X43795192Y-17503215D01*
X43834601Y-17467139D01*
X43861390Y-17427848D01*
X43870320Y-17386176D01*
X43863653Y-17361887D01*
X43848889Y-17336170D01*
X43823648Y-17317596D01*
X43776023Y-17309024D01*
X43723159Y-17331407D01*
X43697918Y-17375699D01*
X43694108Y-17397606D01*
X43694108Y-17403321D01*
X43692679Y-17434754D01*
X43683630Y-17458566D01*
X43657913Y-17475711D01*
X43609335Y-17481426D01*
X43556233Y-17472377D01*
X43530278Y-17445231D01*
X43525515Y-17396654D01*
X43533400Y-17332889D01*
X43463603Y-17236634D01*
X43463603Y-17767176D01*
X43462174Y-17800037D01*
X43453125Y-17825279D01*
X43427884Y-17844567D01*
X43378830Y-17850996D01*
X43330967Y-17844805D01*
X43305488Y-17826231D01*
X43296439Y-17800037D01*
X43295010Y-17765271D01*
X43295010Y-17425229D01*
X43282628Y-17436659D01*
X43215953Y-17466186D01*
X43158326Y-17432849D01*
X43128323Y-17373794D01*
X43162613Y-17317596D01*
X43318823Y-17176626D01*
X43321680Y-17174721D01*
X42568788Y-17148706D01*
X42632308Y-17167816D01*
X42691185Y-17199665D01*
X42745418Y-17244254D01*
X42790840Y-17298278D01*
X42823284Y-17358435D01*
X42842751Y-17424723D01*
X42849240Y-17497142D01*
X42843049Y-17569830D01*
X42824475Y-17636922D01*
X42793519Y-17698418D01*
X42750180Y-17754317D01*
X42697793Y-17800782D01*
X42639690Y-17833970D01*
X42575873Y-17853884D01*
X42506340Y-17860521D01*
X42436659Y-17853973D01*
X42372395Y-17834327D01*
X42313548Y-17801585D01*
X42260119Y-17755746D01*
X42215738Y-17700858D01*
X42184038Y-17640970D01*
X42165018Y-17576081D01*
X42158678Y-17506191D01*
X42165821Y-17429634D01*
X42187253Y-17358077D01*
X42220590Y-17294617D01*
X42263453Y-17242349D01*
X42314649Y-17200677D01*
X42372990Y-17169006D01*
X42435855Y-17149004D01*
X42500625Y-17142336D01*
X38371538Y-17149956D01*
X38416305Y-17157100D01*
X38435355Y-17179484D01*
X38440118Y-17219489D01*
X38435355Y-17259017D01*
X38419163Y-17279496D01*
X38370585Y-17288069D01*
X38188658Y-17288069D01*
X38492505Y-17764319D01*
X38492505Y-17234729D01*
X38510603Y-17168530D01*
X38579183Y-17150909D01*
X38954468Y-17150909D01*
X38987329Y-17152337D01*
X39012570Y-17161386D01*
X39031858Y-17186627D01*
X39038288Y-17235681D01*
X39029477Y-17288545D01*
X39003045Y-17313786D01*
X38953515Y-17319501D01*
X38661098Y-17319501D01*
X38661098Y-17415704D01*
X38849693Y-17415704D01*
X38882554Y-17417132D01*
X38907795Y-17426181D01*
X38927083Y-17451422D01*
X38933513Y-17500476D01*
X38924464Y-17553340D01*
X38897318Y-17578581D01*
X38847788Y-17584296D01*
X38661098Y-17584296D01*
X38661098Y-17680499D01*
X38954468Y-17680499D01*
X38987329Y-17681927D01*
X39012570Y-17690976D01*
X39031858Y-17716217D01*
X39038288Y-17765271D01*
X39100200Y-17763366D01*
X39100200Y-17234729D01*
X39101629Y-17201867D01*
X39110678Y-17176626D01*
X39135919Y-17157338D01*
X39184973Y-17150909D01*
X39390713Y-17150909D01*
X39446063Y-17157682D01*
X39500356Y-17178002D01*
X39943639Y-17200915D01*
X39952688Y-17175674D01*
X39978405Y-17155671D01*
X40026983Y-17149956D01*
X40075560Y-17155671D01*
X40100325Y-17175674D01*
X40111755Y-17235681D01*
X40111755Y-17521431D01*
X40118899Y-17578105D01*
X40140330Y-17631921D01*
X40183193Y-17674784D01*
X40250820Y-17690976D01*
X40311542Y-17678117D01*
X40354643Y-17639541D01*
X40380360Y-17584058D01*
X40388933Y-17520479D01*
X40388933Y-17229014D01*
X40398458Y-17176626D01*
X40426080Y-17155671D01*
X40471324Y-17149956D01*
X40514663Y-17154719D01*
X40539428Y-17166149D01*
X40551810Y-17186151D01*
X40557525Y-17235681D01*
X40557525Y-17523336D01*
X40552643Y-17584772D01*
X40633725Y-17763366D01*
X40633725Y-17234729D01*
X40635154Y-17201867D01*
X40644203Y-17176626D01*
X40669444Y-17157338D01*
X40718498Y-17150909D01*
X40922333Y-17150909D01*
X41522408Y-17149956D01*
X42051998Y-17149956D01*
X42096765Y-17157100D01*
X42115815Y-17179484D01*
X42120578Y-17219489D01*
X42115815Y-17259017D01*
X42099623Y-17279496D01*
X42051045Y-17288069D01*
X41869118Y-17288069D01*
X41869118Y-17767176D01*
X41867689Y-17799561D01*
X41859116Y-17823850D01*
X41833875Y-17843376D01*
X41786250Y-17849091D01*
X41739101Y-17843376D01*
X41714336Y-17823850D01*
X41705764Y-17799085D01*
X41704335Y-17766224D01*
X41704335Y-17288069D01*
X41521455Y-17288069D01*
X41476688Y-17280925D01*
X41457638Y-17258541D01*
X41452875Y-17218536D01*
X41457638Y-17179007D01*
X41473830Y-17158529D01*
X41522408Y-17149956D01*
X40922333Y-17150909D01*
X40977683Y-17157682D01*
X41031976Y-17178002D01*
X41085210Y-17211869D01*
X41120691Y-17246635D01*
X41149028Y-17291879D01*
X41167601Y-17345219D01*
X41173793Y-17404274D01*
X41167601Y-17463210D01*
X41149028Y-17516192D01*
X41120691Y-17561079D01*
X41085210Y-17595726D01*
X41031870Y-17629593D01*
X40977260Y-17649913D01*
X40921380Y-17656686D01*
X40802318Y-17656686D01*
X40802318Y-17764319D01*
X40800889Y-17797180D01*
X40791840Y-17822421D01*
X40766599Y-17841709D01*
X40717545Y-17848139D01*
X40664681Y-17839328D01*
X40639440Y-17812896D01*
X40633725Y-17763366D01*
X40552643Y-17584772D01*
X40537999Y-17643351D01*
X40513591Y-17699072D01*
X40479420Y-17751936D01*
X40435843Y-17795870D01*
X40381313Y-17830517D01*
X40318090Y-17853020D01*
X40248439Y-17860521D01*
X40178906Y-17852901D01*
X40116041Y-17830041D01*
X40062106Y-17794799D01*
X40019363Y-17750031D01*
X39985608Y-17697882D01*
X39961498Y-17642399D01*
X39947032Y-17583582D01*
X39942210Y-17521431D01*
X39942210Y-17234729D01*
X39943639Y-17200915D01*
X39500356Y-17178002D01*
X39553590Y-17211869D01*
X39588356Y-17246635D01*
X39616455Y-17291879D01*
X39635029Y-17345219D01*
X39641220Y-17404274D01*
X39633283Y-17471795D01*
X39609470Y-17530850D01*
X39569783Y-17581439D01*
X39586292Y-17620491D01*
X39607883Y-17670339D01*
X39634553Y-17730981D01*
X39648840Y-17780511D01*
X39634076Y-17813849D01*
X39589785Y-17841471D01*
X39540731Y-17854806D01*
X39510251Y-17845757D01*
X39492630Y-17827184D01*
X39480142Y-17799985D01*
X39455377Y-17742517D01*
X39418335Y-17654781D01*
X39388808Y-17656686D01*
X39268793Y-17656686D01*
X39268793Y-17764319D01*
X39267364Y-17797180D01*
X39258315Y-17822421D01*
X39233074Y-17841709D01*
X39184020Y-17848139D01*
X39131156Y-17839328D01*
X39105915Y-17812896D01*
X39100200Y-17763366D01*
X39038288Y-17765271D01*
X39029477Y-17818135D01*
X39003045Y-17843376D01*
X38953515Y-17849091D01*
X38576325Y-17849091D01*
X38523461Y-17840042D01*
X38498220Y-17812896D01*
X38492505Y-17764319D01*
X38188658Y-17288069D01*
X38188658Y-17767176D01*
X38187229Y-17799561D01*
X38178656Y-17823850D01*
X38153415Y-17843376D01*
X38105790Y-17849091D01*
X38058641Y-17843376D01*
X38033876Y-17823850D01*
X38025304Y-17799085D01*
X38023875Y-17766224D01*
X38023875Y-17288069D01*
X37840995Y-17288069D01*
X37796228Y-17280925D01*
X37777178Y-17258541D01*
X37772415Y-17218536D01*
X37777178Y-17179007D01*
X37793370Y-17158529D01*
X37841948Y-17149956D01*
X45325925Y-16626849D01*
X44813295Y-16626849D01*
X30186705Y-16626849D01*
G37*
G36*
X30956325Y-17501429D02*
G01*
X30962410Y-17554398D01*
X30980667Y-17600277D01*
X31011094Y-17639065D01*
X31069077Y-17678713D01*
X31133490Y-17691929D01*
X31197784Y-17679070D01*
X31255410Y-17640494D01*
X31285572Y-17602288D01*
X31303670Y-17556250D01*
X31309702Y-17502381D01*
X31303617Y-17448406D01*
X31285361Y-17402051D01*
X31254934Y-17363316D01*
X31196950Y-17324026D01*
X31132537Y-17310929D01*
X31068244Y-17324145D01*
X31010617Y-17363792D01*
X30980455Y-17402580D01*
X30962357Y-17448459D01*
X30956325Y-17501429D01*
G37*
G36*
X34572015Y-17501429D02*
G01*
X34578100Y-17554398D01*
X34596357Y-17600277D01*
X34626784Y-17639065D01*
X34684767Y-17678713D01*
X34749180Y-17691929D01*
X34813474Y-17679070D01*
X34871100Y-17640494D01*
X34901262Y-17602288D01*
X34919360Y-17556250D01*
X34925392Y-17502381D01*
X34919307Y-17448406D01*
X34901051Y-17402051D01*
X34870624Y-17363316D01*
X34812640Y-17324026D01*
X34748227Y-17310929D01*
X34683934Y-17324145D01*
X34626307Y-17363792D01*
X34596145Y-17402580D01*
X34578047Y-17448459D01*
X34572015Y-17501429D01*
G37*
G36*
X31694512Y-17501429D02*
G01*
X31700598Y-17554398D01*
X31718854Y-17600277D01*
X31749281Y-17639065D01*
X31807265Y-17678713D01*
X31871677Y-17691929D01*
X31935971Y-17679070D01*
X31993597Y-17640494D01*
X32023760Y-17602288D01*
X32041857Y-17556250D01*
X32047890Y-17502381D01*
X32041805Y-17448406D01*
X32023548Y-17402051D01*
X31993121Y-17363316D01*
X31935138Y-17324026D01*
X31870725Y-17310929D01*
X31806431Y-17324145D01*
X31748805Y-17363792D01*
X31718642Y-17402580D01*
X31700545Y-17448459D01*
X31694512Y-17501429D01*
G37*
G36*
X42327270Y-17501429D02*
G01*
X42333355Y-17554398D01*
X42351612Y-17600277D01*
X42382039Y-17639065D01*
X42440022Y-17678713D01*
X42504435Y-17691929D01*
X42568729Y-17679070D01*
X42626355Y-17640494D01*
X42656518Y-17602288D01*
X42674615Y-17556250D01*
X42680648Y-17502381D01*
X42674562Y-17448406D01*
X42656306Y-17402051D01*
X42625879Y-17363316D01*
X42567895Y-17324026D01*
X42503483Y-17310929D01*
X42439189Y-17324145D01*
X42381563Y-17363792D01*
X42351400Y-17402580D01*
X42333303Y-17448459D01*
X42327270Y-17501429D01*
G37*
G36*
X30571515Y-17614776D02*
G01*
X30566276Y-17578581D01*
X30548655Y-17559531D01*
X30495315Y-17551911D01*
X30443880Y-17538576D01*
X30426735Y-17483807D01*
X30444356Y-17429039D01*
X30502935Y-17415704D01*
X30548655Y-17395701D01*
X30551512Y-17361411D01*
X30535796Y-17328074D01*
X30488647Y-17318549D01*
X30355297Y-17318549D01*
X30355297Y-17679546D01*
X30511507Y-17679546D01*
X30556513Y-17663354D01*
X30571515Y-17614776D01*
G37*
G36*
X37363792Y-17488094D02*
G01*
X37485712Y-17488094D01*
X37540958Y-17467139D01*
X37568580Y-17404274D01*
X37540958Y-17340932D01*
X37483808Y-17319501D01*
X37363792Y-17319501D01*
X37363792Y-17488094D01*
G37*
G36*
X39268793Y-17488094D02*
G01*
X39390713Y-17488094D01*
X39445958Y-17467139D01*
X39473580Y-17404274D01*
X39445958Y-17340932D01*
X39388808Y-17319501D01*
X39268793Y-17319501D01*
X39268793Y-17488094D01*
G37*
G36*
X40921380Y-17319501D02*
G01*
X40802318Y-17319501D01*
X40802318Y-17488094D01*
X40922333Y-17488094D01*
X40978530Y-17467139D01*
X41006153Y-17404274D01*
X40978530Y-17340932D01*
X40921380Y-17319501D01*
G37*
%TO.C,kibuzzard-625C30F5*%
G36*
X69812584Y-51625896D02*
G01*
X69946886Y-52148051D01*
X70091666Y-52149004D01*
X70181201Y-52149004D01*
X70214539Y-52150432D01*
X70239304Y-52159481D01*
X70258592Y-52185199D01*
X70265021Y-52235681D01*
X70259068Y-52281639D01*
X70241209Y-52305214D01*
X70217872Y-52314262D01*
X70186916Y-52315691D01*
X70020229Y-52315691D01*
X70010704Y-52388081D01*
X70044041Y-52386176D01*
X70102355Y-52393743D01*
X70156648Y-52416445D01*
X70206919Y-52454280D01*
X70247135Y-52503069D01*
X70271265Y-52558632D01*
X70279309Y-52620967D01*
X70594586Y-52800514D01*
X70331696Y-52267114D01*
X70317409Y-52221394D01*
X70331458Y-52189485D01*
X70373606Y-52160434D01*
X70421707Y-52144241D01*
X70446949Y-52148051D01*
X70463141Y-52161386D01*
X70478857Y-52186627D01*
X70491597Y-52213297D01*
X70515529Y-52265685D01*
X70546128Y-52332955D01*
X70578870Y-52404274D01*
X70611731Y-52475592D01*
X70642687Y-52542862D01*
X70666143Y-52593702D01*
X70676501Y-52615729D01*
X70867001Y-52198534D01*
X70880336Y-52169959D01*
X70922246Y-52144241D01*
X70978444Y-52160434D01*
X71020592Y-52189485D01*
X71034641Y-52221394D01*
X71020354Y-52267114D01*
X70757464Y-52800514D01*
X70725555Y-52834327D01*
X70681264Y-52847186D01*
X70671739Y-52847186D01*
X70626495Y-52834327D01*
X70594586Y-52800514D01*
X70279309Y-52620967D01*
X70271689Y-52683621D01*
X70248829Y-52740136D01*
X70210729Y-52790512D01*
X70161305Y-52829935D01*
X70104472Y-52853589D01*
X70040231Y-52861474D01*
X69983081Y-52856500D01*
X69929741Y-52841577D01*
X69880211Y-52816706D01*
X69856399Y-52798609D01*
X69848779Y-52791941D01*
X69812584Y-52734791D01*
X69847826Y-52672879D01*
X69903071Y-52641446D01*
X69966889Y-52671926D01*
X70026420Y-52691929D01*
X70089285Y-52673831D01*
X70109764Y-52623825D01*
X70087380Y-52573342D01*
X70036421Y-52554769D01*
X69990701Y-52571914D01*
X69938790Y-52593821D01*
X69878782Y-52575724D01*
X69834491Y-52546672D01*
X69824014Y-52523336D01*
X69828776Y-52478807D01*
X69843064Y-52369984D01*
X69857589Y-52262827D01*
X69863066Y-52223299D01*
X69869734Y-52203296D01*
X69883545Y-52177579D01*
X69908310Y-52157100D01*
X69946886Y-52148051D01*
X69812584Y-51625896D01*
X69299954Y-51625896D01*
X69299954Y-53374104D01*
X69812584Y-53374104D01*
X71332833Y-52582629D01*
X71328011Y-52520479D01*
X71328011Y-52233776D01*
X71329440Y-52199962D01*
X71338489Y-52174721D01*
X71364206Y-52154719D01*
X71412784Y-52149004D01*
X71461361Y-52154719D01*
X71486126Y-52174721D01*
X71497556Y-52234729D01*
X71497556Y-52520479D01*
X71504700Y-52577152D01*
X71526131Y-52630969D01*
X71568994Y-52673831D01*
X71636621Y-52690024D01*
X71697343Y-52677165D01*
X71740444Y-52638589D01*
X71766161Y-52583106D01*
X71774734Y-52519526D01*
X71774734Y-52228061D01*
X71784259Y-52175674D01*
X71811881Y-52154719D01*
X71857125Y-52149004D01*
X71900464Y-52153766D01*
X71925229Y-52165196D01*
X71937611Y-52185199D01*
X71943326Y-52234729D01*
X71943326Y-52522384D01*
X71938445Y-52583820D01*
X71923800Y-52642399D01*
X71899392Y-52698120D01*
X71865221Y-52750984D01*
X71821644Y-52794918D01*
X71767114Y-52829565D01*
X71703892Y-52852068D01*
X71634240Y-52859569D01*
X71564707Y-52851949D01*
X71501842Y-52829089D01*
X71447907Y-52793846D01*
X71405164Y-52749079D01*
X71371410Y-52696929D01*
X71347299Y-52641446D01*
X71332833Y-52582629D01*
X69812584Y-53374104D01*
X74187416Y-53374104D01*
X72370787Y-52835227D01*
X72315860Y-52852055D01*
X72258604Y-52857664D01*
X72215027Y-52854925D01*
X72173831Y-52846710D01*
X72109061Y-52819564D01*
X72066199Y-52789560D01*
X72038576Y-52760509D01*
X72030004Y-52750031D01*
X72005239Y-52695262D01*
X72015478Y-52667045D01*
X72046196Y-52630969D01*
X72096679Y-52608109D01*
X72128588Y-52620015D01*
X72170974Y-52655734D01*
X72209074Y-52686690D01*
X72254794Y-52701454D01*
X72304006Y-52693410D01*
X72333534Y-52669280D01*
X72343376Y-52629064D01*
X72319088Y-52592392D01*
X72258604Y-52570961D01*
X72220980Y-52562270D01*
X72180499Y-52549530D01*
X72140018Y-52533457D01*
X72102394Y-52514764D01*
X72069175Y-52488927D01*
X72041910Y-52451422D01*
X72023693Y-52403678D01*
X72017621Y-52347124D01*
X72024553Y-52293625D01*
X72045350Y-52244889D01*
X72080010Y-52200915D01*
X72126630Y-52166255D01*
X72183303Y-52145458D01*
X72250031Y-52138526D01*
X72304681Y-52142217D01*
X72354330Y-52153290D01*
X72419576Y-52183294D01*
X72443389Y-52201391D01*
X72472916Y-52248064D01*
X72450056Y-52300451D01*
X72417195Y-52336170D01*
X72383381Y-52348076D01*
X72333851Y-52329026D01*
X72322898Y-52319501D01*
X72308134Y-52307119D01*
X72257175Y-52294736D01*
X72205740Y-52309500D01*
X72185261Y-52350457D01*
X72209550Y-52392844D01*
X72270034Y-52414751D01*
X72307896Y-52422014D01*
X72349091Y-52432372D01*
X72390287Y-52445588D01*
X72428149Y-52461424D01*
X72461367Y-52484879D01*
X72488633Y-52520955D01*
X72506849Y-52568223D01*
X72512921Y-52625254D01*
X72506730Y-52683475D01*
X72488156Y-52734315D01*
X72459581Y-52776106D01*
X72423386Y-52807181D01*
X72370787Y-52835227D01*
X74187416Y-53374104D01*
X74700046Y-53374104D01*
X73471136Y-52715741D01*
X73244441Y-52715741D01*
X73201817Y-52707645D01*
X73180624Y-52683356D01*
X73175861Y-52639541D01*
X73181576Y-52596679D01*
X73199674Y-52573819D01*
X73245394Y-52565246D01*
X73472089Y-52565246D01*
X73514475Y-52573104D01*
X73534954Y-52596679D01*
X73613535Y-52633350D01*
X73594604Y-52567270D01*
X73588294Y-52495714D01*
X73594485Y-52424872D01*
X73613059Y-52360935D01*
X73641277Y-52305690D01*
X73676400Y-52260922D01*
X73717715Y-52224608D01*
X73764506Y-52194724D01*
X73826842Y-52166149D01*
X73889390Y-52149004D01*
X73952149Y-52143289D01*
X73997273Y-52146742D01*
X74043113Y-52157100D01*
X74113121Y-52185199D01*
X74135981Y-52198534D01*
X74162651Y-52215679D01*
X74187416Y-52260922D01*
X74167414Y-52313786D01*
X74132171Y-52352362D01*
X74100739Y-52365221D01*
X74052161Y-52344266D01*
X74005489Y-52319977D01*
X73945481Y-52311881D01*
X73884045Y-52322597D01*
X73823561Y-52354744D01*
X73775936Y-52413799D01*
X73761649Y-52454399D01*
X73756886Y-52500000D01*
X73761649Y-52545601D01*
X73775936Y-52586201D01*
X73824514Y-52646209D01*
X73883807Y-52677641D01*
X73945481Y-52688119D01*
X74001203Y-52680499D01*
X74038826Y-52665259D01*
X74055971Y-52652876D01*
X74101691Y-52633826D01*
X74132409Y-52647161D01*
X74165509Y-52687166D01*
X74186464Y-52740506D01*
X74173605Y-52773844D01*
X74143601Y-52797656D01*
X74110740Y-52817659D01*
X74046446Y-52842424D01*
X73998702Y-52853854D01*
X73952625Y-52857664D01*
X73907143Y-52854687D01*
X73861185Y-52845757D01*
X73814274Y-52829803D01*
X73765935Y-52805752D01*
X73719382Y-52774558D01*
X73677829Y-52737172D01*
X73642229Y-52690976D01*
X73613535Y-52633350D01*
X73534954Y-52596679D01*
X73540669Y-52640494D01*
X73535430Y-52683832D01*
X73518761Y-52707169D01*
X73471136Y-52715741D01*
X74700046Y-53374104D01*
X74700046Y-51625896D01*
X73072039Y-52473806D01*
X73103260Y-52520055D01*
X73121992Y-52569903D01*
X73128236Y-52623349D01*
X73120140Y-52683409D01*
X73098391Y-52736590D01*
X73062990Y-52782892D01*
X73017746Y-52818611D01*
X72966470Y-52840042D01*
X72909161Y-52847186D01*
X72658654Y-52847186D01*
X72605790Y-52838137D01*
X72580549Y-52810991D01*
X72574834Y-52761461D01*
X72574834Y-52232824D01*
X72576263Y-52199486D01*
X72585311Y-52174721D01*
X72610553Y-52155433D01*
X72659606Y-52149004D01*
X72899636Y-52149004D01*
X72954881Y-52155777D01*
X73003776Y-52176097D01*
X73046321Y-52209964D01*
X73080717Y-52253990D01*
X73101355Y-52303520D01*
X73108234Y-52358554D01*
X73099185Y-52418799D01*
X73072039Y-52473806D01*
X74700046Y-51625896D01*
X74187416Y-51625896D01*
X69812584Y-51625896D01*
G37*
G36*
X72959644Y-52613824D02*
G01*
X72954405Y-52577629D01*
X72936784Y-52558579D01*
X72883444Y-52550959D01*
X72832009Y-52537624D01*
X72814864Y-52482855D01*
X72832485Y-52428086D01*
X72891064Y-52414751D01*
X72936784Y-52394749D01*
X72939641Y-52360459D01*
X72923925Y-52327121D01*
X72876776Y-52317596D01*
X72743426Y-52317596D01*
X72743426Y-52678594D01*
X72899636Y-52678594D01*
X72944642Y-52662401D01*
X72959644Y-52613824D01*
G37*
%TO.C,kibuzzard-625C3009*%
G36*
X78008580Y-22641920D02*
G01*
X78521210Y-22185990D01*
X78529703Y-22095106D01*
X78555182Y-22010413D01*
X78597648Y-21931911D01*
X78657100Y-21859600D01*
X78729133Y-21799037D01*
X78809341Y-21755778D01*
X78897725Y-21729822D01*
X78994285Y-21721170D01*
X79091202Y-21729425D01*
X79109538Y-21632191D01*
X79026670Y-21638620D01*
X78644400Y-21638620D01*
X78599315Y-21636715D01*
X78565660Y-21624650D01*
X78538990Y-21590360D01*
X78531370Y-21525590D01*
X78538990Y-21460820D01*
X78565660Y-21427800D01*
X78645670Y-21412560D01*
X79026670Y-21412560D01*
X79102235Y-21403035D01*
X79173990Y-21374460D01*
X79231140Y-21317310D01*
X79252730Y-21227140D01*
X79235585Y-21146177D01*
X79184150Y-21088710D01*
X79110173Y-21054420D01*
X79025400Y-21042990D01*
X78636780Y-21042990D01*
X78566930Y-21030290D01*
X78538990Y-20993460D01*
X78531370Y-20933135D01*
X78537720Y-20875350D01*
X78552960Y-20842330D01*
X78579630Y-20825820D01*
X78645670Y-20818200D01*
X78622810Y-20748350D01*
X78570105Y-20742000D01*
X78542800Y-20720410D01*
X78531370Y-20655640D01*
X78531370Y-19949520D01*
X78540895Y-19889830D01*
X78570740Y-19864430D01*
X78624080Y-19858080D01*
X78676785Y-19864430D01*
X78704090Y-19886020D01*
X78715520Y-19950790D01*
X78715520Y-20193360D01*
X79354330Y-20193360D01*
X79397510Y-20195265D01*
X79429895Y-20206695D01*
X79455930Y-20240350D01*
X79463550Y-20303850D01*
X79455930Y-20366715D01*
X79429895Y-20399735D01*
X79396875Y-20411165D01*
X79353060Y-20413070D01*
X78715520Y-20413070D01*
X78715520Y-20656910D01*
X78705995Y-20716600D01*
X78676150Y-20742000D01*
X78622810Y-20748350D01*
X78645670Y-20818200D01*
X79029210Y-20818200D01*
X79111125Y-20824709D01*
X79189230Y-20844235D01*
X79263525Y-20876779D01*
X79334010Y-20922340D01*
X79392589Y-20980442D01*
X79438785Y-21053150D01*
X79468789Y-21137446D01*
X79478790Y-21230315D01*
X79468630Y-21323025D01*
X79438150Y-21406845D01*
X79391160Y-21478759D01*
X79331470Y-21535750D01*
X79261938Y-21580756D01*
X79187960Y-21612903D01*
X79109538Y-21632191D01*
X79091202Y-21729425D01*
X79180658Y-21754190D01*
X79262652Y-21795465D01*
X79337185Y-21853250D01*
X79399137Y-21923100D01*
X79443389Y-22000570D01*
X79469940Y-22085660D01*
X79478790Y-22178370D01*
X79470059Y-22271278D01*
X79443865Y-22356964D01*
X79400209Y-22435426D01*
X79339090Y-22506665D01*
X79265906Y-22565839D01*
X79186055Y-22608106D01*
X79099536Y-22633467D01*
X79006350Y-22641920D01*
X78904274Y-22632395D01*
X78808865Y-22603820D01*
X78724251Y-22559370D01*
X78654560Y-22502220D01*
X78598997Y-22433958D01*
X78556770Y-22356170D01*
X78530100Y-22272350D01*
X78521210Y-22185990D01*
X78008580Y-22641920D01*
X78008580Y-23154550D01*
X79991420Y-23154550D01*
X79991420Y-22641920D01*
X79991420Y-19858080D01*
X79991420Y-19345450D01*
X78008580Y-19345450D01*
X78008580Y-19858080D01*
X78008580Y-22641920D01*
G37*
G36*
X79000000Y-22417130D02*
G01*
X79070626Y-22409016D01*
X79131798Y-22384674D01*
X79183515Y-22344105D01*
X79236379Y-22266794D01*
X79254000Y-22180910D01*
X79236855Y-22095185D01*
X79185420Y-22018350D01*
X79134479Y-21978133D01*
X79073096Y-21954003D01*
X79001270Y-21945960D01*
X78929303Y-21954074D01*
X78867497Y-21978416D01*
X78815850Y-22018985D01*
X78763462Y-22096296D01*
X78746000Y-22182180D01*
X78763621Y-22267905D01*
X78816485Y-22344740D01*
X78868202Y-22384957D01*
X78929374Y-22409087D01*
X79000000Y-22417130D01*
G37*
%TO.C,kibuzzard-625C2FDC*%
G36*
X78009215Y-37814705D02*
G01*
X78526925Y-37635635D01*
X78528195Y-37442595D01*
X78528195Y-37323215D01*
X78530100Y-37278765D01*
X78542165Y-37245745D01*
X78576455Y-37220028D01*
X78643765Y-37211455D01*
X78705042Y-37219393D01*
X78736475Y-37243205D01*
X78748540Y-37274320D01*
X78750445Y-37315595D01*
X78750445Y-37537845D01*
X78846965Y-37550545D01*
X78844425Y-37506095D01*
X78854514Y-37428343D01*
X78884783Y-37355953D01*
X78935230Y-37288925D01*
X79000282Y-37235303D01*
X79074366Y-37203129D01*
X79157480Y-37192405D01*
X79396875Y-36772035D01*
X78685675Y-37122555D01*
X78624715Y-37141605D01*
X78582170Y-37122873D01*
X78543435Y-37066675D01*
X78521845Y-37002540D01*
X78526925Y-36968885D01*
X78544705Y-36947295D01*
X78578360Y-36926340D01*
X78613920Y-36909354D01*
X78683770Y-36877445D01*
X78773464Y-36836646D01*
X78868555Y-36792990D01*
X78963646Y-36749175D01*
X79053340Y-36707900D01*
X79121126Y-36676626D01*
X79150495Y-36662815D01*
X78594235Y-36408815D01*
X78556135Y-36391035D01*
X78521845Y-36335155D01*
X78543435Y-36260225D01*
X78582170Y-36204027D01*
X78624715Y-36185295D01*
X78685675Y-36204345D01*
X79396875Y-36554865D01*
X79441960Y-36597410D01*
X79459105Y-36656465D01*
X79459105Y-36669165D01*
X79441960Y-36729490D01*
X79396875Y-36772035D01*
X79157480Y-37192405D01*
X79241018Y-37202565D01*
X79316371Y-37233045D01*
X79383540Y-37283845D01*
X79436104Y-37349744D01*
X79467642Y-37425521D01*
X79478155Y-37511175D01*
X79471523Y-37587375D01*
X79451626Y-37658495D01*
X79418465Y-37724535D01*
X79394335Y-37756285D01*
X79385445Y-37766445D01*
X79309245Y-37814705D01*
X79226695Y-37767715D01*
X79184785Y-37694055D01*
X79225425Y-37608965D01*
X79252095Y-37529590D01*
X79227965Y-37445770D01*
X79161290Y-37418465D01*
X79093980Y-37448310D01*
X79069215Y-37516255D01*
X79092075Y-37577215D01*
X79121285Y-37646430D01*
X79097155Y-37726440D01*
X79058420Y-37785495D01*
X79027305Y-37799465D01*
X78967932Y-37793115D01*
X78822835Y-37774065D01*
X78679960Y-37754698D01*
X78627255Y-37747395D01*
X78600585Y-37738505D01*
X78566295Y-37720090D01*
X78538990Y-37687070D01*
X78526925Y-37635635D01*
X78009215Y-37814705D01*
X78009215Y-38327335D01*
X79990785Y-38327335D01*
X79990785Y-37814705D01*
X79990785Y-36185295D01*
X79990785Y-35672665D01*
X78009215Y-35672665D01*
X78009215Y-36185295D01*
X78009215Y-37814705D01*
G37*
%TO.C,kibuzzard-625C2FA8*%
G36*
X41846460Y-55264930D02*
G01*
X41959490Y-55777560D01*
X42279530Y-55777560D01*
X42353190Y-55786591D01*
X42418383Y-55813684D01*
X42475110Y-55858840D01*
X42520971Y-55917542D01*
X42548488Y-55983582D01*
X42557660Y-56056960D01*
X42545595Y-56137287D01*
X42509400Y-56210630D01*
X42551028Y-56272296D01*
X42656720Y-56553530D01*
X42999620Y-55843600D01*
X43042165Y-55796610D01*
X43102490Y-55778830D01*
X43162180Y-55795340D01*
X43204090Y-55844870D01*
X43699390Y-55777560D01*
X44405510Y-55777560D01*
X44465200Y-55787085D01*
X44490600Y-55816930D01*
X44496950Y-55870270D01*
X44490600Y-55922975D01*
X44469010Y-55950280D01*
X44404240Y-55961710D01*
X44161670Y-55961710D01*
X44750950Y-56261430D01*
X44750950Y-56158560D01*
X44761110Y-56093790D01*
X44793495Y-56066485D01*
X44851280Y-56059500D01*
X44909065Y-56066485D01*
X44940180Y-56089980D01*
X44951610Y-56159830D01*
X44951610Y-56261430D01*
X45054480Y-56261430D01*
X45119250Y-56272225D01*
X45146555Y-56304610D01*
X45153540Y-56362395D01*
X45147190Y-56420180D01*
X45125600Y-56450660D01*
X45060830Y-56462090D01*
X44951610Y-56462090D01*
X44951610Y-56564960D01*
X44940815Y-56629730D01*
X44908430Y-56657035D01*
X44850645Y-56664020D01*
X44792860Y-56657035D01*
X44762380Y-56633540D01*
X44750950Y-56563690D01*
X44750950Y-56462090D01*
X44640460Y-56462090D01*
X44579500Y-56451930D01*
X44554100Y-56419545D01*
X44547750Y-56361760D01*
X44554735Y-56303975D01*
X44579500Y-56272860D01*
X44649350Y-56261430D01*
X44750950Y-56261430D01*
X44161670Y-55961710D01*
X44161670Y-56600520D01*
X44159765Y-56643700D01*
X44148335Y-56676085D01*
X44114680Y-56702120D01*
X44051180Y-56709740D01*
X43988315Y-56702120D01*
X43955295Y-56676085D01*
X43943865Y-56643065D01*
X43941960Y-56599250D01*
X43941960Y-55961710D01*
X43698120Y-55961710D01*
X43638430Y-55952185D01*
X43613030Y-55922340D01*
X43606680Y-55869000D01*
X43613030Y-55816295D01*
X43634620Y-55788990D01*
X43699390Y-55777560D01*
X43204090Y-55844870D01*
X43546990Y-56553530D01*
X43568580Y-56618300D01*
X43550165Y-56661798D01*
X43494920Y-56700850D01*
X43426975Y-56722440D01*
X43386335Y-56711010D01*
X43363475Y-56686880D01*
X43343790Y-56648780D01*
X43277750Y-56511620D01*
X42925960Y-56511620D01*
X42859920Y-56648780D01*
X42840235Y-56685610D01*
X42817375Y-56709105D01*
X42776735Y-56721170D01*
X42708790Y-56699580D01*
X42653545Y-56661480D01*
X42635130Y-56618300D01*
X42656720Y-56553530D01*
X42551028Y-56272296D01*
X42576004Y-56338759D01*
X42584330Y-56410020D01*
X42573535Y-56490101D01*
X42544537Y-56561009D01*
X42497335Y-56622745D01*
X42437010Y-56670370D01*
X42368642Y-56698945D01*
X42292230Y-56708470D01*
X41958220Y-56708470D01*
X41887735Y-56696405D01*
X41854080Y-56660210D01*
X41846460Y-56594170D01*
X41846460Y-55889320D01*
X41848365Y-55844870D01*
X41860430Y-55811850D01*
X41894085Y-55786132D01*
X41959490Y-55777560D01*
X41846460Y-55264930D01*
X41333830Y-55264930D01*
X41333830Y-57235070D01*
X41846460Y-57235070D01*
X45153540Y-57235070D01*
X45666170Y-57235070D01*
X45666170Y-55264930D01*
X45153540Y-55264930D01*
X41846460Y-55264930D01*
G37*
G36*
X42359540Y-56397320D02*
G01*
X42352555Y-56349060D01*
X42329060Y-56323660D01*
X42257940Y-56313500D01*
X42189360Y-56295720D01*
X42166500Y-56222695D01*
X42189995Y-56149670D01*
X42268100Y-56131890D01*
X42329060Y-56105220D01*
X42332870Y-56059500D01*
X42311915Y-56015050D01*
X42249050Y-56002350D01*
X42071250Y-56002350D01*
X42071250Y-56483680D01*
X42279530Y-56483680D01*
X42339537Y-56462090D01*
X42359540Y-56397320D01*
G37*
G36*
X43101220Y-56149670D02*
G01*
X43017400Y-56323660D01*
X43186310Y-56323660D01*
X43101220Y-56149670D01*
G37*
%TO.C,kibuzzard-625C2F72*%
G36*
X78007310Y-27825880D02*
G01*
X78553754Y-27528700D01*
X78528393Y-27441705D01*
X78519940Y-27348360D01*
X78530947Y-27250288D01*
X78563967Y-27155884D01*
X78619000Y-27065150D01*
X78675515Y-27030860D01*
X78747270Y-27060070D01*
X78797752Y-27107378D01*
X78814580Y-27150240D01*
X78779655Y-27227710D01*
X78753461Y-27286130D01*
X78744730Y-27354710D01*
X78761716Y-27445833D01*
X78812675Y-27526160D01*
X78891097Y-27582358D01*
X78990475Y-27601090D01*
X79060043Y-27592623D01*
X79122273Y-27567223D01*
X79177165Y-27524890D01*
X79234791Y-27443610D01*
X79254000Y-27352170D01*
X79248285Y-27285813D01*
X79231140Y-27226440D01*
X79092710Y-27226440D01*
X79092710Y-27326770D01*
X79082550Y-27382650D01*
X79052705Y-27404240D01*
X78999365Y-27409320D01*
X78945390Y-27403605D01*
X78917450Y-27382650D01*
X78906020Y-27321690D01*
X78906020Y-27098170D01*
X78941580Y-27014350D01*
X79012700Y-27001650D01*
X79354330Y-26900050D01*
X78645670Y-26900050D01*
X78575185Y-26887985D01*
X78545340Y-26851790D01*
X78537720Y-26789560D01*
X78544705Y-26729235D01*
X78560580Y-26698120D01*
X78593600Y-26668910D01*
X78708217Y-26584526D01*
X78809077Y-26510019D01*
X78896177Y-26445390D01*
X78969520Y-26390639D01*
X79029104Y-26345766D01*
X79074930Y-26310770D01*
X78645670Y-26310770D01*
X78575185Y-26298705D01*
X78545340Y-26262510D01*
X78537720Y-26202185D01*
X78544070Y-26143765D01*
X78559310Y-26110745D01*
X78585980Y-26094870D01*
X78650750Y-26087250D01*
X79355600Y-26087250D01*
X79400050Y-26089155D01*
X79433070Y-26101220D01*
X79458788Y-26134875D01*
X79467360Y-26200280D01*
X79459740Y-26268860D01*
X79435610Y-26300610D01*
X79315948Y-26390427D01*
X79210961Y-26469379D01*
X79120650Y-26537465D01*
X79045014Y-26594686D01*
X78984054Y-26641041D01*
X78937770Y-26676530D01*
X79355600Y-26676530D01*
X79400050Y-26678435D01*
X79433070Y-26690500D01*
X79458788Y-26724155D01*
X79467360Y-26789560D01*
X79458788Y-26853060D01*
X79433070Y-26886080D01*
X79398780Y-26898145D01*
X79354330Y-26900050D01*
X79012700Y-27001650D01*
X79292100Y-27001650D01*
X79369570Y-27037210D01*
X79417909Y-27097218D01*
X79452438Y-27170560D01*
X79473154Y-27257238D01*
X79480060Y-27357250D01*
X79471130Y-27448769D01*
X79444341Y-27534097D01*
X79399693Y-27613234D01*
X79337185Y-27686180D01*
X79262057Y-27747299D01*
X79179546Y-27790955D01*
X79089654Y-27817149D01*
X78992380Y-27825880D01*
X78895582Y-27816990D01*
X78807119Y-27790320D01*
X78726990Y-27745870D01*
X78655195Y-27683640D01*
X78596021Y-27609345D01*
X78553754Y-27528700D01*
X78007310Y-27825880D01*
X78007310Y-28338510D01*
X79992690Y-28338510D01*
X79992690Y-27825880D01*
X79992690Y-25174120D01*
X79388223Y-25382519D01*
X79431483Y-25461616D01*
X79457438Y-25547937D01*
X79466090Y-25641480D01*
X79466090Y-25873890D01*
X79458153Y-25936755D01*
X79434340Y-25970410D01*
X79353060Y-25985650D01*
X78646940Y-25985650D01*
X78602490Y-25983745D01*
X78569470Y-25971680D01*
X78543752Y-25938025D01*
X78535180Y-25872620D01*
X78536450Y-25637670D01*
X78544745Y-25548373D01*
X78569629Y-25464632D01*
X78611102Y-25386448D01*
X78669165Y-25313820D01*
X78739332Y-25252701D01*
X78817120Y-25209045D01*
X78902527Y-25182851D01*
X78995555Y-25174120D01*
X79088940Y-25182653D01*
X79175419Y-25208251D01*
X79254992Y-25250915D01*
X79327660Y-25310645D01*
X79388223Y-25382519D01*
X79992690Y-25174120D01*
X79992690Y-24661490D01*
X78007310Y-24661490D01*
X78007310Y-25174120D01*
X78007310Y-27825880D01*
G37*
G36*
X78761240Y-25638940D02*
G01*
X78761240Y-25760860D01*
X79241300Y-25760860D01*
X79241300Y-25637670D01*
X79224314Y-25550675D01*
X79173355Y-25472570D01*
X79096679Y-25417325D01*
X79002540Y-25398910D01*
X78908084Y-25416849D01*
X78830455Y-25470665D01*
X78778544Y-25548611D01*
X78761240Y-25638940D01*
G37*
G36*
X78761240Y-31138940D02*
G01*
X78761240Y-31260860D01*
X79241300Y-31260860D01*
X79241300Y-31137670D01*
X79224314Y-31050675D01*
X79173355Y-30972570D01*
X79096679Y-30917325D01*
X79002540Y-30898910D01*
X78908084Y-30916849D01*
X78830455Y-30970665D01*
X78778544Y-31048611D01*
X78761240Y-31138940D01*
G37*
G36*
X78007310Y-33325880D02*
G01*
X78553754Y-33028700D01*
X78528393Y-32941705D01*
X78519940Y-32848360D01*
X78530947Y-32750288D01*
X78563967Y-32655884D01*
X78619000Y-32565150D01*
X78675515Y-32530860D01*
X78747270Y-32560070D01*
X78797752Y-32607378D01*
X78814580Y-32650240D01*
X78779655Y-32727710D01*
X78753461Y-32786130D01*
X78744730Y-32854710D01*
X78761716Y-32945833D01*
X78812675Y-33026160D01*
X78891097Y-33082358D01*
X78990475Y-33101090D01*
X79060043Y-33092623D01*
X79122273Y-33067223D01*
X79177165Y-33024890D01*
X79234791Y-32943610D01*
X79254000Y-32852170D01*
X79248285Y-32785813D01*
X79231140Y-32726440D01*
X79092710Y-32726440D01*
X79092710Y-32826770D01*
X79082550Y-32882650D01*
X79052705Y-32904240D01*
X78999365Y-32909320D01*
X78945390Y-32903605D01*
X78917450Y-32882650D01*
X78906020Y-32821690D01*
X78906020Y-32598170D01*
X78941580Y-32514350D01*
X79012700Y-32501650D01*
X79354330Y-32400050D01*
X78645670Y-32400050D01*
X78575185Y-32387985D01*
X78545340Y-32351790D01*
X78537720Y-32289560D01*
X78544705Y-32229235D01*
X78560580Y-32198120D01*
X78593600Y-32168910D01*
X78708217Y-32084526D01*
X78809077Y-32010019D01*
X78896177Y-31945390D01*
X78969520Y-31890639D01*
X79029104Y-31845766D01*
X79074930Y-31810770D01*
X78645670Y-31810770D01*
X78575185Y-31798705D01*
X78545340Y-31762510D01*
X78537720Y-31702185D01*
X78544070Y-31643765D01*
X78559310Y-31610745D01*
X78585980Y-31594870D01*
X78650750Y-31587250D01*
X79355600Y-31587250D01*
X79400050Y-31589155D01*
X79433070Y-31601220D01*
X79458788Y-31634875D01*
X79467360Y-31700280D01*
X79459740Y-31768860D01*
X79435610Y-31800610D01*
X79315948Y-31890427D01*
X79210961Y-31969379D01*
X79120650Y-32037465D01*
X79045014Y-32094686D01*
X78984054Y-32141041D01*
X78937770Y-32176530D01*
X79355600Y-32176530D01*
X79400050Y-32178435D01*
X79433070Y-32190500D01*
X79458788Y-32224155D01*
X79467360Y-32289560D01*
X79458788Y-32353060D01*
X79433070Y-32386080D01*
X79398780Y-32398145D01*
X79354330Y-32400050D01*
X79012700Y-32501650D01*
X79292100Y-32501650D01*
X79369570Y-32537210D01*
X79417909Y-32597218D01*
X79452438Y-32670560D01*
X79473154Y-32757238D01*
X79480060Y-32857250D01*
X79471130Y-32948769D01*
X79444341Y-33034097D01*
X79399693Y-33113234D01*
X79337185Y-33186180D01*
X79262057Y-33247299D01*
X79179546Y-33290955D01*
X79089654Y-33317149D01*
X78992380Y-33325880D01*
X78895582Y-33316990D01*
X78807119Y-33290320D01*
X78726990Y-33245870D01*
X78655195Y-33183640D01*
X78596021Y-33109345D01*
X78553754Y-33028700D01*
X78007310Y-33325880D01*
X78007310Y-33838510D01*
X79992690Y-33838510D01*
X79992690Y-33325880D01*
X79992690Y-30674120D01*
X79388223Y-30882519D01*
X79431483Y-30961616D01*
X79457438Y-31047937D01*
X79466090Y-31141480D01*
X79466090Y-31373890D01*
X79458153Y-31436755D01*
X79434340Y-31470410D01*
X79353060Y-31485650D01*
X78646940Y-31485650D01*
X78602490Y-31483745D01*
X78569470Y-31471680D01*
X78543752Y-31438025D01*
X78535180Y-31372620D01*
X78536450Y-31137670D01*
X78544745Y-31048373D01*
X78569629Y-30964632D01*
X78611102Y-30886448D01*
X78669165Y-30813820D01*
X78739332Y-30752701D01*
X78817120Y-30709045D01*
X78902527Y-30682851D01*
X78995555Y-30674120D01*
X79088940Y-30682653D01*
X79175419Y-30708251D01*
X79254992Y-30750915D01*
X79327660Y-30810645D01*
X79388223Y-30882519D01*
X79992690Y-30674120D01*
X79992690Y-30161490D01*
X78007310Y-30161490D01*
X78007310Y-30674120D01*
X78007310Y-33325880D01*
G37*
G36*
X37174120Y-55257310D02*
G01*
X37471300Y-55803754D01*
X37558295Y-55778393D01*
X37651640Y-55769940D01*
X37749712Y-55780947D01*
X37844116Y-55813967D01*
X37934850Y-55869000D01*
X37969140Y-55925515D01*
X37939930Y-55997270D01*
X37892622Y-56047752D01*
X37849760Y-56064580D01*
X37772290Y-56029655D01*
X37713870Y-56003461D01*
X37645290Y-55994730D01*
X37554167Y-56011716D01*
X37473840Y-56062675D01*
X37417642Y-56141097D01*
X37398910Y-56240475D01*
X37407377Y-56310043D01*
X37432777Y-56372273D01*
X37475110Y-56427165D01*
X37556390Y-56484791D01*
X37647830Y-56504000D01*
X37714187Y-56498285D01*
X37773560Y-56481140D01*
X37773560Y-56342710D01*
X37673230Y-56342710D01*
X37617350Y-56332550D01*
X37595760Y-56302705D01*
X37590680Y-56249365D01*
X37596395Y-56195390D01*
X37617350Y-56167450D01*
X37678310Y-56156020D01*
X37901830Y-56156020D01*
X37985650Y-56191580D01*
X37998350Y-56262700D01*
X38099950Y-56604330D01*
X38099950Y-55895670D01*
X38112015Y-55825185D01*
X38148210Y-55795340D01*
X38210440Y-55787720D01*
X38270765Y-55794705D01*
X38301880Y-55810580D01*
X38331090Y-55843600D01*
X38415474Y-55958217D01*
X38489981Y-56059077D01*
X38554610Y-56146177D01*
X38609361Y-56219520D01*
X38654234Y-56279104D01*
X38689230Y-56324930D01*
X38689230Y-55895670D01*
X38701295Y-55825185D01*
X38737490Y-55795340D01*
X38797815Y-55787720D01*
X38856235Y-55794070D01*
X38889255Y-55809310D01*
X38905130Y-55835980D01*
X38912750Y-55900750D01*
X38912750Y-56605600D01*
X38910845Y-56650050D01*
X38898780Y-56683070D01*
X38865125Y-56708788D01*
X38799720Y-56717360D01*
X38731140Y-56709740D01*
X38699390Y-56685610D01*
X38609573Y-56565948D01*
X38530621Y-56460961D01*
X38462535Y-56370650D01*
X38405314Y-56295014D01*
X38358959Y-56234054D01*
X38323470Y-56187770D01*
X38323470Y-56605600D01*
X38321565Y-56650050D01*
X38309500Y-56683070D01*
X38275845Y-56708788D01*
X38210440Y-56717360D01*
X38146940Y-56708788D01*
X38113920Y-56683070D01*
X38101855Y-56648780D01*
X38099950Y-56604330D01*
X37998350Y-56262700D01*
X37998350Y-56542100D01*
X37962790Y-56619570D01*
X37902782Y-56667909D01*
X37829440Y-56702438D01*
X37742762Y-56723154D01*
X37642750Y-56730060D01*
X37551231Y-56721130D01*
X37465903Y-56694341D01*
X37386766Y-56649693D01*
X37313820Y-56587185D01*
X37252701Y-56512057D01*
X37209045Y-56429546D01*
X37182851Y-56339654D01*
X37174120Y-56242380D01*
X37183010Y-56145582D01*
X37209680Y-56057119D01*
X37254130Y-55976990D01*
X37316360Y-55905195D01*
X37390655Y-55846021D01*
X37471300Y-55803754D01*
X37174120Y-55257310D01*
X36661490Y-55257310D01*
X36661490Y-57242690D01*
X37174120Y-57242690D01*
X39825880Y-57242690D01*
X39617481Y-56638223D01*
X39538384Y-56681483D01*
X39452063Y-56707438D01*
X39358520Y-56716090D01*
X39126110Y-56716090D01*
X39063245Y-56708153D01*
X39029590Y-56684340D01*
X39014350Y-56603060D01*
X39014350Y-55896940D01*
X39016255Y-55852490D01*
X39028320Y-55819470D01*
X39061975Y-55793752D01*
X39127380Y-55785180D01*
X39362330Y-55786450D01*
X39451627Y-55794745D01*
X39535368Y-55819629D01*
X39613552Y-55861102D01*
X39686180Y-55919165D01*
X39747299Y-55989332D01*
X39790955Y-56067120D01*
X39817149Y-56152527D01*
X39825880Y-56245555D01*
X39817347Y-56338940D01*
X39791749Y-56425419D01*
X39749085Y-56504992D01*
X39689355Y-56577660D01*
X39617481Y-56638223D01*
X39825880Y-57242690D01*
X40338510Y-57242690D01*
X40338510Y-55257310D01*
X39825880Y-55257310D01*
X37174120Y-55257310D01*
G37*
G36*
X39361060Y-56011240D02*
G01*
X39239140Y-56011240D01*
X39239140Y-56491300D01*
X39362330Y-56491300D01*
X39449325Y-56474314D01*
X39527430Y-56423355D01*
X39582675Y-56346679D01*
X39601090Y-56252540D01*
X39583151Y-56158084D01*
X39529335Y-56080455D01*
X39451389Y-56028544D01*
X39361060Y-56011240D01*
G37*
D10*
%TO.C,JPe*%
X67380000Y-40390000D02*
X64720000Y-40390000D01*
X67380000Y-45530000D02*
X67380000Y-40390000D01*
X64720000Y-45530000D02*
X64720000Y-40390000D01*
X67380000Y-45530000D02*
X64720000Y-45530000D01*
X67380000Y-46800000D02*
X67380000Y-48130000D01*
X67380000Y-48130000D02*
X66050000Y-48130000D01*
%TO.C,R13*%
X61321267Y-53640000D02*
X60978733Y-53640000D01*
X61321267Y-54660000D02*
X60978733Y-54660000D01*
%TO.C,C13*%
X47895225Y-40625000D02*
X47895225Y-41125000D01*
X47645225Y-40875000D02*
X48145225Y-40875000D01*
X53051000Y-42066000D02*
X53051000Y-42634000D01*
X53011000Y-41832000D02*
X53011000Y-42868000D01*
X52971000Y-41673000D02*
X52971000Y-43027000D01*
X52931000Y-41545000D02*
X52931000Y-43155000D01*
X52891000Y-41435000D02*
X52891000Y-43265000D01*
X52851000Y-41339000D02*
X52851000Y-43361000D01*
X52811000Y-41252000D02*
X52811000Y-43448000D01*
X52771000Y-41172000D02*
X52771000Y-43528000D01*
X52731000Y-43390000D02*
X52731000Y-43601000D01*
X52731000Y-41099000D02*
X52731000Y-41310000D01*
X52691000Y-43390000D02*
X52691000Y-43669000D01*
X52691000Y-41031000D02*
X52691000Y-41310000D01*
X52651000Y-43390000D02*
X52651000Y-43733000D01*
X52651000Y-40967000D02*
X52651000Y-41310000D01*
X52611000Y-43390000D02*
X52611000Y-43793000D01*
X52611000Y-40907000D02*
X52611000Y-41310000D01*
X52571000Y-43390000D02*
X52571000Y-43850000D01*
X52571000Y-40850000D02*
X52571000Y-41310000D01*
X52531000Y-43390000D02*
X52531000Y-43904000D01*
X52531000Y-40796000D02*
X52531000Y-41310000D01*
X52491000Y-43390000D02*
X52491000Y-43955000D01*
X52491000Y-40745000D02*
X52491000Y-41310000D01*
X52451000Y-43390000D02*
X52451000Y-44003000D01*
X52451000Y-40697000D02*
X52451000Y-41310000D01*
X52411000Y-43390000D02*
X52411000Y-44049000D01*
X52411000Y-40651000D02*
X52411000Y-41310000D01*
X52371000Y-43390000D02*
X52371000Y-44093000D01*
X52371000Y-40607000D02*
X52371000Y-41310000D01*
X52331000Y-43390000D02*
X52331000Y-44135000D01*
X52331000Y-40565000D02*
X52331000Y-41310000D01*
X52291000Y-43390000D02*
X52291000Y-44176000D01*
X52291000Y-40524000D02*
X52291000Y-41310000D01*
X52251000Y-43390000D02*
X52251000Y-44214000D01*
X52251000Y-40486000D02*
X52251000Y-41310000D01*
X52211000Y-43390000D02*
X52211000Y-44251000D01*
X52211000Y-40449000D02*
X52211000Y-41310000D01*
X52171000Y-43390000D02*
X52171000Y-44287000D01*
X52171000Y-40413000D02*
X52171000Y-41310000D01*
X52131000Y-43390000D02*
X52131000Y-44321000D01*
X52131000Y-40379000D02*
X52131000Y-41310000D01*
X52091000Y-43390000D02*
X52091000Y-44354000D01*
X52091000Y-40346000D02*
X52091000Y-41310000D01*
X52051000Y-43390000D02*
X52051000Y-44385000D01*
X52051000Y-40315000D02*
X52051000Y-41310000D01*
X52011000Y-43390000D02*
X52011000Y-44415000D01*
X52011000Y-40285000D02*
X52011000Y-41310000D01*
X51971000Y-43390000D02*
X51971000Y-44445000D01*
X51971000Y-40255000D02*
X51971000Y-41310000D01*
X51931000Y-43390000D02*
X51931000Y-44472000D01*
X51931000Y-40228000D02*
X51931000Y-41310000D01*
X51891000Y-43390000D02*
X51891000Y-44499000D01*
X51891000Y-40201000D02*
X51891000Y-41310000D01*
X51851000Y-43390000D02*
X51851000Y-44525000D01*
X51851000Y-40175000D02*
X51851000Y-41310000D01*
X51811000Y-43390000D02*
X51811000Y-44550000D01*
X51811000Y-40150000D02*
X51811000Y-41310000D01*
X51771000Y-43390000D02*
X51771000Y-44574000D01*
X51771000Y-40126000D02*
X51771000Y-41310000D01*
X51731000Y-43390000D02*
X51731000Y-44597000D01*
X51731000Y-40103000D02*
X51731000Y-41310000D01*
X51691000Y-43390000D02*
X51691000Y-44618000D01*
X51691000Y-40082000D02*
X51691000Y-41310000D01*
X51651000Y-43390000D02*
X51651000Y-44640000D01*
X51651000Y-40060000D02*
X51651000Y-41310000D01*
X51611000Y-43390000D02*
X51611000Y-44660000D01*
X51611000Y-40040000D02*
X51611000Y-41310000D01*
X51571000Y-43390000D02*
X51571000Y-44679000D01*
X51571000Y-40021000D02*
X51571000Y-41310000D01*
X51531000Y-43390000D02*
X51531000Y-44698000D01*
X51531000Y-40002000D02*
X51531000Y-41310000D01*
X51491000Y-43390000D02*
X51491000Y-44715000D01*
X51491000Y-39985000D02*
X51491000Y-41310000D01*
X51451000Y-43390000D02*
X51451000Y-44732000D01*
X51451000Y-39968000D02*
X51451000Y-41310000D01*
X51411000Y-43390000D02*
X51411000Y-44748000D01*
X51411000Y-39952000D02*
X51411000Y-41310000D01*
X51371000Y-43390000D02*
X51371000Y-44764000D01*
X51371000Y-39936000D02*
X51371000Y-41310000D01*
X51331000Y-43390000D02*
X51331000Y-44778000D01*
X51331000Y-39922000D02*
X51331000Y-41310000D01*
X51291000Y-43390000D02*
X51291000Y-44792000D01*
X51291000Y-39908000D02*
X51291000Y-41310000D01*
X51251000Y-43390000D02*
X51251000Y-44805000D01*
X51251000Y-39895000D02*
X51251000Y-41310000D01*
X51211000Y-43390000D02*
X51211000Y-44818000D01*
X51211000Y-39882000D02*
X51211000Y-41310000D01*
X51171000Y-43390000D02*
X51171000Y-44830000D01*
X51171000Y-39870000D02*
X51171000Y-41310000D01*
X51130000Y-43390000D02*
X51130000Y-44841000D01*
X51130000Y-39859000D02*
X51130000Y-41310000D01*
X51090000Y-43390000D02*
X51090000Y-44851000D01*
X51090000Y-39849000D02*
X51090000Y-41310000D01*
X51050000Y-43390000D02*
X51050000Y-44861000D01*
X51050000Y-39839000D02*
X51050000Y-41310000D01*
X51010000Y-43390000D02*
X51010000Y-44870000D01*
X51010000Y-39830000D02*
X51010000Y-41310000D01*
X50970000Y-43390000D02*
X50970000Y-44878000D01*
X50970000Y-39822000D02*
X50970000Y-41310000D01*
X50930000Y-43390000D02*
X50930000Y-44886000D01*
X50930000Y-39814000D02*
X50930000Y-41310000D01*
X50890000Y-43390000D02*
X50890000Y-44893000D01*
X50890000Y-39807000D02*
X50890000Y-41310000D01*
X50850000Y-43390000D02*
X50850000Y-44900000D01*
X50850000Y-39800000D02*
X50850000Y-41310000D01*
X50810000Y-43390000D02*
X50810000Y-44906000D01*
X50810000Y-39794000D02*
X50810000Y-41310000D01*
X50770000Y-43390000D02*
X50770000Y-44911000D01*
X50770000Y-39789000D02*
X50770000Y-41310000D01*
X50730000Y-43390000D02*
X50730000Y-44915000D01*
X50730000Y-39785000D02*
X50730000Y-41310000D01*
X50690000Y-43390000D02*
X50690000Y-44919000D01*
X50690000Y-39781000D02*
X50690000Y-41310000D01*
X50650000Y-39777000D02*
X50650000Y-44923000D01*
X50610000Y-39774000D02*
X50610000Y-44926000D01*
X50570000Y-39772000D02*
X50570000Y-44928000D01*
X50530000Y-39771000D02*
X50530000Y-44929000D01*
X50490000Y-39770000D02*
X50490000Y-44930000D01*
X50450000Y-39770000D02*
X50450000Y-44930000D01*
X53070000Y-42350000D02*
G75*
G03*
X53070000Y-42350000I-2620000J0D01*
G01*
%TO.C,C9*%
X58704775Y-43125000D02*
X58704775Y-42625000D01*
X58954775Y-42875000D02*
X58454775Y-42875000D01*
X53549000Y-41684000D02*
X53549000Y-41116000D01*
X53589000Y-41918000D02*
X53589000Y-40882000D01*
X53629000Y-42077000D02*
X53629000Y-40723000D01*
X53669000Y-42205000D02*
X53669000Y-40595000D01*
X53709000Y-42315000D02*
X53709000Y-40485000D01*
X53749000Y-42411000D02*
X53749000Y-40389000D01*
X53789000Y-42498000D02*
X53789000Y-40302000D01*
X53829000Y-42578000D02*
X53829000Y-40222000D01*
X53869000Y-40360000D02*
X53869000Y-40149000D01*
X53869000Y-42651000D02*
X53869000Y-42440000D01*
X53909000Y-40360000D02*
X53909000Y-40081000D01*
X53909000Y-42719000D02*
X53909000Y-42440000D01*
X53949000Y-40360000D02*
X53949000Y-40017000D01*
X53949000Y-42783000D02*
X53949000Y-42440000D01*
X53989000Y-40360000D02*
X53989000Y-39957000D01*
X53989000Y-42843000D02*
X53989000Y-42440000D01*
X54029000Y-40360000D02*
X54029000Y-39900000D01*
X54029000Y-42900000D02*
X54029000Y-42440000D01*
X54069000Y-40360000D02*
X54069000Y-39846000D01*
X54069000Y-42954000D02*
X54069000Y-42440000D01*
X54109000Y-40360000D02*
X54109000Y-39795000D01*
X54109000Y-43005000D02*
X54109000Y-42440000D01*
X54149000Y-40360000D02*
X54149000Y-39747000D01*
X54149000Y-43053000D02*
X54149000Y-42440000D01*
X54189000Y-40360000D02*
X54189000Y-39701000D01*
X54189000Y-43099000D02*
X54189000Y-42440000D01*
X54229000Y-40360000D02*
X54229000Y-39657000D01*
X54229000Y-43143000D02*
X54229000Y-42440000D01*
X54269000Y-40360000D02*
X54269000Y-39615000D01*
X54269000Y-43185000D02*
X54269000Y-42440000D01*
X54309000Y-40360000D02*
X54309000Y-39574000D01*
X54309000Y-43226000D02*
X54309000Y-42440000D01*
X54349000Y-40360000D02*
X54349000Y-39536000D01*
X54349000Y-43264000D02*
X54349000Y-42440000D01*
X54389000Y-40360000D02*
X54389000Y-39499000D01*
X54389000Y-43301000D02*
X54389000Y-42440000D01*
X54429000Y-40360000D02*
X54429000Y-39463000D01*
X54429000Y-43337000D02*
X54429000Y-42440000D01*
X54469000Y-40360000D02*
X54469000Y-39429000D01*
X54469000Y-43371000D02*
X54469000Y-42440000D01*
X54509000Y-40360000D02*
X54509000Y-39396000D01*
X54509000Y-43404000D02*
X54509000Y-42440000D01*
X54549000Y-40360000D02*
X54549000Y-39365000D01*
X54549000Y-43435000D02*
X54549000Y-42440000D01*
X54589000Y-40360000D02*
X54589000Y-39335000D01*
X54589000Y-43465000D02*
X54589000Y-42440000D01*
X54629000Y-40360000D02*
X54629000Y-39305000D01*
X54629000Y-43495000D02*
X54629000Y-42440000D01*
X54669000Y-40360000D02*
X54669000Y-39278000D01*
X54669000Y-43522000D02*
X54669000Y-42440000D01*
X54709000Y-40360000D02*
X54709000Y-39251000D01*
X54709000Y-43549000D02*
X54709000Y-42440000D01*
X54749000Y-40360000D02*
X54749000Y-39225000D01*
X54749000Y-43575000D02*
X54749000Y-42440000D01*
X54789000Y-40360000D02*
X54789000Y-39200000D01*
X54789000Y-43600000D02*
X54789000Y-42440000D01*
X54829000Y-40360000D02*
X54829000Y-39176000D01*
X54829000Y-43624000D02*
X54829000Y-42440000D01*
X54869000Y-40360000D02*
X54869000Y-39153000D01*
X54869000Y-43647000D02*
X54869000Y-42440000D01*
X54909000Y-40360000D02*
X54909000Y-39132000D01*
X54909000Y-43668000D02*
X54909000Y-42440000D01*
X54949000Y-40360000D02*
X54949000Y-39110000D01*
X54949000Y-43690000D02*
X54949000Y-42440000D01*
X54989000Y-40360000D02*
X54989000Y-39090000D01*
X54989000Y-43710000D02*
X54989000Y-42440000D01*
X55029000Y-40360000D02*
X55029000Y-39071000D01*
X55029000Y-43729000D02*
X55029000Y-42440000D01*
X55069000Y-40360000D02*
X55069000Y-39052000D01*
X55069000Y-43748000D02*
X55069000Y-42440000D01*
X55109000Y-40360000D02*
X55109000Y-39035000D01*
X55109000Y-43765000D02*
X55109000Y-42440000D01*
X55149000Y-40360000D02*
X55149000Y-39018000D01*
X55149000Y-43782000D02*
X55149000Y-42440000D01*
X55189000Y-40360000D02*
X55189000Y-39002000D01*
X55189000Y-43798000D02*
X55189000Y-42440000D01*
X55229000Y-40360000D02*
X55229000Y-38986000D01*
X55229000Y-43814000D02*
X55229000Y-42440000D01*
X55269000Y-40360000D02*
X55269000Y-38972000D01*
X55269000Y-43828000D02*
X55269000Y-42440000D01*
X55309000Y-40360000D02*
X55309000Y-38958000D01*
X55309000Y-43842000D02*
X55309000Y-42440000D01*
X55349000Y-40360000D02*
X55349000Y-38945000D01*
X55349000Y-43855000D02*
X55349000Y-42440000D01*
X55389000Y-40360000D02*
X55389000Y-38932000D01*
X55389000Y-43868000D02*
X55389000Y-42440000D01*
X55429000Y-40360000D02*
X55429000Y-38920000D01*
X55429000Y-43880000D02*
X55429000Y-42440000D01*
X55470000Y-40360000D02*
X55470000Y-38909000D01*
X55470000Y-43891000D02*
X55470000Y-42440000D01*
X55510000Y-40360000D02*
X55510000Y-38899000D01*
X55510000Y-43901000D02*
X55510000Y-42440000D01*
X55550000Y-40360000D02*
X55550000Y-38889000D01*
X55550000Y-43911000D02*
X55550000Y-42440000D01*
X55590000Y-40360000D02*
X55590000Y-38880000D01*
X55590000Y-43920000D02*
X55590000Y-42440000D01*
X55630000Y-40360000D02*
X55630000Y-38872000D01*
X55630000Y-43928000D02*
X55630000Y-42440000D01*
X55670000Y-40360000D02*
X55670000Y-38864000D01*
X55670000Y-43936000D02*
X55670000Y-42440000D01*
X55710000Y-40360000D02*
X55710000Y-38857000D01*
X55710000Y-43943000D02*
X55710000Y-42440000D01*
X55750000Y-40360000D02*
X55750000Y-38850000D01*
X55750000Y-43950000D02*
X55750000Y-42440000D01*
X55790000Y-40360000D02*
X55790000Y-38844000D01*
X55790000Y-43956000D02*
X55790000Y-42440000D01*
X55830000Y-40360000D02*
X55830000Y-38839000D01*
X55830000Y-43961000D02*
X55830000Y-42440000D01*
X55870000Y-40360000D02*
X55870000Y-38835000D01*
X55870000Y-43965000D02*
X55870000Y-42440000D01*
X55910000Y-40360000D02*
X55910000Y-38831000D01*
X55910000Y-43969000D02*
X55910000Y-42440000D01*
X55950000Y-43973000D02*
X55950000Y-38827000D01*
X55990000Y-43976000D02*
X55990000Y-38824000D01*
X56030000Y-43978000D02*
X56030000Y-38822000D01*
X56070000Y-43979000D02*
X56070000Y-38821000D01*
X56110000Y-43980000D02*
X56110000Y-38820000D01*
X56150000Y-43980000D02*
X56150000Y-38820000D01*
X58770000Y-41400000D02*
G75*
G03*
X58770000Y-41400000I-2620000J0D01*
G01*
%TO.C,J3*%
X70860000Y-39570000D02*
X70860000Y-29410000D01*
X69590000Y-39570000D02*
X77210000Y-39570000D01*
X77210000Y-39570000D02*
X77210000Y-29410000D01*
X77210000Y-29410000D02*
X69590000Y-29410000D01*
X69590000Y-29410000D02*
X69590000Y-39570000D01*
%TO.C,L1*%
X50900000Y-17800000D02*
X50900000Y-22200000D01*
X50900000Y-22200000D02*
X45900000Y-22200000D01*
X45900000Y-22200000D02*
X45900000Y-17800000D01*
X45900000Y-17800000D02*
X50900000Y-17800000D01*
%TO.C,9V*%
X57490000Y-28671267D02*
X57490000Y-28328733D01*
X58510000Y-28671267D02*
X58510000Y-28328733D01*
%TO.C,5V*%
X59490000Y-28671267D02*
X59490000Y-28328733D01*
X60510000Y-28671267D02*
X60510000Y-28328733D01*
%TO.C,U4*%
X50000000Y-45790000D02*
X48500000Y-45790000D01*
X50000000Y-45790000D02*
X51500000Y-45790000D01*
X50000000Y-49010000D02*
X48500000Y-49010000D01*
X50000000Y-49010000D02*
X52875000Y-49010000D01*
%TO.C,U3*%
X31350000Y-38090000D02*
X29550000Y-38090000D01*
X29550000Y-41310000D02*
X32000000Y-41310000D01*
%TO.C,SW2*%
X49600000Y-31100000D02*
X62200000Y-31100000D01*
X49600000Y-34500000D02*
X62200000Y-34500000D01*
X48200000Y-31600000D02*
X48200000Y-34100000D01*
X63700000Y-31600000D02*
X63700000Y-34100000D01*
%TO.C,R10*%
X52802064Y-54710000D02*
X48697936Y-54710000D01*
X52802064Y-51290000D02*
X48697936Y-51290000D01*
%TO.C,R9*%
X60978733Y-51990000D02*
X61321267Y-51990000D01*
X60978733Y-53010000D02*
X61321267Y-53010000D01*
%TO.C,R8*%
X32138748Y-46290000D02*
X32661252Y-46290000D01*
X32138748Y-47710000D02*
X32661252Y-47710000D01*
%TO.C,R7*%
X57510000Y-46028733D02*
X57510000Y-46371267D01*
X56490000Y-46028733D02*
X56490000Y-46371267D01*
%TO.C,Q1*%
X42200000Y-40840000D02*
X40250000Y-40840000D01*
X42200000Y-40840000D02*
X44150000Y-40840000D01*
X42200000Y-45960000D02*
X40250000Y-45960000D01*
X42200000Y-45960000D02*
X45650000Y-45960000D01*
%TO.C,L2*%
X35688748Y-40340000D02*
X36211252Y-40340000D01*
X35688748Y-42560000D02*
X36211252Y-42560000D01*
%TO.C,J2*%
X35880000Y-48160000D02*
X46040000Y-48160000D01*
X35880000Y-46890000D02*
X35880000Y-54510000D01*
X35880000Y-54510000D02*
X46040000Y-54510000D01*
X46040000Y-54510000D02*
X46040000Y-46890000D01*
X46040000Y-46890000D02*
X35880000Y-46890000D01*
%TO.C,J1*%
X70860000Y-28920000D02*
X70860000Y-18760000D01*
X69590000Y-28920000D02*
X77210000Y-28920000D01*
X77210000Y-28920000D02*
X77210000Y-18760000D01*
X77210000Y-18760000D02*
X69590000Y-18760000D01*
X69590000Y-18760000D02*
X69590000Y-28920000D01*
%TO.C,D5*%
X25800000Y-42550000D02*
X25800000Y-45850000D01*
X25800000Y-45850000D02*
X32700000Y-45850000D01*
X25800000Y-42550000D02*
X32700000Y-42550000D01*
%TO.C,D4*%
X54065000Y-45400000D02*
X54065000Y-47860000D01*
X54065000Y-47860000D02*
X55535000Y-47860000D01*
X55535000Y-47860000D02*
X55535000Y-45400000D01*
%TO.C,D3*%
X56950000Y-48200000D02*
X56950000Y-51500000D01*
X56950000Y-51500000D02*
X63850000Y-51500000D01*
X56950000Y-48200000D02*
X63850000Y-48200000D01*
%TO.C,C14*%
X25678733Y-40090000D02*
X26021267Y-40090000D01*
X25678733Y-41110000D02*
X26021267Y-41110000D01*
%TO.C,C12*%
X25628733Y-38190000D02*
X25971267Y-38190000D01*
X25628733Y-39210000D02*
X25971267Y-39210000D01*
%TO.C,C11*%
X25628733Y-36290000D02*
X25971267Y-36290000D01*
X25628733Y-37310000D02*
X25971267Y-37310000D01*
%TO.C,C10*%
X27378733Y-46490000D02*
X27721267Y-46490000D01*
X27378733Y-47510000D02*
X27721267Y-47510000D01*
%TO.C,D1*%
X58400000Y-19800000D02*
X58400000Y-17800000D01*
X58400000Y-17800000D02*
X54550000Y-17800000D01*
X58400000Y-19800000D02*
X54550000Y-19800000D01*
%TO.C,R4*%
X30822500Y-22845276D02*
X30822500Y-23354724D01*
X29777500Y-22845276D02*
X29777500Y-23354724D01*
%TO.C,D2*%
X29565000Y-26100000D02*
X29565000Y-28560000D01*
X29565000Y-28560000D02*
X31035000Y-28560000D01*
X31035000Y-28560000D02*
X31035000Y-26100000D01*
%TO.C,C3*%
X38965000Y-19890302D02*
X38165000Y-19890302D01*
X38565000Y-19490302D02*
X38565000Y-20290302D01*
X36783000Y-27981000D02*
X35717000Y-27981000D01*
X37018000Y-27941000D02*
X35482000Y-27941000D01*
X37198000Y-27901000D02*
X35302000Y-27901000D01*
X37348000Y-27861000D02*
X35152000Y-27861000D01*
X37479000Y-27821000D02*
X35021000Y-27821000D01*
X37596000Y-27781000D02*
X34904000Y-27781000D01*
X37703000Y-27741000D02*
X34797000Y-27741000D01*
X37802000Y-27701000D02*
X34698000Y-27701000D01*
X37895000Y-27661000D02*
X34605000Y-27661000D01*
X37981000Y-27621000D02*
X34519000Y-27621000D01*
X38063000Y-27581000D02*
X34437000Y-27581000D01*
X38140000Y-27541000D02*
X34360000Y-27541000D01*
X38214000Y-27501000D02*
X34286000Y-27501000D01*
X38284000Y-27461000D02*
X34216000Y-27461000D01*
X38352000Y-27421000D02*
X34148000Y-27421000D01*
X38416000Y-27381000D02*
X34084000Y-27381000D01*
X38478000Y-27341000D02*
X34022000Y-27341000D01*
X38537000Y-27301000D02*
X33963000Y-27301000D01*
X38595000Y-27261000D02*
X33905000Y-27261000D01*
X38650000Y-27221000D02*
X33850000Y-27221000D01*
X38704000Y-27181000D02*
X33796000Y-27181000D01*
X38755000Y-27141000D02*
X33745000Y-27141000D01*
X38806000Y-27101000D02*
X33694000Y-27101000D01*
X38854000Y-27061000D02*
X33646000Y-27061000D01*
X38901000Y-27021000D02*
X33599000Y-27021000D01*
X38947000Y-26981000D02*
X33553000Y-26981000D01*
X38991000Y-26941000D02*
X33509000Y-26941000D01*
X39034000Y-26901000D02*
X33466000Y-26901000D01*
X39076000Y-26861000D02*
X33424000Y-26861000D01*
X39117000Y-26821000D02*
X33383000Y-26821000D01*
X39157000Y-26781000D02*
X33343000Y-26781000D01*
X39195000Y-26741000D02*
X33305000Y-26741000D01*
X39233000Y-26701000D02*
X33267000Y-26701000D01*
X35210000Y-26661000D02*
X33231000Y-26661000D01*
X39269000Y-26661000D02*
X37290000Y-26661000D01*
X35210000Y-26621000D02*
X33195000Y-26621000D01*
X39305000Y-26621000D02*
X37290000Y-26621000D01*
X35210000Y-26581000D02*
X33160000Y-26581000D01*
X39340000Y-26581000D02*
X37290000Y-26581000D01*
X35210000Y-26541000D02*
X33126000Y-26541000D01*
X39374000Y-26541000D02*
X37290000Y-26541000D01*
X35210000Y-26501000D02*
X33094000Y-26501000D01*
X39406000Y-26501000D02*
X37290000Y-26501000D01*
X35210000Y-26461000D02*
X33061000Y-26461000D01*
X39439000Y-26461000D02*
X37290000Y-26461000D01*
X35210000Y-26421000D02*
X33030000Y-26421000D01*
X39470000Y-26421000D02*
X37290000Y-26421000D01*
X35210000Y-26381000D02*
X33000000Y-26381000D01*
X39500000Y-26381000D02*
X37290000Y-26381000D01*
X35210000Y-26341000D02*
X32970000Y-26341000D01*
X39530000Y-26341000D02*
X37290000Y-26341000D01*
X35210000Y-26301000D02*
X32941000Y-26301000D01*
X39559000Y-26301000D02*
X37290000Y-26301000D01*
X35210000Y-26261000D02*
X32912000Y-26261000D01*
X39588000Y-26261000D02*
X37290000Y-26261000D01*
X35210000Y-26221000D02*
X32885000Y-26221000D01*
X39615000Y-26221000D02*
X37290000Y-26221000D01*
X35210000Y-26181000D02*
X32858000Y-26181000D01*
X39642000Y-26181000D02*
X37290000Y-26181000D01*
X35210000Y-26141000D02*
X32832000Y-26141000D01*
X39668000Y-26141000D02*
X37290000Y-26141000D01*
X35210000Y-26101000D02*
X32806000Y-26101000D01*
X39694000Y-26101000D02*
X37290000Y-26101000D01*
X35210000Y-26061000D02*
X32781000Y-26061000D01*
X39719000Y-26061000D02*
X37290000Y-26061000D01*
X35210000Y-26021000D02*
X32757000Y-26021000D01*
X39743000Y-26021000D02*
X37290000Y-26021000D01*
X35210000Y-25981000D02*
X32733000Y-25981000D01*
X39767000Y-25981000D02*
X37290000Y-25981000D01*
X35210000Y-25941000D02*
X32710000Y-25941000D01*
X39790000Y-25941000D02*
X37290000Y-25941000D01*
X35210000Y-25901000D02*
X32688000Y-25901000D01*
X39812000Y-25901000D02*
X37290000Y-25901000D01*
X35210000Y-25861000D02*
X32666000Y-25861000D01*
X39834000Y-25861000D02*
X37290000Y-25861000D01*
X35210000Y-25821000D02*
X32644000Y-25821000D01*
X39856000Y-25821000D02*
X37290000Y-25821000D01*
X35210000Y-25781000D02*
X32623000Y-25781000D01*
X39877000Y-25781000D02*
X37290000Y-25781000D01*
X35210000Y-25741000D02*
X32603000Y-25741000D01*
X39897000Y-25741000D02*
X37290000Y-25741000D01*
X35210000Y-25701000D02*
X32584000Y-25701000D01*
X39916000Y-25701000D02*
X37290000Y-25701000D01*
X35210000Y-25661000D02*
X32564000Y-25661000D01*
X39936000Y-25661000D02*
X37290000Y-25661000D01*
X35210000Y-25621000D02*
X32546000Y-25621000D01*
X39954000Y-25621000D02*
X37290000Y-25621000D01*
X35210000Y-25581000D02*
X32528000Y-25581000D01*
X39972000Y-25581000D02*
X37290000Y-25581000D01*
X35210000Y-25541000D02*
X32510000Y-25541000D01*
X39990000Y-25541000D02*
X37290000Y-25541000D01*
X35210000Y-25501000D02*
X32493000Y-25501000D01*
X40007000Y-25501000D02*
X37290000Y-25501000D01*
X35210000Y-25461000D02*
X32476000Y-25461000D01*
X40024000Y-25461000D02*
X37290000Y-25461000D01*
X35210000Y-25421000D02*
X32460000Y-25421000D01*
X40040000Y-25421000D02*
X37290000Y-25421000D01*
X35210000Y-25381000D02*
X32445000Y-25381000D01*
X40055000Y-25381000D02*
X37290000Y-25381000D01*
X35210000Y-25341000D02*
X32429000Y-25341000D01*
X40071000Y-25341000D02*
X37290000Y-25341000D01*
X35210000Y-25301000D02*
X32415000Y-25301000D01*
X40085000Y-25301000D02*
X37290000Y-25301000D01*
X35210000Y-25261000D02*
X32400000Y-25261000D01*
X40100000Y-25261000D02*
X37290000Y-25261000D01*
X35210000Y-25221000D02*
X32387000Y-25221000D01*
X40113000Y-25221000D02*
X37290000Y-25221000D01*
X35210000Y-25181000D02*
X32373000Y-25181000D01*
X40127000Y-25181000D02*
X37290000Y-25181000D01*
X35210000Y-25141000D02*
X32361000Y-25141000D01*
X40139000Y-25141000D02*
X37290000Y-25141000D01*
X35210000Y-25101000D02*
X32348000Y-25101000D01*
X40152000Y-25101000D02*
X37290000Y-25101000D01*
X35210000Y-25061000D02*
X32336000Y-25061000D01*
X40164000Y-25061000D02*
X37290000Y-25061000D01*
X35210000Y-25021000D02*
X32325000Y-25021000D01*
X40175000Y-25021000D02*
X37290000Y-25021000D01*
X35210000Y-24981000D02*
X32314000Y-24981000D01*
X40186000Y-24981000D02*
X37290000Y-24981000D01*
X35210000Y-24941000D02*
X32303000Y-24941000D01*
X40197000Y-24941000D02*
X37290000Y-24941000D01*
X35210000Y-24901000D02*
X32293000Y-24901000D01*
X40207000Y-24901000D02*
X37290000Y-24901000D01*
X35210000Y-24861000D02*
X32283000Y-24861000D01*
X40217000Y-24861000D02*
X37290000Y-24861000D01*
X35210000Y-24821000D02*
X32274000Y-24821000D01*
X40226000Y-24821000D02*
X37290000Y-24821000D01*
X35210000Y-24781000D02*
X32265000Y-24781000D01*
X40235000Y-24781000D02*
X37290000Y-24781000D01*
X35210000Y-24741000D02*
X32256000Y-24741000D01*
X40244000Y-24741000D02*
X37290000Y-24741000D01*
X35210000Y-24701000D02*
X32248000Y-24701000D01*
X40252000Y-24701000D02*
X37290000Y-24701000D01*
X35210000Y-24661000D02*
X32240000Y-24661000D01*
X40260000Y-24661000D02*
X37290000Y-24661000D01*
X35210000Y-24621000D02*
X32233000Y-24621000D01*
X40267000Y-24621000D02*
X37290000Y-24621000D01*
X40274000Y-24580000D02*
X32226000Y-24580000D01*
X40280000Y-24540000D02*
X32220000Y-24540000D01*
X40287000Y-24500000D02*
X32213000Y-24500000D01*
X40292000Y-24460000D02*
X32208000Y-24460000D01*
X40298000Y-24420000D02*
X32202000Y-24420000D01*
X40302000Y-24380000D02*
X32198000Y-24380000D01*
X40307000Y-24340000D02*
X32193000Y-24340000D01*
X40311000Y-24300000D02*
X32189000Y-24300000D01*
X40315000Y-24260000D02*
X32185000Y-24260000D01*
X40318000Y-24220000D02*
X32182000Y-24220000D01*
X40321000Y-24180000D02*
X32179000Y-24180000D01*
X40324000Y-24140000D02*
X32176000Y-24140000D01*
X40326000Y-24100000D02*
X32174000Y-24100000D01*
X40327000Y-24060000D02*
X32173000Y-24060000D01*
X40329000Y-24020000D02*
X32171000Y-24020000D01*
X40330000Y-23980000D02*
X32170000Y-23980000D01*
X40330000Y-23940000D02*
X32170000Y-23940000D01*
X40330000Y-23900000D02*
X32170000Y-23900000D01*
X40370000Y-23900000D02*
G75*
G03*
X40370000Y-23900000I-4120000J0D01*
G01*
%TO.C,C1*%
X43790000Y-23003733D02*
X43790000Y-23296267D01*
X44810000Y-23003733D02*
X44810000Y-23296267D01*
%TO.C,12V*%
X56522500Y-28754724D02*
X56522500Y-28245276D01*
X55477500Y-28754724D02*
X55477500Y-28245276D01*
%TO.C,U2*%
X75650000Y-41950000D02*
X75650000Y-49600000D01*
X75150000Y-41450000D02*
X71600000Y-41450000D01*
X71600000Y-50100000D02*
X75150000Y-50100000D01*
X71100000Y-41950000D02*
X71100000Y-49600000D01*
X71600000Y-50100000D02*
G75*
G02*
X71100000Y-49600000I0J500000D01*
G01*
X75650000Y-49600000D02*
G75*
G02*
X75150000Y-50100000I-500000J0D01*
G01*
X75150000Y-41450000D02*
G75*
G02*
X75650000Y-41950000I0J-500000D01*
G01*
X71100000Y-41950000D02*
G75*
G02*
X71600000Y-41450000I500000J0D01*
G01*
D11*
%TO.C,U1*%
X45875000Y-23225000D02*
X51125000Y-23225000D01*
X46975000Y-28375000D02*
X51125000Y-28375000D01*
D10*
%TO.C,SW1*%
X16350000Y-35050000D02*
X28350000Y-35050000D01*
X28350000Y-35050000D02*
X28350000Y-16550000D01*
X16350000Y-35050000D02*
X16350000Y-16550000D01*
X28900000Y-35500000D02*
X15800000Y-35500000D01*
X28900000Y-16100000D02*
X28900000Y-35500000D01*
X15800000Y-16100000D02*
X28900000Y-16100000D01*
X15800000Y-35500000D02*
X15800000Y-16100000D01*
X16350000Y-16550000D02*
X28350000Y-16550000D01*
%TO.C,R6*%
X76277500Y-43295276D02*
X76277500Y-43804724D01*
X77322500Y-43295276D02*
X77322500Y-43804724D01*
%TO.C,R5*%
X77322500Y-48004724D02*
X77322500Y-47495276D01*
X76277500Y-48004724D02*
X76277500Y-47495276D01*
%TO.C,R2*%
X55327500Y-22745276D02*
X55327500Y-23254724D01*
X56372500Y-22745276D02*
X56372500Y-23254724D01*
%TO.C,R1*%
X43877500Y-28445276D02*
X43877500Y-28954724D01*
X44922500Y-28445276D02*
X44922500Y-28954724D01*
%TO.C,C8*%
X66915000Y-19540302D02*
X66115000Y-19540302D01*
X66515000Y-19140302D02*
X66515000Y-19940302D01*
X64733000Y-27631000D02*
X63667000Y-27631000D01*
X64968000Y-27591000D02*
X63432000Y-27591000D01*
X65148000Y-27551000D02*
X63252000Y-27551000D01*
X65298000Y-27511000D02*
X63102000Y-27511000D01*
X65429000Y-27471000D02*
X62971000Y-27471000D01*
X65546000Y-27431000D02*
X62854000Y-27431000D01*
X65653000Y-27391000D02*
X62747000Y-27391000D01*
X65752000Y-27351000D02*
X62648000Y-27351000D01*
X65845000Y-27311000D02*
X62555000Y-27311000D01*
X65931000Y-27271000D02*
X62469000Y-27271000D01*
X66013000Y-27231000D02*
X62387000Y-27231000D01*
X66090000Y-27191000D02*
X62310000Y-27191000D01*
X66164000Y-27151000D02*
X62236000Y-27151000D01*
X66234000Y-27111000D02*
X62166000Y-27111000D01*
X66302000Y-27071000D02*
X62098000Y-27071000D01*
X66366000Y-27031000D02*
X62034000Y-27031000D01*
X66428000Y-26991000D02*
X61972000Y-26991000D01*
X66487000Y-26951000D02*
X61913000Y-26951000D01*
X66545000Y-26911000D02*
X61855000Y-26911000D01*
X66600000Y-26871000D02*
X61800000Y-26871000D01*
X66654000Y-26831000D02*
X61746000Y-26831000D01*
X66705000Y-26791000D02*
X61695000Y-26791000D01*
X66756000Y-26751000D02*
X61644000Y-26751000D01*
X66804000Y-26711000D02*
X61596000Y-26711000D01*
X66851000Y-26671000D02*
X61549000Y-26671000D01*
X66897000Y-26631000D02*
X61503000Y-26631000D01*
X66941000Y-26591000D02*
X61459000Y-26591000D01*
X66984000Y-26551000D02*
X61416000Y-26551000D01*
X67026000Y-26511000D02*
X61374000Y-26511000D01*
X67067000Y-26471000D02*
X61333000Y-26471000D01*
X67107000Y-26431000D02*
X61293000Y-26431000D01*
X67145000Y-26391000D02*
X61255000Y-26391000D01*
X67183000Y-26351000D02*
X61217000Y-26351000D01*
X63160000Y-26311000D02*
X61181000Y-26311000D01*
X67219000Y-26311000D02*
X65240000Y-26311000D01*
X63160000Y-26271000D02*
X61145000Y-26271000D01*
X67255000Y-26271000D02*
X65240000Y-26271000D01*
X63160000Y-26231000D02*
X61110000Y-26231000D01*
X67290000Y-26231000D02*
X65240000Y-26231000D01*
X63160000Y-26191000D02*
X61076000Y-26191000D01*
X67324000Y-26191000D02*
X65240000Y-26191000D01*
X63160000Y-26151000D02*
X61044000Y-26151000D01*
X67356000Y-26151000D02*
X65240000Y-26151000D01*
X63160000Y-26111000D02*
X61011000Y-26111000D01*
X67389000Y-26111000D02*
X65240000Y-26111000D01*
X63160000Y-26071000D02*
X60980000Y-26071000D01*
X67420000Y-26071000D02*
X65240000Y-26071000D01*
X63160000Y-26031000D02*
X60950000Y-26031000D01*
X67450000Y-26031000D02*
X65240000Y-26031000D01*
X63160000Y-25991000D02*
X60920000Y-25991000D01*
X67480000Y-25991000D02*
X65240000Y-25991000D01*
X63160000Y-25951000D02*
X60891000Y-25951000D01*
X67509000Y-25951000D02*
X65240000Y-25951000D01*
X63160000Y-25911000D02*
X60862000Y-25911000D01*
X67538000Y-25911000D02*
X65240000Y-25911000D01*
X63160000Y-25871000D02*
X60835000Y-25871000D01*
X67565000Y-25871000D02*
X65240000Y-25871000D01*
X63160000Y-25831000D02*
X60808000Y-25831000D01*
X67592000Y-25831000D02*
X65240000Y-25831000D01*
X63160000Y-25791000D02*
X60782000Y-25791000D01*
X67618000Y-25791000D02*
X65240000Y-25791000D01*
X63160000Y-25751000D02*
X60756000Y-25751000D01*
X67644000Y-25751000D02*
X65240000Y-25751000D01*
X63160000Y-25711000D02*
X60731000Y-25711000D01*
X67669000Y-25711000D02*
X65240000Y-25711000D01*
X63160000Y-25671000D02*
X60707000Y-25671000D01*
X67693000Y-25671000D02*
X65240000Y-25671000D01*
X63160000Y-25631000D02*
X60683000Y-25631000D01*
X67717000Y-25631000D02*
X65240000Y-25631000D01*
X63160000Y-25591000D02*
X60660000Y-25591000D01*
X67740000Y-25591000D02*
X65240000Y-25591000D01*
X63160000Y-25551000D02*
X60638000Y-25551000D01*
X67762000Y-25551000D02*
X65240000Y-25551000D01*
X63160000Y-25511000D02*
X60616000Y-25511000D01*
X67784000Y-25511000D02*
X65240000Y-25511000D01*
X63160000Y-25471000D02*
X60594000Y-25471000D01*
X67806000Y-25471000D02*
X65240000Y-25471000D01*
X63160000Y-25431000D02*
X60573000Y-25431000D01*
X67827000Y-25431000D02*
X65240000Y-25431000D01*
X63160000Y-25391000D02*
X60553000Y-25391000D01*
X67847000Y-25391000D02*
X65240000Y-25391000D01*
X63160000Y-25351000D02*
X60534000Y-25351000D01*
X67866000Y-25351000D02*
X65240000Y-25351000D01*
X63160000Y-25311000D02*
X60514000Y-25311000D01*
X67886000Y-25311000D02*
X65240000Y-25311000D01*
X63160000Y-25271000D02*
X60496000Y-25271000D01*
X67904000Y-25271000D02*
X65240000Y-25271000D01*
X63160000Y-25231000D02*
X60478000Y-25231000D01*
X67922000Y-25231000D02*
X65240000Y-25231000D01*
X63160000Y-25191000D02*
X60460000Y-25191000D01*
X67940000Y-25191000D02*
X65240000Y-25191000D01*
X63160000Y-25151000D02*
X60443000Y-25151000D01*
X67957000Y-25151000D02*
X65240000Y-25151000D01*
X63160000Y-25111000D02*
X60426000Y-25111000D01*
X67974000Y-25111000D02*
X65240000Y-25111000D01*
X63160000Y-25071000D02*
X60410000Y-25071000D01*
X67990000Y-25071000D02*
X65240000Y-25071000D01*
X63160000Y-25031000D02*
X60395000Y-25031000D01*
X68005000Y-25031000D02*
X65240000Y-25031000D01*
X63160000Y-24991000D02*
X60379000Y-24991000D01*
X68021000Y-24991000D02*
X65240000Y-24991000D01*
X63160000Y-24951000D02*
X60365000Y-24951000D01*
X68035000Y-24951000D02*
X65240000Y-24951000D01*
X63160000Y-24911000D02*
X60350000Y-24911000D01*
X68050000Y-24911000D02*
X65240000Y-24911000D01*
X63160000Y-24871000D02*
X60337000Y-24871000D01*
X68063000Y-24871000D02*
X65240000Y-24871000D01*
X63160000Y-24831000D02*
X60323000Y-24831000D01*
X68077000Y-24831000D02*
X65240000Y-24831000D01*
X63160000Y-24791000D02*
X60311000Y-24791000D01*
X68089000Y-24791000D02*
X65240000Y-24791000D01*
X63160000Y-24751000D02*
X60298000Y-24751000D01*
X68102000Y-24751000D02*
X65240000Y-24751000D01*
X63160000Y-24711000D02*
X60286000Y-24711000D01*
X68114000Y-24711000D02*
X65240000Y-24711000D01*
X63160000Y-24671000D02*
X60275000Y-24671000D01*
X68125000Y-24671000D02*
X65240000Y-24671000D01*
X63160000Y-24631000D02*
X60264000Y-24631000D01*
X68136000Y-24631000D02*
X65240000Y-24631000D01*
X63160000Y-24591000D02*
X60253000Y-24591000D01*
X68147000Y-24591000D02*
X65240000Y-24591000D01*
X63160000Y-24551000D02*
X60243000Y-24551000D01*
X68157000Y-24551000D02*
X65240000Y-24551000D01*
X63160000Y-24511000D02*
X60233000Y-24511000D01*
X68167000Y-24511000D02*
X65240000Y-24511000D01*
X63160000Y-24471000D02*
X60224000Y-24471000D01*
X68176000Y-24471000D02*
X65240000Y-24471000D01*
X63160000Y-24431000D02*
X60215000Y-24431000D01*
X68185000Y-24431000D02*
X65240000Y-24431000D01*
X63160000Y-24391000D02*
X60206000Y-24391000D01*
X68194000Y-24391000D02*
X65240000Y-24391000D01*
X63160000Y-24351000D02*
X60198000Y-24351000D01*
X68202000Y-24351000D02*
X65240000Y-24351000D01*
X63160000Y-24311000D02*
X60190000Y-24311000D01*
X68210000Y-24311000D02*
X65240000Y-24311000D01*
X63160000Y-24271000D02*
X60183000Y-24271000D01*
X68217000Y-24271000D02*
X65240000Y-24271000D01*
X68224000Y-24230000D02*
X60176000Y-24230000D01*
X68230000Y-24190000D02*
X60170000Y-24190000D01*
X68237000Y-24150000D02*
X60163000Y-24150000D01*
X68242000Y-24110000D02*
X60158000Y-24110000D01*
X68248000Y-24070000D02*
X60152000Y-24070000D01*
X68252000Y-24030000D02*
X60148000Y-24030000D01*
X68257000Y-23990000D02*
X60143000Y-23990000D01*
X68261000Y-23950000D02*
X60139000Y-23950000D01*
X68265000Y-23910000D02*
X60135000Y-23910000D01*
X68268000Y-23870000D02*
X60132000Y-23870000D01*
X68271000Y-23830000D02*
X60129000Y-23830000D01*
X68274000Y-23790000D02*
X60126000Y-23790000D01*
X68276000Y-23750000D02*
X60124000Y-23750000D01*
X68277000Y-23710000D02*
X60123000Y-23710000D01*
X68279000Y-23670000D02*
X60121000Y-23670000D01*
X68280000Y-23630000D02*
X60120000Y-23630000D01*
X68280000Y-23590000D02*
X60120000Y-23590000D01*
X68280000Y-23550000D02*
X60120000Y-23550000D01*
X68320000Y-23550000D02*
G75*
G03*
X68320000Y-23550000I-4120000J0D01*
G01*
%TO.C,C7*%
X57240000Y-22853733D02*
X57240000Y-23146267D01*
X58260000Y-22853733D02*
X58260000Y-23146267D01*
%TO.C,C6*%
X53990000Y-26553733D02*
X53990000Y-26846267D01*
X55010000Y-26553733D02*
X55010000Y-26846267D01*
%TO.C,C5*%
X41646267Y-27290000D02*
X41353733Y-27290000D01*
X41646267Y-28310000D02*
X41353733Y-28310000D01*
%TO.C,C4*%
X41646267Y-29090000D02*
X41353733Y-29090000D01*
X41646267Y-30110000D02*
X41353733Y-30110000D01*
%TO.C,C2*%
X41890000Y-23003733D02*
X41890000Y-23296267D01*
X42910000Y-23003733D02*
X42910000Y-23296267D01*
%TO.C,JPe*%
D11*
X65214285Y-37952380D02*
X65214285Y-38666666D01*
X65166666Y-38809523D01*
X65071428Y-38904761D01*
X64928571Y-38952380D01*
X64833333Y-38952380D01*
X65690476Y-38952380D02*
X65690476Y-37952380D01*
X66071428Y-37952380D01*
X66166666Y-38000000D01*
X66214285Y-38047619D01*
X66261904Y-38142857D01*
X66261904Y-38285714D01*
X66214285Y-38380952D01*
X66166666Y-38428571D01*
X66071428Y-38476190D01*
X65690476Y-38476190D01*
X67071428Y-38904761D02*
X66976190Y-38952380D01*
X66785714Y-38952380D01*
X66690476Y-38904761D01*
X66642857Y-38809523D01*
X66642857Y-38428571D01*
X66690476Y-38333333D01*
X66785714Y-38285714D01*
X66976190Y-38285714D01*
X67071428Y-38333333D01*
X67119047Y-38428571D01*
X67119047Y-38523809D01*
X66642857Y-38619047D01*
%TO.C,R13*%
D10*
X57817857Y-54589285D02*
X57567857Y-54232142D01*
X57389285Y-54589285D02*
X57389285Y-53839285D01*
X57675000Y-53839285D01*
X57746428Y-53875000D01*
X57782142Y-53910714D01*
X57817857Y-53982142D01*
X57817857Y-54089285D01*
X57782142Y-54160714D01*
X57746428Y-54196428D01*
X57675000Y-54232142D01*
X57389285Y-54232142D01*
X58532142Y-54589285D02*
X58103571Y-54589285D01*
X58317857Y-54589285D02*
X58317857Y-53839285D01*
X58246428Y-53946428D01*
X58175000Y-54017857D01*
X58103571Y-54053571D01*
X58782142Y-53839285D02*
X59246428Y-53839285D01*
X58996428Y-54125000D01*
X59103571Y-54125000D01*
X59175000Y-54160714D01*
X59210714Y-54196428D01*
X59246428Y-54267857D01*
X59246428Y-54446428D01*
X59210714Y-54517857D01*
X59175000Y-54553571D01*
X59103571Y-54589285D01*
X58889285Y-54589285D01*
X58817857Y-54553571D01*
X58782142Y-54517857D01*
%TO.C,C13*%
D11*
X47107142Y-39857142D02*
X47059523Y-39904761D01*
X46916666Y-39952380D01*
X46821428Y-39952380D01*
X46678571Y-39904761D01*
X46583333Y-39809523D01*
X46535714Y-39714285D01*
X46488095Y-39523809D01*
X46488095Y-39380952D01*
X46535714Y-39190476D01*
X46583333Y-39095238D01*
X46678571Y-39000000D01*
X46821428Y-38952380D01*
X46916666Y-38952380D01*
X47059523Y-39000000D01*
X47107142Y-39047619D01*
X48059523Y-39952380D02*
X47488095Y-39952380D01*
X47773809Y-39952380D02*
X47773809Y-38952380D01*
X47678571Y-39095238D01*
X47583333Y-39190476D01*
X47488095Y-39238095D01*
X48392857Y-38952380D02*
X49011904Y-38952380D01*
X48678571Y-39333333D01*
X48821428Y-39333333D01*
X48916666Y-39380952D01*
X48964285Y-39428571D01*
X49011904Y-39523809D01*
X49011904Y-39761904D01*
X48964285Y-39857142D01*
X48916666Y-39904761D01*
X48821428Y-39952380D01*
X48535714Y-39952380D01*
X48440476Y-39904761D01*
X48392857Y-39857142D01*
%TO.C,C9*%
X60257142Y-41566666D02*
X60304761Y-41614285D01*
X60352380Y-41757142D01*
X60352380Y-41852380D01*
X60304761Y-41995238D01*
X60209523Y-42090476D01*
X60114285Y-42138095D01*
X59923809Y-42185714D01*
X59780952Y-42185714D01*
X59590476Y-42138095D01*
X59495238Y-42090476D01*
X59400000Y-41995238D01*
X59352380Y-41852380D01*
X59352380Y-41757142D01*
X59400000Y-41614285D01*
X59447619Y-41566666D01*
X60352380Y-41090476D02*
X60352380Y-40900000D01*
X60304761Y-40804761D01*
X60257142Y-40757142D01*
X60114285Y-40661904D01*
X59923809Y-40614285D01*
X59542857Y-40614285D01*
X59447619Y-40661904D01*
X59400000Y-40709523D01*
X59352380Y-40804761D01*
X59352380Y-40995238D01*
X59400000Y-41090476D01*
X59447619Y-41138095D01*
X59542857Y-41185714D01*
X59780952Y-41185714D01*
X59876190Y-41138095D01*
X59923809Y-41090476D01*
X59971428Y-40995238D01*
X59971428Y-40804761D01*
X59923809Y-40709523D01*
X59876190Y-40661904D01*
X59780952Y-40614285D01*
%TO.C,J3*%
X75452380Y-34883333D02*
X76166666Y-34883333D01*
X76309523Y-34930952D01*
X76404761Y-35026190D01*
X76452380Y-35169047D01*
X76452380Y-35264285D01*
X75452380Y-34502380D02*
X75452380Y-33883333D01*
X75833333Y-34216666D01*
X75833333Y-34073809D01*
X75880952Y-33978571D01*
X75928571Y-33930952D01*
X76023809Y-33883333D01*
X76261904Y-33883333D01*
X76357142Y-33930952D01*
X76404761Y-33978571D01*
X76452380Y-34073809D01*
X76452380Y-34359523D01*
X76404761Y-34454761D01*
X76357142Y-34502380D01*
%TO.C,L1*%
D10*
X46575000Y-17439285D02*
X46217857Y-17439285D01*
X46217857Y-16689285D01*
X47217857Y-17439285D02*
X46789285Y-17439285D01*
X47003571Y-17439285D02*
X47003571Y-16689285D01*
X46932142Y-16796428D01*
X46860714Y-16867857D01*
X46789285Y-16903571D01*
%TO.C,9V*%
X56439285Y-35964285D02*
X56439285Y-35821428D01*
X56403571Y-35750000D01*
X56367857Y-35714285D01*
X56260714Y-35642857D01*
X56117857Y-35607142D01*
X55832142Y-35607142D01*
X55760714Y-35642857D01*
X55725000Y-35678571D01*
X55689285Y-35750000D01*
X55689285Y-35892857D01*
X55725000Y-35964285D01*
X55760714Y-36000000D01*
X55832142Y-36035714D01*
X56010714Y-36035714D01*
X56082142Y-36000000D01*
X56117857Y-35964285D01*
X56153571Y-35892857D01*
X56153571Y-35750000D01*
X56117857Y-35678571D01*
X56082142Y-35642857D01*
X56010714Y-35607142D01*
X55689285Y-35392857D02*
X56439285Y-35142857D01*
X55689285Y-34892857D01*
%TO.C,5V*%
X57539285Y-35642857D02*
X57539285Y-36000000D01*
X57896428Y-36035714D01*
X57860714Y-36000000D01*
X57825000Y-35928571D01*
X57825000Y-35750000D01*
X57860714Y-35678571D01*
X57896428Y-35642857D01*
X57967857Y-35607142D01*
X58146428Y-35607142D01*
X58217857Y-35642857D01*
X58253571Y-35678571D01*
X58289285Y-35750000D01*
X58289285Y-35928571D01*
X58253571Y-36000000D01*
X58217857Y-36035714D01*
X57539285Y-35392857D02*
X58289285Y-35142857D01*
X57539285Y-34892857D01*
%TO.C,R10*%
D11*
X50057142Y-53552380D02*
X49723809Y-53076190D01*
X49485714Y-53552380D02*
X49485714Y-52552380D01*
X49866666Y-52552380D01*
X49961904Y-52600000D01*
X50009523Y-52647619D01*
X50057142Y-52742857D01*
X50057142Y-52885714D01*
X50009523Y-52980952D01*
X49961904Y-53028571D01*
X49866666Y-53076190D01*
X49485714Y-53076190D01*
X51009523Y-53552380D02*
X50438095Y-53552380D01*
X50723809Y-53552380D02*
X50723809Y-52552380D01*
X50628571Y-52695238D01*
X50533333Y-52790476D01*
X50438095Y-52838095D01*
X51628571Y-52552380D02*
X51723809Y-52552380D01*
X51819047Y-52600000D01*
X51866666Y-52647619D01*
X51914285Y-52742857D01*
X51961904Y-52933333D01*
X51961904Y-53171428D01*
X51914285Y-53361904D01*
X51866666Y-53457142D01*
X51819047Y-53504761D01*
X51723809Y-53552380D01*
X51628571Y-53552380D01*
X51533333Y-53504761D01*
X51485714Y-53457142D01*
X51438095Y-53361904D01*
X51390476Y-53171428D01*
X51390476Y-52933333D01*
X51438095Y-52742857D01*
X51485714Y-52647619D01*
X51533333Y-52600000D01*
X51628571Y-52552380D01*
%TO.C,R9*%
D10*
X63525000Y-52839285D02*
X63275000Y-52482142D01*
X63096428Y-52839285D02*
X63096428Y-52089285D01*
X63382142Y-52089285D01*
X63453571Y-52125000D01*
X63489285Y-52160714D01*
X63525000Y-52232142D01*
X63525000Y-52339285D01*
X63489285Y-52410714D01*
X63453571Y-52446428D01*
X63382142Y-52482142D01*
X63096428Y-52482142D01*
X63882142Y-52839285D02*
X64025000Y-52839285D01*
X64096428Y-52803571D01*
X64132142Y-52767857D01*
X64203571Y-52660714D01*
X64239285Y-52517857D01*
X64239285Y-52232142D01*
X64203571Y-52160714D01*
X64167857Y-52125000D01*
X64096428Y-52089285D01*
X63953571Y-52089285D01*
X63882142Y-52125000D01*
X63846428Y-52160714D01*
X63810714Y-52232142D01*
X63810714Y-52410714D01*
X63846428Y-52482142D01*
X63882142Y-52517857D01*
X63953571Y-52553571D01*
X64096428Y-52553571D01*
X64167857Y-52517857D01*
X64203571Y-52482142D01*
X64239285Y-52410714D01*
%TO.C,R8*%
X24575000Y-47339285D02*
X24325000Y-46982142D01*
X24146428Y-47339285D02*
X24146428Y-46589285D01*
X24432142Y-46589285D01*
X24503571Y-46625000D01*
X24539285Y-46660714D01*
X24575000Y-46732142D01*
X24575000Y-46839285D01*
X24539285Y-46910714D01*
X24503571Y-46946428D01*
X24432142Y-46982142D01*
X24146428Y-46982142D01*
X25003571Y-46910714D02*
X24932142Y-46875000D01*
X24896428Y-46839285D01*
X24860714Y-46767857D01*
X24860714Y-46732142D01*
X24896428Y-46660714D01*
X24932142Y-46625000D01*
X25003571Y-46589285D01*
X25146428Y-46589285D01*
X25217857Y-46625000D01*
X25253571Y-46660714D01*
X25289285Y-46732142D01*
X25289285Y-46767857D01*
X25253571Y-46839285D01*
X25217857Y-46875000D01*
X25146428Y-46910714D01*
X25003571Y-46910714D01*
X24932142Y-46946428D01*
X24896428Y-46982142D01*
X24860714Y-47053571D01*
X24860714Y-47196428D01*
X24896428Y-47267857D01*
X24932142Y-47303571D01*
X25003571Y-47339285D01*
X25146428Y-47339285D01*
X25217857Y-47303571D01*
X25253571Y-47267857D01*
X25289285Y-47196428D01*
X25289285Y-47053571D01*
X25253571Y-46982142D01*
X25217857Y-46946428D01*
X25146428Y-46910714D01*
%TO.C,R7*%
X58375000Y-45589285D02*
X58125000Y-45232142D01*
X57946428Y-45589285D02*
X57946428Y-44839285D01*
X58232142Y-44839285D01*
X58303571Y-44875000D01*
X58339285Y-44910714D01*
X58375000Y-44982142D01*
X58375000Y-45089285D01*
X58339285Y-45160714D01*
X58303571Y-45196428D01*
X58232142Y-45232142D01*
X57946428Y-45232142D01*
X58625000Y-44839285D02*
X59125000Y-44839285D01*
X58803571Y-45589285D01*
%TO.C,L2*%
X35825000Y-39839285D02*
X35467857Y-39839285D01*
X35467857Y-39089285D01*
X36039285Y-39160714D02*
X36075000Y-39125000D01*
X36146428Y-39089285D01*
X36325000Y-39089285D01*
X36396428Y-39125000D01*
X36432142Y-39160714D01*
X36467857Y-39232142D01*
X36467857Y-39303571D01*
X36432142Y-39410714D01*
X36003571Y-39839285D01*
X36467857Y-39839285D01*
%TO.C,J2*%
D11*
X40566666Y-52952380D02*
X40566666Y-53666666D01*
X40519047Y-53809523D01*
X40423809Y-53904761D01*
X40280952Y-53952380D01*
X40185714Y-53952380D01*
X40995238Y-53047619D02*
X41042857Y-53000000D01*
X41138095Y-52952380D01*
X41376190Y-52952380D01*
X41471428Y-53000000D01*
X41519047Y-53047619D01*
X41566666Y-53142857D01*
X41566666Y-53238095D01*
X41519047Y-53380952D01*
X40947619Y-53952380D01*
X41566666Y-53952380D01*
%TO.C,J1*%
X75252380Y-24283333D02*
X75966666Y-24283333D01*
X76109523Y-24330952D01*
X76204761Y-24426190D01*
X76252380Y-24569047D01*
X76252380Y-24664285D01*
X76252380Y-23283333D02*
X76252380Y-23854761D01*
X76252380Y-23569047D02*
X75252380Y-23569047D01*
X75395238Y-23664285D01*
X75490476Y-23759523D01*
X75538095Y-23854761D01*
%TO.C,D5*%
D10*
X24046428Y-44639285D02*
X24046428Y-43889285D01*
X24225000Y-43889285D01*
X24332142Y-43925000D01*
X24403571Y-43996428D01*
X24439285Y-44067857D01*
X24475000Y-44210714D01*
X24475000Y-44317857D01*
X24439285Y-44460714D01*
X24403571Y-44532142D01*
X24332142Y-44603571D01*
X24225000Y-44639285D01*
X24046428Y-44639285D01*
X25153571Y-43889285D02*
X24796428Y-43889285D01*
X24760714Y-44246428D01*
X24796428Y-44210714D01*
X24867857Y-44175000D01*
X25046428Y-44175000D01*
X25117857Y-44210714D01*
X25153571Y-44246428D01*
X25189285Y-44317857D01*
X25189285Y-44496428D01*
X25153571Y-44567857D01*
X25117857Y-44603571D01*
X25046428Y-44639285D01*
X24867857Y-44639285D01*
X24796428Y-44603571D01*
X24760714Y-44567857D01*
%TO.C,D4*%
X53446428Y-44339285D02*
X53446428Y-43589285D01*
X53625000Y-43589285D01*
X53732142Y-43625000D01*
X53803571Y-43696428D01*
X53839285Y-43767857D01*
X53875000Y-43910714D01*
X53875000Y-44017857D01*
X53839285Y-44160714D01*
X53803571Y-44232142D01*
X53732142Y-44303571D01*
X53625000Y-44339285D01*
X53446428Y-44339285D01*
X54517857Y-43839285D02*
X54517857Y-44339285D01*
X54339285Y-43553571D02*
X54160714Y-44089285D01*
X54625000Y-44089285D01*
%TO.C,D3*%
X59196428Y-47789285D02*
X59196428Y-47039285D01*
X59375000Y-47039285D01*
X59482142Y-47075000D01*
X59553571Y-47146428D01*
X59589285Y-47217857D01*
X59625000Y-47360714D01*
X59625000Y-47467857D01*
X59589285Y-47610714D01*
X59553571Y-47682142D01*
X59482142Y-47753571D01*
X59375000Y-47789285D01*
X59196428Y-47789285D01*
X59875000Y-47039285D02*
X60339285Y-47039285D01*
X60089285Y-47325000D01*
X60196428Y-47325000D01*
X60267857Y-47360714D01*
X60303571Y-47396428D01*
X60339285Y-47467857D01*
X60339285Y-47646428D01*
X60303571Y-47717857D01*
X60267857Y-47753571D01*
X60196428Y-47789285D01*
X59982142Y-47789285D01*
X59910714Y-47753571D01*
X59875000Y-47717857D01*
%TO.C,C14*%
X19917857Y-40867857D02*
X19882142Y-40903571D01*
X19775000Y-40939285D01*
X19703571Y-40939285D01*
X19596428Y-40903571D01*
X19525000Y-40832142D01*
X19489285Y-40760714D01*
X19453571Y-40617857D01*
X19453571Y-40510714D01*
X19489285Y-40367857D01*
X19525000Y-40296428D01*
X19596428Y-40225000D01*
X19703571Y-40189285D01*
X19775000Y-40189285D01*
X19882142Y-40225000D01*
X19917857Y-40260714D01*
X20632142Y-40939285D02*
X20203571Y-40939285D01*
X20417857Y-40939285D02*
X20417857Y-40189285D01*
X20346428Y-40296428D01*
X20275000Y-40367857D01*
X20203571Y-40403571D01*
X21275000Y-40439285D02*
X21275000Y-40939285D01*
X21096428Y-40153571D02*
X20917857Y-40689285D01*
X21382142Y-40689285D01*
%TO.C,C12*%
X19917857Y-38967857D02*
X19882142Y-39003571D01*
X19775000Y-39039285D01*
X19703571Y-39039285D01*
X19596428Y-39003571D01*
X19525000Y-38932142D01*
X19489285Y-38860714D01*
X19453571Y-38717857D01*
X19453571Y-38610714D01*
X19489285Y-38467857D01*
X19525000Y-38396428D01*
X19596428Y-38325000D01*
X19703571Y-38289285D01*
X19775000Y-38289285D01*
X19882142Y-38325000D01*
X19917857Y-38360714D01*
X20632142Y-39039285D02*
X20203571Y-39039285D01*
X20417857Y-39039285D02*
X20417857Y-38289285D01*
X20346428Y-38396428D01*
X20275000Y-38467857D01*
X20203571Y-38503571D01*
X20917857Y-38360714D02*
X20953571Y-38325000D01*
X21025000Y-38289285D01*
X21203571Y-38289285D01*
X21275000Y-38325000D01*
X21310714Y-38360714D01*
X21346428Y-38432142D01*
X21346428Y-38503571D01*
X21310714Y-38610714D01*
X20882142Y-39039285D01*
X21346428Y-39039285D01*
%TO.C,C11*%
X19917857Y-37067857D02*
X19882142Y-37103571D01*
X19775000Y-37139285D01*
X19703571Y-37139285D01*
X19596428Y-37103571D01*
X19525000Y-37032142D01*
X19489285Y-36960714D01*
X19453571Y-36817857D01*
X19453571Y-36710714D01*
X19489285Y-36567857D01*
X19525000Y-36496428D01*
X19596428Y-36425000D01*
X19703571Y-36389285D01*
X19775000Y-36389285D01*
X19882142Y-36425000D01*
X19917857Y-36460714D01*
X20632142Y-37139285D02*
X20203571Y-37139285D01*
X20417857Y-37139285D02*
X20417857Y-36389285D01*
X20346428Y-36496428D01*
X20275000Y-36567857D01*
X20203571Y-36603571D01*
X21346428Y-37139285D02*
X20917857Y-37139285D01*
X21132142Y-37139285D02*
X21132142Y-36389285D01*
X21060714Y-36496428D01*
X20989285Y-36567857D01*
X20917857Y-36603571D01*
%TO.C,C10*%
X22067857Y-47267857D02*
X22032142Y-47303571D01*
X21925000Y-47339285D01*
X21853571Y-47339285D01*
X21746428Y-47303571D01*
X21675000Y-47232142D01*
X21639285Y-47160714D01*
X21603571Y-47017857D01*
X21603571Y-46910714D01*
X21639285Y-46767857D01*
X21675000Y-46696428D01*
X21746428Y-46625000D01*
X21853571Y-46589285D01*
X21925000Y-46589285D01*
X22032142Y-46625000D01*
X22067857Y-46660714D01*
X22782142Y-47339285D02*
X22353571Y-47339285D01*
X22567857Y-47339285D02*
X22567857Y-46589285D01*
X22496428Y-46696428D01*
X22425000Y-46767857D01*
X22353571Y-46803571D01*
X23246428Y-46589285D02*
X23317857Y-46589285D01*
X23389285Y-46625000D01*
X23425000Y-46660714D01*
X23460714Y-46732142D01*
X23496428Y-46875000D01*
X23496428Y-47053571D01*
X23460714Y-47196428D01*
X23425000Y-47267857D01*
X23389285Y-47303571D01*
X23317857Y-47339285D01*
X23246428Y-47339285D01*
X23175000Y-47303571D01*
X23139285Y-47267857D01*
X23103571Y-47196428D01*
X23067857Y-47053571D01*
X23067857Y-46875000D01*
X23103571Y-46732142D01*
X23139285Y-46660714D01*
X23175000Y-46625000D01*
X23246428Y-46589285D01*
%TO.C,D1*%
X54046428Y-17339285D02*
X54046428Y-16589285D01*
X54225000Y-16589285D01*
X54332142Y-16625000D01*
X54403571Y-16696428D01*
X54439285Y-16767857D01*
X54475000Y-16910714D01*
X54475000Y-17017857D01*
X54439285Y-17160714D01*
X54403571Y-17232142D01*
X54332142Y-17303571D01*
X54225000Y-17339285D01*
X54046428Y-17339285D01*
X55189285Y-17339285D02*
X54760714Y-17339285D01*
X54975000Y-17339285D02*
X54975000Y-16589285D01*
X54903571Y-16696428D01*
X54832142Y-16767857D01*
X54760714Y-16803571D01*
%TO.C,H2*%
D11*
X42088095Y-35952380D02*
X42088095Y-34952380D01*
X42088095Y-35428571D02*
X42659523Y-35428571D01*
X42659523Y-35952380D02*
X42659523Y-34952380D01*
X43088095Y-35047619D02*
X43135714Y-35000000D01*
X43230952Y-34952380D01*
X43469047Y-34952380D01*
X43564285Y-35000000D01*
X43611904Y-35047619D01*
X43659523Y-35142857D01*
X43659523Y-35238095D01*
X43611904Y-35380952D01*
X43040476Y-35952380D01*
X43659523Y-35952380D01*
%TO.C,R4*%
D10*
X30689285Y-20775000D02*
X30332142Y-21025000D01*
X30689285Y-21203571D02*
X29939285Y-21203571D01*
X29939285Y-20917857D01*
X29975000Y-20846428D01*
X30010714Y-20810714D01*
X30082142Y-20775000D01*
X30189285Y-20775000D01*
X30260714Y-20810714D01*
X30296428Y-20846428D01*
X30332142Y-20917857D01*
X30332142Y-21203571D01*
X30189285Y-20132142D02*
X30689285Y-20132142D01*
X29903571Y-20310714D02*
X30439285Y-20489285D01*
X30439285Y-20025000D01*
%TO.C,D2*%
X30639285Y-30003571D02*
X29889285Y-30003571D01*
X29889285Y-29825000D01*
X29925000Y-29717857D01*
X29996428Y-29646428D01*
X30067857Y-29610714D01*
X30210714Y-29575000D01*
X30317857Y-29575000D01*
X30460714Y-29610714D01*
X30532142Y-29646428D01*
X30603571Y-29717857D01*
X30639285Y-29825000D01*
X30639285Y-30003571D01*
X29960714Y-29289285D02*
X29925000Y-29253571D01*
X29889285Y-29182142D01*
X29889285Y-29003571D01*
X29925000Y-28932142D01*
X29960714Y-28896428D01*
X30032142Y-28860714D01*
X30103571Y-28860714D01*
X30210714Y-28896428D01*
X30639285Y-29325000D01*
X30639285Y-28860714D01*
%TO.C,C3*%
X38175000Y-22867857D02*
X38139285Y-22903571D01*
X38032142Y-22939285D01*
X37960714Y-22939285D01*
X37853571Y-22903571D01*
X37782142Y-22832142D01*
X37746428Y-22760714D01*
X37710714Y-22617857D01*
X37710714Y-22510714D01*
X37746428Y-22367857D01*
X37782142Y-22296428D01*
X37853571Y-22225000D01*
X37960714Y-22189285D01*
X38032142Y-22189285D01*
X38139285Y-22225000D01*
X38175000Y-22260714D01*
X38425000Y-22189285D02*
X38889285Y-22189285D01*
X38639285Y-22475000D01*
X38746428Y-22475000D01*
X38817857Y-22510714D01*
X38853571Y-22546428D01*
X38889285Y-22617857D01*
X38889285Y-22796428D01*
X38853571Y-22867857D01*
X38817857Y-22903571D01*
X38746428Y-22939285D01*
X38532142Y-22939285D01*
X38460714Y-22903571D01*
X38425000Y-22867857D01*
%TO.C,C1*%
X44567857Y-26425000D02*
X44603571Y-26460714D01*
X44639285Y-26567857D01*
X44639285Y-26639285D01*
X44603571Y-26746428D01*
X44532142Y-26817857D01*
X44460714Y-26853571D01*
X44317857Y-26889285D01*
X44210714Y-26889285D01*
X44067857Y-26853571D01*
X43996428Y-26817857D01*
X43925000Y-26746428D01*
X43889285Y-26639285D01*
X43889285Y-26567857D01*
X43925000Y-26460714D01*
X43960714Y-26425000D01*
X44639285Y-25710714D02*
X44639285Y-26139285D01*
X44639285Y-25925000D02*
X43889285Y-25925000D01*
X43996428Y-25996428D01*
X44067857Y-26067857D01*
X44103571Y-26139285D01*
%TO.C,12V*%
X54489285Y-36364285D02*
X54489285Y-36792857D01*
X54489285Y-36578571D02*
X53739285Y-36578571D01*
X53846428Y-36650000D01*
X53917857Y-36721428D01*
X53953571Y-36792857D01*
X53810714Y-36078571D02*
X53775000Y-36042857D01*
X53739285Y-35971428D01*
X53739285Y-35792857D01*
X53775000Y-35721428D01*
X53810714Y-35685714D01*
X53882142Y-35650000D01*
X53953571Y-35650000D01*
X54060714Y-35685714D01*
X54489285Y-36114285D01*
X54489285Y-35650000D01*
X53739285Y-35435714D02*
X54489285Y-35185714D01*
X53739285Y-34935714D01*
%TO.C,R6*%
X77339285Y-40975000D02*
X76982142Y-41225000D01*
X77339285Y-41403571D02*
X76589285Y-41403571D01*
X76589285Y-41117857D01*
X76625000Y-41046428D01*
X76660714Y-41010714D01*
X76732142Y-40975000D01*
X76839285Y-40975000D01*
X76910714Y-41010714D01*
X76946428Y-41046428D01*
X76982142Y-41117857D01*
X76982142Y-41403571D01*
X76589285Y-40332142D02*
X76589285Y-40475000D01*
X76625000Y-40546428D01*
X76660714Y-40582142D01*
X76767857Y-40653571D01*
X76910714Y-40689285D01*
X77196428Y-40689285D01*
X77267857Y-40653571D01*
X77303571Y-40617857D01*
X77339285Y-40546428D01*
X77339285Y-40403571D01*
X77303571Y-40332142D01*
X77267857Y-40296428D01*
X77196428Y-40260714D01*
X77017857Y-40260714D01*
X76946428Y-40296428D01*
X76910714Y-40332142D01*
X76875000Y-40403571D01*
X76875000Y-40546428D01*
X76910714Y-40617857D01*
X76946428Y-40653571D01*
X77017857Y-40689285D01*
%TO.C,R5*%
X77039285Y-50375000D02*
X76682142Y-50625000D01*
X77039285Y-50803571D02*
X76289285Y-50803571D01*
X76289285Y-50517857D01*
X76325000Y-50446428D01*
X76360714Y-50410714D01*
X76432142Y-50375000D01*
X76539285Y-50375000D01*
X76610714Y-50410714D01*
X76646428Y-50446428D01*
X76682142Y-50517857D01*
X76682142Y-50803571D01*
X76289285Y-49696428D02*
X76289285Y-50053571D01*
X76646428Y-50089285D01*
X76610714Y-50053571D01*
X76575000Y-49982142D01*
X76575000Y-49803571D01*
X76610714Y-49732142D01*
X76646428Y-49696428D01*
X76717857Y-49660714D01*
X76896428Y-49660714D01*
X76967857Y-49696428D01*
X77003571Y-49732142D01*
X77039285Y-49803571D01*
X77039285Y-49982142D01*
X77003571Y-50053571D01*
X76967857Y-50089285D01*
%TO.C,R2*%
X53689285Y-23075000D02*
X53332142Y-23325000D01*
X53689285Y-23503571D02*
X52939285Y-23503571D01*
X52939285Y-23217857D01*
X52975000Y-23146428D01*
X53010714Y-23110714D01*
X53082142Y-23075000D01*
X53189285Y-23075000D01*
X53260714Y-23110714D01*
X53296428Y-23146428D01*
X53332142Y-23217857D01*
X53332142Y-23503571D01*
X53010714Y-22789285D02*
X52975000Y-22753571D01*
X52939285Y-22682142D01*
X52939285Y-22503571D01*
X52975000Y-22432142D01*
X53010714Y-22396428D01*
X53082142Y-22360714D01*
X53153571Y-22360714D01*
X53260714Y-22396428D01*
X53689285Y-22825000D01*
X53689285Y-22360714D01*
%TO.C,R1*%
D12*
X44275000Y-31189285D02*
X44025000Y-30832142D01*
X43846428Y-31189285D02*
X43846428Y-30439285D01*
X44132142Y-30439285D01*
X44203571Y-30475000D01*
X44239285Y-30510714D01*
X44275000Y-30582142D01*
X44275000Y-30689285D01*
X44239285Y-30760714D01*
X44203571Y-30796428D01*
X44132142Y-30832142D01*
X43846428Y-30832142D01*
X44989285Y-31189285D02*
X44560714Y-31189285D01*
X44775000Y-31189285D02*
X44775000Y-30439285D01*
X44703571Y-30546428D01*
X44632142Y-30617857D01*
X44560714Y-30653571D01*
%TO.C,C8*%
D10*
X60375000Y-20367857D02*
X60339285Y-20403571D01*
X60232142Y-20439285D01*
X60160714Y-20439285D01*
X60053571Y-20403571D01*
X59982142Y-20332142D01*
X59946428Y-20260714D01*
X59910714Y-20117857D01*
X59910714Y-20010714D01*
X59946428Y-19867857D01*
X59982142Y-19796428D01*
X60053571Y-19725000D01*
X60160714Y-19689285D01*
X60232142Y-19689285D01*
X60339285Y-19725000D01*
X60375000Y-19760714D01*
X60803571Y-20010714D02*
X60732142Y-19975000D01*
X60696428Y-19939285D01*
X60660714Y-19867857D01*
X60660714Y-19832142D01*
X60696428Y-19760714D01*
X60732142Y-19725000D01*
X60803571Y-19689285D01*
X60946428Y-19689285D01*
X61017857Y-19725000D01*
X61053571Y-19760714D01*
X61089285Y-19832142D01*
X61089285Y-19867857D01*
X61053571Y-19939285D01*
X61017857Y-19975000D01*
X60946428Y-20010714D01*
X60803571Y-20010714D01*
X60732142Y-20046428D01*
X60696428Y-20082142D01*
X60660714Y-20153571D01*
X60660714Y-20296428D01*
X60696428Y-20367857D01*
X60732142Y-20403571D01*
X60803571Y-20439285D01*
X60946428Y-20439285D01*
X61017857Y-20403571D01*
X61053571Y-20367857D01*
X61089285Y-20296428D01*
X61089285Y-20153571D01*
X61053571Y-20082142D01*
X61017857Y-20046428D01*
X60946428Y-20010714D01*
%TO.C,C7*%
X54767857Y-23075000D02*
X54803571Y-23110714D01*
X54839285Y-23217857D01*
X54839285Y-23289285D01*
X54803571Y-23396428D01*
X54732142Y-23467857D01*
X54660714Y-23503571D01*
X54517857Y-23539285D01*
X54410714Y-23539285D01*
X54267857Y-23503571D01*
X54196428Y-23467857D01*
X54125000Y-23396428D01*
X54089285Y-23289285D01*
X54089285Y-23217857D01*
X54125000Y-23110714D01*
X54160714Y-23075000D01*
X54089285Y-22825000D02*
X54089285Y-22325000D01*
X54839285Y-22646428D01*
%TO.C,C6*%
X54767857Y-29425000D02*
X54803571Y-29460714D01*
X54839285Y-29567857D01*
X54839285Y-29639285D01*
X54803571Y-29746428D01*
X54732142Y-29817857D01*
X54660714Y-29853571D01*
X54517857Y-29889285D01*
X54410714Y-29889285D01*
X54267857Y-29853571D01*
X54196428Y-29817857D01*
X54125000Y-29746428D01*
X54089285Y-29639285D01*
X54089285Y-29567857D01*
X54125000Y-29460714D01*
X54160714Y-29425000D01*
X54089285Y-28782142D02*
X54089285Y-28925000D01*
X54125000Y-28996428D01*
X54160714Y-29032142D01*
X54267857Y-29103571D01*
X54410714Y-29139285D01*
X54696428Y-29139285D01*
X54767857Y-29103571D01*
X54803571Y-29067857D01*
X54839285Y-28996428D01*
X54839285Y-28853571D01*
X54803571Y-28782142D01*
X54767857Y-28746428D01*
X54696428Y-28710714D01*
X54517857Y-28710714D01*
X54446428Y-28746428D01*
X54410714Y-28782142D01*
X54375000Y-28853571D01*
X54375000Y-28996428D01*
X54410714Y-29067857D01*
X54446428Y-29103571D01*
X54517857Y-29139285D01*
%TO.C,C5*%
X41425000Y-26917857D02*
X41389285Y-26953571D01*
X41282142Y-26989285D01*
X41210714Y-26989285D01*
X41103571Y-26953571D01*
X41032142Y-26882142D01*
X40996428Y-26810714D01*
X40960714Y-26667857D01*
X40960714Y-26560714D01*
X40996428Y-26417857D01*
X41032142Y-26346428D01*
X41103571Y-26275000D01*
X41210714Y-26239285D01*
X41282142Y-26239285D01*
X41389285Y-26275000D01*
X41425000Y-26310714D01*
X42103571Y-26239285D02*
X41746428Y-26239285D01*
X41710714Y-26596428D01*
X41746428Y-26560714D01*
X41817857Y-26525000D01*
X41996428Y-26525000D01*
X42067857Y-26560714D01*
X42103571Y-26596428D01*
X42139285Y-26667857D01*
X42139285Y-26846428D01*
X42103571Y-26917857D01*
X42067857Y-26953571D01*
X41996428Y-26989285D01*
X41817857Y-26989285D01*
X41746428Y-26953571D01*
X41710714Y-26917857D01*
%TO.C,C4*%
D12*
X41425000Y-31117857D02*
X41389285Y-31153571D01*
X41282142Y-31189285D01*
X41210714Y-31189285D01*
X41103571Y-31153571D01*
X41032142Y-31082142D01*
X40996428Y-31010714D01*
X40960714Y-30867857D01*
X40960714Y-30760714D01*
X40996428Y-30617857D01*
X41032142Y-30546428D01*
X41103571Y-30475000D01*
X41210714Y-30439285D01*
X41282142Y-30439285D01*
X41389285Y-30475000D01*
X41425000Y-30510714D01*
X42067857Y-30689285D02*
X42067857Y-31189285D01*
X41889285Y-30403571D02*
X41710714Y-30939285D01*
X42175000Y-30939285D01*
%TO.C,C2*%
X42667857Y-20825000D02*
X42703571Y-20860714D01*
X42739285Y-20967857D01*
X42739285Y-21039285D01*
X42703571Y-21146428D01*
X42632142Y-21217857D01*
X42560714Y-21253571D01*
X42417857Y-21289285D01*
X42310714Y-21289285D01*
X42167857Y-21253571D01*
X42096428Y-21217857D01*
X42025000Y-21146428D01*
X41989285Y-21039285D01*
X41989285Y-20967857D01*
X42025000Y-20860714D01*
X42060714Y-20825000D01*
X42060714Y-20539285D02*
X42025000Y-20503571D01*
X41989285Y-20432142D01*
X41989285Y-20253571D01*
X42025000Y-20182142D01*
X42060714Y-20146428D01*
X42132142Y-20110714D01*
X42203571Y-20110714D01*
X42310714Y-20146428D01*
X42739285Y-20575000D01*
X42739285Y-20110714D01*
%TD*%
M02*
