%TF.GenerationSoftware,KiCad,Pcbnew,(6.0.6-0)*%
%TF.CreationDate,2022-07-30T19:28:33+02:00*%
%TF.ProjectId,smoke_extractorV1_1,736d6f6b-655f-4657-9874-726163746f72,rev?*%
%TF.SameCoordinates,Original*%
%TF.FileFunction,Paste,Top*%
%TF.FilePolarity,Positive*%
%FSLAX46Y46*%
G04 Gerber Fmt 4.6, Leading zero omitted, Abs format (unit mm)*
G04 Created by KiCad (PCBNEW (6.0.6-0)) date 2022-07-30 19:28:33*
%MOMM*%
%LPD*%
G01*
G04 APERTURE LIST*
G04 Aperture macros list*
%AMRoundRect*
0 Rectangle with rounded corners*
0 $1 Rounding radius*
0 $2 $3 $4 $5 $6 $7 $8 $9 X,Y pos of 4 corners*
0 Add a 4 corners polygon primitive as box body*
4,1,4,$2,$3,$4,$5,$6,$7,$8,$9,$2,$3,0*
0 Add four circle primitives for the rounded corners*
1,1,$1+$1,$2,$3*
1,1,$1+$1,$4,$5*
1,1,$1+$1,$6,$7*
1,1,$1+$1,$8,$9*
0 Add four rect primitives between the rounded corners*
20,1,$1+$1,$2,$3,$4,$5,0*
20,1,$1+$1,$4,$5,$6,$7,0*
20,1,$1+$1,$6,$7,$8,$9,0*
20,1,$1+$1,$8,$9,$2,$3,0*%
G04 Aperture macros list end*
%ADD10R,0.400000X1.500000*%
%ADD11RoundRect,0.237500X-0.250000X-0.237500X0.250000X-0.237500X0.250000X0.237500X-0.250000X0.237500X0*%
%ADD12RoundRect,0.237500X0.300000X0.237500X-0.300000X0.237500X-0.300000X-0.237500X0.300000X-0.237500X0*%
%ADD13R,0.600000X0.700000*%
%ADD14RoundRect,0.237500X-0.237500X0.250000X-0.237500X-0.250000X0.237500X-0.250000X0.237500X0.250000X0*%
%ADD15RoundRect,0.237500X0.250000X0.237500X-0.250000X0.237500X-0.250000X-0.237500X0.250000X-0.237500X0*%
%ADD16RoundRect,0.250000X-0.475000X0.337500X-0.475000X-0.337500X0.475000X-0.337500X0.475000X0.337500X0*%
%ADD17RoundRect,0.237500X0.237500X-0.250000X0.237500X0.250000X-0.237500X0.250000X-0.237500X-0.250000X0*%
%ADD18RoundRect,0.100000X-0.712500X-0.100000X0.712500X-0.100000X0.712500X0.100000X-0.712500X0.100000X0*%
%ADD19RoundRect,0.237500X-0.300000X-0.237500X0.300000X-0.237500X0.300000X0.237500X-0.300000X0.237500X0*%
%ADD20RoundRect,0.250001X-0.462499X-0.849999X0.462499X-0.849999X0.462499X0.849999X-0.462499X0.849999X0*%
%ADD21R,0.300000X0.870000*%
%ADD22RoundRect,0.237500X0.287500X0.237500X-0.287500X0.237500X-0.287500X-0.237500X0.287500X-0.237500X0*%
%ADD23R,1.500000X0.400000*%
%ADD24R,1.200000X1.200000*%
%ADD25RoundRect,0.150000X-0.150000X0.587500X-0.150000X-0.587500X0.150000X-0.587500X0.150000X0.587500X0*%
G04 APERTURE END LIST*
D10*
%TO.C,U4*%
X125600000Y-119780000D03*
X126250000Y-119780000D03*
X126900000Y-119780000D03*
X126900000Y-117120000D03*
X125600000Y-117120000D03*
%TD*%
D11*
%TO.C,R15*%
X118568701Y-97362500D03*
X120393701Y-97362500D03*
%TD*%
D12*
%TO.C,C4*%
X120343701Y-99462500D03*
X118618701Y-99462500D03*
%TD*%
D11*
%TO.C,R9*%
X107912500Y-113050000D03*
X106087500Y-113050000D03*
%TD*%
D13*
%TO.C,D2*%
X109850000Y-112750000D03*
X111250000Y-112750000D03*
%TD*%
D14*
%TO.C,R13*%
X115869531Y-109325000D03*
X115869531Y-111150000D03*
%TD*%
D15*
%TO.C,R17*%
X131979540Y-105651654D03*
X130154540Y-105651654D03*
%TD*%
D16*
%TO.C,C5*%
X130000000Y-101079091D03*
X130000000Y-103154091D03*
%TD*%
D11*
%TO.C,R3*%
X117087500Y-121200000D03*
X118912500Y-121200000D03*
%TD*%
D17*
%TO.C,R18*%
X123600000Y-119112500D03*
X123600000Y-117287500D03*
%TD*%
%TO.C,R6*%
X121250000Y-119112500D03*
X121250000Y-117287500D03*
%TD*%
D18*
%TO.C,U3*%
X122581201Y-101566591D03*
X122581201Y-102216591D03*
X122581201Y-102866591D03*
X122581201Y-103516591D03*
X126806201Y-103516591D03*
X126806201Y-102866591D03*
X126806201Y-102216591D03*
X126806201Y-101566591D03*
%TD*%
D17*
%TO.C,R5*%
X113750000Y-117862500D03*
X113750000Y-116037500D03*
%TD*%
D19*
%TO.C,C6*%
X121237500Y-115400000D03*
X122962500Y-115400000D03*
%TD*%
D20*
%TO.C,L1*%
X122668701Y-98616591D03*
X124993701Y-98616591D03*
%TD*%
D11*
%TO.C,R10*%
X106087500Y-111150000D03*
X107912500Y-111150000D03*
%TD*%
D13*
%TO.C,D3*%
X109850000Y-111000000D03*
X111250000Y-111000000D03*
%TD*%
D21*
%TO.C,J1*%
X109750000Y-118000000D03*
X108250000Y-118000000D03*
X107750000Y-118000000D03*
X107250000Y-118000000D03*
X106750000Y-118000000D03*
X106250000Y-118000000D03*
X105750000Y-118000000D03*
X104250000Y-118000000D03*
X104250000Y-119800000D03*
X105750000Y-119800000D03*
X106250000Y-119800000D03*
X106750000Y-119800000D03*
X107250000Y-119800000D03*
X107750000Y-119800000D03*
X108250000Y-119800000D03*
X109750000Y-119800000D03*
%TD*%
D22*
%TO.C,D4*%
X117656201Y-105512500D03*
X115906201Y-105512500D03*
%TD*%
D16*
%TO.C,C2*%
X120098241Y-103330745D03*
X120098241Y-105405745D03*
%TD*%
D17*
%TO.C,R2*%
X100250000Y-121412500D03*
X100250000Y-119587500D03*
%TD*%
D12*
%TO.C,C7*%
X120462500Y-109487500D03*
X118737500Y-109487500D03*
%TD*%
%TO.C,C3*%
X124210741Y-105618245D03*
X122485741Y-105618245D03*
%TD*%
D14*
%TO.C,R16*%
X132250000Y-101187500D03*
X132250000Y-103012500D03*
%TD*%
D23*
%TO.C,U5*%
X118289531Y-111587500D03*
X118289531Y-112237500D03*
X118289531Y-112887500D03*
X120949531Y-112887500D03*
X120949531Y-111587500D03*
%TD*%
D17*
%TO.C,R19*%
X123369531Y-112900000D03*
X123369531Y-111075000D03*
%TD*%
D24*
%TO.C,D5*%
X130481201Y-98616591D03*
X127681201Y-98616591D03*
%TD*%
D11*
%TO.C,R8*%
X94587500Y-114000000D03*
X96412500Y-114000000D03*
%TD*%
D14*
%TO.C,R7*%
X98300000Y-113987500D03*
X98300000Y-115812500D03*
%TD*%
D23*
%TO.C,U1*%
X116170000Y-117800000D03*
X116170000Y-118450000D03*
X116170000Y-119100000D03*
X118830000Y-119100000D03*
X118830000Y-117800000D03*
%TD*%
D12*
%TO.C,C1*%
X118362500Y-115700000D03*
X116637500Y-115700000D03*
%TD*%
D11*
%TO.C,R4*%
X113337500Y-121200000D03*
X115162500Y-121200000D03*
%TD*%
D14*
%TO.C,R12*%
X115831201Y-101437500D03*
X115831201Y-103262500D03*
%TD*%
D13*
%TO.C,D1*%
X109850000Y-114450000D03*
X111250000Y-114450000D03*
%TD*%
D25*
%TO.C,Q1*%
X103950000Y-111412500D03*
X102050000Y-111412500D03*
X103000000Y-113287500D03*
%TD*%
D14*
%TO.C,R14*%
X117831201Y-101437500D03*
X117831201Y-103262500D03*
%TD*%
D17*
%TO.C,R1*%
X100250000Y-117662500D03*
X100250000Y-115837500D03*
%TD*%
D15*
%TO.C,R11*%
X123187500Y-121200000D03*
X121362500Y-121200000D03*
%TD*%
M02*
