%TF.GenerationSoftware,KiCad,Pcbnew,(6.0.6-0)*%
%TF.CreationDate,2022-07-30T19:28:33+02:00*%
%TF.ProjectId,smoke_extractorV1_1,736d6f6b-655f-4657-9874-726163746f72,rev?*%
%TF.SameCoordinates,Original*%
%TF.FileFunction,Legend,Bot*%
%TF.FilePolarity,Positive*%
%FSLAX46Y46*%
G04 Gerber Fmt 4.6, Leading zero omitted, Abs format (unit mm)*
G04 Created by KiCad (PCBNEW (6.0.6-0)) date 2022-07-30 19:28:33*
%MOMM*%
%LPD*%
G01*
G04 APERTURE LIST*
%ADD10C,0.250000*%
G04 APERTURE END LIST*
D10*
X133589142Y-121351785D02*
X134789142Y-121351785D01*
X133589142Y-120666071D01*
X134789142Y-120666071D01*
X134389142Y-119580357D02*
X133589142Y-119580357D01*
X134389142Y-120094642D02*
X133760571Y-120094642D01*
X133646285Y-120037500D01*
X133589142Y-119923214D01*
X133589142Y-119751785D01*
X133646285Y-119637500D01*
X133703428Y-119580357D01*
X134389142Y-119008928D02*
X133589142Y-119008928D01*
X134274857Y-119008928D02*
X134332000Y-118951785D01*
X134389142Y-118837500D01*
X134389142Y-118666071D01*
X134332000Y-118551785D01*
X134217714Y-118494642D01*
X133589142Y-118494642D01*
X133589142Y-117751785D02*
X133646285Y-117866071D01*
X133703428Y-117923214D01*
X133817714Y-117980357D01*
X134160571Y-117980357D01*
X134274857Y-117923214D01*
X134332000Y-117866071D01*
X134389142Y-117751785D01*
X134389142Y-117580357D01*
X134332000Y-117466071D01*
X134274857Y-117408928D01*
X134160571Y-117351785D01*
X133817714Y-117351785D01*
X133703428Y-117408928D01*
X133646285Y-117466071D01*
X133589142Y-117580357D01*
X133589142Y-117751785D01*
X133589142Y-115923214D02*
X134789142Y-115923214D01*
X133589142Y-115237500D01*
X134789142Y-115237500D01*
X133589142Y-114494642D02*
X133646285Y-114608928D01*
X133703428Y-114666071D01*
X133817714Y-114723214D01*
X134160571Y-114723214D01*
X134274857Y-114666071D01*
X134332000Y-114608928D01*
X134389142Y-114494642D01*
X134389142Y-114323214D01*
X134332000Y-114208928D01*
X134274857Y-114151785D01*
X134160571Y-114094642D01*
X133817714Y-114094642D01*
X133703428Y-114151785D01*
X133646285Y-114208928D01*
X133589142Y-114323214D01*
X133589142Y-114494642D01*
X134389142Y-113066071D02*
X133417714Y-113066071D01*
X133303428Y-113123214D01*
X133246285Y-113180357D01*
X133189142Y-113294642D01*
X133189142Y-113466071D01*
X133246285Y-113580357D01*
X133646285Y-113066071D02*
X133589142Y-113180357D01*
X133589142Y-113408928D01*
X133646285Y-113523214D01*
X133703428Y-113580357D01*
X133817714Y-113637500D01*
X134160571Y-113637500D01*
X134274857Y-113580357D01*
X134332000Y-113523214D01*
X134389142Y-113408928D01*
X134389142Y-113180357D01*
X134332000Y-113066071D01*
X134389142Y-111980357D02*
X133589142Y-111980357D01*
X134389142Y-112494642D02*
X133760571Y-112494642D01*
X133646285Y-112437500D01*
X133589142Y-112323214D01*
X133589142Y-112151785D01*
X133646285Y-112037500D01*
X133703428Y-111980357D01*
X133646285Y-110951785D02*
X133589142Y-111066071D01*
X133589142Y-111294642D01*
X133646285Y-111408928D01*
X133760571Y-111466071D01*
X134217714Y-111466071D01*
X134332000Y-111408928D01*
X134389142Y-111294642D01*
X134389142Y-111066071D01*
X134332000Y-110951785D01*
X134217714Y-110894642D01*
X134103428Y-110894642D01*
X133989142Y-111466071D01*
X133589142Y-110380357D02*
X134389142Y-110380357D01*
X134789142Y-110380357D02*
X134732000Y-110437500D01*
X134674857Y-110380357D01*
X134732000Y-110323214D01*
X134789142Y-110380357D01*
X134674857Y-110380357D01*
X133589142Y-109808928D02*
X134389142Y-109808928D01*
X134160571Y-109808928D02*
X134274857Y-109751785D01*
X134332000Y-109694642D01*
X134389142Y-109580357D01*
X134389142Y-109466071D01*
X133589142Y-108551785D02*
X134217714Y-108551785D01*
X134332000Y-108608928D01*
X134389142Y-108723214D01*
X134389142Y-108951785D01*
X134332000Y-109066071D01*
X133646285Y-108551785D02*
X133589142Y-108666071D01*
X133589142Y-108951785D01*
X133646285Y-109066071D01*
X133760571Y-109123214D01*
X133874857Y-109123214D01*
X133989142Y-109066071D01*
X134046285Y-108951785D01*
X134046285Y-108666071D01*
X134103428Y-108551785D01*
X131714285Y-121408928D02*
X131657142Y-121237500D01*
X131657142Y-120951785D01*
X131714285Y-120837500D01*
X131771428Y-120780357D01*
X131885714Y-120723214D01*
X132000000Y-120723214D01*
X132114285Y-120780357D01*
X132171428Y-120837500D01*
X132228571Y-120951785D01*
X132285714Y-121180357D01*
X132342857Y-121294642D01*
X132400000Y-121351785D01*
X132514285Y-121408928D01*
X132628571Y-121408928D01*
X132742857Y-121351785D01*
X132800000Y-121294642D01*
X132857142Y-121180357D01*
X132857142Y-120894642D01*
X132800000Y-120723214D01*
X132457142Y-120380357D02*
X132457142Y-119923214D01*
X132857142Y-120208928D02*
X131828571Y-120208928D01*
X131714285Y-120151785D01*
X131657142Y-120037500D01*
X131657142Y-119923214D01*
X131657142Y-119351785D02*
X131714285Y-119466071D01*
X131771428Y-119523214D01*
X131885714Y-119580357D01*
X132228571Y-119580357D01*
X132342857Y-119523214D01*
X132400000Y-119466071D01*
X132457142Y-119351785D01*
X132457142Y-119180357D01*
X132400000Y-119066071D01*
X132342857Y-119008928D01*
X132228571Y-118951785D01*
X131885714Y-118951785D01*
X131771428Y-119008928D01*
X131714285Y-119066071D01*
X131657142Y-119180357D01*
X131657142Y-119351785D01*
X131714285Y-117923214D02*
X131657142Y-118037500D01*
X131657142Y-118266071D01*
X131714285Y-118380357D01*
X131771428Y-118437500D01*
X131885714Y-118494642D01*
X132228571Y-118494642D01*
X132342857Y-118437500D01*
X132400000Y-118380357D01*
X132457142Y-118266071D01*
X132457142Y-118037500D01*
X132400000Y-117923214D01*
X131657142Y-117408928D02*
X132857142Y-117408928D01*
X132114285Y-117294642D02*
X131657142Y-116951785D01*
X132457142Y-116951785D02*
X132000000Y-117408928D01*
X131657142Y-116437500D02*
X132857142Y-116437500D01*
X131657142Y-115923214D02*
X132285714Y-115923214D01*
X132400000Y-115980357D01*
X132457142Y-116094642D01*
X132457142Y-116266071D01*
X132400000Y-116380357D01*
X132342857Y-116437500D01*
X131657142Y-115180357D02*
X131714285Y-115294642D01*
X131771428Y-115351785D01*
X131885714Y-115408928D01*
X132228571Y-115408928D01*
X132342857Y-115351785D01*
X132400000Y-115294642D01*
X132457142Y-115180357D01*
X132457142Y-115008928D01*
X132400000Y-114894642D01*
X132342857Y-114837500D01*
X132228571Y-114780357D01*
X131885714Y-114780357D01*
X131771428Y-114837500D01*
X131714285Y-114894642D01*
X131657142Y-115008928D01*
X131657142Y-115180357D01*
X131657142Y-114094642D02*
X131714285Y-114208928D01*
X131828571Y-114266071D01*
X132857142Y-114266071D01*
X131657142Y-113637500D02*
X132457142Y-113637500D01*
X132342857Y-113637500D02*
X132400000Y-113580357D01*
X132457142Y-113466071D01*
X132457142Y-113294642D01*
X132400000Y-113180357D01*
X132285714Y-113123214D01*
X131657142Y-113123214D01*
X132285714Y-113123214D02*
X132400000Y-113066071D01*
X132457142Y-112951785D01*
X132457142Y-112780357D01*
X132400000Y-112666071D01*
X132285714Y-112608928D01*
X131657142Y-112608928D01*
X130925142Y-121008928D02*
X130068000Y-121008928D01*
X129896571Y-121066071D01*
X129782285Y-121180357D01*
X129725142Y-121351785D01*
X129725142Y-121466071D01*
X130525142Y-119923214D02*
X129725142Y-119923214D01*
X130525142Y-120437500D02*
X129896571Y-120437500D01*
X129782285Y-120380357D01*
X129725142Y-120266071D01*
X129725142Y-120094642D01*
X129782285Y-119980357D01*
X129839428Y-119923214D01*
X129725142Y-119180357D02*
X129782285Y-119294642D01*
X129896571Y-119351785D01*
X130925142Y-119351785D01*
X130525142Y-118837500D02*
X129725142Y-118551785D01*
X130525142Y-118266071D02*
X129725142Y-118551785D01*
X129439428Y-118666071D01*
X129382285Y-118723214D01*
X129325142Y-118837500D01*
X130810857Y-116951785D02*
X130868000Y-116894642D01*
X130925142Y-116780357D01*
X130925142Y-116494642D01*
X130868000Y-116380357D01*
X130810857Y-116323214D01*
X130696571Y-116266071D01*
X130582285Y-116266071D01*
X130410857Y-116323214D01*
X129725142Y-117008928D01*
X129725142Y-116266071D01*
X130925142Y-115523214D02*
X130925142Y-115408928D01*
X130868000Y-115294642D01*
X130810857Y-115237500D01*
X130696571Y-115180357D01*
X130468000Y-115123214D01*
X130182285Y-115123214D01*
X129953714Y-115180357D01*
X129839428Y-115237500D01*
X129782285Y-115294642D01*
X129725142Y-115408928D01*
X129725142Y-115523214D01*
X129782285Y-115637500D01*
X129839428Y-115694642D01*
X129953714Y-115751785D01*
X130182285Y-115808928D01*
X130468000Y-115808928D01*
X130696571Y-115751785D01*
X130810857Y-115694642D01*
X130868000Y-115637500D01*
X130925142Y-115523214D01*
X130810857Y-114666071D02*
X130868000Y-114608928D01*
X130925142Y-114494642D01*
X130925142Y-114208928D01*
X130868000Y-114094642D01*
X130810857Y-114037500D01*
X130696571Y-113980357D01*
X130582285Y-113980357D01*
X130410857Y-114037500D01*
X129725142Y-114723214D01*
X129725142Y-113980357D01*
X130810857Y-113523214D02*
X130868000Y-113466071D01*
X130925142Y-113351785D01*
X130925142Y-113066071D01*
X130868000Y-112951785D01*
X130810857Y-112894642D01*
X130696571Y-112837500D01*
X130582285Y-112837500D01*
X130410857Y-112894642D01*
X129725142Y-113580357D01*
X129725142Y-112837500D01*
M02*
