%TF.GenerationSoftware,KiCad,Pcbnew,(6.0.4-0)*%
%TF.CreationDate,2022-09-29T18:28:13+01:00*%
%TF.ProjectId,smoke_extractorV1_1,736d6f6b-655f-4657-9874-726163746f72,rev?*%
%TF.SameCoordinates,Original*%
%TF.FileFunction,Copper,L2,Bot*%
%TF.FilePolarity,Positive*%
%FSLAX46Y46*%
G04 Gerber Fmt 4.6, Leading zero omitted, Abs format (unit mm)*
G04 Created by KiCad (PCBNEW (6.0.4-0)) date 2022-09-29 18:28:13*
%MOMM*%
%LPD*%
G01*
G04 APERTURE LIST*
G04 Aperture macros list*
%AMFreePoly0*
4,1,5,3.500000,-1.500000,-3.500000,-1.500000,-3.500000,1.500000,3.500000,1.500000,3.500000,-1.500000,3.500000,-1.500000,$1*%
G04 Aperture macros list end*
%TA.AperFunction,ComponentPad*%
%ADD10C,5.700000*%
%TD*%
%TA.AperFunction,ComponentPad*%
%ADD11R,3.000000X3.000000*%
%TD*%
%TA.AperFunction,ComponentPad*%
%ADD12C,3.000000*%
%TD*%
%TA.AperFunction,ComponentPad*%
%ADD13FreePoly0,270.000000*%
%TD*%
%TA.AperFunction,ComponentPad*%
%ADD14O,1.500000X1.200000*%
%TD*%
%TA.AperFunction,ViaPad*%
%ADD15C,0.600000*%
%TD*%
%TA.AperFunction,Conductor*%
%ADD16C,0.250000*%
%TD*%
%TA.AperFunction,Conductor*%
%ADD17C,0.200000*%
%TD*%
G04 APERTURE END LIST*
D10*
%TO.P,H2,1,1*%
%TO.N,GND*%
X142750000Y-99500000D03*
%TD*%
D11*
%TO.P,J2,1,Pin_1*%
%TO.N,VBOOST_OUT*%
X141500000Y-106960000D03*
D12*
%TO.P,J2,2,Pin_2*%
%TO.N,VBUS_DRAIN*%
X141500000Y-112040000D03*
%TD*%
D10*
%TO.P,H1,1,1*%
%TO.N,GND*%
X95750000Y-119500000D03*
%TD*%
D13*
%TO.P,U2,1,IN*%
%TO.N,VBUS_OPEN*%
X97195000Y-103095000D03*
%TO.P,U2,2,OUT*%
%TO.N,VBUS_SWITCH*%
X104195000Y-103095000D03*
%TD*%
D14*
%TO.P,J1,S1,SHIELD*%
%TO.N,GND*%
X109400000Y-121050000D03*
X109400000Y-116750000D03*
X104600000Y-121050000D03*
X104600000Y-116750000D03*
%TD*%
D10*
%TO.P,H3,1,1*%
%TO.N,GND*%
X142750000Y-119500000D03*
%TD*%
D15*
%TO.N,GND*%
X128000000Y-112000000D03*
X98500000Y-97500000D03*
X105500000Y-97500000D03*
X126000000Y-108000000D03*
X96500000Y-97500000D03*
X127000000Y-112000000D03*
X137500000Y-98500000D03*
X136500000Y-98500000D03*
X106500000Y-97500000D03*
X128000000Y-109000000D03*
X99500000Y-98500000D03*
X101500000Y-98500000D03*
X137500000Y-101500000D03*
X105500000Y-98500000D03*
X129000000Y-114000000D03*
X138500000Y-102500000D03*
X107500000Y-105500000D03*
X103500000Y-97500000D03*
X107500000Y-103500000D03*
X111500000Y-103500000D03*
X110500000Y-103500000D03*
X129000000Y-110000000D03*
X137500000Y-97500000D03*
X108500000Y-103500000D03*
X126000000Y-110000000D03*
X103500000Y-98500000D03*
X139500000Y-102500000D03*
X136500000Y-114000000D03*
X108500000Y-104500000D03*
X127000000Y-109000000D03*
X139500000Y-103500000D03*
X95000000Y-111600000D03*
X128000000Y-110000000D03*
X127000000Y-114000000D03*
X129000000Y-111000000D03*
X100500000Y-98500000D03*
X134500000Y-97500000D03*
X127000000Y-113000000D03*
X107500000Y-98500000D03*
X108500000Y-105500000D03*
X99500000Y-97500000D03*
X95000000Y-110600000D03*
X102500000Y-97500000D03*
X95500000Y-97500000D03*
X96500000Y-98500000D03*
X101500000Y-97500000D03*
X104500000Y-97500000D03*
X138500000Y-97500000D03*
X111500000Y-105500000D03*
X128000000Y-113000000D03*
X139500000Y-101500000D03*
X106500000Y-98500000D03*
X108500000Y-99500000D03*
X135500000Y-113000000D03*
X102500000Y-98500000D03*
X112500000Y-119000000D03*
X111500000Y-104500000D03*
X129000000Y-108000000D03*
X135500000Y-97500000D03*
X135500000Y-114000000D03*
X137500000Y-99500000D03*
X109500000Y-99500000D03*
X129000000Y-109000000D03*
X127000000Y-110000000D03*
X109500000Y-104500000D03*
X104500000Y-98500000D03*
X107500000Y-97500000D03*
X97500000Y-98500000D03*
X109500000Y-105500000D03*
X126000000Y-114000000D03*
X109500000Y-106500000D03*
X100500000Y-97500000D03*
X126000000Y-111000000D03*
X126000000Y-113000000D03*
X109500000Y-103500000D03*
X111500000Y-106500000D03*
X112500000Y-118000000D03*
X110500000Y-104500000D03*
X138500000Y-98500000D03*
X94000000Y-111600000D03*
X128000000Y-114000000D03*
X126000000Y-112000000D03*
X109500000Y-98500000D03*
X138500000Y-100500000D03*
X110500000Y-97500000D03*
X108500000Y-97500000D03*
X97500000Y-97500000D03*
X127000000Y-108000000D03*
X109500000Y-97500000D03*
X107500000Y-104500000D03*
X110500000Y-98500000D03*
X110500000Y-99500000D03*
X112500000Y-103500000D03*
X128000000Y-108000000D03*
X107500000Y-106500000D03*
X108500000Y-98500000D03*
X95500000Y-98500000D03*
X138500000Y-99500000D03*
X128000000Y-111000000D03*
X122500000Y-120000000D03*
X108500000Y-106500000D03*
X126000000Y-109000000D03*
X94000000Y-110600000D03*
X112500000Y-104500000D03*
X136500000Y-113000000D03*
X136500000Y-99500000D03*
X112500000Y-106500000D03*
X110500000Y-105500000D03*
X112500000Y-105500000D03*
X110500000Y-106500000D03*
X137500000Y-100500000D03*
X129000000Y-112000000D03*
X138500000Y-101500000D03*
X136500000Y-97500000D03*
X127000000Y-111000000D03*
X107500000Y-99500000D03*
X135500000Y-98500000D03*
X129000000Y-113000000D03*
X98500000Y-98500000D03*
%TO.N,Net-(C3-Pad1)*%
X126800000Y-100700000D03*
X125481201Y-105612500D03*
%TO.N,CHG_DET*%
X112600000Y-113550000D03*
X120100000Y-120200000D03*
%TO.N,CC1_DET*%
X112600000Y-112750000D03*
X126300000Y-115750000D03*
X124200000Y-120400000D03*
%TO.N,CC2_DET*%
X112550000Y-111000000D03*
X120950000Y-113987500D03*
%TO.N,D-*%
X106250000Y-121450000D03*
X108000000Y-116350000D03*
%TO.N,VBUS_OPEN*%
X111250000Y-116750000D03*
X106300000Y-116000000D03*
X115000000Y-116750000D03*
%TO.N,V_CC_REF*%
X126900000Y-118500000D03*
X96600000Y-113600000D03*
X116650000Y-112887500D03*
%TO.N,Net-(R16-Pad2)*%
X120650000Y-101850000D03*
X132050000Y-104250000D03*
%TO.N,VBUS_DRAIN*%
X129700000Y-106900000D03*
X126100000Y-106900000D03*
X124300000Y-106900000D03*
X130600000Y-106900000D03*
X125200000Y-106900000D03*
X131500000Y-106900000D03*
X118900000Y-106900000D03*
X119700000Y-98200000D03*
X123400000Y-106900000D03*
X127900000Y-106900000D03*
X117100000Y-106900000D03*
X119700000Y-97300000D03*
X121600000Y-106900000D03*
X116200000Y-106900000D03*
X118000000Y-106900000D03*
X120700000Y-106900000D03*
X120600000Y-97300000D03*
X115300000Y-106900000D03*
X122500000Y-106900000D03*
X119800000Y-106900000D03*
X120600000Y-98200000D03*
X128800000Y-106900000D03*
X127000000Y-106900000D03*
X132400000Y-106900000D03*
%TD*%
D16*
%TO.N,Net-(C3-Pad1)*%
X126800000Y-104300000D02*
X125500000Y-105600000D01*
X126800000Y-100700000D02*
X126800000Y-104300000D01*
%TO.N,CHG_DET*%
X113900000Y-113550000D02*
X112600000Y-113550000D01*
X113970710Y-113550000D02*
X113900000Y-113550000D01*
X120100000Y-119679290D02*
X113970710Y-113550000D01*
X120100000Y-120200000D02*
X120100000Y-119679290D01*
%TO.N,CC1_DET*%
X124456802Y-115756802D02*
X126293198Y-115756802D01*
X113736396Y-112750000D02*
X116743198Y-115756802D01*
X126293198Y-115756802D02*
X126300000Y-115750000D01*
X116743198Y-115756802D02*
X124143198Y-115756802D01*
X124143198Y-115756802D02*
X124456802Y-115756802D01*
X112600000Y-112750000D02*
X113736396Y-112750000D01*
X124200000Y-120400000D02*
X124200000Y-115813604D01*
X124200000Y-115813604D02*
X124143198Y-115756802D01*
%TO.N,CC2_DET*%
X120950000Y-113987500D02*
X117962500Y-111000000D01*
X117962500Y-111000000D02*
X112550000Y-111000000D01*
D17*
%TO.N,D-*%
X106650000Y-121450000D02*
X106250000Y-121450000D01*
X107200000Y-120900000D02*
X106650000Y-121450000D01*
X107200000Y-117150000D02*
X107200000Y-120900000D01*
X108000000Y-116350000D02*
X107200000Y-117150000D01*
D16*
%TO.N,VBUS_OPEN*%
X109650000Y-115150000D02*
X111250000Y-116750000D01*
X107350000Y-115150000D02*
X107150000Y-115150000D01*
X107150000Y-115150000D02*
X106300000Y-116000000D01*
X115000000Y-116750000D02*
X111250000Y-116750000D01*
X107350000Y-115150000D02*
X109650000Y-115150000D01*
%TO.N,V_CC_REF*%
X126558884Y-115125000D02*
X126925000Y-115491116D01*
X125964762Y-115123346D02*
X126541844Y-115123346D01*
X101575000Y-112125000D02*
X113747792Y-112125000D01*
X113747792Y-112125000D02*
X116929594Y-115306802D01*
X98075000Y-112125000D02*
X96600000Y-113600000D01*
X125800000Y-115306802D02*
X125981802Y-115125000D01*
X126925000Y-118475000D02*
X126900000Y-118500000D01*
X126925000Y-115491116D02*
X126925000Y-118475000D01*
X101575000Y-112125000D02*
X98075000Y-112125000D01*
X116929594Y-115306802D02*
X125800000Y-115306802D01*
X116650000Y-112887500D02*
X114510292Y-112887500D01*
%TO.N,Net-(R16-Pad2)*%
X120667040Y-101851654D02*
X125042040Y-106226654D01*
X130092040Y-106226654D02*
X132067040Y-104251654D01*
X125042040Y-106226654D02*
X130092040Y-106226654D01*
%TD*%
%TA.AperFunction,Conductor*%
%TO.N,GND*%
G36*
X142744392Y-96102669D02*
G01*
X142759477Y-96102625D01*
X142775510Y-96106871D01*
X142787019Y-96103752D01*
X142789454Y-96104459D01*
X142789523Y-96103073D01*
X143119982Y-96119539D01*
X143133175Y-96120895D01*
X143300277Y-96147036D01*
X143467374Y-96173175D01*
X143480361Y-96175914D01*
X143643784Y-96219487D01*
X143807212Y-96263060D01*
X143819829Y-96267148D01*
X144135695Y-96388191D01*
X144147820Y-96393586D01*
X144154505Y-96396993D01*
X144449200Y-96547184D01*
X144460691Y-96553825D01*
X144744233Y-96738268D01*
X144754963Y-96746081D01*
X145017541Y-96959337D01*
X145027389Y-96968236D01*
X145229167Y-97170864D01*
X145266071Y-97207924D01*
X145274928Y-97217809D01*
X145487074Y-97481277D01*
X145494842Y-97492039D01*
X145678096Y-97776361D01*
X145684688Y-97787880D01*
X145688043Y-97794530D01*
X145837019Y-98089904D01*
X145842363Y-98102053D01*
X145962074Y-98418417D01*
X145966111Y-98431061D01*
X146051879Y-98758263D01*
X146054564Y-98771261D01*
X146105438Y-99105681D01*
X146106740Y-99118890D01*
X146121823Y-99449552D01*
X146120789Y-99449599D01*
X146121261Y-99451588D01*
X146118005Y-99463404D01*
X146122184Y-99479457D01*
X146122084Y-99493552D01*
X146122500Y-99496804D01*
X146122500Y-119494485D01*
X146122027Y-119498214D01*
X146122153Y-119511820D01*
X146118008Y-119527886D01*
X146121270Y-119539622D01*
X146120611Y-119541944D01*
X146121930Y-119541998D01*
X146113493Y-119749576D01*
X146109331Y-119851960D01*
X146108194Y-119864480D01*
X146063666Y-120179456D01*
X146061288Y-120191800D01*
X145985600Y-120500751D01*
X145982004Y-120512796D01*
X145875905Y-120812678D01*
X145871126Y-120824306D01*
X145854766Y-120859069D01*
X145755985Y-121068963D01*
X145735671Y-121112126D01*
X145729759Y-121123216D01*
X145695437Y-121180514D01*
X145566299Y-121396102D01*
X145559309Y-121406551D01*
X145369472Y-121661790D01*
X145361476Y-121671490D01*
X145147149Y-121906544D01*
X145138226Y-121915399D01*
X144901546Y-122127924D01*
X144891785Y-122135846D01*
X144635104Y-122323730D01*
X144624602Y-122330640D01*
X144350481Y-122492009D01*
X144339344Y-122497838D01*
X144050496Y-122631095D01*
X144038832Y-122635785D01*
X143738149Y-122739594D01*
X143726076Y-122743098D01*
X143416553Y-122816426D01*
X143404192Y-122818710D01*
X143283104Y-122834887D01*
X143088889Y-122860833D01*
X143076376Y-122861872D01*
X142766490Y-122872101D01*
X142766455Y-122871037D01*
X142764398Y-122871502D01*
X142752232Y-122868021D01*
X142736138Y-122872043D01*
X142724166Y-122871840D01*
X142718804Y-122872500D01*
X95770728Y-122872500D01*
X95764462Y-122871743D01*
X95753391Y-122871981D01*
X95737281Y-122868032D01*
X95725620Y-122871426D01*
X95723272Y-122870791D01*
X95723234Y-122872121D01*
X95723233Y-122872121D01*
X95677082Y-122870789D01*
X95412300Y-122863146D01*
X95399679Y-122862144D01*
X95083482Y-122820989D01*
X95071026Y-122818727D01*
X94967429Y-122794469D01*
X94760557Y-122746030D01*
X94748384Y-122742526D01*
X94446779Y-122639023D01*
X94435020Y-122634314D01*
X94145328Y-122501049D01*
X94134130Y-122495198D01*
X93859267Y-122333512D01*
X93848699Y-122326557D01*
X93844841Y-122323730D01*
X93591476Y-122138101D01*
X93581647Y-122130110D01*
X93344656Y-121916788D01*
X93335679Y-121907851D01*
X93121300Y-121671808D01*
X93113266Y-121662015D01*
X93063114Y-121594199D01*
X92951907Y-121443823D01*
X105744391Y-121443823D01*
X105762980Y-121585979D01*
X105766597Y-121594199D01*
X105809421Y-121691523D01*
X105820720Y-121717203D01*
X105912970Y-121826948D01*
X106032313Y-121906390D01*
X106169157Y-121949142D01*
X106178129Y-121949306D01*
X106178132Y-121949307D01*
X106243463Y-121950504D01*
X106312499Y-121951770D01*
X106321533Y-121949307D01*
X106442158Y-121916421D01*
X106442160Y-121916420D01*
X106450817Y-121914060D01*
X106572991Y-121839045D01*
X106669200Y-121732754D01*
X106670340Y-121733786D01*
X106717374Y-121694825D01*
X106727998Y-121691523D01*
X106735569Y-121688387D01*
X106747741Y-121685966D01*
X106758057Y-121679073D01*
X106758059Y-121679072D01*
X106777535Y-121666058D01*
X106777536Y-121666057D01*
X106820286Y-121637493D01*
X106830601Y-121630601D01*
X106837493Y-121620286D01*
X106837495Y-121620284D01*
X106837688Y-121619995D01*
X106853358Y-121600902D01*
X107350902Y-121103358D01*
X107369995Y-121087688D01*
X107370284Y-121087495D01*
X107370286Y-121087493D01*
X107380601Y-121080601D01*
X107435966Y-120997740D01*
X107450500Y-120924674D01*
X107450500Y-120924673D01*
X107451978Y-120917243D01*
X107452987Y-120912172D01*
X107452987Y-120912171D01*
X107455408Y-120900000D01*
X107452921Y-120887497D01*
X107450500Y-120862915D01*
X107450500Y-118900000D01*
X110334542Y-118900000D01*
X110336093Y-118909793D01*
X110350635Y-119001605D01*
X110354876Y-119028384D01*
X110413887Y-119144200D01*
X110505800Y-119236113D01*
X110621616Y-119295124D01*
X110631405Y-119296674D01*
X110631407Y-119296675D01*
X110740207Y-119313907D01*
X110750000Y-119315458D01*
X110759793Y-119313907D01*
X110868593Y-119296675D01*
X110868595Y-119296674D01*
X110878384Y-119295124D01*
X110994200Y-119236113D01*
X111086113Y-119144200D01*
X111145124Y-119028384D01*
X111149366Y-119001605D01*
X111163907Y-118909793D01*
X111165458Y-118900000D01*
X111145124Y-118771616D01*
X111086113Y-118655800D01*
X110994200Y-118563887D01*
X110878384Y-118504876D01*
X110868595Y-118503326D01*
X110868593Y-118503325D01*
X110759793Y-118486093D01*
X110750000Y-118484542D01*
X110740207Y-118486093D01*
X110631407Y-118503325D01*
X110631405Y-118503326D01*
X110621616Y-118504876D01*
X110505800Y-118563887D01*
X110413887Y-118655800D01*
X110354876Y-118771616D01*
X110334542Y-118900000D01*
X107450500Y-118900000D01*
X107450500Y-117305951D01*
X107470502Y-117237830D01*
X107487405Y-117216856D01*
X107819562Y-116884699D01*
X107881874Y-116850673D01*
X107919147Y-116849675D01*
X107919157Y-116849142D01*
X108062499Y-116851770D01*
X108071163Y-116849408D01*
X108192158Y-116816421D01*
X108192160Y-116816420D01*
X108200817Y-116814060D01*
X108322991Y-116739045D01*
X108419200Y-116632754D01*
X108481710Y-116503733D01*
X108505496Y-116362354D01*
X108505647Y-116350000D01*
X108497473Y-116292924D01*
X108486596Y-116216968D01*
X108486595Y-116216965D01*
X108485323Y-116208082D01*
X108425984Y-116077572D01*
X108373920Y-116017149D01*
X108338260Y-115975763D01*
X108338257Y-115975760D01*
X108332400Y-115968963D01*
X108212095Y-115890985D01*
X108074739Y-115849907D01*
X108065763Y-115849852D01*
X108065762Y-115849852D01*
X108005555Y-115849484D01*
X107931376Y-115849031D01*
X107793529Y-115888428D01*
X107672280Y-115964930D01*
X107577377Y-116072388D01*
X107516447Y-116202163D01*
X107509404Y-116247397D01*
X107497638Y-116322969D01*
X107494391Y-116343823D01*
X107495555Y-116352725D01*
X107495555Y-116352729D01*
X107504560Y-116421589D01*
X107493560Y-116491728D01*
X107468719Y-116527021D01*
X107049098Y-116946642D01*
X107030005Y-116962312D01*
X107029716Y-116962505D01*
X107029714Y-116962507D01*
X107019399Y-116969399D01*
X107012507Y-116979714D01*
X107012505Y-116979716D01*
X106995942Y-117004505D01*
X106995941Y-117004507D01*
X106970927Y-117041942D01*
X106970926Y-117041944D01*
X106964034Y-117052259D01*
X106944592Y-117150000D01*
X106947013Y-117162171D01*
X106947013Y-117162172D01*
X106947079Y-117162504D01*
X106949500Y-117187085D01*
X106949500Y-120744050D01*
X106929498Y-120812171D01*
X106912595Y-120833145D01*
X106711745Y-121033995D01*
X106649433Y-121068021D01*
X106578618Y-121062956D01*
X106554125Y-121050636D01*
X106462095Y-120990985D01*
X106324739Y-120949907D01*
X106315763Y-120949852D01*
X106315762Y-120949852D01*
X106255555Y-120949484D01*
X106181376Y-120949031D01*
X106043529Y-120988428D01*
X105922280Y-121064930D01*
X105827377Y-121172388D01*
X105766447Y-121302163D01*
X105765066Y-121311035D01*
X105750336Y-121405643D01*
X105744391Y-121443823D01*
X92951907Y-121443823D01*
X92923669Y-121405639D01*
X92916661Y-121395092D01*
X92861438Y-121302163D01*
X92753763Y-121120971D01*
X92747850Y-121109774D01*
X92613300Y-120820686D01*
X92608539Y-120808948D01*
X92522497Y-120561814D01*
X92503698Y-120507818D01*
X92500140Y-120495666D01*
X92495127Y-120474677D01*
X92426055Y-120185498D01*
X92423741Y-120173070D01*
X92383250Y-119872446D01*
X92381178Y-119857060D01*
X92380120Y-119844437D01*
X92369762Y-119533592D01*
X92370792Y-119533558D01*
X92370342Y-119531565D01*
X92373799Y-119519486D01*
X92369778Y-119503392D01*
X92369982Y-119491356D01*
X92369331Y-119486055D01*
X92369545Y-118900000D01*
X102834543Y-118900000D01*
X102836094Y-118909793D01*
X102850246Y-118999142D01*
X102854877Y-119028383D01*
X102913888Y-119144199D01*
X103005801Y-119236112D01*
X103121617Y-119295123D01*
X103131407Y-119296674D01*
X103131408Y-119296674D01*
X103240207Y-119313906D01*
X103250000Y-119315457D01*
X103259793Y-119313906D01*
X103368592Y-119296674D01*
X103368593Y-119296674D01*
X103378383Y-119295123D01*
X103494199Y-119236112D01*
X103586112Y-119144199D01*
X103645123Y-119028383D01*
X103649755Y-118999142D01*
X103663906Y-118909793D01*
X103665457Y-118900000D01*
X103645123Y-118771617D01*
X103586112Y-118655801D01*
X103494199Y-118563888D01*
X103378383Y-118504877D01*
X103368593Y-118503326D01*
X103368592Y-118503326D01*
X103259793Y-118486094D01*
X103250000Y-118484543D01*
X103240207Y-118486094D01*
X103131408Y-118503326D01*
X103131407Y-118503326D01*
X103121617Y-118504877D01*
X103005801Y-118563888D01*
X102913888Y-118655801D01*
X102854877Y-118771617D01*
X102834543Y-118900000D01*
X92369545Y-118900000D01*
X92370608Y-115993823D01*
X105794391Y-115993823D01*
X105795555Y-116002725D01*
X105795555Y-116002728D01*
X105802038Y-116052304D01*
X105812980Y-116135979D01*
X105816597Y-116144199D01*
X105863110Y-116249907D01*
X105870720Y-116267203D01*
X105876497Y-116274076D01*
X105876498Y-116274077D01*
X105952153Y-116364080D01*
X105962970Y-116376948D01*
X105970447Y-116381925D01*
X106045535Y-116431908D01*
X106082313Y-116456390D01*
X106219157Y-116499142D01*
X106228129Y-116499306D01*
X106228132Y-116499307D01*
X106293463Y-116500504D01*
X106362499Y-116501770D01*
X106371533Y-116499307D01*
X106492158Y-116466421D01*
X106492160Y-116466420D01*
X106500817Y-116464060D01*
X106622991Y-116389045D01*
X106658333Y-116350000D01*
X106713178Y-116289407D01*
X106719200Y-116282754D01*
X106781710Y-116153733D01*
X106805496Y-116012354D01*
X106805647Y-116000000D01*
X106802176Y-115975763D01*
X106800047Y-115960892D01*
X106810191Y-115890623D01*
X106835680Y-115853936D01*
X107227211Y-115462405D01*
X107289523Y-115428379D01*
X107316306Y-115425500D01*
X109483694Y-115425500D01*
X109551815Y-115445502D01*
X109572789Y-115462405D01*
X110713936Y-116603552D01*
X110747962Y-116665864D01*
X110749341Y-116712032D01*
X110744391Y-116743823D01*
X110745555Y-116752725D01*
X110745555Y-116752728D01*
X110746814Y-116762354D01*
X110762980Y-116885979D01*
X110820720Y-117017203D01*
X110826497Y-117024076D01*
X110826498Y-117024077D01*
X110860416Y-117064427D01*
X110912970Y-117126948D01*
X111032313Y-117206390D01*
X111169157Y-117249142D01*
X111178129Y-117249306D01*
X111178132Y-117249307D01*
X111243463Y-117250504D01*
X111312499Y-117251770D01*
X111321533Y-117249307D01*
X111442158Y-117216421D01*
X111442160Y-117216420D01*
X111450817Y-117214060D01*
X111572991Y-117139045D01*
X111638252Y-117066945D01*
X111698796Y-117029864D01*
X111731668Y-117025500D01*
X114519006Y-117025500D01*
X114587127Y-117045502D01*
X114615455Y-117070423D01*
X114662970Y-117126948D01*
X114782313Y-117206390D01*
X114919157Y-117249142D01*
X114928129Y-117249306D01*
X114928132Y-117249307D01*
X114993463Y-117250504D01*
X115062499Y-117251770D01*
X115071533Y-117249307D01*
X115192158Y-117216421D01*
X115192160Y-117216420D01*
X115200817Y-117214060D01*
X115322991Y-117139045D01*
X115419200Y-117032754D01*
X115481710Y-116903733D01*
X115505496Y-116762354D01*
X115505647Y-116750000D01*
X115493598Y-116665864D01*
X115486596Y-116616968D01*
X115486595Y-116616965D01*
X115485323Y-116608082D01*
X115425984Y-116477572D01*
X115377746Y-116421589D01*
X115338260Y-116375763D01*
X115338257Y-116375760D01*
X115332400Y-116368963D01*
X115212095Y-116290985D01*
X115074739Y-116249907D01*
X115065763Y-116249852D01*
X115065762Y-116249852D01*
X115005555Y-116249484D01*
X114931376Y-116249031D01*
X114793529Y-116288428D01*
X114672280Y-116364930D01*
X114666338Y-116371658D01*
X114666337Y-116371659D01*
X114613127Y-116431908D01*
X114553042Y-116469726D01*
X114518686Y-116474500D01*
X111731091Y-116474500D01*
X111662970Y-116454498D01*
X111635638Y-116430748D01*
X111588260Y-116375763D01*
X111588257Y-116375760D01*
X111582400Y-116368963D01*
X111462095Y-116290985D01*
X111324739Y-116249907D01*
X111315763Y-116249852D01*
X111315762Y-116249852D01*
X111190122Y-116249084D01*
X111122125Y-116228666D01*
X111101797Y-116212181D01*
X109872772Y-114983156D01*
X109857102Y-114964064D01*
X109855515Y-114961689D01*
X109848624Y-114951376D01*
X109825623Y-114936007D01*
X109827212Y-114933630D01*
X109827210Y-114933629D01*
X109825622Y-114936006D01*
X109799468Y-114918531D01*
X109799466Y-114918528D01*
X109799465Y-114918529D01*
X109767811Y-114897378D01*
X109757495Y-114890485D01*
X109745326Y-114888064D01*
X109745325Y-114888064D01*
X109677133Y-114874500D01*
X109662172Y-114871524D01*
X109662171Y-114871524D01*
X109650000Y-114869103D01*
X109637829Y-114871524D01*
X109635039Y-114872079D01*
X109610457Y-114874500D01*
X107189542Y-114874500D01*
X107164962Y-114872079D01*
X107162172Y-114871524D01*
X107150000Y-114869103D01*
X107137828Y-114871524D01*
X107122866Y-114874500D01*
X107042506Y-114890484D01*
X107032189Y-114897377D01*
X107032188Y-114897378D01*
X106977935Y-114933629D01*
X106974378Y-114936006D01*
X106974377Y-114936007D01*
X106951376Y-114951376D01*
X106944485Y-114961689D01*
X106942898Y-114964064D01*
X106927228Y-114983156D01*
X106447485Y-115462899D01*
X106385173Y-115496925D01*
X106357621Y-115499802D01*
X106273614Y-115499289D01*
X106231376Y-115499031D01*
X106093529Y-115538428D01*
X105972280Y-115614930D01*
X105877377Y-115722388D01*
X105816447Y-115852163D01*
X105815066Y-115861035D01*
X105797203Y-115975763D01*
X105794391Y-115993823D01*
X92370608Y-115993823D01*
X92371485Y-113593823D01*
X96094391Y-113593823D01*
X96095555Y-113602725D01*
X96095555Y-113602728D01*
X96096933Y-113613263D01*
X96112980Y-113735979D01*
X96116597Y-113744199D01*
X96161207Y-113845582D01*
X96170720Y-113867203D01*
X96176497Y-113874076D01*
X96176498Y-113874077D01*
X96257190Y-113970072D01*
X96262970Y-113976948D01*
X96297381Y-113999854D01*
X96371425Y-114049142D01*
X96382313Y-114056390D01*
X96519157Y-114099142D01*
X96528129Y-114099306D01*
X96528132Y-114099307D01*
X96593463Y-114100504D01*
X96662499Y-114101770D01*
X96671533Y-114099307D01*
X96792158Y-114066421D01*
X96792160Y-114066420D01*
X96800817Y-114064060D01*
X96922991Y-113989045D01*
X97019200Y-113882754D01*
X97081710Y-113753733D01*
X97105496Y-113612354D01*
X97105647Y-113600000D01*
X97103492Y-113584950D01*
X97100047Y-113560892D01*
X97110191Y-113490623D01*
X97135680Y-113453936D01*
X98152211Y-112437405D01*
X98214523Y-112403379D01*
X98241306Y-112400500D01*
X112012775Y-112400500D01*
X112080896Y-112420502D01*
X112127389Y-112474158D01*
X112137493Y-112544432D01*
X112126830Y-112580049D01*
X112116447Y-112602163D01*
X112094391Y-112743823D01*
X112112980Y-112885979D01*
X112170720Y-113017203D01*
X112197712Y-113049314D01*
X112214009Y-113068702D01*
X112242530Y-113133718D01*
X112231374Y-113203832D01*
X112212000Y-113233184D01*
X112201593Y-113244968D01*
X112177377Y-113272388D01*
X112116447Y-113402163D01*
X112115066Y-113411035D01*
X112097180Y-113525912D01*
X112094391Y-113543823D01*
X112095555Y-113552725D01*
X112095555Y-113552728D01*
X112102094Y-113602728D01*
X112112980Y-113685979D01*
X112116597Y-113694199D01*
X112142793Y-113753733D01*
X112170720Y-113817203D01*
X112176497Y-113824076D01*
X112176498Y-113824077D01*
X112257190Y-113920072D01*
X112262970Y-113926948D01*
X112270447Y-113931925D01*
X112365192Y-113994993D01*
X112382313Y-114006390D01*
X112519157Y-114049142D01*
X112528129Y-114049306D01*
X112528132Y-114049307D01*
X112593463Y-114050504D01*
X112662499Y-114051770D01*
X112671533Y-114049307D01*
X112792158Y-114016421D01*
X112792160Y-114016420D01*
X112800817Y-114014060D01*
X112922991Y-113939045D01*
X112988252Y-113866945D01*
X113048796Y-113829864D01*
X113081668Y-113825500D01*
X113804404Y-113825500D01*
X113872525Y-113845502D01*
X113893499Y-113862405D01*
X119723125Y-119692031D01*
X119757151Y-119754343D01*
X119752086Y-119825158D01*
X119728472Y-119864533D01*
X119677377Y-119922388D01*
X119616447Y-120052163D01*
X119615066Y-120061035D01*
X119596628Y-120179456D01*
X119594391Y-120193823D01*
X119595555Y-120202725D01*
X119595555Y-120202728D01*
X119602020Y-120252163D01*
X119612980Y-120335979D01*
X119670720Y-120467203D01*
X119676497Y-120474076D01*
X119676498Y-120474077D01*
X119757190Y-120570072D01*
X119762970Y-120576948D01*
X119882313Y-120656390D01*
X120019157Y-120699142D01*
X120028129Y-120699306D01*
X120028132Y-120699307D01*
X120093463Y-120700504D01*
X120162499Y-120701770D01*
X120171533Y-120699307D01*
X120292158Y-120666421D01*
X120292160Y-120666420D01*
X120300817Y-120664060D01*
X120422991Y-120589045D01*
X120435937Y-120574743D01*
X120513178Y-120489407D01*
X120519200Y-120482754D01*
X120581710Y-120353733D01*
X120605496Y-120212354D01*
X120605647Y-120200000D01*
X120585323Y-120058082D01*
X120525984Y-119927572D01*
X120471620Y-119864480D01*
X120438258Y-119825761D01*
X120438256Y-119825759D01*
X120432400Y-119818963D01*
X120424871Y-119814083D01*
X120419536Y-119809429D01*
X120381352Y-119749576D01*
X120379387Y-119703872D01*
X120378476Y-119703872D01*
X120378476Y-119691461D01*
X120380897Y-119679290D01*
X120359515Y-119571796D01*
X120359515Y-119571795D01*
X120321568Y-119515004D01*
X120313994Y-119503668D01*
X120316194Y-119502198D01*
X120316194Y-119502196D01*
X120313993Y-119503667D01*
X120305515Y-119490979D01*
X120298624Y-119480666D01*
X120285936Y-119472188D01*
X120266844Y-119456518D01*
X117057723Y-116247397D01*
X117023697Y-116185085D01*
X117028762Y-116114270D01*
X117071309Y-116057434D01*
X117137829Y-116032623D01*
X117146818Y-116032302D01*
X123798500Y-116032302D01*
X123866621Y-116052304D01*
X123913114Y-116105960D01*
X123924500Y-116158302D01*
X123924500Y-119913938D01*
X123904498Y-119982059D01*
X123880164Y-120009891D01*
X123879870Y-120010141D01*
X123872280Y-120014930D01*
X123777377Y-120122388D01*
X123716447Y-120252163D01*
X123715066Y-120261035D01*
X123699375Y-120361814D01*
X123694391Y-120393823D01*
X123695555Y-120402725D01*
X123695555Y-120402728D01*
X123696814Y-120412354D01*
X123712980Y-120535979D01*
X123770720Y-120667203D01*
X123776497Y-120674076D01*
X123776498Y-120674077D01*
X123835316Y-120744050D01*
X123862970Y-120776948D01*
X123982313Y-120856390D01*
X124119157Y-120899142D01*
X124128129Y-120899306D01*
X124128132Y-120899307D01*
X124193463Y-120900504D01*
X124262499Y-120901770D01*
X124271533Y-120899307D01*
X124392158Y-120866421D01*
X124392160Y-120866420D01*
X124400817Y-120864060D01*
X124522991Y-120789045D01*
X124619200Y-120682754D01*
X124668454Y-120581094D01*
X124677795Y-120561814D01*
X124677795Y-120561813D01*
X124681710Y-120553733D01*
X124705496Y-120412354D01*
X124705647Y-120400000D01*
X124685323Y-120258082D01*
X124625984Y-120127572D01*
X124568652Y-120061035D01*
X124538259Y-120025762D01*
X124538257Y-120025760D01*
X124532400Y-120018963D01*
X124524869Y-120014082D01*
X124518671Y-120008675D01*
X124480486Y-119948822D01*
X124475500Y-119913726D01*
X124475500Y-116158302D01*
X124495502Y-116090181D01*
X124549158Y-116043688D01*
X124601500Y-116032302D01*
X125824724Y-116032302D01*
X125892845Y-116052304D01*
X125921173Y-116077224D01*
X125962970Y-116126948D01*
X126082313Y-116206390D01*
X126219157Y-116249142D01*
X126228129Y-116249306D01*
X126228132Y-116249307D01*
X126293463Y-116250504D01*
X126362499Y-116251770D01*
X126490360Y-116216911D01*
X126561341Y-116218290D01*
X126620310Y-116257827D01*
X126648542Y-116322969D01*
X126649500Y-116338474D01*
X126649500Y-117996724D01*
X126629498Y-118064845D01*
X126590734Y-118103286D01*
X126579875Y-118110137D01*
X126579871Y-118110141D01*
X126572280Y-118114930D01*
X126477377Y-118222388D01*
X126416447Y-118352163D01*
X126415066Y-118361035D01*
X126395836Y-118484543D01*
X126394391Y-118493823D01*
X126395555Y-118502725D01*
X126395555Y-118502728D01*
X126396425Y-118509377D01*
X126412980Y-118635979D01*
X126421702Y-118655801D01*
X126460800Y-118744657D01*
X126470720Y-118767203D01*
X126476497Y-118774076D01*
X126476498Y-118774077D01*
X126483792Y-118782754D01*
X126562970Y-118876948D01*
X126682313Y-118956390D01*
X126819157Y-118999142D01*
X126828129Y-118999306D01*
X126828132Y-118999307D01*
X126893463Y-119000504D01*
X126962499Y-119001770D01*
X126971533Y-118999307D01*
X127092158Y-118966421D01*
X127092160Y-118966420D01*
X127100817Y-118964060D01*
X127222991Y-118889045D01*
X127319200Y-118782754D01*
X127376429Y-118664633D01*
X127377795Y-118661814D01*
X127377795Y-118661813D01*
X127381710Y-118653733D01*
X127405496Y-118512354D01*
X127405572Y-118506136D01*
X127405588Y-118504859D01*
X127405588Y-118504854D01*
X127405647Y-118500000D01*
X127385323Y-118358082D01*
X127325984Y-118227572D01*
X127232400Y-118118963D01*
X127234932Y-118116781D01*
X127205491Y-118070645D01*
X127200500Y-118035535D01*
X127200500Y-115530659D01*
X127202921Y-115506077D01*
X127203476Y-115503287D01*
X127205897Y-115491116D01*
X127184515Y-115383621D01*
X127138994Y-115315494D01*
X127138993Y-115315493D01*
X127123624Y-115292492D01*
X127110936Y-115284014D01*
X127091844Y-115268344D01*
X126734506Y-114911006D01*
X126703793Y-114890484D01*
X126676696Y-114872379D01*
X126676695Y-114872379D01*
X126666378Y-114865485D01*
X126654209Y-114863064D01*
X126654208Y-114863064D01*
X126571055Y-114846524D01*
X126558884Y-114844103D01*
X126546713Y-114846524D01*
X126541079Y-114846524D01*
X126527656Y-114847846D01*
X126013030Y-114847846D01*
X125999607Y-114846524D01*
X125993973Y-114846524D01*
X125981802Y-114844103D01*
X125969631Y-114846524D01*
X125963997Y-114846524D01*
X125950574Y-114847846D01*
X125937629Y-114847846D01*
X125857267Y-114863831D01*
X125766138Y-114924722D01*
X125759245Y-114935038D01*
X125732340Y-114975304D01*
X125677863Y-115020832D01*
X125627575Y-115031302D01*
X117095900Y-115031302D01*
X117027779Y-115011300D01*
X117006805Y-114994397D01*
X115390503Y-113378095D01*
X115356477Y-113315783D01*
X115361542Y-113244968D01*
X115404089Y-113188132D01*
X115470609Y-113163321D01*
X115479598Y-113163000D01*
X116169006Y-113163000D01*
X116237127Y-113183002D01*
X116265455Y-113207923D01*
X116312970Y-113264448D01*
X116338198Y-113281241D01*
X116389903Y-113315659D01*
X116432313Y-113343890D01*
X116569157Y-113386642D01*
X116578129Y-113386806D01*
X116578132Y-113386807D01*
X116643463Y-113388004D01*
X116712499Y-113389270D01*
X116721533Y-113386807D01*
X116842158Y-113353921D01*
X116842160Y-113353920D01*
X116850817Y-113351560D01*
X116972991Y-113276545D01*
X116982845Y-113265659D01*
X117063178Y-113176907D01*
X117069200Y-113170254D01*
X117104728Y-113096925D01*
X117127795Y-113049314D01*
X117127795Y-113049313D01*
X117131710Y-113041233D01*
X117155496Y-112899854D01*
X117155647Y-112887500D01*
X117135323Y-112745582D01*
X117075984Y-112615072D01*
X117045808Y-112580051D01*
X116988260Y-112513263D01*
X116988257Y-112513260D01*
X116982400Y-112506463D01*
X116862095Y-112428485D01*
X116724739Y-112387407D01*
X116715763Y-112387352D01*
X116715762Y-112387352D01*
X116655555Y-112386984D01*
X116581376Y-112386531D01*
X116443529Y-112425928D01*
X116322280Y-112502430D01*
X116316338Y-112509158D01*
X116316337Y-112509159D01*
X116263127Y-112569408D01*
X116203042Y-112607226D01*
X116168686Y-112612000D01*
X114676598Y-112612000D01*
X114608477Y-112591998D01*
X114587503Y-112575095D01*
X113970564Y-111958156D01*
X113954894Y-111939064D01*
X113953307Y-111936689D01*
X113946416Y-111926376D01*
X113923415Y-111911007D01*
X113923414Y-111911006D01*
X113881226Y-111882817D01*
X113855287Y-111865485D01*
X113774925Y-111849500D01*
X113759964Y-111846524D01*
X113759963Y-111846524D01*
X113747792Y-111844103D01*
X113735621Y-111846524D01*
X113732831Y-111847079D01*
X113708249Y-111849500D01*
X98114543Y-111849500D01*
X98089961Y-111847079D01*
X98087171Y-111846524D01*
X98075000Y-111844103D01*
X98047868Y-111849500D01*
X98047867Y-111849500D01*
X97967505Y-111865485D01*
X97941566Y-111882817D01*
X97899378Y-111911006D01*
X97899377Y-111911007D01*
X97876376Y-111926376D01*
X97869485Y-111936689D01*
X97867898Y-111939064D01*
X97852228Y-111958156D01*
X96747485Y-113062899D01*
X96685173Y-113096925D01*
X96657621Y-113099802D01*
X96573614Y-113099289D01*
X96531376Y-113099031D01*
X96393529Y-113138428D01*
X96272280Y-113214930D01*
X96266338Y-113221658D01*
X96266337Y-113221659D01*
X96227478Y-113265659D01*
X96177377Y-113322388D01*
X96116447Y-113452163D01*
X96115066Y-113461035D01*
X96104965Y-113525912D01*
X96094391Y-113593823D01*
X92371485Y-113593823D01*
X92372435Y-110993823D01*
X112044391Y-110993823D01*
X112062980Y-111135979D01*
X112120720Y-111267203D01*
X112126497Y-111274076D01*
X112126498Y-111274077D01*
X112133792Y-111282754D01*
X112212970Y-111376948D01*
X112332313Y-111456390D01*
X112469157Y-111499142D01*
X112478129Y-111499306D01*
X112478132Y-111499307D01*
X112543463Y-111500504D01*
X112612499Y-111501770D01*
X112621533Y-111499307D01*
X112742158Y-111466421D01*
X112742160Y-111466420D01*
X112750817Y-111464060D01*
X112872991Y-111389045D01*
X112938252Y-111316945D01*
X112998796Y-111279864D01*
X113031668Y-111275500D01*
X117796194Y-111275500D01*
X117864315Y-111295502D01*
X117885289Y-111312405D01*
X120413936Y-113841052D01*
X120447962Y-113903364D01*
X120449341Y-113949532D01*
X120446143Y-113970072D01*
X120444391Y-113981323D01*
X120445555Y-113990225D01*
X120445555Y-113990228D01*
X120452909Y-114046464D01*
X120462980Y-114123479D01*
X120520720Y-114254703D01*
X120526497Y-114261576D01*
X120526498Y-114261577D01*
X120533792Y-114270254D01*
X120612970Y-114364448D01*
X120732313Y-114443890D01*
X120869157Y-114486642D01*
X120878129Y-114486806D01*
X120878132Y-114486807D01*
X120943463Y-114488004D01*
X121012499Y-114489270D01*
X121021533Y-114486807D01*
X121142158Y-114453921D01*
X121142160Y-114453920D01*
X121150817Y-114451560D01*
X121272991Y-114376545D01*
X121369200Y-114270254D01*
X121431710Y-114141233D01*
X121455496Y-113999854D01*
X121455647Y-113987500D01*
X121441599Y-113889407D01*
X121436596Y-113854468D01*
X121436595Y-113854465D01*
X121435323Y-113845582D01*
X121429491Y-113832754D01*
X121389227Y-113744199D01*
X121375984Y-113715072D01*
X121291608Y-113617149D01*
X121288260Y-113613263D01*
X121288257Y-113613260D01*
X121282400Y-113606463D01*
X121162095Y-113528485D01*
X121024739Y-113487407D01*
X121015763Y-113487352D01*
X121015762Y-113487352D01*
X120890122Y-113486584D01*
X120822125Y-113466166D01*
X120801797Y-113449681D01*
X119392116Y-112040000D01*
X139844396Y-112040000D01*
X139864779Y-112298994D01*
X139865933Y-112303801D01*
X139865934Y-112303807D01*
X139894661Y-112423462D01*
X139925427Y-112551610D01*
X139927320Y-112556181D01*
X139927321Y-112556183D01*
X140009454Y-112754468D01*
X140024846Y-112791628D01*
X140160588Y-113013140D01*
X140329311Y-113210689D01*
X140333067Y-113213897D01*
X140342155Y-113221659D01*
X140526860Y-113379412D01*
X140748372Y-113515154D01*
X140752942Y-113517047D01*
X140752946Y-113517049D01*
X140983817Y-113612679D01*
X140988390Y-113614573D01*
X141076724Y-113635780D01*
X141236193Y-113674066D01*
X141236199Y-113674067D01*
X141241006Y-113675221D01*
X141500000Y-113695604D01*
X141758994Y-113675221D01*
X141763801Y-113674067D01*
X141763807Y-113674066D01*
X141923276Y-113635780D01*
X142011610Y-113614573D01*
X142016183Y-113612679D01*
X142247054Y-113517049D01*
X142247058Y-113517047D01*
X142251628Y-113515154D01*
X142473140Y-113379412D01*
X142657845Y-113221659D01*
X142666933Y-113213897D01*
X142670689Y-113210689D01*
X142839412Y-113013140D01*
X142975154Y-112791628D01*
X142990547Y-112754468D01*
X143072679Y-112556183D01*
X143072680Y-112556181D01*
X143074573Y-112551610D01*
X143105339Y-112423462D01*
X143134066Y-112303807D01*
X143134067Y-112303801D01*
X143135221Y-112298994D01*
X143155604Y-112040000D01*
X143135221Y-111781006D01*
X143134067Y-111776199D01*
X143134066Y-111776193D01*
X143075728Y-111533202D01*
X143074573Y-111528390D01*
X143062568Y-111499408D01*
X142977049Y-111292946D01*
X142977047Y-111292942D01*
X142975154Y-111288372D01*
X142839412Y-111066860D01*
X142670689Y-110869311D01*
X142473140Y-110700588D01*
X142251628Y-110564846D01*
X142247058Y-110562953D01*
X142247054Y-110562951D01*
X142016183Y-110467321D01*
X142016181Y-110467320D01*
X142011610Y-110465427D01*
X141923276Y-110444220D01*
X141763807Y-110405934D01*
X141763801Y-110405933D01*
X141758994Y-110404779D01*
X141500000Y-110384396D01*
X141241006Y-110404779D01*
X141236199Y-110405933D01*
X141236193Y-110405934D01*
X141076724Y-110444220D01*
X140988390Y-110465427D01*
X140983819Y-110467320D01*
X140983817Y-110467321D01*
X140752946Y-110562951D01*
X140752942Y-110562953D01*
X140748372Y-110564846D01*
X140526860Y-110700588D01*
X140329311Y-110869311D01*
X140160588Y-111066860D01*
X140024846Y-111288372D01*
X140022953Y-111292942D01*
X140022951Y-111292946D01*
X139937432Y-111499408D01*
X139925427Y-111528390D01*
X139924272Y-111533202D01*
X139865934Y-111776193D01*
X139865933Y-111776199D01*
X139864779Y-111781006D01*
X139844396Y-112040000D01*
X119392116Y-112040000D01*
X118185272Y-110833156D01*
X118169602Y-110814064D01*
X118168015Y-110811689D01*
X118161124Y-110801376D01*
X118138123Y-110786007D01*
X118139712Y-110783630D01*
X118139710Y-110783629D01*
X118138122Y-110786006D01*
X118111968Y-110768531D01*
X118111966Y-110768528D01*
X118111965Y-110768529D01*
X118080311Y-110747378D01*
X118069995Y-110740485D01*
X118057826Y-110738064D01*
X118057825Y-110738064D01*
X117989633Y-110724500D01*
X117974672Y-110721524D01*
X117974671Y-110721524D01*
X117962500Y-110719103D01*
X117950329Y-110721524D01*
X117947539Y-110722079D01*
X117922957Y-110724500D01*
X113031091Y-110724500D01*
X112962970Y-110704498D01*
X112935638Y-110680748D01*
X112888260Y-110625763D01*
X112888257Y-110625760D01*
X112882400Y-110618963D01*
X112762095Y-110540985D01*
X112624739Y-110499907D01*
X112615763Y-110499852D01*
X112615762Y-110499852D01*
X112555555Y-110499484D01*
X112481376Y-110499031D01*
X112343529Y-110538428D01*
X112222280Y-110614930D01*
X112127377Y-110722388D01*
X112066447Y-110852163D01*
X112044391Y-110993823D01*
X92372435Y-110993823D01*
X92373356Y-108474820D01*
X139849500Y-108474820D01*
X139858233Y-108518722D01*
X139865127Y-108529040D01*
X139865128Y-108529042D01*
X139884601Y-108558185D01*
X139891496Y-108568504D01*
X139901815Y-108575399D01*
X139930958Y-108594872D01*
X139930960Y-108594873D01*
X139941278Y-108601767D01*
X139985180Y-108610500D01*
X143014820Y-108610500D01*
X143058722Y-108601767D01*
X143069040Y-108594873D01*
X143069042Y-108594872D01*
X143098185Y-108575399D01*
X143108504Y-108568504D01*
X143115399Y-108558185D01*
X143134872Y-108529042D01*
X143134873Y-108529040D01*
X143141767Y-108518722D01*
X143150500Y-108474820D01*
X143150500Y-105445180D01*
X143141767Y-105401278D01*
X143134873Y-105390960D01*
X143134872Y-105390958D01*
X143115399Y-105361815D01*
X143108504Y-105351496D01*
X143098185Y-105344601D01*
X143069042Y-105325128D01*
X143069040Y-105325127D01*
X143058722Y-105318233D01*
X143014820Y-105309500D01*
X139985180Y-105309500D01*
X139941278Y-105318233D01*
X139930960Y-105325127D01*
X139930958Y-105325128D01*
X139901815Y-105344601D01*
X139891496Y-105351496D01*
X139884601Y-105361815D01*
X139865128Y-105390958D01*
X139865127Y-105390960D01*
X139858233Y-105401278D01*
X139849500Y-105445180D01*
X139849500Y-108474820D01*
X92373356Y-108474820D01*
X92373827Y-107186464D01*
X114444500Y-107186464D01*
X114445254Y-107201760D01*
X114447692Y-107226424D01*
X114449946Y-107241567D01*
X114457912Y-107281475D01*
X114466820Y-107310734D01*
X114485757Y-107356281D01*
X114487228Y-107359022D01*
X114488955Y-107362239D01*
X114500222Y-107383234D01*
X114515827Y-107406487D01*
X114535291Y-107430090D01*
X114570267Y-107464876D01*
X114593969Y-107484207D01*
X114617301Y-107499683D01*
X114620040Y-107501134D01*
X114620050Y-107501140D01*
X114641598Y-107512555D01*
X114644328Y-107514001D01*
X114647182Y-107515170D01*
X114647187Y-107515172D01*
X114664587Y-107522297D01*
X114689976Y-107532693D01*
X114719285Y-107541443D01*
X114740304Y-107545521D01*
X114757740Y-107548904D01*
X114757747Y-107548905D01*
X114759246Y-107549196D01*
X114760778Y-107549416D01*
X114760780Y-107549416D01*
X114772845Y-107551146D01*
X114772849Y-107551147D01*
X114774408Y-107551370D01*
X114775985Y-107551517D01*
X114775983Y-107551517D01*
X114797519Y-107553528D01*
X114797534Y-107553529D01*
X114799076Y-107553673D01*
X114802014Y-107553802D01*
X114812815Y-107554276D01*
X114812827Y-107554276D01*
X114814372Y-107554344D01*
X114815917Y-107554336D01*
X114815935Y-107554336D01*
X129373121Y-107475647D01*
X132885391Y-107456662D01*
X132892190Y-107456181D01*
X132903551Y-107455378D01*
X132903566Y-107455376D01*
X132905608Y-107455232D01*
X132938085Y-107450793D01*
X132940097Y-107450383D01*
X132940102Y-107450382D01*
X132943558Y-107449677D01*
X132957948Y-107446744D01*
X132959920Y-107446206D01*
X132959933Y-107446203D01*
X133005124Y-107433876D01*
X133005127Y-107433875D01*
X133009090Y-107432794D01*
X133046405Y-107417160D01*
X133102584Y-107384454D01*
X133105833Y-107381945D01*
X133105837Y-107381942D01*
X133131348Y-107362239D01*
X133131355Y-107362233D01*
X133134602Y-107359725D01*
X133159917Y-107334272D01*
X133184470Y-107302123D01*
X133216869Y-107245772D01*
X133232299Y-107208377D01*
X133245973Y-107157162D01*
X133249915Y-107137277D01*
X133254179Y-107104775D01*
X133255500Y-107084548D01*
X133255500Y-96912410D01*
X133255424Y-96910859D01*
X133254827Y-96898707D01*
X133254826Y-96898692D01*
X133254751Y-96897168D01*
X133252330Y-96872587D01*
X133250091Y-96857493D01*
X133242178Y-96817711D01*
X133233329Y-96788540D01*
X133214515Y-96743119D01*
X133213061Y-96740399D01*
X133213056Y-96740388D01*
X133201606Y-96718966D01*
X133201603Y-96718961D01*
X133200146Y-96716235D01*
X133184639Y-96693027D01*
X133165300Y-96669463D01*
X133130537Y-96634700D01*
X133106973Y-96615361D01*
X133104413Y-96613651D01*
X133104407Y-96613646D01*
X133086336Y-96601572D01*
X133083765Y-96599854D01*
X133081039Y-96598397D01*
X133081034Y-96598394D01*
X133059612Y-96586944D01*
X133059601Y-96586939D01*
X133056881Y-96585485D01*
X133011460Y-96566671D01*
X132998824Y-96562838D01*
X132985254Y-96558721D01*
X132985246Y-96558719D01*
X132982289Y-96557822D01*
X132979260Y-96557220D01*
X132979254Y-96557218D01*
X132962194Y-96553825D01*
X132942507Y-96549909D01*
X132940967Y-96549681D01*
X132940958Y-96549679D01*
X132928972Y-96547901D01*
X132928962Y-96547900D01*
X132927413Y-96547670D01*
X132925858Y-96547517D01*
X132925843Y-96547515D01*
X132904368Y-96545400D01*
X132904357Y-96545399D01*
X132902832Y-96545249D01*
X132901308Y-96545174D01*
X132901293Y-96545173D01*
X132889141Y-96544576D01*
X132889132Y-96544576D01*
X132887590Y-96544500D01*
X114812410Y-96544500D01*
X114810868Y-96544576D01*
X114810859Y-96544576D01*
X114798707Y-96545173D01*
X114798692Y-96545174D01*
X114797168Y-96545249D01*
X114795643Y-96545399D01*
X114795632Y-96545400D01*
X114774157Y-96547515D01*
X114774142Y-96547517D01*
X114772587Y-96547670D01*
X114771038Y-96547900D01*
X114771028Y-96547901D01*
X114759042Y-96549679D01*
X114759033Y-96549681D01*
X114757493Y-96549909D01*
X114737806Y-96553825D01*
X114720746Y-96557218D01*
X114720740Y-96557220D01*
X114717711Y-96557822D01*
X114714754Y-96558719D01*
X114714746Y-96558721D01*
X114701176Y-96562838D01*
X114688540Y-96566671D01*
X114643119Y-96585485D01*
X114640399Y-96586939D01*
X114640388Y-96586944D01*
X114618966Y-96598394D01*
X114618961Y-96598397D01*
X114616235Y-96599854D01*
X114613664Y-96601572D01*
X114595593Y-96613646D01*
X114595587Y-96613651D01*
X114593027Y-96615361D01*
X114569463Y-96634700D01*
X114534700Y-96669463D01*
X114515361Y-96693027D01*
X114499854Y-96716235D01*
X114498397Y-96718961D01*
X114498394Y-96718966D01*
X114486944Y-96740388D01*
X114486939Y-96740399D01*
X114485485Y-96743119D01*
X114466671Y-96788540D01*
X114457822Y-96817711D01*
X114449909Y-96857493D01*
X114447670Y-96872587D01*
X114445249Y-96897168D01*
X114445174Y-96898692D01*
X114445173Y-96898707D01*
X114444576Y-96910859D01*
X114444500Y-96912410D01*
X114444500Y-107186464D01*
X92373827Y-107186464D01*
X92374043Y-106595000D01*
X95541552Y-106595000D01*
X95553233Y-106653722D01*
X95560127Y-106664040D01*
X95560128Y-106664042D01*
X95579601Y-106693185D01*
X95586496Y-106703504D01*
X95596815Y-106710399D01*
X95625958Y-106729872D01*
X95625960Y-106729873D01*
X95636278Y-106736767D01*
X95695000Y-106748448D01*
X98695000Y-106748448D01*
X98753722Y-106736767D01*
X98764040Y-106729873D01*
X98764042Y-106729872D01*
X98793185Y-106710399D01*
X98803504Y-106703504D01*
X98810399Y-106693185D01*
X98829872Y-106664042D01*
X98829873Y-106664040D01*
X98836767Y-106653722D01*
X98848448Y-106595000D01*
X102541552Y-106595000D01*
X102553233Y-106653722D01*
X102560127Y-106664040D01*
X102560128Y-106664042D01*
X102579601Y-106693185D01*
X102586496Y-106703504D01*
X102596815Y-106710399D01*
X102625958Y-106729872D01*
X102625960Y-106729873D01*
X102636278Y-106736767D01*
X102695000Y-106748448D01*
X105695000Y-106748448D01*
X105753722Y-106736767D01*
X105764040Y-106729873D01*
X105764042Y-106729872D01*
X105793185Y-106710399D01*
X105803504Y-106703504D01*
X105810399Y-106693185D01*
X105829872Y-106664042D01*
X105829873Y-106664040D01*
X105836767Y-106653722D01*
X105848448Y-106595000D01*
X105848448Y-99595000D01*
X105836767Y-99536278D01*
X105829873Y-99525960D01*
X105829872Y-99525958D01*
X105810399Y-99496815D01*
X105803504Y-99486496D01*
X105770287Y-99464301D01*
X105764042Y-99460128D01*
X105764040Y-99460127D01*
X105753722Y-99453233D01*
X105695000Y-99441552D01*
X102695000Y-99441552D01*
X102636278Y-99453233D01*
X102625960Y-99460127D01*
X102625958Y-99460128D01*
X102619713Y-99464301D01*
X102586496Y-99486496D01*
X102579601Y-99496815D01*
X102560128Y-99525958D01*
X102560127Y-99525960D01*
X102553233Y-99536278D01*
X102541552Y-99595000D01*
X102541552Y-106595000D01*
X98848448Y-106595000D01*
X98848448Y-99595000D01*
X98836767Y-99536278D01*
X98829873Y-99525960D01*
X98829872Y-99525958D01*
X98810399Y-99496815D01*
X98803504Y-99486496D01*
X98770287Y-99464301D01*
X98764042Y-99460128D01*
X98764040Y-99460127D01*
X98753722Y-99453233D01*
X98695000Y-99441552D01*
X95695000Y-99441552D01*
X95636278Y-99453233D01*
X95625960Y-99460127D01*
X95625958Y-99460128D01*
X95619713Y-99464301D01*
X95586496Y-99486496D01*
X95579601Y-99496815D01*
X95560128Y-99525958D01*
X95560127Y-99525960D01*
X95553233Y-99536278D01*
X95541552Y-99595000D01*
X95541552Y-106595000D01*
X92374043Y-106595000D01*
X92376633Y-99508250D01*
X92376850Y-99506604D01*
X92376850Y-99490897D01*
X92381143Y-99474875D01*
X92378049Y-99463327D01*
X92378760Y-99460906D01*
X92377381Y-99460834D01*
X92394776Y-99128958D01*
X92396154Y-99115841D01*
X92449315Y-98780214D01*
X92452058Y-98767313D01*
X92452760Y-98764696D01*
X92540004Y-98439109D01*
X92544079Y-98426567D01*
X92665855Y-98109335D01*
X92671220Y-98097286D01*
X92671961Y-98095833D01*
X92825486Y-97794530D01*
X92832080Y-97783109D01*
X93017148Y-97498134D01*
X93024900Y-97487464D01*
X93029911Y-97481277D01*
X93238745Y-97223393D01*
X93247569Y-97213593D01*
X93487846Y-96973321D01*
X93497648Y-96964496D01*
X93761718Y-96750661D01*
X93772388Y-96742909D01*
X94057366Y-96557847D01*
X94068787Y-96551253D01*
X94082041Y-96544500D01*
X94371553Y-96396989D01*
X94383586Y-96391631D01*
X94700835Y-96269855D01*
X94713374Y-96265782D01*
X95041590Y-96177842D01*
X95054487Y-96175100D01*
X95390113Y-96121946D01*
X95403216Y-96120570D01*
X95735324Y-96103169D01*
X95735377Y-96104177D01*
X95737314Y-96103702D01*
X95749143Y-96106872D01*
X95765167Y-96102579D01*
X95780960Y-96102579D01*
X95782517Y-96102374D01*
X142742129Y-96102374D01*
X142744392Y-96102669D01*
G37*
%TD.AperFunction*%
%TD*%
%TA.AperFunction,Conductor*%
%TO.N,VBUS_DRAIN*%
G36*
X132912171Y-96702421D02*
G01*
X132951953Y-96710334D01*
X132997374Y-96729148D01*
X133020582Y-96744655D01*
X133055345Y-96779418D01*
X133070852Y-96802626D01*
X133089666Y-96848047D01*
X133097579Y-96887829D01*
X133100000Y-96912410D01*
X133100000Y-107084548D01*
X133095736Y-107117050D01*
X133082062Y-107168265D01*
X133049663Y-107224616D01*
X133024348Y-107250069D01*
X132968169Y-107282775D01*
X132917027Y-107296725D01*
X132884550Y-107301164D01*
X123265839Y-107353157D01*
X114813531Y-107398846D01*
X114788863Y-107396543D01*
X114748902Y-107388790D01*
X114703254Y-107370098D01*
X114679922Y-107354622D01*
X114644946Y-107319836D01*
X114629341Y-107296583D01*
X114610404Y-107251036D01*
X114602438Y-107211128D01*
X114600000Y-107186464D01*
X114600000Y-101843823D01*
X120144391Y-101843823D01*
X120145555Y-101852725D01*
X120145555Y-101852728D01*
X120146814Y-101862354D01*
X120162980Y-101985979D01*
X120220720Y-102117203D01*
X120312970Y-102226948D01*
X120432313Y-102306390D01*
X120569157Y-102349142D01*
X120578129Y-102349306D01*
X120578132Y-102349307D01*
X120643463Y-102350504D01*
X120712499Y-102351770D01*
X120712524Y-102351763D01*
X120778148Y-102362467D01*
X120812747Y-102386977D01*
X124819268Y-106393498D01*
X124834938Y-106412590D01*
X124843416Y-106425278D01*
X124866417Y-106440647D01*
X124866418Y-106440648D01*
X124934545Y-106486169D01*
X125042040Y-106507551D01*
X125057001Y-106504575D01*
X125081583Y-106502154D01*
X130052497Y-106502154D01*
X130077079Y-106504575D01*
X130092040Y-106507551D01*
X130119172Y-106502154D01*
X130119173Y-106502154D01*
X130199535Y-106486169D01*
X130241505Y-106458125D01*
X130241505Y-106458126D01*
X130241508Y-106458123D01*
X130267662Y-106440648D01*
X130270229Y-106444489D01*
X130270230Y-106444488D01*
X130267663Y-106440647D01*
X130280351Y-106432169D01*
X130290664Y-106425278D01*
X130299142Y-106412590D01*
X130314812Y-106393498D01*
X131921482Y-104786828D01*
X131983794Y-104752802D01*
X132012886Y-104749944D01*
X132049442Y-104750614D01*
X132112499Y-104751770D01*
X132121163Y-104749408D01*
X132242158Y-104716421D01*
X132242160Y-104716420D01*
X132250817Y-104714060D01*
X132372991Y-104639045D01*
X132469200Y-104532754D01*
X132531710Y-104403733D01*
X132555496Y-104262354D01*
X132555647Y-104250000D01*
X132535323Y-104108082D01*
X132475984Y-103977572D01*
X132457598Y-103956234D01*
X132388260Y-103875763D01*
X132388257Y-103875760D01*
X132382400Y-103868963D01*
X132262095Y-103790985D01*
X132124739Y-103749907D01*
X132115763Y-103749852D01*
X132115762Y-103749852D01*
X132055555Y-103749484D01*
X131981376Y-103749031D01*
X131843529Y-103788428D01*
X131722280Y-103864930D01*
X131627377Y-103972388D01*
X131566447Y-104102163D01*
X131565066Y-104111035D01*
X131550932Y-104201815D01*
X131544391Y-104243823D01*
X131545555Y-104252725D01*
X131545555Y-104252728D01*
X131552633Y-104306854D01*
X131541633Y-104376993D01*
X131516792Y-104412286D01*
X130014829Y-105914249D01*
X129952517Y-105948275D01*
X129925734Y-105951154D01*
X126074373Y-105951154D01*
X126006252Y-105931152D01*
X125959759Y-105877496D01*
X125949655Y-105807222D01*
X125957037Y-105783106D01*
X125956268Y-105782861D01*
X125958996Y-105774314D01*
X125962911Y-105766233D01*
X125986697Y-105624854D01*
X125986848Y-105612500D01*
X125982036Y-105578901D01*
X125992180Y-105508635D01*
X126017669Y-105471947D01*
X126966844Y-104522772D01*
X126985936Y-104507102D01*
X126988307Y-104505518D01*
X126988308Y-104505517D01*
X126998624Y-104498624D01*
X127059515Y-104407495D01*
X127059516Y-104407494D01*
X127080897Y-104300000D01*
X127077921Y-104285038D01*
X127075500Y-104260458D01*
X127075500Y-101185976D01*
X127095502Y-101117855D01*
X127118637Y-101091718D01*
X127122991Y-101089045D01*
X127219200Y-100982754D01*
X127281710Y-100853733D01*
X127305496Y-100712354D01*
X127305647Y-100700000D01*
X127285323Y-100558082D01*
X127225984Y-100427572D01*
X127207598Y-100406234D01*
X127138260Y-100325763D01*
X127138257Y-100325760D01*
X127132400Y-100318963D01*
X127012095Y-100240985D01*
X126874739Y-100199907D01*
X126865763Y-100199852D01*
X126865762Y-100199852D01*
X126805555Y-100199484D01*
X126731376Y-100199031D01*
X126593529Y-100238428D01*
X126472280Y-100314930D01*
X126377377Y-100422388D01*
X126316447Y-100552163D01*
X126294391Y-100693823D01*
X126295555Y-100702725D01*
X126295555Y-100702728D01*
X126296814Y-100712354D01*
X126312980Y-100835979D01*
X126370720Y-100967203D01*
X126376497Y-100974076D01*
X126376498Y-100974077D01*
X126383792Y-100982754D01*
X126462970Y-101076948D01*
X126470447Y-101081925D01*
X126477135Y-101087905D01*
X126475788Y-101089412D01*
X126513944Y-101134912D01*
X126524500Y-101185396D01*
X126524500Y-104133694D01*
X126504498Y-104201815D01*
X126487595Y-104222789D01*
X125634946Y-105075438D01*
X125572634Y-105109464D01*
X125545084Y-105112341D01*
X125412577Y-105111531D01*
X125274730Y-105150928D01*
X125153481Y-105227430D01*
X125058578Y-105334888D01*
X124997648Y-105464663D01*
X124996267Y-105473535D01*
X124991629Y-105503321D01*
X124961385Y-105567554D01*
X124901215Y-105605239D01*
X124830224Y-105604411D01*
X124778034Y-105573032D01*
X121188740Y-101983738D01*
X121154714Y-101921426D01*
X121153580Y-101873743D01*
X121154689Y-101867148D01*
X121155496Y-101862354D01*
X121155647Y-101850000D01*
X121135323Y-101708082D01*
X121075984Y-101577572D01*
X121057598Y-101556234D01*
X120988260Y-101475763D01*
X120988257Y-101475760D01*
X120982400Y-101468963D01*
X120862095Y-101390985D01*
X120724739Y-101349907D01*
X120715763Y-101349852D01*
X120715762Y-101349852D01*
X120655555Y-101349484D01*
X120581376Y-101349031D01*
X120443529Y-101388428D01*
X120322280Y-101464930D01*
X120227377Y-101572388D01*
X120166447Y-101702163D01*
X120144391Y-101843823D01*
X114600000Y-101843823D01*
X114600000Y-96912410D01*
X114602421Y-96887829D01*
X114610334Y-96848047D01*
X114629148Y-96802626D01*
X114644655Y-96779418D01*
X114679418Y-96744655D01*
X114702626Y-96729148D01*
X114748047Y-96710334D01*
X114787829Y-96702421D01*
X114812410Y-96700000D01*
X132887590Y-96700000D01*
X132912171Y-96702421D01*
G37*
%TD.AperFunction*%
%TD*%
M02*
