%TF.GenerationSoftware,KiCad,Pcbnew,(6.0.6-0)*%
%TF.CreationDate,2022-07-30T19:28:33+02:00*%
%TF.ProjectId,smoke_extractorV1_1,736d6f6b-655f-4657-9874-726163746f72,rev?*%
%TF.SameCoordinates,Original*%
%TF.FileFunction,Legend,Top*%
%TF.FilePolarity,Positive*%
%FSLAX46Y46*%
G04 Gerber Fmt 4.6, Leading zero omitted, Abs format (unit mm)*
G04 Created by KiCad (PCBNEW (6.0.6-0)) date 2022-07-30 19:28:33*
%MOMM*%
%LPD*%
G01*
G04 APERTURE LIST*
%ADD10C,0.120000*%
%ADD11C,0.300000*%
%ADD12C,0.150000*%
G04 APERTURE END LIST*
D10*
X129750000Y-107000000D02*
X129750000Y-122450000D01*
X134400000Y-122450000D02*
X136900000Y-122450000D01*
X137100000Y-122450000D02*
X137100000Y-114850000D01*
X134400000Y-106800000D02*
X129750000Y-106800000D01*
X136900000Y-122450000D02*
X137100000Y-122450000D01*
X129750000Y-122450000D02*
X134400000Y-122450000D01*
X134400000Y-114850000D02*
X134400000Y-122450000D01*
X134400000Y-122450000D02*
X134400000Y-106800000D01*
X137100000Y-114850000D02*
X134400000Y-114850000D01*
X129750000Y-106800000D02*
X129750000Y-107000000D01*
D11*
X131769714Y-121626428D02*
X131826857Y-121455000D01*
X131826857Y-121169285D01*
X131769714Y-121055000D01*
X131712571Y-120997857D01*
X131598285Y-120940714D01*
X131484000Y-120940714D01*
X131369714Y-120997857D01*
X131312571Y-121055000D01*
X131255428Y-121169285D01*
X131198285Y-121397857D01*
X131141142Y-121512142D01*
X131084000Y-121569285D01*
X130969714Y-121626428D01*
X130855428Y-121626428D01*
X130741142Y-121569285D01*
X130684000Y-121512142D01*
X130626857Y-121397857D01*
X130626857Y-121112142D01*
X130684000Y-120940714D01*
X131826857Y-120426428D02*
X131026857Y-120426428D01*
X131141142Y-120426428D02*
X131084000Y-120369285D01*
X131026857Y-120255000D01*
X131026857Y-120083571D01*
X131084000Y-119969285D01*
X131198285Y-119912142D01*
X131826857Y-119912142D01*
X131198285Y-119912142D02*
X131084000Y-119855000D01*
X131026857Y-119740714D01*
X131026857Y-119569285D01*
X131084000Y-119455000D01*
X131198285Y-119397857D01*
X131826857Y-119397857D01*
X131826857Y-118655000D02*
X131769714Y-118769285D01*
X131712571Y-118826428D01*
X131598285Y-118883571D01*
X131255428Y-118883571D01*
X131141142Y-118826428D01*
X131084000Y-118769285D01*
X131026857Y-118655000D01*
X131026857Y-118483571D01*
X131084000Y-118369285D01*
X131141142Y-118312142D01*
X131255428Y-118255000D01*
X131598285Y-118255000D01*
X131712571Y-118312142D01*
X131769714Y-118369285D01*
X131826857Y-118483571D01*
X131826857Y-118655000D01*
X131826857Y-117740714D02*
X130626857Y-117740714D01*
X131369714Y-117626428D02*
X131826857Y-117283571D01*
X131026857Y-117283571D02*
X131484000Y-117740714D01*
X131769714Y-116312142D02*
X131826857Y-116426428D01*
X131826857Y-116655000D01*
X131769714Y-116769285D01*
X131655428Y-116826428D01*
X131198285Y-116826428D01*
X131084000Y-116769285D01*
X131026857Y-116655000D01*
X131026857Y-116426428D01*
X131084000Y-116312142D01*
X131198285Y-116255000D01*
X131312571Y-116255000D01*
X131426857Y-116826428D01*
X131198285Y-114826428D02*
X131198285Y-114426428D01*
X131826857Y-114255000D02*
X131826857Y-114826428D01*
X130626857Y-114826428D01*
X130626857Y-114255000D01*
X131826857Y-113855000D02*
X131026857Y-113226428D01*
X131026857Y-113855000D02*
X131826857Y-113226428D01*
X131026857Y-112940714D02*
X131026857Y-112483571D01*
X130626857Y-112769285D02*
X131655428Y-112769285D01*
X131769714Y-112712142D01*
X131826857Y-112597857D01*
X131826857Y-112483571D01*
X131826857Y-112083571D02*
X131026857Y-112083571D01*
X131255428Y-112083571D02*
X131141142Y-112026428D01*
X131084000Y-111969285D01*
X131026857Y-111855000D01*
X131026857Y-111740714D01*
X131826857Y-110826428D02*
X131198285Y-110826428D01*
X131084000Y-110883571D01*
X131026857Y-110997857D01*
X131026857Y-111226428D01*
X131084000Y-111340714D01*
X131769714Y-110826428D02*
X131826857Y-110940714D01*
X131826857Y-111226428D01*
X131769714Y-111340714D01*
X131655428Y-111397857D01*
X131541142Y-111397857D01*
X131426857Y-111340714D01*
X131369714Y-111226428D01*
X131369714Y-110940714D01*
X131312571Y-110826428D01*
X131769714Y-109740714D02*
X131826857Y-109855000D01*
X131826857Y-110083571D01*
X131769714Y-110197857D01*
X131712571Y-110255000D01*
X131598285Y-110312142D01*
X131255428Y-110312142D01*
X131141142Y-110255000D01*
X131084000Y-110197857D01*
X131026857Y-110083571D01*
X131026857Y-109855000D01*
X131084000Y-109740714D01*
X131026857Y-109397857D02*
X131026857Y-108940714D01*
X130626857Y-109226428D02*
X131655428Y-109226428D01*
X131769714Y-109169285D01*
X131826857Y-109055000D01*
X131826857Y-108940714D01*
X131826857Y-108369285D02*
X131769714Y-108483571D01*
X131712571Y-108540714D01*
X131598285Y-108597857D01*
X131255428Y-108597857D01*
X131141142Y-108540714D01*
X131084000Y-108483571D01*
X131026857Y-108369285D01*
X131026857Y-108197857D01*
X131084000Y-108083571D01*
X131141142Y-108026428D01*
X131255428Y-107969285D01*
X131598285Y-107969285D01*
X131712571Y-108026428D01*
X131769714Y-108083571D01*
X131826857Y-108197857D01*
X131826857Y-108369285D01*
X131826857Y-107455000D02*
X131026857Y-107455000D01*
X131255428Y-107455000D02*
X131141142Y-107397857D01*
X131084000Y-107340714D01*
X131026857Y-107226428D01*
X131026857Y-107112142D01*
X133758857Y-120940714D02*
X133758857Y-121626428D01*
X133758857Y-121283571D02*
X132558857Y-121283571D01*
X132730285Y-121397857D01*
X132844571Y-121512142D01*
X132901714Y-121626428D01*
X132958857Y-120540714D02*
X133758857Y-120255000D01*
X132958857Y-119969285D01*
X133758857Y-118883571D02*
X133758857Y-119569285D01*
X133758857Y-119226428D02*
X132558857Y-119226428D01*
X132730285Y-119340714D01*
X132844571Y-119455000D01*
X132901714Y-119569285D01*
D10*
X134735535Y-121486285D02*
X134735535Y-121843428D01*
X135092678Y-121879142D01*
X135056964Y-121843428D01*
X135021250Y-121772000D01*
X135021250Y-121593428D01*
X135056964Y-121522000D01*
X135092678Y-121486285D01*
X135164107Y-121450571D01*
X135342678Y-121450571D01*
X135414107Y-121486285D01*
X135449821Y-121522000D01*
X135485535Y-121593428D01*
X135485535Y-121772000D01*
X135449821Y-121843428D01*
X135414107Y-121879142D01*
X134735535Y-121236285D02*
X135485535Y-120986285D01*
X134735535Y-120736285D01*
X135128392Y-120022000D02*
X135092678Y-120057714D01*
X135056964Y-120129142D01*
X135056964Y-120200571D01*
X135092678Y-120272000D01*
X135128392Y-120307714D01*
X135199821Y-120343428D01*
X135271250Y-120343428D01*
X135342678Y-120307714D01*
X135378392Y-120272000D01*
X135414107Y-120200571D01*
X135414107Y-120129142D01*
X135378392Y-120057714D01*
X135342678Y-120022000D01*
X135056964Y-120022000D02*
X135342678Y-120022000D01*
X135378392Y-119986285D01*
X135378392Y-119950571D01*
X135342678Y-119879142D01*
X135271250Y-119843428D01*
X135092678Y-119843428D01*
X134985535Y-119914857D01*
X134914107Y-120022000D01*
X134878392Y-120164857D01*
X134914107Y-120307714D01*
X134985535Y-120414857D01*
X135092678Y-120486285D01*
X135235535Y-120522000D01*
X135378392Y-120486285D01*
X135485535Y-120414857D01*
X135556964Y-120307714D01*
X135592678Y-120164857D01*
X135556964Y-120022000D01*
X135485535Y-119914857D01*
X134735535Y-119200571D02*
X134735535Y-119343428D01*
X134771250Y-119414857D01*
X134806964Y-119450571D01*
X134914107Y-119522000D01*
X135056964Y-119557714D01*
X135342678Y-119557714D01*
X135414107Y-119522000D01*
X135449821Y-119486285D01*
X135485535Y-119414857D01*
X135485535Y-119272000D01*
X135449821Y-119200571D01*
X135414107Y-119164857D01*
X135342678Y-119129142D01*
X135164107Y-119129142D01*
X135092678Y-119164857D01*
X135056964Y-119200571D01*
X135021250Y-119272000D01*
X135021250Y-119414857D01*
X135056964Y-119486285D01*
X135092678Y-119522000D01*
X135164107Y-119557714D01*
X134735535Y-118664857D02*
X134735535Y-118593428D01*
X134771250Y-118522000D01*
X134806964Y-118486285D01*
X134878392Y-118450571D01*
X135021250Y-118414857D01*
X135199821Y-118414857D01*
X135342678Y-118450571D01*
X135414107Y-118486285D01*
X135449821Y-118522000D01*
X135485535Y-118593428D01*
X135485535Y-118664857D01*
X135449821Y-118736285D01*
X135414107Y-118772000D01*
X135342678Y-118807714D01*
X135199821Y-118843428D01*
X135021250Y-118843428D01*
X134878392Y-118807714D01*
X134806964Y-118772000D01*
X134771250Y-118736285D01*
X134735535Y-118664857D01*
X134735535Y-117950571D02*
X134735535Y-117879142D01*
X134771250Y-117807714D01*
X134806964Y-117772000D01*
X134878392Y-117736285D01*
X135021250Y-117700571D01*
X135199821Y-117700571D01*
X135342678Y-117736285D01*
X135414107Y-117772000D01*
X135449821Y-117807714D01*
X135485535Y-117879142D01*
X135485535Y-117950571D01*
X135449821Y-118022000D01*
X135414107Y-118057714D01*
X135342678Y-118093428D01*
X135199821Y-118129142D01*
X135021250Y-118129142D01*
X134878392Y-118093428D01*
X134806964Y-118057714D01*
X134771250Y-118022000D01*
X134735535Y-117950571D01*
X135485535Y-117379142D02*
X134985535Y-117379142D01*
X135056964Y-117379142D02*
X135021250Y-117343428D01*
X134985535Y-117272000D01*
X134985535Y-117164857D01*
X135021250Y-117093428D01*
X135092678Y-117057714D01*
X135485535Y-117057714D01*
X135092678Y-117057714D02*
X135021250Y-117022000D01*
X134985535Y-116950571D01*
X134985535Y-116843428D01*
X135021250Y-116772000D01*
X135092678Y-116736285D01*
X135485535Y-116736285D01*
X135271250Y-116414857D02*
X135271250Y-116057714D01*
X135485535Y-116486285D02*
X134735535Y-116236285D01*
X135485535Y-115986285D01*
X136693035Y-121450571D02*
X136693035Y-121879142D01*
X136693035Y-121664857D02*
X135943035Y-121664857D01*
X136050178Y-121736285D01*
X136121607Y-121807714D01*
X136157321Y-121879142D01*
X136014464Y-121164857D02*
X135978750Y-121129142D01*
X135943035Y-121057714D01*
X135943035Y-120879142D01*
X135978750Y-120807714D01*
X136014464Y-120772000D01*
X136085892Y-120736285D01*
X136157321Y-120736285D01*
X136264464Y-120772000D01*
X136693035Y-121200571D01*
X136693035Y-120736285D01*
X135943035Y-120522000D02*
X136693035Y-120272000D01*
X135943035Y-120022000D01*
X136335892Y-119307714D02*
X136300178Y-119343428D01*
X136264464Y-119414857D01*
X136264464Y-119486285D01*
X136300178Y-119557714D01*
X136335892Y-119593428D01*
X136407321Y-119629142D01*
X136478750Y-119629142D01*
X136550178Y-119593428D01*
X136585892Y-119557714D01*
X136621607Y-119486285D01*
X136621607Y-119414857D01*
X136585892Y-119343428D01*
X136550178Y-119307714D01*
X136264464Y-119307714D02*
X136550178Y-119307714D01*
X136585892Y-119272000D01*
X136585892Y-119236285D01*
X136550178Y-119164857D01*
X136478750Y-119129142D01*
X136300178Y-119129142D01*
X136193035Y-119200571D01*
X136121607Y-119307714D01*
X136085892Y-119450571D01*
X136121607Y-119593428D01*
X136193035Y-119700571D01*
X136300178Y-119772000D01*
X136443035Y-119807714D01*
X136585892Y-119772000D01*
X136693035Y-119700571D01*
X136764464Y-119593428D01*
X136800178Y-119450571D01*
X136764464Y-119307714D01*
X136693035Y-119200571D01*
X136014464Y-118843428D02*
X135978750Y-118807714D01*
X135943035Y-118736285D01*
X135943035Y-118557714D01*
X135978750Y-118486285D01*
X136014464Y-118450571D01*
X136085892Y-118414857D01*
X136157321Y-118414857D01*
X136264464Y-118450571D01*
X136693035Y-118879142D01*
X136693035Y-118414857D01*
X135943035Y-117950571D02*
X135943035Y-117879142D01*
X135978750Y-117807714D01*
X136014464Y-117772000D01*
X136085892Y-117736285D01*
X136228750Y-117700571D01*
X136407321Y-117700571D01*
X136550178Y-117736285D01*
X136621607Y-117772000D01*
X136657321Y-117807714D01*
X136693035Y-117879142D01*
X136693035Y-117950571D01*
X136657321Y-118022000D01*
X136621607Y-118057714D01*
X136550178Y-118093428D01*
X136407321Y-118129142D01*
X136228750Y-118129142D01*
X136085892Y-118093428D01*
X136014464Y-118057714D01*
X135978750Y-118022000D01*
X135943035Y-117950571D01*
X135943035Y-117236285D02*
X135943035Y-117164857D01*
X135978750Y-117093428D01*
X136014464Y-117057714D01*
X136085892Y-117022000D01*
X136228750Y-116986285D01*
X136407321Y-116986285D01*
X136550178Y-117022000D01*
X136621607Y-117057714D01*
X136657321Y-117093428D01*
X136693035Y-117164857D01*
X136693035Y-117236285D01*
X136657321Y-117307714D01*
X136621607Y-117343428D01*
X136550178Y-117379142D01*
X136407321Y-117414857D01*
X136228750Y-117414857D01*
X136085892Y-117379142D01*
X136014464Y-117343428D01*
X135978750Y-117307714D01*
X135943035Y-117236285D01*
X136693035Y-116664857D02*
X136193035Y-116664857D01*
X136264464Y-116664857D02*
X136228750Y-116629142D01*
X136193035Y-116557714D01*
X136193035Y-116450571D01*
X136228750Y-116379142D01*
X136300178Y-116343428D01*
X136693035Y-116343428D01*
X136300178Y-116343428D02*
X136228750Y-116307714D01*
X136193035Y-116236285D01*
X136193035Y-116129142D01*
X136228750Y-116057714D01*
X136300178Y-116022000D01*
X136693035Y-116022000D01*
X136478750Y-115700571D02*
X136478750Y-115343428D01*
X136693035Y-115772000D02*
X135943035Y-115522000D01*
X136693035Y-115272000D01*
D12*
%TO.C,H2*%
X141988095Y-103952380D02*
X141988095Y-102952380D01*
X141988095Y-103428571D02*
X142559523Y-103428571D01*
X142559523Y-103952380D02*
X142559523Y-102952380D01*
X142988095Y-103047619D02*
X143035714Y-103000000D01*
X143130952Y-102952380D01*
X143369047Y-102952380D01*
X143464285Y-103000000D01*
X143511904Y-103047619D01*
X143559523Y-103142857D01*
X143559523Y-103238095D01*
X143511904Y-103380952D01*
X142940476Y-103952380D01*
X143559523Y-103952380D01*
%TO.C,J2*%
X143952380Y-110283333D02*
X144666666Y-110283333D01*
X144809523Y-110330952D01*
X144904761Y-110426190D01*
X144952380Y-110569047D01*
X144952380Y-110664285D01*
X144047619Y-109854761D02*
X144000000Y-109807142D01*
X143952380Y-109711904D01*
X143952380Y-109473809D01*
X144000000Y-109378571D01*
X144047619Y-109330952D01*
X144142857Y-109283333D01*
X144238095Y-109283333D01*
X144380952Y-109330952D01*
X144952380Y-109902380D01*
X144952380Y-109283333D01*
%TO.C,U4*%
X127852380Y-121361904D02*
X128661904Y-121361904D01*
X128757142Y-121314285D01*
X128804761Y-121266666D01*
X128852380Y-121171428D01*
X128852380Y-120980952D01*
X128804761Y-120885714D01*
X128757142Y-120838095D01*
X128661904Y-120790476D01*
X127852380Y-120790476D01*
X128185714Y-119885714D02*
X128852380Y-119885714D01*
X127804761Y-120123809D02*
X128519047Y-120361904D01*
X128519047Y-119742857D01*
D10*
%TO.C,R15*%
X116017857Y-99839285D02*
X115767857Y-99482142D01*
X115589285Y-99839285D02*
X115589285Y-99089285D01*
X115875000Y-99089285D01*
X115946428Y-99125000D01*
X115982142Y-99160714D01*
X116017857Y-99232142D01*
X116017857Y-99339285D01*
X115982142Y-99410714D01*
X115946428Y-99446428D01*
X115875000Y-99482142D01*
X115589285Y-99482142D01*
X116732142Y-99839285D02*
X116303571Y-99839285D01*
X116517857Y-99839285D02*
X116517857Y-99089285D01*
X116446428Y-99196428D01*
X116375000Y-99267857D01*
X116303571Y-99303571D01*
X117410714Y-99089285D02*
X117053571Y-99089285D01*
X117017857Y-99446428D01*
X117053571Y-99410714D01*
X117125000Y-99375000D01*
X117303571Y-99375000D01*
X117375000Y-99410714D01*
X117410714Y-99446428D01*
X117446428Y-99517857D01*
X117446428Y-99696428D01*
X117410714Y-99767857D01*
X117375000Y-99803571D01*
X117303571Y-99839285D01*
X117125000Y-99839285D01*
X117053571Y-99803571D01*
X117017857Y-99767857D01*
D12*
%TO.C,C4*%
X116564534Y-97769642D02*
X116516915Y-97817261D01*
X116374058Y-97864880D01*
X116278820Y-97864880D01*
X116135962Y-97817261D01*
X116040724Y-97722023D01*
X115993105Y-97626785D01*
X115945486Y-97436309D01*
X115945486Y-97293452D01*
X115993105Y-97102976D01*
X116040724Y-97007738D01*
X116135962Y-96912500D01*
X116278820Y-96864880D01*
X116374058Y-96864880D01*
X116516915Y-96912500D01*
X116564534Y-96960119D01*
X117421677Y-97198214D02*
X117421677Y-97864880D01*
X117183581Y-96817261D02*
X116945486Y-97531547D01*
X117564534Y-97531547D01*
%TO.C,R9*%
X106533333Y-116602380D02*
X106200000Y-116126190D01*
X105961904Y-116602380D02*
X105961904Y-115602380D01*
X106342857Y-115602380D01*
X106438095Y-115650000D01*
X106485714Y-115697619D01*
X106533333Y-115792857D01*
X106533333Y-115935714D01*
X106485714Y-116030952D01*
X106438095Y-116078571D01*
X106342857Y-116126190D01*
X105961904Y-116126190D01*
X107009523Y-116602380D02*
X107200000Y-116602380D01*
X107295238Y-116554761D01*
X107342857Y-116507142D01*
X107438095Y-116364285D01*
X107485714Y-116173809D01*
X107485714Y-115792857D01*
X107438095Y-115697619D01*
X107390476Y-115650000D01*
X107295238Y-115602380D01*
X107104761Y-115602380D01*
X107009523Y-115650000D01*
X106961904Y-115697619D01*
X106914285Y-115792857D01*
X106914285Y-116030952D01*
X106961904Y-116126190D01*
X107009523Y-116173809D01*
X107104761Y-116221428D01*
X107295238Y-116221428D01*
X107390476Y-116173809D01*
X107438095Y-116126190D01*
X107485714Y-116030952D01*
%TO.C,H1*%
X94988095Y-116052380D02*
X94988095Y-115052380D01*
X94988095Y-115528571D02*
X95559523Y-115528571D01*
X95559523Y-116052380D02*
X95559523Y-115052380D01*
X96559523Y-116052380D02*
X95988095Y-116052380D01*
X96273809Y-116052380D02*
X96273809Y-115052380D01*
X96178571Y-115195238D01*
X96083333Y-115290476D01*
X95988095Y-115338095D01*
%TO.C,D2*%
X112311904Y-113202380D02*
X112311904Y-112202380D01*
X112550000Y-112202380D01*
X112692857Y-112250000D01*
X112788095Y-112345238D01*
X112835714Y-112440476D01*
X112883333Y-112630952D01*
X112883333Y-112773809D01*
X112835714Y-112964285D01*
X112788095Y-113059523D01*
X112692857Y-113154761D01*
X112550000Y-113202380D01*
X112311904Y-113202380D01*
X113264285Y-112297619D02*
X113311904Y-112250000D01*
X113407142Y-112202380D01*
X113645238Y-112202380D01*
X113740476Y-112250000D01*
X113788095Y-112297619D01*
X113835714Y-112392857D01*
X113835714Y-112488095D01*
X113788095Y-112630952D01*
X113216666Y-113202380D01*
X113835714Y-113202380D01*
%TO.C,R13*%
X115226673Y-108289880D02*
X114893340Y-107813690D01*
X114655245Y-108289880D02*
X114655245Y-107289880D01*
X115036197Y-107289880D01*
X115131435Y-107337500D01*
X115179054Y-107385119D01*
X115226673Y-107480357D01*
X115226673Y-107623214D01*
X115179054Y-107718452D01*
X115131435Y-107766071D01*
X115036197Y-107813690D01*
X114655245Y-107813690D01*
X116179054Y-108289880D02*
X115607626Y-108289880D01*
X115893340Y-108289880D02*
X115893340Y-107289880D01*
X115798102Y-107432738D01*
X115702864Y-107527976D01*
X115607626Y-107575595D01*
X116512388Y-107289880D02*
X117131435Y-107289880D01*
X116798102Y-107670833D01*
X116940959Y-107670833D01*
X117036197Y-107718452D01*
X117083816Y-107766071D01*
X117131435Y-107861309D01*
X117131435Y-108099404D01*
X117083816Y-108194642D01*
X117036197Y-108242261D01*
X116940959Y-108289880D01*
X116655245Y-108289880D01*
X116560007Y-108242261D01*
X116512388Y-108194642D01*
%TO.C,U2*%
X106902380Y-103761904D02*
X107711904Y-103761904D01*
X107807142Y-103714285D01*
X107854761Y-103666666D01*
X107902380Y-103571428D01*
X107902380Y-103380952D01*
X107854761Y-103285714D01*
X107807142Y-103238095D01*
X107711904Y-103190476D01*
X106902380Y-103190476D01*
X106997619Y-102761904D02*
X106950000Y-102714285D01*
X106902380Y-102619047D01*
X106902380Y-102380952D01*
X106950000Y-102285714D01*
X106997619Y-102238095D01*
X107092857Y-102190476D01*
X107188095Y-102190476D01*
X107330952Y-102238095D01*
X107902380Y-102809523D01*
X107902380Y-102190476D01*
%TO.C,R17*%
X133524182Y-106104034D02*
X133190849Y-105627844D01*
X132952754Y-106104034D02*
X132952754Y-105104034D01*
X133333706Y-105104034D01*
X133428944Y-105151654D01*
X133476563Y-105199273D01*
X133524182Y-105294511D01*
X133524182Y-105437368D01*
X133476563Y-105532606D01*
X133428944Y-105580225D01*
X133333706Y-105627844D01*
X132952754Y-105627844D01*
X134476563Y-106104034D02*
X133905135Y-106104034D01*
X134190849Y-106104034D02*
X134190849Y-105104034D01*
X134095611Y-105246892D01*
X134000373Y-105342130D01*
X133905135Y-105389749D01*
X134809897Y-105104034D02*
X135476563Y-105104034D01*
X135047992Y-106104034D01*
%TO.C,C5*%
X128233333Y-105473733D02*
X128185714Y-105521352D01*
X128042857Y-105568971D01*
X127947619Y-105568971D01*
X127804761Y-105521352D01*
X127709523Y-105426114D01*
X127661904Y-105330876D01*
X127614285Y-105140400D01*
X127614285Y-104997543D01*
X127661904Y-104807067D01*
X127709523Y-104711829D01*
X127804761Y-104616591D01*
X127947619Y-104568971D01*
X128042857Y-104568971D01*
X128185714Y-104616591D01*
X128233333Y-104664210D01*
X129138095Y-104568971D02*
X128661904Y-104568971D01*
X128614285Y-105045162D01*
X128661904Y-104997543D01*
X128757142Y-104949924D01*
X128995238Y-104949924D01*
X129090476Y-104997543D01*
X129138095Y-105045162D01*
X129185714Y-105140400D01*
X129185714Y-105378495D01*
X129138095Y-105473733D01*
X129090476Y-105521352D01*
X128995238Y-105568971D01*
X128757142Y-105568971D01*
X128661904Y-105521352D01*
X128614285Y-105473733D01*
D10*
%TO.C,R3*%
X120539285Y-121325000D02*
X120182142Y-121575000D01*
X120539285Y-121753571D02*
X119789285Y-121753571D01*
X119789285Y-121467857D01*
X119825000Y-121396428D01*
X119860714Y-121360714D01*
X119932142Y-121325000D01*
X120039285Y-121325000D01*
X120110714Y-121360714D01*
X120146428Y-121396428D01*
X120182142Y-121467857D01*
X120182142Y-121753571D01*
X119789285Y-121075000D02*
X119789285Y-120610714D01*
X120075000Y-120860714D01*
X120075000Y-120753571D01*
X120110714Y-120682142D01*
X120146428Y-120646428D01*
X120217857Y-120610714D01*
X120396428Y-120610714D01*
X120467857Y-120646428D01*
X120503571Y-120682142D01*
X120539285Y-120753571D01*
X120539285Y-120967857D01*
X120503571Y-121039285D01*
X120467857Y-121075000D01*
D12*
%TO.C,R18*%
X128852380Y-118642857D02*
X128376190Y-118976190D01*
X128852380Y-119214285D02*
X127852380Y-119214285D01*
X127852380Y-118833333D01*
X127900000Y-118738095D01*
X127947619Y-118690476D01*
X128042857Y-118642857D01*
X128185714Y-118642857D01*
X128280952Y-118690476D01*
X128328571Y-118738095D01*
X128376190Y-118833333D01*
X128376190Y-119214285D01*
X128852380Y-117690476D02*
X128852380Y-118261904D01*
X128852380Y-117976190D02*
X127852380Y-117976190D01*
X127995238Y-118071428D01*
X128090476Y-118166666D01*
X128138095Y-118261904D01*
X128280952Y-117119047D02*
X128233333Y-117214285D01*
X128185714Y-117261904D01*
X128090476Y-117309523D01*
X128042857Y-117309523D01*
X127947619Y-117261904D01*
X127900000Y-117214285D01*
X127852380Y-117119047D01*
X127852380Y-116928571D01*
X127900000Y-116833333D01*
X127947619Y-116785714D01*
X128042857Y-116738095D01*
X128090476Y-116738095D01*
X128185714Y-116785714D01*
X128233333Y-116833333D01*
X128280952Y-116928571D01*
X128280952Y-117119047D01*
X128328571Y-117214285D01*
X128376190Y-117261904D01*
X128471428Y-117309523D01*
X128661904Y-117309523D01*
X128757142Y-117261904D01*
X128804761Y-117214285D01*
X128852380Y-117119047D01*
X128852380Y-116928571D01*
X128804761Y-116833333D01*
X128757142Y-116785714D01*
X128661904Y-116738095D01*
X128471428Y-116738095D01*
X128376190Y-116785714D01*
X128328571Y-116833333D01*
X128280952Y-116928571D01*
D10*
%TO.C,R6*%
X122789285Y-118325000D02*
X122432142Y-118575000D01*
X122789285Y-118753571D02*
X122039285Y-118753571D01*
X122039285Y-118467857D01*
X122075000Y-118396428D01*
X122110714Y-118360714D01*
X122182142Y-118325000D01*
X122289285Y-118325000D01*
X122360714Y-118360714D01*
X122396428Y-118396428D01*
X122432142Y-118467857D01*
X122432142Y-118753571D01*
X122039285Y-117682142D02*
X122039285Y-117825000D01*
X122075000Y-117896428D01*
X122110714Y-117932142D01*
X122217857Y-118003571D01*
X122360714Y-118039285D01*
X122646428Y-118039285D01*
X122717857Y-118003571D01*
X122753571Y-117967857D01*
X122789285Y-117896428D01*
X122789285Y-117753571D01*
X122753571Y-117682142D01*
X122717857Y-117646428D01*
X122646428Y-117610714D01*
X122467857Y-117610714D01*
X122396428Y-117646428D01*
X122360714Y-117682142D01*
X122325000Y-117753571D01*
X122325000Y-117896428D01*
X122360714Y-117967857D01*
X122396428Y-118003571D01*
X122467857Y-118039285D01*
D12*
%TO.C,U3*%
X125569296Y-104568971D02*
X125569296Y-105378495D01*
X125616915Y-105473733D01*
X125664534Y-105521352D01*
X125759772Y-105568971D01*
X125950248Y-105568971D01*
X126045486Y-105521352D01*
X126093105Y-105473733D01*
X126140724Y-105378495D01*
X126140724Y-104568971D01*
X126521677Y-104568971D02*
X127140724Y-104568971D01*
X126807391Y-104949924D01*
X126950248Y-104949924D01*
X127045486Y-104997543D01*
X127093105Y-105045162D01*
X127140724Y-105140400D01*
X127140724Y-105378495D01*
X127093105Y-105473733D01*
X127045486Y-105521352D01*
X126950248Y-105568971D01*
X126664534Y-105568971D01*
X126569296Y-105521352D01*
X126521677Y-105473733D01*
%TO.C,R5*%
X115702380Y-116116666D02*
X115226190Y-116450000D01*
X115702380Y-116688095D02*
X114702380Y-116688095D01*
X114702380Y-116307142D01*
X114750000Y-116211904D01*
X114797619Y-116164285D01*
X114892857Y-116116666D01*
X115035714Y-116116666D01*
X115130952Y-116164285D01*
X115178571Y-116211904D01*
X115226190Y-116307142D01*
X115226190Y-116688095D01*
X114702380Y-115211904D02*
X114702380Y-115688095D01*
X115178571Y-115735714D01*
X115130952Y-115688095D01*
X115083333Y-115592857D01*
X115083333Y-115354761D01*
X115130952Y-115259523D01*
X115178571Y-115211904D01*
X115273809Y-115164285D01*
X115511904Y-115164285D01*
X115607142Y-115211904D01*
X115654761Y-115259523D01*
X115702380Y-115354761D01*
X115702380Y-115592857D01*
X115654761Y-115688095D01*
X115607142Y-115735714D01*
%TO.C,C6*%
X124683333Y-115757142D02*
X124635714Y-115804761D01*
X124492857Y-115852380D01*
X124397619Y-115852380D01*
X124254761Y-115804761D01*
X124159523Y-115709523D01*
X124111904Y-115614285D01*
X124064285Y-115423809D01*
X124064285Y-115280952D01*
X124111904Y-115090476D01*
X124159523Y-114995238D01*
X124254761Y-114900000D01*
X124397619Y-114852380D01*
X124492857Y-114852380D01*
X124635714Y-114900000D01*
X124683333Y-114947619D01*
X125540476Y-114852380D02*
X125350000Y-114852380D01*
X125254761Y-114900000D01*
X125207142Y-114947619D01*
X125111904Y-115090476D01*
X125064285Y-115280952D01*
X125064285Y-115661904D01*
X125111904Y-115757142D01*
X125159523Y-115804761D01*
X125254761Y-115852380D01*
X125445238Y-115852380D01*
X125540476Y-115804761D01*
X125588095Y-115757142D01*
X125635714Y-115661904D01*
X125635714Y-115423809D01*
X125588095Y-115328571D01*
X125540476Y-115280952D01*
X125445238Y-115233333D01*
X125254761Y-115233333D01*
X125159523Y-115280952D01*
X125111904Y-115328571D01*
X125064285Y-115423809D01*
D10*
%TO.C,L1*%
X123706201Y-96905876D02*
X123349058Y-96905876D01*
X123349058Y-96155876D01*
X124349058Y-96905876D02*
X123920486Y-96905876D01*
X124134772Y-96905876D02*
X124134772Y-96155876D01*
X124063343Y-96263019D01*
X123991915Y-96334448D01*
X123920486Y-96370162D01*
D12*
%TO.C,R10*%
X106557142Y-115202380D02*
X106223809Y-114726190D01*
X105985714Y-115202380D02*
X105985714Y-114202380D01*
X106366666Y-114202380D01*
X106461904Y-114250000D01*
X106509523Y-114297619D01*
X106557142Y-114392857D01*
X106557142Y-114535714D01*
X106509523Y-114630952D01*
X106461904Y-114678571D01*
X106366666Y-114726190D01*
X105985714Y-114726190D01*
X107509523Y-115202380D02*
X106938095Y-115202380D01*
X107223809Y-115202380D02*
X107223809Y-114202380D01*
X107128571Y-114345238D01*
X107033333Y-114440476D01*
X106938095Y-114488095D01*
X108128571Y-114202380D02*
X108223809Y-114202380D01*
X108319047Y-114250000D01*
X108366666Y-114297619D01*
X108414285Y-114392857D01*
X108461904Y-114583333D01*
X108461904Y-114821428D01*
X108414285Y-115011904D01*
X108366666Y-115107142D01*
X108319047Y-115154761D01*
X108223809Y-115202380D01*
X108128571Y-115202380D01*
X108033333Y-115154761D01*
X107985714Y-115107142D01*
X107938095Y-115011904D01*
X107890476Y-114821428D01*
X107890476Y-114583333D01*
X107938095Y-114392857D01*
X107985714Y-114297619D01*
X108033333Y-114250000D01*
X108128571Y-114202380D01*
%TO.C,D3*%
X112311904Y-111452380D02*
X112311904Y-110452380D01*
X112550000Y-110452380D01*
X112692857Y-110500000D01*
X112788095Y-110595238D01*
X112835714Y-110690476D01*
X112883333Y-110880952D01*
X112883333Y-111023809D01*
X112835714Y-111214285D01*
X112788095Y-111309523D01*
X112692857Y-111404761D01*
X112550000Y-111452380D01*
X112311904Y-111452380D01*
X113216666Y-110452380D02*
X113835714Y-110452380D01*
X113502380Y-110833333D01*
X113645238Y-110833333D01*
X113740476Y-110880952D01*
X113788095Y-110928571D01*
X113835714Y-111023809D01*
X113835714Y-111261904D01*
X113788095Y-111357142D01*
X113740476Y-111404761D01*
X113645238Y-111452380D01*
X113359523Y-111452380D01*
X113264285Y-111404761D01*
X113216666Y-111357142D01*
%TO.C,J1*%
X103297619Y-119566666D02*
X102583333Y-119566666D01*
X102440476Y-119519047D01*
X102345238Y-119423809D01*
X102297619Y-119280952D01*
X102297619Y-119185714D01*
X102297619Y-120566666D02*
X102297619Y-119995238D01*
X102297619Y-120280952D02*
X103297619Y-120280952D01*
X103154761Y-120185714D01*
X103059523Y-120090476D01*
X103011904Y-119995238D01*
%TO.C,D4*%
X111611904Y-106002380D02*
X111611904Y-105002380D01*
X111850000Y-105002380D01*
X111992857Y-105050000D01*
X112088095Y-105145238D01*
X112135714Y-105240476D01*
X112183333Y-105430952D01*
X112183333Y-105573809D01*
X112135714Y-105764285D01*
X112088095Y-105859523D01*
X111992857Y-105954761D01*
X111850000Y-106002380D01*
X111611904Y-106002380D01*
X113040476Y-105335714D02*
X113040476Y-106002380D01*
X112802380Y-104954761D02*
X112564285Y-105669047D01*
X113183333Y-105669047D01*
%TO.C,C2*%
X119833333Y-101357142D02*
X119785714Y-101404761D01*
X119642857Y-101452380D01*
X119547619Y-101452380D01*
X119404761Y-101404761D01*
X119309523Y-101309523D01*
X119261904Y-101214285D01*
X119214285Y-101023809D01*
X119214285Y-100880952D01*
X119261904Y-100690476D01*
X119309523Y-100595238D01*
X119404761Y-100500000D01*
X119547619Y-100452380D01*
X119642857Y-100452380D01*
X119785714Y-100500000D01*
X119833333Y-100547619D01*
X120214285Y-100547619D02*
X120261904Y-100500000D01*
X120357142Y-100452380D01*
X120595238Y-100452380D01*
X120690476Y-100500000D01*
X120738095Y-100547619D01*
X120785714Y-100642857D01*
X120785714Y-100738095D01*
X120738095Y-100880952D01*
X120166666Y-101452380D01*
X120785714Y-101452380D01*
%TO.C,R2*%
X100752380Y-114266666D02*
X100276190Y-114600000D01*
X100752380Y-114838095D02*
X99752380Y-114838095D01*
X99752380Y-114457142D01*
X99800000Y-114361904D01*
X99847619Y-114314285D01*
X99942857Y-114266666D01*
X100085714Y-114266666D01*
X100180952Y-114314285D01*
X100228571Y-114361904D01*
X100276190Y-114457142D01*
X100276190Y-114838095D01*
X99847619Y-113885714D02*
X99800000Y-113838095D01*
X99752380Y-113742857D01*
X99752380Y-113504761D01*
X99800000Y-113409523D01*
X99847619Y-113361904D01*
X99942857Y-113314285D01*
X100038095Y-113314285D01*
X100180952Y-113361904D01*
X100752380Y-113933333D01*
X100752380Y-113314285D01*
%TO.C,C7*%
X119433333Y-108344642D02*
X119385714Y-108392261D01*
X119242857Y-108439880D01*
X119147619Y-108439880D01*
X119004761Y-108392261D01*
X118909523Y-108297023D01*
X118861904Y-108201785D01*
X118814285Y-108011309D01*
X118814285Y-107868452D01*
X118861904Y-107677976D01*
X118909523Y-107582738D01*
X119004761Y-107487500D01*
X119147619Y-107439880D01*
X119242857Y-107439880D01*
X119385714Y-107487500D01*
X119433333Y-107535119D01*
X119766666Y-107439880D02*
X120433333Y-107439880D01*
X120004761Y-108439880D01*
%TO.C,C3*%
X123181574Y-107608796D02*
X123133955Y-107656415D01*
X122991098Y-107704034D01*
X122895860Y-107704034D01*
X122753002Y-107656415D01*
X122657764Y-107561177D01*
X122610145Y-107465939D01*
X122562526Y-107275463D01*
X122562526Y-107132606D01*
X122610145Y-106942130D01*
X122657764Y-106846892D01*
X122753002Y-106751654D01*
X122895860Y-106704034D01*
X122991098Y-106704034D01*
X123133955Y-106751654D01*
X123181574Y-106799273D01*
X123514907Y-106704034D02*
X124133955Y-106704034D01*
X123800621Y-107084987D01*
X123943479Y-107084987D01*
X124038717Y-107132606D01*
X124086336Y-107180225D01*
X124133955Y-107275463D01*
X124133955Y-107513558D01*
X124086336Y-107608796D01*
X124038717Y-107656415D01*
X123943479Y-107704034D01*
X123657764Y-107704034D01*
X123562526Y-107656415D01*
X123514907Y-107608796D01*
%TO.C,R16*%
X134502380Y-102992857D02*
X134026190Y-103326190D01*
X134502380Y-103564285D02*
X133502380Y-103564285D01*
X133502380Y-103183333D01*
X133550000Y-103088095D01*
X133597619Y-103040476D01*
X133692857Y-102992857D01*
X133835714Y-102992857D01*
X133930952Y-103040476D01*
X133978571Y-103088095D01*
X134026190Y-103183333D01*
X134026190Y-103564285D01*
X134502380Y-102040476D02*
X134502380Y-102611904D01*
X134502380Y-102326190D02*
X133502380Y-102326190D01*
X133645238Y-102421428D01*
X133740476Y-102516666D01*
X133788095Y-102611904D01*
X133502380Y-101183333D02*
X133502380Y-101373809D01*
X133550000Y-101469047D01*
X133597619Y-101516666D01*
X133740476Y-101611904D01*
X133930952Y-101659523D01*
X134311904Y-101659523D01*
X134407142Y-101611904D01*
X134454761Y-101564285D01*
X134502380Y-101469047D01*
X134502380Y-101278571D01*
X134454761Y-101183333D01*
X134407142Y-101135714D01*
X134311904Y-101088095D01*
X134073809Y-101088095D01*
X133978571Y-101135714D01*
X133930952Y-101183333D01*
X133883333Y-101278571D01*
X133883333Y-101469047D01*
X133930952Y-101564285D01*
X133978571Y-101611904D01*
X134073809Y-101659523D01*
%TO.C,U5*%
X115238095Y-112439880D02*
X115238095Y-113249404D01*
X115285714Y-113344642D01*
X115333333Y-113392261D01*
X115428571Y-113439880D01*
X115619047Y-113439880D01*
X115714285Y-113392261D01*
X115761904Y-113344642D01*
X115809523Y-113249404D01*
X115809523Y-112439880D01*
X116761904Y-112439880D02*
X116285714Y-112439880D01*
X116238095Y-112916071D01*
X116285714Y-112868452D01*
X116380952Y-112820833D01*
X116619047Y-112820833D01*
X116714285Y-112868452D01*
X116761904Y-112916071D01*
X116809523Y-113011309D01*
X116809523Y-113249404D01*
X116761904Y-113344642D01*
X116714285Y-113392261D01*
X116619047Y-113439880D01*
X116380952Y-113439880D01*
X116285714Y-113392261D01*
X116238095Y-113344642D01*
%TO.C,R19*%
X125402380Y-112642857D02*
X124926190Y-112976190D01*
X125402380Y-113214285D02*
X124402380Y-113214285D01*
X124402380Y-112833333D01*
X124450000Y-112738095D01*
X124497619Y-112690476D01*
X124592857Y-112642857D01*
X124735714Y-112642857D01*
X124830952Y-112690476D01*
X124878571Y-112738095D01*
X124926190Y-112833333D01*
X124926190Y-113214285D01*
X125402380Y-111690476D02*
X125402380Y-112261904D01*
X125402380Y-111976190D02*
X124402380Y-111976190D01*
X124545238Y-112071428D01*
X124640476Y-112166666D01*
X124688095Y-112261904D01*
X125402380Y-111214285D02*
X125402380Y-111023809D01*
X125354761Y-110928571D01*
X125307142Y-110880952D01*
X125164285Y-110785714D01*
X124973809Y-110738095D01*
X124592857Y-110738095D01*
X124497619Y-110785714D01*
X124450000Y-110833333D01*
X124402380Y-110928571D01*
X124402380Y-111119047D01*
X124450000Y-111214285D01*
X124497619Y-111261904D01*
X124592857Y-111309523D01*
X124830952Y-111309523D01*
X124926190Y-111261904D01*
X124973809Y-111214285D01*
X125021428Y-111119047D01*
X125021428Y-110928571D01*
X124973809Y-110833333D01*
X124926190Y-110785714D01*
X124830952Y-110738095D01*
%TO.C,D5*%
X128527629Y-97205876D02*
X128527629Y-96455876D01*
X128706201Y-96455876D01*
X128813343Y-96491591D01*
X128884772Y-96563019D01*
X128920486Y-96634448D01*
X128956201Y-96777305D01*
X128956201Y-96884448D01*
X128920486Y-97027305D01*
X128884772Y-97098733D01*
X128813343Y-97170162D01*
X128706201Y-97205876D01*
X128527629Y-97205876D01*
X129634772Y-96455876D02*
X129277629Y-96455876D01*
X129241915Y-96813019D01*
X129277629Y-96777305D01*
X129349058Y-96741591D01*
X129527629Y-96741591D01*
X129599058Y-96777305D01*
X129634772Y-96813019D01*
X129670486Y-96884448D01*
X129670486Y-97063019D01*
X129634772Y-97134448D01*
X129599058Y-97170162D01*
X129527629Y-97205876D01*
X129349058Y-97205876D01*
X129277629Y-97170162D01*
X129241915Y-97134448D01*
%TO.C,R8*%
X95433333Y-113102380D02*
X95100000Y-112626190D01*
X94861904Y-113102380D02*
X94861904Y-112102380D01*
X95242857Y-112102380D01*
X95338095Y-112150000D01*
X95385714Y-112197619D01*
X95433333Y-112292857D01*
X95433333Y-112435714D01*
X95385714Y-112530952D01*
X95338095Y-112578571D01*
X95242857Y-112626190D01*
X94861904Y-112626190D01*
X96004761Y-112530952D02*
X95909523Y-112483333D01*
X95861904Y-112435714D01*
X95814285Y-112340476D01*
X95814285Y-112292857D01*
X95861904Y-112197619D01*
X95909523Y-112150000D01*
X96004761Y-112102380D01*
X96195238Y-112102380D01*
X96290476Y-112150000D01*
X96338095Y-112197619D01*
X96385714Y-112292857D01*
X96385714Y-112340476D01*
X96338095Y-112435714D01*
X96290476Y-112483333D01*
X96195238Y-112530952D01*
X96004761Y-112530952D01*
X95909523Y-112578571D01*
X95861904Y-112626190D01*
X95814285Y-112721428D01*
X95814285Y-112911904D01*
X95861904Y-113007142D01*
X95909523Y-113054761D01*
X96004761Y-113102380D01*
X96195238Y-113102380D01*
X96290476Y-113054761D01*
X96338095Y-113007142D01*
X96385714Y-112911904D01*
X96385714Y-112721428D01*
X96338095Y-112626190D01*
X96290476Y-112578571D01*
X96195238Y-112530952D01*
%TO.C,R7*%
X98752380Y-112466666D02*
X98276190Y-112800000D01*
X98752380Y-113038095D02*
X97752380Y-113038095D01*
X97752380Y-112657142D01*
X97800000Y-112561904D01*
X97847619Y-112514285D01*
X97942857Y-112466666D01*
X98085714Y-112466666D01*
X98180952Y-112514285D01*
X98228571Y-112561904D01*
X98276190Y-112657142D01*
X98276190Y-113038095D01*
X97752380Y-112133333D02*
X97752380Y-111466666D01*
X98752380Y-111895238D01*
D10*
%TO.C,U1*%
X113678571Y-119039285D02*
X113678571Y-119646428D01*
X113714285Y-119717857D01*
X113750000Y-119753571D01*
X113821428Y-119789285D01*
X113964285Y-119789285D01*
X114035714Y-119753571D01*
X114071428Y-119717857D01*
X114107142Y-119646428D01*
X114107142Y-119039285D01*
X114857142Y-119789285D02*
X114428571Y-119789285D01*
X114642857Y-119789285D02*
X114642857Y-119039285D01*
X114571428Y-119146428D01*
X114500000Y-119217857D01*
X114428571Y-119253571D01*
D12*
%TO.C,C1*%
X117383333Y-114707142D02*
X117335714Y-114754761D01*
X117192857Y-114802380D01*
X117097619Y-114802380D01*
X116954761Y-114754761D01*
X116859523Y-114659523D01*
X116811904Y-114564285D01*
X116764285Y-114373809D01*
X116764285Y-114230952D01*
X116811904Y-114040476D01*
X116859523Y-113945238D01*
X116954761Y-113850000D01*
X117097619Y-113802380D01*
X117192857Y-113802380D01*
X117335714Y-113850000D01*
X117383333Y-113897619D01*
X118335714Y-114802380D02*
X117764285Y-114802380D01*
X118050000Y-114802380D02*
X118050000Y-113802380D01*
X117954761Y-113945238D01*
X117859523Y-114040476D01*
X117764285Y-114088095D01*
D10*
%TO.C,R4*%
X112775000Y-120289285D02*
X112525000Y-119932142D01*
X112346428Y-120289285D02*
X112346428Y-119539285D01*
X112632142Y-119539285D01*
X112703571Y-119575000D01*
X112739285Y-119610714D01*
X112775000Y-119682142D01*
X112775000Y-119789285D01*
X112739285Y-119860714D01*
X112703571Y-119896428D01*
X112632142Y-119932142D01*
X112346428Y-119932142D01*
X113417857Y-119789285D02*
X113417857Y-120289285D01*
X113239285Y-119503571D02*
X113060714Y-120039285D01*
X113525000Y-120039285D01*
D12*
%TO.C,R12*%
X111752380Y-103055357D02*
X111276190Y-103388690D01*
X111752380Y-103626785D02*
X110752380Y-103626785D01*
X110752380Y-103245833D01*
X110800000Y-103150595D01*
X110847619Y-103102976D01*
X110942857Y-103055357D01*
X111085714Y-103055357D01*
X111180952Y-103102976D01*
X111228571Y-103150595D01*
X111276190Y-103245833D01*
X111276190Y-103626785D01*
X111752380Y-102102976D02*
X111752380Y-102674404D01*
X111752380Y-102388690D02*
X110752380Y-102388690D01*
X110895238Y-102483928D01*
X110990476Y-102579166D01*
X111038095Y-102674404D01*
X110847619Y-101722023D02*
X110800000Y-101674404D01*
X110752380Y-101579166D01*
X110752380Y-101341071D01*
X110800000Y-101245833D01*
X110847619Y-101198214D01*
X110942857Y-101150595D01*
X111038095Y-101150595D01*
X111180952Y-101198214D01*
X111752380Y-101769642D01*
X111752380Y-101150595D01*
%TO.C,D1*%
X112311904Y-114902380D02*
X112311904Y-113902380D01*
X112550000Y-113902380D01*
X112692857Y-113950000D01*
X112788095Y-114045238D01*
X112835714Y-114140476D01*
X112883333Y-114330952D01*
X112883333Y-114473809D01*
X112835714Y-114664285D01*
X112788095Y-114759523D01*
X112692857Y-114854761D01*
X112550000Y-114902380D01*
X112311904Y-114902380D01*
X113835714Y-114902380D02*
X113264285Y-114902380D01*
X113550000Y-114902380D02*
X113550000Y-113902380D01*
X113454761Y-114045238D01*
X113359523Y-114140476D01*
X113264285Y-114188095D01*
%TO.C,Q1*%
X103704761Y-115647619D02*
X103609523Y-115600000D01*
X103514285Y-115504761D01*
X103371428Y-115361904D01*
X103276190Y-115314285D01*
X103180952Y-115314285D01*
X103228571Y-115552380D02*
X103133333Y-115504761D01*
X103038095Y-115409523D01*
X102990476Y-115219047D01*
X102990476Y-114885714D01*
X103038095Y-114695238D01*
X103133333Y-114600000D01*
X103228571Y-114552380D01*
X103419047Y-114552380D01*
X103514285Y-114600000D01*
X103609523Y-114695238D01*
X103657142Y-114885714D01*
X103657142Y-115219047D01*
X103609523Y-115409523D01*
X103514285Y-115504761D01*
X103419047Y-115552380D01*
X103228571Y-115552380D01*
X104609523Y-115552380D02*
X104038095Y-115552380D01*
X104323809Y-115552380D02*
X104323809Y-114552380D01*
X104228571Y-114695238D01*
X104133333Y-114790476D01*
X104038095Y-114838095D01*
%TO.C,H3*%
X141988095Y-116052380D02*
X141988095Y-115052380D01*
X141988095Y-115528571D02*
X142559523Y-115528571D01*
X142559523Y-116052380D02*
X142559523Y-115052380D01*
X142940476Y-115052380D02*
X143559523Y-115052380D01*
X143226190Y-115433333D01*
X143369047Y-115433333D01*
X143464285Y-115480952D01*
X143511904Y-115528571D01*
X143559523Y-115623809D01*
X143559523Y-115861904D01*
X143511904Y-115957142D01*
X143464285Y-116004761D01*
X143369047Y-116052380D01*
X143083333Y-116052380D01*
X142988095Y-116004761D01*
X142940476Y-115957142D01*
%TO.C,R14*%
X113152380Y-102992857D02*
X112676190Y-103326190D01*
X113152380Y-103564285D02*
X112152380Y-103564285D01*
X112152380Y-103183333D01*
X112200000Y-103088095D01*
X112247619Y-103040476D01*
X112342857Y-102992857D01*
X112485714Y-102992857D01*
X112580952Y-103040476D01*
X112628571Y-103088095D01*
X112676190Y-103183333D01*
X112676190Y-103564285D01*
X113152380Y-102040476D02*
X113152380Y-102611904D01*
X113152380Y-102326190D02*
X112152380Y-102326190D01*
X112295238Y-102421428D01*
X112390476Y-102516666D01*
X112438095Y-102611904D01*
X112485714Y-101183333D02*
X113152380Y-101183333D01*
X112104761Y-101421428D02*
X112819047Y-101659523D01*
X112819047Y-101040476D01*
%TO.C,R1*%
X100752380Y-112366666D02*
X100276190Y-112700000D01*
X100752380Y-112938095D02*
X99752380Y-112938095D01*
X99752380Y-112557142D01*
X99800000Y-112461904D01*
X99847619Y-112414285D01*
X99942857Y-112366666D01*
X100085714Y-112366666D01*
X100180952Y-112414285D01*
X100228571Y-112461904D01*
X100276190Y-112557142D01*
X100276190Y-112938095D01*
X100752380Y-111414285D02*
X100752380Y-111985714D01*
X100752380Y-111700000D02*
X99752380Y-111700000D01*
X99895238Y-111795238D01*
X99990476Y-111890476D01*
X100038095Y-111985714D01*
%TO.C,R11*%
X124757142Y-121902380D02*
X124423809Y-121426190D01*
X124185714Y-121902380D02*
X124185714Y-120902380D01*
X124566666Y-120902380D01*
X124661904Y-120950000D01*
X124709523Y-120997619D01*
X124757142Y-121092857D01*
X124757142Y-121235714D01*
X124709523Y-121330952D01*
X124661904Y-121378571D01*
X124566666Y-121426190D01*
X124185714Y-121426190D01*
X125709523Y-121902380D02*
X125138095Y-121902380D01*
X125423809Y-121902380D02*
X125423809Y-120902380D01*
X125328571Y-121045238D01*
X125233333Y-121140476D01*
X125138095Y-121188095D01*
X126661904Y-121902380D02*
X126090476Y-121902380D01*
X126376190Y-121902380D02*
X126376190Y-120902380D01*
X126280952Y-121045238D01*
X126185714Y-121140476D01*
X126090476Y-121188095D01*
D10*
%TO.C,J2*%
X138960000Y-114580000D02*
X138960000Y-104420000D01*
X145310000Y-104420000D02*
X137690000Y-104420000D01*
X145310000Y-114580000D02*
X145310000Y-104420000D01*
X137690000Y-114580000D02*
X145310000Y-114580000D01*
X137690000Y-104420000D02*
X137690000Y-114580000D01*
%TO.C,U4*%
X125090000Y-117750000D02*
X125090000Y-119650000D01*
X127410000Y-119150000D02*
X127410000Y-117750000D01*
%TO.C,R15*%
X119226477Y-96840000D02*
X119735925Y-96840000D01*
X119226477Y-97885000D02*
X119735925Y-97885000D01*
%TO.C,C4*%
X119627468Y-99972500D02*
X119334934Y-99972500D01*
X119627468Y-98952500D02*
X119334934Y-98952500D01*
%TO.C,R9*%
X106745276Y-113572500D02*
X107254724Y-113572500D01*
X106745276Y-112527500D02*
X107254724Y-112527500D01*
%TO.C,D2*%
X111250000Y-113350000D02*
X109400000Y-113350000D01*
X111250000Y-112150000D02*
X109400000Y-112150000D01*
X109400000Y-112150000D02*
X109400000Y-113350000D01*
%TO.C,R13*%
X116392031Y-109982776D02*
X116392031Y-110492224D01*
X115347031Y-109982776D02*
X115347031Y-110492224D01*
%TO.C,U2*%
X113895000Y-109645000D02*
X94495000Y-109645000D01*
X94495000Y-96545000D02*
X113895000Y-96545000D01*
X113895000Y-96545000D02*
X113895000Y-109645000D01*
X94945000Y-97095000D02*
X113445000Y-97095000D01*
X113445000Y-97095000D02*
X113445000Y-109095000D01*
X94495000Y-109645000D02*
X94495000Y-96545000D01*
X94945000Y-109095000D02*
X113445000Y-109095000D01*
X94945000Y-97095000D02*
X94945000Y-109095000D01*
%TO.C,R17*%
X131321764Y-106174154D02*
X130812316Y-106174154D01*
X131321764Y-105129154D02*
X130812316Y-105129154D01*
%TO.C,C5*%
X130735000Y-101855339D02*
X130735000Y-102377843D01*
X129265000Y-101855339D02*
X129265000Y-102377843D01*
%TO.C,R3*%
X117745276Y-121722500D02*
X118254724Y-121722500D01*
X117745276Y-120677500D02*
X118254724Y-120677500D01*
%TO.C,R18*%
X124122500Y-118454724D02*
X124122500Y-117945276D01*
X123077500Y-118454724D02*
X123077500Y-117945276D01*
%TO.C,R6*%
X120727500Y-118454724D02*
X120727500Y-117945276D01*
X121772500Y-118454724D02*
X121772500Y-117945276D01*
%TO.C,U3*%
X124693701Y-104151591D02*
X126193701Y-104151591D01*
X124693701Y-100931591D02*
X126193701Y-100931591D01*
X124693701Y-100931591D02*
X121768701Y-100931591D01*
X124693701Y-104151591D02*
X123193701Y-104151591D01*
%TO.C,R5*%
X114272500Y-117204724D02*
X114272500Y-116695276D01*
X113227500Y-117204724D02*
X113227500Y-116695276D01*
%TO.C,C6*%
X121953733Y-115910000D02*
X122246267Y-115910000D01*
X121953733Y-114890000D02*
X122246267Y-114890000D01*
%TO.C,L1*%
X123569949Y-97506591D02*
X124092453Y-97506591D01*
X123569949Y-99726591D02*
X124092453Y-99726591D01*
%TO.C,R10*%
X106745276Y-110627500D02*
X107254724Y-110627500D01*
X106745276Y-111672500D02*
X107254724Y-111672500D01*
%TO.C,D3*%
X111250000Y-111600000D02*
X109400000Y-111600000D01*
X111250000Y-110400000D02*
X109400000Y-110400000D01*
X109400000Y-110400000D02*
X109400000Y-111600000D01*
%TO.C,J1*%
X103662311Y-118900000D02*
G75*
G03*
X103662311Y-118900000I-412311J0D01*
G01*
X102503553Y-116899997D02*
G75*
G03*
X102000000Y-117400000I7J-503573D01*
G01*
X112000000Y-117400000D02*
G75*
G03*
X111500000Y-116900000I-500001J-1D01*
G01*
X102000000Y-120400000D02*
G75*
G03*
X102500000Y-120900000I507200J7200D01*
G01*
X111500000Y-120900000D02*
G75*
G03*
X112000000Y-120400000I-1J500001D01*
G01*
X102000000Y-117400000D02*
X102000000Y-120400000D01*
X111500000Y-116900000D02*
X110400000Y-116900000D01*
X111500000Y-120900000D02*
X110500000Y-120900000D01*
X112000000Y-118900000D02*
X112000000Y-120400000D01*
X108200000Y-120900000D02*
X105700000Y-120900000D01*
X112000000Y-120200000D02*
X112000000Y-117400000D01*
X105700000Y-116900000D02*
X108300000Y-116900000D01*
X102503553Y-116900000D02*
X103550000Y-116900000D01*
X102500000Y-120900000D02*
X103600000Y-120900000D01*
%TO.C,D4*%
X115981201Y-106247500D02*
X118441201Y-106247500D01*
X118441201Y-104777500D02*
X115981201Y-104777500D01*
X118441201Y-106247500D02*
X118441201Y-104777500D01*
%TO.C,C2*%
X119363241Y-104106993D02*
X119363241Y-104629497D01*
X120833241Y-104106993D02*
X120833241Y-104629497D01*
%TO.C,R2*%
X100772500Y-120754724D02*
X100772500Y-120245276D01*
X99727500Y-120754724D02*
X99727500Y-120245276D01*
%TO.C,C7*%
X119746267Y-108977500D02*
X119453733Y-108977500D01*
X119746267Y-109997500D02*
X119453733Y-109997500D01*
%TO.C,C3*%
X123494508Y-106128245D02*
X123201974Y-106128245D01*
X123494508Y-105108245D02*
X123201974Y-105108245D01*
%TO.C,R16*%
X131727500Y-101845276D02*
X131727500Y-102354724D01*
X132772500Y-101845276D02*
X132772500Y-102354724D01*
%TO.C,U5*%
X120319531Y-111077500D02*
X118419531Y-111077500D01*
X118919531Y-113397500D02*
X120319531Y-113397500D01*
%TO.C,R19*%
X123892031Y-112242224D02*
X123892031Y-111732776D01*
X122847031Y-112242224D02*
X122847031Y-111732776D01*
%TO.C,D5*%
X131341201Y-99566591D02*
X131341201Y-97666591D01*
X131341201Y-97666591D02*
X127681201Y-97666591D01*
X131341201Y-99566591D02*
X127681201Y-99566591D01*
%TO.C,R8*%
X95245276Y-114522500D02*
X95754724Y-114522500D01*
X95245276Y-113477500D02*
X95754724Y-113477500D01*
%TO.C,R7*%
X97777500Y-114645276D02*
X97777500Y-115154724D01*
X98822500Y-114645276D02*
X98822500Y-115154724D01*
%TO.C,U1*%
X116800000Y-119610000D02*
X118200000Y-119610000D01*
X118200000Y-117290000D02*
X116300000Y-117290000D01*
%TO.C,C1*%
X117646267Y-116210000D02*
X117353733Y-116210000D01*
X117646267Y-115190000D02*
X117353733Y-115190000D01*
%TO.C,R4*%
X113995276Y-120677500D02*
X114504724Y-120677500D01*
X113995276Y-121722500D02*
X114504724Y-121722500D01*
%TO.C,R12*%
X116353701Y-102095276D02*
X116353701Y-102604724D01*
X115308701Y-102095276D02*
X115308701Y-102604724D01*
%TO.C,D1*%
X109400000Y-113850000D02*
X109400000Y-115050000D01*
X111250000Y-115050000D02*
X109400000Y-115050000D01*
X111250000Y-113850000D02*
X109400000Y-113850000D01*
%TO.C,Q1*%
X104560000Y-112350000D02*
X104560000Y-113000000D01*
X104560000Y-112350000D02*
X104560000Y-110675000D01*
X101440000Y-112350000D02*
X101440000Y-113000000D01*
X101440000Y-112350000D02*
X101440000Y-111700000D01*
%TO.C,R14*%
X117308701Y-102095276D02*
X117308701Y-102604724D01*
X118353701Y-102095276D02*
X118353701Y-102604724D01*
%TO.C,R1*%
X100772500Y-117004724D02*
X100772500Y-116495276D01*
X99727500Y-117004724D02*
X99727500Y-116495276D01*
%TO.C,R11*%
X122529724Y-120677500D02*
X122020276Y-120677500D01*
X122529724Y-121722500D02*
X122020276Y-121722500D01*
%TD*%
M02*
