%TF.GenerationSoftware,KiCad,Pcbnew,7.0.6-0*%
%TF.CreationDate,2024-02-21T20:03:51+01:00*%
%TF.ProjectId,smoke_extractorV1_1,736d6f6b-655f-4657-9874-726163746f72,rev?*%
%TF.SameCoordinates,Original*%
%TF.FileFunction,Copper,L2,Bot*%
%TF.FilePolarity,Positive*%
%FSLAX46Y46*%
G04 Gerber Fmt 4.6, Leading zero omitted, Abs format (unit mm)*
G04 Created by KiCad (PCBNEW 7.0.6-0) date 2024-02-21 20:03:51*
%MOMM*%
%LPD*%
G01*
G04 APERTURE LIST*
G04 Aperture macros list*
%AMRoundRect*
0 Rectangle with rounded corners*
0 $1 Rounding radius*
0 $2 $3 $4 $5 $6 $7 $8 $9 X,Y pos of 4 corners*
0 Add a 4 corners polygon primitive as box body*
4,1,4,$2,$3,$4,$5,$6,$7,$8,$9,$2,$3,0*
0 Add four circle primitives for the rounded corners*
1,1,$1+$1,$2,$3*
1,1,$1+$1,$4,$5*
1,1,$1+$1,$6,$7*
1,1,$1+$1,$8,$9*
0 Add four rect primitives between the rounded corners*
20,1,$1+$1,$2,$3,$4,$5,0*
20,1,$1+$1,$4,$5,$6,$7,0*
20,1,$1+$1,$6,$7,$8,$9,0*
20,1,$1+$1,$8,$9,$2,$3,0*%
G04 Aperture macros list end*
%TA.AperFunction,ComponentPad*%
%ADD10RoundRect,0.200000X-0.200000X-0.200000X0.200000X-0.200000X0.200000X0.200000X-0.200000X0.200000X0*%
%TD*%
%TA.AperFunction,ComponentPad*%
%ADD11RoundRect,0.250000X-0.700000X-0.250000X0.700000X-0.250000X0.700000X0.250000X-0.700000X0.250000X0*%
%TD*%
%TA.AperFunction,ComponentPad*%
%ADD12C,5.700000*%
%TD*%
%TA.AperFunction,ComponentPad*%
%ADD13RoundRect,0.500000X-2.750000X-0.500000X2.750000X-0.500000X2.750000X0.500000X-2.750000X0.500000X0*%
%TD*%
%TA.AperFunction,ComponentPad*%
%ADD14C,2.000000*%
%TD*%
%TA.AperFunction,ComponentPad*%
%ADD15R,1.500000X3.000000*%
%TD*%
%TA.AperFunction,ViaPad*%
%ADD16C,0.600000*%
%TD*%
%TA.AperFunction,Conductor*%
%ADD17C,0.200000*%
%TD*%
%TA.AperFunction,Conductor*%
%ADD18C,0.300000*%
%TD*%
G04 APERTURE END LIST*
D10*
%TO.P,U1,1,GND*%
%TO.N,VBAT-PROTECT*%
X89529275Y-88700000D03*
X89529275Y-90100000D03*
D11*
X90779275Y-87450000D03*
X90779275Y-91350000D03*
X94779275Y-87450000D03*
X94779275Y-91350000D03*
D10*
X96029275Y-88700000D03*
X96029275Y-90100000D03*
%TO.P,U1,2,VCC*%
%TO.N,VBUS*%
X90479275Y-88700000D03*
X90479275Y-90100000D03*
X95079275Y-88700000D03*
X95079275Y-90100000D03*
%TO.P,U1,3,CC1*%
%TO.N,Net-(U1-CC1)*%
X91429275Y-88700000D03*
%TO.P,U1,4,CC2*%
%TO.N,Net-(U1-CC2)*%
X94129275Y-90100000D03*
%TO.P,U1,5,D+*%
%TO.N,unconnected-(U1-D+-Pad5)*%
X92329275Y-88700000D03*
X93229275Y-90100000D03*
%TO.P,U1,6,D-*%
%TO.N,unconnected-(U1-D--Pad6)*%
X92329275Y-90100000D03*
X93229275Y-88700000D03*
%TD*%
D12*
%TO.P,H2,1,1*%
%TO.N,VBAT-PROTECT*%
X67400000Y-69400000D03*
%TD*%
%TO.P,H1,1,1*%
%TO.N,VBAT-PROTECT*%
X140400000Y-69400000D03*
%TD*%
D13*
%TO.P,U2,1,IN*%
%TO.N,VSPLY*%
X110072322Y-71455000D03*
%TO.P,U2,2,OUT*%
%TO.N,V_SWITCH*%
X120072322Y-71455000D03*
%TD*%
D14*
%TO.P,SW1,1,1*%
%TO.N,Net-(D2-A)*%
X112600000Y-91700000D03*
X106100000Y-91700000D03*
%TO.P,SW1,2,2*%
%TO.N,VBAT+PROTECT*%
X112600000Y-87200000D03*
X106100000Y-87200000D03*
%TD*%
D15*
%TO.P,U6,1,V+*%
%TO.N,Net-(U6-V+)*%
X140148053Y-83926017D03*
%TO.P,U6,2,V-*%
%TO.N,Net-(IC1-GND)*%
X67648053Y-83926017D03*
%TD*%
D16*
%TO.N,VBUS*%
X78000000Y-84000000D03*
%TO.N,VBAT-PROTECT*%
X81325000Y-74250000D03*
X81325000Y-78500000D03*
X79675000Y-84100000D03*
X81325000Y-75100000D03*
X86400000Y-75000000D03*
X81325000Y-76800000D03*
X81325000Y-75950000D03*
X81325000Y-77650000D03*
X90800000Y-79400000D03*
%TO.N,Net-(U6-V+)*%
X89000000Y-84000000D03*
%TO.N,Net-(IC1-VCC)*%
X84175000Y-89600000D03*
X73175000Y-88500000D03*
%TO.N,Net-(IC1-GND)*%
X84175000Y-91400000D03*
X73475000Y-92200000D03*
%TO.N,Net-(D2-A)*%
X87400000Y-75200000D03*
X92400000Y-74600000D03*
%TO.N,VBAT+PROTECT*%
X84000000Y-84100000D03*
%TO.N,Net-(U3-POS_1)*%
X86200000Y-78400000D03*
X89400000Y-80800000D03*
%TO.N,Net-(U3-NEG3)*%
X89800000Y-78400000D03*
X85400000Y-75200000D03*
%TO.N,Net-(U3-POS_3)*%
X84400000Y-78600000D03*
X88400000Y-78800000D03*
%TO.N,Net-(U3-OUT1)*%
X94400000Y-75000000D03*
X88400000Y-74400000D03*
%TO.N,Net-(U5-~{CHRG})*%
X80775000Y-88100000D03*
X72175000Y-84300000D03*
%TO.N,Net-(U5-~{STDBY})*%
X74175000Y-84400000D03*
X81875000Y-87300000D03*
%TD*%
D17*
%TO.N,VBUS*%
X80720000Y-86720000D02*
X86541163Y-86720000D01*
X90479275Y-89320725D02*
X90479275Y-88700000D01*
X89201163Y-89380000D02*
X90420000Y-89380000D01*
X90479275Y-88700000D02*
X90479275Y-90100000D01*
X78000000Y-84000000D02*
X80720000Y-86720000D01*
X90420000Y-89380000D02*
X90479275Y-89320725D01*
X86541163Y-86720000D02*
X89201163Y-89380000D01*
D18*
%TO.N,Net-(U6-V+)*%
X89026017Y-83973983D02*
X89000000Y-84000000D01*
X89026017Y-83926017D02*
X140148053Y-83926017D01*
X89026017Y-83926017D02*
X89026017Y-83973983D01*
%TO.N,Net-(IC1-VCC)*%
X73205000Y-88530000D02*
X80205000Y-88530000D01*
X73175000Y-88500000D02*
X73205000Y-88530000D01*
X81275000Y-89600000D02*
X84175000Y-89600000D01*
X80205000Y-88530000D02*
X81275000Y-89600000D01*
%TO.N,Net-(IC1-GND)*%
X73475000Y-92200000D02*
X73475000Y-91550000D01*
X76065000Y-88960000D02*
X80026888Y-88960000D01*
X73475000Y-91550000D02*
X76065000Y-88960000D01*
X80026888Y-88960000D02*
X81096888Y-90030000D01*
X82805000Y-90030000D02*
X84175000Y-91400000D01*
X81096888Y-90030000D02*
X82805000Y-90030000D01*
D17*
%TO.N,Net-(D2-A)*%
X91800000Y-75200000D02*
X87400000Y-75200000D01*
X92400000Y-74600000D02*
X91800000Y-75200000D01*
D18*
%TO.N,VBAT+PROTECT*%
X84530000Y-84630000D02*
X89970000Y-84630000D01*
X103256017Y-84356017D02*
X106100000Y-87200000D01*
X84000000Y-84100000D02*
X84530000Y-84630000D01*
X89970000Y-84630000D02*
X90243983Y-84356017D01*
X90243983Y-84356017D02*
X103256017Y-84356017D01*
D17*
%TO.N,Net-(U3-POS_1)*%
X87820000Y-78686690D02*
X87820000Y-79040244D01*
X87820000Y-79040244D02*
X89400000Y-80620244D01*
X89400000Y-80620244D02*
X89400000Y-80800000D01*
X86450000Y-78150000D02*
X87283310Y-78150000D01*
X86200000Y-78400000D02*
X86450000Y-78150000D01*
X87283310Y-78150000D02*
X87820000Y-78686690D01*
%TO.N,Net-(U3-NEG3)*%
X88900000Y-78400000D02*
X88720000Y-78220000D01*
X85400000Y-75333310D02*
X85400000Y-75200000D01*
X88720000Y-78220000D02*
X88286690Y-78220000D01*
X88286690Y-78220000D02*
X85400000Y-75333310D01*
X89800000Y-78400000D02*
X88900000Y-78400000D01*
%TO.N,Net-(U3-POS_3)*%
X84400000Y-78600000D02*
X85180000Y-77820000D01*
X85180000Y-77820000D02*
X87420000Y-77820000D01*
X87420000Y-77820000D02*
X88400000Y-78800000D01*
%TO.N,Net-(U3-OUT1)*%
X91663310Y-74870000D02*
X91820000Y-74713310D01*
X93400000Y-74600000D02*
X94000000Y-74600000D01*
X91820000Y-74713310D02*
X91820000Y-74359756D01*
X92159756Y-74020000D02*
X92820000Y-74020000D01*
X92820000Y-74020000D02*
X93400000Y-74600000D01*
X91820000Y-74359756D02*
X92159756Y-74020000D01*
X88870000Y-74870000D02*
X91663310Y-74870000D01*
X94000000Y-74600000D02*
X94400000Y-75000000D01*
X88400000Y-74400000D02*
X88870000Y-74870000D01*
D18*
%TO.N,Net-(U5-~{CHRG})*%
X75975000Y-88100000D02*
X80775000Y-88100000D01*
X72175000Y-84300000D02*
X75975000Y-88100000D01*
%TO.N,Net-(U5-~{STDBY})*%
X80175000Y-87670000D02*
X80545000Y-87300000D01*
X74175000Y-85691888D02*
X76153112Y-87670000D01*
X76153112Y-87670000D02*
X80175000Y-87670000D01*
X74175000Y-84400000D02*
X74175000Y-85691888D01*
X80545000Y-87300000D02*
X81875000Y-87300000D01*
%TD*%
%TA.AperFunction,Conductor*%
%TO.N,VBAT-PROTECT*%
G36*
X140847335Y-65900480D02*
G01*
X140847402Y-65900500D01*
X140898357Y-65900500D01*
X140901639Y-65900586D01*
X140944783Y-65902836D01*
X141031509Y-65907360D01*
X141215738Y-65917672D01*
X141221981Y-65918337D01*
X141371891Y-65941970D01*
X141535511Y-65969643D01*
X141541185Y-65970876D01*
X141692237Y-66011158D01*
X141847781Y-66055755D01*
X141852840Y-66057443D01*
X142000765Y-66113944D01*
X142148903Y-66174996D01*
X142153360Y-66177040D01*
X142295614Y-66249139D01*
X142356094Y-66282384D01*
X142435413Y-66325986D01*
X142439241Y-66328269D01*
X142573830Y-66415172D01*
X142684249Y-66493054D01*
X142703991Y-66506979D01*
X142707174Y-66509378D01*
X142831218Y-66609193D01*
X142833511Y-66611132D01*
X142951507Y-66715879D01*
X142954071Y-66718287D01*
X142987864Y-66751839D01*
X143067113Y-66830524D01*
X143069495Y-66833025D01*
X143175099Y-66950290D01*
X143177052Y-66952565D01*
X143248715Y-67040334D01*
X143277754Y-67075899D01*
X143280177Y-67079065D01*
X143372910Y-67208566D01*
X143460775Y-67342538D01*
X143463086Y-67346348D01*
X143540925Y-67485587D01*
X143614041Y-67627331D01*
X143616126Y-67631794D01*
X143678224Y-67779471D01*
X143735771Y-67926963D01*
X143737515Y-67932070D01*
X143783215Y-68087273D01*
X143824560Y-68237982D01*
X143825847Y-68243704D01*
X143854695Y-68407169D01*
X143879379Y-68556789D01*
X143880095Y-68563082D01*
X143891952Y-68751086D01*
X143899389Y-68876427D01*
X143899500Y-68880160D01*
X143899500Y-91898356D01*
X143899414Y-91901638D01*
X143892642Y-92031456D01*
X143882328Y-92215715D01*
X143881658Y-92222009D01*
X143858039Y-92371822D01*
X143830361Y-92535483D01*
X143829115Y-92541214D01*
X143788846Y-92692219D01*
X143744254Y-92847744D01*
X143742547Y-92852862D01*
X143686060Y-93000753D01*
X143625009Y-93148888D01*
X143622956Y-93153365D01*
X143550864Y-93295607D01*
X143474012Y-93435413D01*
X143471729Y-93439240D01*
X143384830Y-93573826D01*
X143293019Y-93703991D01*
X143290619Y-93707175D01*
X143190835Y-93831182D01*
X143188866Y-93833511D01*
X143084119Y-93951507D01*
X143081711Y-93954071D01*
X142969490Y-94067098D01*
X142966942Y-94069525D01*
X142849721Y-94175088D01*
X142847407Y-94177074D01*
X142724099Y-94277754D01*
X142720933Y-94280176D01*
X142591433Y-94372910D01*
X142457460Y-94460776D01*
X142453650Y-94463086D01*
X142314412Y-94540925D01*
X142172667Y-94614041D01*
X142168204Y-94616126D01*
X142020528Y-94678224D01*
X141873035Y-94735771D01*
X141867929Y-94737515D01*
X141712726Y-94783215D01*
X141562016Y-94824560D01*
X141556294Y-94825847D01*
X141392830Y-94854695D01*
X141243208Y-94879379D01*
X141236915Y-94880095D01*
X141048922Y-94891952D01*
X140923574Y-94899388D01*
X140919841Y-94899499D01*
X66911644Y-94898180D01*
X66908362Y-94898094D01*
X66776539Y-94891217D01*
X66594468Y-94881037D01*
X66588171Y-94880366D01*
X66436479Y-94856452D01*
X66274712Y-94829093D01*
X66268982Y-94827847D01*
X66116776Y-94787258D01*
X65962459Y-94743011D01*
X65957342Y-94741304D01*
X65808523Y-94684462D01*
X65661353Y-94623809D01*
X65656875Y-94621755D01*
X65513850Y-94549266D01*
X65374834Y-94472849D01*
X65371007Y-94470566D01*
X65235774Y-94383247D01*
X65106259Y-94291896D01*
X65103075Y-94289496D01*
X64978491Y-94189246D01*
X64976162Y-94187277D01*
X64858754Y-94083051D01*
X64856189Y-94080643D01*
X64742664Y-93967925D01*
X64740237Y-93965377D01*
X64635167Y-93848704D01*
X64633182Y-93846389D01*
X64532052Y-93722531D01*
X64529629Y-93719364D01*
X64437362Y-93590513D01*
X64408459Y-93546443D01*
X64349076Y-93455900D01*
X64346772Y-93452100D01*
X64269350Y-93313604D01*
X64195854Y-93171121D01*
X64193768Y-93166658D01*
X64132062Y-93019908D01*
X64110115Y-92963660D01*
X64074142Y-92871458D01*
X64072423Y-92866424D01*
X64027078Y-92712425D01*
X63985393Y-92560471D01*
X63984109Y-92554757D01*
X63968248Y-92464876D01*
X63955616Y-92393298D01*
X63930603Y-92241678D01*
X63929890Y-92235413D01*
X63918371Y-92052759D01*
X63910609Y-91921910D01*
X63910498Y-91918208D01*
X63910489Y-91899500D01*
X63907365Y-85438870D01*
X66767553Y-85438870D01*
X66775124Y-85476937D01*
X66803966Y-85520102D01*
X66803967Y-85520103D01*
X66847134Y-85548946D01*
X66885198Y-85556517D01*
X68410907Y-85556516D01*
X68448972Y-85548946D01*
X68492139Y-85520103D01*
X68520982Y-85476936D01*
X68528553Y-85438872D01*
X68528553Y-84300003D01*
X71689559Y-84300003D01*
X71709221Y-84436758D01*
X71709223Y-84436765D01*
X71766621Y-84562449D01*
X71857104Y-84666872D01*
X71973341Y-84741573D01*
X72105915Y-84780500D01*
X72206623Y-84780500D01*
X72274744Y-84800502D01*
X72295718Y-84817405D01*
X75512718Y-88034405D01*
X75546744Y-88096717D01*
X75541679Y-88167532D01*
X75499132Y-88224368D01*
X75432612Y-88249179D01*
X75423623Y-88249500D01*
X73651275Y-88249500D01*
X73583154Y-88229498D01*
X73556050Y-88206012D01*
X73529903Y-88175837D01*
X73492896Y-88133128D01*
X73492895Y-88133127D01*
X73434777Y-88095777D01*
X73376659Y-88058427D01*
X73244085Y-88019500D01*
X73105915Y-88019500D01*
X72973343Y-88058426D01*
X72973339Y-88058428D01*
X72857104Y-88133127D01*
X72766621Y-88237550D01*
X72709223Y-88363234D01*
X72709221Y-88363241D01*
X72689559Y-88499996D01*
X72689559Y-88500003D01*
X72709221Y-88636758D01*
X72709223Y-88636765D01*
X72766621Y-88762449D01*
X72857104Y-88866872D01*
X72973341Y-88941573D01*
X73105915Y-88980500D01*
X73244085Y-88980500D01*
X73376659Y-88941573D01*
X73492896Y-88866872D01*
X73504061Y-88853986D01*
X73563787Y-88815604D01*
X73599285Y-88810500D01*
X75513623Y-88810500D01*
X75581744Y-88830502D01*
X75628237Y-88884158D01*
X75638341Y-88954432D01*
X75608847Y-89019012D01*
X75602719Y-89025593D01*
X74441704Y-90186608D01*
X73318390Y-91309922D01*
X73311805Y-91315653D01*
X73303033Y-91322277D01*
X73273054Y-91355161D01*
X73271050Y-91357261D01*
X73258274Y-91370039D01*
X73258267Y-91370046D01*
X73257048Y-91371826D01*
X73251641Y-91378649D01*
X73232386Y-91399773D01*
X73232380Y-91399782D01*
X73230472Y-91404707D01*
X73216940Y-91430378D01*
X73213957Y-91434732D01*
X73213954Y-91434740D01*
X73207409Y-91462567D01*
X73204826Y-91470907D01*
X73194500Y-91497564D01*
X73194500Y-91502837D01*
X73191154Y-91531678D01*
X73189960Y-91536758D01*
X73189945Y-91536822D01*
X73193895Y-91565140D01*
X73194500Y-91573854D01*
X73194500Y-91743181D01*
X73174498Y-91811302D01*
X73162143Y-91825571D01*
X73163005Y-91826318D01*
X73066621Y-91937550D01*
X73009223Y-92063234D01*
X73009221Y-92063241D01*
X72989559Y-92199996D01*
X72989559Y-92200003D01*
X73009221Y-92336758D01*
X73009223Y-92336765D01*
X73066621Y-92462449D01*
X73157104Y-92566872D01*
X73273341Y-92641573D01*
X73405915Y-92680500D01*
X73544085Y-92680500D01*
X73676659Y-92641573D01*
X73792896Y-92566872D01*
X73883379Y-92462449D01*
X73940777Y-92336765D01*
X73946396Y-92297682D01*
X73960441Y-92200003D01*
X73960441Y-92199996D01*
X73940778Y-92063241D01*
X73940777Y-92063240D01*
X73940777Y-92063235D01*
X73883379Y-91937551D01*
X73792896Y-91833128D01*
X73792895Y-91833127D01*
X73786995Y-91826318D01*
X73789697Y-91823976D01*
X73760576Y-91778585D01*
X73755500Y-91743181D01*
X73755500Y-91718376D01*
X73775502Y-91650255D01*
X73792405Y-91629281D01*
X76144282Y-89277405D01*
X76206594Y-89243379D01*
X76233377Y-89240500D01*
X79858511Y-89240500D01*
X79926632Y-89260502D01*
X79947606Y-89277405D01*
X80856816Y-90186615D01*
X80862543Y-90193196D01*
X80869165Y-90201965D01*
X80902059Y-90231952D01*
X80904143Y-90233942D01*
X80916925Y-90246724D01*
X80918689Y-90247932D01*
X80925542Y-90253359D01*
X80946666Y-90272617D01*
X80951584Y-90274522D01*
X80977273Y-90288063D01*
X80981626Y-90291045D01*
X81009468Y-90297592D01*
X81017786Y-90300168D01*
X81044453Y-90310500D01*
X81049725Y-90310500D01*
X81078573Y-90313847D01*
X81083709Y-90315055D01*
X81102093Y-90312490D01*
X81112028Y-90311105D01*
X81120742Y-90310500D01*
X82636623Y-90310500D01*
X82704744Y-90330502D01*
X82725718Y-90347405D01*
X83656117Y-91277804D01*
X83690143Y-91340116D01*
X83691740Y-91384828D01*
X83689559Y-91399999D01*
X83689559Y-91400003D01*
X83709221Y-91536758D01*
X83709223Y-91536765D01*
X83766621Y-91662449D01*
X83857104Y-91766872D01*
X83973341Y-91841573D01*
X84105915Y-91880500D01*
X84244085Y-91880500D01*
X84376659Y-91841573D01*
X84492896Y-91766872D01*
X84550841Y-91700000D01*
X104964657Y-91700000D01*
X104983988Y-91908620D01*
X105041322Y-92110128D01*
X105041324Y-92110133D01*
X105134712Y-92297682D01*
X105260970Y-92464875D01*
X105260971Y-92464876D01*
X105415797Y-92606018D01*
X105415811Y-92606029D01*
X105593922Y-92716310D01*
X105593925Y-92716311D01*
X105593934Y-92716317D01*
X105679054Y-92749292D01*
X105789292Y-92792000D01*
X105789295Y-92792000D01*
X105789299Y-92792002D01*
X105995244Y-92830500D01*
X105995247Y-92830500D01*
X106204753Y-92830500D01*
X106204756Y-92830500D01*
X106410701Y-92792002D01*
X106410705Y-92792000D01*
X106410707Y-92792000D01*
X106460948Y-92772535D01*
X106606066Y-92716317D01*
X106726785Y-92641571D01*
X106784188Y-92606029D01*
X106784190Y-92606026D01*
X106784197Y-92606023D01*
X106939029Y-92464876D01*
X107065288Y-92297681D01*
X107158676Y-92110133D01*
X107216012Y-91908619D01*
X107235343Y-91700000D01*
X111464657Y-91700000D01*
X111471939Y-91778585D01*
X111483988Y-91908620D01*
X111541322Y-92110128D01*
X111541324Y-92110133D01*
X111634712Y-92297682D01*
X111760970Y-92464875D01*
X111760971Y-92464876D01*
X111915797Y-92606018D01*
X111915811Y-92606029D01*
X112093922Y-92716310D01*
X112093925Y-92716311D01*
X112093934Y-92716317D01*
X112179054Y-92749292D01*
X112289292Y-92792000D01*
X112289295Y-92792000D01*
X112289299Y-92792002D01*
X112495244Y-92830500D01*
X112495247Y-92830500D01*
X112704753Y-92830500D01*
X112704756Y-92830500D01*
X112910701Y-92792002D01*
X112910705Y-92792000D01*
X112910707Y-92792000D01*
X112960948Y-92772535D01*
X113106066Y-92716317D01*
X113226785Y-92641571D01*
X113284188Y-92606029D01*
X113284190Y-92606026D01*
X113284197Y-92606023D01*
X113439029Y-92464876D01*
X113565288Y-92297681D01*
X113658676Y-92110133D01*
X113716012Y-91908619D01*
X113735343Y-91700000D01*
X113716012Y-91491381D01*
X113658676Y-91289867D01*
X113565288Y-91102319D01*
X113565287Y-91102318D01*
X113565287Y-91102317D01*
X113439029Y-90935124D01*
X113439028Y-90935123D01*
X113284202Y-90793981D01*
X113284188Y-90793970D01*
X113106077Y-90683689D01*
X113106070Y-90683685D01*
X113106066Y-90683683D01*
X113106061Y-90683681D01*
X112910707Y-90607999D01*
X112866605Y-90599755D01*
X112704756Y-90569500D01*
X112495244Y-90569500D01*
X112362387Y-90594335D01*
X112289292Y-90607999D01*
X112093938Y-90683681D01*
X112093922Y-90683689D01*
X111915811Y-90793970D01*
X111915797Y-90793981D01*
X111760971Y-90935123D01*
X111760970Y-90935124D01*
X111634712Y-91102317D01*
X111541324Y-91289866D01*
X111541322Y-91289871D01*
X111483988Y-91491379D01*
X111467790Y-91666186D01*
X111464657Y-91700000D01*
X107235343Y-91700000D01*
X107216012Y-91491381D01*
X107158676Y-91289867D01*
X107065288Y-91102319D01*
X107065287Y-91102318D01*
X107065287Y-91102317D01*
X106939029Y-90935124D01*
X106939028Y-90935123D01*
X106784202Y-90793981D01*
X106784188Y-90793970D01*
X106606077Y-90683689D01*
X106606070Y-90683685D01*
X106606066Y-90683683D01*
X106606061Y-90683681D01*
X106410707Y-90607999D01*
X106366605Y-90599755D01*
X106204756Y-90569500D01*
X105995244Y-90569500D01*
X105862387Y-90594335D01*
X105789292Y-90607999D01*
X105593938Y-90683681D01*
X105593922Y-90683689D01*
X105415811Y-90793970D01*
X105415797Y-90793981D01*
X105260971Y-90935123D01*
X105260970Y-90935124D01*
X105134712Y-91102317D01*
X105041324Y-91289866D01*
X105041322Y-91289871D01*
X104983988Y-91491379D01*
X104964657Y-91700000D01*
X84550841Y-91700000D01*
X84583379Y-91662449D01*
X84640777Y-91536765D01*
X84644842Y-91508491D01*
X84660441Y-91400003D01*
X84660441Y-91399996D01*
X84640778Y-91263241D01*
X84640777Y-91263240D01*
X84640777Y-91263235D01*
X84583379Y-91137551D01*
X84492896Y-91033128D01*
X84492895Y-91033127D01*
X84401756Y-90974556D01*
X84376659Y-90958427D01*
X84297292Y-90935123D01*
X84244085Y-90919500D01*
X84143377Y-90919500D01*
X84075256Y-90899498D01*
X84054282Y-90882595D01*
X83267282Y-90095595D01*
X83233256Y-90033283D01*
X83238321Y-89962468D01*
X83280868Y-89905632D01*
X83347388Y-89880821D01*
X83356377Y-89880500D01*
X83724720Y-89880500D01*
X83792841Y-89900502D01*
X83819944Y-89923988D01*
X83857101Y-89966870D01*
X83857103Y-89966871D01*
X83857104Y-89966872D01*
X83973341Y-90041573D01*
X84105915Y-90080500D01*
X84244085Y-90080500D01*
X84376659Y-90041573D01*
X84492896Y-89966872D01*
X84583379Y-89862449D01*
X84640777Y-89736765D01*
X84647156Y-89692396D01*
X84660441Y-89600003D01*
X84660441Y-89599996D01*
X84640778Y-89463241D01*
X84640777Y-89463240D01*
X84640777Y-89463235D01*
X84583379Y-89337551D01*
X84492896Y-89233128D01*
X84492895Y-89233127D01*
X84409942Y-89179817D01*
X84376659Y-89158427D01*
X84368931Y-89156158D01*
X84244085Y-89119500D01*
X84105915Y-89119500D01*
X83973343Y-89158426D01*
X83973339Y-89158428D01*
X83857103Y-89233128D01*
X83857101Y-89233129D01*
X83819944Y-89276012D01*
X83760218Y-89314396D01*
X83724720Y-89319500D01*
X81443377Y-89319500D01*
X81375256Y-89299498D01*
X81354282Y-89282595D01*
X80845905Y-88774218D01*
X80811879Y-88711906D01*
X80816944Y-88641091D01*
X80859491Y-88584255D01*
X80899493Y-88564230D01*
X80976659Y-88541573D01*
X81092896Y-88466872D01*
X81183379Y-88362449D01*
X81240777Y-88236765D01*
X81249537Y-88175837D01*
X81260441Y-88100003D01*
X81260441Y-88099996D01*
X81240778Y-87963241D01*
X81240777Y-87963240D01*
X81240777Y-87963235D01*
X81183379Y-87837551D01*
X81169189Y-87821174D01*
X81141320Y-87789012D01*
X81111827Y-87724431D01*
X81121931Y-87654157D01*
X81168424Y-87600502D01*
X81236545Y-87580500D01*
X81424720Y-87580500D01*
X81492841Y-87600502D01*
X81519944Y-87623988D01*
X81557101Y-87666870D01*
X81557103Y-87666871D01*
X81557104Y-87666872D01*
X81673341Y-87741573D01*
X81805915Y-87780500D01*
X81944085Y-87780500D01*
X82076659Y-87741573D01*
X82192896Y-87666872D01*
X82283379Y-87562449D01*
X82340777Y-87436765D01*
X82360441Y-87300000D01*
X82360441Y-87299996D01*
X82340778Y-87163241D01*
X82340777Y-87163240D01*
X82340777Y-87163235D01*
X82325069Y-87128841D01*
X82314967Y-87058568D01*
X82344460Y-86993987D01*
X82404186Y-86955604D01*
X82439684Y-86950500D01*
X86393497Y-86950500D01*
X86461618Y-86970502D01*
X86482591Y-86987404D01*
X89032752Y-89537566D01*
X89035005Y-89539941D01*
X89062649Y-89570644D01*
X89062651Y-89570645D01*
X89081778Y-89579160D01*
X89099140Y-89588586D01*
X89116713Y-89599998D01*
X89118746Y-89600320D01*
X89150289Y-89609663D01*
X89152169Y-89610500D01*
X89173102Y-89610500D01*
X89192811Y-89612051D01*
X89196727Y-89612671D01*
X89213496Y-89615327D01*
X89215485Y-89614793D01*
X89248098Y-89610500D01*
X89851825Y-89610500D01*
X89919946Y-89630502D01*
X89966439Y-89684158D01*
X89976543Y-89754432D01*
X89966019Y-89789751D01*
X89955111Y-89813141D01*
X89950449Y-89848559D01*
X89941936Y-89880330D01*
X89913717Y-89948458D01*
X89893766Y-90099999D01*
X89893766Y-90100000D01*
X89913717Y-90251541D01*
X89941936Y-90319667D01*
X89950449Y-90351440D01*
X89955111Y-90386857D01*
X90004369Y-90492492D01*
X90086782Y-90574905D01*
X90086783Y-90574905D01*
X90086784Y-90574906D01*
X90192416Y-90624163D01*
X90227833Y-90628825D01*
X90259601Y-90637336D01*
X90327734Y-90665558D01*
X90381620Y-90672652D01*
X90446547Y-90701374D01*
X90460399Y-90715062D01*
X90471602Y-90727991D01*
X90477292Y-90736187D01*
X90508414Y-90756187D01*
X90544704Y-90779509D01*
X90612825Y-90799511D01*
X90650996Y-90804999D01*
X90650998Y-90805000D01*
X90651000Y-90805000D01*
X91258428Y-90805000D01*
X91266027Y-90805460D01*
X91310276Y-90810831D01*
X91345468Y-90815103D01*
X91374961Y-90822373D01*
X91394366Y-90829732D01*
X91416175Y-90838005D01*
X91416179Y-90838006D01*
X91439806Y-90844593D01*
X91484487Y-90852781D01*
X91498361Y-90854041D01*
X91501703Y-90854437D01*
X91529375Y-90858469D01*
X91566542Y-90869952D01*
X91604718Y-90888615D01*
X91638474Y-90912717D01*
X91666555Y-90940798D01*
X91690658Y-90974556D01*
X91709313Y-91012717D01*
X91720791Y-91049838D01*
X91721093Y-91051905D01*
X91719982Y-91059754D01*
X91726122Y-91087547D01*
X91726940Y-91092010D01*
X91727328Y-91094660D01*
X91729727Y-91111124D01*
X91730109Y-91111631D01*
X91735246Y-91128929D01*
X91736212Y-91133314D01*
X91737730Y-91137336D01*
X91739810Y-91144310D01*
X91740608Y-91147241D01*
X91770613Y-91268973D01*
X91774275Y-91299128D01*
X91774275Y-91324000D01*
X91774275Y-91324005D01*
X91774276Y-91324016D01*
X91777368Y-91352787D01*
X91777369Y-91352795D01*
X91788757Y-91405145D01*
X91818755Y-91465073D01*
X91856377Y-91508491D01*
X91862067Y-91516687D01*
X91885402Y-91531683D01*
X91929479Y-91560009D01*
X91997600Y-91580011D01*
X92035771Y-91585499D01*
X92035773Y-91585500D01*
X92035775Y-91585500D01*
X93522768Y-91585500D01*
X93522775Y-91585500D01*
X93534860Y-91584200D01*
X93551562Y-91582406D01*
X93551570Y-91582405D01*
X93551572Y-91582404D01*
X93551577Y-91582404D01*
X93603919Y-91571018D01*
X93663850Y-91541018D01*
X93707269Y-91503394D01*
X93715462Y-91497706D01*
X93717506Y-91494525D01*
X93717507Y-91494525D01*
X93758784Y-91430296D01*
X93778786Y-91362175D01*
X93784275Y-91324000D01*
X93784275Y-91299121D01*
X93787936Y-91268970D01*
X93790319Y-91259299D01*
X93817950Y-91147192D01*
X93818724Y-91144355D01*
X93820747Y-91137574D01*
X93821655Y-91136175D01*
X93823010Y-91130064D01*
X93823153Y-91129514D01*
X93823173Y-91129449D01*
X93823316Y-91128800D01*
X93827304Y-91121551D01*
X93830903Y-91096847D01*
X93830911Y-91096812D01*
X93831593Y-91092117D01*
X93832424Y-91087569D01*
X93836268Y-91070169D01*
X93836130Y-91069694D01*
X93837442Y-91051963D01*
X93837741Y-91049907D01*
X93849229Y-91012728D01*
X93867890Y-90974556D01*
X93891992Y-90940797D01*
X93932524Y-90900268D01*
X93934705Y-90897849D01*
X93937211Y-90895071D01*
X93937209Y-90895072D01*
X93955767Y-90872230D01*
X93980303Y-90825995D01*
X93997215Y-90770041D01*
X94036072Y-90710624D01*
X94100885Y-90681644D01*
X94117826Y-90680500D01*
X94167315Y-90680500D01*
X94167322Y-90680500D01*
X94280816Y-90665558D01*
X94348880Y-90637364D01*
X94419469Y-90629776D01*
X94482956Y-90661555D01*
X94496556Y-90677827D01*
X94502402Y-90684574D01*
X94502403Y-90684575D01*
X94528820Y-90715062D01*
X94540023Y-90727991D01*
X94545713Y-90736187D01*
X94576835Y-90756187D01*
X94613125Y-90779509D01*
X94681246Y-90799511D01*
X94719417Y-90804999D01*
X94719419Y-90805000D01*
X94719421Y-90805000D01*
X95258427Y-90805000D01*
X95266026Y-90805460D01*
X95352661Y-90815977D01*
X95360910Y-90817542D01*
X95393459Y-90825993D01*
X95393465Y-90825994D01*
X95393473Y-90825996D01*
X95447141Y-90833863D01*
X95447144Y-90833862D01*
X95447146Y-90833863D01*
X95514140Y-90826753D01*
X95514142Y-90826752D01*
X95514146Y-90826752D01*
X95580666Y-90801941D01*
X95641786Y-90756187D01*
X95684333Y-90699351D01*
X95711015Y-90627816D01*
X95716080Y-90557001D01*
X95716080Y-90556998D01*
X95699849Y-90482393D01*
X95696138Y-90475597D01*
X95694340Y-90472040D01*
X95654618Y-90386857D01*
X95644924Y-90366068D01*
X95634192Y-90329216D01*
X95634209Y-90329344D01*
X95633916Y-90327570D01*
X95641824Y-90258804D01*
X95644080Y-90253360D01*
X95644833Y-90251541D01*
X95664784Y-90100000D01*
X95644833Y-89948459D01*
X95641821Y-89941189D01*
X95633910Y-89872461D01*
X95634209Y-89870649D01*
X95634198Y-89870736D01*
X95644926Y-89833927D01*
X95657687Y-89806560D01*
X95682784Y-89770716D01*
X95699991Y-89753509D01*
X95735835Y-89728412D01*
X95763202Y-89715651D01*
X95800011Y-89704923D01*
X95799930Y-89704934D01*
X95799927Y-89704934D01*
X95802690Y-89704384D01*
X95808619Y-89703205D01*
X95848960Y-89692396D01*
X95857361Y-89689544D01*
X95857364Y-89689542D01*
X95857369Y-89689541D01*
X95857367Y-89689542D01*
X95918685Y-89664141D01*
X95921483Y-89663059D01*
X95924777Y-89661874D01*
X95924795Y-89661869D01*
X95947183Y-89653820D01*
X95990075Y-89628714D01*
X96033493Y-89591092D01*
X96041687Y-89585402D01*
X96043731Y-89582221D01*
X96043732Y-89582221D01*
X96085009Y-89517992D01*
X96105011Y-89449871D01*
X96110500Y-89411696D01*
X96110500Y-89385480D01*
X96110265Y-89379840D01*
X96108285Y-89356130D01*
X96095134Y-89308197D01*
X96082697Y-89282595D01*
X96064113Y-89244340D01*
X96064111Y-89244336D01*
X96012753Y-89187843D01*
X95999592Y-89179822D01*
X95999587Y-89179817D01*
X95962921Y-89157470D01*
X95958121Y-89152191D01*
X95955082Y-89150932D01*
X95937723Y-89142113D01*
X95933686Y-89139652D01*
X95927762Y-89139370D01*
X95920736Y-89136700D01*
X95888362Y-89123280D01*
X95888226Y-89123239D01*
X95857360Y-89110454D01*
X95857359Y-89110453D01*
X95857355Y-89110452D01*
X95853709Y-89109214D01*
X95848962Y-89107603D01*
X95848956Y-89107601D01*
X95848952Y-89107600D01*
X95831280Y-89102865D01*
X95808623Y-89096795D01*
X95808624Y-89096795D01*
X95799916Y-89095063D01*
X95799988Y-89095073D01*
X95763202Y-89084347D01*
X95735832Y-89071584D01*
X95699990Y-89046486D01*
X95682787Y-89029283D01*
X95657687Y-88993436D01*
X95643826Y-88963710D01*
X95634669Y-88936158D01*
X95634263Y-88934209D01*
X95639952Y-88863440D01*
X95641209Y-88860289D01*
X95644833Y-88851541D01*
X95664784Y-88700000D01*
X95644833Y-88548459D01*
X95616611Y-88480326D01*
X95608100Y-88448556D01*
X95603438Y-88413142D01*
X95554180Y-88307507D01*
X95471767Y-88225094D01*
X95366132Y-88175836D01*
X95330716Y-88171174D01*
X95298944Y-88162661D01*
X95230816Y-88134442D01*
X95117324Y-88119500D01*
X95117322Y-88119500D01*
X95041228Y-88119500D01*
X95041225Y-88119500D01*
X94927733Y-88134442D01*
X94859605Y-88162661D01*
X94827834Y-88171174D01*
X94792417Y-88175836D01*
X94686782Y-88225094D01*
X94604369Y-88307507D01*
X94555111Y-88413142D01*
X94550449Y-88448559D01*
X94541936Y-88480330D01*
X94513717Y-88548458D01*
X94506280Y-88604947D01*
X94477557Y-88669874D01*
X94418292Y-88708965D01*
X94381358Y-88714500D01*
X93927192Y-88714500D01*
X93859071Y-88694498D01*
X93812578Y-88640842D01*
X93802270Y-88604947D01*
X93794833Y-88548460D01*
X93794833Y-88548459D01*
X93766611Y-88480326D01*
X93758100Y-88448556D01*
X93753438Y-88413142D01*
X93704180Y-88307507D01*
X93621767Y-88225094D01*
X93516132Y-88175836D01*
X93480716Y-88171174D01*
X93448944Y-88162661D01*
X93380816Y-88134442D01*
X93267324Y-88119500D01*
X93267322Y-88119500D01*
X93191228Y-88119500D01*
X93191225Y-88119500D01*
X93077733Y-88134442D01*
X93009605Y-88162661D01*
X92977834Y-88171174D01*
X92942417Y-88175836D01*
X92832525Y-88227080D01*
X92762333Y-88237741D01*
X92726025Y-88227080D01*
X92616132Y-88175836D01*
X92580716Y-88171174D01*
X92548944Y-88162661D01*
X92480816Y-88134442D01*
X92367324Y-88119500D01*
X92367322Y-88119500D01*
X92291228Y-88119500D01*
X92291225Y-88119500D01*
X92177733Y-88134442D01*
X92109605Y-88162661D01*
X92077834Y-88171174D01*
X92042417Y-88175836D01*
X91932525Y-88227080D01*
X91862333Y-88237741D01*
X91826025Y-88227080D01*
X91716132Y-88175836D01*
X91680716Y-88171174D01*
X91648944Y-88162661D01*
X91580816Y-88134442D01*
X91467324Y-88119500D01*
X91467322Y-88119500D01*
X91391228Y-88119500D01*
X91391225Y-88119500D01*
X91277733Y-88134442D01*
X91209605Y-88162661D01*
X91177834Y-88171174D01*
X91142417Y-88175836D01*
X91036782Y-88225094D01*
X91027755Y-88231416D01*
X91025535Y-88228245D01*
X90981058Y-88252533D01*
X90910243Y-88247468D01*
X90882182Y-88229434D01*
X90880795Y-88231416D01*
X90871767Y-88225094D01*
X90766132Y-88175836D01*
X90730716Y-88171174D01*
X90698944Y-88162661D01*
X90630816Y-88134442D01*
X90517324Y-88119500D01*
X90517322Y-88119500D01*
X90441228Y-88119500D01*
X90441225Y-88119500D01*
X90327733Y-88134442D01*
X90259605Y-88162661D01*
X90227834Y-88171174D01*
X90192417Y-88175836D01*
X90086782Y-88225094D01*
X90004369Y-88307507D01*
X89955111Y-88413142D01*
X89950449Y-88448559D01*
X89941936Y-88480330D01*
X89913717Y-88548458D01*
X89901522Y-88641091D01*
X89893766Y-88700000D01*
X89913717Y-88851541D01*
X89927227Y-88884158D01*
X89941936Y-88919667D01*
X89950449Y-88951440D01*
X89955111Y-88986858D01*
X89955516Y-88988246D01*
X89955512Y-88989905D01*
X89956370Y-88996418D01*
X89955499Y-88996532D01*
X89955372Y-89059242D01*
X89916868Y-89118891D01*
X89852228Y-89148253D01*
X89834548Y-89149500D01*
X89348829Y-89149500D01*
X89280708Y-89129498D01*
X89259734Y-89112595D01*
X88110373Y-87963234D01*
X86709581Y-86562441D01*
X86707329Y-86560068D01*
X86679674Y-86529354D01*
X86679675Y-86529354D01*
X86660547Y-86520838D01*
X86643174Y-86511405D01*
X86625613Y-86500001D01*
X86623572Y-86499678D01*
X86592043Y-86490339D01*
X86590158Y-86489500D01*
X86590157Y-86489500D01*
X86569224Y-86489500D01*
X86549515Y-86487949D01*
X86532195Y-86485206D01*
X86528830Y-86484673D01*
X86528829Y-86484673D01*
X86526841Y-86485206D01*
X86494228Y-86489500D01*
X80867666Y-86489500D01*
X80799545Y-86469498D01*
X80778571Y-86452595D01*
X78509994Y-84184017D01*
X78475968Y-84121705D01*
X78475193Y-84100003D01*
X83514559Y-84100003D01*
X83534221Y-84236758D01*
X83534223Y-84236765D01*
X83591621Y-84362449D01*
X83682104Y-84466872D01*
X83798341Y-84541573D01*
X83930915Y-84580500D01*
X84031623Y-84580500D01*
X84099744Y-84600502D01*
X84120718Y-84617405D01*
X84289928Y-84786615D01*
X84295655Y-84793196D01*
X84302277Y-84801965D01*
X84335171Y-84831952D01*
X84337255Y-84833942D01*
X84350036Y-84846723D01*
X84351803Y-84847933D01*
X84358645Y-84853352D01*
X84379778Y-84872617D01*
X84384695Y-84874522D01*
X84410387Y-84888064D01*
X84414738Y-84891045D01*
X84442578Y-84897592D01*
X84450904Y-84900171D01*
X84477565Y-84910500D01*
X84482842Y-84910500D01*
X84511688Y-84913846D01*
X84516821Y-84915054D01*
X84539208Y-84911931D01*
X84545133Y-84911105D01*
X84553847Y-84910500D01*
X89910990Y-84910500D01*
X89919707Y-84911105D01*
X89930570Y-84912620D01*
X89930576Y-84912622D01*
X89967736Y-84910904D01*
X89975031Y-84910567D01*
X89977941Y-84910500D01*
X89995983Y-84910500D01*
X89995993Y-84910500D01*
X89998105Y-84910105D01*
X90006750Y-84909100D01*
X90035333Y-84907779D01*
X90040154Y-84905650D01*
X90067893Y-84897059D01*
X90073084Y-84896089D01*
X90097391Y-84881037D01*
X90105112Y-84876967D01*
X90131266Y-84865421D01*
X90134995Y-84861691D01*
X90157760Y-84843659D01*
X90162245Y-84840883D01*
X90179477Y-84818062D01*
X90185201Y-84811484D01*
X90323265Y-84673421D01*
X90385579Y-84639396D01*
X90412361Y-84636517D01*
X103087640Y-84636517D01*
X103155761Y-84656519D01*
X103176735Y-84673422D01*
X105060940Y-86557627D01*
X105094966Y-86619939D01*
X105089901Y-86690754D01*
X105084636Y-86702884D01*
X105041323Y-86789868D01*
X105041323Y-86789869D01*
X104983988Y-86991379D01*
X104964657Y-87200000D01*
X104983988Y-87408620D01*
X105041322Y-87610128D01*
X105041324Y-87610133D01*
X105134712Y-87797682D01*
X105260970Y-87964875D01*
X105260971Y-87964876D01*
X105415797Y-88106018D01*
X105415811Y-88106029D01*
X105593922Y-88216310D01*
X105593925Y-88216311D01*
X105593934Y-88216317D01*
X105649236Y-88237741D01*
X105789292Y-88292000D01*
X105789295Y-88292000D01*
X105789299Y-88292002D01*
X105995244Y-88330500D01*
X105995247Y-88330500D01*
X106204753Y-88330500D01*
X106204756Y-88330500D01*
X106410701Y-88292002D01*
X106410705Y-88292000D01*
X106410707Y-88292000D01*
X106460948Y-88272535D01*
X106606066Y-88216317D01*
X106660704Y-88182486D01*
X106784188Y-88106029D01*
X106784190Y-88106026D01*
X106784197Y-88106023D01*
X106939029Y-87964876D01*
X107065288Y-87797681D01*
X107158676Y-87610133D01*
X107216012Y-87408619D01*
X107235343Y-87200000D01*
X111464657Y-87200000D01*
X111483988Y-87408620D01*
X111541322Y-87610128D01*
X111541324Y-87610133D01*
X111634712Y-87797682D01*
X111760970Y-87964875D01*
X111760971Y-87964876D01*
X111915797Y-88106018D01*
X111915811Y-88106029D01*
X112093922Y-88216310D01*
X112093925Y-88216311D01*
X112093934Y-88216317D01*
X112149236Y-88237741D01*
X112289292Y-88292000D01*
X112289295Y-88292000D01*
X112289299Y-88292002D01*
X112495244Y-88330500D01*
X112495247Y-88330500D01*
X112704753Y-88330500D01*
X112704756Y-88330500D01*
X112910701Y-88292002D01*
X112910705Y-88292000D01*
X112910707Y-88292000D01*
X112960948Y-88272535D01*
X113106066Y-88216317D01*
X113160704Y-88182486D01*
X113284188Y-88106029D01*
X113284190Y-88106026D01*
X113284197Y-88106023D01*
X113439029Y-87964876D01*
X113565288Y-87797681D01*
X113658676Y-87610133D01*
X113716012Y-87408619D01*
X113735343Y-87200000D01*
X113716012Y-86991381D01*
X113658676Y-86789867D01*
X113565288Y-86602319D01*
X113565287Y-86602318D01*
X113565287Y-86602317D01*
X113439029Y-86435124D01*
X113439028Y-86435123D01*
X113284202Y-86293981D01*
X113284188Y-86293970D01*
X113106077Y-86183689D01*
X113106070Y-86183685D01*
X113106066Y-86183683D01*
X113106061Y-86183681D01*
X112910707Y-86107999D01*
X112874007Y-86101138D01*
X112704756Y-86069500D01*
X112495244Y-86069500D01*
X112362387Y-86094335D01*
X112289292Y-86107999D01*
X112093938Y-86183681D01*
X112093922Y-86183689D01*
X111915811Y-86293970D01*
X111915797Y-86293981D01*
X111760971Y-86435123D01*
X111760970Y-86435124D01*
X111634712Y-86602317D01*
X111541324Y-86789866D01*
X111541322Y-86789871D01*
X111483988Y-86991379D01*
X111464657Y-87200000D01*
X107235343Y-87200000D01*
X107216012Y-86991381D01*
X107158676Y-86789867D01*
X107065288Y-86602319D01*
X107065287Y-86602318D01*
X107065287Y-86602317D01*
X106939029Y-86435124D01*
X106939028Y-86435123D01*
X106784202Y-86293981D01*
X106784188Y-86293970D01*
X106606077Y-86183689D01*
X106606070Y-86183685D01*
X106606066Y-86183683D01*
X106606061Y-86183681D01*
X106410707Y-86107999D01*
X106374007Y-86101138D01*
X106204756Y-86069500D01*
X105995244Y-86069500D01*
X105789299Y-86107998D01*
X105789297Y-86107998D01*
X105789295Y-86107999D01*
X105588636Y-86185735D01*
X105517890Y-86191691D01*
X105455154Y-86158454D01*
X105454025Y-86157338D01*
X103718299Y-84421612D01*
X103684273Y-84359300D01*
X103689338Y-84288485D01*
X103731885Y-84231649D01*
X103798405Y-84206838D01*
X103807394Y-84206517D01*
X139141554Y-84206517D01*
X139209675Y-84226519D01*
X139256168Y-84280175D01*
X139267554Y-84332517D01*
X139267554Y-85438870D01*
X139275124Y-85476937D01*
X139303966Y-85520102D01*
X139303967Y-85520103D01*
X139347134Y-85548946D01*
X139385198Y-85556517D01*
X140910907Y-85556516D01*
X140948972Y-85548946D01*
X140992139Y-85520103D01*
X141020982Y-85476936D01*
X141028553Y-85438872D01*
X141028552Y-82413163D01*
X141020982Y-82375098D01*
X140992139Y-82331931D01*
X140948972Y-82303088D01*
X140929939Y-82299302D01*
X140910909Y-82295517D01*
X139385199Y-82295517D01*
X139347132Y-82303088D01*
X139303967Y-82331930D01*
X139275124Y-82375098D01*
X139267553Y-82413157D01*
X139267553Y-83519517D01*
X139247551Y-83587638D01*
X139193895Y-83634131D01*
X139141553Y-83645517D01*
X89374171Y-83645517D01*
X89306050Y-83625515D01*
X89247112Y-83587638D01*
X89201659Y-83558427D01*
X89069085Y-83519500D01*
X88930915Y-83519500D01*
X88798343Y-83558426D01*
X88798339Y-83558428D01*
X88682104Y-83633127D01*
X88591621Y-83737550D01*
X88534223Y-83863234D01*
X88534221Y-83863241D01*
X88514559Y-83999996D01*
X88514559Y-84000003D01*
X88534221Y-84136758D01*
X88534223Y-84136765D01*
X88546311Y-84163235D01*
X88549930Y-84171158D01*
X88560033Y-84241432D01*
X88530540Y-84306013D01*
X88470814Y-84344396D01*
X88435316Y-84349500D01*
X84698377Y-84349500D01*
X84630256Y-84329498D01*
X84609281Y-84312595D01*
X84518881Y-84222194D01*
X84484856Y-84159882D01*
X84483260Y-84115167D01*
X84485441Y-84100000D01*
X84485441Y-84099997D01*
X84485441Y-84099996D01*
X84465778Y-83963241D01*
X84465777Y-83963240D01*
X84465777Y-83963235D01*
X84408379Y-83837551D01*
X84317896Y-83733128D01*
X84317895Y-83733127D01*
X84259777Y-83695777D01*
X84201659Y-83658427D01*
X84157691Y-83645517D01*
X84069085Y-83619500D01*
X83930915Y-83619500D01*
X83798343Y-83658426D01*
X83798339Y-83658428D01*
X83682104Y-83733127D01*
X83591621Y-83837550D01*
X83534223Y-83963234D01*
X83534221Y-83963241D01*
X83514559Y-84099996D01*
X83514559Y-84100003D01*
X78475193Y-84100003D01*
X78474371Y-84076990D01*
X78485441Y-84000000D01*
X78485440Y-83999998D01*
X78485441Y-83999996D01*
X78465778Y-83863241D01*
X78465777Y-83863240D01*
X78465777Y-83863235D01*
X78408379Y-83737551D01*
X78317896Y-83633128D01*
X78317895Y-83633127D01*
X78247112Y-83587638D01*
X78201659Y-83558427D01*
X78069085Y-83519500D01*
X77930915Y-83519500D01*
X77798343Y-83558426D01*
X77798339Y-83558428D01*
X77682104Y-83633127D01*
X77591621Y-83737550D01*
X77534223Y-83863234D01*
X77534221Y-83863241D01*
X77514559Y-83999996D01*
X77514559Y-84000003D01*
X77534221Y-84136758D01*
X77534223Y-84136765D01*
X77591621Y-84262449D01*
X77682104Y-84366872D01*
X77798341Y-84441573D01*
X77930915Y-84480500D01*
X78069082Y-84480500D01*
X78069085Y-84480500D01*
X78069087Y-84480499D01*
X78078005Y-84479217D01*
X78078429Y-84482170D01*
X78134387Y-84482166D01*
X78187994Y-84513970D01*
X80497012Y-86822989D01*
X80531038Y-86885301D01*
X80525973Y-86956117D01*
X80483426Y-87012952D01*
X80451712Y-87026889D01*
X80452799Y-87029695D01*
X80441912Y-87033912D01*
X80417613Y-87048958D01*
X80409888Y-87053029D01*
X80383736Y-87064577D01*
X80383732Y-87064580D01*
X80379998Y-87068314D01*
X80357249Y-87086333D01*
X80352757Y-87089114D01*
X80352753Y-87089118D01*
X80335523Y-87111933D01*
X80329791Y-87118520D01*
X80095718Y-87352595D01*
X80033406Y-87386620D01*
X80006622Y-87389500D01*
X76321489Y-87389500D01*
X76253368Y-87369498D01*
X76232394Y-87352595D01*
X74492405Y-85612606D01*
X74458379Y-85550294D01*
X74455500Y-85523511D01*
X74455500Y-84856818D01*
X74475502Y-84788697D01*
X74487861Y-84774433D01*
X74486995Y-84773682D01*
X74492896Y-84766872D01*
X74583379Y-84662449D01*
X74640777Y-84536765D01*
X74641067Y-84534741D01*
X74660441Y-84400003D01*
X74660441Y-84399996D01*
X74640778Y-84263241D01*
X74640777Y-84263240D01*
X74640777Y-84263235D01*
X74583379Y-84137551D01*
X74492896Y-84033128D01*
X74492895Y-84033127D01*
X74434777Y-83995777D01*
X74376659Y-83958427D01*
X74244085Y-83919500D01*
X74105915Y-83919500D01*
X73973343Y-83958426D01*
X73973339Y-83958428D01*
X73857104Y-84033127D01*
X73766621Y-84137550D01*
X73709223Y-84263234D01*
X73709221Y-84263241D01*
X73689559Y-84399996D01*
X73689559Y-84400003D01*
X73709221Y-84536758D01*
X73709223Y-84536765D01*
X73766621Y-84662449D01*
X73863005Y-84773682D01*
X73860291Y-84776032D01*
X73889396Y-84821318D01*
X73894500Y-84856818D01*
X73894500Y-85318623D01*
X73874498Y-85386744D01*
X73820842Y-85433237D01*
X73750568Y-85443341D01*
X73685988Y-85413847D01*
X73679405Y-85407718D01*
X72693882Y-84422195D01*
X72659856Y-84359883D01*
X72658260Y-84315168D01*
X72660441Y-84300000D01*
X72660441Y-84299998D01*
X72660441Y-84299996D01*
X72640778Y-84163241D01*
X72640777Y-84163240D01*
X72640777Y-84163235D01*
X72583379Y-84037551D01*
X72492896Y-83933128D01*
X72492895Y-83933127D01*
X72434777Y-83895777D01*
X72376659Y-83858427D01*
X72305561Y-83837551D01*
X72244085Y-83819500D01*
X72105915Y-83819500D01*
X71973343Y-83858426D01*
X71973339Y-83858428D01*
X71857104Y-83933127D01*
X71766621Y-84037550D01*
X71709223Y-84163234D01*
X71709221Y-84163241D01*
X71689559Y-84299996D01*
X71689559Y-84300003D01*
X68528553Y-84300003D01*
X68528552Y-82413163D01*
X68520982Y-82375098D01*
X68492139Y-82331931D01*
X68448972Y-82303088D01*
X68429939Y-82299302D01*
X68410909Y-82295517D01*
X66885199Y-82295517D01*
X66847132Y-82303088D01*
X66803967Y-82331930D01*
X66775124Y-82375098D01*
X66767553Y-82413157D01*
X66767553Y-85438870D01*
X63907365Y-85438870D01*
X63904058Y-78600003D01*
X83914559Y-78600003D01*
X83934221Y-78736758D01*
X83934223Y-78736765D01*
X83991621Y-78862449D01*
X84082104Y-78966872D01*
X84198341Y-79041573D01*
X84330915Y-79080500D01*
X84469085Y-79080500D01*
X84601659Y-79041573D01*
X84717896Y-78966872D01*
X84808379Y-78862449D01*
X84865777Y-78736765D01*
X84885441Y-78600000D01*
X84885440Y-78599996D01*
X84874371Y-78523010D01*
X84884474Y-78452736D01*
X84909990Y-78415984D01*
X85238571Y-78087404D01*
X85300884Y-78053379D01*
X85327667Y-78050500D01*
X85635316Y-78050500D01*
X85703437Y-78070502D01*
X85749930Y-78124158D01*
X85760034Y-78194432D01*
X85749930Y-78228840D01*
X85744636Y-78240431D01*
X85734223Y-78263234D01*
X85734221Y-78263241D01*
X85714559Y-78399996D01*
X85714559Y-78400003D01*
X85734221Y-78536758D01*
X85734223Y-78536764D01*
X85734223Y-78536765D01*
X85791621Y-78662449D01*
X85882104Y-78766872D01*
X85998341Y-78841573D01*
X86130915Y-78880500D01*
X86269085Y-78880500D01*
X86401659Y-78841573D01*
X86517896Y-78766872D01*
X86608379Y-78662449D01*
X86665777Y-78536765D01*
X86672706Y-78488567D01*
X86702199Y-78423988D01*
X86761925Y-78385604D01*
X86797424Y-78380500D01*
X87135644Y-78380500D01*
X87203765Y-78400502D01*
X87224739Y-78417405D01*
X87552595Y-78745261D01*
X87586621Y-78807573D01*
X87589500Y-78834356D01*
X87589500Y-79032547D01*
X87589414Y-79035819D01*
X87588019Y-79062449D01*
X87587251Y-79077108D01*
X87594755Y-79096656D01*
X87600368Y-79115605D01*
X87603069Y-79128314D01*
X87604723Y-79136093D01*
X87605935Y-79137760D01*
X87621628Y-79166662D01*
X87622365Y-79168583D01*
X87622369Y-79168589D01*
X87637166Y-79183386D01*
X87650007Y-79198420D01*
X87662319Y-79215366D01*
X87664103Y-79216396D01*
X87690203Y-79236423D01*
X88929669Y-80475889D01*
X88963695Y-80538201D01*
X88958630Y-80609016D01*
X88955189Y-80617324D01*
X88934223Y-80663234D01*
X88934221Y-80663241D01*
X88914559Y-80799996D01*
X88914559Y-80800003D01*
X88934221Y-80936758D01*
X88934223Y-80936765D01*
X88991621Y-81062449D01*
X89082104Y-81166872D01*
X89198341Y-81241573D01*
X89330915Y-81280500D01*
X89469085Y-81280500D01*
X89601659Y-81241573D01*
X89717896Y-81166872D01*
X89808379Y-81062449D01*
X89865777Y-80936765D01*
X89885441Y-80800000D01*
X89885441Y-80799996D01*
X89865778Y-80663241D01*
X89865777Y-80663240D01*
X89865777Y-80663235D01*
X89808379Y-80537551D01*
X89717896Y-80433128D01*
X89717895Y-80433127D01*
X89659777Y-80395777D01*
X89601659Y-80358427D01*
X89601656Y-80358426D01*
X89469083Y-80319499D01*
X89460164Y-80318217D01*
X89460686Y-80314585D01*
X89409301Y-80299498D01*
X89388331Y-80282599D01*
X88555197Y-79449465D01*
X88521174Y-79387155D01*
X88526239Y-79316339D01*
X88568786Y-79259504D01*
X88594150Y-79246817D01*
X88593464Y-79245315D01*
X88601649Y-79241575D01*
X88601659Y-79241573D01*
X88717896Y-79166872D01*
X88808379Y-79062449D01*
X88865777Y-78936765D01*
X88879464Y-78841571D01*
X88885441Y-78800003D01*
X88885441Y-78799998D01*
X88881765Y-78774433D01*
X88891868Y-78704159D01*
X88938360Y-78650503D01*
X89006481Y-78630500D01*
X89306395Y-78630500D01*
X89374516Y-78650502D01*
X89401618Y-78673986D01*
X89482104Y-78766872D01*
X89598341Y-78841573D01*
X89730915Y-78880500D01*
X89869085Y-78880500D01*
X90001659Y-78841573D01*
X90117896Y-78766872D01*
X90208379Y-78662449D01*
X90265777Y-78536765D01*
X90282939Y-78417405D01*
X90285441Y-78400003D01*
X90285441Y-78399996D01*
X90265778Y-78263241D01*
X90265777Y-78263240D01*
X90265777Y-78263235D01*
X90208379Y-78137551D01*
X90117896Y-78033128D01*
X90117895Y-78033127D01*
X90051315Y-77990339D01*
X90001659Y-77958427D01*
X89869085Y-77919500D01*
X89730915Y-77919500D01*
X89598343Y-77958426D01*
X89598339Y-77958428D01*
X89482104Y-78033127D01*
X89427234Y-78096450D01*
X89406782Y-78120055D01*
X89401620Y-78126012D01*
X89341893Y-78164396D01*
X89306395Y-78169500D01*
X89047666Y-78169500D01*
X88979545Y-78149498D01*
X88958571Y-78132595D01*
X88944341Y-78118365D01*
X88888419Y-78062443D01*
X88886167Y-78060069D01*
X88858514Y-78029356D01*
X88858509Y-78029353D01*
X88839384Y-78020838D01*
X88822011Y-78011405D01*
X88804450Y-78000001D01*
X88802409Y-77999678D01*
X88770880Y-77990339D01*
X88768995Y-77989500D01*
X88768994Y-77989500D01*
X88748061Y-77989500D01*
X88728352Y-77987949D01*
X88711032Y-77985206D01*
X88707667Y-77984673D01*
X88707666Y-77984673D01*
X88705678Y-77985206D01*
X88673065Y-77989500D01*
X88434356Y-77989500D01*
X88366235Y-77969498D01*
X88345261Y-77952595D01*
X85884891Y-75492224D01*
X85850865Y-75429912D01*
X85855930Y-75359096D01*
X85859365Y-75350804D01*
X85865777Y-75336765D01*
X85885441Y-75200003D01*
X86914559Y-75200003D01*
X86934221Y-75336758D01*
X86934223Y-75336765D01*
X86991621Y-75462449D01*
X87082104Y-75566872D01*
X87198341Y-75641573D01*
X87330915Y-75680500D01*
X87469085Y-75680500D01*
X87601659Y-75641573D01*
X87717896Y-75566872D01*
X87798380Y-75473987D01*
X87858107Y-75435604D01*
X87893605Y-75430500D01*
X91792303Y-75430500D01*
X91795575Y-75430585D01*
X91836864Y-75432749D01*
X91856408Y-75425245D01*
X91875370Y-75419628D01*
X91895847Y-75415277D01*
X91897509Y-75414068D01*
X91926429Y-75398366D01*
X91928344Y-75397632D01*
X91943148Y-75382827D01*
X91958176Y-75369991D01*
X91975122Y-75357681D01*
X91976152Y-75355895D01*
X91996174Y-75329800D01*
X92212007Y-75113968D01*
X92274318Y-75079944D01*
X92321647Y-75081636D01*
X92321995Y-75079217D01*
X92330912Y-75080499D01*
X92330915Y-75080500D01*
X92330918Y-75080500D01*
X92469085Y-75080500D01*
X92601659Y-75041573D01*
X92717896Y-74966872D01*
X92808379Y-74862449D01*
X92865777Y-74736765D01*
X92873324Y-74684274D01*
X92902816Y-74619696D01*
X92962542Y-74581312D01*
X93033539Y-74581312D01*
X93087136Y-74613113D01*
X93231589Y-74757566D01*
X93233842Y-74759941D01*
X93261486Y-74790644D01*
X93261488Y-74790645D01*
X93280615Y-74799160D01*
X93297977Y-74808586D01*
X93315550Y-74819998D01*
X93317583Y-74820320D01*
X93349126Y-74829663D01*
X93351006Y-74830500D01*
X93371939Y-74830500D01*
X93391648Y-74832051D01*
X93412333Y-74835327D01*
X93413249Y-74835081D01*
X93414328Y-74834793D01*
X93446936Y-74830500D01*
X93793518Y-74830500D01*
X93861639Y-74850502D01*
X93908132Y-74904158D01*
X93918235Y-74974429D01*
X93918235Y-74974432D01*
X93918235Y-74974433D01*
X93914559Y-74999998D01*
X93914559Y-75000003D01*
X93934221Y-75136758D01*
X93934223Y-75136765D01*
X93991621Y-75262449D01*
X94082104Y-75366872D01*
X94198341Y-75441573D01*
X94330915Y-75480500D01*
X94469085Y-75480500D01*
X94601659Y-75441573D01*
X94717896Y-75366872D01*
X94808379Y-75262449D01*
X94865777Y-75136765D01*
X94869055Y-75113969D01*
X94885441Y-75000003D01*
X94885441Y-74999996D01*
X94865778Y-74863241D01*
X94865777Y-74863240D01*
X94865777Y-74863235D01*
X94808379Y-74737551D01*
X94717896Y-74633128D01*
X94717895Y-74633127D01*
X94641473Y-74584014D01*
X94601659Y-74558427D01*
X94535128Y-74538892D01*
X94469085Y-74519500D01*
X94330915Y-74519500D01*
X94330911Y-74519501D01*
X94321996Y-74520783D01*
X94321572Y-74517836D01*
X94265565Y-74517819D01*
X94212006Y-74486029D01*
X94202966Y-74476989D01*
X94168418Y-74442441D01*
X94166166Y-74440068D01*
X94138511Y-74409354D01*
X94138512Y-74409354D01*
X94119384Y-74400838D01*
X94102011Y-74391405D01*
X94084450Y-74380001D01*
X94082409Y-74379678D01*
X94050880Y-74370339D01*
X94048995Y-74369500D01*
X94048994Y-74369500D01*
X94028061Y-74369500D01*
X94008352Y-74367949D01*
X93991032Y-74365206D01*
X93987667Y-74364673D01*
X93987666Y-74364673D01*
X93985678Y-74365206D01*
X93953065Y-74369500D01*
X93547667Y-74369500D01*
X93479546Y-74349498D01*
X93458571Y-74332595D01*
X92988428Y-73862451D01*
X92986157Y-73860058D01*
X92958511Y-73829354D01*
X92958512Y-73829354D01*
X92939384Y-73820838D01*
X92922011Y-73811405D01*
X92904450Y-73800001D01*
X92902409Y-73799678D01*
X92870880Y-73790339D01*
X92868995Y-73789500D01*
X92868994Y-73789500D01*
X92848061Y-73789500D01*
X92828352Y-73787949D01*
X92811032Y-73785206D01*
X92807667Y-73784673D01*
X92807666Y-73784673D01*
X92805678Y-73785206D01*
X92773065Y-73789500D01*
X92167453Y-73789500D01*
X92164180Y-73789414D01*
X92122893Y-73787251D01*
X92122891Y-73787251D01*
X92103346Y-73794754D01*
X92084397Y-73800367D01*
X92063908Y-73804723D01*
X92063907Y-73804723D01*
X92062233Y-73805940D01*
X92033344Y-73821625D01*
X92031417Y-73822364D01*
X92031411Y-73822368D01*
X92016611Y-73837168D01*
X92001584Y-73850002D01*
X91984636Y-73862316D01*
X91984633Y-73862319D01*
X91983599Y-73864111D01*
X91963579Y-73890199D01*
X91662449Y-74191328D01*
X91660058Y-74193597D01*
X91629356Y-74221243D01*
X91629353Y-74221246D01*
X91620836Y-74240375D01*
X91611409Y-74257739D01*
X91600003Y-74275304D01*
X91600002Y-74275307D01*
X91599679Y-74277347D01*
X91590341Y-74308872D01*
X91589500Y-74310759D01*
X91589500Y-74331694D01*
X91587949Y-74351405D01*
X91584673Y-74372088D01*
X91585206Y-74374077D01*
X91589500Y-74406692D01*
X91589500Y-74513500D01*
X91569498Y-74581621D01*
X91515842Y-74628114D01*
X91463500Y-74639500D01*
X89017667Y-74639500D01*
X88949546Y-74619498D01*
X88928569Y-74602593D01*
X88909991Y-74584014D01*
X88875968Y-74521701D01*
X88874372Y-74476989D01*
X88885441Y-74400003D01*
X88885441Y-74399996D01*
X88865778Y-74263241D01*
X88865777Y-74263240D01*
X88865777Y-74263235D01*
X88808379Y-74137551D01*
X88717896Y-74033128D01*
X88717895Y-74033127D01*
X88659777Y-73995777D01*
X88601659Y-73958427D01*
X88469085Y-73919500D01*
X88330915Y-73919500D01*
X88198343Y-73958426D01*
X88198339Y-73958428D01*
X88082104Y-74033127D01*
X87991621Y-74137550D01*
X87934223Y-74263234D01*
X87934221Y-74263241D01*
X87914559Y-74399996D01*
X87914559Y-74400003D01*
X87934221Y-74536758D01*
X87934223Y-74536765D01*
X87991621Y-74662449D01*
X88076098Y-74759941D01*
X88077005Y-74760987D01*
X88106498Y-74825568D01*
X88096395Y-74895842D01*
X88049902Y-74949498D01*
X87981781Y-74969500D01*
X87893605Y-74969500D01*
X87825484Y-74949498D01*
X87798380Y-74926012D01*
X87779443Y-74904158D01*
X87717896Y-74833128D01*
X87717895Y-74833127D01*
X87651790Y-74790644D01*
X87601659Y-74758427D01*
X87530561Y-74737551D01*
X87469085Y-74719500D01*
X87330915Y-74719500D01*
X87198343Y-74758426D01*
X87198339Y-74758428D01*
X87082104Y-74833127D01*
X86991621Y-74937550D01*
X86934223Y-75063234D01*
X86934221Y-75063241D01*
X86914559Y-75199996D01*
X86914559Y-75200003D01*
X85885441Y-75200003D01*
X85885441Y-75200000D01*
X85885441Y-75199996D01*
X85865778Y-75063241D01*
X85865777Y-75063240D01*
X85865777Y-75063235D01*
X85808379Y-74937551D01*
X85717896Y-74833128D01*
X85717895Y-74833127D01*
X85651790Y-74790644D01*
X85601659Y-74758427D01*
X85530561Y-74737551D01*
X85469085Y-74719500D01*
X85330915Y-74719500D01*
X85198343Y-74758426D01*
X85198339Y-74758428D01*
X85082104Y-74833127D01*
X84991621Y-74937550D01*
X84934223Y-75063234D01*
X84934221Y-75063241D01*
X84914559Y-75199996D01*
X84914559Y-75200003D01*
X84934221Y-75336758D01*
X84934223Y-75336765D01*
X84991621Y-75462449D01*
X85082104Y-75566872D01*
X85198341Y-75641573D01*
X85330915Y-75680500D01*
X85369024Y-75680500D01*
X85437145Y-75700502D01*
X85458119Y-75717405D01*
X87115119Y-77374405D01*
X87149145Y-77436717D01*
X87144080Y-77507532D01*
X87101533Y-77564368D01*
X87035013Y-77589179D01*
X87026024Y-77589500D01*
X85187697Y-77589500D01*
X85184424Y-77589414D01*
X85143137Y-77587251D01*
X85143135Y-77587251D01*
X85123590Y-77594754D01*
X85104641Y-77600367D01*
X85084152Y-77604723D01*
X85084151Y-77604723D01*
X85082477Y-77605940D01*
X85053588Y-77621625D01*
X85051661Y-77622364D01*
X85051655Y-77622368D01*
X85036855Y-77637168D01*
X85021828Y-77650002D01*
X85004880Y-77662316D01*
X85004877Y-77662319D01*
X85003843Y-77664111D01*
X84983823Y-77690199D01*
X84587991Y-78086030D01*
X84525679Y-78120055D01*
X84478351Y-78118365D01*
X84478004Y-78120783D01*
X84469088Y-78119501D01*
X84469085Y-78119500D01*
X84330915Y-78119500D01*
X84198343Y-78158426D01*
X84198339Y-78158428D01*
X84082104Y-78233127D01*
X83991621Y-78337550D01*
X83934223Y-78463234D01*
X83934221Y-78463241D01*
X83914559Y-78599996D01*
X83914559Y-78600003D01*
X63904058Y-78600003D01*
X63900876Y-72018676D01*
X106691822Y-72018676D01*
X106694634Y-72054414D01*
X106694634Y-72054415D01*
X106739080Y-72207395D01*
X106820167Y-72344505D01*
X106820172Y-72344512D01*
X106932809Y-72457149D01*
X106932816Y-72457154D01*
X107069926Y-72538241D01*
X107069927Y-72538241D01*
X107069930Y-72538243D01*
X107222906Y-72582687D01*
X107230054Y-72583249D01*
X107258646Y-72585500D01*
X107258650Y-72585500D01*
X112885998Y-72585500D01*
X112909823Y-72583624D01*
X112921738Y-72582687D01*
X113074714Y-72538243D01*
X113211831Y-72457152D01*
X113324474Y-72344509D01*
X113405565Y-72207392D01*
X113450009Y-72054416D01*
X113452822Y-72018676D01*
X116691822Y-72018676D01*
X116694634Y-72054414D01*
X116694634Y-72054415D01*
X116739080Y-72207395D01*
X116820167Y-72344505D01*
X116820172Y-72344512D01*
X116932809Y-72457149D01*
X116932816Y-72457154D01*
X117069926Y-72538241D01*
X117069927Y-72538241D01*
X117069930Y-72538243D01*
X117222906Y-72582687D01*
X117230054Y-72583249D01*
X117258646Y-72585500D01*
X117258650Y-72585500D01*
X122885998Y-72585500D01*
X122909823Y-72583624D01*
X122921738Y-72582687D01*
X123074714Y-72538243D01*
X123211831Y-72457152D01*
X123324474Y-72344509D01*
X123405565Y-72207392D01*
X123450009Y-72054416D01*
X123452822Y-72018672D01*
X123452822Y-70891328D01*
X123450009Y-70855584D01*
X123405565Y-70702608D01*
X123324474Y-70565491D01*
X123324473Y-70565490D01*
X123324471Y-70565487D01*
X123211834Y-70452850D01*
X123211827Y-70452845D01*
X123074717Y-70371758D01*
X122921736Y-70327312D01*
X122885998Y-70324500D01*
X122885994Y-70324500D01*
X117258650Y-70324500D01*
X117258646Y-70324500D01*
X117222907Y-70327312D01*
X117222906Y-70327312D01*
X117069926Y-70371758D01*
X116932816Y-70452845D01*
X116932809Y-70452850D01*
X116820172Y-70565487D01*
X116820167Y-70565494D01*
X116739080Y-70702604D01*
X116694634Y-70855584D01*
X116694634Y-70855585D01*
X116691822Y-70891324D01*
X116691822Y-72018676D01*
X113452822Y-72018676D01*
X113452822Y-72018672D01*
X113452822Y-70891328D01*
X113450009Y-70855584D01*
X113405565Y-70702608D01*
X113324474Y-70565491D01*
X113324473Y-70565490D01*
X113324471Y-70565487D01*
X113211834Y-70452850D01*
X113211827Y-70452845D01*
X113074717Y-70371758D01*
X112921736Y-70327312D01*
X112885998Y-70324500D01*
X112885994Y-70324500D01*
X107258650Y-70324500D01*
X107258646Y-70324500D01*
X107222907Y-70327312D01*
X107222906Y-70327312D01*
X107069926Y-70371758D01*
X106932816Y-70452845D01*
X106932809Y-70452850D01*
X106820172Y-70565487D01*
X106820167Y-70565494D01*
X106739080Y-70702604D01*
X106694634Y-70855584D01*
X106694634Y-70855585D01*
X106691822Y-70891324D01*
X106691822Y-72018676D01*
X63900876Y-72018676D01*
X63899349Y-68861899D01*
X63899463Y-68858123D01*
X63919251Y-68530237D01*
X63920061Y-68523289D01*
X63975889Y-68201236D01*
X63977468Y-68194411D01*
X64003422Y-68105167D01*
X64068740Y-67880556D01*
X64071067Y-67873950D01*
X64196654Y-67572182D01*
X64199695Y-67565888D01*
X64358052Y-67279926D01*
X64361760Y-67274031D01*
X64550924Y-67007426D01*
X64555268Y-67001975D01*
X64772868Y-66758067D01*
X64777813Y-66753111D01*
X65021159Y-66534907D01*
X65026636Y-66530520D01*
X65113795Y-66468347D01*
X65292728Y-66340709D01*
X65298637Y-66336972D01*
X65584178Y-66177906D01*
X65590476Y-66174845D01*
X65674161Y-66139769D01*
X65891926Y-66048496D01*
X65898518Y-66046155D01*
X66212140Y-65954091D01*
X66218957Y-65952496D01*
X66540865Y-65895857D01*
X66547828Y-65895029D01*
X66875519Y-65874421D01*
X66879474Y-65874296D01*
X140847335Y-65900480D01*
G37*
%TD.AperFunction*%
%TD*%
%TA.AperFunction,Conductor*%
%TO.N,VBUS*%
G36*
X90844716Y-88870002D02*
G01*
X90891209Y-88923658D01*
X90901517Y-88959554D01*
X90905111Y-88986857D01*
X90954369Y-89092492D01*
X91036782Y-89174905D01*
X91036783Y-89174905D01*
X91036784Y-89174906D01*
X91142416Y-89224163D01*
X91177833Y-89228825D01*
X91209601Y-89237336D01*
X91277734Y-89265558D01*
X91391228Y-89280500D01*
X91391235Y-89280500D01*
X91467315Y-89280500D01*
X91467322Y-89280500D01*
X91580816Y-89265558D01*
X91648951Y-89237335D01*
X91680706Y-89228827D01*
X91716134Y-89224163D01*
X91821766Y-89174906D01*
X91821766Y-89174905D01*
X91826024Y-89172920D01*
X91896216Y-89162258D01*
X91932526Y-89172920D01*
X91936783Y-89174905D01*
X91936784Y-89174906D01*
X92042416Y-89224163D01*
X92077833Y-89228825D01*
X92109601Y-89237336D01*
X92177734Y-89265558D01*
X92250046Y-89275078D01*
X92314973Y-89303800D01*
X92329116Y-89325242D01*
X92341309Y-89305764D01*
X92405534Y-89275505D01*
X92408475Y-89275081D01*
X92480816Y-89265558D01*
X92548951Y-89237335D01*
X92580706Y-89228827D01*
X92616134Y-89224163D01*
X92721766Y-89174906D01*
X92721766Y-89174905D01*
X92726024Y-89172920D01*
X92796216Y-89162258D01*
X92832526Y-89172920D01*
X92836783Y-89174905D01*
X92836784Y-89174906D01*
X92942416Y-89224163D01*
X92977833Y-89228825D01*
X93009601Y-89237336D01*
X93077734Y-89265558D01*
X93150046Y-89275078D01*
X93214973Y-89303800D01*
X93229116Y-89325242D01*
X93241309Y-89305764D01*
X93305534Y-89275505D01*
X93308475Y-89275081D01*
X93380816Y-89265558D01*
X93448951Y-89237335D01*
X93480706Y-89228827D01*
X93516134Y-89224163D01*
X93621766Y-89174906D01*
X93704181Y-89092491D01*
X93753438Y-88986859D01*
X93757032Y-88959554D01*
X93785755Y-88894627D01*
X93845020Y-88855535D01*
X93881955Y-88850000D01*
X95376595Y-88850000D01*
X95444716Y-88870002D01*
X95491209Y-88923658D01*
X95501517Y-88959554D01*
X95505111Y-88986857D01*
X95554369Y-89092492D01*
X95636782Y-89174905D01*
X95636783Y-89174905D01*
X95636784Y-89174906D01*
X95742416Y-89224163D01*
X95777833Y-89228825D01*
X95809601Y-89237336D01*
X95877734Y-89265558D01*
X95877735Y-89265558D01*
X95881609Y-89266596D01*
X95884510Y-89268364D01*
X95885364Y-89268718D01*
X95885308Y-89268851D01*
X95942232Y-89303546D01*
X95973255Y-89367406D01*
X95975000Y-89388303D01*
X95975000Y-89411696D01*
X95954998Y-89479817D01*
X95901342Y-89526310D01*
X95881618Y-89533401D01*
X95877733Y-89534441D01*
X95809605Y-89562661D01*
X95777834Y-89571174D01*
X95742417Y-89575836D01*
X95636782Y-89625094D01*
X95554369Y-89707507D01*
X95505111Y-89813142D01*
X95500449Y-89848559D01*
X95491936Y-89880330D01*
X95463717Y-89948458D01*
X95443766Y-90099999D01*
X95443766Y-90100000D01*
X95463717Y-90251541D01*
X95491936Y-90319667D01*
X95500449Y-90351440D01*
X95505111Y-90386857D01*
X95554369Y-90492492D01*
X95560691Y-90501520D01*
X95557230Y-90503942D01*
X95580925Y-90547334D01*
X95575860Y-90618149D01*
X95533313Y-90674985D01*
X95466793Y-90699796D01*
X95413125Y-90691929D01*
X95393325Y-90684420D01*
X95270444Y-90669500D01*
X95270438Y-90669500D01*
X94719421Y-90669500D01*
X94651300Y-90649498D01*
X94604807Y-90595842D01*
X94594703Y-90525568D01*
X94605226Y-90490250D01*
X94605652Y-90489335D01*
X94653438Y-90386859D01*
X94658102Y-90351431D01*
X94666610Y-90319676D01*
X94694833Y-90251541D01*
X94714784Y-90100000D01*
X94694833Y-89948459D01*
X94666611Y-89880326D01*
X94658100Y-89848556D01*
X94653438Y-89813142D01*
X94604180Y-89707507D01*
X94521767Y-89625094D01*
X94416132Y-89575836D01*
X94380716Y-89571174D01*
X94348944Y-89562661D01*
X94280816Y-89534442D01*
X94167324Y-89519500D01*
X94167322Y-89519500D01*
X94091228Y-89519500D01*
X94091225Y-89519500D01*
X93977733Y-89534442D01*
X93909605Y-89562661D01*
X93877834Y-89571174D01*
X93842417Y-89575836D01*
X93732525Y-89627080D01*
X93662333Y-89637741D01*
X93626025Y-89627080D01*
X93516132Y-89575836D01*
X93480716Y-89571174D01*
X93448944Y-89562661D01*
X93380816Y-89534442D01*
X93372909Y-89533401D01*
X93308501Y-89524921D01*
X93243576Y-89496200D01*
X93229432Y-89474757D01*
X93217240Y-89494236D01*
X93153015Y-89524495D01*
X93150062Y-89524919D01*
X93106192Y-89530695D01*
X93077733Y-89534442D01*
X93009605Y-89562661D01*
X92977834Y-89571174D01*
X92942417Y-89575836D01*
X92832525Y-89627080D01*
X92762333Y-89637741D01*
X92726025Y-89627080D01*
X92616132Y-89575836D01*
X92580716Y-89571174D01*
X92548944Y-89562661D01*
X92480816Y-89534442D01*
X92472909Y-89533401D01*
X92408501Y-89524921D01*
X92343576Y-89496200D01*
X92329432Y-89474757D01*
X92317240Y-89494236D01*
X92253015Y-89524495D01*
X92250062Y-89524919D01*
X92206192Y-89530695D01*
X92177733Y-89534442D01*
X92109605Y-89562661D01*
X92077834Y-89571174D01*
X92042417Y-89575836D01*
X91936782Y-89625094D01*
X91854369Y-89707507D01*
X91805111Y-89813142D01*
X91800449Y-89848559D01*
X91791936Y-89880330D01*
X91763717Y-89948458D01*
X91743766Y-90099999D01*
X91743766Y-90100000D01*
X91763717Y-90251541D01*
X91791936Y-90319667D01*
X91800449Y-90351440D01*
X91805111Y-90386857D01*
X91854369Y-90492492D01*
X91936782Y-90574905D01*
X91936783Y-90574905D01*
X91936784Y-90574906D01*
X92042416Y-90624163D01*
X92077833Y-90628825D01*
X92109601Y-90637336D01*
X92177734Y-90665558D01*
X92291228Y-90680500D01*
X92291235Y-90680500D01*
X92367315Y-90680500D01*
X92367322Y-90680500D01*
X92480816Y-90665558D01*
X92548951Y-90637335D01*
X92580706Y-90628827D01*
X92616134Y-90624163D01*
X92721766Y-90574906D01*
X92721766Y-90574905D01*
X92726024Y-90572920D01*
X92796216Y-90562258D01*
X92832526Y-90572920D01*
X92836783Y-90574905D01*
X92836784Y-90574906D01*
X92942416Y-90624163D01*
X92977833Y-90628825D01*
X93009601Y-90637336D01*
X93077734Y-90665558D01*
X93191228Y-90680500D01*
X93191235Y-90680500D01*
X93267315Y-90680500D01*
X93267322Y-90680500D01*
X93380816Y-90665558D01*
X93448951Y-90637335D01*
X93480706Y-90628827D01*
X93516134Y-90624163D01*
X93621766Y-90574906D01*
X93621766Y-90574905D01*
X93626024Y-90572920D01*
X93696216Y-90562258D01*
X93732525Y-90572919D01*
X93736782Y-90574904D01*
X93736784Y-90574906D01*
X93798396Y-90603636D01*
X93851680Y-90650553D01*
X93871141Y-90718830D01*
X93850599Y-90786790D01*
X93834241Y-90806925D01*
X93765322Y-90875843D01*
X93709552Y-90989925D01*
X93709551Y-90989927D01*
X93698774Y-91063898D01*
X93698719Y-91064659D01*
X93698555Y-91065399D01*
X93698118Y-91068402D01*
X93697899Y-91068370D01*
X93690863Y-91100220D01*
X93688323Y-91106916D01*
X93648775Y-91267370D01*
X93648775Y-91324000D01*
X93628773Y-91392121D01*
X93575117Y-91438614D01*
X93522775Y-91450000D01*
X92035775Y-91450000D01*
X91967654Y-91429998D01*
X91921161Y-91376342D01*
X91909775Y-91324000D01*
X91909775Y-91267373D01*
X91909775Y-91267372D01*
X91870227Y-91106919D01*
X91870226Y-91106917D01*
X91867689Y-91100227D01*
X91860652Y-91068369D01*
X91860432Y-91068402D01*
X91859990Y-91065371D01*
X91859828Y-91064636D01*
X91859775Y-91063908D01*
X91859775Y-91063890D01*
X91848999Y-90989928D01*
X91793226Y-90875843D01*
X91793225Y-90875841D01*
X91703433Y-90786049D01*
X91703431Y-90786048D01*
X91589349Y-90730277D01*
X91589347Y-90730276D01*
X91515386Y-90719500D01*
X91515385Y-90719500D01*
X91508911Y-90719500D01*
X91464230Y-90711312D01*
X91393322Y-90684419D01*
X91270444Y-90669500D01*
X91270438Y-90669500D01*
X90651000Y-90669500D01*
X90582879Y-90649498D01*
X90536386Y-90595842D01*
X90525000Y-90543500D01*
X90525000Y-88976000D01*
X90545002Y-88907879D01*
X90598658Y-88861386D01*
X90651000Y-88850000D01*
X90776595Y-88850000D01*
X90844716Y-88870002D01*
G37*
%TD.AperFunction*%
%TD*%
M02*
