%TF.GenerationSoftware,KiCad,Pcbnew,7.0.6-0*%
%TF.CreationDate,2024-02-21T20:03:51+01:00*%
%TF.ProjectId,smoke_extractorV1_1,736d6f6b-655f-4657-9874-726163746f72,rev?*%
%TF.SameCoordinates,Original*%
%TF.FileFunction,Legend,Top*%
%TF.FilePolarity,Positive*%
%FSLAX46Y46*%
G04 Gerber Fmt 4.6, Leading zero omitted, Abs format (unit mm)*
G04 Created by KiCad (PCBNEW 7.0.6-0) date 2024-02-21 20:03:51*
%MOMM*%
%LPD*%
G01*
G04 APERTURE LIST*
G04 Aperture macros list*
%AMRoundRect*
0 Rectangle with rounded corners*
0 $1 Rounding radius*
0 $2 $3 $4 $5 $6 $7 $8 $9 X,Y pos of 4 corners*
0 Add a 4 corners polygon primitive as box body*
4,1,4,$2,$3,$4,$5,$6,$7,$8,$9,$2,$3,0*
0 Add four circle primitives for the rounded corners*
1,1,$1+$1,$2,$3*
1,1,$1+$1,$4,$5*
1,1,$1+$1,$6,$7*
1,1,$1+$1,$8,$9*
0 Add four rect primitives between the rounded corners*
20,1,$1+$1,$2,$3,$4,$5,0*
20,1,$1+$1,$4,$5,$6,$7,0*
20,1,$1+$1,$6,$7,$8,$9,0*
20,1,$1+$1,$8,$9,$2,$3,0*%
G04 Aperture macros list end*
%ADD10C,0.120000*%
%ADD11C,0.150000*%
%ADD12C,0.152400*%
%ADD13RoundRect,0.250000X1.000000X0.650000X-1.000000X0.650000X-1.000000X-0.650000X1.000000X-0.650000X0*%
%ADD14RoundRect,0.237500X0.250000X0.237500X-0.250000X0.237500X-0.250000X-0.237500X0.250000X-0.237500X0*%
%ADD15RoundRect,0.237500X0.237500X-0.250000X0.237500X0.250000X-0.237500X0.250000X-0.237500X-0.250000X0*%
%ADD16RoundRect,0.200000X-0.200000X-0.200000X0.200000X-0.200000X0.200000X0.200000X-0.200000X0.200000X0*%
%ADD17RoundRect,0.250000X-0.700000X-0.250000X0.700000X-0.250000X0.700000X0.250000X-0.700000X0.250000X0*%
%ADD18RoundRect,0.237500X0.300000X0.237500X-0.300000X0.237500X-0.300000X-0.237500X0.300000X-0.237500X0*%
%ADD19R,2.000000X2.000000*%
%ADD20RoundRect,0.250000X-0.475000X0.337500X-0.475000X-0.337500X0.475000X-0.337500X0.475000X0.337500X0*%
%ADD21C,5.700000*%
%ADD22RoundRect,0.237500X-0.237500X0.300000X-0.237500X-0.300000X0.237500X-0.300000X0.237500X0.300000X0*%
%ADD23R,2.500000X1.800000*%
%ADD24RoundRect,0.237500X-0.287500X-0.237500X0.287500X-0.237500X0.287500X0.237500X-0.287500X0.237500X0*%
%ADD25RoundRect,0.237500X0.287500X0.237500X-0.287500X0.237500X-0.287500X-0.237500X0.287500X-0.237500X0*%
%ADD26RoundRect,0.237500X0.237500X-0.287500X0.237500X0.287500X-0.237500X0.287500X-0.237500X-0.287500X0*%
%ADD27R,0.650000X1.560000*%
%ADD28R,1.560000X0.650000*%
%ADD29RoundRect,0.150000X0.150000X-0.587500X0.150000X0.587500X-0.150000X0.587500X-0.150000X-0.587500X0*%
%ADD30RoundRect,0.250000X-0.450000X0.350000X-0.450000X-0.350000X0.450000X-0.350000X0.450000X0.350000X0*%
%ADD31RoundRect,0.237500X0.237500X-0.300000X0.237500X0.300000X-0.237500X0.300000X-0.237500X-0.300000X0*%
%ADD32RoundRect,0.237500X-0.250000X-0.237500X0.250000X-0.237500X0.250000X0.237500X-0.250000X0.237500X0*%
%ADD33RoundRect,0.500000X-2.750000X-0.500000X2.750000X-0.500000X2.750000X0.500000X-2.750000X0.500000X0*%
%ADD34RoundRect,0.237500X-0.237500X0.250000X-0.237500X-0.250000X0.237500X-0.250000X0.237500X0.250000X0*%
%ADD35RoundRect,0.150000X0.150000X-0.675000X0.150000X0.675000X-0.150000X0.675000X-0.150000X-0.675000X0*%
%ADD36C,2.000000*%
%ADD37R,0.508000X1.981200*%
%ADD38R,2.150000X5.500000*%
%ADD39R,2.500000X2.500000*%
%ADD40R,1.500000X3.000000*%
G04 APERTURE END LIST*
D10*
X115748117Y-85579058D02*
X130810000Y-85579058D01*
X130810000Y-93240941D01*
X115748117Y-93240941D01*
X115748117Y-85579058D01*
D11*
X116442969Y-91213057D02*
X116442969Y-90313057D01*
X116442969Y-90313057D02*
X116957255Y-91213057D01*
X116957255Y-91213057D02*
X116957255Y-90313057D01*
X117771541Y-90613057D02*
X117771541Y-91213057D01*
X117385826Y-90613057D02*
X117385826Y-91084485D01*
X117385826Y-91084485D02*
X117428683Y-91170200D01*
X117428683Y-91170200D02*
X117514398Y-91213057D01*
X117514398Y-91213057D02*
X117642969Y-91213057D01*
X117642969Y-91213057D02*
X117728683Y-91170200D01*
X117728683Y-91170200D02*
X117771541Y-91127342D01*
X118200112Y-90613057D02*
X118200112Y-91213057D01*
X118200112Y-90698771D02*
X118242969Y-90655914D01*
X118242969Y-90655914D02*
X118328684Y-90613057D01*
X118328684Y-90613057D02*
X118457255Y-90613057D01*
X118457255Y-90613057D02*
X118542969Y-90655914D01*
X118542969Y-90655914D02*
X118585827Y-90741628D01*
X118585827Y-90741628D02*
X118585827Y-91213057D01*
X119142970Y-91213057D02*
X119057255Y-91170200D01*
X119057255Y-91170200D02*
X119014398Y-91127342D01*
X119014398Y-91127342D02*
X118971541Y-91041628D01*
X118971541Y-91041628D02*
X118971541Y-90784485D01*
X118971541Y-90784485D02*
X119014398Y-90698771D01*
X119014398Y-90698771D02*
X119057255Y-90655914D01*
X119057255Y-90655914D02*
X119142970Y-90613057D01*
X119142970Y-90613057D02*
X119271541Y-90613057D01*
X119271541Y-90613057D02*
X119357255Y-90655914D01*
X119357255Y-90655914D02*
X119400113Y-90698771D01*
X119400113Y-90698771D02*
X119442970Y-90784485D01*
X119442970Y-90784485D02*
X119442970Y-91041628D01*
X119442970Y-91041628D02*
X119400113Y-91127342D01*
X119400113Y-91127342D02*
X119357255Y-91170200D01*
X119357255Y-91170200D02*
X119271541Y-91213057D01*
X119271541Y-91213057D02*
X119142970Y-91213057D01*
X120514398Y-91213057D02*
X120514398Y-90313057D01*
X120514398Y-90313057D02*
X121028684Y-91213057D01*
X121028684Y-91213057D02*
X121028684Y-90313057D01*
X121585827Y-91213057D02*
X121500112Y-91170200D01*
X121500112Y-91170200D02*
X121457255Y-91127342D01*
X121457255Y-91127342D02*
X121414398Y-91041628D01*
X121414398Y-91041628D02*
X121414398Y-90784485D01*
X121414398Y-90784485D02*
X121457255Y-90698771D01*
X121457255Y-90698771D02*
X121500112Y-90655914D01*
X121500112Y-90655914D02*
X121585827Y-90613057D01*
X121585827Y-90613057D02*
X121714398Y-90613057D01*
X121714398Y-90613057D02*
X121800112Y-90655914D01*
X121800112Y-90655914D02*
X121842970Y-90698771D01*
X121842970Y-90698771D02*
X121885827Y-90784485D01*
X121885827Y-90784485D02*
X121885827Y-91041628D01*
X121885827Y-91041628D02*
X121842970Y-91127342D01*
X121842970Y-91127342D02*
X121800112Y-91170200D01*
X121800112Y-91170200D02*
X121714398Y-91213057D01*
X121714398Y-91213057D02*
X121585827Y-91213057D01*
X122657256Y-90613057D02*
X122657256Y-91341628D01*
X122657256Y-91341628D02*
X122614398Y-91427342D01*
X122614398Y-91427342D02*
X122571541Y-91470200D01*
X122571541Y-91470200D02*
X122485827Y-91513057D01*
X122485827Y-91513057D02*
X122357256Y-91513057D01*
X122357256Y-91513057D02*
X122271541Y-91470200D01*
X122657256Y-91170200D02*
X122571541Y-91213057D01*
X122571541Y-91213057D02*
X122400113Y-91213057D01*
X122400113Y-91213057D02*
X122314398Y-91170200D01*
X122314398Y-91170200D02*
X122271541Y-91127342D01*
X122271541Y-91127342D02*
X122228684Y-91041628D01*
X122228684Y-91041628D02*
X122228684Y-90784485D01*
X122228684Y-90784485D02*
X122271541Y-90698771D01*
X122271541Y-90698771D02*
X122314398Y-90655914D01*
X122314398Y-90655914D02*
X122400113Y-90613057D01*
X122400113Y-90613057D02*
X122571541Y-90613057D01*
X122571541Y-90613057D02*
X122657256Y-90655914D01*
X123471542Y-90613057D02*
X123471542Y-91213057D01*
X123085827Y-90613057D02*
X123085827Y-91084485D01*
X123085827Y-91084485D02*
X123128684Y-91170200D01*
X123128684Y-91170200D02*
X123214399Y-91213057D01*
X123214399Y-91213057D02*
X123342970Y-91213057D01*
X123342970Y-91213057D02*
X123428684Y-91170200D01*
X123428684Y-91170200D02*
X123471542Y-91127342D01*
X124242970Y-91170200D02*
X124157256Y-91213057D01*
X124157256Y-91213057D02*
X123985828Y-91213057D01*
X123985828Y-91213057D02*
X123900113Y-91170200D01*
X123900113Y-91170200D02*
X123857256Y-91084485D01*
X123857256Y-91084485D02*
X123857256Y-90741628D01*
X123857256Y-90741628D02*
X123900113Y-90655914D01*
X123900113Y-90655914D02*
X123985828Y-90613057D01*
X123985828Y-90613057D02*
X124157256Y-90613057D01*
X124157256Y-90613057D02*
X124242970Y-90655914D01*
X124242970Y-90655914D02*
X124285828Y-90741628D01*
X124285828Y-90741628D02*
X124285828Y-90827342D01*
X124285828Y-90827342D02*
X123857256Y-90913057D01*
X124671542Y-91213057D02*
X124671542Y-90613057D01*
X124671542Y-90313057D02*
X124628685Y-90355914D01*
X124628685Y-90355914D02*
X124671542Y-90398771D01*
X124671542Y-90398771D02*
X124714399Y-90355914D01*
X124714399Y-90355914D02*
X124671542Y-90313057D01*
X124671542Y-90313057D02*
X124671542Y-90398771D01*
X125100113Y-91213057D02*
X125100113Y-90613057D01*
X125100113Y-90784485D02*
X125142970Y-90698771D01*
X125142970Y-90698771D02*
X125185828Y-90655914D01*
X125185828Y-90655914D02*
X125271542Y-90613057D01*
X125271542Y-90613057D02*
X125357256Y-90613057D01*
X126042971Y-91213057D02*
X126042971Y-90741628D01*
X126042971Y-90741628D02*
X126000113Y-90655914D01*
X126000113Y-90655914D02*
X125914399Y-90613057D01*
X125914399Y-90613057D02*
X125742971Y-90613057D01*
X125742971Y-90613057D02*
X125657256Y-90655914D01*
X126042971Y-91170200D02*
X125957256Y-91213057D01*
X125957256Y-91213057D02*
X125742971Y-91213057D01*
X125742971Y-91213057D02*
X125657256Y-91170200D01*
X125657256Y-91170200D02*
X125614399Y-91084485D01*
X125614399Y-91084485D02*
X125614399Y-90998771D01*
X125614399Y-90998771D02*
X125657256Y-90913057D01*
X125657256Y-90913057D02*
X125742971Y-90870200D01*
X125742971Y-90870200D02*
X125957256Y-90870200D01*
X125957256Y-90870200D02*
X126042971Y-90827342D01*
X116400112Y-91847771D02*
X116442969Y-91804914D01*
X116442969Y-91804914D02*
X116528684Y-91762057D01*
X116528684Y-91762057D02*
X116742969Y-91762057D01*
X116742969Y-91762057D02*
X116828684Y-91804914D01*
X116828684Y-91804914D02*
X116871541Y-91847771D01*
X116871541Y-91847771D02*
X116914398Y-91933485D01*
X116914398Y-91933485D02*
X116914398Y-92019200D01*
X116914398Y-92019200D02*
X116871541Y-92147771D01*
X116871541Y-92147771D02*
X116357255Y-92662057D01*
X116357255Y-92662057D02*
X116914398Y-92662057D01*
X117771541Y-92662057D02*
X117257255Y-92662057D01*
X117514398Y-92662057D02*
X117514398Y-91762057D01*
X117514398Y-91762057D02*
X117428684Y-91890628D01*
X117428684Y-91890628D02*
X117342969Y-91976342D01*
X117342969Y-91976342D02*
X117257255Y-92019200D01*
X118800112Y-91719200D02*
X118028684Y-92876342D01*
X119271541Y-91762057D02*
X119357255Y-91762057D01*
X119357255Y-91762057D02*
X119442969Y-91804914D01*
X119442969Y-91804914D02*
X119485827Y-91847771D01*
X119485827Y-91847771D02*
X119528684Y-91933485D01*
X119528684Y-91933485D02*
X119571541Y-92104914D01*
X119571541Y-92104914D02*
X119571541Y-92319200D01*
X119571541Y-92319200D02*
X119528684Y-92490628D01*
X119528684Y-92490628D02*
X119485827Y-92576342D01*
X119485827Y-92576342D02*
X119442969Y-92619200D01*
X119442969Y-92619200D02*
X119357255Y-92662057D01*
X119357255Y-92662057D02*
X119271541Y-92662057D01*
X119271541Y-92662057D02*
X119185827Y-92619200D01*
X119185827Y-92619200D02*
X119142969Y-92576342D01*
X119142969Y-92576342D02*
X119100112Y-92490628D01*
X119100112Y-92490628D02*
X119057255Y-92319200D01*
X119057255Y-92319200D02*
X119057255Y-92104914D01*
X119057255Y-92104914D02*
X119100112Y-91933485D01*
X119100112Y-91933485D02*
X119142969Y-91847771D01*
X119142969Y-91847771D02*
X119185827Y-91804914D01*
X119185827Y-91804914D02*
X119271541Y-91762057D01*
X119914398Y-91847771D02*
X119957255Y-91804914D01*
X119957255Y-91804914D02*
X120042970Y-91762057D01*
X120042970Y-91762057D02*
X120257255Y-91762057D01*
X120257255Y-91762057D02*
X120342970Y-91804914D01*
X120342970Y-91804914D02*
X120385827Y-91847771D01*
X120385827Y-91847771D02*
X120428684Y-91933485D01*
X120428684Y-91933485D02*
X120428684Y-92019200D01*
X120428684Y-92019200D02*
X120385827Y-92147771D01*
X120385827Y-92147771D02*
X119871541Y-92662057D01*
X119871541Y-92662057D02*
X120428684Y-92662057D01*
X121457255Y-91719200D02*
X120685827Y-92876342D01*
X121714398Y-91847771D02*
X121757255Y-91804914D01*
X121757255Y-91804914D02*
X121842970Y-91762057D01*
X121842970Y-91762057D02*
X122057255Y-91762057D01*
X122057255Y-91762057D02*
X122142970Y-91804914D01*
X122142970Y-91804914D02*
X122185827Y-91847771D01*
X122185827Y-91847771D02*
X122228684Y-91933485D01*
X122228684Y-91933485D02*
X122228684Y-92019200D01*
X122228684Y-92019200D02*
X122185827Y-92147771D01*
X122185827Y-92147771D02*
X121671541Y-92662057D01*
X121671541Y-92662057D02*
X122228684Y-92662057D01*
X122785827Y-91762057D02*
X122871541Y-91762057D01*
X122871541Y-91762057D02*
X122957255Y-91804914D01*
X122957255Y-91804914D02*
X123000113Y-91847771D01*
X123000113Y-91847771D02*
X123042970Y-91933485D01*
X123042970Y-91933485D02*
X123085827Y-92104914D01*
X123085827Y-92104914D02*
X123085827Y-92319200D01*
X123085827Y-92319200D02*
X123042970Y-92490628D01*
X123042970Y-92490628D02*
X123000113Y-92576342D01*
X123000113Y-92576342D02*
X122957255Y-92619200D01*
X122957255Y-92619200D02*
X122871541Y-92662057D01*
X122871541Y-92662057D02*
X122785827Y-92662057D01*
X122785827Y-92662057D02*
X122700113Y-92619200D01*
X122700113Y-92619200D02*
X122657255Y-92576342D01*
X122657255Y-92576342D02*
X122614398Y-92490628D01*
X122614398Y-92490628D02*
X122571541Y-92319200D01*
X122571541Y-92319200D02*
X122571541Y-92104914D01*
X122571541Y-92104914D02*
X122614398Y-91933485D01*
X122614398Y-91933485D02*
X122657255Y-91847771D01*
X122657255Y-91847771D02*
X122700113Y-91804914D01*
X122700113Y-91804914D02*
X122785827Y-91762057D01*
X123428684Y-91847771D02*
X123471541Y-91804914D01*
X123471541Y-91804914D02*
X123557256Y-91762057D01*
X123557256Y-91762057D02*
X123771541Y-91762057D01*
X123771541Y-91762057D02*
X123857256Y-91804914D01*
X123857256Y-91804914D02*
X123900113Y-91847771D01*
X123900113Y-91847771D02*
X123942970Y-91933485D01*
X123942970Y-91933485D02*
X123942970Y-92019200D01*
X123942970Y-92019200D02*
X123900113Y-92147771D01*
X123900113Y-92147771D02*
X123385827Y-92662057D01*
X123385827Y-92662057D02*
X123942970Y-92662057D01*
X124714399Y-92062057D02*
X124714399Y-92662057D01*
X124500113Y-91719200D02*
X124285827Y-92362057D01*
X124285827Y-92362057D02*
X124842970Y-92362057D01*
X116419160Y-87092200D02*
X116562017Y-87139819D01*
X116562017Y-87139819D02*
X116800112Y-87139819D01*
X116800112Y-87139819D02*
X116895350Y-87092200D01*
X116895350Y-87092200D02*
X116942969Y-87044580D01*
X116942969Y-87044580D02*
X116990588Y-86949342D01*
X116990588Y-86949342D02*
X116990588Y-86854104D01*
X116990588Y-86854104D02*
X116942969Y-86758866D01*
X116942969Y-86758866D02*
X116895350Y-86711247D01*
X116895350Y-86711247D02*
X116800112Y-86663628D01*
X116800112Y-86663628D02*
X116609636Y-86616009D01*
X116609636Y-86616009D02*
X116514398Y-86568390D01*
X116514398Y-86568390D02*
X116466779Y-86520771D01*
X116466779Y-86520771D02*
X116419160Y-86425533D01*
X116419160Y-86425533D02*
X116419160Y-86330295D01*
X116419160Y-86330295D02*
X116466779Y-86235057D01*
X116466779Y-86235057D02*
X116514398Y-86187438D01*
X116514398Y-86187438D02*
X116609636Y-86139819D01*
X116609636Y-86139819D02*
X116847731Y-86139819D01*
X116847731Y-86139819D02*
X116990588Y-86187438D01*
X117419160Y-87139819D02*
X117419160Y-86139819D01*
X117419160Y-86139819D02*
X117752493Y-86854104D01*
X117752493Y-86854104D02*
X118085826Y-86139819D01*
X118085826Y-86139819D02*
X118085826Y-87139819D01*
X118752493Y-86139819D02*
X118942969Y-86139819D01*
X118942969Y-86139819D02*
X119038207Y-86187438D01*
X119038207Y-86187438D02*
X119133445Y-86282676D01*
X119133445Y-86282676D02*
X119181064Y-86473152D01*
X119181064Y-86473152D02*
X119181064Y-86806485D01*
X119181064Y-86806485D02*
X119133445Y-86996961D01*
X119133445Y-86996961D02*
X119038207Y-87092200D01*
X119038207Y-87092200D02*
X118942969Y-87139819D01*
X118942969Y-87139819D02*
X118752493Y-87139819D01*
X118752493Y-87139819D02*
X118657255Y-87092200D01*
X118657255Y-87092200D02*
X118562017Y-86996961D01*
X118562017Y-86996961D02*
X118514398Y-86806485D01*
X118514398Y-86806485D02*
X118514398Y-86473152D01*
X118514398Y-86473152D02*
X118562017Y-86282676D01*
X118562017Y-86282676D02*
X118657255Y-86187438D01*
X118657255Y-86187438D02*
X118752493Y-86139819D01*
X119609636Y-87139819D02*
X119609636Y-86139819D01*
X120181064Y-87139819D02*
X119752493Y-86568390D01*
X120181064Y-86139819D02*
X119609636Y-86711247D01*
X120609636Y-86616009D02*
X120942969Y-86616009D01*
X121085826Y-87139819D02*
X120609636Y-87139819D01*
X120609636Y-87139819D02*
X120609636Y-86139819D01*
X120609636Y-86139819D02*
X121085826Y-86139819D01*
X122276303Y-86616009D02*
X122609636Y-86616009D01*
X122752493Y-87139819D02*
X122276303Y-87139819D01*
X122276303Y-87139819D02*
X122276303Y-86139819D01*
X122276303Y-86139819D02*
X122752493Y-86139819D01*
X123085827Y-86139819D02*
X123752493Y-87139819D01*
X123752493Y-86139819D02*
X123085827Y-87139819D01*
X123990589Y-86139819D02*
X124562017Y-86139819D01*
X124276303Y-87139819D02*
X124276303Y-86139819D01*
X125466779Y-87139819D02*
X125133446Y-86663628D01*
X124895351Y-87139819D02*
X124895351Y-86139819D01*
X124895351Y-86139819D02*
X125276303Y-86139819D01*
X125276303Y-86139819D02*
X125371541Y-86187438D01*
X125371541Y-86187438D02*
X125419160Y-86235057D01*
X125419160Y-86235057D02*
X125466779Y-86330295D01*
X125466779Y-86330295D02*
X125466779Y-86473152D01*
X125466779Y-86473152D02*
X125419160Y-86568390D01*
X125419160Y-86568390D02*
X125371541Y-86616009D01*
X125371541Y-86616009D02*
X125276303Y-86663628D01*
X125276303Y-86663628D02*
X124895351Y-86663628D01*
X125847732Y-86854104D02*
X126323922Y-86854104D01*
X125752494Y-87139819D02*
X126085827Y-86139819D01*
X126085827Y-86139819D02*
X126419160Y-87139819D01*
X127323922Y-87044580D02*
X127276303Y-87092200D01*
X127276303Y-87092200D02*
X127133446Y-87139819D01*
X127133446Y-87139819D02*
X127038208Y-87139819D01*
X127038208Y-87139819D02*
X126895351Y-87092200D01*
X126895351Y-87092200D02*
X126800113Y-86996961D01*
X126800113Y-86996961D02*
X126752494Y-86901723D01*
X126752494Y-86901723D02*
X126704875Y-86711247D01*
X126704875Y-86711247D02*
X126704875Y-86568390D01*
X126704875Y-86568390D02*
X126752494Y-86377914D01*
X126752494Y-86377914D02*
X126800113Y-86282676D01*
X126800113Y-86282676D02*
X126895351Y-86187438D01*
X126895351Y-86187438D02*
X127038208Y-86139819D01*
X127038208Y-86139819D02*
X127133446Y-86139819D01*
X127133446Y-86139819D02*
X127276303Y-86187438D01*
X127276303Y-86187438D02*
X127323922Y-86235057D01*
X127609637Y-86139819D02*
X128181065Y-86139819D01*
X127895351Y-87139819D02*
X127895351Y-86139819D01*
X128704875Y-86139819D02*
X128895351Y-86139819D01*
X128895351Y-86139819D02*
X128990589Y-86187438D01*
X128990589Y-86187438D02*
X129085827Y-86282676D01*
X129085827Y-86282676D02*
X129133446Y-86473152D01*
X129133446Y-86473152D02*
X129133446Y-86806485D01*
X129133446Y-86806485D02*
X129085827Y-86996961D01*
X129085827Y-86996961D02*
X128990589Y-87092200D01*
X128990589Y-87092200D02*
X128895351Y-87139819D01*
X128895351Y-87139819D02*
X128704875Y-87139819D01*
X128704875Y-87139819D02*
X128609637Y-87092200D01*
X128609637Y-87092200D02*
X128514399Y-86996961D01*
X128514399Y-86996961D02*
X128466780Y-86806485D01*
X128466780Y-86806485D02*
X128466780Y-86473152D01*
X128466780Y-86473152D02*
X128514399Y-86282676D01*
X128514399Y-86282676D02*
X128609637Y-86187438D01*
X128609637Y-86187438D02*
X128704875Y-86139819D01*
X130133446Y-87139819D02*
X129800113Y-86663628D01*
X129562018Y-87139819D02*
X129562018Y-86139819D01*
X129562018Y-86139819D02*
X129942970Y-86139819D01*
X129942970Y-86139819D02*
X130038208Y-86187438D01*
X130038208Y-86187438D02*
X130085827Y-86235057D01*
X130085827Y-86235057D02*
X130133446Y-86330295D01*
X130133446Y-86330295D02*
X130133446Y-86473152D01*
X130133446Y-86473152D02*
X130085827Y-86568390D01*
X130085827Y-86568390D02*
X130038208Y-86616009D01*
X130038208Y-86616009D02*
X129942970Y-86663628D01*
X129942970Y-86663628D02*
X129562018Y-86663628D01*
X116323922Y-87749819D02*
X116657255Y-88749819D01*
X116657255Y-88749819D02*
X116990588Y-87749819D01*
X117276303Y-87845057D02*
X117323922Y-87797438D01*
X117323922Y-87797438D02*
X117419160Y-87749819D01*
X117419160Y-87749819D02*
X117657255Y-87749819D01*
X117657255Y-87749819D02*
X117752493Y-87797438D01*
X117752493Y-87797438D02*
X117800112Y-87845057D01*
X117800112Y-87845057D02*
X117847731Y-87940295D01*
X117847731Y-87940295D02*
X117847731Y-88035533D01*
X117847731Y-88035533D02*
X117800112Y-88178390D01*
X117800112Y-88178390D02*
X117228684Y-88749819D01*
X117228684Y-88749819D02*
X117847731Y-88749819D01*
X118276303Y-88654580D02*
X118323922Y-88702200D01*
X118323922Y-88702200D02*
X118276303Y-88749819D01*
X118276303Y-88749819D02*
X118228684Y-88702200D01*
X118228684Y-88702200D02*
X118276303Y-88654580D01*
X118276303Y-88654580D02*
X118276303Y-88749819D01*
X118942969Y-87749819D02*
X119038207Y-87749819D01*
X119038207Y-87749819D02*
X119133445Y-87797438D01*
X119133445Y-87797438D02*
X119181064Y-87845057D01*
X119181064Y-87845057D02*
X119228683Y-87940295D01*
X119228683Y-87940295D02*
X119276302Y-88130771D01*
X119276302Y-88130771D02*
X119276302Y-88368866D01*
X119276302Y-88368866D02*
X119228683Y-88559342D01*
X119228683Y-88559342D02*
X119181064Y-88654580D01*
X119181064Y-88654580D02*
X119133445Y-88702200D01*
X119133445Y-88702200D02*
X119038207Y-88749819D01*
X119038207Y-88749819D02*
X118942969Y-88749819D01*
X118942969Y-88749819D02*
X118847731Y-88702200D01*
X118847731Y-88702200D02*
X118800112Y-88654580D01*
X118800112Y-88654580D02*
X118752493Y-88559342D01*
X118752493Y-88559342D02*
X118704874Y-88368866D01*
X118704874Y-88368866D02*
X118704874Y-88130771D01*
X118704874Y-88130771D02*
X118752493Y-87940295D01*
X118752493Y-87940295D02*
X118800112Y-87845057D01*
X118800112Y-87845057D02*
X118847731Y-87797438D01*
X118847731Y-87797438D02*
X118942969Y-87749819D01*
X120133445Y-87749819D02*
X119942969Y-87749819D01*
X119942969Y-87749819D02*
X119847731Y-87797438D01*
X119847731Y-87797438D02*
X119800112Y-87845057D01*
X119800112Y-87845057D02*
X119704874Y-87987914D01*
X119704874Y-87987914D02*
X119657255Y-88178390D01*
X119657255Y-88178390D02*
X119657255Y-88559342D01*
X119657255Y-88559342D02*
X119704874Y-88654580D01*
X119704874Y-88654580D02*
X119752493Y-88702200D01*
X119752493Y-88702200D02*
X119847731Y-88749819D01*
X119847731Y-88749819D02*
X120038207Y-88749819D01*
X120038207Y-88749819D02*
X120133445Y-88702200D01*
X120133445Y-88702200D02*
X120181064Y-88654580D01*
X120181064Y-88654580D02*
X120228683Y-88559342D01*
X120228683Y-88559342D02*
X120228683Y-88321247D01*
X120228683Y-88321247D02*
X120181064Y-88226009D01*
X120181064Y-88226009D02*
X120133445Y-88178390D01*
X120133445Y-88178390D02*
X120038207Y-88130771D01*
X120038207Y-88130771D02*
X119847731Y-88130771D01*
X119847731Y-88130771D02*
X119752493Y-88178390D01*
X119752493Y-88178390D02*
X119704874Y-88226009D01*
X119704874Y-88226009D02*
X119657255Y-88321247D01*
D10*
%TO.C,D5*%
X80348087Y-76546187D02*
X80348087Y-73246187D01*
X80348087Y-76546187D02*
X74838087Y-76546187D01*
X80348087Y-73246187D02*
X74838087Y-73246187D01*
%TO.C,R14*%
X94587224Y-76450100D02*
X94077776Y-76450100D01*
X94587224Y-75405100D02*
X94077776Y-75405100D01*
%TO.C,kibuzzard-65B1691E*%
G36*
X69641630Y-77405677D02*
G01*
X69703225Y-77408535D01*
X69783235Y-77434570D01*
X69804825Y-77512675D01*
X69783870Y-77611100D01*
X69705765Y-77638405D01*
X69541935Y-77638405D01*
X69541935Y-77405995D01*
X69596545Y-77404725D01*
X69641630Y-77405677D01*
G37*
G36*
X71024448Y-78408448D02*
G01*
X70759865Y-78408448D01*
X70466495Y-78408448D01*
X70014375Y-78408448D01*
X69219355Y-78408448D01*
X68180495Y-78408448D01*
X67840135Y-78408448D01*
X67575552Y-78408448D01*
X67575552Y-77701905D01*
X67840135Y-77701905D01*
X67843522Y-77809008D01*
X67853682Y-77898332D01*
X67870615Y-77969875D01*
X67911572Y-78050361D01*
X67973485Y-78103860D01*
X68028659Y-78126085D01*
X68097663Y-78139420D01*
X68180495Y-78143865D01*
X68281936Y-78138309D01*
X68357660Y-78121640D01*
X68412111Y-78091477D01*
X68449735Y-78045440D01*
X68473230Y-77980194D01*
X68485295Y-77892405D01*
X68326545Y-77892405D01*
X68285905Y-77981940D01*
X68244312Y-77999561D01*
X68180495Y-78005435D01*
X68118582Y-77998609D01*
X68072545Y-77978130D01*
X68040001Y-77941459D01*
X68018570Y-77886055D01*
X68006664Y-77807633D01*
X68002695Y-77701905D01*
X68006664Y-77594907D01*
X68018570Y-77515215D01*
X68040001Y-77458859D01*
X68072545Y-77421870D01*
X68118582Y-77401391D01*
X68180495Y-77394565D01*
X68238280Y-77400915D01*
X68277015Y-77419965D01*
X68302097Y-77456477D01*
X68318925Y-77515215D01*
X68477675Y-77515215D01*
X68467832Y-77425204D01*
X68445925Y-77358370D01*
X68409412Y-77311062D01*
X68355755Y-77279630D01*
X68309851Y-77268835D01*
X68602135Y-77268835D01*
X68602135Y-78132435D01*
X68764695Y-78132435D01*
X68764695Y-77755245D01*
X69056795Y-77755245D01*
X69056795Y-78132435D01*
X69219355Y-78132435D01*
X69380645Y-78132435D01*
X69541935Y-78132435D01*
X69541935Y-77779375D01*
X69623215Y-77779375D01*
X69690525Y-77784296D01*
X69734975Y-77799060D01*
X69780695Y-77874625D01*
X69840385Y-78132435D01*
X70014375Y-78132435D01*
X69941985Y-77863195D01*
X69920236Y-77799377D01*
X69895630Y-77757785D01*
X69816255Y-77718415D01*
X69816255Y-77706985D01*
X69836293Y-77700635D01*
X70108355Y-77700635D01*
X70111953Y-77807809D01*
X70122748Y-77897344D01*
X70140740Y-77969240D01*
X70184079Y-78050203D01*
X70249325Y-78103860D01*
X70307322Y-78126085D01*
X70379712Y-78139420D01*
X70466495Y-78143865D01*
X70544600Y-78140373D01*
X70611275Y-78129895D01*
X70678268Y-78109575D01*
X70757325Y-78076555D01*
X70757325Y-77646025D01*
X70424585Y-77646025D01*
X70424585Y-77784455D01*
X70603655Y-77784455D01*
X70603655Y-77978765D01*
X70540790Y-77998450D01*
X70462685Y-78004165D01*
X70395216Y-77997497D01*
X70345210Y-77977495D01*
X70309809Y-77941459D01*
X70286155Y-77886690D01*
X70272820Y-77809061D01*
X70268375Y-77704445D01*
X70272344Y-77597447D01*
X70284250Y-77517755D01*
X70305681Y-77461240D01*
X70338225Y-77423775D01*
X70384263Y-77402820D01*
X70446175Y-77395835D01*
X70535710Y-77405995D01*
X70583335Y-77439650D01*
X70602385Y-77507595D01*
X70759865Y-77507595D01*
X70748594Y-77419965D01*
X70724940Y-77355195D01*
X70686046Y-77309475D01*
X70629055Y-77278995D01*
X70549998Y-77261850D01*
X70444905Y-77256135D01*
X70363554Y-77260580D01*
X70295609Y-77273915D01*
X70241070Y-77296140D01*
X70179634Y-77349797D01*
X70138835Y-77430760D01*
X70121902Y-77502797D01*
X70111742Y-77592756D01*
X70108355Y-77700635D01*
X69836293Y-77700635D01*
X69906425Y-77678410D01*
X69951510Y-77621260D01*
X69964845Y-77519025D01*
X69956749Y-77432030D01*
X69932460Y-77366625D01*
X69888962Y-77319635D01*
X69823240Y-77287885D01*
X69765032Y-77274479D01*
X69692853Y-77266436D01*
X69606705Y-77263755D01*
X69531775Y-77265025D01*
X69380645Y-77270105D01*
X69380645Y-78132435D01*
X69219355Y-78132435D01*
X69219355Y-77268835D01*
X69056795Y-77268835D01*
X69056795Y-77611735D01*
X68764695Y-77611735D01*
X68764695Y-77268835D01*
X68602135Y-77268835D01*
X68309851Y-77268835D01*
X68280825Y-77262009D01*
X68180495Y-77256135D01*
X68097663Y-77260580D01*
X68028659Y-77273915D01*
X67973485Y-77296140D01*
X67911572Y-77349956D01*
X67870615Y-77431395D01*
X67853682Y-77503785D01*
X67843522Y-77593955D01*
X67840135Y-77701905D01*
X67575552Y-77701905D01*
X67575552Y-76991552D01*
X67840135Y-76991552D01*
X70759865Y-76991552D01*
X71024448Y-76991552D01*
X71024448Y-78408448D01*
G37*
%TO.C,kibuzzard-655136E2*%
G36*
X134593395Y-92074496D02*
G01*
X134638163Y-92078068D01*
X134693050Y-92088426D01*
X134733889Y-92106166D01*
X134762821Y-92133551D01*
X134781990Y-92172841D01*
X134792706Y-92226777D01*
X134796278Y-92298095D01*
X134792587Y-92373462D01*
X134781514Y-92430016D01*
X134761630Y-92470617D01*
X134731508Y-92498120D01*
X134688883Y-92514789D01*
X134631495Y-92522885D01*
X134556248Y-92520028D01*
X134556248Y-92073305D01*
X134593395Y-92074496D01*
G37*
G36*
X135117587Y-92827050D02*
G01*
X134919150Y-92827050D01*
X134602920Y-92827050D01*
X134340982Y-92827050D01*
X133549455Y-92827050D01*
X133280850Y-92827050D01*
X133082412Y-92827050D01*
X133082412Y-92296190D01*
X133280850Y-92296190D01*
X133283549Y-92376571D01*
X133291645Y-92443722D01*
X133305139Y-92497644D01*
X133337643Y-92558366D01*
X133386577Y-92598609D01*
X133430075Y-92615278D01*
X133484367Y-92625279D01*
X133549455Y-92628613D01*
X133608034Y-92625993D01*
X133658040Y-92618135D01*
X133708284Y-92602895D01*
X133767577Y-92578130D01*
X133767577Y-92255233D01*
X133518022Y-92255233D01*
X133518022Y-92359055D01*
X133652325Y-92359055D01*
X133652325Y-92504788D01*
X133605176Y-92519551D01*
X133546597Y-92523838D01*
X133495996Y-92518837D01*
X133458491Y-92503835D01*
X133431940Y-92476808D01*
X133414200Y-92435732D01*
X133404199Y-92377510D01*
X133400865Y-92299048D01*
X133403842Y-92218800D01*
X133412771Y-92159030D01*
X133428845Y-92116644D01*
X133453252Y-92088545D01*
X133487781Y-92072829D01*
X133534215Y-92067590D01*
X133601366Y-92075210D01*
X133637085Y-92100451D01*
X133651372Y-92151410D01*
X133769482Y-92151410D01*
X133761029Y-92085688D01*
X133743289Y-92037110D01*
X133714118Y-92002820D01*
X133671375Y-91979960D01*
X133636239Y-91972340D01*
X133853302Y-91972340D01*
X133853302Y-92620040D01*
X133970460Y-92620040D01*
X133970460Y-92247613D01*
X133957125Y-92112358D01*
X133959983Y-92112358D01*
X134192392Y-92620040D01*
X134340982Y-92620040D01*
X134434328Y-92620040D01*
X134496663Y-92624274D01*
X134552861Y-92626814D01*
X134602920Y-92627660D01*
X134679226Y-92624379D01*
X134743043Y-92614537D01*
X134794373Y-92598133D01*
X134852237Y-92558723D01*
X134890575Y-92499549D01*
X134906450Y-92447214D01*
X134915975Y-92382286D01*
X134919150Y-92304763D01*
X134916398Y-92230626D01*
X134908143Y-92168238D01*
X134894385Y-92117596D01*
X134860928Y-92058899D01*
X134810089Y-92017108D01*
X134764951Y-91997423D01*
X134708912Y-91982818D01*
X134641973Y-91973293D01*
X134596253Y-91969721D01*
X134544818Y-91968530D01*
X134492430Y-91969483D01*
X134434328Y-91972340D01*
X134434328Y-92620040D01*
X134340982Y-92620040D01*
X134340982Y-91972340D01*
X134223825Y-91972340D01*
X134223825Y-92344768D01*
X134237160Y-92480023D01*
X134234303Y-92480023D01*
X134001892Y-91972340D01*
X133853302Y-91972340D01*
X133636239Y-91972340D01*
X133612082Y-91967101D01*
X133533262Y-91962815D01*
X133472250Y-91966149D01*
X133421291Y-91976150D01*
X133380386Y-91992819D01*
X133334309Y-92033062D01*
X133303710Y-92093784D01*
X133291010Y-92147812D01*
X133283390Y-92215281D01*
X133280850Y-92296190D01*
X133082412Y-92296190D01*
X133082412Y-91764378D01*
X133280850Y-91764378D01*
X134919150Y-91764378D01*
X135117587Y-91764378D01*
X135117587Y-92827050D01*
G37*
%TO.C,R13*%
X94677500Y-72942224D02*
X94677500Y-72432776D01*
X95722500Y-72942224D02*
X95722500Y-72432776D01*
%TO.C,U1*%
X88579275Y-86700000D02*
X97079275Y-86700000D01*
X97079275Y-86700000D02*
X97079275Y-92100000D01*
X97079275Y-92100000D02*
X88579275Y-92100000D01*
X88579275Y-92100000D02*
X88579275Y-86700000D01*
%TO.C,R8*%
X71617500Y-82604724D02*
X71617500Y-82095276D01*
X72662500Y-82604724D02*
X72662500Y-82095276D01*
%TO.C,C2*%
X83746267Y-82397600D02*
X83453733Y-82397600D01*
X83746267Y-81377600D02*
X83453733Y-81377600D01*
%TO.C,TP2*%
X75725000Y-70050000D02*
X78125000Y-70050000D01*
X75725000Y-72450000D02*
X75725000Y-70050000D01*
X78125000Y-70050000D02*
X78125000Y-72450000D01*
X78125000Y-72450000D02*
X75725000Y-72450000D01*
%TO.C,C8*%
X134935000Y-82038748D02*
X134935000Y-82561252D01*
X133465000Y-82038748D02*
X133465000Y-82561252D01*
%TO.C,C1*%
X77860381Y-86228733D02*
X77860381Y-86521267D01*
X76840381Y-86228733D02*
X76840381Y-86521267D01*
%TO.C,D10*%
X140249139Y-79750000D02*
X140249139Y-76450000D01*
X140249139Y-79750000D02*
X134849139Y-79750000D01*
X140249139Y-76450000D02*
X134849139Y-76450000D01*
%TO.C,D2*%
X96585000Y-79192600D02*
X96585000Y-80662600D01*
X96585000Y-80662600D02*
X99045000Y-80662600D01*
X99045000Y-79192600D02*
X96585000Y-79192600D01*
%TO.C,D1*%
X91847500Y-94135000D02*
X91847500Y-92665000D01*
X91847500Y-92665000D02*
X89387500Y-92665000D01*
X89387500Y-94135000D02*
X91847500Y-94135000D01*
%TO.C,kibuzzard-655136D6*%
G36*
X140805205Y-92827050D02*
G01*
X140606768Y-92827050D01*
X140414363Y-92827050D01*
X139992405Y-92827050D01*
X139316130Y-92827050D01*
X138993232Y-92827050D01*
X138794795Y-92827050D01*
X138794795Y-92250470D01*
X138993232Y-92250470D01*
X139164682Y-92144742D01*
X139201830Y-92114262D01*
X139198020Y-92173317D01*
X139198020Y-92628613D01*
X139316130Y-92628613D01*
X139316130Y-92161887D01*
X139532347Y-92161887D01*
X139654267Y-92161887D01*
X139667603Y-92109024D01*
X139700464Y-92082354D01*
X139762852Y-92074257D01*
X139824765Y-92081877D01*
X139855721Y-92107119D01*
X139864770Y-92158077D01*
X139858103Y-92201892D01*
X139833337Y-92238087D01*
X139790237Y-92278331D01*
X139735230Y-92324765D01*
X139700583Y-92352507D01*
X139657601Y-92386201D01*
X139606285Y-92425849D01*
X139546635Y-92471450D01*
X139546635Y-92628613D01*
X139992405Y-92628613D01*
X139992405Y-92521933D01*
X139669507Y-92521933D01*
X139669507Y-92513360D01*
X139726075Y-92473249D01*
X139773859Y-92438007D01*
X139812859Y-92407632D01*
X139864413Y-92363579D01*
X139915253Y-92315240D01*
X139948828Y-92277140D01*
X139969545Y-92242850D01*
X139980261Y-92205941D01*
X139983833Y-92159982D01*
X139978832Y-92094141D01*
X139963830Y-92045206D01*
X139937041Y-92010678D01*
X139896679Y-91988056D01*
X139863951Y-91980912D01*
X140072415Y-91980912D01*
X140264820Y-92628613D01*
X140414363Y-92628613D01*
X140606768Y-91980912D01*
X140482943Y-91980912D01*
X140341973Y-92485737D01*
X140337210Y-92485737D01*
X140196240Y-91980912D01*
X140072415Y-91980912D01*
X139863951Y-91980912D01*
X139839410Y-91975555D01*
X139761900Y-91971387D01*
X139684867Y-91975674D01*
X139627121Y-91988532D01*
X139585688Y-92011512D01*
X139557589Y-92046159D01*
X139540563Y-92095332D01*
X139532347Y-92161887D01*
X139316130Y-92161887D01*
X139316130Y-91980912D01*
X139198020Y-91980912D01*
X138993232Y-92124740D01*
X138993232Y-92250470D01*
X138794795Y-92250470D01*
X138794795Y-91772950D01*
X138993232Y-91772950D01*
X140606768Y-91772950D01*
X140805205Y-91772950D01*
X140805205Y-92827050D01*
G37*
%TO.C,D7*%
X71365000Y-80335000D02*
X72835000Y-80335000D01*
X72835000Y-80335000D02*
X72835000Y-77875000D01*
X71365000Y-77875000D02*
X71365000Y-80335000D01*
%TO.C,U7*%
X129440000Y-81900000D02*
X129440000Y-83700000D01*
X132660000Y-83700000D02*
X132660000Y-81250000D01*
%TO.C,R15*%
X73617500Y-82604724D02*
X73617500Y-82095276D01*
X74662500Y-82604724D02*
X74662500Y-82095276D01*
%TO.C,C7*%
X85870587Y-90303733D02*
X85870587Y-90596267D01*
X84850587Y-90303733D02*
X84850587Y-90596267D01*
%TO.C,IC1*%
X74725000Y-88781253D02*
X72925000Y-88781253D01*
X72925000Y-92001253D02*
X75875000Y-92001253D01*
%TO.C,Q1*%
X78044077Y-81648299D02*
X78044077Y-83323299D01*
X78044077Y-81648299D02*
X78044077Y-80998299D01*
X81164077Y-81648299D02*
X81164077Y-82298299D01*
X81164077Y-81648299D02*
X81164077Y-80998299D01*
%TO.C,U8*%
X72889032Y-87891971D02*
X74689032Y-87891971D01*
X74689032Y-84671971D02*
X71739032Y-84671971D01*
%TO.C,kibuzzard-65B168C9*%
G36*
X101086995Y-81422395D02*
G01*
X100723775Y-81324605D01*
X100723775Y-81322065D01*
X101086995Y-81224275D01*
X101086995Y-81422395D01*
G37*
G36*
X100890780Y-81969130D02*
G01*
X100914275Y-82043425D01*
X100914275Y-82221225D01*
X100698375Y-82221225D01*
X100698375Y-82179315D01*
X100702185Y-82073905D01*
X100712663Y-82013104D01*
X100731395Y-81975480D01*
X100811405Y-81949445D01*
X100890780Y-81969130D01*
G37*
G36*
X100908560Y-78164210D02*
G01*
X100935865Y-78242315D01*
X100935865Y-78406145D01*
X100703455Y-78406145D01*
X100702185Y-78351535D01*
X100703137Y-78306450D01*
X100705995Y-78244855D01*
X100732030Y-78164845D01*
X100810135Y-78143255D01*
X100908560Y-78164210D01*
G37*
G36*
X101252730Y-81932935D02*
G01*
X101289560Y-81991990D01*
X101297656Y-82042314D01*
X101300355Y-82110735D01*
X101299720Y-82163758D01*
X101297815Y-82221225D01*
X101053975Y-82221225D01*
X101053975Y-82075175D01*
X101064770Y-81978020D01*
X101102235Y-81929760D01*
X101178435Y-81915155D01*
X101252730Y-81932935D01*
G37*
G36*
X101704638Y-73401075D02*
G01*
X101704638Y-74366275D01*
X101704638Y-74925075D01*
X101704638Y-75666755D01*
X101704638Y-77432055D01*
X101704638Y-77933705D01*
X101704638Y-78735075D01*
X101704638Y-79718055D01*
X101704638Y-80480055D01*
X101704638Y-80962655D01*
X101704638Y-82132325D01*
X101704638Y-82381245D01*
X101704638Y-82645828D01*
X100295362Y-82645828D01*
X100295362Y-82381245D01*
X100295362Y-82172107D01*
X100560064Y-82172107D01*
X100563755Y-82381245D01*
X101427355Y-82381245D01*
X101434411Y-82292627D01*
X101438644Y-82209654D01*
X101440055Y-82132325D01*
X101437586Y-82040109D01*
X101430177Y-81963274D01*
X101417830Y-81901820D01*
X101387826Y-81832764D01*
X101342265Y-81786885D01*
X101277495Y-81761168D01*
X101189865Y-81752595D01*
X101127317Y-81755929D01*
X101079375Y-81765930D01*
X101015875Y-81811650D01*
X100982855Y-81903725D01*
X100975235Y-81903725D01*
X100955232Y-81848956D01*
X100923165Y-81814190D01*
X100873317Y-81795616D01*
X100799975Y-81789425D01*
X100716631Y-81798156D01*
X100654560Y-81824350D01*
X100610586Y-81871181D01*
X100581535Y-81941825D01*
X100569541Y-82004619D01*
X100562344Y-82082936D01*
X100560064Y-82172107D01*
X100295362Y-82172107D01*
X100295362Y-81426205D01*
X100566295Y-81426205D01*
X101429895Y-81684015D01*
X101429895Y-81522725D01*
X101222885Y-81460495D01*
X101222885Y-81186175D01*
X101429895Y-81123945D01*
X101429895Y-80962655D01*
X100566295Y-81220465D01*
X100566295Y-81426205D01*
X100295362Y-81426205D01*
X100295362Y-80873755D01*
X100566295Y-80873755D01*
X100711075Y-80873755D01*
X100711075Y-80642615D01*
X101429895Y-80642615D01*
X101429895Y-80480055D01*
X100711075Y-80480055D01*
X100711075Y-80248915D01*
X100566295Y-80248915D01*
X100566295Y-80873755D01*
X100295362Y-80873755D01*
X100295362Y-80111755D01*
X100566295Y-80111755D01*
X100711075Y-80111755D01*
X100711075Y-79880615D01*
X101429895Y-79880615D01*
X101429895Y-79718055D01*
X100711075Y-79718055D01*
X100711075Y-79486915D01*
X100566295Y-79486915D01*
X100566295Y-80111755D01*
X100295362Y-80111755D01*
X100295362Y-79296415D01*
X100566295Y-79296415D01*
X101429895Y-79296415D01*
X101429895Y-78735075D01*
X101290195Y-78735075D01*
X101290195Y-79133855D01*
X101051435Y-79133855D01*
X101051435Y-78811275D01*
X100911735Y-78811275D01*
X100911735Y-79133855D01*
X100705995Y-79133855D01*
X100705995Y-78760475D01*
X100566295Y-78760475D01*
X100566295Y-79296415D01*
X100295362Y-79296415D01*
X100295362Y-78341375D01*
X100561215Y-78341375D01*
X100562485Y-78416305D01*
X100567565Y-78567435D01*
X101429895Y-78567435D01*
X101429895Y-78406145D01*
X101076835Y-78406145D01*
X101076835Y-78324865D01*
X101081756Y-78257555D01*
X101096520Y-78213105D01*
X101172085Y-78167385D01*
X101429895Y-78107695D01*
X101429895Y-77933705D01*
X101160655Y-78006095D01*
X101096838Y-78027844D01*
X101055245Y-78052450D01*
X101015875Y-78131825D01*
X101004445Y-78131825D01*
X100975870Y-78041655D01*
X100918720Y-77996570D01*
X100816485Y-77983235D01*
X100729490Y-77991331D01*
X100664085Y-78015620D01*
X100617095Y-78059118D01*
X100585345Y-78124840D01*
X100571939Y-78183048D01*
X100563896Y-78255227D01*
X100561215Y-78341375D01*
X100295362Y-78341375D01*
X100295362Y-77852425D01*
X100563755Y-77852425D01*
X101078105Y-77594615D01*
X101429895Y-77594615D01*
X101429895Y-77432055D01*
X101078105Y-77432055D01*
X100563755Y-77172975D01*
X100563755Y-77346965D01*
X100918085Y-77509525D01*
X100918085Y-77515875D01*
X100563755Y-77677165D01*
X100563755Y-77852425D01*
X100295362Y-77852425D01*
X100295362Y-76266195D01*
X100566295Y-76266195D01*
X101428625Y-76266195D01*
X101428625Y-75666755D01*
X101286385Y-75666755D01*
X101286385Y-76103635D01*
X100566295Y-76103635D01*
X100566295Y-76266195D01*
X100295362Y-76266195D01*
X100295362Y-75486415D01*
X100566295Y-75486415D01*
X101429895Y-75486415D01*
X101429895Y-74925075D01*
X101290195Y-74925075D01*
X101290195Y-75323855D01*
X101051435Y-75323855D01*
X101051435Y-75001275D01*
X100911735Y-75001275D01*
X100911735Y-75323855D01*
X100705995Y-75323855D01*
X100705995Y-74950475D01*
X100566295Y-74950475D01*
X100566295Y-75486415D01*
X100295362Y-75486415D01*
X100295362Y-74822205D01*
X100566295Y-74822205D01*
X101429895Y-74565665D01*
X101429895Y-74366275D01*
X100566295Y-74109735D01*
X100566295Y-74274835D01*
X101239395Y-74462795D01*
X101239395Y-74469145D01*
X100566295Y-74657105D01*
X100566295Y-74822205D01*
X100295362Y-74822205D01*
X100295362Y-73962415D01*
X100566295Y-73962415D01*
X101429895Y-73962415D01*
X101429895Y-73401075D01*
X101290195Y-73401075D01*
X101290195Y-73799855D01*
X101051435Y-73799855D01*
X101051435Y-73477275D01*
X100911735Y-73477275D01*
X100911735Y-73799855D01*
X100705995Y-73799855D01*
X100705995Y-73426475D01*
X100566295Y-73426475D01*
X100566295Y-73962415D01*
X100295362Y-73962415D01*
X100295362Y-73218195D01*
X100566295Y-73218195D01*
X101428625Y-73218195D01*
X101428625Y-72618755D01*
X101286385Y-72618755D01*
X101286385Y-73055635D01*
X100566295Y-73055635D01*
X100566295Y-73218195D01*
X100295362Y-73218195D01*
X100295362Y-72618755D01*
X100295362Y-72354172D01*
X101704638Y-72354172D01*
X101704638Y-72618755D01*
X101704638Y-73401075D01*
G37*
%TO.C,D3*%
X96585000Y-77192600D02*
X96585000Y-78662600D01*
X96585000Y-78662600D02*
X99045000Y-78662600D01*
X99045000Y-77192600D02*
X96585000Y-77192600D01*
%TO.C,R20*%
X86310000Y-86421564D02*
X86310000Y-86875692D01*
X84840000Y-86421564D02*
X84840000Y-86875692D01*
%TO.C,R7*%
X92890000Y-72942224D02*
X92890000Y-72432776D01*
X93935000Y-72942224D02*
X93935000Y-72432776D01*
%TO.C,C6*%
X127690000Y-82233767D02*
X127690000Y-81941233D01*
X128710000Y-82233767D02*
X128710000Y-81941233D01*
%TO.C,D9*%
X96585000Y-81192600D02*
X96585000Y-82662600D01*
X96585000Y-82662600D02*
X99045000Y-82662600D01*
X99045000Y-81192600D02*
X96585000Y-81192600D01*
%TO.C,R5*%
X86901526Y-79365100D02*
X87410974Y-79365100D01*
X86901526Y-80410100D02*
X87410974Y-80410100D01*
%TO.C,U2*%
X104572322Y-83355000D02*
X125572322Y-83355000D01*
X125572322Y-83355000D02*
X125572322Y-68355000D01*
X125572322Y-68355000D02*
X104572322Y-68355000D01*
X104572322Y-68355000D02*
X104572322Y-83355000D01*
X123572322Y-82055000D02*
X106572322Y-82055000D01*
X106572322Y-82055000D02*
X106572322Y-69655000D01*
X106572322Y-69655000D02*
X123572322Y-69655000D01*
X123572322Y-69655000D02*
X123572322Y-82055000D01*
%TO.C,D8*%
X73365000Y-80335000D02*
X74835000Y-80335000D01*
X74835000Y-80335000D02*
X74835000Y-77875000D01*
X73365000Y-77875000D02*
X73365000Y-80335000D01*
%TO.C,R3*%
X86901526Y-81365100D02*
X87410974Y-81365100D01*
X86901526Y-82410100D02*
X87410974Y-82410100D01*
%TO.C,R21*%
X136772500Y-81845276D02*
X136772500Y-82354724D01*
X135727500Y-81845276D02*
X135727500Y-82354724D01*
%TO.C,U5*%
X78650000Y-88448628D02*
X78650000Y-91898628D01*
X78650000Y-88448628D02*
X78650000Y-86498628D01*
X83770000Y-88448628D02*
X83770000Y-90398628D01*
X83770000Y-88448628D02*
X83770000Y-86498628D01*
%TO.C,R16*%
X76852500Y-90742224D02*
X76852500Y-90232776D01*
X77897500Y-90742224D02*
X77897500Y-90232776D01*
%TO.C,SW1*%
X112850000Y-90200000D02*
X112850000Y-88700000D01*
X111600000Y-86200000D02*
X107100000Y-86200000D01*
X107100000Y-92700000D02*
X111600000Y-92700000D01*
X105850000Y-88700000D02*
X105850000Y-90200000D01*
%TO.C,R11*%
X94587224Y-80410100D02*
X94077776Y-80410100D01*
X94587224Y-79365100D02*
X94077776Y-79365100D01*
%TO.C,R22*%
X135354724Y-85722500D02*
X134845276Y-85722500D01*
X135354724Y-84677500D02*
X134845276Y-84677500D01*
%TO.C,R4*%
X83345276Y-79365100D02*
X83854724Y-79365100D01*
X83345276Y-80410100D02*
X83854724Y-80410100D01*
%TO.C,R9*%
X95232776Y-92877500D02*
X95742224Y-92877500D01*
X95232776Y-93922500D02*
X95742224Y-93922500D01*
%TO.C,D4*%
X96585000Y-75192600D02*
X96585000Y-76662600D01*
X96585000Y-76662600D02*
X99045000Y-76662600D01*
X99045000Y-75192600D02*
X96585000Y-75192600D01*
%TO.C,kibuzzard-65B1692F*%
G36*
X78068985Y-77404725D02*
G01*
X78129786Y-77415202D01*
X78167410Y-77433935D01*
X78193445Y-77513945D01*
X78173760Y-77593320D01*
X78099465Y-77616815D01*
X77921665Y-77616815D01*
X77921665Y-77400915D01*
X77963575Y-77400915D01*
X78068985Y-77404725D01*
G37*
G36*
X78164870Y-77767310D02*
G01*
X78213130Y-77804775D01*
X78227735Y-77880975D01*
X78209955Y-77955270D01*
X78150900Y-77992100D01*
X78100576Y-78000196D01*
X78032155Y-78002895D01*
X77979133Y-78002260D01*
X77921665Y-78000355D01*
X77921665Y-77756515D01*
X78067715Y-77756515D01*
X78164870Y-77767310D01*
G37*
G36*
X77195225Y-77405042D02*
G01*
X77254915Y-77409805D01*
X77328099Y-77423616D01*
X77382550Y-77447270D01*
X77421126Y-77483782D01*
X77446685Y-77536170D01*
X77460973Y-77608084D01*
X77465735Y-77703175D01*
X77460814Y-77803664D01*
X77446050Y-77879070D01*
X77419539Y-77933204D01*
X77379375Y-77969875D01*
X77322543Y-77992100D01*
X77246025Y-78002895D01*
X77145695Y-77999085D01*
X77145695Y-77403455D01*
X77195225Y-77405042D01*
G37*
G36*
X79424498Y-78408448D02*
G01*
X79159915Y-78408448D01*
X78900835Y-78408448D01*
X78010565Y-78408448D01*
X77207925Y-78408448D01*
X76614835Y-78408448D01*
X75774095Y-78408448D01*
X75440085Y-78408448D01*
X75175502Y-78408448D01*
X75175502Y-77872085D01*
X75443895Y-77872085D01*
X75448340Y-77966700D01*
X75469295Y-78037185D01*
X75509141Y-78087032D01*
X75570260Y-78119735D01*
X75657096Y-78137832D01*
X75774095Y-78143865D01*
X75887601Y-78138468D01*
X75971580Y-78122275D01*
X76030794Y-78093065D01*
X76070005Y-78048615D01*
X76091912Y-77985750D01*
X76099215Y-77901295D01*
X76093183Y-77831921D01*
X76075085Y-77776200D01*
X76042859Y-77730956D01*
X75994440Y-77693015D01*
X75926019Y-77659042D01*
X75833785Y-77625705D01*
X75727264Y-77589034D01*
X75659160Y-77557760D01*
X75610265Y-77492355D01*
X75624235Y-77432665D01*
X75670590Y-77403455D01*
X75763935Y-77394565D01*
X75854740Y-77404090D01*
X75901730Y-77435840D01*
X75920145Y-77499975D01*
X76081435Y-77499975D01*
X76075085Y-77414567D01*
X76053495Y-77351385D01*
X76014919Y-77306935D01*
X75957610Y-77277725D01*
X75913423Y-77268835D01*
X76221135Y-77268835D01*
X76221135Y-77413615D01*
X76452275Y-77413615D01*
X76452275Y-78132435D01*
X76614835Y-78132435D01*
X76983135Y-78132435D01*
X77066249Y-78138079D01*
X77141179Y-78141466D01*
X77207925Y-78142595D01*
X77309666Y-78138221D01*
X77363648Y-78129895D01*
X77761645Y-78129895D01*
X77850263Y-78136951D01*
X77933236Y-78141184D01*
X78010565Y-78142595D01*
X78102781Y-78140126D01*
X78179616Y-78132717D01*
X78241070Y-78120370D01*
X78310126Y-78090366D01*
X78356005Y-78044805D01*
X78381723Y-77980035D01*
X78390295Y-77892405D01*
X78386961Y-77829857D01*
X78376960Y-77781915D01*
X78331240Y-77718415D01*
X78239165Y-77685395D01*
X78239165Y-77677775D01*
X78293934Y-77657772D01*
X78328700Y-77625705D01*
X78347274Y-77575857D01*
X78353465Y-77502515D01*
X78344734Y-77419171D01*
X78318540Y-77357100D01*
X78271709Y-77313126D01*
X78201065Y-77284075D01*
X78138271Y-77272081D01*
X78075308Y-77266295D01*
X78480465Y-77266295D01*
X78738275Y-77780645D01*
X78738275Y-78132435D01*
X78900835Y-78132435D01*
X78900835Y-77780645D01*
X79159915Y-77266295D01*
X78985925Y-77266295D01*
X78823365Y-77620625D01*
X78817015Y-77620625D01*
X78655725Y-77266295D01*
X78480465Y-77266295D01*
X78075308Y-77266295D01*
X78059954Y-77264884D01*
X77970782Y-77262604D01*
X77761645Y-77266295D01*
X77761645Y-78129895D01*
X77363648Y-78129895D01*
X77394756Y-78125097D01*
X77463195Y-78103225D01*
X77540348Y-78050679D01*
X77591465Y-77971780D01*
X77612632Y-77902001D01*
X77625332Y-77815429D01*
X77629565Y-77712065D01*
X77625896Y-77613217D01*
X77614889Y-77530032D01*
X77596545Y-77462510D01*
X77551936Y-77384246D01*
X77484150Y-77328525D01*
X77423966Y-77302278D01*
X77349248Y-77282805D01*
X77259995Y-77270105D01*
X77199035Y-77265342D01*
X77130455Y-77263755D01*
X77060605Y-77265025D01*
X76983135Y-77268835D01*
X76983135Y-78132435D01*
X76614835Y-78132435D01*
X76614835Y-77413615D01*
X76845975Y-77413615D01*
X76845975Y-77268835D01*
X76221135Y-77268835D01*
X75913423Y-77268835D01*
X75877124Y-77261532D01*
X75769015Y-77256135D01*
X75658684Y-77261374D01*
X75576610Y-77277090D01*
X75518507Y-77305189D01*
X75480090Y-77347575D01*
X75458659Y-77407265D01*
X75451515Y-77487275D01*
X75457548Y-77549822D01*
X75475645Y-77600305D01*
X75508189Y-77641739D01*
X75557560Y-77677140D01*
X75627569Y-77709366D01*
X75722025Y-77741275D01*
X75797431Y-77765881D01*
X75853470Y-77788900D01*
X75920145Y-77837795D01*
X75940465Y-77902565D01*
X75926495Y-77965430D01*
X75878870Y-77996545D01*
X75784255Y-78005435D01*
X75722501Y-78002577D01*
X75676940Y-77994005D01*
X75622965Y-77954000D01*
X75602645Y-77872085D01*
X75443895Y-77872085D01*
X75175502Y-77872085D01*
X75175502Y-76991552D01*
X75440085Y-76991552D01*
X79159915Y-76991552D01*
X79424498Y-76991552D01*
X79424498Y-78408448D01*
G37*
%TO.C,kibuzzard-65B169C7*%
G36*
X84191633Y-84428768D02*
G01*
X83927050Y-84428768D01*
X83035510Y-84428768D01*
X82872950Y-84428768D01*
X82608367Y-84428768D01*
X82608367Y-83300585D01*
X82872950Y-83300585D01*
X82872950Y-84164185D01*
X83035510Y-84164185D01*
X83035510Y-84146405D01*
X83709880Y-84146405D01*
X83927050Y-84146405D01*
X83927050Y-83936855D01*
X83874980Y-83936855D01*
X83709880Y-83936855D01*
X83709880Y-84146405D01*
X83035510Y-84146405D01*
X83035510Y-83803505D01*
X83408890Y-83803505D01*
X83408890Y-83661265D01*
X83035510Y-83661265D01*
X83035510Y-83444095D01*
X83459690Y-83444095D01*
X83459690Y-83300585D01*
X82872950Y-83300585D01*
X82608367Y-83300585D01*
X82608367Y-83235815D01*
X83739090Y-83235815D01*
X83739090Y-83639675D01*
X83758140Y-83887325D01*
X83874980Y-83887325D01*
X83894030Y-83639675D01*
X83894030Y-83235815D01*
X83739090Y-83235815D01*
X82608367Y-83235815D01*
X82608367Y-82971232D01*
X82872950Y-82971232D01*
X83927050Y-82971232D01*
X84191633Y-82971232D01*
X84191633Y-84428768D01*
G37*
%TO.C,R10*%
X90442224Y-86222500D02*
X89932776Y-86222500D01*
X90442224Y-85177500D02*
X89932776Y-85177500D01*
%TO.C,R1*%
X94145276Y-81365100D02*
X94654724Y-81365100D01*
X94145276Y-82410100D02*
X94654724Y-82410100D01*
%TO.C,R12*%
X94587224Y-78450100D02*
X94077776Y-78450100D01*
X94587224Y-77405100D02*
X94077776Y-77405100D01*
D12*
%TO.C,U3*%
X91678800Y-75810000D02*
X91678800Y-73117600D01*
X82941200Y-74768600D02*
X82941200Y-75810000D01*
X82941200Y-74159000D02*
X82941200Y-74768600D01*
X82941200Y-73117600D02*
X82941200Y-74159000D01*
X82941200Y-74768600D02*
G75*
G03*
X82941200Y-74159000I0J304800D01*
G01*
D10*
%TO.C,L1*%
X129350000Y-74100000D02*
X130150000Y-74100000D01*
X129350000Y-79700000D02*
X130150000Y-79700000D01*
%TO.C,J2*%
X132550000Y-88350000D02*
X135450000Y-88350000D01*
X132550000Y-91250000D02*
X132550000Y-88350000D01*
X135450000Y-88350000D02*
X135450000Y-91250000D01*
X135450000Y-91250000D02*
X132550000Y-91250000D01*
%TO.C,F1*%
X86446267Y-84210000D02*
X86103733Y-84210000D01*
X86446267Y-83190000D02*
X86103733Y-83190000D01*
%TO.C,J1*%
X141250000Y-88350000D02*
X141250000Y-91250000D01*
X138350000Y-88350000D02*
X141250000Y-88350000D01*
X141250000Y-91250000D02*
X138350000Y-91250000D01*
X138350000Y-91250000D02*
X138350000Y-88350000D01*
%TO.C,R2*%
X90967224Y-82410100D02*
X90457776Y-82410100D01*
X90967224Y-81365100D02*
X90457776Y-81365100D01*
%TO.C,R18*%
X88022500Y-90157776D02*
X88022500Y-90667224D01*
X86977500Y-90157776D02*
X86977500Y-90667224D01*
%TO.C,R6*%
X74320276Y-92837500D02*
X74829724Y-92837500D01*
X74320276Y-93882500D02*
X74829724Y-93882500D01*
%TD*%
%LPC*%
D13*
%TO.C,D5*%
X78838087Y-74896187D03*
X74838087Y-74896187D03*
%TD*%
D14*
%TO.C,R14*%
X95245000Y-75927600D03*
X93420000Y-75927600D03*
%TD*%
D15*
%TO.C,R13*%
X95200000Y-73600000D03*
X95200000Y-71775000D03*
%TD*%
D16*
%TO.C,U1*%
X89529275Y-88700000D03*
X89529275Y-90100000D03*
D17*
X90779275Y-87450000D03*
X90779275Y-91350000D03*
X94779275Y-87450000D03*
X94779275Y-91350000D03*
D16*
X96029275Y-88700000D03*
X96029275Y-90100000D03*
X90479275Y-88700000D03*
X90479275Y-90100000D03*
X95079275Y-88700000D03*
X95079275Y-90100000D03*
X91429275Y-88700000D03*
X94129275Y-90100000D03*
X92329275Y-88700000D03*
X93229275Y-90100000D03*
X92329275Y-90100000D03*
X93229275Y-88700000D03*
%TD*%
D15*
%TO.C,R8*%
X72140000Y-83262500D03*
X72140000Y-81437500D03*
%TD*%
D18*
%TO.C,C2*%
X84462500Y-81887600D03*
X82737500Y-81887600D03*
%TD*%
D19*
%TO.C,TP2*%
X76925000Y-71250000D03*
%TD*%
D20*
%TO.C,C8*%
X134200000Y-81262500D03*
X134200000Y-83337500D03*
%TD*%
D21*
%TO.C,H2*%
X67400000Y-69400000D03*
%TD*%
D22*
%TO.C,C1*%
X77350381Y-85512500D03*
X77350381Y-87237500D03*
%TD*%
D23*
%TO.C,D10*%
X138849139Y-78100000D03*
X134849139Y-78100000D03*
%TD*%
D24*
%TO.C,D2*%
X97370000Y-79927600D03*
X99120000Y-79927600D03*
%TD*%
D25*
%TO.C,D1*%
X91062500Y-93400000D03*
X89312500Y-93400000D03*
%TD*%
D26*
%TO.C,D7*%
X72100000Y-79550000D03*
X72100000Y-77800000D03*
%TD*%
D27*
%TO.C,U7*%
X132000000Y-81450000D03*
X131050000Y-81450000D03*
X130100000Y-81450000D03*
X130100000Y-84150000D03*
X132000000Y-84150000D03*
%TD*%
D15*
%TO.C,R15*%
X74140000Y-83262500D03*
X74140000Y-81437500D03*
%TD*%
D22*
%TO.C,C7*%
X85360587Y-89587500D03*
X85360587Y-91312500D03*
%TD*%
D28*
%TO.C,IC1*%
X75175000Y-91341253D03*
X75175000Y-90391253D03*
X75175000Y-89441253D03*
X72475000Y-89441253D03*
X72475000Y-90391253D03*
X72475000Y-91341253D03*
%TD*%
D29*
%TO.C,Q1*%
X78654077Y-82585799D03*
X80554077Y-82585799D03*
X79604077Y-80710799D03*
%TD*%
D28*
%TO.C,U8*%
X72439032Y-85331971D03*
X72439032Y-86281971D03*
X72439032Y-87231971D03*
X75139032Y-87231971D03*
X75139032Y-86281971D03*
X75139032Y-85331971D03*
%TD*%
D24*
%TO.C,D3*%
X97370000Y-77927600D03*
X99120000Y-77927600D03*
%TD*%
D30*
%TO.C,R20*%
X85575000Y-85648628D03*
X85575000Y-87648628D03*
%TD*%
D15*
%TO.C,R7*%
X93412500Y-73600000D03*
X93412500Y-71775000D03*
%TD*%
D31*
%TO.C,C6*%
X128200000Y-82950000D03*
X128200000Y-81225000D03*
%TD*%
D24*
%TO.C,D9*%
X97370000Y-81927600D03*
X99120000Y-81927600D03*
%TD*%
D21*
%TO.C,H1*%
X140400000Y-69400000D03*
%TD*%
D32*
%TO.C,R5*%
X86243750Y-79887600D03*
X88068750Y-79887600D03*
%TD*%
D33*
%TO.C,U2*%
X110072322Y-71455000D03*
X120072322Y-71455000D03*
%TD*%
D26*
%TO.C,D8*%
X74100000Y-79550000D03*
X74100000Y-77800000D03*
%TD*%
D32*
%TO.C,R3*%
X86243750Y-81887600D03*
X88068750Y-81887600D03*
%TD*%
D34*
%TO.C,R21*%
X136250000Y-81187500D03*
X136250000Y-83012500D03*
%TD*%
D35*
%TO.C,U5*%
X79305000Y-91073628D03*
X80575000Y-91073628D03*
X81845000Y-91073628D03*
X83115000Y-91073628D03*
X83115000Y-85823628D03*
X81845000Y-85823628D03*
X80575000Y-85823628D03*
X79305000Y-85823628D03*
%TD*%
D15*
%TO.C,R16*%
X77375000Y-91400000D03*
X77375000Y-89575000D03*
%TD*%
D36*
%TO.C,SW1*%
X112600000Y-91700000D03*
X106100000Y-91700000D03*
X112600000Y-87200000D03*
X106100000Y-87200000D03*
%TD*%
D14*
%TO.C,R11*%
X95245000Y-79887600D03*
X93420000Y-79887600D03*
%TD*%
%TO.C,R22*%
X136012500Y-85200000D03*
X134187500Y-85200000D03*
%TD*%
D32*
%TO.C,R4*%
X82687500Y-79887600D03*
X84512500Y-79887600D03*
%TD*%
%TO.C,R9*%
X94575000Y-93400000D03*
X96400000Y-93400000D03*
%TD*%
D24*
%TO.C,D4*%
X97370000Y-75927600D03*
X99120000Y-75927600D03*
%TD*%
D14*
%TO.C,R10*%
X91100000Y-85700000D03*
X89275000Y-85700000D03*
%TD*%
D32*
%TO.C,R1*%
X93487500Y-81887600D03*
X95312500Y-81887600D03*
%TD*%
D14*
%TO.C,R12*%
X95245000Y-77927600D03*
X93420000Y-77927600D03*
%TD*%
D37*
%TO.C,U3*%
X83500000Y-76927600D03*
X84770000Y-76927600D03*
X86040000Y-76927600D03*
X87310000Y-76927600D03*
X88580000Y-76927600D03*
X89850000Y-76927600D03*
X91120000Y-76927600D03*
X91120000Y-72000000D03*
X89850000Y-72000000D03*
X88580000Y-72000000D03*
X87310000Y-72000000D03*
X86040000Y-72000000D03*
X84770000Y-72000000D03*
X83500000Y-72000000D03*
%TD*%
D38*
%TO.C,L1*%
X127820000Y-76900000D03*
X131680000Y-76900000D03*
%TD*%
D39*
%TO.C,J2*%
X134000000Y-89800000D03*
%TD*%
D25*
%TO.C,F1*%
X87150000Y-83700000D03*
X85400000Y-83700000D03*
%TD*%
D39*
%TO.C,J1*%
X139800000Y-89800000D03*
%TD*%
D14*
%TO.C,R2*%
X91625000Y-81887600D03*
X89800000Y-81887600D03*
%TD*%
D34*
%TO.C,R18*%
X87500000Y-89500000D03*
X87500000Y-91325000D03*
%TD*%
D32*
%TO.C,R6*%
X73662500Y-93360000D03*
X75487500Y-93360000D03*
%TD*%
D40*
%TO.C,U6*%
X140148053Y-83926017D03*
X67648053Y-83926017D03*
%TD*%
%LPD*%
M02*
