M48
; DRILL file {KiCad 7.0.6-0} date 2024 February 21, Wednesday 20:03:51
; FORMAT={-:-/ absolute / inch / decimal}
; #@! TF.CreationDate,2024-02-21T20:03:51+01:00
; #@! TF.GenerationSoftware,Kicad,Pcbnew,7.0.6-0
; #@! TF.FileFunction,Plated,1,2,PTH
FMAT,2
INCH
; #@! TA.AperFunction,Plated,PTH,ViaDrill
T1C0.0118
; #@! TA.AperFunction,Plated,PTH,ComponentDrill
T2C0.0157
; #@! TA.AperFunction,Plated,PTH,ComponentDrill
T3C0.0197
; #@! TA.AperFunction,Plated,PTH,ComponentDrill
T4C0.0276
; #@! TA.AperFunction,Plated,PTH,ComponentDrill
T5C0.0300
; #@! TA.AperFunction,Plated,PTH,ComponentDrill
T6C0.0433
; #@! TA.AperFunction,Plated,PTH,ComponentDrill
T7C0.1260
%
G90
G05
T1
X2.8415Y-3.3189
X2.8809Y-3.4843
X2.8927Y-3.6299
X2.9203Y-3.3228
X3.0709Y-3.3071
X3.1368Y-3.311
X3.1801Y-3.4685
X3.2018Y-2.9232
X3.2018Y-2.9567
X3.2018Y-2.9902
X3.2018Y-3.0236
X3.2018Y-3.0571
X3.2018Y-3.0906
X3.2234Y-3.437
X3.3071Y-3.311
X3.314Y-3.5276
X3.314Y-3.5984
X3.3228Y-3.0945
X3.3622Y-2.9606
X3.3937Y-3.0866
X3.4016Y-2.9528
X3.4409Y-2.9606
X3.4803Y-2.9291
X3.4803Y-3.1024
X3.5039Y-3.3071
X3.5197Y-3.1811
X3.5354Y-3.0866
X3.5748Y-3.126
X3.6378Y-2.937
X3.7165Y-2.9528
T3
X3.5248Y-3.4921
X3.5248Y-3.5472
X3.5622Y-3.4921
X3.5622Y-3.5472
X3.5996Y-3.4921
X3.635Y-3.4921
X3.635Y-3.5472
X3.6704Y-3.4921
X3.6704Y-3.5472
X3.7059Y-3.5472
X3.7433Y-3.4921
X3.7433Y-3.5472
X3.7807Y-3.4921
X3.7807Y-3.5472
T6
X4.1772Y-3.4331
X4.1772Y-3.6102
X4.4331Y-3.4331
X4.4331Y-3.6102
T7
X2.6535Y-2.7323
X5.5276Y-2.7323
T2
G00X2.6633Y-3.3278
M15
G01X2.6633Y-3.2806
M16
G05
G00X5.5176Y-3.2806
M15
G01X5.5176Y-3.3278
M16
G05
T4
G00X3.5563Y-3.4429
M15
G01X3.5917Y-3.4429
M16
G05
G00X3.5563Y-3.5965
M15
G01X3.5917Y-3.5965
M16
G05
G00X3.7138Y-3.4429
M15
G01X3.7492Y-3.4429
M16
G05
G00X3.7138Y-3.5965
M15
G01X3.7492Y-3.5965
M16
G05
T5
G00X4.2501Y-2.8132
M15
G01X4.417Y-2.8132
M16
G05
G00X4.6438Y-2.8132
M15
G01X4.8107Y-2.8132
M16
G05
T0
M30
