%TF.GenerationSoftware,KiCad,Pcbnew,7.0.6-0*%
%TF.CreationDate,2023-11-12T21:55:04+01:00*%
%TF.ProjectId,smoke_extractorV1_1,736d6f6b-655f-4657-9874-726163746f72,rev?*%
%TF.SameCoordinates,Original*%
%TF.FileFunction,Legend,Bot*%
%TF.FilePolarity,Positive*%
%FSLAX46Y46*%
G04 Gerber Fmt 4.6, Leading zero omitted, Abs format (unit mm)*
G04 Created by KiCad (PCBNEW 7.0.6-0) date 2023-11-12 21:55:04*
%MOMM*%
%LPD*%
G01*
G04 APERTURE LIST*
%ADD10C,0.150000*%
%ADD11C,0.120000*%
G04 APERTURE END LIST*
D10*
X137391095Y-83900412D02*
X135867286Y-83900412D01*
X136629190Y-84662317D02*
X136629190Y-83138507D01*
X115329006Y-84480836D02*
X115900434Y-84480836D01*
X115614720Y-84480836D02*
X115614720Y-83480836D01*
X115614720Y-83480836D02*
X115709958Y-83623693D01*
X115709958Y-83623693D02*
X115805196Y-83718931D01*
X115805196Y-83718931D02*
X115900434Y-83766550D01*
X114757577Y-83909407D02*
X114852815Y-83861788D01*
X114852815Y-83861788D02*
X114900434Y-83814169D01*
X114900434Y-83814169D02*
X114948053Y-83718931D01*
X114948053Y-83718931D02*
X114948053Y-83671312D01*
X114948053Y-83671312D02*
X114900434Y-83576074D01*
X114900434Y-83576074D02*
X114852815Y-83528455D01*
X114852815Y-83528455D02*
X114757577Y-83480836D01*
X114757577Y-83480836D02*
X114567101Y-83480836D01*
X114567101Y-83480836D02*
X114471863Y-83528455D01*
X114471863Y-83528455D02*
X114424244Y-83576074D01*
X114424244Y-83576074D02*
X114376625Y-83671312D01*
X114376625Y-83671312D02*
X114376625Y-83718931D01*
X114376625Y-83718931D02*
X114424244Y-83814169D01*
X114424244Y-83814169D02*
X114471863Y-83861788D01*
X114471863Y-83861788D02*
X114567101Y-83909407D01*
X114567101Y-83909407D02*
X114757577Y-83909407D01*
X114757577Y-83909407D02*
X114852815Y-83957026D01*
X114852815Y-83957026D02*
X114900434Y-84004645D01*
X114900434Y-84004645D02*
X114948053Y-84099883D01*
X114948053Y-84099883D02*
X114948053Y-84290359D01*
X114948053Y-84290359D02*
X114900434Y-84385597D01*
X114900434Y-84385597D02*
X114852815Y-84433217D01*
X114852815Y-84433217D02*
X114757577Y-84480836D01*
X114757577Y-84480836D02*
X114567101Y-84480836D01*
X114567101Y-84480836D02*
X114471863Y-84433217D01*
X114471863Y-84433217D02*
X114424244Y-84385597D01*
X114424244Y-84385597D02*
X114376625Y-84290359D01*
X114376625Y-84290359D02*
X114376625Y-84099883D01*
X114376625Y-84099883D02*
X114424244Y-84004645D01*
X114424244Y-84004645D02*
X114471863Y-83957026D01*
X114471863Y-83957026D02*
X114567101Y-83909407D01*
X114043291Y-83480836D02*
X113424244Y-83480836D01*
X113424244Y-83480836D02*
X113757577Y-83861788D01*
X113757577Y-83861788D02*
X113614720Y-83861788D01*
X113614720Y-83861788D02*
X113519482Y-83909407D01*
X113519482Y-83909407D02*
X113471863Y-83957026D01*
X113471863Y-83957026D02*
X113424244Y-84052264D01*
X113424244Y-84052264D02*
X113424244Y-84290359D01*
X113424244Y-84290359D02*
X113471863Y-84385597D01*
X113471863Y-84385597D02*
X113519482Y-84433217D01*
X113519482Y-84433217D02*
X113614720Y-84480836D01*
X113614720Y-84480836D02*
X113900434Y-84480836D01*
X113900434Y-84480836D02*
X113995672Y-84433217D01*
X113995672Y-84433217D02*
X114043291Y-84385597D01*
X112519482Y-83480836D02*
X112995672Y-83480836D01*
X112995672Y-83480836D02*
X113043291Y-83957026D01*
X113043291Y-83957026D02*
X112995672Y-83909407D01*
X112995672Y-83909407D02*
X112900434Y-83861788D01*
X112900434Y-83861788D02*
X112662339Y-83861788D01*
X112662339Y-83861788D02*
X112567101Y-83909407D01*
X112567101Y-83909407D02*
X112519482Y-83957026D01*
X112519482Y-83957026D02*
X112471863Y-84052264D01*
X112471863Y-84052264D02*
X112471863Y-84290359D01*
X112471863Y-84290359D02*
X112519482Y-84385597D01*
X112519482Y-84385597D02*
X112567101Y-84433217D01*
X112567101Y-84433217D02*
X112662339Y-84480836D01*
X112662339Y-84480836D02*
X112900434Y-84480836D01*
X112900434Y-84480836D02*
X112995672Y-84433217D01*
X112995672Y-84433217D02*
X113043291Y-84385597D01*
X111852815Y-83480836D02*
X111757577Y-83480836D01*
X111757577Y-83480836D02*
X111662339Y-83528455D01*
X111662339Y-83528455D02*
X111614720Y-83576074D01*
X111614720Y-83576074D02*
X111567101Y-83671312D01*
X111567101Y-83671312D02*
X111519482Y-83861788D01*
X111519482Y-83861788D02*
X111519482Y-84099883D01*
X111519482Y-84099883D02*
X111567101Y-84290359D01*
X111567101Y-84290359D02*
X111614720Y-84385597D01*
X111614720Y-84385597D02*
X111662339Y-84433217D01*
X111662339Y-84433217D02*
X111757577Y-84480836D01*
X111757577Y-84480836D02*
X111852815Y-84480836D01*
X111852815Y-84480836D02*
X111948053Y-84433217D01*
X111948053Y-84433217D02*
X111995672Y-84385597D01*
X111995672Y-84385597D02*
X112043291Y-84290359D01*
X112043291Y-84290359D02*
X112090910Y-84099883D01*
X112090910Y-84099883D02*
X112090910Y-83861788D01*
X112090910Y-83861788D02*
X112043291Y-83671312D01*
X112043291Y-83671312D02*
X111995672Y-83576074D01*
X111995672Y-83576074D02*
X111948053Y-83528455D01*
X111948053Y-83528455D02*
X111852815Y-83480836D01*
X109852815Y-84480836D02*
X110329005Y-84480836D01*
X110329005Y-84480836D02*
X110329005Y-83480836D01*
X109519481Y-84480836D02*
X109519481Y-83814169D01*
X109519481Y-83480836D02*
X109567100Y-83528455D01*
X109567100Y-83528455D02*
X109519481Y-83576074D01*
X109519481Y-83576074D02*
X109471862Y-83528455D01*
X109471862Y-83528455D02*
X109519481Y-83480836D01*
X109519481Y-83480836D02*
X109519481Y-83576074D01*
X109186148Y-83814169D02*
X108805196Y-83814169D01*
X109043291Y-83480836D02*
X109043291Y-84337978D01*
X109043291Y-84337978D02*
X108995672Y-84433217D01*
X108995672Y-84433217D02*
X108900434Y-84480836D01*
X108900434Y-84480836D02*
X108805196Y-84480836D01*
X108471862Y-84480836D02*
X108471862Y-83480836D01*
X108043291Y-84480836D02*
X108043291Y-83957026D01*
X108043291Y-83957026D02*
X108090910Y-83861788D01*
X108090910Y-83861788D02*
X108186148Y-83814169D01*
X108186148Y-83814169D02*
X108329005Y-83814169D01*
X108329005Y-83814169D02*
X108424243Y-83861788D01*
X108424243Y-83861788D02*
X108471862Y-83909407D01*
X107567100Y-84480836D02*
X107567100Y-83814169D01*
X107567100Y-83480836D02*
X107614719Y-83528455D01*
X107614719Y-83528455D02*
X107567100Y-83576074D01*
X107567100Y-83576074D02*
X107519481Y-83528455D01*
X107519481Y-83528455D02*
X107567100Y-83480836D01*
X107567100Y-83480836D02*
X107567100Y-83576074D01*
X106662339Y-83814169D02*
X106662339Y-84480836D01*
X107090910Y-83814169D02*
X107090910Y-84337978D01*
X107090910Y-84337978D02*
X107043291Y-84433217D01*
X107043291Y-84433217D02*
X106948053Y-84480836D01*
X106948053Y-84480836D02*
X106805196Y-84480836D01*
X106805196Y-84480836D02*
X106709958Y-84433217D01*
X106709958Y-84433217D02*
X106662339Y-84385597D01*
X106186148Y-84480836D02*
X106186148Y-83814169D01*
X106186148Y-83909407D02*
X106138529Y-83861788D01*
X106138529Y-83861788D02*
X106043291Y-83814169D01*
X106043291Y-83814169D02*
X105900434Y-83814169D01*
X105900434Y-83814169D02*
X105805196Y-83861788D01*
X105805196Y-83861788D02*
X105757577Y-83957026D01*
X105757577Y-83957026D02*
X105757577Y-84480836D01*
X105757577Y-83957026D02*
X105709958Y-83861788D01*
X105709958Y-83861788D02*
X105614720Y-83814169D01*
X105614720Y-83814169D02*
X105471863Y-83814169D01*
X105471863Y-83814169D02*
X105376624Y-83861788D01*
X105376624Y-83861788D02*
X105329005Y-83957026D01*
X105329005Y-83957026D02*
X105329005Y-84480836D01*
X104186148Y-83480836D02*
X103567101Y-83480836D01*
X103567101Y-83480836D02*
X103900434Y-83861788D01*
X103900434Y-83861788D02*
X103757577Y-83861788D01*
X103757577Y-83861788D02*
X103662339Y-83909407D01*
X103662339Y-83909407D02*
X103614720Y-83957026D01*
X103614720Y-83957026D02*
X103567101Y-84052264D01*
X103567101Y-84052264D02*
X103567101Y-84290359D01*
X103567101Y-84290359D02*
X103614720Y-84385597D01*
X103614720Y-84385597D02*
X103662339Y-84433217D01*
X103662339Y-84433217D02*
X103757577Y-84480836D01*
X103757577Y-84480836D02*
X104043291Y-84480836D01*
X104043291Y-84480836D02*
X104138529Y-84433217D01*
X104138529Y-84433217D02*
X104186148Y-84385597D01*
X103138529Y-84385597D02*
X103090910Y-84433217D01*
X103090910Y-84433217D02*
X103138529Y-84480836D01*
X103138529Y-84480836D02*
X103186148Y-84433217D01*
X103186148Y-84433217D02*
X103138529Y-84385597D01*
X103138529Y-84385597D02*
X103138529Y-84480836D01*
X102757577Y-83480836D02*
X102090911Y-83480836D01*
X102090911Y-83480836D02*
X102519482Y-84480836D01*
X101852815Y-83480836D02*
X101519482Y-84480836D01*
X101519482Y-84480836D02*
X101186149Y-83480836D01*
X99519482Y-84385597D02*
X99567101Y-84433217D01*
X99567101Y-84433217D02*
X99709958Y-84480836D01*
X99709958Y-84480836D02*
X99805196Y-84480836D01*
X99805196Y-84480836D02*
X99948053Y-84433217D01*
X99948053Y-84433217D02*
X100043291Y-84337978D01*
X100043291Y-84337978D02*
X100090910Y-84242740D01*
X100090910Y-84242740D02*
X100138529Y-84052264D01*
X100138529Y-84052264D02*
X100138529Y-83909407D01*
X100138529Y-83909407D02*
X100090910Y-83718931D01*
X100090910Y-83718931D02*
X100043291Y-83623693D01*
X100043291Y-83623693D02*
X99948053Y-83528455D01*
X99948053Y-83528455D02*
X99805196Y-83480836D01*
X99805196Y-83480836D02*
X99709958Y-83480836D01*
X99709958Y-83480836D02*
X99567101Y-83528455D01*
X99567101Y-83528455D02*
X99519482Y-83576074D01*
X98709958Y-84433217D02*
X98805196Y-84480836D01*
X98805196Y-84480836D02*
X98995672Y-84480836D01*
X98995672Y-84480836D02*
X99090910Y-84433217D01*
X99090910Y-84433217D02*
X99138529Y-84337978D01*
X99138529Y-84337978D02*
X99138529Y-83957026D01*
X99138529Y-83957026D02*
X99090910Y-83861788D01*
X99090910Y-83861788D02*
X98995672Y-83814169D01*
X98995672Y-83814169D02*
X98805196Y-83814169D01*
X98805196Y-83814169D02*
X98709958Y-83861788D01*
X98709958Y-83861788D02*
X98662339Y-83957026D01*
X98662339Y-83957026D02*
X98662339Y-84052264D01*
X98662339Y-84052264D02*
X99138529Y-84147502D01*
X98090910Y-84480836D02*
X98186148Y-84433217D01*
X98186148Y-84433217D02*
X98233767Y-84337978D01*
X98233767Y-84337978D02*
X98233767Y-83480836D01*
X97567100Y-84480836D02*
X97662338Y-84433217D01*
X97662338Y-84433217D02*
X97709957Y-84337978D01*
X97709957Y-84337978D02*
X97709957Y-83480836D01*
X96424242Y-84480836D02*
X96424242Y-83480836D01*
X96424242Y-83957026D02*
X95852814Y-83957026D01*
X95852814Y-84480836D02*
X95852814Y-83480836D01*
X95233766Y-84480836D02*
X95329004Y-84433217D01*
X95329004Y-84433217D02*
X95376623Y-84385597D01*
X95376623Y-84385597D02*
X95424242Y-84290359D01*
X95424242Y-84290359D02*
X95424242Y-84004645D01*
X95424242Y-84004645D02*
X95376623Y-83909407D01*
X95376623Y-83909407D02*
X95329004Y-83861788D01*
X95329004Y-83861788D02*
X95233766Y-83814169D01*
X95233766Y-83814169D02*
X95090909Y-83814169D01*
X95090909Y-83814169D02*
X94995671Y-83861788D01*
X94995671Y-83861788D02*
X94948052Y-83909407D01*
X94948052Y-83909407D02*
X94900433Y-84004645D01*
X94900433Y-84004645D02*
X94900433Y-84290359D01*
X94900433Y-84290359D02*
X94948052Y-84385597D01*
X94948052Y-84385597D02*
X94995671Y-84433217D01*
X94995671Y-84433217D02*
X95090909Y-84480836D01*
X95090909Y-84480836D02*
X95233766Y-84480836D01*
X94329004Y-84480836D02*
X94424242Y-84433217D01*
X94424242Y-84433217D02*
X94471861Y-84337978D01*
X94471861Y-84337978D02*
X94471861Y-83480836D01*
X93519480Y-84480836D02*
X93519480Y-83480836D01*
X93519480Y-84433217D02*
X93614718Y-84480836D01*
X93614718Y-84480836D02*
X93805194Y-84480836D01*
X93805194Y-84480836D02*
X93900432Y-84433217D01*
X93900432Y-84433217D02*
X93948051Y-84385597D01*
X93948051Y-84385597D02*
X93995670Y-84290359D01*
X93995670Y-84290359D02*
X93995670Y-84004645D01*
X93995670Y-84004645D02*
X93948051Y-83909407D01*
X93948051Y-83909407D02*
X93900432Y-83861788D01*
X93900432Y-83861788D02*
X93805194Y-83814169D01*
X93805194Y-83814169D02*
X93614718Y-83814169D01*
X93614718Y-83814169D02*
X93519480Y-83861788D01*
X92662337Y-84433217D02*
X92757575Y-84480836D01*
X92757575Y-84480836D02*
X92948051Y-84480836D01*
X92948051Y-84480836D02*
X93043289Y-84433217D01*
X93043289Y-84433217D02*
X93090908Y-84337978D01*
X93090908Y-84337978D02*
X93090908Y-83957026D01*
X93090908Y-83957026D02*
X93043289Y-83861788D01*
X93043289Y-83861788D02*
X92948051Y-83814169D01*
X92948051Y-83814169D02*
X92757575Y-83814169D01*
X92757575Y-83814169D02*
X92662337Y-83861788D01*
X92662337Y-83861788D02*
X92614718Y-83957026D01*
X92614718Y-83957026D02*
X92614718Y-84052264D01*
X92614718Y-84052264D02*
X93090908Y-84147502D01*
X92186146Y-84480836D02*
X92186146Y-83814169D01*
X92186146Y-84004645D02*
X92138527Y-83909407D01*
X92138527Y-83909407D02*
X92090908Y-83861788D01*
X92090908Y-83861788D02*
X91995670Y-83814169D01*
X91995670Y-83814169D02*
X91900432Y-83814169D01*
X71891095Y-83931550D02*
X70367286Y-83931550D01*
D11*
%TO.C,U6*%
X142659144Y-74014926D02*
X142662697Y-93674672D01*
X142112697Y-94379570D02*
X65686962Y-94376017D01*
X142109144Y-73426010D02*
X65686962Y-73426010D01*
X65148053Y-83926017D02*
X65136962Y-73897671D01*
X65136962Y-93826017D02*
X65148053Y-83926017D01*
X142112697Y-94379570D02*
G75*
G03*
X142662697Y-93674672I-148674J683022D01*
G01*
X142659143Y-74014926D02*
G75*
G03*
X142109144Y-73426011I-590291J1D01*
G01*
X65136953Y-93826017D02*
G75*
G03*
X65686962Y-94376017I550000J0D01*
G01*
X65686963Y-73426005D02*
G75*
G03*
X65136962Y-73897671I-72760J-471662D01*
G01*
X138210330Y-83894879D02*
G75*
G03*
X138210330Y-83894879I-1581139J0D01*
G01*
X72710330Y-83958001D02*
G75*
G03*
X72710330Y-83958001I-1581139J0D01*
G01*
%TD*%
M02*
