M48
; DRILL file {KiCad (6.0.4-0)} date 2022 September 29, Thursday 18:28:08
; FORMAT={-:-/ absolute / inch / decimal}
; #@! TF.CreationDate,2022-09-29T18:28:08+01:00
; #@! TF.GenerationSoftware,Kicad,Pcbnew,(6.0.4-0)
; #@! TF.FileFunction,Plated,1,2,PTH
FMAT,2
INCH
; #@! TA.AperFunction,Plated,PTH,ViaDrill
T1C0.0118
; #@! TA.AperFunction,Plated,PTH,ComponentDrill
T2C0.0256
; #@! TA.AperFunction,Plated,PTH,ComponentDrill
T3C0.0591
; #@! TA.AperFunction,Plated,PTH,ComponentDrill
T4C0.0598
; #@! TA.AperFunction,Plated,PTH,ComponentDrill
T5C0.1260
%
G90
G05
T1
X3.7008Y-4.3543
X3.7008Y-4.3937
X3.7402Y-4.3543
X3.7402Y-4.3937
X3.7598Y-3.8386
X3.7598Y-3.878
X3.7992Y-3.8386
X3.7992Y-3.878
X3.8031Y-4.4724
X3.8386Y-3.8386
X3.8386Y-3.878
X3.878Y-3.8386
X3.878Y-3.878
X3.9173Y-3.8386
X3.9173Y-3.878
X3.9567Y-3.8386
X3.9567Y-3.878
X3.9961Y-3.8386
X3.9961Y-3.878
X4.0354Y-3.8386
X4.0354Y-3.878
X4.0748Y-3.8386
X4.0748Y-3.878
X4.1142Y-3.8386
X4.1142Y-3.878
X4.1535Y-3.8386
X4.1535Y-3.878
X4.1831Y-4.7815
X4.185Y-4.5669
X4.1929Y-3.8386
X4.1929Y-3.878
X4.2323Y-3.8386
X4.2323Y-3.878
X4.2323Y-3.9173
X4.2323Y-4.0748
X4.2323Y-4.1142
X4.2323Y-4.1535
X4.2323Y-4.1929
X4.252Y-4.5807
X4.2717Y-3.8386
X4.2717Y-3.878
X4.2717Y-3.9173
X4.2717Y-4.0748
X4.2717Y-4.1142
X4.2717Y-4.1535
X4.2717Y-4.1929
X4.311Y-3.8386
X4.311Y-3.878
X4.311Y-3.9173
X4.311Y-4.0748
X4.311Y-4.1142
X4.311Y-4.1535
X4.311Y-4.1929
X4.3504Y-3.8386
X4.3504Y-3.878
X4.3504Y-3.9173
X4.3504Y-4.0748
X4.3504Y-4.1142
X4.3504Y-4.1535
X4.3504Y-4.1929
X4.3799Y-4.5965
X4.3898Y-4.0748
X4.3898Y-4.1142
X4.3898Y-4.1535
X4.3898Y-4.1929
X4.4291Y-4.0748
X4.4291Y-4.1142
X4.4291Y-4.1535
X4.4291Y-4.1929
X4.4291Y-4.6457
X4.4291Y-4.685
X4.4311Y-4.3701
X4.4331Y-4.439
X4.4331Y-4.4705
X4.5276Y-4.5965
X4.5394Y-4.2087
X4.5748Y-4.2087
X4.5925Y-4.4444
X4.6102Y-4.2087
X4.6457Y-4.2087
X4.6811Y-4.2087
X4.7126Y-3.8307
X4.7126Y-3.8661
X4.7165Y-4.2087
X4.7283Y-4.7323
X4.748Y-3.8307
X4.748Y-3.8661
X4.75Y-4.0098
X4.752Y-4.2087
X4.7618Y-4.4877
X4.7874Y-4.2087
X4.8228Y-4.2087
X4.8228Y-4.7244
X4.8583Y-4.2087
X4.8898Y-4.7402
X4.8937Y-4.2087
X4.9291Y-4.2087
X4.9402Y-4.158
X4.9606Y-4.252
X4.9606Y-4.2913
X4.9606Y-4.3307
X4.9606Y-4.3701
X4.9606Y-4.4094
X4.9606Y-4.4488
X4.9606Y-4.4882
X4.9646Y-4.2087
X4.9724Y-4.5571
X4.9921Y-3.9646
X4.9961Y-4.6654
X5.0Y-4.2087
X5.0Y-4.252
X5.0Y-4.2913
X5.0Y-4.3307
X5.0Y-4.3701
X5.0Y-4.4094
X5.0Y-4.4488
X5.0Y-4.4882
X5.0354Y-4.2087
X5.0394Y-4.252
X5.0394Y-4.2913
X5.0394Y-4.3307
X5.0394Y-4.3701
X5.0394Y-4.4094
X5.0394Y-4.4488
X5.0394Y-4.4882
X5.0709Y-4.2087
X5.0787Y-4.252
X5.0787Y-4.2913
X5.0787Y-4.3307
X5.0787Y-4.3701
X5.0787Y-4.4094
X5.0787Y-4.4488
X5.0787Y-4.4882
X5.1063Y-4.2087
X5.1417Y-4.2087
X5.1772Y-4.2087
X5.1988Y-4.1043
X5.2126Y-4.2087
X5.2953Y-3.8386
X5.3346Y-3.8386
X5.3346Y-3.878
X5.3346Y-4.4488
X5.3346Y-4.4882
X5.374Y-3.8386
X5.374Y-3.878
X5.374Y-3.9173
X5.374Y-4.4488
X5.374Y-4.4882
X5.4134Y-3.8386
X5.4134Y-3.878
X5.4134Y-3.9173
X5.4134Y-3.9567
X5.4134Y-3.9961
X5.4528Y-3.8386
X5.4528Y-3.878
X5.4528Y-3.9173
X5.4528Y-3.9567
X5.4528Y-3.9961
X5.4528Y-4.0354
X5.4921Y-3.9961
X5.4921Y-4.0354
X5.4921Y-4.0748
T4
X5.5709Y-4.211
X5.5709Y-4.411
T5
X3.7697Y-4.7047
X5.6201Y-3.9173
X5.6201Y-4.7047
T2
G00X4.123Y-4.5965
M15
G01X4.1132Y-4.5965
M16
G05
G00X4.123Y-4.7657
M15
G01X4.1132Y-4.7657
M16
G05
G00X4.312Y-4.5965
M15
G01X4.3022Y-4.5965
M16
G05
G00X4.312Y-4.7657
M15
G01X4.3022Y-4.7657
M16
G05
T3
G00X3.8266Y-3.99
M15
G01X3.8266Y-4.1278
M16
G05
G00X4.1022Y-3.99
M15
G01X4.1022Y-4.1278
M16
G05
T0
M30
