%TF.GenerationSoftware,KiCad,Pcbnew,(6.0.4-0)*%
%TF.CreationDate,2022-09-29T18:28:13+01:00*%
%TF.ProjectId,smoke_extractorV1_1,736d6f6b-655f-4657-9874-726163746f72,rev?*%
%TF.SameCoordinates,Original*%
%TF.FileFunction,Legend,Top*%
%TF.FilePolarity,Positive*%
%FSLAX46Y46*%
G04 Gerber Fmt 4.6, Leading zero omitted, Abs format (unit mm)*
G04 Created by KiCad (PCBNEW (6.0.4-0)) date 2022-09-29 18:28:13*
%MOMM*%
%LPD*%
G01*
G04 APERTURE LIST*
%ADD10C,0.120000*%
%ADD11C,0.300000*%
%ADD12C,0.150000*%
G04 APERTURE END LIST*
D10*
X129750000Y-107000000D02*
X129750000Y-122450000D01*
X134400000Y-122450000D02*
X136900000Y-122450000D01*
X137100000Y-122450000D02*
X137100000Y-114850000D01*
X134400000Y-106800000D02*
X129750000Y-106800000D01*
X136900000Y-122450000D02*
X137100000Y-122450000D01*
X129750000Y-122450000D02*
X134400000Y-122450000D01*
X134400000Y-114850000D02*
X134400000Y-122450000D01*
X134400000Y-122450000D02*
X134400000Y-106800000D01*
X137100000Y-114850000D02*
X134400000Y-114850000D01*
X129750000Y-106800000D02*
X129750000Y-107000000D01*
D11*
X131769714Y-121626428D02*
X131826857Y-121455000D01*
X131826857Y-121169285D01*
X131769714Y-121055000D01*
X131712571Y-120997857D01*
X131598285Y-120940714D01*
X131484000Y-120940714D01*
X131369714Y-120997857D01*
X131312571Y-121055000D01*
X131255428Y-121169285D01*
X131198285Y-121397857D01*
X131141142Y-121512142D01*
X131084000Y-121569285D01*
X130969714Y-121626428D01*
X130855428Y-121626428D01*
X130741142Y-121569285D01*
X130684000Y-121512142D01*
X130626857Y-121397857D01*
X130626857Y-121112142D01*
X130684000Y-120940714D01*
X131826857Y-120426428D02*
X131026857Y-120426428D01*
X131141142Y-120426428D02*
X131084000Y-120369285D01*
X131026857Y-120255000D01*
X131026857Y-120083571D01*
X131084000Y-119969285D01*
X131198285Y-119912142D01*
X131826857Y-119912142D01*
X131198285Y-119912142D02*
X131084000Y-119855000D01*
X131026857Y-119740714D01*
X131026857Y-119569285D01*
X131084000Y-119455000D01*
X131198285Y-119397857D01*
X131826857Y-119397857D01*
X131826857Y-118655000D02*
X131769714Y-118769285D01*
X131712571Y-118826428D01*
X131598285Y-118883571D01*
X131255428Y-118883571D01*
X131141142Y-118826428D01*
X131084000Y-118769285D01*
X131026857Y-118655000D01*
X131026857Y-118483571D01*
X131084000Y-118369285D01*
X131141142Y-118312142D01*
X131255428Y-118255000D01*
X131598285Y-118255000D01*
X131712571Y-118312142D01*
X131769714Y-118369285D01*
X131826857Y-118483571D01*
X131826857Y-118655000D01*
X131826857Y-117740714D02*
X130626857Y-117740714D01*
X131369714Y-117626428D02*
X131826857Y-117283571D01*
X131026857Y-117283571D02*
X131484000Y-117740714D01*
X131769714Y-116312142D02*
X131826857Y-116426428D01*
X131826857Y-116655000D01*
X131769714Y-116769285D01*
X131655428Y-116826428D01*
X131198285Y-116826428D01*
X131084000Y-116769285D01*
X131026857Y-116655000D01*
X131026857Y-116426428D01*
X131084000Y-116312142D01*
X131198285Y-116255000D01*
X131312571Y-116255000D01*
X131426857Y-116826428D01*
X131198285Y-114826428D02*
X131198285Y-114426428D01*
X131826857Y-114255000D02*
X131826857Y-114826428D01*
X130626857Y-114826428D01*
X130626857Y-114255000D01*
X131826857Y-113855000D02*
X131026857Y-113226428D01*
X131026857Y-113855000D02*
X131826857Y-113226428D01*
X131026857Y-112940714D02*
X131026857Y-112483571D01*
X130626857Y-112769285D02*
X131655428Y-112769285D01*
X131769714Y-112712142D01*
X131826857Y-112597857D01*
X131826857Y-112483571D01*
X131826857Y-112083571D02*
X131026857Y-112083571D01*
X131255428Y-112083571D02*
X131141142Y-112026428D01*
X131084000Y-111969285D01*
X131026857Y-111855000D01*
X131026857Y-111740714D01*
X131826857Y-110826428D02*
X131198285Y-110826428D01*
X131084000Y-110883571D01*
X131026857Y-110997857D01*
X131026857Y-111226428D01*
X131084000Y-111340714D01*
X131769714Y-110826428D02*
X131826857Y-110940714D01*
X131826857Y-111226428D01*
X131769714Y-111340714D01*
X131655428Y-111397857D01*
X131541142Y-111397857D01*
X131426857Y-111340714D01*
X131369714Y-111226428D01*
X131369714Y-110940714D01*
X131312571Y-110826428D01*
X131769714Y-109740714D02*
X131826857Y-109855000D01*
X131826857Y-110083571D01*
X131769714Y-110197857D01*
X131712571Y-110255000D01*
X131598285Y-110312142D01*
X131255428Y-110312142D01*
X131141142Y-110255000D01*
X131084000Y-110197857D01*
X131026857Y-110083571D01*
X131026857Y-109855000D01*
X131084000Y-109740714D01*
X131026857Y-109397857D02*
X131026857Y-108940714D01*
X130626857Y-109226428D02*
X131655428Y-109226428D01*
X131769714Y-109169285D01*
X131826857Y-109055000D01*
X131826857Y-108940714D01*
X131826857Y-108369285D02*
X131769714Y-108483571D01*
X131712571Y-108540714D01*
X131598285Y-108597857D01*
X131255428Y-108597857D01*
X131141142Y-108540714D01*
X131084000Y-108483571D01*
X131026857Y-108369285D01*
X131026857Y-108197857D01*
X131084000Y-108083571D01*
X131141142Y-108026428D01*
X131255428Y-107969285D01*
X131598285Y-107969285D01*
X131712571Y-108026428D01*
X131769714Y-108083571D01*
X131826857Y-108197857D01*
X131826857Y-108369285D01*
X131826857Y-107455000D02*
X131026857Y-107455000D01*
X131255428Y-107455000D02*
X131141142Y-107397857D01*
X131084000Y-107340714D01*
X131026857Y-107226428D01*
X131026857Y-107112142D01*
X133758857Y-120940714D02*
X133758857Y-121626428D01*
X133758857Y-121283571D02*
X132558857Y-121283571D01*
X132730285Y-121397857D01*
X132844571Y-121512142D01*
X132901714Y-121626428D01*
X132958857Y-120540714D02*
X133758857Y-120255000D01*
X132958857Y-119969285D01*
X132673142Y-119569285D02*
X132616000Y-119512142D01*
X132558857Y-119397857D01*
X132558857Y-119112142D01*
X132616000Y-118997857D01*
X132673142Y-118940714D01*
X132787428Y-118883571D01*
X132901714Y-118883571D01*
X133073142Y-118940714D01*
X133758857Y-119626428D01*
X133758857Y-118883571D01*
D10*
X134735535Y-121486285D02*
X134735535Y-121843428D01*
X135092678Y-121879142D01*
X135056964Y-121843428D01*
X135021250Y-121772000D01*
X135021250Y-121593428D01*
X135056964Y-121522000D01*
X135092678Y-121486285D01*
X135164107Y-121450571D01*
X135342678Y-121450571D01*
X135414107Y-121486285D01*
X135449821Y-121522000D01*
X135485535Y-121593428D01*
X135485535Y-121772000D01*
X135449821Y-121843428D01*
X135414107Y-121879142D01*
X134735535Y-121236285D02*
X135485535Y-120986285D01*
X134735535Y-120736285D01*
X135128392Y-120022000D02*
X135092678Y-120057714D01*
X135056964Y-120129142D01*
X135056964Y-120200571D01*
X135092678Y-120272000D01*
X135128392Y-120307714D01*
X135199821Y-120343428D01*
X135271250Y-120343428D01*
X135342678Y-120307714D01*
X135378392Y-120272000D01*
X135414107Y-120200571D01*
X135414107Y-120129142D01*
X135378392Y-120057714D01*
X135342678Y-120022000D01*
X135056964Y-120022000D02*
X135342678Y-120022000D01*
X135378392Y-119986285D01*
X135378392Y-119950571D01*
X135342678Y-119879142D01*
X135271250Y-119843428D01*
X135092678Y-119843428D01*
X134985535Y-119914857D01*
X134914107Y-120022000D01*
X134878392Y-120164857D01*
X134914107Y-120307714D01*
X134985535Y-120414857D01*
X135092678Y-120486285D01*
X135235535Y-120522000D01*
X135378392Y-120486285D01*
X135485535Y-120414857D01*
X135556964Y-120307714D01*
X135592678Y-120164857D01*
X135556964Y-120022000D01*
X135485535Y-119914857D01*
X134735535Y-119200571D02*
X134735535Y-119343428D01*
X134771250Y-119414857D01*
X134806964Y-119450571D01*
X134914107Y-119522000D01*
X135056964Y-119557714D01*
X135342678Y-119557714D01*
X135414107Y-119522000D01*
X135449821Y-119486285D01*
X135485535Y-119414857D01*
X135485535Y-119272000D01*
X135449821Y-119200571D01*
X135414107Y-119164857D01*
X135342678Y-119129142D01*
X135164107Y-119129142D01*
X135092678Y-119164857D01*
X135056964Y-119200571D01*
X135021250Y-119272000D01*
X135021250Y-119414857D01*
X135056964Y-119486285D01*
X135092678Y-119522000D01*
X135164107Y-119557714D01*
X134735535Y-118664857D02*
X134735535Y-118593428D01*
X134771250Y-118522000D01*
X134806964Y-118486285D01*
X134878392Y-118450571D01*
X135021250Y-118414857D01*
X135199821Y-118414857D01*
X135342678Y-118450571D01*
X135414107Y-118486285D01*
X135449821Y-118522000D01*
X135485535Y-118593428D01*
X135485535Y-118664857D01*
X135449821Y-118736285D01*
X135414107Y-118772000D01*
X135342678Y-118807714D01*
X135199821Y-118843428D01*
X135021250Y-118843428D01*
X134878392Y-118807714D01*
X134806964Y-118772000D01*
X134771250Y-118736285D01*
X134735535Y-118664857D01*
X134735535Y-117950571D02*
X134735535Y-117879142D01*
X134771250Y-117807714D01*
X134806964Y-117772000D01*
X134878392Y-117736285D01*
X135021250Y-117700571D01*
X135199821Y-117700571D01*
X135342678Y-117736285D01*
X135414107Y-117772000D01*
X135449821Y-117807714D01*
X135485535Y-117879142D01*
X135485535Y-117950571D01*
X135449821Y-118022000D01*
X135414107Y-118057714D01*
X135342678Y-118093428D01*
X135199821Y-118129142D01*
X135021250Y-118129142D01*
X134878392Y-118093428D01*
X134806964Y-118057714D01*
X134771250Y-118022000D01*
X134735535Y-117950571D01*
X135485535Y-117379142D02*
X134985535Y-117379142D01*
X135056964Y-117379142D02*
X135021250Y-117343428D01*
X134985535Y-117272000D01*
X134985535Y-117164857D01*
X135021250Y-117093428D01*
X135092678Y-117057714D01*
X135485535Y-117057714D01*
X135092678Y-117057714D02*
X135021250Y-117022000D01*
X134985535Y-116950571D01*
X134985535Y-116843428D01*
X135021250Y-116772000D01*
X135092678Y-116736285D01*
X135485535Y-116736285D01*
X135271250Y-116414857D02*
X135271250Y-116057714D01*
X135485535Y-116486285D02*
X134735535Y-116236285D01*
X135485535Y-115986285D01*
X136693035Y-121450571D02*
X136693035Y-121879142D01*
X136693035Y-121664857D02*
X135943035Y-121664857D01*
X136050178Y-121736285D01*
X136121607Y-121807714D01*
X136157321Y-121879142D01*
X136014464Y-121164857D02*
X135978750Y-121129142D01*
X135943035Y-121057714D01*
X135943035Y-120879142D01*
X135978750Y-120807714D01*
X136014464Y-120772000D01*
X136085892Y-120736285D01*
X136157321Y-120736285D01*
X136264464Y-120772000D01*
X136693035Y-121200571D01*
X136693035Y-120736285D01*
X135943035Y-120522000D02*
X136693035Y-120272000D01*
X135943035Y-120022000D01*
X136335892Y-119307714D02*
X136300178Y-119343428D01*
X136264464Y-119414857D01*
X136264464Y-119486285D01*
X136300178Y-119557714D01*
X136335892Y-119593428D01*
X136407321Y-119629142D01*
X136478750Y-119629142D01*
X136550178Y-119593428D01*
X136585892Y-119557714D01*
X136621607Y-119486285D01*
X136621607Y-119414857D01*
X136585892Y-119343428D01*
X136550178Y-119307714D01*
X136264464Y-119307714D02*
X136550178Y-119307714D01*
X136585892Y-119272000D01*
X136585892Y-119236285D01*
X136550178Y-119164857D01*
X136478750Y-119129142D01*
X136300178Y-119129142D01*
X136193035Y-119200571D01*
X136121607Y-119307714D01*
X136085892Y-119450571D01*
X136121607Y-119593428D01*
X136193035Y-119700571D01*
X136300178Y-119772000D01*
X136443035Y-119807714D01*
X136585892Y-119772000D01*
X136693035Y-119700571D01*
X136764464Y-119593428D01*
X136800178Y-119450571D01*
X136764464Y-119307714D01*
X136693035Y-119200571D01*
X136014464Y-118843428D02*
X135978750Y-118807714D01*
X135943035Y-118736285D01*
X135943035Y-118557714D01*
X135978750Y-118486285D01*
X136014464Y-118450571D01*
X136085892Y-118414857D01*
X136157321Y-118414857D01*
X136264464Y-118450571D01*
X136693035Y-118879142D01*
X136693035Y-118414857D01*
X135943035Y-117950571D02*
X135943035Y-117879142D01*
X135978750Y-117807714D01*
X136014464Y-117772000D01*
X136085892Y-117736285D01*
X136228750Y-117700571D01*
X136407321Y-117700571D01*
X136550178Y-117736285D01*
X136621607Y-117772000D01*
X136657321Y-117807714D01*
X136693035Y-117879142D01*
X136693035Y-117950571D01*
X136657321Y-118022000D01*
X136621607Y-118057714D01*
X136550178Y-118093428D01*
X136407321Y-118129142D01*
X136228750Y-118129142D01*
X136085892Y-118093428D01*
X136014464Y-118057714D01*
X135978750Y-118022000D01*
X135943035Y-117950571D01*
X135943035Y-117236285D02*
X135943035Y-117164857D01*
X135978750Y-117093428D01*
X136014464Y-117057714D01*
X136085892Y-117022000D01*
X136228750Y-116986285D01*
X136407321Y-116986285D01*
X136550178Y-117022000D01*
X136621607Y-117057714D01*
X136657321Y-117093428D01*
X136693035Y-117164857D01*
X136693035Y-117236285D01*
X136657321Y-117307714D01*
X136621607Y-117343428D01*
X136550178Y-117379142D01*
X136407321Y-117414857D01*
X136228750Y-117414857D01*
X136085892Y-117379142D01*
X136014464Y-117343428D01*
X135978750Y-117307714D01*
X135943035Y-117236285D01*
X136693035Y-116664857D02*
X136193035Y-116664857D01*
X136264464Y-116664857D02*
X136228750Y-116629142D01*
X136193035Y-116557714D01*
X136193035Y-116450571D01*
X136228750Y-116379142D01*
X136300178Y-116343428D01*
X136693035Y-116343428D01*
X136300178Y-116343428D02*
X136228750Y-116307714D01*
X136193035Y-116236285D01*
X136193035Y-116129142D01*
X136228750Y-116057714D01*
X136300178Y-116022000D01*
X136693035Y-116022000D01*
X136478750Y-115700571D02*
X136478750Y-115343428D01*
X136693035Y-115772000D02*
X135943035Y-115522000D01*
X136693035Y-115272000D01*
D12*
%TO.C,J2*%
X144052380Y-109833333D02*
X144766666Y-109833333D01*
X144909523Y-109880952D01*
X145004761Y-109976190D01*
X145052380Y-110119047D01*
X145052380Y-110214285D01*
X144147619Y-109404761D02*
X144100000Y-109357142D01*
X144052380Y-109261904D01*
X144052380Y-109023809D01*
X144100000Y-108928571D01*
X144147619Y-108880952D01*
X144242857Y-108833333D01*
X144338095Y-108833333D01*
X144480952Y-108880952D01*
X145052380Y-109452380D01*
X145052380Y-108833333D01*
D10*
%TO.C,R15*%
X114939285Y-99182142D02*
X114582142Y-99432142D01*
X114939285Y-99610714D02*
X114189285Y-99610714D01*
X114189285Y-99325000D01*
X114225000Y-99253571D01*
X114260714Y-99217857D01*
X114332142Y-99182142D01*
X114439285Y-99182142D01*
X114510714Y-99217857D01*
X114546428Y-99253571D01*
X114582142Y-99325000D01*
X114582142Y-99610714D01*
X114939285Y-98467857D02*
X114939285Y-98896428D01*
X114939285Y-98682142D02*
X114189285Y-98682142D01*
X114296428Y-98753571D01*
X114367857Y-98825000D01*
X114403571Y-98896428D01*
X114189285Y-97789285D02*
X114189285Y-98146428D01*
X114546428Y-98182142D01*
X114510714Y-98146428D01*
X114475000Y-98075000D01*
X114475000Y-97896428D01*
X114510714Y-97825000D01*
X114546428Y-97789285D01*
X114617857Y-97753571D01*
X114796428Y-97753571D01*
X114867857Y-97789285D01*
X114903571Y-97825000D01*
X114939285Y-97896428D01*
X114939285Y-98075000D01*
X114903571Y-98146428D01*
X114867857Y-98182142D01*
%TO.C,C4*%
X119375000Y-98467857D02*
X119339285Y-98503571D01*
X119232142Y-98539285D01*
X119160714Y-98539285D01*
X119053571Y-98503571D01*
X118982142Y-98432142D01*
X118946428Y-98360714D01*
X118910714Y-98217857D01*
X118910714Y-98110714D01*
X118946428Y-97967857D01*
X118982142Y-97896428D01*
X119053571Y-97825000D01*
X119160714Y-97789285D01*
X119232142Y-97789285D01*
X119339285Y-97825000D01*
X119375000Y-97860714D01*
X120017857Y-98039285D02*
X120017857Y-98539285D01*
X119839285Y-97753571D02*
X119660714Y-98289285D01*
X120125000Y-98289285D01*
D12*
%TO.C,R9*%
X106533333Y-116552380D02*
X106200000Y-116076190D01*
X105961904Y-116552380D02*
X105961904Y-115552380D01*
X106342857Y-115552380D01*
X106438095Y-115600000D01*
X106485714Y-115647619D01*
X106533333Y-115742857D01*
X106533333Y-115885714D01*
X106485714Y-115980952D01*
X106438095Y-116028571D01*
X106342857Y-116076190D01*
X105961904Y-116076190D01*
X107009523Y-116552380D02*
X107200000Y-116552380D01*
X107295238Y-116504761D01*
X107342857Y-116457142D01*
X107438095Y-116314285D01*
X107485714Y-116123809D01*
X107485714Y-115742857D01*
X107438095Y-115647619D01*
X107390476Y-115600000D01*
X107295238Y-115552380D01*
X107104761Y-115552380D01*
X107009523Y-115600000D01*
X106961904Y-115647619D01*
X106914285Y-115742857D01*
X106914285Y-115980952D01*
X106961904Y-116076190D01*
X107009523Y-116123809D01*
X107104761Y-116171428D01*
X107295238Y-116171428D01*
X107390476Y-116123809D01*
X107438095Y-116076190D01*
X107485714Y-115980952D01*
%TO.C,D2*%
X112311904Y-113202380D02*
X112311904Y-112202380D01*
X112550000Y-112202380D01*
X112692857Y-112250000D01*
X112788095Y-112345238D01*
X112835714Y-112440476D01*
X112883333Y-112630952D01*
X112883333Y-112773809D01*
X112835714Y-112964285D01*
X112788095Y-113059523D01*
X112692857Y-113154761D01*
X112550000Y-113202380D01*
X112311904Y-113202380D01*
X113264285Y-112297619D02*
X113311904Y-112250000D01*
X113407142Y-112202380D01*
X113645238Y-112202380D01*
X113740476Y-112250000D01*
X113788095Y-112297619D01*
X113835714Y-112392857D01*
X113835714Y-112488095D01*
X113788095Y-112630952D01*
X113216666Y-113202380D01*
X113835714Y-113202380D01*
D10*
%TO.C,R13*%
X115317857Y-108339285D02*
X115067857Y-107982142D01*
X114889285Y-108339285D02*
X114889285Y-107589285D01*
X115175000Y-107589285D01*
X115246428Y-107625000D01*
X115282142Y-107660714D01*
X115317857Y-107732142D01*
X115317857Y-107839285D01*
X115282142Y-107910714D01*
X115246428Y-107946428D01*
X115175000Y-107982142D01*
X114889285Y-107982142D01*
X116032142Y-108339285D02*
X115603571Y-108339285D01*
X115817857Y-108339285D02*
X115817857Y-107589285D01*
X115746428Y-107696428D01*
X115675000Y-107767857D01*
X115603571Y-107803571D01*
X116282142Y-107589285D02*
X116746428Y-107589285D01*
X116496428Y-107875000D01*
X116603571Y-107875000D01*
X116675000Y-107910714D01*
X116710714Y-107946428D01*
X116746428Y-108017857D01*
X116746428Y-108196428D01*
X116710714Y-108267857D01*
X116675000Y-108303571D01*
X116603571Y-108339285D01*
X116389285Y-108339285D01*
X116317857Y-108303571D01*
X116282142Y-108267857D01*
D12*
%TO.C,R17*%
X133524182Y-106104034D02*
X133190849Y-105627844D01*
X132952754Y-106104034D02*
X132952754Y-105104034D01*
X133333706Y-105104034D01*
X133428944Y-105151654D01*
X133476563Y-105199273D01*
X133524182Y-105294511D01*
X133524182Y-105437368D01*
X133476563Y-105532606D01*
X133428944Y-105580225D01*
X133333706Y-105627844D01*
X132952754Y-105627844D01*
X134476563Y-106104034D02*
X133905135Y-106104034D01*
X134190849Y-106104034D02*
X134190849Y-105104034D01*
X134095611Y-105246892D01*
X134000373Y-105342130D01*
X133905135Y-105389749D01*
X134809897Y-105104034D02*
X135476563Y-105104034D01*
X135047992Y-106104034D01*
D10*
%TO.C,C5*%
X129875000Y-104767857D02*
X129839285Y-104803571D01*
X129732142Y-104839285D01*
X129660714Y-104839285D01*
X129553571Y-104803571D01*
X129482142Y-104732142D01*
X129446428Y-104660714D01*
X129410714Y-104517857D01*
X129410714Y-104410714D01*
X129446428Y-104267857D01*
X129482142Y-104196428D01*
X129553571Y-104125000D01*
X129660714Y-104089285D01*
X129732142Y-104089285D01*
X129839285Y-104125000D01*
X129875000Y-104160714D01*
X130553571Y-104089285D02*
X130196428Y-104089285D01*
X130160714Y-104446428D01*
X130196428Y-104410714D01*
X130267857Y-104375000D01*
X130446428Y-104375000D01*
X130517857Y-104410714D01*
X130553571Y-104446428D01*
X130589285Y-104517857D01*
X130589285Y-104696428D01*
X130553571Y-104767857D01*
X130517857Y-104803571D01*
X130446428Y-104839285D01*
X130267857Y-104839285D01*
X130196428Y-104803571D01*
X130160714Y-104767857D01*
%TO.C,R3*%
X120539285Y-121325000D02*
X120182142Y-121575000D01*
X120539285Y-121753571D02*
X119789285Y-121753571D01*
X119789285Y-121467857D01*
X119825000Y-121396428D01*
X119860714Y-121360714D01*
X119932142Y-121325000D01*
X120039285Y-121325000D01*
X120110714Y-121360714D01*
X120146428Y-121396428D01*
X120182142Y-121467857D01*
X120182142Y-121753571D01*
X119789285Y-121075000D02*
X119789285Y-120610714D01*
X120075000Y-120860714D01*
X120075000Y-120753571D01*
X120110714Y-120682142D01*
X120146428Y-120646428D01*
X120217857Y-120610714D01*
X120396428Y-120610714D01*
X120467857Y-120646428D01*
X120503571Y-120682142D01*
X120539285Y-120753571D01*
X120539285Y-120967857D01*
X120503571Y-121039285D01*
X120467857Y-121075000D01*
%TO.C,R18*%
X128939285Y-118682142D02*
X128582142Y-118932142D01*
X128939285Y-119110714D02*
X128189285Y-119110714D01*
X128189285Y-118825000D01*
X128225000Y-118753571D01*
X128260714Y-118717857D01*
X128332142Y-118682142D01*
X128439285Y-118682142D01*
X128510714Y-118717857D01*
X128546428Y-118753571D01*
X128582142Y-118825000D01*
X128582142Y-119110714D01*
X128939285Y-117967857D02*
X128939285Y-118396428D01*
X128939285Y-118182142D02*
X128189285Y-118182142D01*
X128296428Y-118253571D01*
X128367857Y-118325000D01*
X128403571Y-118396428D01*
X128510714Y-117539285D02*
X128475000Y-117610714D01*
X128439285Y-117646428D01*
X128367857Y-117682142D01*
X128332142Y-117682142D01*
X128260714Y-117646428D01*
X128225000Y-117610714D01*
X128189285Y-117539285D01*
X128189285Y-117396428D01*
X128225000Y-117325000D01*
X128260714Y-117289285D01*
X128332142Y-117253571D01*
X128367857Y-117253571D01*
X128439285Y-117289285D01*
X128475000Y-117325000D01*
X128510714Y-117396428D01*
X128510714Y-117539285D01*
X128546428Y-117610714D01*
X128582142Y-117646428D01*
X128653571Y-117682142D01*
X128796428Y-117682142D01*
X128867857Y-117646428D01*
X128903571Y-117610714D01*
X128939285Y-117539285D01*
X128939285Y-117396428D01*
X128903571Y-117325000D01*
X128867857Y-117289285D01*
X128796428Y-117253571D01*
X128653571Y-117253571D01*
X128582142Y-117289285D01*
X128546428Y-117325000D01*
X128510714Y-117396428D01*
%TO.C,R6*%
X122789285Y-118325000D02*
X122432142Y-118575000D01*
X122789285Y-118753571D02*
X122039285Y-118753571D01*
X122039285Y-118467857D01*
X122075000Y-118396428D01*
X122110714Y-118360714D01*
X122182142Y-118325000D01*
X122289285Y-118325000D01*
X122360714Y-118360714D01*
X122396428Y-118396428D01*
X122432142Y-118467857D01*
X122432142Y-118753571D01*
X122039285Y-117682142D02*
X122039285Y-117825000D01*
X122075000Y-117896428D01*
X122110714Y-117932142D01*
X122217857Y-118003571D01*
X122360714Y-118039285D01*
X122646428Y-118039285D01*
X122717857Y-118003571D01*
X122753571Y-117967857D01*
X122789285Y-117896428D01*
X122789285Y-117753571D01*
X122753571Y-117682142D01*
X122717857Y-117646428D01*
X122646428Y-117610714D01*
X122467857Y-117610714D01*
X122396428Y-117646428D01*
X122360714Y-117682142D01*
X122325000Y-117753571D01*
X122325000Y-117896428D01*
X122360714Y-117967857D01*
X122396428Y-118003571D01*
X122467857Y-118039285D01*
%TO.C,R5*%
X112739285Y-116025000D02*
X112382142Y-116275000D01*
X112739285Y-116453571D02*
X111989285Y-116453571D01*
X111989285Y-116167857D01*
X112025000Y-116096428D01*
X112060714Y-116060714D01*
X112132142Y-116025000D01*
X112239285Y-116025000D01*
X112310714Y-116060714D01*
X112346428Y-116096428D01*
X112382142Y-116167857D01*
X112382142Y-116453571D01*
X111989285Y-115346428D02*
X111989285Y-115703571D01*
X112346428Y-115739285D01*
X112310714Y-115703571D01*
X112275000Y-115632142D01*
X112275000Y-115453571D01*
X112310714Y-115382142D01*
X112346428Y-115346428D01*
X112417857Y-115310714D01*
X112596428Y-115310714D01*
X112667857Y-115346428D01*
X112703571Y-115382142D01*
X112739285Y-115453571D01*
X112739285Y-115632142D01*
X112703571Y-115703571D01*
X112667857Y-115739285D01*
D12*
%TO.C,C6*%
X124683333Y-115757142D02*
X124635714Y-115804761D01*
X124492857Y-115852380D01*
X124397619Y-115852380D01*
X124254761Y-115804761D01*
X124159523Y-115709523D01*
X124111904Y-115614285D01*
X124064285Y-115423809D01*
X124064285Y-115280952D01*
X124111904Y-115090476D01*
X124159523Y-114995238D01*
X124254761Y-114900000D01*
X124397619Y-114852380D01*
X124492857Y-114852380D01*
X124635714Y-114900000D01*
X124683333Y-114947619D01*
X125540476Y-114852380D02*
X125350000Y-114852380D01*
X125254761Y-114900000D01*
X125207142Y-114947619D01*
X125111904Y-115090476D01*
X125064285Y-115280952D01*
X125064285Y-115661904D01*
X125111904Y-115757142D01*
X125159523Y-115804761D01*
X125254761Y-115852380D01*
X125445238Y-115852380D01*
X125540476Y-115804761D01*
X125588095Y-115757142D01*
X125635714Y-115661904D01*
X125635714Y-115423809D01*
X125588095Y-115328571D01*
X125540476Y-115280952D01*
X125445238Y-115233333D01*
X125254761Y-115233333D01*
X125159523Y-115280952D01*
X125111904Y-115328571D01*
X125064285Y-115423809D01*
D10*
%TO.C,L1*%
X123875000Y-97039285D02*
X123517857Y-97039285D01*
X123517857Y-96289285D01*
X124517857Y-97039285D02*
X124089285Y-97039285D01*
X124303571Y-97039285D02*
X124303571Y-96289285D01*
X124232142Y-96396428D01*
X124160714Y-96467857D01*
X124089285Y-96503571D01*
D12*
%TO.C,R10*%
X106557142Y-115202380D02*
X106223809Y-114726190D01*
X105985714Y-115202380D02*
X105985714Y-114202380D01*
X106366666Y-114202380D01*
X106461904Y-114250000D01*
X106509523Y-114297619D01*
X106557142Y-114392857D01*
X106557142Y-114535714D01*
X106509523Y-114630952D01*
X106461904Y-114678571D01*
X106366666Y-114726190D01*
X105985714Y-114726190D01*
X107509523Y-115202380D02*
X106938095Y-115202380D01*
X107223809Y-115202380D02*
X107223809Y-114202380D01*
X107128571Y-114345238D01*
X107033333Y-114440476D01*
X106938095Y-114488095D01*
X108128571Y-114202380D02*
X108223809Y-114202380D01*
X108319047Y-114250000D01*
X108366666Y-114297619D01*
X108414285Y-114392857D01*
X108461904Y-114583333D01*
X108461904Y-114821428D01*
X108414285Y-115011904D01*
X108366666Y-115107142D01*
X108319047Y-115154761D01*
X108223809Y-115202380D01*
X108128571Y-115202380D01*
X108033333Y-115154761D01*
X107985714Y-115107142D01*
X107938095Y-115011904D01*
X107890476Y-114821428D01*
X107890476Y-114583333D01*
X107938095Y-114392857D01*
X107985714Y-114297619D01*
X108033333Y-114250000D01*
X108128571Y-114202380D01*
%TO.C,D3*%
X112311904Y-111452380D02*
X112311904Y-110452380D01*
X112550000Y-110452380D01*
X112692857Y-110500000D01*
X112788095Y-110595238D01*
X112835714Y-110690476D01*
X112883333Y-110880952D01*
X112883333Y-111023809D01*
X112835714Y-111214285D01*
X112788095Y-111309523D01*
X112692857Y-111404761D01*
X112550000Y-111452380D01*
X112311904Y-111452380D01*
X113216666Y-110452380D02*
X113835714Y-110452380D01*
X113502380Y-110833333D01*
X113645238Y-110833333D01*
X113740476Y-110880952D01*
X113788095Y-110928571D01*
X113835714Y-111023809D01*
X113835714Y-111261904D01*
X113788095Y-111357142D01*
X113740476Y-111404761D01*
X113645238Y-111452380D01*
X113359523Y-111452380D01*
X113264285Y-111404761D01*
X113216666Y-111357142D01*
%TO.C,J1*%
X103297619Y-119566666D02*
X102583333Y-119566666D01*
X102440476Y-119519047D01*
X102345238Y-119423809D01*
X102297619Y-119280952D01*
X102297619Y-119185714D01*
X102297619Y-120566666D02*
X102297619Y-119995238D01*
X102297619Y-120280952D02*
X103297619Y-120280952D01*
X103154761Y-120185714D01*
X103059523Y-120090476D01*
X103011904Y-119995238D01*
D10*
%TO.C,D4*%
X114839285Y-106103571D02*
X114089285Y-106103571D01*
X114089285Y-105925000D01*
X114125000Y-105817857D01*
X114196428Y-105746428D01*
X114267857Y-105710714D01*
X114410714Y-105675000D01*
X114517857Y-105675000D01*
X114660714Y-105710714D01*
X114732142Y-105746428D01*
X114803571Y-105817857D01*
X114839285Y-105925000D01*
X114839285Y-106103571D01*
X114339285Y-105032142D02*
X114839285Y-105032142D01*
X114053571Y-105210714D02*
X114589285Y-105389285D01*
X114589285Y-104925000D01*
%TO.C,C2*%
X119975000Y-102167857D02*
X119939285Y-102203571D01*
X119832142Y-102239285D01*
X119760714Y-102239285D01*
X119653571Y-102203571D01*
X119582142Y-102132142D01*
X119546428Y-102060714D01*
X119510714Y-101917857D01*
X119510714Y-101810714D01*
X119546428Y-101667857D01*
X119582142Y-101596428D01*
X119653571Y-101525000D01*
X119760714Y-101489285D01*
X119832142Y-101489285D01*
X119939285Y-101525000D01*
X119975000Y-101560714D01*
X120260714Y-101560714D02*
X120296428Y-101525000D01*
X120367857Y-101489285D01*
X120546428Y-101489285D01*
X120617857Y-101525000D01*
X120653571Y-101560714D01*
X120689285Y-101632142D01*
X120689285Y-101703571D01*
X120653571Y-101810714D01*
X120225000Y-102239285D01*
X120689285Y-102239285D01*
D12*
%TO.C,R2*%
X100133333Y-114952380D02*
X99800000Y-114476190D01*
X99561904Y-114952380D02*
X99561904Y-113952380D01*
X99942857Y-113952380D01*
X100038095Y-114000000D01*
X100085714Y-114047619D01*
X100133333Y-114142857D01*
X100133333Y-114285714D01*
X100085714Y-114380952D01*
X100038095Y-114428571D01*
X99942857Y-114476190D01*
X99561904Y-114476190D01*
X100514285Y-114047619D02*
X100561904Y-114000000D01*
X100657142Y-113952380D01*
X100895238Y-113952380D01*
X100990476Y-114000000D01*
X101038095Y-114047619D01*
X101085714Y-114142857D01*
X101085714Y-114238095D01*
X101038095Y-114380952D01*
X100466666Y-114952380D01*
X101085714Y-114952380D01*
D10*
%TO.C,C7*%
X119575000Y-108267857D02*
X119539285Y-108303571D01*
X119432142Y-108339285D01*
X119360714Y-108339285D01*
X119253571Y-108303571D01*
X119182142Y-108232142D01*
X119146428Y-108160714D01*
X119110714Y-108017857D01*
X119110714Y-107910714D01*
X119146428Y-107767857D01*
X119182142Y-107696428D01*
X119253571Y-107625000D01*
X119360714Y-107589285D01*
X119432142Y-107589285D01*
X119539285Y-107625000D01*
X119575000Y-107660714D01*
X119825000Y-107589285D02*
X120325000Y-107589285D01*
X120003571Y-108339285D01*
%TO.C,C3*%
X126475000Y-105867857D02*
X126439285Y-105903571D01*
X126332142Y-105939285D01*
X126260714Y-105939285D01*
X126153571Y-105903571D01*
X126082142Y-105832142D01*
X126046428Y-105760714D01*
X126010714Y-105617857D01*
X126010714Y-105510714D01*
X126046428Y-105367857D01*
X126082142Y-105296428D01*
X126153571Y-105225000D01*
X126260714Y-105189285D01*
X126332142Y-105189285D01*
X126439285Y-105225000D01*
X126475000Y-105260714D01*
X126725000Y-105189285D02*
X127189285Y-105189285D01*
X126939285Y-105475000D01*
X127046428Y-105475000D01*
X127117857Y-105510714D01*
X127153571Y-105546428D01*
X127189285Y-105617857D01*
X127189285Y-105796428D01*
X127153571Y-105867857D01*
X127117857Y-105903571D01*
X127046428Y-105939285D01*
X126832142Y-105939285D01*
X126760714Y-105903571D01*
X126725000Y-105867857D01*
D12*
%TO.C,R16*%
X134502380Y-102992857D02*
X134026190Y-103326190D01*
X134502380Y-103564285D02*
X133502380Y-103564285D01*
X133502380Y-103183333D01*
X133550000Y-103088095D01*
X133597619Y-103040476D01*
X133692857Y-102992857D01*
X133835714Y-102992857D01*
X133930952Y-103040476D01*
X133978571Y-103088095D01*
X134026190Y-103183333D01*
X134026190Y-103564285D01*
X134502380Y-102040476D02*
X134502380Y-102611904D01*
X134502380Y-102326190D02*
X133502380Y-102326190D01*
X133645238Y-102421428D01*
X133740476Y-102516666D01*
X133788095Y-102611904D01*
X133502380Y-101183333D02*
X133502380Y-101373809D01*
X133550000Y-101469047D01*
X133597619Y-101516666D01*
X133740476Y-101611904D01*
X133930952Y-101659523D01*
X134311904Y-101659523D01*
X134407142Y-101611904D01*
X134454761Y-101564285D01*
X134502380Y-101469047D01*
X134502380Y-101278571D01*
X134454761Y-101183333D01*
X134407142Y-101135714D01*
X134311904Y-101088095D01*
X134073809Y-101088095D01*
X133978571Y-101135714D01*
X133930952Y-101183333D01*
X133883333Y-101278571D01*
X133883333Y-101469047D01*
X133930952Y-101564285D01*
X133978571Y-101611904D01*
X134073809Y-101659523D01*
%TO.C,R19*%
X125402380Y-112642857D02*
X124926190Y-112976190D01*
X125402380Y-113214285D02*
X124402380Y-113214285D01*
X124402380Y-112833333D01*
X124450000Y-112738095D01*
X124497619Y-112690476D01*
X124592857Y-112642857D01*
X124735714Y-112642857D01*
X124830952Y-112690476D01*
X124878571Y-112738095D01*
X124926190Y-112833333D01*
X124926190Y-113214285D01*
X125402380Y-111690476D02*
X125402380Y-112261904D01*
X125402380Y-111976190D02*
X124402380Y-111976190D01*
X124545238Y-112071428D01*
X124640476Y-112166666D01*
X124688095Y-112261904D01*
X125402380Y-111214285D02*
X125402380Y-111023809D01*
X125354761Y-110928571D01*
X125307142Y-110880952D01*
X125164285Y-110785714D01*
X124973809Y-110738095D01*
X124592857Y-110738095D01*
X124497619Y-110785714D01*
X124450000Y-110833333D01*
X124402380Y-110928571D01*
X124402380Y-111119047D01*
X124450000Y-111214285D01*
X124497619Y-111261904D01*
X124592857Y-111309523D01*
X124830952Y-111309523D01*
X124926190Y-111261904D01*
X124973809Y-111214285D01*
X125021428Y-111119047D01*
X125021428Y-110928571D01*
X124973809Y-110833333D01*
X124926190Y-110785714D01*
X124830952Y-110738095D01*
%TO.C,D6*%
X94461904Y-111952380D02*
X94461904Y-110952380D01*
X94700000Y-110952380D01*
X94842857Y-111000000D01*
X94938095Y-111095238D01*
X94985714Y-111190476D01*
X95033333Y-111380952D01*
X95033333Y-111523809D01*
X94985714Y-111714285D01*
X94938095Y-111809523D01*
X94842857Y-111904761D01*
X94700000Y-111952380D01*
X94461904Y-111952380D01*
X95890476Y-110952380D02*
X95700000Y-110952380D01*
X95604761Y-111000000D01*
X95557142Y-111047619D01*
X95461904Y-111190476D01*
X95414285Y-111380952D01*
X95414285Y-111761904D01*
X95461904Y-111857142D01*
X95509523Y-111904761D01*
X95604761Y-111952380D01*
X95795238Y-111952380D01*
X95890476Y-111904761D01*
X95938095Y-111857142D01*
X95985714Y-111761904D01*
X95985714Y-111523809D01*
X95938095Y-111428571D01*
X95890476Y-111380952D01*
X95795238Y-111333333D01*
X95604761Y-111333333D01*
X95509523Y-111380952D01*
X95461904Y-111428571D01*
X95414285Y-111523809D01*
D10*
%TO.C,D5*%
X131746428Y-98939285D02*
X131746428Y-98189285D01*
X131925000Y-98189285D01*
X132032142Y-98225000D01*
X132103571Y-98296428D01*
X132139285Y-98367857D01*
X132175000Y-98510714D01*
X132175000Y-98617857D01*
X132139285Y-98760714D01*
X132103571Y-98832142D01*
X132032142Y-98903571D01*
X131925000Y-98939285D01*
X131746428Y-98939285D01*
X132853571Y-98189285D02*
X132496428Y-98189285D01*
X132460714Y-98546428D01*
X132496428Y-98510714D01*
X132567857Y-98475000D01*
X132746428Y-98475000D01*
X132817857Y-98510714D01*
X132853571Y-98546428D01*
X132889285Y-98617857D01*
X132889285Y-98796428D01*
X132853571Y-98867857D01*
X132817857Y-98903571D01*
X132746428Y-98939285D01*
X132567857Y-98939285D01*
X132496428Y-98903571D01*
X132460714Y-98867857D01*
D12*
%TO.C,R8*%
X93652380Y-114266666D02*
X93176190Y-114600000D01*
X93652380Y-114838095D02*
X92652380Y-114838095D01*
X92652380Y-114457142D01*
X92700000Y-114361904D01*
X92747619Y-114314285D01*
X92842857Y-114266666D01*
X92985714Y-114266666D01*
X93080952Y-114314285D01*
X93128571Y-114361904D01*
X93176190Y-114457142D01*
X93176190Y-114838095D01*
X93080952Y-113695238D02*
X93033333Y-113790476D01*
X92985714Y-113838095D01*
X92890476Y-113885714D01*
X92842857Y-113885714D01*
X92747619Y-113838095D01*
X92700000Y-113790476D01*
X92652380Y-113695238D01*
X92652380Y-113504761D01*
X92700000Y-113409523D01*
X92747619Y-113361904D01*
X92842857Y-113314285D01*
X92890476Y-113314285D01*
X92985714Y-113361904D01*
X93033333Y-113409523D01*
X93080952Y-113504761D01*
X93080952Y-113695238D01*
X93128571Y-113790476D01*
X93176190Y-113838095D01*
X93271428Y-113885714D01*
X93461904Y-113885714D01*
X93557142Y-113838095D01*
X93604761Y-113790476D01*
X93652380Y-113695238D01*
X93652380Y-113504761D01*
X93604761Y-113409523D01*
X93557142Y-113361904D01*
X93461904Y-113314285D01*
X93271428Y-113314285D01*
X93176190Y-113361904D01*
X93128571Y-113409523D01*
X93080952Y-113504761D01*
%TO.C,R7*%
X97933333Y-113952380D02*
X97600000Y-113476190D01*
X97361904Y-113952380D02*
X97361904Y-112952380D01*
X97742857Y-112952380D01*
X97838095Y-113000000D01*
X97885714Y-113047619D01*
X97933333Y-113142857D01*
X97933333Y-113285714D01*
X97885714Y-113380952D01*
X97838095Y-113428571D01*
X97742857Y-113476190D01*
X97361904Y-113476190D01*
X98266666Y-112952380D02*
X98933333Y-112952380D01*
X98504761Y-113952380D01*
%TO.C,C1*%
X117383333Y-114707142D02*
X117335714Y-114754761D01*
X117192857Y-114802380D01*
X117097619Y-114802380D01*
X116954761Y-114754761D01*
X116859523Y-114659523D01*
X116811904Y-114564285D01*
X116764285Y-114373809D01*
X116764285Y-114230952D01*
X116811904Y-114040476D01*
X116859523Y-113945238D01*
X116954761Y-113850000D01*
X117097619Y-113802380D01*
X117192857Y-113802380D01*
X117335714Y-113850000D01*
X117383333Y-113897619D01*
X118335714Y-114802380D02*
X117764285Y-114802380D01*
X118050000Y-114802380D02*
X118050000Y-113802380D01*
X117954761Y-113945238D01*
X117859523Y-114040476D01*
X117764285Y-114088095D01*
D10*
%TO.C,R4*%
X114075000Y-120289285D02*
X113825000Y-119932142D01*
X113646428Y-120289285D02*
X113646428Y-119539285D01*
X113932142Y-119539285D01*
X114003571Y-119575000D01*
X114039285Y-119610714D01*
X114075000Y-119682142D01*
X114075000Y-119789285D01*
X114039285Y-119860714D01*
X114003571Y-119896428D01*
X113932142Y-119932142D01*
X113646428Y-119932142D01*
X114717857Y-119789285D02*
X114717857Y-120289285D01*
X114539285Y-119503571D02*
X114360714Y-120039285D01*
X114825000Y-120039285D01*
D12*
%TO.C,R12*%
X111752380Y-103055357D02*
X111276190Y-103388690D01*
X111752380Y-103626785D02*
X110752380Y-103626785D01*
X110752380Y-103245833D01*
X110800000Y-103150595D01*
X110847619Y-103102976D01*
X110942857Y-103055357D01*
X111085714Y-103055357D01*
X111180952Y-103102976D01*
X111228571Y-103150595D01*
X111276190Y-103245833D01*
X111276190Y-103626785D01*
X111752380Y-102102976D02*
X111752380Y-102674404D01*
X111752380Y-102388690D02*
X110752380Y-102388690D01*
X110895238Y-102483928D01*
X110990476Y-102579166D01*
X111038095Y-102674404D01*
X110847619Y-101722023D02*
X110800000Y-101674404D01*
X110752380Y-101579166D01*
X110752380Y-101341071D01*
X110800000Y-101245833D01*
X110847619Y-101198214D01*
X110942857Y-101150595D01*
X111038095Y-101150595D01*
X111180952Y-101198214D01*
X111752380Y-101769642D01*
X111752380Y-101150595D01*
%TO.C,D1*%
X112311904Y-114902380D02*
X112311904Y-113902380D01*
X112550000Y-113902380D01*
X112692857Y-113950000D01*
X112788095Y-114045238D01*
X112835714Y-114140476D01*
X112883333Y-114330952D01*
X112883333Y-114473809D01*
X112835714Y-114664285D01*
X112788095Y-114759523D01*
X112692857Y-114854761D01*
X112550000Y-114902380D01*
X112311904Y-114902380D01*
X113835714Y-114902380D02*
X113264285Y-114902380D01*
X113550000Y-114902380D02*
X113550000Y-113902380D01*
X113454761Y-114045238D01*
X113359523Y-114140476D01*
X113264285Y-114188095D01*
%TO.C,Q1*%
X102104761Y-116047619D02*
X102009523Y-116000000D01*
X101914285Y-115904761D01*
X101771428Y-115761904D01*
X101676190Y-115714285D01*
X101580952Y-115714285D01*
X101628571Y-115952380D02*
X101533333Y-115904761D01*
X101438095Y-115809523D01*
X101390476Y-115619047D01*
X101390476Y-115285714D01*
X101438095Y-115095238D01*
X101533333Y-115000000D01*
X101628571Y-114952380D01*
X101819047Y-114952380D01*
X101914285Y-115000000D01*
X102009523Y-115095238D01*
X102057142Y-115285714D01*
X102057142Y-115619047D01*
X102009523Y-115809523D01*
X101914285Y-115904761D01*
X101819047Y-115952380D01*
X101628571Y-115952380D01*
X103009523Y-115952380D02*
X102438095Y-115952380D01*
X102723809Y-115952380D02*
X102723809Y-114952380D01*
X102628571Y-115095238D01*
X102533333Y-115190476D01*
X102438095Y-115238095D01*
%TO.C,R14*%
X113121179Y-103042857D02*
X112644989Y-103376190D01*
X113121179Y-103614285D02*
X112121179Y-103614285D01*
X112121179Y-103233333D01*
X112168799Y-103138095D01*
X112216418Y-103090476D01*
X112311656Y-103042857D01*
X112454513Y-103042857D01*
X112549751Y-103090476D01*
X112597370Y-103138095D01*
X112644989Y-103233333D01*
X112644989Y-103614285D01*
X113121179Y-102090476D02*
X113121179Y-102661904D01*
X113121179Y-102376190D02*
X112121179Y-102376190D01*
X112264037Y-102471428D01*
X112359275Y-102566666D01*
X112406894Y-102661904D01*
X112454513Y-101233333D02*
X113121179Y-101233333D01*
X112073560Y-101471428D02*
X112787846Y-101709523D01*
X112787846Y-101090476D01*
%TO.C,R1*%
X100133333Y-113652380D02*
X99800000Y-113176190D01*
X99561904Y-113652380D02*
X99561904Y-112652380D01*
X99942857Y-112652380D01*
X100038095Y-112700000D01*
X100085714Y-112747619D01*
X100133333Y-112842857D01*
X100133333Y-112985714D01*
X100085714Y-113080952D01*
X100038095Y-113128571D01*
X99942857Y-113176190D01*
X99561904Y-113176190D01*
X101085714Y-113652380D02*
X100514285Y-113652380D01*
X100800000Y-113652380D02*
X100800000Y-112652380D01*
X100704761Y-112795238D01*
X100609523Y-112890476D01*
X100514285Y-112938095D01*
D10*
%TO.C,R11*%
X124617857Y-121639285D02*
X124367857Y-121282142D01*
X124189285Y-121639285D02*
X124189285Y-120889285D01*
X124475000Y-120889285D01*
X124546428Y-120925000D01*
X124582142Y-120960714D01*
X124617857Y-121032142D01*
X124617857Y-121139285D01*
X124582142Y-121210714D01*
X124546428Y-121246428D01*
X124475000Y-121282142D01*
X124189285Y-121282142D01*
X125332142Y-121639285D02*
X124903571Y-121639285D01*
X125117857Y-121639285D02*
X125117857Y-120889285D01*
X125046428Y-120996428D01*
X124975000Y-121067857D01*
X124903571Y-121103571D01*
X126046428Y-121639285D02*
X125617857Y-121639285D01*
X125832142Y-121639285D02*
X125832142Y-120889285D01*
X125760714Y-120996428D01*
X125689285Y-121067857D01*
X125617857Y-121103571D01*
%TO.C,J2*%
X138960000Y-114580000D02*
X138960000Y-104420000D01*
X145310000Y-104420000D02*
X137690000Y-104420000D01*
X145310000Y-114580000D02*
X145310000Y-104420000D01*
X137690000Y-114580000D02*
X145310000Y-114580000D01*
X137690000Y-104420000D02*
X137690000Y-114580000D01*
%TO.C,U4*%
X124640000Y-117550000D02*
X124640000Y-120000000D01*
X127860000Y-119350000D02*
X127860000Y-117550000D01*
%TO.C,R15*%
X115377500Y-98854724D02*
X115377500Y-98345276D01*
X116422500Y-98854724D02*
X116422500Y-98345276D01*
%TO.C,REF\u002A\u002A*%
X111600000Y-98900000D02*
X111600000Y-97500000D01*
X113000000Y-98900000D02*
X111600000Y-98900000D01*
X111600000Y-97500000D02*
X113000000Y-97500000D01*
X113000000Y-97500000D02*
X113000000Y-98900000D01*
%TO.C,C4*%
X119627468Y-100010000D02*
X119334934Y-100010000D01*
X119627468Y-98990000D02*
X119334934Y-98990000D01*
%TO.C,R9*%
X106745276Y-112977500D02*
X107254724Y-112977500D01*
X106745276Y-114022500D02*
X107254724Y-114022500D01*
%TO.C,kibuzzard-631C7E0D*%
G36*
X144600000Y-113044355D02*
G01*
X144136979Y-112735674D01*
X144136979Y-112355997D01*
X144302344Y-112355997D01*
X144310193Y-112421481D01*
X144333741Y-112475059D01*
X144372988Y-112516731D01*
X144413419Y-112540172D01*
X144464070Y-112556915D01*
X144524941Y-112566961D01*
X144596031Y-112570309D01*
X144666725Y-112567209D01*
X144727992Y-112557907D01*
X144779834Y-112542404D01*
X144822250Y-112520700D01*
X144855240Y-112492795D01*
X144878805Y-112458688D01*
X144892943Y-112418381D01*
X144897656Y-112371872D01*
X144894569Y-112324423D01*
X144885309Y-112279444D01*
X144869875Y-112236934D01*
X144544438Y-112236934D01*
X144544438Y-112421878D01*
X144611906Y-112421878D01*
X144611906Y-112321866D01*
X144819869Y-112321866D01*
X144829394Y-112369491D01*
X144815900Y-112417909D01*
X144775419Y-112453628D01*
X144731498Y-112469944D01*
X144671702Y-112479734D01*
X144596031Y-112482997D01*
X144522080Y-112479557D01*
X144464269Y-112469239D01*
X144422597Y-112452041D01*
X144384795Y-112412552D01*
X144372194Y-112355997D01*
X144376956Y-112307380D01*
X144391244Y-112256778D01*
X144319806Y-112256778D01*
X144306709Y-112305395D01*
X144302344Y-112355997D01*
X144136979Y-112355997D01*
X144136979Y-112153591D01*
X144310281Y-112153591D01*
X144889719Y-112153591D01*
X144889719Y-112066278D01*
X144469031Y-112066278D01*
X144469031Y-112064691D01*
X144889719Y-111940866D01*
X144889719Y-111851966D01*
X144310281Y-111851966D01*
X144310281Y-111935309D01*
X144730969Y-111935309D01*
X144730969Y-111937691D01*
X144310281Y-112061516D01*
X144310281Y-112153591D01*
X144136979Y-112153591D01*
X144136979Y-111638447D01*
X144302344Y-111638447D01*
X144306312Y-111700955D01*
X144318219Y-111763066D01*
X144881781Y-111763066D01*
X144893688Y-111703336D01*
X144897656Y-111638447D01*
X144890810Y-111572566D01*
X144870272Y-111520972D01*
X144832866Y-111481780D01*
X144775419Y-111453106D01*
X144725060Y-111440098D01*
X144663941Y-111432292D01*
X144592063Y-111429691D01*
X144517872Y-111432742D01*
X144455637Y-111441895D01*
X144405358Y-111457149D01*
X144367034Y-111478506D01*
X144331095Y-111517973D01*
X144309532Y-111571287D01*
X144302344Y-111638447D01*
X144136979Y-111638447D01*
X144136979Y-111264326D01*
X144600000Y-110955645D01*
X145063021Y-111264326D01*
X145063021Y-112735674D01*
X144600000Y-113044355D01*
G37*
G36*
X144673113Y-111519428D02*
G01*
X144735290Y-111529086D01*
X144778594Y-111545181D01*
X144816694Y-111582984D01*
X144829394Y-111638447D01*
X144822250Y-111674166D01*
X144378544Y-111674166D01*
X144371400Y-111638447D01*
X144383703Y-111583480D01*
X144420613Y-111545578D01*
X144461535Y-111529262D01*
X144518685Y-111519473D01*
X144592063Y-111516209D01*
X144673113Y-111519428D01*
G37*
%TO.C,D2*%
X111250000Y-113350000D02*
X109400000Y-113350000D01*
X111250000Y-112150000D02*
X109400000Y-112150000D01*
X109400000Y-112150000D02*
X109400000Y-113350000D01*
%TO.C,kibuzzard-631C7DF6*%
G36*
X144578184Y-107061203D02*
G01*
X144638112Y-107068347D01*
X144679784Y-107080253D01*
X144716396Y-107108233D01*
X144728600Y-107149309D01*
X144716396Y-107190386D01*
X144679784Y-107218366D01*
X144638112Y-107230272D01*
X144578184Y-107237416D01*
X144500000Y-107239797D01*
X144421816Y-107237416D01*
X144361888Y-107230272D01*
X144320216Y-107218366D01*
X144283604Y-107190386D01*
X144271400Y-107149309D01*
X144283604Y-107108233D01*
X144320216Y-107080253D01*
X144361888Y-107068347D01*
X144421816Y-107061203D01*
X144500000Y-107058822D01*
X144578184Y-107061203D01*
G37*
G36*
X144500000Y-108201205D02*
G01*
X144036979Y-107892524D01*
X144036979Y-107366003D01*
X144210281Y-107366003D01*
X144210281Y-107454109D01*
X144710344Y-107544597D01*
X144710344Y-107545391D01*
X144210281Y-107635878D01*
X144210281Y-107727159D01*
X144789719Y-107598572D01*
X144789719Y-107495384D01*
X144210281Y-107366003D01*
X144036979Y-107366003D01*
X144036979Y-107149309D01*
X144202344Y-107149309D01*
X144209091Y-107204475D01*
X144229331Y-107247734D01*
X144266042Y-107280576D01*
X144322200Y-107304488D01*
X144371236Y-107315291D01*
X144430503Y-107321774D01*
X144500000Y-107323934D01*
X144569497Y-107321774D01*
X144628764Y-107315291D01*
X144677800Y-107304488D01*
X144733958Y-107280576D01*
X144770669Y-107247734D01*
X144790909Y-107204475D01*
X144797656Y-107149309D01*
X144790909Y-107094144D01*
X144770669Y-107050884D01*
X144733958Y-107018043D01*
X144677800Y-106994131D01*
X144628764Y-106983327D01*
X144569497Y-106976845D01*
X144500000Y-106974684D01*
X144430503Y-106976845D01*
X144371236Y-106983327D01*
X144322200Y-106994131D01*
X144266042Y-107018043D01*
X144229331Y-107050884D01*
X144209091Y-107094144D01*
X144202344Y-107149309D01*
X144036979Y-107149309D01*
X144036979Y-106911184D01*
X144210281Y-106911184D01*
X144638906Y-106911184D01*
X144690588Y-106907083D01*
X144731334Y-106894780D01*
X144761144Y-106874275D01*
X144781428Y-106844333D01*
X144793599Y-106803719D01*
X144797656Y-106752434D01*
X144793599Y-106701149D01*
X144781428Y-106660536D01*
X144761144Y-106630594D01*
X144731334Y-106610089D01*
X144690588Y-106597785D01*
X144638906Y-106593684D01*
X144210281Y-106593684D01*
X144210281Y-106680203D01*
X144623031Y-106680203D01*
X144674923Y-106684172D01*
X144706772Y-106696078D01*
X144728600Y-106750847D01*
X144723044Y-106783986D01*
X144706375Y-106805616D01*
X144674427Y-106817522D01*
X144623031Y-106821491D01*
X144210281Y-106821491D01*
X144210281Y-106911184D01*
X144036979Y-106911184D01*
X144036979Y-106518278D01*
X144210281Y-106518278D01*
X144279338Y-106518278D01*
X144279338Y-106400009D01*
X144789719Y-106400009D01*
X144789719Y-106311109D01*
X144279338Y-106311109D01*
X144279338Y-106192841D01*
X144210281Y-106192841D01*
X144210281Y-106518278D01*
X144036979Y-106518278D01*
X144036979Y-106027476D01*
X144500000Y-105718795D01*
X144963021Y-106027476D01*
X144963021Y-107892524D01*
X144500000Y-108201205D01*
G37*
%TO.C,R13*%
X116392031Y-109982776D02*
X116392031Y-110492224D01*
X115347031Y-109982776D02*
X115347031Y-110492224D01*
%TO.C,U2*%
X113895000Y-109645000D02*
X94495000Y-109645000D01*
X94495000Y-96545000D02*
X113895000Y-96545000D01*
X113895000Y-96545000D02*
X113895000Y-109645000D01*
X94945000Y-97095000D02*
X113445000Y-97095000D01*
X113445000Y-97095000D02*
X113445000Y-109095000D01*
X94495000Y-109645000D02*
X94495000Y-96545000D01*
X94945000Y-109095000D02*
X113445000Y-109095000D01*
X94945000Y-97095000D02*
X94945000Y-109095000D01*
%TO.C,R17*%
X131321764Y-106174154D02*
X130812316Y-106174154D01*
X131321764Y-105129154D02*
X130812316Y-105129154D01*
%TO.C,C5*%
X130735000Y-101855339D02*
X130735000Y-102377843D01*
X129265000Y-101855339D02*
X129265000Y-102377843D01*
%TO.C,R3*%
X117745276Y-121722500D02*
X118254724Y-121722500D01*
X117745276Y-120677500D02*
X118254724Y-120677500D01*
%TO.C,R18*%
X124122500Y-118454724D02*
X124122500Y-117945276D01*
X123077500Y-118454724D02*
X123077500Y-117945276D01*
%TO.C,R6*%
X120727500Y-118454724D02*
X120727500Y-117945276D01*
X121772500Y-118454724D02*
X121772500Y-117945276D01*
%TO.C,U3*%
X124693701Y-104151591D02*
X126193701Y-104151591D01*
X124693701Y-100931591D02*
X126193701Y-100931591D01*
X124693701Y-100931591D02*
X121768701Y-100931591D01*
X124693701Y-104151591D02*
X123193701Y-104151591D01*
%TO.C,R5*%
X114272500Y-117204724D02*
X114272500Y-116695276D01*
X113227500Y-117204724D02*
X113227500Y-116695276D01*
%TO.C,C6*%
X121953733Y-115910000D02*
X122246267Y-115910000D01*
X121953733Y-114890000D02*
X122246267Y-114890000D01*
%TO.C,L1*%
X123569949Y-97506591D02*
X124092453Y-97506591D01*
X123569949Y-99726591D02*
X124092453Y-99726591D01*
%TO.C,R10*%
X106745276Y-110627500D02*
X107254724Y-110627500D01*
X106745276Y-111672500D02*
X107254724Y-111672500D01*
%TO.C,D3*%
X111250000Y-111600000D02*
X109400000Y-111600000D01*
X111250000Y-110400000D02*
X109400000Y-110400000D01*
X109400000Y-110400000D02*
X109400000Y-111600000D01*
%TO.C,J1*%
X102500000Y-120900000D02*
X103600000Y-120900000D01*
X102503553Y-116900000D02*
X103550000Y-116900000D01*
X105700000Y-116900000D02*
X108300000Y-116900000D01*
X112000000Y-120200000D02*
X112000000Y-117400000D01*
X108200000Y-120900000D02*
X105700000Y-120900000D01*
X112000000Y-118900000D02*
X112000000Y-120400000D01*
X111500000Y-120900000D02*
X110500000Y-120900000D01*
X111500000Y-116900000D02*
X110400000Y-116900000D01*
X102000000Y-117400000D02*
X102000000Y-120400000D01*
X111500000Y-120900000D02*
G75*
G03*
X112000000Y-120400000I-1J500001D01*
G01*
X102000000Y-120400000D02*
G75*
G03*
X102500000Y-120900000I507200J7200D01*
G01*
X112000000Y-117400000D02*
G75*
G03*
X111500000Y-116900000I-500001J-1D01*
G01*
X102503553Y-116899997D02*
G75*
G03*
X102000000Y-117400000I7J-503573D01*
G01*
X103662311Y-118900000D02*
G75*
G03*
X103662311Y-118900000I-412311J0D01*
G01*
%TO.C,D4*%
X115981201Y-106247500D02*
X118441201Y-106247500D01*
X118441201Y-104777500D02*
X115981201Y-104777500D01*
X118441201Y-106247500D02*
X118441201Y-104777500D01*
%TO.C,C2*%
X119363241Y-104106993D02*
X119363241Y-104629497D01*
X120833241Y-104106993D02*
X120833241Y-104629497D01*
%TO.C,R2*%
X100772500Y-120754724D02*
X100772500Y-120245276D01*
X99727500Y-120754724D02*
X99727500Y-120245276D01*
%TO.C,C7*%
X119846267Y-108790000D02*
X119553733Y-108790000D01*
X119846267Y-109810000D02*
X119553733Y-109810000D01*
%TO.C,C3*%
X123494508Y-106128245D02*
X123201974Y-106128245D01*
X123494508Y-105108245D02*
X123201974Y-105108245D01*
%TO.C,R16*%
X131727500Y-101845276D02*
X131727500Y-102354724D01*
X132772500Y-101845276D02*
X132772500Y-102354724D01*
%TO.C,U5*%
X120519531Y-110627500D02*
X118069531Y-110627500D01*
X118719531Y-113847500D02*
X120519531Y-113847500D01*
%TO.C,R19*%
X123892031Y-112242224D02*
X123892031Y-111732776D01*
X122847031Y-112242224D02*
X122847031Y-111732776D01*
%TO.C,D6*%
X96340000Y-110550000D02*
X100000000Y-110550000D01*
X96340000Y-112450000D02*
X100000000Y-112450000D01*
X96340000Y-110550000D02*
X96340000Y-112450000D01*
%TO.C,D5*%
X131341201Y-99566591D02*
X131341201Y-97666591D01*
X131341201Y-97666591D02*
X127681201Y-97666591D01*
X131341201Y-99566591D02*
X127681201Y-99566591D01*
%TO.C,R8*%
X94077500Y-113845276D02*
X94077500Y-114354724D01*
X95122500Y-113845276D02*
X95122500Y-114354724D01*
%TO.C,R7*%
X97245276Y-115522500D02*
X97754724Y-115522500D01*
X97245276Y-114477500D02*
X97754724Y-114477500D01*
%TO.C,U1*%
X118400000Y-116840000D02*
X115950000Y-116840000D01*
X116600000Y-120060000D02*
X118400000Y-120060000D01*
%TO.C,C1*%
X117646267Y-116210000D02*
X117353733Y-116210000D01*
X117646267Y-115190000D02*
X117353733Y-115190000D01*
%TO.C,R4*%
X113995276Y-120677500D02*
X114504724Y-120677500D01*
X113995276Y-121722500D02*
X114504724Y-121722500D01*
%TO.C,R12*%
X116353701Y-102095276D02*
X116353701Y-102604724D01*
X115308701Y-102095276D02*
X115308701Y-102604724D01*
%TO.C,REF\u002A\u002A*%
X118500000Y-98400000D02*
X117100000Y-98400000D01*
X117100000Y-97000000D02*
X118500000Y-97000000D01*
X117100000Y-98400000D02*
X117100000Y-97000000D01*
X118500000Y-97000000D02*
X118500000Y-98400000D01*
%TO.C,D1*%
X109400000Y-113850000D02*
X109400000Y-115050000D01*
X111250000Y-115050000D02*
X109400000Y-115050000D01*
X111250000Y-113850000D02*
X109400000Y-113850000D01*
%TO.C,Q1*%
X101440000Y-112350000D02*
X101440000Y-111700000D01*
X101440000Y-112350000D02*
X101440000Y-114025000D01*
X104560000Y-112350000D02*
X104560000Y-111700000D01*
X104560000Y-112350000D02*
X104560000Y-113000000D01*
%TO.C,R14*%
X117277500Y-102145276D02*
X117277500Y-102654724D01*
X118322500Y-102145276D02*
X118322500Y-102654724D01*
%TO.C,R1*%
X100772500Y-117004724D02*
X100772500Y-116495276D01*
X99727500Y-117004724D02*
X99727500Y-116495276D01*
%TO.C,R11*%
X122529724Y-120677500D02*
X122020276Y-120677500D01*
X122529724Y-121722500D02*
X122020276Y-121722500D01*
%TD*%
M02*
