%TF.GenerationSoftware,KiCad,Pcbnew,7.0.6-0*%
%TF.CreationDate,2024-01-24T21:05:41+01:00*%
%TF.ProjectId,smoke_extractorV1_1,736d6f6b-655f-4657-9874-726163746f72,rev?*%
%TF.SameCoordinates,Original*%
%TF.FileFunction,Copper,L2,Bot*%
%TF.FilePolarity,Positive*%
%FSLAX46Y46*%
G04 Gerber Fmt 4.6, Leading zero omitted, Abs format (unit mm)*
G04 Created by KiCad (PCBNEW 7.0.6-0) date 2024-01-24 21:05:41*
%MOMM*%
%LPD*%
G01*
G04 APERTURE LIST*
G04 Aperture macros list*
%AMRoundRect*
0 Rectangle with rounded corners*
0 $1 Rounding radius*
0 $2 $3 $4 $5 $6 $7 $8 $9 X,Y pos of 4 corners*
0 Add a 4 corners polygon primitive as box body*
4,1,4,$2,$3,$4,$5,$6,$7,$8,$9,$2,$3,0*
0 Add four circle primitives for the rounded corners*
1,1,$1+$1,$2,$3*
1,1,$1+$1,$4,$5*
1,1,$1+$1,$6,$7*
1,1,$1+$1,$8,$9*
0 Add four rect primitives between the rounded corners*
20,1,$1+$1,$2,$3,$4,$5,0*
20,1,$1+$1,$4,$5,$6,$7,0*
20,1,$1+$1,$6,$7,$8,$9,0*
20,1,$1+$1,$8,$9,$2,$3,0*%
G04 Aperture macros list end*
%TA.AperFunction,ComponentPad*%
%ADD10RoundRect,0.200000X-0.200000X-0.200000X0.200000X-0.200000X0.200000X0.200000X-0.200000X0.200000X0*%
%TD*%
%TA.AperFunction,ComponentPad*%
%ADD11RoundRect,0.250000X-0.700000X-0.250000X0.700000X-0.250000X0.700000X0.250000X-0.700000X0.250000X0*%
%TD*%
%TA.AperFunction,ComponentPad*%
%ADD12C,5.700000*%
%TD*%
%TA.AperFunction,ComponentPad*%
%ADD13RoundRect,0.500000X-2.750000X-0.500000X2.750000X-0.500000X2.750000X0.500000X-2.750000X0.500000X0*%
%TD*%
%TA.AperFunction,ComponentPad*%
%ADD14C,2.000000*%
%TD*%
%TA.AperFunction,ComponentPad*%
%ADD15R,1.500000X3.000000*%
%TD*%
%TA.AperFunction,ViaPad*%
%ADD16C,0.600000*%
%TD*%
%TA.AperFunction,Conductor*%
%ADD17C,0.200000*%
%TD*%
%TA.AperFunction,Conductor*%
%ADD18C,0.300000*%
%TD*%
G04 APERTURE END LIST*
D10*
%TO.P,U1,1,GND*%
%TO.N,VBAT-PROTECT*%
X89529275Y-88700000D03*
X89529275Y-90100000D03*
D11*
X90779275Y-87450000D03*
X90779275Y-91350000D03*
X94779275Y-87450000D03*
X94779275Y-91350000D03*
D10*
X96029275Y-88700000D03*
X96029275Y-90100000D03*
%TO.P,U1,2,VCC*%
%TO.N,VBUS*%
X90479275Y-88700000D03*
X90479275Y-90100000D03*
X95079275Y-88700000D03*
X95079275Y-90100000D03*
%TO.P,U1,3,CC1*%
%TO.N,Net-(U1-CC1)*%
X91429275Y-88700000D03*
%TO.P,U1,4,CC2*%
%TO.N,Net-(U1-CC2)*%
X94129275Y-90100000D03*
%TO.P,U1,5,D+*%
%TO.N,unconnected-(U1-D+-Pad5)*%
X92329275Y-88700000D03*
X93229275Y-90100000D03*
%TO.P,U1,6,D-*%
%TO.N,unconnected-(U1-D--Pad6)*%
X92329275Y-90100000D03*
X93229275Y-88700000D03*
%TD*%
D12*
%TO.P,H2,1,1*%
%TO.N,VBAT-PROTECT*%
X67400000Y-69400000D03*
%TD*%
%TO.P,H1,1,1*%
%TO.N,VBAT-PROTECT*%
X140400000Y-69400000D03*
%TD*%
D13*
%TO.P,U2,1,IN*%
%TO.N,VSPLY*%
X110072322Y-71455000D03*
%TO.P,U2,2,OUT*%
%TO.N,V_SWITCH*%
X120072322Y-71455000D03*
%TD*%
D14*
%TO.P,SW1,1,1*%
%TO.N,VBAT-PROTECT*%
X112600000Y-91700000D03*
X106100000Y-91700000D03*
%TO.P,SW1,2,2*%
%TO.N,Net-(D2-K)*%
X112600000Y-87200000D03*
X106100000Y-87200000D03*
%TD*%
D15*
%TO.P,U6,1,V+*%
%TO.N,Net-(U6-V+)*%
X140148053Y-83926017D03*
%TO.P,U6,2,V-*%
%TO.N,Net-(IC1-GND)*%
X67648053Y-83926017D03*
%TD*%
D16*
%TO.N,VBUS*%
X84000000Y-83000000D03*
X78000000Y-84000000D03*
%TO.N,VBAT-PROTECT*%
X87200000Y-79000000D03*
X81325000Y-74250000D03*
X81325000Y-78500000D03*
X79675000Y-84100000D03*
X81325000Y-75100000D03*
X81325000Y-76800000D03*
X81325000Y-75950000D03*
X81325000Y-77650000D03*
%TO.N,Net-(U6-V+)*%
X88800000Y-83700000D03*
%TO.N,Net-(IC1-VCC)*%
X84175000Y-89600000D03*
X73175000Y-88500000D03*
%TO.N,Net-(IC1-GND)*%
X84175000Y-91400000D03*
X73475000Y-92200000D03*
%TO.N,Net-(U3-NEG_1)*%
X85200000Y-79000000D03*
X89600000Y-83200000D03*
%TO.N,Net-(U3-OUT1)*%
X92200000Y-81900000D03*
X83000000Y-78400000D03*
%TO.N,Net-(U3-OUT3)*%
X91100000Y-73700000D03*
X92200000Y-78100000D03*
%TO.N,Net-(U3-OUT4)*%
X83400000Y-73900000D03*
X92000000Y-79000000D03*
%TO.N,Net-(U5-~{CHRG})*%
X80775000Y-88100000D03*
X72175000Y-84300000D03*
%TO.N,Net-(U5-~{STDBY})*%
X74175000Y-84400000D03*
X81875000Y-87300000D03*
%TD*%
D17*
%TO.N,VBUS*%
X78000000Y-84000000D02*
X79000000Y-83000000D01*
X79000000Y-83000000D02*
X84000000Y-83000000D01*
D18*
%TO.N,Net-(U6-V+)*%
X89026017Y-83926017D02*
X140148053Y-83926017D01*
X88800000Y-83700000D02*
X89026017Y-83926017D01*
%TO.N,Net-(IC1-VCC)*%
X73205000Y-88530000D02*
X80205000Y-88530000D01*
X73175000Y-88500000D02*
X73205000Y-88530000D01*
X81275000Y-89600000D02*
X84175000Y-89600000D01*
X80205000Y-88530000D02*
X81275000Y-89600000D01*
%TO.N,Net-(IC1-GND)*%
X73475000Y-92200000D02*
X73475000Y-91550000D01*
X76065000Y-88960000D02*
X80026888Y-88960000D01*
X73475000Y-91550000D02*
X76065000Y-88960000D01*
X80026888Y-88960000D02*
X81096888Y-90030000D01*
X82805000Y-90030000D02*
X84175000Y-91400000D01*
X81096888Y-90030000D02*
X82805000Y-90030000D01*
D17*
%TO.N,Net-(U3-NEG_1)*%
X85200000Y-79000000D02*
X89400000Y-83200000D01*
X89400000Y-83200000D02*
X89600000Y-83200000D01*
%TO.N,Net-(U3-OUT1)*%
X88700000Y-78400000D02*
X92200000Y-81900000D01*
X83000000Y-78400000D02*
X88700000Y-78400000D01*
%TO.N,Net-(U3-OUT3)*%
X92200000Y-74800000D02*
X91100000Y-73700000D01*
X92200000Y-78100000D02*
X92200000Y-74800000D01*
%TO.N,Net-(U3-OUT4)*%
X92000000Y-79000000D02*
X86900000Y-73900000D01*
X86900000Y-73900000D02*
X83400000Y-73900000D01*
D18*
%TO.N,Net-(U5-~{CHRG})*%
X75975000Y-88100000D02*
X80775000Y-88100000D01*
X72175000Y-84300000D02*
X75975000Y-88100000D01*
%TO.N,Net-(U5-~{STDBY})*%
X80175000Y-87670000D02*
X80545000Y-87300000D01*
X74175000Y-85691888D02*
X76153112Y-87670000D01*
X76153112Y-87670000D02*
X80175000Y-87670000D01*
X74175000Y-84400000D02*
X74175000Y-85691888D01*
X80545000Y-87300000D02*
X81875000Y-87300000D01*
%TD*%
%TA.AperFunction,Conductor*%
%TO.N,VBAT-PROTECT*%
G36*
X140847335Y-65900480D02*
G01*
X140847402Y-65900500D01*
X140898357Y-65900500D01*
X140901639Y-65900586D01*
X140944783Y-65902836D01*
X141031509Y-65907360D01*
X141215738Y-65917672D01*
X141221981Y-65918337D01*
X141371891Y-65941970D01*
X141535511Y-65969643D01*
X141541185Y-65970876D01*
X141692237Y-66011158D01*
X141847781Y-66055755D01*
X141852840Y-66057443D01*
X142000765Y-66113944D01*
X142148903Y-66174996D01*
X142153360Y-66177040D01*
X142295614Y-66249139D01*
X142356094Y-66282384D01*
X142435413Y-66325986D01*
X142439241Y-66328269D01*
X142573830Y-66415172D01*
X142684249Y-66493054D01*
X142703991Y-66506979D01*
X142707174Y-66509378D01*
X142831218Y-66609193D01*
X142833511Y-66611132D01*
X142951507Y-66715879D01*
X142954071Y-66718287D01*
X142987864Y-66751839D01*
X143067113Y-66830524D01*
X143069495Y-66833025D01*
X143175099Y-66950290D01*
X143177052Y-66952565D01*
X143248715Y-67040334D01*
X143277754Y-67075899D01*
X143280177Y-67079065D01*
X143372910Y-67208566D01*
X143460775Y-67342538D01*
X143463086Y-67346348D01*
X143540925Y-67485587D01*
X143614041Y-67627331D01*
X143616126Y-67631794D01*
X143678224Y-67779471D01*
X143735771Y-67926963D01*
X143737515Y-67932070D01*
X143783215Y-68087273D01*
X143824560Y-68237982D01*
X143825847Y-68243704D01*
X143854695Y-68407169D01*
X143879379Y-68556789D01*
X143880095Y-68563082D01*
X143891952Y-68751086D01*
X143899389Y-68876427D01*
X143899500Y-68880160D01*
X143899500Y-91898356D01*
X143899414Y-91901638D01*
X143892642Y-92031456D01*
X143882328Y-92215715D01*
X143881658Y-92222009D01*
X143858039Y-92371822D01*
X143830361Y-92535483D01*
X143829115Y-92541214D01*
X143788846Y-92692219D01*
X143744254Y-92847744D01*
X143742547Y-92852862D01*
X143686060Y-93000753D01*
X143625009Y-93148888D01*
X143622956Y-93153365D01*
X143550864Y-93295607D01*
X143474012Y-93435413D01*
X143471729Y-93439240D01*
X143384830Y-93573826D01*
X143293019Y-93703991D01*
X143290619Y-93707175D01*
X143190835Y-93831182D01*
X143188866Y-93833511D01*
X143084119Y-93951507D01*
X143081711Y-93954071D01*
X142969490Y-94067098D01*
X142966942Y-94069525D01*
X142849721Y-94175088D01*
X142847407Y-94177074D01*
X142724099Y-94277754D01*
X142720933Y-94280176D01*
X142591433Y-94372910D01*
X142457460Y-94460776D01*
X142453650Y-94463086D01*
X142314412Y-94540925D01*
X142172667Y-94614041D01*
X142168204Y-94616126D01*
X142020528Y-94678224D01*
X141873035Y-94735771D01*
X141867929Y-94737515D01*
X141712726Y-94783215D01*
X141562016Y-94824560D01*
X141556294Y-94825847D01*
X141392830Y-94854695D01*
X141243208Y-94879379D01*
X141236915Y-94880095D01*
X141048922Y-94891952D01*
X140923574Y-94899388D01*
X140919841Y-94899499D01*
X66911644Y-94898180D01*
X66908362Y-94898094D01*
X66776539Y-94891217D01*
X66594468Y-94881037D01*
X66588171Y-94880366D01*
X66436479Y-94856452D01*
X66274712Y-94829093D01*
X66268982Y-94827847D01*
X66116776Y-94787258D01*
X65962459Y-94743011D01*
X65957342Y-94741304D01*
X65808523Y-94684462D01*
X65661353Y-94623809D01*
X65656875Y-94621755D01*
X65513850Y-94549266D01*
X65374834Y-94472849D01*
X65371007Y-94470566D01*
X65235774Y-94383247D01*
X65106259Y-94291896D01*
X65103075Y-94289496D01*
X64978491Y-94189246D01*
X64976162Y-94187277D01*
X64858754Y-94083051D01*
X64856189Y-94080643D01*
X64742664Y-93967925D01*
X64740237Y-93965377D01*
X64635167Y-93848704D01*
X64633182Y-93846389D01*
X64532052Y-93722531D01*
X64529629Y-93719364D01*
X64437362Y-93590513D01*
X64408459Y-93546443D01*
X64349076Y-93455900D01*
X64346772Y-93452100D01*
X64269350Y-93313604D01*
X64195854Y-93171121D01*
X64193768Y-93166658D01*
X64132062Y-93019908D01*
X64110115Y-92963660D01*
X64074142Y-92871458D01*
X64072423Y-92866424D01*
X64027078Y-92712425D01*
X63985393Y-92560471D01*
X63984109Y-92554757D01*
X63977780Y-92518896D01*
X63955616Y-92393298D01*
X63930603Y-92241678D01*
X63929890Y-92235413D01*
X63918371Y-92052759D01*
X63910609Y-91921910D01*
X63910498Y-91918208D01*
X63910489Y-91899500D01*
X63907365Y-85438870D01*
X66767553Y-85438870D01*
X66775124Y-85476937D01*
X66803966Y-85520102D01*
X66803967Y-85520103D01*
X66847134Y-85548946D01*
X66885198Y-85556517D01*
X68410907Y-85556516D01*
X68448972Y-85548946D01*
X68492139Y-85520103D01*
X68520982Y-85476936D01*
X68528553Y-85438872D01*
X68528553Y-84300003D01*
X71689559Y-84300003D01*
X71709221Y-84436758D01*
X71709223Y-84436765D01*
X71766621Y-84562449D01*
X71857104Y-84666872D01*
X71973341Y-84741573D01*
X72105915Y-84780500D01*
X72206623Y-84780500D01*
X72274744Y-84800502D01*
X72295718Y-84817405D01*
X75512718Y-88034405D01*
X75546744Y-88096717D01*
X75541679Y-88167532D01*
X75499132Y-88224368D01*
X75432612Y-88249179D01*
X75423623Y-88249500D01*
X73651275Y-88249500D01*
X73583154Y-88229498D01*
X73556050Y-88206012D01*
X73529903Y-88175837D01*
X73492896Y-88133128D01*
X73492895Y-88133127D01*
X73434777Y-88095777D01*
X73376659Y-88058427D01*
X73244085Y-88019500D01*
X73105915Y-88019500D01*
X72973343Y-88058426D01*
X72973339Y-88058428D01*
X72857104Y-88133127D01*
X72766621Y-88237550D01*
X72709223Y-88363234D01*
X72709221Y-88363241D01*
X72689559Y-88499996D01*
X72689559Y-88500003D01*
X72709221Y-88636758D01*
X72709223Y-88636765D01*
X72766621Y-88762449D01*
X72857104Y-88866872D01*
X72973341Y-88941573D01*
X73105915Y-88980500D01*
X73244085Y-88980500D01*
X73376659Y-88941573D01*
X73492896Y-88866872D01*
X73504061Y-88853986D01*
X73563787Y-88815604D01*
X73599285Y-88810500D01*
X75513623Y-88810500D01*
X75581744Y-88830502D01*
X75628237Y-88884158D01*
X75638341Y-88954432D01*
X75608847Y-89019012D01*
X75602719Y-89025593D01*
X74441704Y-90186608D01*
X73318390Y-91309922D01*
X73311805Y-91315653D01*
X73303033Y-91322277D01*
X73273054Y-91355161D01*
X73271050Y-91357261D01*
X73258274Y-91370039D01*
X73258267Y-91370046D01*
X73257048Y-91371826D01*
X73251641Y-91378649D01*
X73232386Y-91399773D01*
X73232380Y-91399782D01*
X73230472Y-91404707D01*
X73216940Y-91430378D01*
X73213957Y-91434732D01*
X73213954Y-91434740D01*
X73207409Y-91462567D01*
X73204826Y-91470907D01*
X73194500Y-91497564D01*
X73194500Y-91502837D01*
X73191154Y-91531678D01*
X73189960Y-91536758D01*
X73189945Y-91536822D01*
X73193895Y-91565140D01*
X73194500Y-91573854D01*
X73194500Y-91743181D01*
X73174498Y-91811302D01*
X73162143Y-91825571D01*
X73163005Y-91826318D01*
X73066621Y-91937550D01*
X73009223Y-92063234D01*
X73009221Y-92063241D01*
X72989559Y-92199996D01*
X72989559Y-92200003D01*
X73009221Y-92336758D01*
X73009223Y-92336765D01*
X73066621Y-92462449D01*
X73157104Y-92566872D01*
X73273341Y-92641573D01*
X73405915Y-92680500D01*
X73544085Y-92680500D01*
X73676659Y-92641573D01*
X73792896Y-92566872D01*
X73883379Y-92462449D01*
X73940777Y-92336765D01*
X73954448Y-92241683D01*
X73960441Y-92200003D01*
X73960441Y-92199996D01*
X73940778Y-92063241D01*
X73940777Y-92063240D01*
X73940777Y-92063235D01*
X73883379Y-91937551D01*
X73792896Y-91833128D01*
X73792895Y-91833127D01*
X73786995Y-91826318D01*
X73789697Y-91823976D01*
X73760576Y-91778585D01*
X73755500Y-91743181D01*
X73755500Y-91718376D01*
X73775502Y-91650255D01*
X73792405Y-91629281D01*
X76144282Y-89277405D01*
X76206594Y-89243379D01*
X76233377Y-89240500D01*
X79858511Y-89240500D01*
X79926632Y-89260502D01*
X79947606Y-89277405D01*
X80856816Y-90186615D01*
X80862543Y-90193196D01*
X80869165Y-90201965D01*
X80902059Y-90231952D01*
X80904143Y-90233942D01*
X80916925Y-90246724D01*
X80918689Y-90247932D01*
X80925542Y-90253359D01*
X80946666Y-90272617D01*
X80951584Y-90274522D01*
X80977273Y-90288063D01*
X80981626Y-90291045D01*
X81009468Y-90297592D01*
X81017786Y-90300168D01*
X81044453Y-90310500D01*
X81049725Y-90310500D01*
X81078573Y-90313847D01*
X81083709Y-90315055D01*
X81102093Y-90312490D01*
X81112028Y-90311105D01*
X81120742Y-90310500D01*
X82636623Y-90310500D01*
X82704744Y-90330502D01*
X82725718Y-90347405D01*
X83656117Y-91277804D01*
X83690143Y-91340116D01*
X83691740Y-91384828D01*
X83689559Y-91399999D01*
X83689559Y-91400003D01*
X83709221Y-91536758D01*
X83709223Y-91536765D01*
X83766621Y-91662449D01*
X83857104Y-91766872D01*
X83973341Y-91841573D01*
X84105915Y-91880500D01*
X84244085Y-91880500D01*
X84376659Y-91841573D01*
X84492896Y-91766872D01*
X84583379Y-91662449D01*
X84640777Y-91536765D01*
X84644842Y-91508491D01*
X84660441Y-91400003D01*
X84660441Y-91399996D01*
X84640778Y-91263241D01*
X84640777Y-91263240D01*
X84640777Y-91263235D01*
X84583379Y-91137551D01*
X84492896Y-91033128D01*
X84492895Y-91033127D01*
X84401756Y-90974556D01*
X84376659Y-90958427D01*
X84244085Y-90919500D01*
X84143377Y-90919500D01*
X84075256Y-90899498D01*
X84054282Y-90882595D01*
X83271687Y-90100000D01*
X89893766Y-90100000D01*
X89913717Y-90251541D01*
X89941936Y-90319667D01*
X89950449Y-90351440D01*
X89955111Y-90386857D01*
X90004369Y-90492492D01*
X90086782Y-90574905D01*
X90086783Y-90574905D01*
X90086784Y-90574906D01*
X90192416Y-90624163D01*
X90227833Y-90628825D01*
X90259601Y-90637336D01*
X90327734Y-90665558D01*
X90381620Y-90672652D01*
X90446547Y-90701374D01*
X90460399Y-90715062D01*
X90471602Y-90727991D01*
X90477292Y-90736187D01*
X90508414Y-90756187D01*
X90544704Y-90779509D01*
X90612825Y-90799511D01*
X90650996Y-90804999D01*
X90650998Y-90805000D01*
X90651000Y-90805000D01*
X91258428Y-90805000D01*
X91266027Y-90805460D01*
X91310276Y-90810831D01*
X91345468Y-90815103D01*
X91374961Y-90822373D01*
X91394366Y-90829732D01*
X91416175Y-90838005D01*
X91416179Y-90838006D01*
X91439806Y-90844593D01*
X91484487Y-90852781D01*
X91498361Y-90854041D01*
X91501703Y-90854437D01*
X91529375Y-90858469D01*
X91566542Y-90869952D01*
X91604718Y-90888615D01*
X91638474Y-90912717D01*
X91666555Y-90940798D01*
X91690658Y-90974556D01*
X91709313Y-91012717D01*
X91720791Y-91049838D01*
X91721093Y-91051905D01*
X91719982Y-91059754D01*
X91726122Y-91087547D01*
X91726940Y-91092010D01*
X91727328Y-91094660D01*
X91729727Y-91111124D01*
X91730109Y-91111631D01*
X91735246Y-91128929D01*
X91736212Y-91133314D01*
X91737730Y-91137336D01*
X91739810Y-91144310D01*
X91740608Y-91147241D01*
X91770613Y-91268973D01*
X91774275Y-91299128D01*
X91774275Y-91324000D01*
X91774275Y-91324005D01*
X91774276Y-91324016D01*
X91777368Y-91352787D01*
X91777369Y-91352795D01*
X91788757Y-91405145D01*
X91818755Y-91465073D01*
X91856377Y-91508491D01*
X91862067Y-91516687D01*
X91885402Y-91531683D01*
X91929479Y-91560009D01*
X91997600Y-91580011D01*
X92035771Y-91585499D01*
X92035773Y-91585500D01*
X92035775Y-91585500D01*
X93522768Y-91585500D01*
X93522775Y-91585500D01*
X93534860Y-91584200D01*
X93551562Y-91582406D01*
X93551570Y-91582405D01*
X93551572Y-91582404D01*
X93551577Y-91582404D01*
X93603919Y-91571018D01*
X93663850Y-91541018D01*
X93707269Y-91503394D01*
X93715462Y-91497706D01*
X93717506Y-91494525D01*
X93717507Y-91494525D01*
X93758784Y-91430296D01*
X93778786Y-91362175D01*
X93784275Y-91324000D01*
X93784275Y-91299121D01*
X93787936Y-91268970D01*
X93790319Y-91259299D01*
X93817950Y-91147192D01*
X93818724Y-91144355D01*
X93820747Y-91137574D01*
X93821655Y-91136175D01*
X93823010Y-91130064D01*
X93823153Y-91129514D01*
X93823173Y-91129449D01*
X93823316Y-91128800D01*
X93827304Y-91121551D01*
X93830903Y-91096847D01*
X93830911Y-91096812D01*
X93831593Y-91092117D01*
X93832424Y-91087569D01*
X93836268Y-91070169D01*
X93836130Y-91069694D01*
X93837442Y-91051963D01*
X93837741Y-91049907D01*
X93849229Y-91012728D01*
X93867890Y-90974556D01*
X93891992Y-90940797D01*
X93932524Y-90900268D01*
X93934705Y-90897849D01*
X93937211Y-90895071D01*
X93937209Y-90895072D01*
X93955767Y-90872230D01*
X93980303Y-90825995D01*
X93997215Y-90770041D01*
X94036072Y-90710624D01*
X94100885Y-90681644D01*
X94117826Y-90680500D01*
X94167315Y-90680500D01*
X94167322Y-90680500D01*
X94280816Y-90665558D01*
X94348880Y-90637364D01*
X94419469Y-90629776D01*
X94482956Y-90661555D01*
X94496556Y-90677827D01*
X94502402Y-90684574D01*
X94502403Y-90684575D01*
X94528820Y-90715062D01*
X94540023Y-90727991D01*
X94545713Y-90736187D01*
X94576835Y-90756187D01*
X94613125Y-90779509D01*
X94681246Y-90799511D01*
X94719417Y-90804999D01*
X94719419Y-90805000D01*
X94719421Y-90805000D01*
X95258427Y-90805000D01*
X95266026Y-90805460D01*
X95352661Y-90815977D01*
X95360910Y-90817542D01*
X95393459Y-90825993D01*
X95393465Y-90825994D01*
X95393473Y-90825996D01*
X95447141Y-90833863D01*
X95447144Y-90833862D01*
X95447146Y-90833863D01*
X95514140Y-90826753D01*
X95514142Y-90826752D01*
X95514146Y-90826752D01*
X95580666Y-90801941D01*
X95641786Y-90756187D01*
X95684333Y-90699351D01*
X95711015Y-90627816D01*
X95716080Y-90557001D01*
X95716080Y-90556998D01*
X95699849Y-90482393D01*
X95696138Y-90475597D01*
X95694340Y-90472040D01*
X95654618Y-90386857D01*
X95644924Y-90366068D01*
X95634192Y-90329216D01*
X95634209Y-90329344D01*
X95633916Y-90327570D01*
X95641824Y-90258804D01*
X95644080Y-90253360D01*
X95644833Y-90251541D01*
X95664784Y-90100000D01*
X95644833Y-89948459D01*
X95641821Y-89941189D01*
X95633910Y-89872461D01*
X95634209Y-89870649D01*
X95634198Y-89870736D01*
X95644926Y-89833927D01*
X95657687Y-89806560D01*
X95682784Y-89770716D01*
X95699991Y-89753509D01*
X95735835Y-89728412D01*
X95763202Y-89715651D01*
X95800011Y-89704923D01*
X95799930Y-89704934D01*
X95799927Y-89704934D01*
X95802690Y-89704384D01*
X95808619Y-89703205D01*
X95848960Y-89692396D01*
X95857361Y-89689544D01*
X95857364Y-89689542D01*
X95857369Y-89689541D01*
X95857367Y-89689542D01*
X95918685Y-89664141D01*
X95921483Y-89663059D01*
X95924777Y-89661874D01*
X95924795Y-89661869D01*
X95947183Y-89653820D01*
X95990075Y-89628714D01*
X96033493Y-89591092D01*
X96041687Y-89585402D01*
X96043731Y-89582221D01*
X96043732Y-89582221D01*
X96085009Y-89517992D01*
X96105011Y-89449871D01*
X96110500Y-89411696D01*
X96110500Y-89385480D01*
X96110265Y-89379840D01*
X96108285Y-89356130D01*
X96095134Y-89308197D01*
X96095131Y-89308190D01*
X96064113Y-89244340D01*
X96064111Y-89244336D01*
X96012753Y-89187843D01*
X95999592Y-89179822D01*
X95999587Y-89179817D01*
X95962921Y-89157470D01*
X95958121Y-89152191D01*
X95955082Y-89150932D01*
X95937723Y-89142113D01*
X95933686Y-89139652D01*
X95927762Y-89139370D01*
X95920736Y-89136700D01*
X95888362Y-89123280D01*
X95888226Y-89123239D01*
X95857360Y-89110454D01*
X95857359Y-89110453D01*
X95857355Y-89110452D01*
X95853709Y-89109214D01*
X95848962Y-89107603D01*
X95848956Y-89107601D01*
X95848952Y-89107600D01*
X95831280Y-89102865D01*
X95808623Y-89096795D01*
X95808624Y-89096795D01*
X95799916Y-89095063D01*
X95799988Y-89095073D01*
X95763202Y-89084347D01*
X95735832Y-89071584D01*
X95699990Y-89046486D01*
X95682787Y-89029283D01*
X95657687Y-88993436D01*
X95643826Y-88963710D01*
X95634669Y-88936158D01*
X95634263Y-88934209D01*
X95639952Y-88863440D01*
X95641209Y-88860289D01*
X95644833Y-88851541D01*
X95664784Y-88700000D01*
X95644833Y-88548459D01*
X95616611Y-88480326D01*
X95608100Y-88448556D01*
X95603438Y-88413142D01*
X95554180Y-88307507D01*
X95471767Y-88225094D01*
X95366132Y-88175836D01*
X95330716Y-88171174D01*
X95298944Y-88162661D01*
X95230816Y-88134442D01*
X95117324Y-88119500D01*
X95117322Y-88119500D01*
X95041228Y-88119500D01*
X95041225Y-88119500D01*
X94927733Y-88134442D01*
X94859605Y-88162661D01*
X94827834Y-88171174D01*
X94792417Y-88175836D01*
X94686782Y-88225094D01*
X94604369Y-88307507D01*
X94555111Y-88413142D01*
X94550449Y-88448559D01*
X94541936Y-88480330D01*
X94513717Y-88548458D01*
X94506280Y-88604947D01*
X94477557Y-88669874D01*
X94418292Y-88708965D01*
X94381358Y-88714500D01*
X93927192Y-88714500D01*
X93859071Y-88694498D01*
X93812578Y-88640842D01*
X93802270Y-88604947D01*
X93794833Y-88548460D01*
X93794833Y-88548459D01*
X93766611Y-88480326D01*
X93758100Y-88448556D01*
X93753438Y-88413142D01*
X93704180Y-88307507D01*
X93621767Y-88225094D01*
X93516132Y-88175836D01*
X93480716Y-88171174D01*
X93448944Y-88162661D01*
X93380816Y-88134442D01*
X93267324Y-88119500D01*
X93267322Y-88119500D01*
X93191228Y-88119500D01*
X93191225Y-88119500D01*
X93077733Y-88134442D01*
X93009605Y-88162661D01*
X92977834Y-88171174D01*
X92942417Y-88175836D01*
X92832525Y-88227080D01*
X92762333Y-88237741D01*
X92726025Y-88227080D01*
X92616132Y-88175836D01*
X92580716Y-88171174D01*
X92548944Y-88162661D01*
X92480816Y-88134442D01*
X92367324Y-88119500D01*
X92367322Y-88119500D01*
X92291228Y-88119500D01*
X92291225Y-88119500D01*
X92177733Y-88134442D01*
X92109605Y-88162661D01*
X92077834Y-88171174D01*
X92042417Y-88175836D01*
X91932525Y-88227080D01*
X91862333Y-88237741D01*
X91826025Y-88227080D01*
X91716132Y-88175836D01*
X91680716Y-88171174D01*
X91648944Y-88162661D01*
X91580816Y-88134442D01*
X91467324Y-88119500D01*
X91467322Y-88119500D01*
X91391228Y-88119500D01*
X91391225Y-88119500D01*
X91277733Y-88134442D01*
X91209605Y-88162661D01*
X91177834Y-88171174D01*
X91142417Y-88175836D01*
X91036782Y-88225094D01*
X91027755Y-88231416D01*
X91025535Y-88228245D01*
X90981058Y-88252533D01*
X90910243Y-88247468D01*
X90882182Y-88229434D01*
X90880795Y-88231416D01*
X90871767Y-88225094D01*
X90766132Y-88175836D01*
X90730716Y-88171174D01*
X90698944Y-88162661D01*
X90630816Y-88134442D01*
X90517324Y-88119500D01*
X90517322Y-88119500D01*
X90441228Y-88119500D01*
X90441225Y-88119500D01*
X90327733Y-88134442D01*
X90259605Y-88162661D01*
X90227834Y-88171174D01*
X90192417Y-88175836D01*
X90086782Y-88225094D01*
X90004369Y-88307507D01*
X89955111Y-88413142D01*
X89950449Y-88448559D01*
X89941936Y-88480330D01*
X89913717Y-88548458D01*
X89901522Y-88641091D01*
X89893766Y-88700000D01*
X89913717Y-88851541D01*
X89927227Y-88884158D01*
X89941936Y-88919667D01*
X89950449Y-88951440D01*
X89955111Y-88986857D01*
X90004369Y-89092492D01*
X90086782Y-89174905D01*
X90086783Y-89174905D01*
X90086784Y-89174906D01*
X90192416Y-89224163D01*
X90227833Y-89228825D01*
X90259603Y-89237337D01*
X90311718Y-89258924D01*
X90366998Y-89303471D01*
X90389420Y-89370834D01*
X90389500Y-89375332D01*
X90389500Y-89424667D01*
X90369498Y-89492788D01*
X90315842Y-89539281D01*
X90311717Y-89541076D01*
X90259605Y-89562661D01*
X90227834Y-89571174D01*
X90192417Y-89575836D01*
X90086782Y-89625094D01*
X90004369Y-89707507D01*
X89955111Y-89813142D01*
X89950449Y-89848559D01*
X89941936Y-89880330D01*
X89913717Y-89948458D01*
X89893766Y-90099999D01*
X89893766Y-90100000D01*
X83271687Y-90100000D01*
X83267282Y-90095595D01*
X83233256Y-90033283D01*
X83238321Y-89962468D01*
X83280868Y-89905632D01*
X83347388Y-89880821D01*
X83356377Y-89880500D01*
X83724720Y-89880500D01*
X83792841Y-89900502D01*
X83819944Y-89923988D01*
X83857101Y-89966870D01*
X83857103Y-89966871D01*
X83857104Y-89966872D01*
X83973341Y-90041573D01*
X84105915Y-90080500D01*
X84244085Y-90080500D01*
X84376659Y-90041573D01*
X84492896Y-89966872D01*
X84583379Y-89862449D01*
X84640777Y-89736765D01*
X84647156Y-89692396D01*
X84660441Y-89600003D01*
X84660441Y-89599996D01*
X84640778Y-89463241D01*
X84640777Y-89463240D01*
X84640777Y-89463235D01*
X84583379Y-89337551D01*
X84492896Y-89233128D01*
X84492895Y-89233127D01*
X84402299Y-89174905D01*
X84376659Y-89158427D01*
X84368931Y-89156158D01*
X84244085Y-89119500D01*
X84105915Y-89119500D01*
X83973343Y-89158426D01*
X83973339Y-89158428D01*
X83857103Y-89233128D01*
X83857101Y-89233129D01*
X83819944Y-89276012D01*
X83760218Y-89314396D01*
X83724720Y-89319500D01*
X81443377Y-89319500D01*
X81375256Y-89299498D01*
X81354282Y-89282595D01*
X80845905Y-88774218D01*
X80811879Y-88711906D01*
X80816944Y-88641091D01*
X80859491Y-88584255D01*
X80899493Y-88564230D01*
X80976659Y-88541573D01*
X81092896Y-88466872D01*
X81183379Y-88362449D01*
X81240777Y-88236765D01*
X81249537Y-88175837D01*
X81260441Y-88100003D01*
X81260441Y-88099996D01*
X81240778Y-87963241D01*
X81240777Y-87963240D01*
X81240777Y-87963235D01*
X81183379Y-87837551D01*
X81169189Y-87821174D01*
X81141320Y-87789012D01*
X81111827Y-87724431D01*
X81121931Y-87654157D01*
X81168424Y-87600502D01*
X81236545Y-87580500D01*
X81424720Y-87580500D01*
X81492841Y-87600502D01*
X81519944Y-87623988D01*
X81557101Y-87666870D01*
X81557103Y-87666871D01*
X81557104Y-87666872D01*
X81673341Y-87741573D01*
X81805915Y-87780500D01*
X81944085Y-87780500D01*
X82076659Y-87741573D01*
X82192896Y-87666872D01*
X82283379Y-87562449D01*
X82340777Y-87436765D01*
X82360441Y-87300000D01*
X82360441Y-87299996D01*
X82346063Y-87200000D01*
X104964657Y-87200000D01*
X104983988Y-87408620D01*
X105041322Y-87610128D01*
X105041324Y-87610133D01*
X105134712Y-87797682D01*
X105260970Y-87964875D01*
X105260971Y-87964876D01*
X105415797Y-88106018D01*
X105415811Y-88106029D01*
X105593922Y-88216310D01*
X105593925Y-88216311D01*
X105593934Y-88216317D01*
X105649236Y-88237741D01*
X105789292Y-88292000D01*
X105789295Y-88292000D01*
X105789299Y-88292002D01*
X105995244Y-88330500D01*
X105995247Y-88330500D01*
X106204753Y-88330500D01*
X106204756Y-88330500D01*
X106410701Y-88292002D01*
X106410705Y-88292000D01*
X106410707Y-88292000D01*
X106460948Y-88272535D01*
X106606066Y-88216317D01*
X106660704Y-88182486D01*
X106784188Y-88106029D01*
X106784190Y-88106026D01*
X106784197Y-88106023D01*
X106939029Y-87964876D01*
X107065288Y-87797681D01*
X107158676Y-87610133D01*
X107216012Y-87408619D01*
X107235343Y-87200000D01*
X111464657Y-87200000D01*
X111483988Y-87408620D01*
X111541322Y-87610128D01*
X111541324Y-87610133D01*
X111634712Y-87797682D01*
X111760970Y-87964875D01*
X111760971Y-87964876D01*
X111915797Y-88106018D01*
X111915811Y-88106029D01*
X112093922Y-88216310D01*
X112093925Y-88216311D01*
X112093934Y-88216317D01*
X112149236Y-88237741D01*
X112289292Y-88292000D01*
X112289295Y-88292000D01*
X112289299Y-88292002D01*
X112495244Y-88330500D01*
X112495247Y-88330500D01*
X112704753Y-88330500D01*
X112704756Y-88330500D01*
X112910701Y-88292002D01*
X112910705Y-88292000D01*
X112910707Y-88292000D01*
X112960948Y-88272535D01*
X113106066Y-88216317D01*
X113160704Y-88182486D01*
X113284188Y-88106029D01*
X113284190Y-88106026D01*
X113284197Y-88106023D01*
X113439029Y-87964876D01*
X113565288Y-87797681D01*
X113658676Y-87610133D01*
X113716012Y-87408619D01*
X113735343Y-87200000D01*
X113716012Y-86991381D01*
X113658676Y-86789867D01*
X113565288Y-86602319D01*
X113565287Y-86602318D01*
X113565287Y-86602317D01*
X113439029Y-86435124D01*
X113439028Y-86435123D01*
X113284202Y-86293981D01*
X113284188Y-86293970D01*
X113106077Y-86183689D01*
X113106070Y-86183685D01*
X113106066Y-86183683D01*
X113106061Y-86183681D01*
X112910707Y-86107999D01*
X112874007Y-86101138D01*
X112704756Y-86069500D01*
X112495244Y-86069500D01*
X112362387Y-86094335D01*
X112289292Y-86107999D01*
X112093938Y-86183681D01*
X112093922Y-86183689D01*
X111915811Y-86293970D01*
X111915797Y-86293981D01*
X111760971Y-86435123D01*
X111760970Y-86435124D01*
X111634712Y-86602317D01*
X111541324Y-86789866D01*
X111541322Y-86789871D01*
X111483988Y-86991379D01*
X111464657Y-87200000D01*
X107235343Y-87200000D01*
X107216012Y-86991381D01*
X107158676Y-86789867D01*
X107065288Y-86602319D01*
X107065287Y-86602318D01*
X107065287Y-86602317D01*
X106939029Y-86435124D01*
X106939028Y-86435123D01*
X106784202Y-86293981D01*
X106784188Y-86293970D01*
X106606077Y-86183689D01*
X106606070Y-86183685D01*
X106606066Y-86183683D01*
X106606061Y-86183681D01*
X106410707Y-86107999D01*
X106374007Y-86101138D01*
X106204756Y-86069500D01*
X105995244Y-86069500D01*
X105862387Y-86094335D01*
X105789292Y-86107999D01*
X105593938Y-86183681D01*
X105593922Y-86183689D01*
X105415811Y-86293970D01*
X105415797Y-86293981D01*
X105260971Y-86435123D01*
X105260970Y-86435124D01*
X105134712Y-86602317D01*
X105041324Y-86789866D01*
X105041322Y-86789871D01*
X104983988Y-86991379D01*
X104964657Y-87200000D01*
X82346063Y-87200000D01*
X82340778Y-87163241D01*
X82340777Y-87163240D01*
X82340777Y-87163235D01*
X82283379Y-87037551D01*
X82192896Y-86933128D01*
X82192895Y-86933127D01*
X82134777Y-86895777D01*
X82076659Y-86858427D01*
X81944085Y-86819500D01*
X81805915Y-86819500D01*
X81673343Y-86858426D01*
X81673339Y-86858428D01*
X81557103Y-86933128D01*
X81557101Y-86933129D01*
X81519944Y-86976012D01*
X81460218Y-87014396D01*
X81424720Y-87019500D01*
X80604010Y-87019500D01*
X80595293Y-87018895D01*
X80584424Y-87017378D01*
X80584423Y-87017378D01*
X80539969Y-87019433D01*
X80537059Y-87019500D01*
X80519007Y-87019500D01*
X80519005Y-87019500D01*
X80518989Y-87019501D01*
X80516873Y-87019897D01*
X80508218Y-87020900D01*
X80479671Y-87022220D01*
X80479659Y-87022223D01*
X80474828Y-87024356D01*
X80447113Y-87032938D01*
X80441920Y-87033909D01*
X80441912Y-87033912D01*
X80417613Y-87048958D01*
X80409888Y-87053029D01*
X80383736Y-87064577D01*
X80383732Y-87064580D01*
X80379998Y-87068314D01*
X80357249Y-87086333D01*
X80352757Y-87089114D01*
X80352753Y-87089118D01*
X80335523Y-87111933D01*
X80329791Y-87118520D01*
X80095718Y-87352595D01*
X80033406Y-87386620D01*
X80006622Y-87389500D01*
X76321489Y-87389500D01*
X76253368Y-87369498D01*
X76232394Y-87352595D01*
X74492405Y-85612606D01*
X74458379Y-85550294D01*
X74455500Y-85523511D01*
X74455500Y-84856818D01*
X74475502Y-84788697D01*
X74487861Y-84774433D01*
X74486995Y-84773682D01*
X74492896Y-84766872D01*
X74583379Y-84662449D01*
X74640777Y-84536765D01*
X74660441Y-84400000D01*
X74660441Y-84399996D01*
X74640778Y-84263241D01*
X74640777Y-84263240D01*
X74640777Y-84263235D01*
X74583379Y-84137551D01*
X74492896Y-84033128D01*
X74492895Y-84033127D01*
X74441353Y-84000003D01*
X77514559Y-84000003D01*
X77534221Y-84136758D01*
X77534223Y-84136765D01*
X77591621Y-84262449D01*
X77682104Y-84366872D01*
X77798341Y-84441573D01*
X77930915Y-84480500D01*
X78069085Y-84480500D01*
X78201659Y-84441573D01*
X78317896Y-84366872D01*
X78408379Y-84262449D01*
X78465777Y-84136765D01*
X78485441Y-84000000D01*
X78485440Y-83999996D01*
X78479464Y-83958427D01*
X78474371Y-83923008D01*
X78484474Y-83852736D01*
X78509990Y-83815984D01*
X79058571Y-83267404D01*
X79120884Y-83233379D01*
X79147667Y-83230500D01*
X83506395Y-83230500D01*
X83574516Y-83250502D01*
X83601618Y-83273986D01*
X83682104Y-83366872D01*
X83798341Y-83441573D01*
X83930915Y-83480500D01*
X84069085Y-83480500D01*
X84201659Y-83441573D01*
X84317896Y-83366872D01*
X84408379Y-83262449D01*
X84465777Y-83136765D01*
X84466067Y-83134741D01*
X84485441Y-83000003D01*
X84485441Y-82999996D01*
X84465778Y-82863241D01*
X84465777Y-82863240D01*
X84465777Y-82863235D01*
X84408379Y-82737551D01*
X84317896Y-82633128D01*
X84317895Y-82633127D01*
X84259777Y-82595777D01*
X84201659Y-82558427D01*
X84069085Y-82519500D01*
X83930915Y-82519500D01*
X83798343Y-82558426D01*
X83798339Y-82558428D01*
X83682104Y-82633127D01*
X83627234Y-82696450D01*
X83607263Y-82719500D01*
X83601620Y-82726012D01*
X83541893Y-82764396D01*
X83506395Y-82769500D01*
X79007697Y-82769500D01*
X79004424Y-82769414D01*
X78963137Y-82767251D01*
X78963135Y-82767251D01*
X78943590Y-82774754D01*
X78924641Y-82780367D01*
X78904152Y-82784723D01*
X78904151Y-82784723D01*
X78902477Y-82785940D01*
X78873588Y-82801625D01*
X78871661Y-82802364D01*
X78871655Y-82802368D01*
X78856855Y-82817168D01*
X78841828Y-82830002D01*
X78824880Y-82842316D01*
X78824877Y-82842319D01*
X78823843Y-82844111D01*
X78803823Y-82870199D01*
X78187991Y-83486030D01*
X78125679Y-83520055D01*
X78078351Y-83518365D01*
X78078004Y-83520783D01*
X78069088Y-83519501D01*
X78069085Y-83519500D01*
X77930915Y-83519500D01*
X77798343Y-83558426D01*
X77798339Y-83558428D01*
X77682104Y-83633127D01*
X77591621Y-83737550D01*
X77534223Y-83863234D01*
X77534221Y-83863241D01*
X77514559Y-83999996D01*
X77514559Y-84000003D01*
X74441353Y-84000003D01*
X74382917Y-83962449D01*
X74376659Y-83958427D01*
X74244085Y-83919500D01*
X74105915Y-83919500D01*
X73973343Y-83958426D01*
X73973339Y-83958428D01*
X73857104Y-84033127D01*
X73766621Y-84137550D01*
X73709223Y-84263234D01*
X73709221Y-84263241D01*
X73689559Y-84399996D01*
X73689559Y-84400003D01*
X73709221Y-84536758D01*
X73709223Y-84536765D01*
X73766621Y-84662449D01*
X73863005Y-84773682D01*
X73860291Y-84776032D01*
X73889396Y-84821318D01*
X73894500Y-84856818D01*
X73894500Y-85318623D01*
X73874498Y-85386744D01*
X73820842Y-85433237D01*
X73750568Y-85443341D01*
X73685988Y-85413847D01*
X73679405Y-85407718D01*
X72693882Y-84422195D01*
X72659856Y-84359883D01*
X72658260Y-84315168D01*
X72660441Y-84300000D01*
X72660441Y-84299998D01*
X72660441Y-84299996D01*
X72640778Y-84163241D01*
X72640777Y-84163240D01*
X72640777Y-84163235D01*
X72583379Y-84037551D01*
X72492896Y-83933128D01*
X72492895Y-83933127D01*
X72434777Y-83895777D01*
X72376659Y-83858427D01*
X72244085Y-83819500D01*
X72105915Y-83819500D01*
X71973343Y-83858426D01*
X71973339Y-83858428D01*
X71857104Y-83933127D01*
X71766621Y-84037550D01*
X71709223Y-84163234D01*
X71709221Y-84163241D01*
X71689559Y-84299996D01*
X71689559Y-84300003D01*
X68528553Y-84300003D01*
X68528552Y-82413163D01*
X68520982Y-82375098D01*
X68492139Y-82331931D01*
X68448972Y-82303088D01*
X68429939Y-82299302D01*
X68410909Y-82295517D01*
X66885199Y-82295517D01*
X66847132Y-82303088D01*
X66803967Y-82331930D01*
X66775124Y-82375098D01*
X66767553Y-82413157D01*
X66767553Y-85438870D01*
X63907365Y-85438870D01*
X63903961Y-78400003D01*
X82514559Y-78400003D01*
X82534221Y-78536758D01*
X82534223Y-78536765D01*
X82591621Y-78662449D01*
X82682104Y-78766872D01*
X82798341Y-78841573D01*
X82930915Y-78880500D01*
X83069085Y-78880500D01*
X83201659Y-78841573D01*
X83317896Y-78766872D01*
X83398380Y-78673987D01*
X83458107Y-78635604D01*
X83493605Y-78630500D01*
X84644450Y-78630500D01*
X84712571Y-78650502D01*
X84759064Y-78704158D01*
X84769168Y-78774432D01*
X84759064Y-78808838D01*
X84755803Y-78815982D01*
X84734223Y-78863235D01*
X84734221Y-78863241D01*
X84714559Y-78999996D01*
X84714559Y-79000003D01*
X84734221Y-79136758D01*
X84734223Y-79136765D01*
X84791621Y-79262449D01*
X84882104Y-79366872D01*
X84998341Y-79441573D01*
X85130915Y-79480500D01*
X85269082Y-79480500D01*
X85269085Y-79480500D01*
X85269087Y-79480499D01*
X85278005Y-79479217D01*
X85278429Y-79482170D01*
X85334387Y-79482166D01*
X85387994Y-79513970D01*
X88878428Y-83004405D01*
X88912454Y-83066717D01*
X88907389Y-83137533D01*
X88864842Y-83194368D01*
X88798322Y-83219179D01*
X88789333Y-83219500D01*
X88730915Y-83219500D01*
X88598343Y-83258426D01*
X88598339Y-83258428D01*
X88482104Y-83333127D01*
X88391621Y-83437550D01*
X88334223Y-83563234D01*
X88334221Y-83563241D01*
X88314559Y-83699996D01*
X88314559Y-83700003D01*
X88334221Y-83836758D01*
X88334223Y-83836765D01*
X88391621Y-83962449D01*
X88482104Y-84066872D01*
X88598341Y-84141573D01*
X88730915Y-84180500D01*
X88869315Y-84180500D01*
X88898836Y-84186729D01*
X88899387Y-84184388D01*
X88910753Y-84187061D01*
X88910755Y-84187062D01*
X88938595Y-84193609D01*
X88946921Y-84196188D01*
X88973582Y-84206517D01*
X88978859Y-84206517D01*
X89007705Y-84209863D01*
X89012838Y-84211071D01*
X89035225Y-84207948D01*
X89041150Y-84207122D01*
X89049864Y-84206517D01*
X139141554Y-84206517D01*
X139209675Y-84226519D01*
X139256168Y-84280175D01*
X139267554Y-84332517D01*
X139267554Y-85438870D01*
X139275124Y-85476937D01*
X139303966Y-85520102D01*
X139303967Y-85520103D01*
X139347134Y-85548946D01*
X139385198Y-85556517D01*
X140910907Y-85556516D01*
X140948972Y-85548946D01*
X140992139Y-85520103D01*
X141020982Y-85476936D01*
X141028553Y-85438872D01*
X141028552Y-82413163D01*
X141020982Y-82375098D01*
X140992139Y-82331931D01*
X140948972Y-82303088D01*
X140929939Y-82299302D01*
X140910909Y-82295517D01*
X139385199Y-82295517D01*
X139347132Y-82303088D01*
X139303967Y-82331930D01*
X139275124Y-82375098D01*
X139267553Y-82413157D01*
X139267553Y-83519517D01*
X139247551Y-83587638D01*
X139193895Y-83634131D01*
X139141553Y-83645517D01*
X90120835Y-83645517D01*
X90052714Y-83625515D01*
X90006221Y-83571859D01*
X89996117Y-83501585D01*
X90006221Y-83467175D01*
X90019750Y-83437550D01*
X90065777Y-83336765D01*
X90077040Y-83258428D01*
X90085441Y-83200003D01*
X90085441Y-83199996D01*
X90065778Y-83063241D01*
X90065777Y-83063240D01*
X90065777Y-83063235D01*
X90008379Y-82937551D01*
X89917896Y-82833128D01*
X89917895Y-82833127D01*
X89818755Y-82769414D01*
X89801659Y-82758427D01*
X89730561Y-82737551D01*
X89669085Y-82719500D01*
X89530915Y-82719500D01*
X89389694Y-82760966D01*
X89389209Y-82759316D01*
X89329414Y-82767908D01*
X89264836Y-82738408D01*
X89258263Y-82732287D01*
X85709994Y-79184017D01*
X85675968Y-79121705D01*
X85674371Y-79076990D01*
X85685441Y-79000000D01*
X85685440Y-78999998D01*
X85685441Y-78999996D01*
X85665778Y-78863241D01*
X85665777Y-78863240D01*
X85665777Y-78863235D01*
X85640935Y-78808840D01*
X85630832Y-78738569D01*
X85660325Y-78673988D01*
X85720052Y-78635604D01*
X85755550Y-78630500D01*
X88552334Y-78630500D01*
X88620455Y-78650502D01*
X88641429Y-78667405D01*
X91690006Y-81715982D01*
X91724032Y-81778294D01*
X91725629Y-81823008D01*
X91714559Y-81900002D01*
X91714559Y-81900003D01*
X91734221Y-82036758D01*
X91734223Y-82036765D01*
X91791621Y-82162449D01*
X91882104Y-82266872D01*
X91998341Y-82341573D01*
X92130915Y-82380500D01*
X92269085Y-82380500D01*
X92401659Y-82341573D01*
X92517896Y-82266872D01*
X92608379Y-82162449D01*
X92665777Y-82036765D01*
X92685441Y-81900000D01*
X92685441Y-81899996D01*
X92665778Y-81763241D01*
X92665777Y-81763240D01*
X92665777Y-81763235D01*
X92608379Y-81637551D01*
X92517896Y-81533128D01*
X92517895Y-81533127D01*
X92459777Y-81495777D01*
X92401659Y-81458427D01*
X92335128Y-81438892D01*
X92269085Y-81419500D01*
X92130915Y-81419500D01*
X92130914Y-81419500D01*
X92121998Y-81420782D01*
X92121574Y-81417833D01*
X92065591Y-81417828D01*
X92012006Y-81386030D01*
X88868418Y-78242441D01*
X88866166Y-78240068D01*
X88838511Y-78209354D01*
X88838512Y-78209354D01*
X88819384Y-78200838D01*
X88802011Y-78191405D01*
X88784450Y-78180001D01*
X88782409Y-78179678D01*
X88750880Y-78170339D01*
X88748995Y-78169500D01*
X88748994Y-78169500D01*
X88728061Y-78169500D01*
X88708352Y-78167949D01*
X88691032Y-78165206D01*
X88687667Y-78164673D01*
X88687666Y-78164673D01*
X88685678Y-78165206D01*
X88653065Y-78169500D01*
X83493605Y-78169500D01*
X83425484Y-78149498D01*
X83398380Y-78126012D01*
X83317895Y-78033127D01*
X83259777Y-77995777D01*
X83201659Y-77958427D01*
X83069085Y-77919500D01*
X82930915Y-77919500D01*
X82798343Y-77958426D01*
X82798339Y-77958428D01*
X82682104Y-78033127D01*
X82591621Y-78137550D01*
X82534223Y-78263234D01*
X82534221Y-78263241D01*
X82514559Y-78399996D01*
X82514559Y-78400003D01*
X63903961Y-78400003D01*
X63901785Y-73900003D01*
X82914559Y-73900003D01*
X82934221Y-74036758D01*
X82934223Y-74036765D01*
X82991621Y-74162449D01*
X83082104Y-74266872D01*
X83198341Y-74341573D01*
X83330915Y-74380500D01*
X83469085Y-74380500D01*
X83601659Y-74341573D01*
X83717896Y-74266872D01*
X83798380Y-74173987D01*
X83858107Y-74135604D01*
X83893605Y-74130500D01*
X86752334Y-74130500D01*
X86820455Y-74150502D01*
X86841429Y-74167405D01*
X91490006Y-78815982D01*
X91524032Y-78878294D01*
X91525629Y-78923008D01*
X91514559Y-79000002D01*
X91514559Y-79000003D01*
X91534221Y-79136758D01*
X91534223Y-79136765D01*
X91591621Y-79262449D01*
X91682104Y-79366872D01*
X91798341Y-79441573D01*
X91930915Y-79480500D01*
X92069085Y-79480500D01*
X92201659Y-79441573D01*
X92317896Y-79366872D01*
X92408379Y-79262449D01*
X92465777Y-79136765D01*
X92467942Y-79121705D01*
X92485441Y-79000003D01*
X92485441Y-78999996D01*
X92465778Y-78863241D01*
X92465777Y-78863240D01*
X92465777Y-78863235D01*
X92408379Y-78737551D01*
X92408375Y-78737546D01*
X92392124Y-78718790D01*
X92362631Y-78654209D01*
X92372736Y-78583935D01*
X92419228Y-78530282D01*
X92517896Y-78466872D01*
X92608379Y-78362449D01*
X92665777Y-78236765D01*
X92672299Y-78191405D01*
X92685441Y-78100003D01*
X92685441Y-78099996D01*
X92665778Y-77963241D01*
X92665777Y-77963240D01*
X92665777Y-77963235D01*
X92608379Y-77837551D01*
X92517896Y-77733128D01*
X92488376Y-77714156D01*
X92441885Y-77660499D01*
X92430500Y-77608160D01*
X92430500Y-74807695D01*
X92430585Y-74804424D01*
X92432749Y-74763136D01*
X92425245Y-74743589D01*
X92419629Y-74724628D01*
X92415277Y-74704155D01*
X92415277Y-74704153D01*
X92414065Y-74702485D01*
X92398369Y-74673578D01*
X92397632Y-74671656D01*
X92382828Y-74656852D01*
X92369991Y-74641821D01*
X92357684Y-74624881D01*
X92357681Y-74624879D01*
X92357681Y-74624878D01*
X92355894Y-74623846D01*
X92329799Y-74603823D01*
X91609993Y-73884016D01*
X91575968Y-73821704D01*
X91574372Y-73776989D01*
X91585441Y-73700003D01*
X91585441Y-73699996D01*
X91565778Y-73563241D01*
X91565777Y-73563240D01*
X91565777Y-73563235D01*
X91508379Y-73437551D01*
X91417896Y-73333128D01*
X91417895Y-73333127D01*
X91359777Y-73295777D01*
X91301659Y-73258427D01*
X91169085Y-73219500D01*
X91030915Y-73219500D01*
X90898343Y-73258426D01*
X90898339Y-73258428D01*
X90782104Y-73333127D01*
X90691621Y-73437550D01*
X90634223Y-73563234D01*
X90634221Y-73563241D01*
X90614559Y-73699996D01*
X90614559Y-73700003D01*
X90634221Y-73836758D01*
X90634223Y-73836765D01*
X90691621Y-73962449D01*
X90782104Y-74066872D01*
X90898341Y-74141573D01*
X91030915Y-74180500D01*
X91169082Y-74180500D01*
X91169085Y-74180500D01*
X91169087Y-74180499D01*
X91178005Y-74179217D01*
X91178430Y-74182173D01*
X91234363Y-74182159D01*
X91287992Y-74213969D01*
X91932595Y-74858571D01*
X91966620Y-74920884D01*
X91969500Y-74947667D01*
X91969500Y-77608160D01*
X91949498Y-77676281D01*
X91911624Y-77714156D01*
X91882105Y-77733127D01*
X91882101Y-77733131D01*
X91791621Y-77837550D01*
X91734223Y-77963234D01*
X91734221Y-77963241D01*
X91714105Y-78103153D01*
X91684612Y-78167734D01*
X91624886Y-78206117D01*
X91553889Y-78206117D01*
X91500293Y-78174316D01*
X89371614Y-76045637D01*
X87068418Y-73742441D01*
X87066166Y-73740068D01*
X87038511Y-73709354D01*
X87038512Y-73709354D01*
X87019384Y-73700838D01*
X87002011Y-73691405D01*
X86984450Y-73680001D01*
X86982409Y-73679678D01*
X86950880Y-73670339D01*
X86948995Y-73669500D01*
X86948994Y-73669500D01*
X86928061Y-73669500D01*
X86908352Y-73667949D01*
X86891032Y-73665206D01*
X86887667Y-73664673D01*
X86887666Y-73664673D01*
X86885678Y-73665206D01*
X86853065Y-73669500D01*
X83893605Y-73669500D01*
X83825484Y-73649498D01*
X83798380Y-73626012D01*
X83717895Y-73533127D01*
X83659777Y-73495777D01*
X83601659Y-73458427D01*
X83530561Y-73437551D01*
X83469085Y-73419500D01*
X83330915Y-73419500D01*
X83198343Y-73458426D01*
X83198339Y-73458428D01*
X83082104Y-73533127D01*
X82991621Y-73637550D01*
X82934223Y-73763234D01*
X82934221Y-73763241D01*
X82914559Y-73899996D01*
X82914559Y-73900003D01*
X63901785Y-73900003D01*
X63900875Y-72018676D01*
X106691822Y-72018676D01*
X106694634Y-72054414D01*
X106694634Y-72054415D01*
X106739080Y-72207395D01*
X106820167Y-72344505D01*
X106820172Y-72344512D01*
X106932809Y-72457149D01*
X106932816Y-72457154D01*
X107069926Y-72538241D01*
X107069927Y-72538241D01*
X107069930Y-72538243D01*
X107222906Y-72582687D01*
X107230054Y-72583249D01*
X107258646Y-72585500D01*
X107258650Y-72585500D01*
X112885998Y-72585500D01*
X112909823Y-72583624D01*
X112921738Y-72582687D01*
X113074714Y-72538243D01*
X113211831Y-72457152D01*
X113324474Y-72344509D01*
X113405565Y-72207392D01*
X113450009Y-72054416D01*
X113452822Y-72018676D01*
X116691822Y-72018676D01*
X116694634Y-72054414D01*
X116694634Y-72054415D01*
X116739080Y-72207395D01*
X116820167Y-72344505D01*
X116820172Y-72344512D01*
X116932809Y-72457149D01*
X116932816Y-72457154D01*
X117069926Y-72538241D01*
X117069927Y-72538241D01*
X117069930Y-72538243D01*
X117222906Y-72582687D01*
X117230054Y-72583249D01*
X117258646Y-72585500D01*
X117258650Y-72585500D01*
X122885998Y-72585500D01*
X122909823Y-72583624D01*
X122921738Y-72582687D01*
X123074714Y-72538243D01*
X123211831Y-72457152D01*
X123324474Y-72344509D01*
X123405565Y-72207392D01*
X123450009Y-72054416D01*
X123452822Y-72018672D01*
X123452822Y-70891328D01*
X123450009Y-70855584D01*
X123405565Y-70702608D01*
X123324474Y-70565491D01*
X123324473Y-70565490D01*
X123324471Y-70565487D01*
X123211834Y-70452850D01*
X123211827Y-70452845D01*
X123074717Y-70371758D01*
X122921736Y-70327312D01*
X122885998Y-70324500D01*
X122885994Y-70324500D01*
X117258650Y-70324500D01*
X117258646Y-70324500D01*
X117222907Y-70327312D01*
X117222906Y-70327312D01*
X117069926Y-70371758D01*
X116932816Y-70452845D01*
X116932809Y-70452850D01*
X116820172Y-70565487D01*
X116820167Y-70565494D01*
X116739080Y-70702604D01*
X116694634Y-70855584D01*
X116694634Y-70855585D01*
X116691822Y-70891324D01*
X116691822Y-72018676D01*
X113452822Y-72018676D01*
X113452822Y-72018672D01*
X113452822Y-70891328D01*
X113450009Y-70855584D01*
X113405565Y-70702608D01*
X113324474Y-70565491D01*
X113324473Y-70565490D01*
X113324471Y-70565487D01*
X113211834Y-70452850D01*
X113211827Y-70452845D01*
X113074717Y-70371758D01*
X112921736Y-70327312D01*
X112885998Y-70324500D01*
X112885994Y-70324500D01*
X107258650Y-70324500D01*
X107258646Y-70324500D01*
X107222907Y-70327312D01*
X107222906Y-70327312D01*
X107069926Y-70371758D01*
X106932816Y-70452845D01*
X106932809Y-70452850D01*
X106820172Y-70565487D01*
X106820167Y-70565494D01*
X106739080Y-70702604D01*
X106694634Y-70855584D01*
X106694634Y-70855585D01*
X106691822Y-70891324D01*
X106691822Y-72018676D01*
X63900875Y-72018676D01*
X63899349Y-68861899D01*
X63899463Y-68858123D01*
X63919251Y-68530237D01*
X63920061Y-68523289D01*
X63975889Y-68201236D01*
X63977468Y-68194411D01*
X64003422Y-68105167D01*
X64068740Y-67880556D01*
X64071067Y-67873950D01*
X64196654Y-67572182D01*
X64199695Y-67565888D01*
X64358052Y-67279926D01*
X64361760Y-67274031D01*
X64550924Y-67007426D01*
X64555268Y-67001975D01*
X64772868Y-66758067D01*
X64777813Y-66753111D01*
X65021159Y-66534907D01*
X65026636Y-66530520D01*
X65113795Y-66468347D01*
X65292728Y-66340709D01*
X65298637Y-66336972D01*
X65584178Y-66177906D01*
X65590476Y-66174845D01*
X65674161Y-66139769D01*
X65891926Y-66048496D01*
X65898518Y-66046155D01*
X66212140Y-65954091D01*
X66218957Y-65952496D01*
X66540865Y-65895857D01*
X66547828Y-65895029D01*
X66875519Y-65874421D01*
X66879474Y-65874296D01*
X140847335Y-65900480D01*
G37*
%TD.AperFunction*%
%TD*%
%TA.AperFunction,Conductor*%
%TO.N,VBUS*%
G36*
X90844716Y-88870002D02*
G01*
X90891209Y-88923658D01*
X90901517Y-88959554D01*
X90905111Y-88986857D01*
X90954369Y-89092492D01*
X91036782Y-89174905D01*
X91036783Y-89174905D01*
X91036784Y-89174906D01*
X91142416Y-89224163D01*
X91177833Y-89228825D01*
X91209601Y-89237336D01*
X91277734Y-89265558D01*
X91391228Y-89280500D01*
X91391235Y-89280500D01*
X91467315Y-89280500D01*
X91467322Y-89280500D01*
X91580816Y-89265558D01*
X91648951Y-89237335D01*
X91680706Y-89228827D01*
X91716134Y-89224163D01*
X91821766Y-89174906D01*
X91821766Y-89174905D01*
X91826024Y-89172920D01*
X91896216Y-89162258D01*
X91932526Y-89172920D01*
X91936783Y-89174905D01*
X91936784Y-89174906D01*
X92042416Y-89224163D01*
X92077833Y-89228825D01*
X92109601Y-89237336D01*
X92177734Y-89265558D01*
X92250046Y-89275078D01*
X92314973Y-89303800D01*
X92329116Y-89325242D01*
X92341309Y-89305764D01*
X92405534Y-89275505D01*
X92408475Y-89275081D01*
X92480816Y-89265558D01*
X92548951Y-89237335D01*
X92580706Y-89228827D01*
X92616134Y-89224163D01*
X92721766Y-89174906D01*
X92721766Y-89174905D01*
X92726024Y-89172920D01*
X92796216Y-89162258D01*
X92832526Y-89172920D01*
X92836783Y-89174905D01*
X92836784Y-89174906D01*
X92942416Y-89224163D01*
X92977833Y-89228825D01*
X93009601Y-89237336D01*
X93077734Y-89265558D01*
X93150046Y-89275078D01*
X93214973Y-89303800D01*
X93229116Y-89325242D01*
X93241309Y-89305764D01*
X93305534Y-89275505D01*
X93308475Y-89275081D01*
X93380816Y-89265558D01*
X93448951Y-89237335D01*
X93480706Y-89228827D01*
X93516134Y-89224163D01*
X93621766Y-89174906D01*
X93704181Y-89092491D01*
X93753438Y-88986859D01*
X93757032Y-88959554D01*
X93785755Y-88894627D01*
X93845020Y-88855535D01*
X93881955Y-88850000D01*
X95376595Y-88850000D01*
X95444716Y-88870002D01*
X95491209Y-88923658D01*
X95501517Y-88959554D01*
X95505111Y-88986857D01*
X95554369Y-89092492D01*
X95636782Y-89174905D01*
X95636783Y-89174905D01*
X95636784Y-89174906D01*
X95742416Y-89224163D01*
X95777833Y-89228825D01*
X95809601Y-89237336D01*
X95877734Y-89265558D01*
X95877735Y-89265558D01*
X95881609Y-89266596D01*
X95884510Y-89268364D01*
X95885364Y-89268718D01*
X95885308Y-89268851D01*
X95942232Y-89303546D01*
X95973255Y-89367406D01*
X95975000Y-89388303D01*
X95975000Y-89411696D01*
X95954998Y-89479817D01*
X95901342Y-89526310D01*
X95881618Y-89533401D01*
X95877733Y-89534441D01*
X95809605Y-89562661D01*
X95777834Y-89571174D01*
X95742417Y-89575836D01*
X95636782Y-89625094D01*
X95554369Y-89707507D01*
X95505111Y-89813142D01*
X95500449Y-89848559D01*
X95491936Y-89880330D01*
X95463717Y-89948458D01*
X95443766Y-90099999D01*
X95443766Y-90100000D01*
X95463717Y-90251541D01*
X95491936Y-90319667D01*
X95500449Y-90351440D01*
X95505111Y-90386857D01*
X95554369Y-90492492D01*
X95560691Y-90501520D01*
X95557230Y-90503942D01*
X95580925Y-90547334D01*
X95575860Y-90618149D01*
X95533313Y-90674985D01*
X95466793Y-90699796D01*
X95413125Y-90691929D01*
X95393325Y-90684420D01*
X95270444Y-90669500D01*
X95270438Y-90669500D01*
X94719421Y-90669500D01*
X94651300Y-90649498D01*
X94604807Y-90595842D01*
X94594703Y-90525568D01*
X94605226Y-90490250D01*
X94605652Y-90489335D01*
X94653438Y-90386859D01*
X94658102Y-90351431D01*
X94666610Y-90319676D01*
X94694833Y-90251541D01*
X94714784Y-90100000D01*
X94694833Y-89948459D01*
X94666611Y-89880326D01*
X94658100Y-89848556D01*
X94653438Y-89813142D01*
X94604180Y-89707507D01*
X94521767Y-89625094D01*
X94416132Y-89575836D01*
X94380716Y-89571174D01*
X94348944Y-89562661D01*
X94280816Y-89534442D01*
X94167324Y-89519500D01*
X94167322Y-89519500D01*
X94091228Y-89519500D01*
X94091225Y-89519500D01*
X93977733Y-89534442D01*
X93909605Y-89562661D01*
X93877834Y-89571174D01*
X93842417Y-89575836D01*
X93732525Y-89627080D01*
X93662333Y-89637741D01*
X93626025Y-89627080D01*
X93516132Y-89575836D01*
X93480716Y-89571174D01*
X93448944Y-89562661D01*
X93380816Y-89534442D01*
X93372909Y-89533401D01*
X93308501Y-89524921D01*
X93243576Y-89496200D01*
X93229432Y-89474757D01*
X93217240Y-89494236D01*
X93153015Y-89524495D01*
X93150062Y-89524919D01*
X93106192Y-89530695D01*
X93077733Y-89534442D01*
X93009605Y-89562661D01*
X92977834Y-89571174D01*
X92942417Y-89575836D01*
X92832525Y-89627080D01*
X92762333Y-89637741D01*
X92726025Y-89627080D01*
X92616132Y-89575836D01*
X92580716Y-89571174D01*
X92548944Y-89562661D01*
X92480816Y-89534442D01*
X92472909Y-89533401D01*
X92408501Y-89524921D01*
X92343576Y-89496200D01*
X92329432Y-89474757D01*
X92317240Y-89494236D01*
X92253015Y-89524495D01*
X92250062Y-89524919D01*
X92206192Y-89530695D01*
X92177733Y-89534442D01*
X92109605Y-89562661D01*
X92077834Y-89571174D01*
X92042417Y-89575836D01*
X91936782Y-89625094D01*
X91854369Y-89707507D01*
X91805111Y-89813142D01*
X91800449Y-89848559D01*
X91791936Y-89880330D01*
X91763717Y-89948458D01*
X91743766Y-90099999D01*
X91743766Y-90100000D01*
X91763717Y-90251541D01*
X91791936Y-90319667D01*
X91800449Y-90351440D01*
X91805111Y-90386857D01*
X91854369Y-90492492D01*
X91936782Y-90574905D01*
X91936783Y-90574905D01*
X91936784Y-90574906D01*
X92042416Y-90624163D01*
X92077833Y-90628825D01*
X92109601Y-90637336D01*
X92177734Y-90665558D01*
X92291228Y-90680500D01*
X92291235Y-90680500D01*
X92367315Y-90680500D01*
X92367322Y-90680500D01*
X92480816Y-90665558D01*
X92548951Y-90637335D01*
X92580706Y-90628827D01*
X92616134Y-90624163D01*
X92721766Y-90574906D01*
X92721766Y-90574905D01*
X92726024Y-90572920D01*
X92796216Y-90562258D01*
X92832526Y-90572920D01*
X92836783Y-90574905D01*
X92836784Y-90574906D01*
X92942416Y-90624163D01*
X92977833Y-90628825D01*
X93009601Y-90637336D01*
X93077734Y-90665558D01*
X93191228Y-90680500D01*
X93191235Y-90680500D01*
X93267315Y-90680500D01*
X93267322Y-90680500D01*
X93380816Y-90665558D01*
X93448951Y-90637335D01*
X93480706Y-90628827D01*
X93516134Y-90624163D01*
X93621766Y-90574906D01*
X93621766Y-90574905D01*
X93626024Y-90572920D01*
X93696216Y-90562258D01*
X93732525Y-90572919D01*
X93736782Y-90574904D01*
X93736784Y-90574906D01*
X93798396Y-90603636D01*
X93851680Y-90650553D01*
X93871141Y-90718830D01*
X93850599Y-90786790D01*
X93834241Y-90806925D01*
X93765322Y-90875843D01*
X93709552Y-90989925D01*
X93709551Y-90989927D01*
X93698774Y-91063898D01*
X93698719Y-91064659D01*
X93698555Y-91065399D01*
X93698118Y-91068402D01*
X93697899Y-91068370D01*
X93690863Y-91100220D01*
X93688323Y-91106916D01*
X93648775Y-91267370D01*
X93648775Y-91324000D01*
X93628773Y-91392121D01*
X93575117Y-91438614D01*
X93522775Y-91450000D01*
X92035775Y-91450000D01*
X91967654Y-91429998D01*
X91921161Y-91376342D01*
X91909775Y-91324000D01*
X91909775Y-91267373D01*
X91909775Y-91267372D01*
X91870227Y-91106919D01*
X91870226Y-91106917D01*
X91867689Y-91100227D01*
X91860652Y-91068369D01*
X91860432Y-91068402D01*
X91859990Y-91065371D01*
X91859828Y-91064636D01*
X91859775Y-91063908D01*
X91859775Y-91063890D01*
X91848999Y-90989928D01*
X91793226Y-90875843D01*
X91793225Y-90875841D01*
X91703433Y-90786049D01*
X91703431Y-90786048D01*
X91589349Y-90730277D01*
X91589347Y-90730276D01*
X91515386Y-90719500D01*
X91515385Y-90719500D01*
X91508911Y-90719500D01*
X91464230Y-90711312D01*
X91393322Y-90684419D01*
X91270444Y-90669500D01*
X91270438Y-90669500D01*
X90651000Y-90669500D01*
X90582879Y-90649498D01*
X90536386Y-90595842D01*
X90525000Y-90543500D01*
X90525000Y-88976000D01*
X90545002Y-88907879D01*
X90598658Y-88861386D01*
X90651000Y-88850000D01*
X90776595Y-88850000D01*
X90844716Y-88870002D01*
G37*
%TD.AperFunction*%
%TD*%
M02*
