%TF.GenerationSoftware,KiCad,Pcbnew,7.0.6-0*%
%TF.CreationDate,2023-11-12T21:55:04+01:00*%
%TF.ProjectId,smoke_extractorV1_1,736d6f6b-655f-4657-9874-726163746f72,rev?*%
%TF.SameCoordinates,Original*%
%TF.FileFunction,Paste,Top*%
%TF.FilePolarity,Positive*%
%FSLAX46Y46*%
G04 Gerber Fmt 4.6, Leading zero omitted, Abs format (unit mm)*
G04 Created by KiCad (PCBNEW 7.0.6-0) date 2023-11-12 21:55:04*
%MOMM*%
%LPD*%
G01*
G04 APERTURE LIST*
G04 Aperture macros list*
%AMRoundRect*
0 Rectangle with rounded corners*
0 $1 Rounding radius*
0 $2 $3 $4 $5 $6 $7 $8 $9 X,Y pos of 4 corners*
0 Add a 4 corners polygon primitive as box body*
4,1,4,$2,$3,$4,$5,$6,$7,$8,$9,$2,$3,0*
0 Add four circle primitives for the rounded corners*
1,1,$1+$1,$2,$3*
1,1,$1+$1,$4,$5*
1,1,$1+$1,$6,$7*
1,1,$1+$1,$8,$9*
0 Add four rect primitives between the rounded corners*
20,1,$1+$1,$2,$3,$4,$5,0*
20,1,$1+$1,$4,$5,$6,$7,0*
20,1,$1+$1,$6,$7,$8,$9,0*
20,1,$1+$1,$8,$9,$2,$3,0*%
%AMFreePoly0*
4,1,11,1.015000,1.170000,0.435000,0.575000,0.435000,-0.575000,1.015000,-1.170000,1.015000,-1.945000,0.125000,-1.945000,-0.435000,-1.395000,-0.435000,1.395000,0.125000,1.945000,1.015000,1.945000,1.015000,1.170000,1.015000,1.170000,$1*%
%AMFreePoly1*
4,1,11,0.435000,1.395000,0.435000,-1.395000,-0.125000,-1.945000,-1.015000,-1.945000,-1.015000,-1.170000,-0.435000,-0.575000,-0.435000,0.575000,-1.015000,1.170000,-1.015000,1.945000,-0.125000,1.945000,0.435000,1.395000,0.435000,1.395000,$1*%
G04 Aperture macros list end*
%ADD10RoundRect,0.237500X-0.237500X0.300000X-0.237500X-0.300000X0.237500X-0.300000X0.237500X0.300000X0*%
%ADD11RoundRect,0.237500X-0.237500X0.250000X-0.237500X-0.250000X0.237500X-0.250000X0.237500X0.250000X0*%
%ADD12RoundRect,0.237500X0.237500X-0.250000X0.237500X0.250000X-0.237500X0.250000X-0.237500X-0.250000X0*%
%ADD13RoundRect,0.237500X-0.300000X-0.237500X0.300000X-0.237500X0.300000X0.237500X-0.300000X0.237500X0*%
%ADD14RoundRect,0.250000X-0.475000X0.337500X-0.475000X-0.337500X0.475000X-0.337500X0.475000X0.337500X0*%
%ADD15RoundRect,0.237500X-0.250000X-0.237500X0.250000X-0.237500X0.250000X0.237500X-0.250000X0.237500X0*%
%ADD16RoundRect,0.150000X-0.512500X-0.150000X0.512500X-0.150000X0.512500X0.150000X-0.512500X0.150000X0*%
%ADD17R,2.500000X1.800000*%
%ADD18RoundRect,0.237500X0.287500X0.237500X-0.287500X0.237500X-0.287500X-0.237500X0.287500X-0.237500X0*%
%ADD19RoundRect,0.237500X0.237500X-0.287500X0.237500X0.287500X-0.237500X0.287500X-0.237500X-0.287500X0*%
%ADD20R,0.650000X1.560000*%
%ADD21R,1.560000X0.650000*%
%ADD22RoundRect,0.150000X0.150000X-0.587500X0.150000X0.587500X-0.150000X0.587500X-0.150000X-0.587500X0*%
%ADD23RoundRect,0.250000X-0.450000X0.350000X-0.450000X-0.350000X0.450000X-0.350000X0.450000X0.350000X0*%
%ADD24RoundRect,0.237500X0.237500X-0.300000X0.237500X0.300000X-0.237500X0.300000X-0.237500X-0.300000X0*%
%ADD25RoundRect,0.150000X0.150000X-0.675000X0.150000X0.675000X-0.150000X0.675000X-0.150000X-0.675000X0*%
%ADD26RoundRect,0.250000X-0.350000X-0.450000X0.350000X-0.450000X0.350000X0.450000X-0.350000X0.450000X0*%
%ADD27R,1.100000X1.800000*%
%ADD28RoundRect,0.237500X0.250000X0.237500X-0.250000X0.237500X-0.250000X-0.237500X0.250000X-0.237500X0*%
%ADD29FreePoly0,0.000000*%
%ADD30FreePoly1,0.000000*%
%ADD31R,0.508000X1.981200*%
%ADD32R,2.150000X5.500000*%
G04 APERTURE END LIST*
D10*
%TO.C,C4*%
X88850000Y-81093988D03*
X88850000Y-82818988D03*
%TD*%
D11*
%TO.C,R19*%
X71575000Y-81237500D03*
X71575000Y-83062500D03*
%TD*%
D12*
%TO.C,R14*%
X99750000Y-76812500D03*
X99750000Y-74987500D03*
%TD*%
D13*
%TO.C,C2*%
X86632137Y-75000000D03*
X88357137Y-75000000D03*
%TD*%
D12*
%TO.C,R13*%
X101500000Y-76812500D03*
X101500000Y-74987500D03*
%TD*%
D14*
%TO.C,C8*%
X134200000Y-81262500D03*
X134200000Y-83337500D03*
%TD*%
D15*
%TO.C,R23*%
X71087500Y-93300000D03*
X72912500Y-93300000D03*
%TD*%
D16*
%TO.C,U4*%
X82557137Y-80973920D03*
X82557137Y-81923920D03*
X82557137Y-82873920D03*
X84832137Y-82873920D03*
X84832137Y-80973920D03*
%TD*%
D17*
%TO.C,D6*%
X87121657Y-77900109D03*
X83121657Y-77900109D03*
%TD*%
D10*
%TO.C,C1*%
X74775381Y-85312500D03*
X74775381Y-87037500D03*
%TD*%
D17*
%TO.C,D10*%
X138849139Y-78100000D03*
X134849139Y-78100000D03*
%TD*%
D18*
%TO.C,D1*%
X88487500Y-93200000D03*
X86737500Y-93200000D03*
%TD*%
D19*
%TO.C,D7*%
X69525000Y-79350000D03*
X69525000Y-77600000D03*
%TD*%
D20*
%TO.C,U7*%
X132000000Y-81450000D03*
X131050000Y-81450000D03*
X130100000Y-81450000D03*
X130100000Y-84150000D03*
X132000000Y-84150000D03*
%TD*%
D12*
%TO.C,R15*%
X98000000Y-76812500D03*
X98000000Y-74987500D03*
%TD*%
D10*
%TO.C,C7*%
X82785587Y-89387500D03*
X82785587Y-91112500D03*
%TD*%
D17*
%TO.C,D9*%
X74350000Y-74600000D03*
X70350000Y-74600000D03*
%TD*%
D21*
%TO.C,IC1*%
X72600000Y-91141253D03*
X72600000Y-90191253D03*
X72600000Y-89241253D03*
X69900000Y-89241253D03*
X69900000Y-90191253D03*
X69900000Y-91141253D03*
%TD*%
D22*
%TO.C,Q1*%
X76079077Y-82385799D03*
X77979077Y-82385799D03*
X77029077Y-80510799D03*
%TD*%
D21*
%TO.C,U8*%
X69864032Y-85131971D03*
X69864032Y-86081971D03*
X69864032Y-87031971D03*
X72564032Y-87031971D03*
X72564032Y-86081971D03*
X72564032Y-85131971D03*
%TD*%
D23*
%TO.C,R20*%
X83000000Y-85448628D03*
X83000000Y-87448628D03*
%TD*%
D24*
%TO.C,C6*%
X128200000Y-82950000D03*
X128200000Y-81225000D03*
%TD*%
D11*
%TO.C,R5*%
X92656381Y-81031852D03*
X92656381Y-82856852D03*
%TD*%
D19*
%TO.C,D8*%
X71525000Y-79350000D03*
X71525000Y-77600000D03*
%TD*%
D11*
%TO.C,R3*%
X96000000Y-76925000D03*
X96000000Y-78750000D03*
%TD*%
%TO.C,R21*%
X136250000Y-81187500D03*
X136250000Y-83012500D03*
%TD*%
D25*
%TO.C,U5*%
X76730000Y-90873628D03*
X78000000Y-90873628D03*
X79270000Y-90873628D03*
X80540000Y-90873628D03*
X80540000Y-85623628D03*
X79270000Y-85623628D03*
X78000000Y-85623628D03*
X76730000Y-85623628D03*
%TD*%
D26*
%TO.C,R17*%
X82450000Y-74780000D03*
X84450000Y-74780000D03*
%TD*%
D10*
%TO.C,C3*%
X90850000Y-81093988D03*
X90850000Y-82818988D03*
%TD*%
D12*
%TO.C,R16*%
X74800000Y-91200000D03*
X74800000Y-89375000D03*
%TD*%
D27*
%TO.C,SW1*%
X109400000Y-92100000D03*
X109400000Y-85900000D03*
X113100000Y-92100000D03*
X113100000Y-85900000D03*
%TD*%
D11*
%TO.C,R11*%
X84700000Y-89337500D03*
X84700000Y-91162500D03*
%TD*%
D28*
%TO.C,R22*%
X136012500Y-85200000D03*
X134187500Y-85200000D03*
%TD*%
D11*
%TO.C,R4*%
X96000000Y-81031852D03*
X96000000Y-82856852D03*
%TD*%
D15*
%TO.C,R9*%
X92000000Y-93200000D03*
X93825000Y-93200000D03*
%TD*%
D28*
%TO.C,R10*%
X88525000Y-85500000D03*
X86700000Y-85500000D03*
%TD*%
D15*
%TO.C,R1*%
X90500000Y-75000000D03*
X92325000Y-75000000D03*
%TD*%
D10*
%TO.C,C5*%
X86850000Y-81087500D03*
X86850000Y-82812500D03*
%TD*%
D12*
%TO.C,R12*%
X103250000Y-76812500D03*
X103250000Y-74987500D03*
%TD*%
D29*
%TO.C,L2*%
X76935000Y-76500000D03*
D30*
X80465000Y-76500000D03*
%TD*%
D31*
%TO.C,U3*%
X105910000Y-87036200D03*
X104640000Y-87036200D03*
X103370000Y-87036200D03*
X102100000Y-87036200D03*
X100830000Y-87036200D03*
X99560000Y-87036200D03*
X98290000Y-87036200D03*
X98290000Y-91963800D03*
X99560000Y-91963800D03*
X100830000Y-91963800D03*
X102100000Y-91963800D03*
X103370000Y-91963800D03*
X104640000Y-91963800D03*
X105910000Y-91963800D03*
%TD*%
D32*
%TO.C,L1*%
X127820000Y-76900000D03*
X131680000Y-76900000D03*
%TD*%
D15*
%TO.C,R2*%
X94175000Y-75000000D03*
X96000000Y-75000000D03*
%TD*%
D11*
%TO.C,R18*%
X69550000Y-81212500D03*
X69550000Y-83037500D03*
%TD*%
M02*
