M48
; DRILL file {KiCad 7.0.6-0} date 2023 November 12, Sunday 21:55:03
; FORMAT={-:-/ absolute / inch / decimal}
; #@! TF.CreationDate,2023-11-12T21:55:03+01:00
; #@! TF.GenerationSoftware,Kicad,Pcbnew,7.0.6-0
; #@! TF.FileFunction,MixedPlating,1,2
FMAT,2
INCH
; #@! TA.AperFunction,Plated,PTH,ViaDrill
T1C0.0118
; #@! TA.AperFunction,Plated,PTH,ComponentDrill
T2C0.0157
; #@! TA.AperFunction,Plated,PTH,ComponentDrill
T3C0.0197
; #@! TA.AperFunction,Plated,PTH,ComponentDrill
T4C0.0276
; #@! TA.AperFunction,Plated,PTH,ComponentDrill
T5C0.0300
; #@! TA.AperFunction,Plated,PTH,ComponentDrill
T6C0.0354
; #@! TA.AperFunction,Plated,PTH,ComponentDrill
T7C0.1260
%
G90
G05
T1
X2.7402Y-3.311
X2.7795Y-3.4764
X2.7913Y-3.622
X2.8189Y-3.315
X3.0354Y-3.3031
X3.0787Y-3.4606
X3.1004Y-2.9154
X3.1004Y-2.9488
X3.1004Y-2.9823
X3.1004Y-3.0157
X3.1004Y-3.0492
X3.1004Y-3.0827
X3.122Y-3.4291
X3.2126Y-3.5197
X3.2126Y-3.5906
X3.2382Y-2.815
X3.2382Y-2.8642
X3.3563Y-3.3563
X3.4646Y-2.815
X3.5335Y-3.1201
X3.6929Y-3.0197
X3.7008Y-2.8248
X3.7303Y-3.0217
X3.752Y-3.3819
X3.7835Y-3.3819
X3.8287Y-3.189
X3.8484Y-3.5531
X3.9173Y-3.1398
X3.9173Y-3.5039
X3.9173Y-3.5531
X3.9272Y-3.1791
X3.9567Y-2.8248
X3.9567Y-3.2776
X3.9665Y-3.3563
X4.0157Y-3.3563
X4.0197Y-3.5354
X4.126Y-3.4961
X4.126Y-3.5472
T3
X3.4234Y-3.4843
X3.4234Y-3.5394
X3.4608Y-3.4843
X3.4608Y-3.5394
X3.4982Y-3.4843
X3.5336Y-3.4843
X3.5336Y-3.5394
X3.5691Y-3.4843
X3.5691Y-3.5394
X3.6045Y-3.5394
X3.6419Y-3.4843
X3.6419Y-3.5394
X3.6793Y-3.4843
X3.6793Y-3.5394
T6
X3.0731Y-2.7913
X3.1731Y-2.7913
X3.3044Y-2.7913
X3.4044Y-2.7913
X3.5357Y-2.7913
X3.6357Y-2.7913
X3.767Y-2.7913
X3.867Y-2.7913
T7
X2.6535Y-2.7323
X5.5276Y-2.7323
T2
G00X2.6633Y-3.3278
M15
G01X2.6633Y-3.2806
M16
G05
G00X5.5176Y-3.2806
M15
G01X5.5176Y-3.3278
M16
G05
T4
G00X3.4549Y-3.435
M15
G01X3.4903Y-3.435
M16
G05
G00X3.4549Y-3.5886
M15
G01X3.4903Y-3.5886
M16
G05
G00X3.6124Y-3.435
M15
G01X3.6478Y-3.435
M16
G05
G00X3.6124Y-3.5886
M15
G01X3.6478Y-3.5886
M16
G05
T5
G00X4.2501Y-2.8132
M15
G01X4.417Y-2.8132
M16
G05
G00X4.6438Y-2.8132
M15
G01X4.8107Y-2.8132
M16
G05
T0
M30
