%TF.GenerationSoftware,KiCad,Pcbnew,7.0.6-0*%
%TF.CreationDate,2024-01-24T21:05:41+01:00*%
%TF.ProjectId,smoke_extractorV1_1,736d6f6b-655f-4657-9874-726163746f72,rev?*%
%TF.SameCoordinates,Original*%
%TF.FileFunction,Copper,L1,Top*%
%TF.FilePolarity,Positive*%
%FSLAX46Y46*%
G04 Gerber Fmt 4.6, Leading zero omitted, Abs format (unit mm)*
G04 Created by KiCad (PCBNEW 7.0.6-0) date 2024-01-24 21:05:41*
%MOMM*%
%LPD*%
G01*
G04 APERTURE LIST*
G04 Aperture macros list*
%AMRoundRect*
0 Rectangle with rounded corners*
0 $1 Rounding radius*
0 $2 $3 $4 $5 $6 $7 $8 $9 X,Y pos of 4 corners*
0 Add a 4 corners polygon primitive as box body*
4,1,4,$2,$3,$4,$5,$6,$7,$8,$9,$2,$3,0*
0 Add four circle primitives for the rounded corners*
1,1,$1+$1,$2,$3*
1,1,$1+$1,$4,$5*
1,1,$1+$1,$6,$7*
1,1,$1+$1,$8,$9*
0 Add four rect primitives between the rounded corners*
20,1,$1+$1,$2,$3,$4,$5,0*
20,1,$1+$1,$4,$5,$6,$7,0*
20,1,$1+$1,$6,$7,$8,$9,0*
20,1,$1+$1,$8,$9,$2,$3,0*%
G04 Aperture macros list end*
%TA.AperFunction,SMDPad,CuDef*%
%ADD10RoundRect,0.250000X1.000000X0.650000X-1.000000X0.650000X-1.000000X-0.650000X1.000000X-0.650000X0*%
%TD*%
%TA.AperFunction,SMDPad,CuDef*%
%ADD11RoundRect,0.237500X-0.237500X0.250000X-0.237500X-0.250000X0.237500X-0.250000X0.237500X0.250000X0*%
%TD*%
%TA.AperFunction,SMDPad,CuDef*%
%ADD12RoundRect,0.237500X-0.250000X-0.237500X0.250000X-0.237500X0.250000X0.237500X-0.250000X0.237500X0*%
%TD*%
%TA.AperFunction,ComponentPad*%
%ADD13RoundRect,0.200000X-0.200000X-0.200000X0.200000X-0.200000X0.200000X0.200000X-0.200000X0.200000X0*%
%TD*%
%TA.AperFunction,ComponentPad*%
%ADD14RoundRect,0.250000X-0.700000X-0.250000X0.700000X-0.250000X0.700000X0.250000X-0.700000X0.250000X0*%
%TD*%
%TA.AperFunction,SMDPad,CuDef*%
%ADD15R,2.000000X2.000000*%
%TD*%
%TA.AperFunction,SMDPad,CuDef*%
%ADD16RoundRect,0.250000X-0.475000X0.337500X-0.475000X-0.337500X0.475000X-0.337500X0.475000X0.337500X0*%
%TD*%
%TA.AperFunction,ComponentPad*%
%ADD17C,5.700000*%
%TD*%
%TA.AperFunction,SMDPad,CuDef*%
%ADD18RoundRect,0.237500X0.287500X0.237500X-0.287500X0.237500X-0.287500X-0.237500X0.287500X-0.237500X0*%
%TD*%
%TA.AperFunction,SMDPad,CuDef*%
%ADD19RoundRect,0.237500X-0.237500X0.300000X-0.237500X-0.300000X0.237500X-0.300000X0.237500X0.300000X0*%
%TD*%
%TA.AperFunction,SMDPad,CuDef*%
%ADD20R,2.500000X1.800000*%
%TD*%
%TA.AperFunction,SMDPad,CuDef*%
%ADD21RoundRect,0.237500X0.237500X-0.287500X0.237500X0.287500X-0.237500X0.287500X-0.237500X-0.287500X0*%
%TD*%
%TA.AperFunction,SMDPad,CuDef*%
%ADD22R,0.650000X1.560000*%
%TD*%
%TA.AperFunction,SMDPad,CuDef*%
%ADD23R,1.560000X0.650000*%
%TD*%
%TA.AperFunction,SMDPad,CuDef*%
%ADD24RoundRect,0.150000X0.150000X-0.587500X0.150000X0.587500X-0.150000X0.587500X-0.150000X-0.587500X0*%
%TD*%
%TA.AperFunction,SMDPad,CuDef*%
%ADD25RoundRect,0.250000X-0.450000X0.350000X-0.450000X-0.350000X0.450000X-0.350000X0.450000X0.350000X0*%
%TD*%
%TA.AperFunction,SMDPad,CuDef*%
%ADD26RoundRect,0.237500X0.237500X-0.300000X0.237500X0.300000X-0.237500X0.300000X-0.237500X-0.300000X0*%
%TD*%
%TA.AperFunction,ComponentPad*%
%ADD27RoundRect,0.500000X-2.750000X-0.500000X2.750000X-0.500000X2.750000X0.500000X-2.750000X0.500000X0*%
%TD*%
%TA.AperFunction,SMDPad,CuDef*%
%ADD28RoundRect,0.237500X0.250000X0.237500X-0.250000X0.237500X-0.250000X-0.237500X0.250000X-0.237500X0*%
%TD*%
%TA.AperFunction,SMDPad,CuDef*%
%ADD29RoundRect,0.150000X0.150000X-0.675000X0.150000X0.675000X-0.150000X0.675000X-0.150000X-0.675000X0*%
%TD*%
%TA.AperFunction,SMDPad,CuDef*%
%ADD30RoundRect,0.237500X0.237500X-0.250000X0.237500X0.250000X-0.237500X0.250000X-0.237500X-0.250000X0*%
%TD*%
%TA.AperFunction,ComponentPad*%
%ADD31C,2.000000*%
%TD*%
%TA.AperFunction,SMDPad,CuDef*%
%ADD32R,0.508000X1.981200*%
%TD*%
%TA.AperFunction,SMDPad,CuDef*%
%ADD33R,2.150000X5.500000*%
%TD*%
%TA.AperFunction,SMDPad,CuDef*%
%ADD34R,2.500000X2.500000*%
%TD*%
%TA.AperFunction,ComponentPad*%
%ADD35R,1.500000X3.000000*%
%TD*%
%TA.AperFunction,ViaPad*%
%ADD36C,0.600000*%
%TD*%
%TA.AperFunction,Conductor*%
%ADD37C,0.200000*%
%TD*%
%TA.AperFunction,Conductor*%
%ADD38C,0.300000*%
%TD*%
G04 APERTURE END LIST*
D10*
%TO.P,D5,1,K*%
%TO.N,VSPLY*%
X78838087Y-74896187D03*
%TO.P,D5,2,A*%
%TO.N,VBUS*%
X74838087Y-74896187D03*
%TD*%
D11*
%TO.P,R19,1*%
%TO.N,Net-(D8-K)*%
X74150000Y-81437500D03*
%TO.P,R19,2*%
%TO.N,Net-(U5-~{STDBY})*%
X74150000Y-83262500D03*
%TD*%
D12*
%TO.P,R14,1*%
%TO.N,Net-(U3-OUT3)*%
X93437500Y-78140000D03*
%TO.P,R14,2*%
%TO.N,Net-(D2-A)*%
X95262500Y-78140000D03*
%TD*%
%TO.P,R13,1*%
%TO.N,Net-(U3-OUT2)*%
X93437500Y-76240000D03*
%TO.P,R13,2*%
%TO.N,Net-(D3-A)*%
X95262500Y-76240000D03*
%TD*%
D13*
%TO.P,U1,1,GND*%
%TO.N,VBAT-PROTECT*%
X89529275Y-88700000D03*
X89529275Y-90100000D03*
D14*
X90779275Y-87450000D03*
X90779275Y-91350000D03*
X94779275Y-87450000D03*
X94779275Y-91350000D03*
D13*
X96029275Y-88700000D03*
X96029275Y-90100000D03*
%TO.P,U1,2,VCC*%
%TO.N,VBUS*%
X90479275Y-88700000D03*
X90479275Y-90100000D03*
X95079275Y-88700000D03*
X95079275Y-90100000D03*
%TO.P,U1,3,CC1*%
%TO.N,Net-(U1-CC1)*%
X91429275Y-88700000D03*
%TO.P,U1,4,CC2*%
%TO.N,Net-(U1-CC2)*%
X94129275Y-90100000D03*
%TO.P,U1,5,D+*%
%TO.N,unconnected-(U1-D+-Pad5)*%
X92329275Y-88700000D03*
X93229275Y-90100000D03*
%TO.P,U1,6,D-*%
%TO.N,unconnected-(U1-D--Pad6)*%
X92329275Y-90100000D03*
X93229275Y-88700000D03*
%TD*%
D15*
%TO.P,TP2,1,1*%
%TO.N,VBUS*%
X76925000Y-71250000D03*
%TD*%
D16*
%TO.P,C8,1*%
%TO.N,+12V*%
X134200000Y-81262500D03*
%TO.P,C8,2*%
%TO.N,VBAT-PROTECT*%
X134200000Y-83337500D03*
%TD*%
D17*
%TO.P,H2,1,1*%
%TO.N,VBAT-PROTECT*%
X67400000Y-69400000D03*
%TD*%
D18*
%TO.P,D6,1,K*%
%TO.N,Net-(D2-K)*%
X99000000Y-80100000D03*
%TO.P,D6,2,A*%
%TO.N,Net-(D6-A)*%
X97250000Y-80100000D03*
%TD*%
D19*
%TO.P,C1,1*%
%TO.N,VBUS*%
X77350381Y-85512500D03*
%TO.P,C1,2*%
%TO.N,VBAT-PROTECT*%
X77350381Y-87237500D03*
%TD*%
D20*
%TO.P,D10,1,K*%
%TO.N,+12V*%
X138849139Y-78100000D03*
%TO.P,D10,2,A*%
%TO.N,Net-(D10-A)*%
X134849139Y-78100000D03*
%TD*%
D18*
%TO.P,D2,1,K*%
%TO.N,Net-(D2-K)*%
X99000000Y-78100000D03*
%TO.P,D2,2,A*%
%TO.N,Net-(D2-A)*%
X97250000Y-78100000D03*
%TD*%
%TO.P,D1,1,K*%
%TO.N,VBAT-PROTECT*%
X91062500Y-93400000D03*
%TO.P,D1,2,A*%
%TO.N,Net-(D1-A)*%
X89312500Y-93400000D03*
%TD*%
D21*
%TO.P,D7,1,K*%
%TO.N,Net-(D7-K)*%
X72100000Y-79550000D03*
%TO.P,D7,2,A*%
%TO.N,VBUS*%
X72100000Y-77800000D03*
%TD*%
D22*
%TO.P,U7,1,CE*%
%TO.N,V_SWITCH*%
X132000000Y-81450000D03*
%TO.P,U7,2,LX*%
%TO.N,Net-(D10-A)*%
X131050000Y-81450000D03*
%TO.P,U7,3,GND*%
%TO.N,VBAT-PROTECT*%
X130100000Y-81450000D03*
%TO.P,U7,4,VDD*%
%TO.N,V_SWITCH*%
X130100000Y-84150000D03*
%TO.P,U7,5,FB*%
%TO.N,Net-(U7-FB)*%
X132000000Y-84150000D03*
%TD*%
D12*
%TO.P,R15,1*%
%TO.N,Net-(U3-OUT4)*%
X93437500Y-80140000D03*
%TO.P,R15,2*%
%TO.N,Net-(D6-A)*%
X95262500Y-80140000D03*
%TD*%
D19*
%TO.P,C7,1*%
%TO.N,Net-(IC1-VCC)*%
X85360587Y-89587500D03*
%TO.P,C7,2*%
%TO.N,Net-(IC1-GND)*%
X85360587Y-91312500D03*
%TD*%
D23*
%TO.P,IC1,1,OD*%
%TO.N,Net-(IC1-OD)*%
X75175000Y-91341253D03*
%TO.P,IC1,2,CS*%
%TO.N,Net-(IC1-CS)*%
X75175000Y-90391253D03*
%TO.P,IC1,3,OC*%
%TO.N,Net-(IC1-OC)*%
X75175000Y-89441253D03*
%TO.P,IC1,4,TD*%
%TO.N,unconnected-(IC1-TD-Pad4)*%
X72475000Y-89441253D03*
%TO.P,IC1,5,VCC*%
%TO.N,Net-(IC1-VCC)*%
X72475000Y-90391253D03*
%TO.P,IC1,6,GND*%
%TO.N,Net-(IC1-GND)*%
X72475000Y-91341253D03*
%TD*%
D24*
%TO.P,Q1,1,G*%
%TO.N,VBUS*%
X78654077Y-82585799D03*
%TO.P,Q1,2,S*%
%TO.N,VBAT+PROTECT*%
X80554077Y-82585799D03*
%TO.P,Q1,3,D*%
%TO.N,VSPLY*%
X79604077Y-80710799D03*
%TD*%
D23*
%TO.P,U8,1,S1*%
%TO.N,Net-(IC1-GND)*%
X72439032Y-85331971D03*
%TO.P,U8,2,D1/D2*%
%TO.N,unconnected-(U8-D1{slash}D2-Pad2)*%
X72439032Y-86281971D03*
%TO.P,U8,3,S2*%
%TO.N,VBAT-PROTECT*%
X72439032Y-87231971D03*
%TO.P,U8,4,G1*%
%TO.N,Net-(IC1-OD)*%
X75139032Y-87231971D03*
%TO.P,U8,5,D1/D2*%
%TO.N,unconnected-(U8-D1{slash}D2-Pad5)*%
X75139032Y-86281971D03*
%TO.P,U8,6,G2*%
%TO.N,Net-(IC1-OC)*%
X75139032Y-85331971D03*
%TD*%
D18*
%TO.P,D3,1,K*%
%TO.N,Net-(D2-K)*%
X99000000Y-76200000D03*
%TO.P,D3,2,A*%
%TO.N,Net-(D3-A)*%
X97250000Y-76200000D03*
%TD*%
D25*
%TO.P,R20,1*%
%TO.N,Net-(U6-V+)*%
X85575000Y-85648628D03*
%TO.P,R20,2*%
%TO.N,Net-(IC1-VCC)*%
X85575000Y-87648628D03*
%TD*%
D26*
%TO.P,C6,1*%
%TO.N,V_SWITCH*%
X128200000Y-82950000D03*
%TO.P,C6,2*%
%TO.N,VBAT-PROTECT*%
X128200000Y-81225000D03*
%TD*%
D17*
%TO.P,H1,1,1*%
%TO.N,VBAT-PROTECT*%
X140400000Y-69400000D03*
%TD*%
D11*
%TO.P,R5,1*%
%TO.N,Net-(U3-NEG_4)*%
X83287500Y-80107500D03*
%TO.P,R5,2*%
%TO.N,VBAT-PROTECT*%
X83287500Y-81932500D03*
%TD*%
D27*
%TO.P,U2,1,IN*%
%TO.N,VSPLY*%
X110072322Y-71455000D03*
%TO.P,U2,2,OUT*%
%TO.N,V_SWITCH*%
X120072322Y-71455000D03*
%TD*%
D21*
%TO.P,D8,1,K*%
%TO.N,Net-(D8-K)*%
X74100000Y-79550000D03*
%TO.P,D8,2,A*%
%TO.N,VBUS*%
X74100000Y-77800000D03*
%TD*%
D28*
%TO.P,R3,1*%
%TO.N,Net-(U3-NEG_2)*%
X90900000Y-80140000D03*
%TO.P,R3,2*%
%TO.N,Net-(U3-NEG3)*%
X89075000Y-80140000D03*
%TD*%
D11*
%TO.P,R21,1*%
%TO.N,+12V*%
X136250000Y-81187500D03*
%TO.P,R21,2*%
%TO.N,Net-(U7-FB)*%
X136250000Y-83012500D03*
%TD*%
D29*
%TO.P,U5,1,TEMP*%
%TO.N,VBAT-PROTECT*%
X79305000Y-91073628D03*
%TO.P,U5,2,PROG*%
%TO.N,Net-(U5-PROG)*%
X80575000Y-91073628D03*
%TO.P,U5,3,GND*%
%TO.N,VBAT-PROTECT*%
X81845000Y-91073628D03*
%TO.P,U5,4,VCC*%
%TO.N,VBUS*%
X83115000Y-91073628D03*
%TO.P,U5,5,BAT*%
%TO.N,VBAT+PROTECT*%
X83115000Y-85823628D03*
%TO.P,U5,6,~{STDBY}*%
%TO.N,Net-(U5-~{STDBY})*%
X81845000Y-85823628D03*
%TO.P,U5,7,~{CHRG}*%
%TO.N,Net-(U5-~{CHRG})*%
X80575000Y-85823628D03*
%TO.P,U5,8,CE*%
%TO.N,VBUS*%
X79305000Y-85823628D03*
%TD*%
D30*
%TO.P,R16,1*%
%TO.N,Net-(U5-PROG)*%
X77375000Y-91400000D03*
%TO.P,R16,2*%
%TO.N,VBAT-PROTECT*%
X77375000Y-89575000D03*
%TD*%
D31*
%TO.P,SW1,1,1*%
%TO.N,VBAT-PROTECT*%
X112600000Y-91700000D03*
X106100000Y-91700000D03*
%TO.P,SW1,2,2*%
%TO.N,Net-(D2-K)*%
X112600000Y-87200000D03*
X106100000Y-87200000D03*
%TD*%
D11*
%TO.P,R11,1*%
%TO.N,VBUS*%
X87275000Y-89537500D03*
%TO.P,R11,2*%
%TO.N,Net-(D1-A)*%
X87275000Y-91362500D03*
%TD*%
D28*
%TO.P,R22,1*%
%TO.N,Net-(U7-FB)*%
X136012500Y-85200000D03*
%TO.P,R22,2*%
%TO.N,VBAT-PROTECT*%
X134187500Y-85200000D03*
%TD*%
%TO.P,R4,1*%
%TO.N,Net-(U3-NEG3)*%
X87187500Y-80140000D03*
%TO.P,R4,2*%
%TO.N,Net-(U3-NEG_4)*%
X85362500Y-80140000D03*
%TD*%
D12*
%TO.P,R9,1*%
%TO.N,Net-(U1-CC2)*%
X94575000Y-93400000D03*
%TO.P,R9,2*%
%TO.N,VBAT-PROTECT*%
X96400000Y-93400000D03*
%TD*%
D18*
%TO.P,D4,1,K*%
%TO.N,Net-(D2-K)*%
X99000000Y-81860000D03*
%TO.P,D4,2,A*%
%TO.N,Net-(D4-A)*%
X97250000Y-81860000D03*
%TD*%
D28*
%TO.P,R10,1*%
%TO.N,Net-(U1-CC1)*%
X91100000Y-85700000D03*
%TO.P,R10,2*%
%TO.N,VBAT-PROTECT*%
X89275000Y-85700000D03*
%TD*%
D12*
%TO.P,R1,1*%
%TO.N,VBUS*%
X85362500Y-81900000D03*
%TO.P,R1,2*%
%TO.N,Net-(U3-NEG_1)*%
X87187500Y-81900000D03*
%TD*%
%TO.P,R12,1*%
%TO.N,Net-(U3-OUT1)*%
X93437500Y-81900000D03*
%TO.P,R12,2*%
%TO.N,Net-(D4-A)*%
X95262500Y-81900000D03*
%TD*%
D32*
%TO.P,U3,1,OUT1*%
%TO.N,Net-(U3-OUT1)*%
X83405000Y-76827600D03*
%TO.P,U3,2,NEG_1*%
%TO.N,Net-(U3-NEG_1)*%
X84675000Y-76827600D03*
%TO.P,U3,3,POS_1*%
%TO.N,VBAT+PROTECT*%
X85945000Y-76827600D03*
%TO.P,U3,4,VCC+*%
X87215000Y-76827600D03*
%TO.P,U3,5,POS_2*%
X88485000Y-76827600D03*
%TO.P,U3,6,NEG_2*%
%TO.N,Net-(U3-NEG_2)*%
X89755000Y-76827600D03*
%TO.P,U3,7,OUT2*%
%TO.N,Net-(U3-OUT2)*%
X91025000Y-76827600D03*
%TO.P,U3,8,OUT3*%
%TO.N,Net-(U3-OUT3)*%
X91025000Y-71900000D03*
%TO.P,U3,9,NEG3*%
%TO.N,Net-(U3-NEG3)*%
X89755000Y-71900000D03*
%TO.P,U3,10,POS_3*%
%TO.N,VBAT+PROTECT*%
X88485000Y-71900000D03*
%TO.P,U3,11,VCC-*%
%TO.N,VBAT-PROTECT*%
X87215000Y-71900000D03*
%TO.P,U3,12,POS_4*%
%TO.N,VBAT+PROTECT*%
X85945000Y-71900000D03*
%TO.P,U3,13,NEG_4*%
%TO.N,Net-(U3-NEG_4)*%
X84675000Y-71900000D03*
%TO.P,U3,14,OUT4*%
%TO.N,Net-(U3-OUT4)*%
X83405000Y-71900000D03*
%TD*%
D33*
%TO.P,L1,1,1*%
%TO.N,V_SWITCH*%
X127820000Y-76900000D03*
%TO.P,L1,2,2*%
%TO.N,Net-(D10-A)*%
X131680000Y-76900000D03*
%TD*%
D34*
%TO.P,J2,1,Pin_1*%
%TO.N,VBAT-PROTECT*%
X134000000Y-89800000D03*
%TD*%
D18*
%TO.P,F1,1*%
%TO.N,Net-(U6-V+)*%
X87150000Y-83700000D03*
%TO.P,F1,2*%
%TO.N,VBAT+PROTECT*%
X85400000Y-83700000D03*
%TD*%
D34*
%TO.P,J1,1,Pin_1*%
%TO.N,+12V*%
X139800000Y-89800000D03*
%TD*%
D12*
%TO.P,R2,1*%
%TO.N,Net-(U3-NEG_1)*%
X89075000Y-81900000D03*
%TO.P,R2,2*%
%TO.N,Net-(U3-NEG_2)*%
X90900000Y-81900000D03*
%TD*%
D11*
%TO.P,R18,1*%
%TO.N,Net-(D7-K)*%
X72125000Y-81412500D03*
%TO.P,R18,2*%
%TO.N,Net-(U5-~{CHRG})*%
X72125000Y-83237500D03*
%TD*%
D12*
%TO.P,R6,1*%
%TO.N,VBAT-PROTECT*%
X73662500Y-93360000D03*
%TO.P,R6,2*%
%TO.N,Net-(IC1-CS)*%
X75487500Y-93360000D03*
%TD*%
D35*
%TO.P,U6,1,V+*%
%TO.N,Net-(U6-V+)*%
X140148053Y-83926017D03*
%TO.P,U6,2,V-*%
%TO.N,Net-(IC1-GND)*%
X67648053Y-83926017D03*
%TD*%
D36*
%TO.N,VBUS*%
X84000000Y-83000000D03*
X78000000Y-84000000D03*
%TO.N,VBAT-PROTECT*%
X87200000Y-79000000D03*
X81325000Y-74250000D03*
X81325000Y-78500000D03*
X79675000Y-84100000D03*
X81325000Y-75100000D03*
X81325000Y-76800000D03*
X81325000Y-75950000D03*
X81325000Y-77650000D03*
%TO.N,Net-(U6-V+)*%
X88800000Y-83700000D03*
%TO.N,Net-(IC1-VCC)*%
X84175000Y-89600000D03*
X73175000Y-88500000D03*
%TO.N,Net-(IC1-GND)*%
X84175000Y-91400000D03*
X73475000Y-92200000D03*
%TO.N,Net-(U3-NEG_1)*%
X85200000Y-79000000D03*
X89600000Y-83200000D03*
%TO.N,Net-(U3-OUT1)*%
X92200000Y-81900000D03*
X83000000Y-78400000D03*
%TO.N,Net-(U3-OUT3)*%
X91100000Y-73700000D03*
X92200000Y-78100000D03*
%TO.N,Net-(U3-OUT4)*%
X83400000Y-73900000D03*
X92000000Y-79000000D03*
%TO.N,Net-(U5-~{CHRG})*%
X80775000Y-88100000D03*
X72175000Y-84300000D03*
%TO.N,Net-(U5-~{STDBY})*%
X74175000Y-84400000D03*
X81875000Y-87300000D03*
%TD*%
D37*
%TO.N,VBUS*%
X78585799Y-83414201D02*
X78000000Y-84000000D01*
X78654077Y-82585799D02*
X78585799Y-82585799D01*
X78585799Y-82585799D02*
X78585799Y-83414201D01*
X84000000Y-83000000D02*
X84262500Y-83000000D01*
X84262500Y-83000000D02*
X85362500Y-81900000D01*
%TO.N,VBAT+PROTECT*%
X85400000Y-83700000D02*
X86080000Y-83020000D01*
X86080000Y-76962600D02*
X85945000Y-76827600D01*
X86080000Y-83020000D02*
X86080000Y-76962600D01*
D38*
%TO.N,VBUS*%
X76925000Y-71300000D02*
X76925000Y-74800000D01*
%TO.N,VBAT-PROTECT*%
X129787500Y-81137500D02*
X130100000Y-81450000D01*
X128287500Y-81137500D02*
X128200000Y-81225000D01*
X129787500Y-81137500D02*
X128287500Y-81137500D01*
%TO.N,Net-(U6-V+)*%
X87150000Y-83700000D02*
X88800000Y-83700000D01*
X85575000Y-85648628D02*
X85575000Y-85275000D01*
X85575000Y-85275000D02*
X87150000Y-83700000D01*
D37*
%TO.N,Net-(IC1-VCC)*%
X85348087Y-89600000D02*
X85360587Y-89587500D01*
D38*
X73535000Y-90140000D02*
X73283747Y-90391253D01*
D37*
X85575000Y-87648628D02*
X85575000Y-89373087D01*
D38*
X73283747Y-90391253D02*
X72450000Y-90391253D01*
D37*
X85575000Y-89373087D02*
X85360587Y-89587500D01*
D38*
X73175000Y-88500000D02*
X73535000Y-88860000D01*
X73535000Y-88860000D02*
X73535000Y-90140000D01*
D37*
X84175000Y-89600000D02*
X85348087Y-89600000D01*
D38*
%TO.N,Net-(IC1-GND)*%
X70023053Y-83926017D02*
X67648053Y-83926017D01*
X71724032Y-85331971D02*
X72439032Y-85331971D01*
X72439032Y-85331971D02*
X71429007Y-85331971D01*
X72450000Y-91341253D02*
X71735000Y-91341253D01*
X84175000Y-91400000D02*
X85273087Y-91400000D01*
X72450000Y-91341253D02*
X72616253Y-91341253D01*
X71379032Y-85381946D02*
X71429007Y-85331971D01*
X71735000Y-91341253D02*
X71379032Y-90985285D01*
X72616253Y-91341253D02*
X73475000Y-92200000D01*
X71379032Y-90985285D02*
X71379032Y-85381946D01*
X71429007Y-85331971D02*
X70023053Y-83926017D01*
D37*
%TO.N,Net-(D1-A)*%
X87275000Y-91362500D02*
X89312500Y-93400000D01*
%TO.N,Net-(D2-K)*%
X106100000Y-87200000D02*
X112600000Y-87200000D01*
X99000000Y-76200000D02*
X99000000Y-81860000D01*
X104340000Y-87200000D02*
X99000000Y-81860000D01*
X106100000Y-87200000D02*
X104340000Y-87200000D01*
%TO.N,Net-(D2-A)*%
X95302500Y-78100000D02*
X95262500Y-78140000D01*
X97250000Y-78100000D02*
X95302500Y-78100000D01*
%TO.N,Net-(D3-A)*%
X97210000Y-76240000D02*
X97250000Y-76200000D01*
X95262500Y-76240000D02*
X97210000Y-76240000D01*
%TO.N,Net-(D4-A)*%
X95302500Y-81860000D02*
X95262500Y-81900000D01*
X97250000Y-81860000D02*
X95302500Y-81860000D01*
D38*
%TO.N,VSPLY*%
X84300400Y-69200000D02*
X107817322Y-69200000D01*
X78838087Y-74662313D02*
X84300400Y-69200000D01*
X78838087Y-74896187D02*
X78838087Y-74662313D01*
X107817322Y-69200000D02*
X110072322Y-71455000D01*
D37*
%TO.N,Net-(D6-A)*%
X97210000Y-80140000D02*
X97250000Y-80100000D01*
X95262500Y-80140000D02*
X97210000Y-80140000D01*
D38*
%TO.N,Net-(D7-K)*%
X72100000Y-79550000D02*
X72100000Y-81387500D01*
X72100000Y-81387500D02*
X72125000Y-81412500D01*
%TO.N,Net-(D8-K)*%
X74100000Y-79550000D02*
X74100000Y-81387500D01*
X74100000Y-81387500D02*
X74150000Y-81437500D01*
D37*
%TO.N,VBAT+PROTECT*%
X83276372Y-85823628D02*
X85400000Y-83700000D01*
X83115000Y-85823628D02*
X83276372Y-85823628D01*
X83115000Y-85823628D02*
X83115000Y-85146722D01*
X83115000Y-85146722D02*
X80554077Y-82585799D01*
D38*
%TO.N,Net-(IC1-OD)*%
X74059032Y-88867221D02*
X75139032Y-87787221D01*
X75139032Y-87787221D02*
X75139032Y-87231971D01*
X74059032Y-90965285D02*
X74059032Y-88867221D01*
X74059032Y-90965285D02*
X74435000Y-91341253D01*
%TO.N,Net-(IC1-CS)*%
X76235000Y-90761253D02*
X75865000Y-90391253D01*
X75865000Y-90391253D02*
X75150000Y-90391253D01*
X76235000Y-92702500D02*
X76235000Y-90761253D01*
X75637500Y-93300000D02*
X76235000Y-92702500D01*
%TO.N,Net-(IC1-OC)*%
X75854032Y-85331971D02*
X76199032Y-85676971D01*
X76199032Y-87836971D02*
X75150000Y-88886003D01*
X75139032Y-85331971D02*
X75854032Y-85331971D01*
X76199032Y-85676971D02*
X76199032Y-87836971D01*
X75150000Y-88886003D02*
X75150000Y-89441253D01*
D37*
%TO.N,Net-(U3-NEG_1)*%
X89600000Y-82425000D02*
X89075000Y-81900000D01*
X84675000Y-78475000D02*
X85200000Y-79000000D01*
X89600000Y-83200000D02*
X89600000Y-82425000D01*
X87187500Y-81900000D02*
X89075000Y-81900000D01*
X84675000Y-76827600D02*
X84675000Y-78475000D01*
%TO.N,Net-(U3-NEG_2)*%
X90900000Y-81900000D02*
X90900000Y-80140000D01*
X90900000Y-80140000D02*
X89755000Y-78995000D01*
X89755000Y-78995000D02*
X89755000Y-76827600D01*
%TO.N,Net-(U3-NEG3)*%
X87187500Y-80140000D02*
X89075000Y-80140000D01*
X89271000Y-72384000D02*
X89271000Y-79944000D01*
X89755000Y-71900000D02*
X89271000Y-72384000D01*
X89271000Y-79944000D02*
X89075000Y-80140000D01*
%TO.N,Net-(U3-NEG_4)*%
X84191000Y-72384000D02*
X84191000Y-79204000D01*
X83320000Y-80140000D02*
X83287500Y-80107500D01*
X84675000Y-71900000D02*
X84191000Y-72384000D01*
X84191000Y-79204000D02*
X83287500Y-80107500D01*
X85362500Y-80140000D02*
X83320000Y-80140000D01*
%TO.N,Net-(U1-CC2)*%
X93549275Y-90788112D02*
X93549275Y-92374275D01*
X94129275Y-90100000D02*
X94129275Y-90208112D01*
X93549275Y-92374275D02*
X94575000Y-93400000D01*
X94129275Y-90208112D02*
X93549275Y-90788112D01*
%TO.N,Net-(U1-CC1)*%
X92009275Y-87848823D02*
X92009275Y-86609275D01*
X91429275Y-88700000D02*
X91429275Y-88428823D01*
X92009275Y-86609275D02*
X91100000Y-85700000D01*
X91429275Y-88428823D02*
X92009275Y-87848823D01*
%TO.N,Net-(U3-OUT1)*%
X83405000Y-76827600D02*
X83405000Y-77995000D01*
X92200000Y-81900000D02*
X93437500Y-81900000D01*
X83405000Y-77995000D02*
X83000000Y-78400000D01*
%TO.N,Net-(U3-OUT2)*%
X93437500Y-76240000D02*
X92849900Y-76827600D01*
X92849900Y-76827600D02*
X91025000Y-76827600D01*
%TO.N,Net-(U3-OUT3)*%
X92340000Y-78140000D02*
X92240000Y-78140000D01*
X93437500Y-78140000D02*
X92340000Y-78140000D01*
X91100000Y-73700000D02*
X91100000Y-71975000D01*
X92240000Y-78140000D02*
X92200000Y-78100000D01*
X91100000Y-71975000D02*
X91025000Y-71900000D01*
%TO.N,Net-(U3-OUT4)*%
X83405000Y-73895000D02*
X83405000Y-71900000D01*
X93437500Y-80140000D02*
X93140000Y-80140000D01*
X93140000Y-80140000D02*
X92000000Y-79000000D01*
X83400000Y-73900000D02*
X83405000Y-73895000D01*
%TO.N,Net-(U5-PROG)*%
X80575000Y-91073628D02*
X80575000Y-91166029D01*
X80575000Y-91166029D02*
X79541029Y-92200000D01*
X78175000Y-92200000D02*
X77375000Y-91400000D01*
X79541029Y-92200000D02*
X78175000Y-92200000D01*
D38*
%TO.N,Net-(U5-~{CHRG})*%
X72175000Y-83287500D02*
X72125000Y-83237500D01*
D37*
X80775000Y-88100000D02*
X80775000Y-86023628D01*
D38*
X72175000Y-84300000D02*
X72175000Y-83287500D01*
D37*
X80775000Y-86023628D02*
X80575000Y-85823628D01*
D38*
%TO.N,Net-(U5-~{STDBY})*%
X81875000Y-85853628D02*
X81845000Y-85823628D01*
X74150000Y-84375000D02*
X74175000Y-84400000D01*
X74150000Y-83262500D02*
X74150000Y-84375000D01*
X81875000Y-87300000D02*
X81875000Y-85853628D01*
%TO.N,Net-(U7-FB)*%
X136250000Y-83452500D02*
X136250000Y-83012500D01*
X132295000Y-84445000D02*
X132000000Y-84150000D01*
X135257500Y-84445000D02*
X132295000Y-84445000D01*
X136012500Y-85200000D02*
X135257500Y-84445000D01*
X135257500Y-84445000D02*
X136250000Y-83452500D01*
%TD*%
%TA.AperFunction,Conductor*%
%TO.N,+12V*%
G36*
X137775000Y-81850000D02*
G01*
X133576000Y-81850000D01*
X133507879Y-81829998D01*
X133461386Y-81776342D01*
X133450000Y-81724000D01*
X133450000Y-80601000D01*
X133470002Y-80532879D01*
X133523658Y-80486386D01*
X133576000Y-80475000D01*
X137199999Y-80475000D01*
X137200000Y-80475000D01*
X137775000Y-80475000D01*
X137775000Y-81850000D01*
G37*
%TD.AperFunction*%
%TD*%
%TA.AperFunction,Conductor*%
%TO.N,VBUS*%
G36*
X88963717Y-88851541D02*
G01*
X88991936Y-88919667D01*
X89000449Y-88951440D01*
X89005111Y-88986857D01*
X89054369Y-89092492D01*
X89136782Y-89174905D01*
X89136783Y-89174905D01*
X89136784Y-89174906D01*
X89242416Y-89224163D01*
X89277833Y-89228825D01*
X89309601Y-89237336D01*
X89377734Y-89265558D01*
X89450046Y-89275078D01*
X89514973Y-89303800D01*
X89529116Y-89325242D01*
X89541309Y-89305764D01*
X89605534Y-89275505D01*
X89608475Y-89275081D01*
X89680816Y-89265558D01*
X89748951Y-89237335D01*
X89780706Y-89228827D01*
X89816134Y-89224163D01*
X89921766Y-89174906D01*
X90004181Y-89092491D01*
X90053438Y-88986859D01*
X90057032Y-88959554D01*
X90085755Y-88894627D01*
X90145020Y-88855535D01*
X90181955Y-88850000D01*
X90776595Y-88850000D01*
X90844716Y-88870002D01*
X90891209Y-88923658D01*
X90901517Y-88959554D01*
X90905111Y-88986857D01*
X90954369Y-89092492D01*
X91036782Y-89174905D01*
X91036783Y-89174905D01*
X91036784Y-89174906D01*
X91142416Y-89224163D01*
X91177833Y-89228825D01*
X91209601Y-89237336D01*
X91277734Y-89265558D01*
X91391228Y-89280500D01*
X91391235Y-89280500D01*
X91425000Y-89280500D01*
X91425000Y-90150000D01*
X90231865Y-90150000D01*
X90163744Y-90129998D01*
X90117251Y-90076342D01*
X90106943Y-90040446D01*
X90094833Y-89948460D01*
X90094833Y-89948459D01*
X90066611Y-89880326D01*
X90058100Y-89848556D01*
X90053438Y-89813142D01*
X90004180Y-89707507D01*
X89921767Y-89625094D01*
X89816132Y-89575836D01*
X89780716Y-89571174D01*
X89748944Y-89562661D01*
X89680816Y-89534442D01*
X89680815Y-89534442D01*
X89608501Y-89524921D01*
X89543576Y-89496200D01*
X89529432Y-89474757D01*
X89517240Y-89494236D01*
X89453015Y-89524495D01*
X89450062Y-89524919D01*
X89406192Y-89530695D01*
X89377733Y-89534442D01*
X89309605Y-89562661D01*
X89277834Y-89571174D01*
X89242417Y-89575836D01*
X89136782Y-89625094D01*
X89054369Y-89707507D01*
X89005111Y-89813142D01*
X89000449Y-89848559D01*
X88991936Y-89880330D01*
X88963717Y-89948458D01*
X88951607Y-90040446D01*
X88943766Y-90100000D01*
X88947715Y-90129998D01*
X88950349Y-90150000D01*
X87275000Y-90150000D01*
X87275000Y-88850000D01*
X88963514Y-88850000D01*
X88963717Y-88851541D01*
G37*
%TD.AperFunction*%
%TD*%
%TA.AperFunction,Conductor*%
%TO.N,VBUS*%
G36*
X85286621Y-88420002D02*
G01*
X85333114Y-88473658D01*
X85344500Y-88526000D01*
X85344500Y-88793500D01*
X85324498Y-88861621D01*
X85270842Y-88908114D01*
X85218501Y-88919500D01*
X85088166Y-88919500D01*
X85027053Y-88928403D01*
X85016631Y-88929922D01*
X85016628Y-88929923D01*
X85016629Y-88929923D01*
X84906294Y-88983862D01*
X84906292Y-88983863D01*
X84819450Y-89070705D01*
X84819449Y-89070707D01*
X84765509Y-89181041D01*
X84765507Y-89181049D01*
X84759451Y-89222617D01*
X84729837Y-89287142D01*
X84670038Y-89325413D01*
X84599042Y-89325279D01*
X84539543Y-89286962D01*
X84520996Y-89265558D01*
X84492896Y-89233128D01*
X84492895Y-89233127D01*
X84434777Y-89195777D01*
X84376659Y-89158427D01*
X84244085Y-89119500D01*
X84105915Y-89119500D01*
X83973343Y-89158426D01*
X83973339Y-89158428D01*
X83857104Y-89233127D01*
X83766621Y-89337550D01*
X83709223Y-89463234D01*
X83709221Y-89463241D01*
X83689559Y-89599996D01*
X83689559Y-89600003D01*
X83709221Y-89736758D01*
X83709223Y-89736765D01*
X83766621Y-89862449D01*
X83857104Y-89966872D01*
X83973341Y-90041573D01*
X84105915Y-90080500D01*
X84244085Y-90080500D01*
X84376659Y-90041573D01*
X84492896Y-89966872D01*
X84542664Y-89909436D01*
X84602386Y-89871054D01*
X84673383Y-89871053D01*
X84733109Y-89909436D01*
X84762569Y-89973782D01*
X84765507Y-89993950D01*
X84765508Y-89993953D01*
X84765509Y-89993956D01*
X84765510Y-89993958D01*
X84819449Y-90104292D01*
X84819450Y-90104294D01*
X84906292Y-90191136D01*
X84906294Y-90191137D01*
X85016631Y-90245078D01*
X85088164Y-90255500D01*
X85633009Y-90255499D01*
X85704543Y-90245078D01*
X85814880Y-90191137D01*
X85901724Y-90104293D01*
X85955665Y-89993956D01*
X85966087Y-89922423D01*
X85966086Y-89252578D01*
X85955665Y-89181044D01*
X85901724Y-89070707D01*
X85901723Y-89070705D01*
X85842405Y-89011387D01*
X85808379Y-88949075D01*
X85805500Y-88922292D01*
X85805500Y-88526000D01*
X85825502Y-88457879D01*
X85879158Y-88411386D01*
X85931500Y-88400000D01*
X88839587Y-88400000D01*
X88907708Y-88420002D01*
X88954201Y-88473658D01*
X88964509Y-88542447D01*
X88963717Y-88548457D01*
X88963717Y-88548459D01*
X88943766Y-88700000D01*
X88963717Y-88851541D01*
X88987150Y-88908114D01*
X88991936Y-88919667D01*
X89000449Y-88951440D01*
X89005111Y-88986857D01*
X89054369Y-89092492D01*
X89136782Y-89174905D01*
X89136783Y-89174905D01*
X89136784Y-89174906D01*
X89242416Y-89224163D01*
X89277833Y-89228825D01*
X89309601Y-89237336D01*
X89377734Y-89265558D01*
X89450046Y-89275078D01*
X89514973Y-89303800D01*
X89529116Y-89325242D01*
X89541309Y-89305764D01*
X89605534Y-89275505D01*
X89608475Y-89275081D01*
X89680816Y-89265558D01*
X89748951Y-89237335D01*
X89780706Y-89228827D01*
X89816134Y-89224163D01*
X89921766Y-89174906D01*
X90004181Y-89092491D01*
X90053438Y-88986859D01*
X90057032Y-88959554D01*
X90075000Y-88918939D01*
X90075000Y-89900577D01*
X90066613Y-89880330D01*
X90058100Y-89848556D01*
X90053438Y-89813142D01*
X90004180Y-89707507D01*
X89921767Y-89625094D01*
X89816132Y-89575836D01*
X89780716Y-89571174D01*
X89748944Y-89562661D01*
X89680816Y-89534442D01*
X89680815Y-89534442D01*
X89608501Y-89524921D01*
X89543576Y-89496200D01*
X89529432Y-89474757D01*
X89517240Y-89494236D01*
X89453015Y-89524495D01*
X89450062Y-89524919D01*
X89406192Y-89530695D01*
X89377733Y-89534442D01*
X89309605Y-89562661D01*
X89277834Y-89571174D01*
X89242417Y-89575836D01*
X89136782Y-89625094D01*
X89054369Y-89707507D01*
X89005111Y-89813142D01*
X89000449Y-89848559D01*
X88991936Y-89880330D01*
X88963717Y-89948458D01*
X88943766Y-90099999D01*
X88943766Y-90100000D01*
X88963717Y-90251541D01*
X88991936Y-90319667D01*
X89000449Y-90351440D01*
X89005111Y-90386857D01*
X89054369Y-90492492D01*
X89136782Y-90574905D01*
X89136783Y-90574905D01*
X89136784Y-90574906D01*
X89242416Y-90624163D01*
X89277833Y-90628825D01*
X89309601Y-90637336D01*
X89377734Y-90665558D01*
X89491228Y-90680500D01*
X89491235Y-90680500D01*
X89567315Y-90680500D01*
X89567322Y-90680500D01*
X89652329Y-90669308D01*
X89722476Y-90680247D01*
X89775575Y-90727375D01*
X89794765Y-90795729D01*
X89773954Y-90863607D01*
X89771319Y-90867445D01*
X89765324Y-90875841D01*
X89709552Y-90989925D01*
X89709551Y-90989927D01*
X89698774Y-91063898D01*
X89698719Y-91064659D01*
X89698555Y-91065399D01*
X89698118Y-91068402D01*
X89697899Y-91068370D01*
X89690863Y-91100220D01*
X89688323Y-91106916D01*
X89648775Y-91267370D01*
X89648775Y-91432629D01*
X89688323Y-91593081D01*
X89690861Y-91599773D01*
X89697898Y-91631629D01*
X89698118Y-91631598D01*
X89698555Y-91634603D01*
X89698719Y-91635342D01*
X89698773Y-91636100D01*
X89709551Y-91710072D01*
X89709551Y-91710073D01*
X89713749Y-91718659D01*
X89725699Y-91788643D01*
X89697916Y-91853977D01*
X89639221Y-91893920D01*
X89600553Y-91900000D01*
X88190666Y-91900000D01*
X88122545Y-91879998D01*
X88101571Y-91863095D01*
X87917404Y-91678928D01*
X87883378Y-91616616D01*
X87880499Y-91589833D01*
X87880499Y-91077579D01*
X87880499Y-91077577D01*
X87870078Y-91006044D01*
X87816137Y-90895707D01*
X87816136Y-90895705D01*
X87729294Y-90808863D01*
X87729292Y-90808862D01*
X87618957Y-90754922D01*
X87601072Y-90752316D01*
X87547423Y-90744500D01*
X87547420Y-90744500D01*
X87002579Y-90744500D01*
X86941466Y-90753403D01*
X86931044Y-90754922D01*
X86931041Y-90754923D01*
X86931042Y-90754923D01*
X86820707Y-90808862D01*
X86820705Y-90808863D01*
X86733863Y-90895705D01*
X86733862Y-90895707D01*
X86679922Y-91006041D01*
X86679922Y-91006043D01*
X86669500Y-91077575D01*
X86669500Y-91647420D01*
X86674320Y-91680500D01*
X86679922Y-91718956D01*
X86679923Y-91718959D01*
X86682811Y-91728304D01*
X86681494Y-91728710D01*
X86691727Y-91788644D01*
X86663943Y-91853979D01*
X86605248Y-91893920D01*
X86566581Y-91900000D01*
X86069007Y-91900000D01*
X86000886Y-91879998D01*
X85954393Y-91826342D01*
X85944289Y-91756068D01*
X85952833Y-91728322D01*
X85952776Y-91728305D01*
X85955662Y-91718961D01*
X85955665Y-91718956D01*
X85966087Y-91647423D01*
X85966086Y-90977578D01*
X85955665Y-90906044D01*
X85901724Y-90795707D01*
X85901723Y-90795705D01*
X85814881Y-90708863D01*
X85814879Y-90708862D01*
X85704544Y-90654922D01*
X85686659Y-90652316D01*
X85633010Y-90644500D01*
X85633007Y-90644500D01*
X85088166Y-90644500D01*
X85027052Y-90653403D01*
X85016631Y-90654922D01*
X85016628Y-90654923D01*
X85016629Y-90654923D01*
X84906294Y-90708862D01*
X84906292Y-90708863D01*
X84819450Y-90795705D01*
X84819449Y-90795707D01*
X84765509Y-90906041D01*
X84765509Y-90906043D01*
X84755087Y-90977575D01*
X84755087Y-90993500D01*
X84735085Y-91061621D01*
X84681429Y-91108114D01*
X84629087Y-91119500D01*
X84625280Y-91119500D01*
X84557159Y-91099498D01*
X84530056Y-91076012D01*
X84492898Y-91033129D01*
X84492896Y-91033128D01*
X84450748Y-91006041D01*
X84376659Y-90958427D01*
X84244085Y-90919500D01*
X84105915Y-90919500D01*
X83973343Y-90958426D01*
X83973339Y-90958428D01*
X83857104Y-91033127D01*
X83766621Y-91137550D01*
X83709223Y-91263234D01*
X83709221Y-91263241D01*
X83689559Y-91399996D01*
X83689559Y-91400003D01*
X83709221Y-91536758D01*
X83709223Y-91536765D01*
X83766621Y-91662449D01*
X83791783Y-91691488D01*
X83821276Y-91756069D01*
X83811171Y-91826343D01*
X83764678Y-91879998D01*
X83696558Y-91900000D01*
X82901000Y-91900000D01*
X82832879Y-91879998D01*
X82786386Y-91826342D01*
X82775000Y-91774000D01*
X82775000Y-90100001D01*
X82775000Y-90100000D01*
X82775000Y-90099999D01*
X82775000Y-88400000D01*
X85218500Y-88400000D01*
X85286621Y-88420002D01*
G37*
%TD.AperFunction*%
%TD*%
%TA.AperFunction,Conductor*%
%TO.N,+12V*%
G36*
X141550000Y-81887500D02*
G01*
X141550000Y-81887502D01*
X141550000Y-91374000D01*
X141529998Y-91442121D01*
X141476342Y-91488614D01*
X141424000Y-91500000D01*
X138151000Y-91500000D01*
X138082879Y-91479998D01*
X138036386Y-91426342D01*
X138025000Y-91374000D01*
X138025000Y-85438870D01*
X139267553Y-85438870D01*
X139275124Y-85476937D01*
X139303966Y-85520102D01*
X139303967Y-85520103D01*
X139347134Y-85548946D01*
X139385198Y-85556517D01*
X140910907Y-85556516D01*
X140948972Y-85548946D01*
X140992139Y-85520103D01*
X141020982Y-85476936D01*
X141028553Y-85438872D01*
X141028552Y-82413163D01*
X141020982Y-82375098D01*
X140992139Y-82331931D01*
X140948972Y-82303088D01*
X140929939Y-82299302D01*
X140910909Y-82295517D01*
X139385199Y-82295517D01*
X139347132Y-82303088D01*
X139303967Y-82331930D01*
X139275124Y-82375098D01*
X139267553Y-82413157D01*
X139267553Y-85438870D01*
X138025000Y-85438870D01*
X138025000Y-81975001D01*
X138025000Y-81975000D01*
X138025000Y-81750000D01*
X141550000Y-81750000D01*
X141550000Y-81887500D01*
G37*
%TD.AperFunction*%
%TD*%
%TA.AperFunction,Conductor*%
%TO.N,Net-(D10-A)*%
G36*
X131525000Y-80599997D02*
G01*
X131525000Y-80599998D01*
X131525000Y-82099000D01*
X131504998Y-82167121D01*
X131451342Y-82213614D01*
X131399000Y-82225000D01*
X130701000Y-82225000D01*
X130632879Y-82204998D01*
X130586386Y-82151342D01*
X130575000Y-82099000D01*
X130575000Y-80600001D01*
X130575000Y-80600000D01*
X130575000Y-80325000D01*
X131525000Y-80325000D01*
X131525000Y-80599997D01*
G37*
%TD.AperFunction*%
%TD*%
%TA.AperFunction,Conductor*%
%TO.N,VBUS*%
G36*
X83275000Y-90000000D02*
G01*
X80575000Y-90000000D01*
X80575000Y-88542060D01*
X80705915Y-88580500D01*
X80844085Y-88580500D01*
X80976659Y-88541573D01*
X81092896Y-88466872D01*
X81113158Y-88443487D01*
X81172884Y-88405104D01*
X81208383Y-88400000D01*
X83275000Y-88400000D01*
X83275000Y-90000000D01*
G37*
%TD.AperFunction*%
%TD*%
%TA.AperFunction,Conductor*%
%TO.N,VBAT+PROTECT*%
G36*
X86772621Y-70820002D02*
G01*
X86819114Y-70873658D01*
X86830500Y-70926000D01*
X86830500Y-72903453D01*
X86838071Y-72941520D01*
X86866913Y-72984685D01*
X86866914Y-72984686D01*
X86910081Y-73013529D01*
X86948145Y-73021100D01*
X87481854Y-73021099D01*
X87519919Y-73013529D01*
X87563086Y-72984686D01*
X87591929Y-72941519D01*
X87599500Y-72903455D01*
X87599499Y-70925999D01*
X87619501Y-70857879D01*
X87673157Y-70811386D01*
X87725499Y-70800000D01*
X88749000Y-70800000D01*
X88817121Y-70820002D01*
X88863614Y-70873658D01*
X88875000Y-70926000D01*
X88875000Y-77824000D01*
X88854998Y-77892121D01*
X88801342Y-77938614D01*
X88749000Y-77950000D01*
X85701000Y-77950000D01*
X85632879Y-77929998D01*
X85586386Y-77876342D01*
X85575000Y-77824000D01*
X85575000Y-70926000D01*
X85595002Y-70857879D01*
X85648658Y-70811386D01*
X85701000Y-70800000D01*
X86704500Y-70800000D01*
X86772621Y-70820002D01*
G37*
%TD.AperFunction*%
%TD*%
%TA.AperFunction,Conductor*%
%TO.N,Net-(D10-A)*%
G36*
X137092121Y-73695002D02*
G01*
X137138614Y-73748658D01*
X137150000Y-73801000D01*
X137150000Y-80213500D01*
X137129998Y-80281621D01*
X137076342Y-80328114D01*
X137024000Y-80339500D01*
X133576000Y-80339500D01*
X133575995Y-80339500D01*
X133575983Y-80339501D01*
X133547212Y-80342593D01*
X133547204Y-80342594D01*
X133494854Y-80353982D01*
X133434924Y-80383981D01*
X133434922Y-80383982D01*
X133391507Y-80421602D01*
X133383313Y-80427291D01*
X133373785Y-80442119D01*
X133320130Y-80488613D01*
X133267786Y-80500000D01*
X130201000Y-80500000D01*
X130132879Y-80479998D01*
X130086386Y-80426342D01*
X130075000Y-80374000D01*
X130075000Y-73801000D01*
X130095002Y-73732879D01*
X130148658Y-73686386D01*
X130201000Y-73675000D01*
X137024000Y-73675000D01*
X137092121Y-73695002D01*
G37*
%TD.AperFunction*%
%TD*%
%TA.AperFunction,Conductor*%
%TO.N,VBUS*%
G36*
X77087514Y-73570002D02*
G01*
X77134007Y-73623658D01*
X77144111Y-73693931D01*
X77139500Y-73726001D01*
X77139500Y-78500000D01*
X71601000Y-78500000D01*
X71532879Y-78479998D01*
X71486386Y-78426342D01*
X71475000Y-78374000D01*
X71475000Y-73676000D01*
X71495002Y-73607879D01*
X71548658Y-73561386D01*
X71601000Y-73550000D01*
X77019393Y-73550000D01*
X77087514Y-73570002D01*
G37*
%TD.AperFunction*%
%TD*%
%TA.AperFunction,Conductor*%
%TO.N,+12V*%
G36*
X141517121Y-76770002D02*
G01*
X141563614Y-76823658D01*
X141575000Y-76876000D01*
X141575000Y-81805131D01*
X141560539Y-81854379D01*
X141563252Y-81855503D01*
X141555177Y-81875000D01*
X137369869Y-81875000D01*
X137320620Y-81860539D01*
X137319497Y-81863252D01*
X137300000Y-81855176D01*
X137300000Y-76876000D01*
X137320002Y-76807879D01*
X137373658Y-76761386D01*
X137426000Y-76750000D01*
X141449000Y-76750000D01*
X141517121Y-76770002D01*
G37*
%TD.AperFunction*%
%TD*%
%TA.AperFunction,Conductor*%
%TO.N,V_SWITCH*%
G36*
X132450000Y-83074000D02*
G01*
X132429998Y-83142121D01*
X132376342Y-83188614D01*
X132324000Y-83200000D01*
X130600000Y-83200000D01*
X130600000Y-82349496D01*
X130651942Y-82351816D01*
X130662811Y-82355007D01*
X130662825Y-82355011D01*
X130700996Y-82360499D01*
X130700998Y-82360500D01*
X130701000Y-82360500D01*
X131398993Y-82360500D01*
X131399000Y-82360500D01*
X131411085Y-82359200D01*
X131427787Y-82357406D01*
X131427795Y-82357405D01*
X131427797Y-82357404D01*
X131427802Y-82357404D01*
X131480144Y-82346018D01*
X131522132Y-82325000D01*
X132450000Y-82325000D01*
X132450000Y-83074000D01*
G37*
%TD.AperFunction*%
%TD*%
%TA.AperFunction,Conductor*%
%TO.N,VBUS*%
G36*
X80147059Y-84820002D02*
G01*
X80193552Y-84873658D01*
X80203656Y-84943932D01*
X80194202Y-84976894D01*
X80147220Y-85083296D01*
X80144500Y-85106742D01*
X80144500Y-86540513D01*
X80147220Y-86563959D01*
X80189580Y-86659895D01*
X80189581Y-86659897D01*
X80263730Y-86734046D01*
X80263732Y-86734047D01*
X80263733Y-86734048D01*
X80359667Y-86776407D01*
X80383115Y-86779127D01*
X80383117Y-86779128D01*
X80383120Y-86779128D01*
X80418500Y-86779128D01*
X80486621Y-86799130D01*
X80533114Y-86852786D01*
X80544500Y-86905128D01*
X80544500Y-87608160D01*
X80524498Y-87676281D01*
X80486624Y-87714156D01*
X80457105Y-87733127D01*
X80457101Y-87733131D01*
X80366621Y-87837550D01*
X80309223Y-87963234D01*
X80309221Y-87963241D01*
X80289559Y-88099996D01*
X80289559Y-88100003D01*
X80309221Y-88236758D01*
X80309223Y-88236765D01*
X80366621Y-88362449D01*
X80457104Y-88466872D01*
X80573341Y-88541573D01*
X80705915Y-88580500D01*
X80844084Y-88580500D01*
X80844085Y-88580500D01*
X80875000Y-88571422D01*
X80875000Y-90000000D01*
X79101000Y-90000000D01*
X79032879Y-89979998D01*
X78986386Y-89926342D01*
X78975000Y-89874000D01*
X78975000Y-86300001D01*
X78975000Y-86300000D01*
X78975000Y-86200000D01*
X79125000Y-86200000D01*
X79125000Y-84800000D01*
X79225000Y-84800000D01*
X79225001Y-84800000D01*
X80078938Y-84800000D01*
X80147059Y-84820002D01*
G37*
%TD.AperFunction*%
%TD*%
%TA.AperFunction,Conductor*%
%TO.N,V_SWITCH*%
G36*
X129721530Y-82352421D02*
G01*
X129724079Y-82352928D01*
X129724081Y-82352929D01*
X129762145Y-82360500D01*
X130437854Y-82360499D01*
X130475919Y-82352929D01*
X130475920Y-82352928D01*
X130478476Y-82352420D01*
X130503053Y-82350000D01*
X130587500Y-82350000D01*
X130611274Y-82350000D01*
X130624999Y-82350612D01*
X130624999Y-83300000D01*
X130625000Y-83300000D01*
X130625000Y-85099000D01*
X130604998Y-85167121D01*
X130551342Y-85213614D01*
X130499000Y-85225000D01*
X125501000Y-85225000D01*
X125432879Y-85204998D01*
X125386386Y-85151342D01*
X125375000Y-85099000D01*
X125375000Y-82419869D01*
X125389460Y-82370620D01*
X125386748Y-82369497D01*
X125394822Y-82350000D01*
X129600001Y-82350000D01*
X129696948Y-82350000D01*
X129721530Y-82352421D01*
G37*
%TD.AperFunction*%
%TD*%
%TA.AperFunction,Conductor*%
%TO.N,V_SWITCH*%
G36*
X129500000Y-80731000D02*
G01*
X129479998Y-80799121D01*
X129426342Y-80845614D01*
X129374000Y-80857000D01*
X128892531Y-80857000D01*
X128824410Y-80836998D01*
X128779334Y-80786339D01*
X128741137Y-80708207D01*
X128741136Y-80708205D01*
X128654294Y-80621363D01*
X128654292Y-80621362D01*
X128543957Y-80567422D01*
X128526072Y-80564816D01*
X128472423Y-80557000D01*
X128472420Y-80557000D01*
X127927579Y-80557000D01*
X127866465Y-80565903D01*
X127856044Y-80567422D01*
X127856041Y-80567423D01*
X127856042Y-80567423D01*
X127745707Y-80621362D01*
X127745705Y-80621363D01*
X127658863Y-80708205D01*
X127658862Y-80708207D01*
X127604922Y-80818541D01*
X127604922Y-80818543D01*
X127594500Y-80890075D01*
X127594500Y-81559920D01*
X127594501Y-81559924D01*
X127604922Y-81631456D01*
X127604923Y-81631458D01*
X127658862Y-81741792D01*
X127658863Y-81741794D01*
X127745705Y-81828636D01*
X127745707Y-81828637D01*
X127856044Y-81882578D01*
X127927577Y-81893000D01*
X128472422Y-81892999D01*
X128543956Y-81882578D01*
X128654293Y-81828637D01*
X128741137Y-81741793D01*
X128795078Y-81631456D01*
X128805500Y-81559923D01*
X128805500Y-81543999D01*
X128825502Y-81475879D01*
X128879158Y-81429386D01*
X128931500Y-81418000D01*
X129374000Y-81418000D01*
X129442121Y-81438002D01*
X129488614Y-81491658D01*
X129500000Y-81544000D01*
X129500000Y-82350000D01*
X125400000Y-82350000D01*
X125400000Y-73675000D01*
X129500000Y-73675000D01*
X129500000Y-80731000D01*
G37*
%TD.AperFunction*%
%TD*%
%TA.AperFunction,Conductor*%
%TO.N,V_SWITCH*%
G36*
X129442121Y-69745002D02*
G01*
X129488614Y-69798658D01*
X129500000Y-69850999D01*
X129500000Y-73675000D01*
X116326000Y-73675000D01*
X116257879Y-73654998D01*
X116211386Y-73601342D01*
X116200000Y-73549000D01*
X116200000Y-69851000D01*
X116220002Y-69782879D01*
X116273658Y-69736386D01*
X116326000Y-69725000D01*
X129374000Y-69725000D01*
X129442121Y-69745002D01*
G37*
%TD.AperFunction*%
%TD*%
%TA.AperFunction,Conductor*%
%TO.N,VSPLY*%
G36*
X80567121Y-73620002D02*
G01*
X80613614Y-73673658D01*
X80625000Y-73726000D01*
X80625000Y-81374000D01*
X80604998Y-81442121D01*
X80551342Y-81488614D01*
X80499000Y-81500000D01*
X77401000Y-81500000D01*
X77332879Y-81479998D01*
X77286386Y-81426342D01*
X77275000Y-81374000D01*
X77275000Y-73726000D01*
X77295002Y-73657879D01*
X77348658Y-73611386D01*
X77401000Y-73600000D01*
X80499000Y-73600000D01*
X80567121Y-73620002D01*
G37*
%TD.AperFunction*%
%TD*%
%TA.AperFunction,Conductor*%
%TO.N,V_SWITCH*%
G36*
X132392121Y-80655502D02*
G01*
X132438614Y-80709158D01*
X132450000Y-80761500D01*
X132450000Y-83074000D01*
X132429998Y-83142121D01*
X132392053Y-83175000D01*
X131550000Y-83175000D01*
X131550000Y-82307417D01*
X131583494Y-82278394D01*
X131591687Y-82272706D01*
X131593731Y-82269525D01*
X131593732Y-82269525D01*
X131635009Y-82205296D01*
X131655011Y-82137175D01*
X131660500Y-82099000D01*
X131660500Y-80761499D01*
X131680502Y-80693379D01*
X131734158Y-80646886D01*
X131786500Y-80635500D01*
X132324000Y-80635500D01*
X132392121Y-80655502D01*
G37*
%TD.AperFunction*%
%TD*%
%TA.AperFunction,Conductor*%
%TO.N,VBUS*%
G36*
X77139500Y-81373992D02*
G01*
X77139501Y-81374016D01*
X77142593Y-81402787D01*
X77142594Y-81402795D01*
X77153982Y-81455145D01*
X77183980Y-81515073D01*
X77221602Y-81558491D01*
X77227292Y-81566687D01*
X77265153Y-81591018D01*
X77294704Y-81610009D01*
X77362825Y-81630011D01*
X77400996Y-81635499D01*
X77400998Y-81635500D01*
X78999000Y-81635500D01*
X79067121Y-81655502D01*
X79113614Y-81709158D01*
X79125000Y-81761500D01*
X79125000Y-86200000D01*
X76605532Y-86200000D01*
X76537411Y-86179998D01*
X76490918Y-86126342D01*
X76479532Y-86074000D01*
X76479532Y-85735981D01*
X76480137Y-85727264D01*
X76481652Y-85716400D01*
X76481654Y-85716395D01*
X76479599Y-85671938D01*
X76479532Y-85669028D01*
X76479532Y-85650979D01*
X76479531Y-85650972D01*
X76479139Y-85648874D01*
X76478131Y-85640192D01*
X76477816Y-85633395D01*
X76476811Y-85611638D01*
X76476810Y-85611636D01*
X76476295Y-85600489D01*
X76475000Y-85589319D01*
X76475000Y-78600001D01*
X76475000Y-78600000D01*
X76475000Y-76650000D01*
X77139500Y-76650000D01*
X77139500Y-81373992D01*
G37*
%TD.AperFunction*%
%TD*%
%TA.AperFunction,Conductor*%
%TO.N,VBAT-PROTECT*%
G36*
X89590813Y-89659262D02*
G01*
X89629000Y-89664289D01*
X89660768Y-89672802D01*
X89701189Y-89689545D01*
X89701187Y-89689543D01*
X89701190Y-89689545D01*
X89709591Y-89692396D01*
X89709599Y-89692398D01*
X89709600Y-89692399D01*
X89749943Y-89703208D01*
X89749940Y-89703207D01*
X89755844Y-89704381D01*
X89758628Y-89704934D01*
X89758507Y-89704919D01*
X89795346Y-89715650D01*
X89822715Y-89728412D01*
X89858559Y-89753512D01*
X89875760Y-89770713D01*
X89900860Y-89806559D01*
X89913623Y-89833930D01*
X89924344Y-89870690D01*
X89924338Y-89870643D01*
X89924644Y-89872503D01*
X89916730Y-89941181D01*
X89913719Y-89948451D01*
X89913717Y-89948458D01*
X89893766Y-90099999D01*
X89893766Y-90100000D01*
X89913717Y-90251541D01*
X89941936Y-90319667D01*
X89950449Y-90351440D01*
X89955111Y-90386857D01*
X89962844Y-90403441D01*
X89973504Y-90473633D01*
X89944523Y-90538445D01*
X89885102Y-90577300D01*
X89814108Y-90577862D01*
X89794947Y-90570672D01*
X89743356Y-90546366D01*
X89743354Y-90546365D01*
X89743352Y-90546364D01*
X89743347Y-90546363D01*
X89673212Y-90535426D01*
X89673203Y-90535425D01*
X89634647Y-90534966D01*
X89562536Y-90544460D01*
X89554304Y-90545000D01*
X89504249Y-90545000D01*
X89496017Y-90544460D01*
X89429552Y-90535710D01*
X89397782Y-90527198D01*
X89383503Y-90521283D01*
X89357356Y-90510453D01*
X89357348Y-90510450D01*
X89357345Y-90510449D01*
X89357344Y-90510449D01*
X89348955Y-90507601D01*
X89348954Y-90507600D01*
X89308624Y-90496795D01*
X89299916Y-90495063D01*
X89299988Y-90495073D01*
X89263202Y-90484347D01*
X89235832Y-90471584D01*
X89199990Y-90446486D01*
X89182787Y-90429283D01*
X89157687Y-90393438D01*
X89154618Y-90386857D01*
X89144925Y-90366070D01*
X89134193Y-90329223D01*
X89134208Y-90329338D01*
X89134212Y-90329363D01*
X89133855Y-90327570D01*
X89132481Y-90320657D01*
X89132295Y-90319964D01*
X89121672Y-90280318D01*
X89121672Y-90280316D01*
X89118819Y-90271911D01*
X89102078Y-90231498D01*
X89093563Y-90199721D01*
X89092238Y-90189658D01*
X89088756Y-90163208D01*
X89087152Y-90151020D01*
X89087152Y-90151008D01*
X89082601Y-90116447D01*
X89082600Y-90083554D01*
X89093564Y-90000270D01*
X89102075Y-89968508D01*
X89118819Y-89928085D01*
X89118818Y-89928089D01*
X89119802Y-89925186D01*
X89121671Y-89919684D01*
X89132480Y-89879344D01*
X89133545Y-89873992D01*
X89134209Y-89870652D01*
X89134209Y-89870655D01*
X89134198Y-89870736D01*
X89144926Y-89833927D01*
X89157687Y-89806560D01*
X89182784Y-89770716D01*
X89199991Y-89753509D01*
X89235835Y-89728412D01*
X89263202Y-89715651D01*
X89300011Y-89704923D01*
X89299930Y-89704934D01*
X89299927Y-89704934D01*
X89308611Y-89703207D01*
X89308614Y-89703206D01*
X89308614Y-89703205D01*
X89308619Y-89703205D01*
X89348959Y-89692396D01*
X89354461Y-89690527D01*
X89357364Y-89689543D01*
X89357360Y-89689544D01*
X89397783Y-89672800D01*
X89429548Y-89664288D01*
X89460002Y-89660279D01*
X89468536Y-89659156D01*
X89469469Y-89659021D01*
X89472273Y-89658619D01*
X89493434Y-89652270D01*
X89563692Y-89651648D01*
X89590813Y-89659262D01*
G37*
%TD.AperFunction*%
%TA.AperFunction,Conductor*%
G36*
X89758640Y-89704937D02*
G01*
X89758634Y-89704936D01*
X89758636Y-89704936D01*
X89758640Y-89704937D01*
G37*
%TD.AperFunction*%
%TA.AperFunction,Conductor*%
G36*
X82938532Y-71062719D02*
G01*
X82995368Y-71105266D01*
X83020179Y-71171786D01*
X83020500Y-71180775D01*
X83020500Y-72903453D01*
X83028071Y-72941520D01*
X83056913Y-72984685D01*
X83056914Y-72984686D01*
X83065418Y-72990368D01*
X83110399Y-73020423D01*
X83109209Y-73022203D01*
X83151992Y-73056673D01*
X83174419Y-73124034D01*
X83174500Y-73128544D01*
X83174500Y-73404946D01*
X83154498Y-73473067D01*
X83116623Y-73510943D01*
X83082104Y-73533127D01*
X82991621Y-73637550D01*
X82934223Y-73763234D01*
X82934221Y-73763241D01*
X82914559Y-73899996D01*
X82914559Y-73900003D01*
X82934221Y-74036758D01*
X82934223Y-74036765D01*
X82991621Y-74162449D01*
X83082104Y-74266872D01*
X83198341Y-74341573D01*
X83330915Y-74380500D01*
X83469085Y-74380500D01*
X83601659Y-74341573D01*
X83717896Y-74266872D01*
X83739275Y-74242198D01*
X83799002Y-74203815D01*
X83869998Y-74203815D01*
X83929724Y-74242198D01*
X83959217Y-74306779D01*
X83960500Y-74324711D01*
X83960500Y-75646137D01*
X83940498Y-75714258D01*
X83886842Y-75760751D01*
X83816568Y-75770855D01*
X83765060Y-75747331D01*
X83763405Y-75749809D01*
X83753086Y-75742914D01*
X83709919Y-75714071D01*
X83690887Y-75710285D01*
X83671856Y-75706500D01*
X83138146Y-75706500D01*
X83100079Y-75714071D01*
X83056914Y-75742913D01*
X83028071Y-75786081D01*
X83020500Y-75824140D01*
X83020500Y-77798872D01*
X83000498Y-77866993D01*
X82946842Y-77913486D01*
X82929999Y-77919768D01*
X82798341Y-77958427D01*
X82798339Y-77958428D01*
X82682104Y-78033127D01*
X82591621Y-78137550D01*
X82534223Y-78263234D01*
X82534221Y-78263241D01*
X82514559Y-78399996D01*
X82514559Y-78400003D01*
X82534221Y-78536758D01*
X82534223Y-78536765D01*
X82591621Y-78662449D01*
X82682104Y-78766872D01*
X82798341Y-78841573D01*
X82930915Y-78880500D01*
X83069085Y-78880500D01*
X83201659Y-78841573D01*
X83317896Y-78766872D01*
X83408379Y-78662449D01*
X83465777Y-78536765D01*
X83473370Y-78483954D01*
X83485441Y-78400003D01*
X83485441Y-78399998D01*
X83478324Y-78350502D01*
X83474371Y-78323008D01*
X83484474Y-78252735D01*
X83509990Y-78215984D01*
X83562564Y-78163410D01*
X83564921Y-78161175D01*
X83584686Y-78143379D01*
X83595645Y-78133512D01*
X83604164Y-78114374D01*
X83613590Y-78097014D01*
X83624998Y-78079450D01*
X83625319Y-78077416D01*
X83634663Y-78045871D01*
X83635500Y-78043994D01*
X83635500Y-78043991D01*
X83638253Y-78031042D01*
X83642607Y-78031967D01*
X83655439Y-77988121D01*
X83700343Y-77949139D01*
X83699599Y-77948025D01*
X83708403Y-77942142D01*
X83709052Y-77941579D01*
X83709610Y-77941335D01*
X83709918Y-77941129D01*
X83709919Y-77941129D01*
X83753086Y-77912286D01*
X83753085Y-77912286D01*
X83763404Y-77905392D01*
X83765728Y-77908870D01*
X83807717Y-77885942D01*
X83878532Y-77891007D01*
X83935368Y-77933554D01*
X83960179Y-78000074D01*
X83960500Y-78009063D01*
X83960500Y-79056331D01*
X83940498Y-79124452D01*
X83923595Y-79145426D01*
X83616426Y-79452595D01*
X83554114Y-79486621D01*
X83527331Y-79489500D01*
X83015079Y-79489500D01*
X82959517Y-79497595D01*
X82943544Y-79499922D01*
X82943541Y-79499923D01*
X82943542Y-79499923D01*
X82833207Y-79553862D01*
X82833205Y-79553863D01*
X82746363Y-79640705D01*
X82746362Y-79640707D01*
X82692422Y-79751041D01*
X82692422Y-79751043D01*
X82682000Y-79822575D01*
X82682000Y-80392420D01*
X82685116Y-80413808D01*
X82692422Y-80463956D01*
X82717412Y-80515073D01*
X82746362Y-80574292D01*
X82746363Y-80574294D01*
X82833205Y-80661136D01*
X82833207Y-80661137D01*
X82943544Y-80715078D01*
X83015077Y-80725500D01*
X83559922Y-80725499D01*
X83631456Y-80715078D01*
X83741793Y-80661137D01*
X83828637Y-80574293D01*
X83882578Y-80463956D01*
X83884016Y-80459303D01*
X83923236Y-80400123D01*
X83988226Y-80371542D01*
X84004400Y-80370500D01*
X84629420Y-80370500D01*
X84697541Y-80390502D01*
X84744034Y-80444158D01*
X84754103Y-80478339D01*
X84754922Y-80483956D01*
X84781892Y-80539124D01*
X84808862Y-80594292D01*
X84808863Y-80594294D01*
X84895705Y-80681136D01*
X84895707Y-80681137D01*
X85006044Y-80735078D01*
X85077577Y-80745500D01*
X85647422Y-80745499D01*
X85705339Y-80737061D01*
X85775627Y-80747033D01*
X85829370Y-80793425D01*
X85849500Y-80861508D01*
X85849500Y-81178253D01*
X85829498Y-81246374D01*
X85775842Y-81292867D01*
X85705568Y-81302971D01*
X85705336Y-81302937D01*
X85658241Y-81296076D01*
X85647423Y-81294500D01*
X85647422Y-81294500D01*
X85077579Y-81294500D01*
X85019670Y-81302937D01*
X85006044Y-81304922D01*
X85006041Y-81304923D01*
X85006042Y-81304923D01*
X84895707Y-81358862D01*
X84895705Y-81358863D01*
X84808863Y-81445705D01*
X84808862Y-81445707D01*
X84754922Y-81556041D01*
X84754922Y-81556043D01*
X84744500Y-81627575D01*
X84744500Y-82139830D01*
X84724498Y-82207951D01*
X84707595Y-82228925D01*
X84380864Y-82555656D01*
X84318552Y-82589682D01*
X84247737Y-82584617D01*
X84223649Y-82572559D01*
X84201659Y-82558427D01*
X84069085Y-82519500D01*
X83930915Y-82519500D01*
X83798343Y-82558426D01*
X83798339Y-82558428D01*
X83682104Y-82633127D01*
X83591621Y-82737550D01*
X83534223Y-82863234D01*
X83534221Y-82863241D01*
X83514559Y-82999996D01*
X83514559Y-83000003D01*
X83534221Y-83136758D01*
X83534223Y-83136765D01*
X83591621Y-83262449D01*
X83682104Y-83366872D01*
X83798341Y-83441573D01*
X83930915Y-83480500D01*
X84069085Y-83480500D01*
X84201659Y-83441573D01*
X84317896Y-83366872D01*
X84408379Y-83262449D01*
X84465777Y-83136765D01*
X84465777Y-83136761D01*
X84468157Y-83131551D01*
X84493671Y-83094803D01*
X85046073Y-82542401D01*
X85108383Y-82508378D01*
X85135166Y-82505499D01*
X85647418Y-82505499D01*
X85647422Y-82505499D01*
X85705339Y-82497061D01*
X85775627Y-82507033D01*
X85829370Y-82553425D01*
X85849500Y-82621508D01*
X85849500Y-82872333D01*
X85829498Y-82940454D01*
X85812599Y-82961423D01*
X85745671Y-83028352D01*
X85716427Y-83057596D01*
X85654115Y-83091621D01*
X85627332Y-83094500D01*
X85077579Y-83094500D01*
X85016466Y-83103403D01*
X85006044Y-83104922D01*
X85006041Y-83104923D01*
X85006042Y-83104923D01*
X84895707Y-83158862D01*
X84895705Y-83158863D01*
X84808863Y-83245705D01*
X84808862Y-83245707D01*
X84754922Y-83356041D01*
X84754922Y-83356043D01*
X84744500Y-83427575D01*
X84744500Y-83427583D01*
X84744501Y-83976981D01*
X84742350Y-83976981D01*
X84729040Y-84037824D01*
X84707619Y-84066403D01*
X83718158Y-85055864D01*
X83655846Y-85089890D01*
X83585031Y-85084825D01*
X83528195Y-85042278D01*
X83513801Y-85017666D01*
X83500420Y-84987361D01*
X83500419Y-84987360D01*
X83500419Y-84987359D01*
X83426269Y-84913209D01*
X83426267Y-84913208D01*
X83330331Y-84870848D01*
X83330332Y-84870848D01*
X83306885Y-84868128D01*
X83306880Y-84868128D01*
X83214572Y-84868128D01*
X83146451Y-84848126D01*
X83125477Y-84831223D01*
X81021482Y-82727227D01*
X80987456Y-82664915D01*
X80984577Y-82638132D01*
X80984577Y-81956416D01*
X80984576Y-81956413D01*
X80981856Y-81932967D01*
X80975571Y-81918732D01*
X80939497Y-81837032D01*
X80939496Y-81837031D01*
X80939495Y-81837029D01*
X80865346Y-81762880D01*
X80865344Y-81762879D01*
X80820087Y-81742896D01*
X80769410Y-81720520D01*
X80769409Y-81720519D01*
X80760740Y-81716692D01*
X80761873Y-81714124D01*
X80714068Y-81684725D01*
X80683300Y-81620742D01*
X80692008Y-81550281D01*
X80701631Y-81532232D01*
X80735009Y-81480296D01*
X80755011Y-81412175D01*
X80760500Y-81374000D01*
X80760500Y-73726000D01*
X80757706Y-73700003D01*
X80757406Y-73697212D01*
X80757405Y-73697204D01*
X80756861Y-73694703D01*
X80746018Y-73644856D01*
X80716018Y-73584925D01*
X80678398Y-73541509D01*
X80672707Y-73533312D01*
X80616174Y-73496982D01*
X80569680Y-73443327D01*
X80559575Y-73373053D01*
X80589068Y-73308472D01*
X80595185Y-73301901D01*
X82805407Y-71091678D01*
X82867717Y-71057655D01*
X82938532Y-71062719D01*
G37*
%TD.AperFunction*%
%TA.AperFunction,Conductor*%
G36*
X140847335Y-65900480D02*
G01*
X140847402Y-65900500D01*
X140898357Y-65900500D01*
X140901639Y-65900586D01*
X140944783Y-65902836D01*
X141031509Y-65907360D01*
X141215738Y-65917672D01*
X141221981Y-65918337D01*
X141371891Y-65941970D01*
X141535511Y-65969643D01*
X141541185Y-65970876D01*
X141692237Y-66011158D01*
X141847781Y-66055755D01*
X141852840Y-66057443D01*
X142000765Y-66113944D01*
X142148903Y-66174996D01*
X142153360Y-66177040D01*
X142295614Y-66249139D01*
X142356094Y-66282384D01*
X142435413Y-66325986D01*
X142439241Y-66328269D01*
X142573830Y-66415172D01*
X142684249Y-66493054D01*
X142703991Y-66506979D01*
X142707174Y-66509378D01*
X142831218Y-66609193D01*
X142833511Y-66611132D01*
X142951507Y-66715879D01*
X142954071Y-66718287D01*
X142987864Y-66751839D01*
X143067113Y-66830524D01*
X143069495Y-66833025D01*
X143175099Y-66950290D01*
X143177052Y-66952565D01*
X143248715Y-67040334D01*
X143277754Y-67075899D01*
X143280177Y-67079065D01*
X143372910Y-67208566D01*
X143460775Y-67342538D01*
X143463086Y-67346348D01*
X143540925Y-67485587D01*
X143614041Y-67627331D01*
X143616126Y-67631794D01*
X143678224Y-67779471D01*
X143735771Y-67926963D01*
X143737515Y-67932070D01*
X143783215Y-68087273D01*
X143824560Y-68237982D01*
X143825847Y-68243704D01*
X143854695Y-68407169D01*
X143879379Y-68556789D01*
X143880095Y-68563082D01*
X143891952Y-68751086D01*
X143899389Y-68876427D01*
X143899500Y-68880160D01*
X143899500Y-91898356D01*
X143899414Y-91901638D01*
X143892642Y-92031456D01*
X143882328Y-92215715D01*
X143881658Y-92222009D01*
X143858039Y-92371822D01*
X143830361Y-92535483D01*
X143829115Y-92541214D01*
X143788846Y-92692219D01*
X143744254Y-92847744D01*
X143742547Y-92852862D01*
X143686060Y-93000753D01*
X143625009Y-93148888D01*
X143622956Y-93153365D01*
X143550864Y-93295607D01*
X143474012Y-93435413D01*
X143471729Y-93439240D01*
X143384830Y-93573826D01*
X143293019Y-93703991D01*
X143290619Y-93707175D01*
X143190835Y-93831182D01*
X143188866Y-93833511D01*
X143084119Y-93951507D01*
X143081711Y-93954071D01*
X142969490Y-94067098D01*
X142966942Y-94069525D01*
X142849721Y-94175088D01*
X142847407Y-94177074D01*
X142724099Y-94277754D01*
X142720933Y-94280176D01*
X142591433Y-94372910D01*
X142457460Y-94460776D01*
X142453650Y-94463086D01*
X142314412Y-94540925D01*
X142172667Y-94614041D01*
X142168204Y-94616126D01*
X142020528Y-94678224D01*
X141873035Y-94735771D01*
X141867929Y-94737515D01*
X141712726Y-94783215D01*
X141562016Y-94824560D01*
X141556294Y-94825847D01*
X141392830Y-94854695D01*
X141243208Y-94879379D01*
X141236915Y-94880095D01*
X141048922Y-94891952D01*
X140923574Y-94899388D01*
X140919841Y-94899499D01*
X66911644Y-94898180D01*
X66908362Y-94898094D01*
X66776539Y-94891217D01*
X66594468Y-94881037D01*
X66588171Y-94880366D01*
X66436479Y-94856452D01*
X66274712Y-94829093D01*
X66268982Y-94827847D01*
X66116776Y-94787258D01*
X65962459Y-94743011D01*
X65957342Y-94741304D01*
X65808523Y-94684462D01*
X65661353Y-94623809D01*
X65656875Y-94621755D01*
X65513850Y-94549266D01*
X65374834Y-94472849D01*
X65371007Y-94470566D01*
X65235774Y-94383247D01*
X65106259Y-94291896D01*
X65103075Y-94289496D01*
X64978491Y-94189246D01*
X64976162Y-94187277D01*
X64858754Y-94083051D01*
X64856189Y-94080643D01*
X64742664Y-93967925D01*
X64740237Y-93965377D01*
X64635167Y-93848704D01*
X64633182Y-93846389D01*
X64532052Y-93722531D01*
X64529629Y-93719364D01*
X64437362Y-93590513D01*
X64408459Y-93546443D01*
X64349076Y-93455900D01*
X64346772Y-93452100D01*
X64269350Y-93313604D01*
X64195854Y-93171121D01*
X64193768Y-93166658D01*
X64191038Y-93160166D01*
X64164018Y-93095907D01*
X64132062Y-93019908D01*
X64101889Y-92942576D01*
X64074142Y-92871458D01*
X64072423Y-92866424D01*
X64027078Y-92712425D01*
X63985393Y-92560471D01*
X63984109Y-92554757D01*
X63969174Y-92470124D01*
X63955616Y-92393298D01*
X63930603Y-92241678D01*
X63929890Y-92235413D01*
X63918371Y-92052759D01*
X63912491Y-91953636D01*
X63910609Y-91921910D01*
X63910498Y-91918208D01*
X63910497Y-91916136D01*
X63907365Y-85438870D01*
X66767553Y-85438870D01*
X66775124Y-85476937D01*
X66803966Y-85520102D01*
X66803967Y-85520103D01*
X66847134Y-85548946D01*
X66885198Y-85556517D01*
X68410907Y-85556516D01*
X68448972Y-85548946D01*
X68492139Y-85520103D01*
X68520982Y-85476936D01*
X68528553Y-85438872D01*
X68528553Y-84332517D01*
X68548555Y-84264396D01*
X68602211Y-84217903D01*
X68654553Y-84206517D01*
X69854676Y-84206517D01*
X69922797Y-84226519D01*
X69943771Y-84243422D01*
X71061627Y-85361278D01*
X71095653Y-85423590D01*
X71098532Y-85450373D01*
X71098532Y-90926271D01*
X71097927Y-90934985D01*
X71096410Y-90945860D01*
X71098465Y-90990316D01*
X71098532Y-90993226D01*
X71098532Y-91011278D01*
X71098533Y-91011288D01*
X71098929Y-91013410D01*
X71099932Y-91022067D01*
X71101252Y-91050616D01*
X71101253Y-91050621D01*
X71103384Y-91055446D01*
X71111972Y-91083175D01*
X71112943Y-91088369D01*
X71127993Y-91112675D01*
X71132064Y-91120399D01*
X71137766Y-91133314D01*
X71143610Y-91146549D01*
X71143612Y-91146552D01*
X71147337Y-91150277D01*
X71165366Y-91173036D01*
X71168149Y-91177530D01*
X71172073Y-91180493D01*
X71190960Y-91194756D01*
X71197550Y-91200490D01*
X71494923Y-91497862D01*
X71500656Y-91504451D01*
X71507277Y-91513217D01*
X71507279Y-91513220D01*
X71523386Y-91527904D01*
X71560252Y-91588577D01*
X71564500Y-91621016D01*
X71564500Y-91679105D01*
X71572071Y-91717173D01*
X71599636Y-91758427D01*
X71600914Y-91760339D01*
X71644081Y-91789182D01*
X71682145Y-91796753D01*
X72622875Y-91796752D01*
X72690996Y-91816754D01*
X72711970Y-91833657D01*
X72956117Y-92077804D01*
X72990143Y-92140116D01*
X72991740Y-92184828D01*
X72989559Y-92199999D01*
X72989559Y-92200003D01*
X73009221Y-92336758D01*
X73009223Y-92336765D01*
X73066621Y-92462449D01*
X73157104Y-92566872D01*
X73273341Y-92641573D01*
X73405915Y-92680500D01*
X73544085Y-92680500D01*
X73676659Y-92641573D01*
X73792896Y-92566872D01*
X73883379Y-92462449D01*
X73940777Y-92336765D01*
X73943805Y-92315703D01*
X73960441Y-92200003D01*
X73960441Y-92199996D01*
X73940778Y-92063241D01*
X73940777Y-92063240D01*
X73940777Y-92063235D01*
X73883379Y-91937551D01*
X73792896Y-91833128D01*
X73792895Y-91833127D01*
X73700891Y-91774000D01*
X73676659Y-91758427D01*
X73669946Y-91756456D01*
X73544085Y-91719500D01*
X73511500Y-91719500D01*
X73443379Y-91699498D01*
X73396886Y-91645842D01*
X73385500Y-91593500D01*
X73385499Y-91003399D01*
X73383476Y-90993226D01*
X73377929Y-90965334D01*
X73377928Y-90965332D01*
X73377927Y-90965329D01*
X73358499Y-90936253D01*
X73337284Y-90868500D01*
X73356067Y-90800034D01*
X73358486Y-90796270D01*
X73377929Y-90767172D01*
X73385500Y-90729108D01*
X73385499Y-90729100D01*
X73386106Y-90722951D01*
X73388645Y-90723200D01*
X73405454Y-90665809D01*
X73440299Y-90629902D01*
X73445004Y-90626677D01*
X73445013Y-90626674D01*
X73448742Y-90622944D01*
X73471507Y-90604912D01*
X73475992Y-90602136D01*
X73493227Y-90579311D01*
X73498944Y-90572741D01*
X73563439Y-90508246D01*
X73625750Y-90474223D01*
X73696565Y-90479289D01*
X73753401Y-90521836D01*
X73778211Y-90588356D01*
X73778532Y-90597344D01*
X73778532Y-90906271D01*
X73777927Y-90914985D01*
X73776410Y-90925860D01*
X73778465Y-90970316D01*
X73778532Y-90973226D01*
X73778532Y-90991278D01*
X73778533Y-90991288D01*
X73778929Y-90993410D01*
X73779932Y-91002067D01*
X73781252Y-91030616D01*
X73781253Y-91030621D01*
X73783384Y-91035446D01*
X73791972Y-91063175D01*
X73792943Y-91068369D01*
X73807993Y-91092675D01*
X73812064Y-91100399D01*
X73817023Y-91111631D01*
X73823610Y-91126549D01*
X73823612Y-91126552D01*
X73827337Y-91130277D01*
X73845366Y-91153036D01*
X73848147Y-91157527D01*
X73848149Y-91157530D01*
X73870964Y-91174759D01*
X73877546Y-91180486D01*
X74071052Y-91373992D01*
X74227596Y-91530536D01*
X74261621Y-91592848D01*
X74264500Y-91619629D01*
X74264500Y-91679105D01*
X74272071Y-91717173D01*
X74299636Y-91758427D01*
X74300914Y-91760339D01*
X74344081Y-91789182D01*
X74382145Y-91796753D01*
X75828500Y-91796752D01*
X75896621Y-91816754D01*
X75943114Y-91870410D01*
X75954500Y-91922752D01*
X75954500Y-92534121D01*
X75934498Y-92602242D01*
X75917595Y-92623216D01*
X75823216Y-92717595D01*
X75760904Y-92751621D01*
X75734121Y-92754500D01*
X75202579Y-92754500D01*
X75141466Y-92763403D01*
X75131044Y-92764922D01*
X75131041Y-92764923D01*
X75131042Y-92764923D01*
X75020707Y-92818862D01*
X75020705Y-92818863D01*
X74933863Y-92905705D01*
X74933862Y-92905707D01*
X74879922Y-93016041D01*
X74879922Y-93016043D01*
X74869500Y-93087575D01*
X74869500Y-93632420D01*
X74869501Y-93632424D01*
X74879922Y-93703956D01*
X74899478Y-93743958D01*
X74933862Y-93814292D01*
X74933863Y-93814294D01*
X75020705Y-93901136D01*
X75020707Y-93901137D01*
X75131044Y-93955078D01*
X75202577Y-93965500D01*
X75772422Y-93965499D01*
X75843956Y-93955078D01*
X75954293Y-93901137D01*
X76041137Y-93814293D01*
X76095078Y-93703956D01*
X76105500Y-93632423D01*
X76105499Y-93280875D01*
X76125501Y-93212756D01*
X76142399Y-93191786D01*
X76391623Y-92942562D01*
X76398200Y-92936840D01*
X76406959Y-92930224D01*
X76406967Y-92930221D01*
X76436973Y-92897304D01*
X76438924Y-92895261D01*
X76451724Y-92882463D01*
X76452937Y-92880691D01*
X76458347Y-92873857D01*
X76477617Y-92852722D01*
X76479523Y-92847800D01*
X76493068Y-92822107D01*
X76496045Y-92817762D01*
X76502590Y-92789926D01*
X76505169Y-92781597D01*
X76515500Y-92754935D01*
X76515500Y-92749662D01*
X76518847Y-92720815D01*
X76520055Y-92715678D01*
X76516105Y-92687359D01*
X76515500Y-92678645D01*
X76515500Y-90820263D01*
X76516105Y-90811546D01*
X76517620Y-90800682D01*
X76517622Y-90800677D01*
X76515567Y-90756220D01*
X76515500Y-90753310D01*
X76515500Y-90735264D01*
X76515500Y-90735260D01*
X76515105Y-90733152D01*
X76514099Y-90724493D01*
X76512779Y-90695920D01*
X76510646Y-90691090D01*
X76502057Y-90663350D01*
X76501089Y-90658169D01*
X76486038Y-90633861D01*
X76481965Y-90626134D01*
X76470420Y-90599985D01*
X76466693Y-90596258D01*
X76448662Y-90573496D01*
X76445882Y-90569007D01*
X76423065Y-90551776D01*
X76416482Y-90546048D01*
X76122403Y-90251970D01*
X76088378Y-90189658D01*
X76085499Y-90162875D01*
X76085499Y-90053399D01*
X76085499Y-90053398D01*
X76077929Y-90015334D01*
X76077928Y-90015332D01*
X76077927Y-90015329D01*
X76058499Y-89986253D01*
X76037284Y-89918500D01*
X76056067Y-89850034D01*
X76058486Y-89846270D01*
X76077929Y-89817172D01*
X76085500Y-89779108D01*
X76085499Y-89103399D01*
X76077929Y-89065334D01*
X76049086Y-89022167D01*
X76005919Y-88993324D01*
X75998306Y-88991809D01*
X75967859Y-88985753D01*
X75967855Y-88985753D01*
X75751126Y-88985753D01*
X75683005Y-88965751D01*
X75636512Y-88912095D01*
X75626408Y-88841821D01*
X75655902Y-88777241D01*
X75662016Y-88770672D01*
X76355655Y-88077033D01*
X76362232Y-88071311D01*
X76370991Y-88064695D01*
X76370999Y-88064692D01*
X76401005Y-88031775D01*
X76402956Y-88029732D01*
X76415755Y-88016935D01*
X76416965Y-88015167D01*
X76422389Y-88008319D01*
X76441649Y-87987193D01*
X76443553Y-87982276D01*
X76457101Y-87956577D01*
X76457162Y-87956487D01*
X76460077Y-87952233D01*
X76466624Y-87924392D01*
X76469200Y-87916073D01*
X76479532Y-87889406D01*
X76479532Y-87884128D01*
X76482879Y-87855280D01*
X76484086Y-87850150D01*
X76480137Y-87821836D01*
X76479532Y-87813122D01*
X76479532Y-86461500D01*
X76499534Y-86393379D01*
X76553190Y-86346886D01*
X76605532Y-86335500D01*
X78713500Y-86335500D01*
X78781621Y-86355502D01*
X78828114Y-86409158D01*
X78839500Y-86461500D01*
X78839500Y-89873992D01*
X78839501Y-89874016D01*
X78842593Y-89902787D01*
X78842594Y-89902795D01*
X78853982Y-89955145D01*
X78883980Y-90015073D01*
X78921602Y-90058491D01*
X78927292Y-90066687D01*
X78968628Y-90093251D01*
X78994704Y-90110009D01*
X79062825Y-90130011D01*
X79100996Y-90135499D01*
X79100998Y-90135500D01*
X79101000Y-90135500D01*
X80041186Y-90135500D01*
X80109307Y-90155502D01*
X80155800Y-90209158D01*
X80165904Y-90279432D01*
X80156450Y-90312394D01*
X80147220Y-90333296D01*
X80144500Y-90356742D01*
X80144500Y-91218362D01*
X80124498Y-91286483D01*
X80107595Y-91307457D01*
X79482457Y-91932595D01*
X79420145Y-91966621D01*
X79393362Y-91969500D01*
X78322666Y-91969500D01*
X78254545Y-91949498D01*
X78233571Y-91932595D01*
X78017404Y-91716428D01*
X77983378Y-91654116D01*
X77980499Y-91627333D01*
X77980499Y-91115079D01*
X77980499Y-91115077D01*
X77970078Y-91043544D01*
X77916137Y-90933207D01*
X77916136Y-90933205D01*
X77829294Y-90846363D01*
X77829292Y-90846362D01*
X77718957Y-90792422D01*
X77701072Y-90789816D01*
X77647423Y-90782000D01*
X77647420Y-90782000D01*
X77102579Y-90782000D01*
X77041465Y-90790903D01*
X77031044Y-90792422D01*
X77031041Y-90792423D01*
X77031042Y-90792423D01*
X76920707Y-90846362D01*
X76920705Y-90846363D01*
X76833863Y-90933205D01*
X76833862Y-90933207D01*
X76779922Y-91043541D01*
X76779922Y-91043543D01*
X76769500Y-91115075D01*
X76769500Y-91684920D01*
X76774199Y-91717172D01*
X76779922Y-91756456D01*
X76795921Y-91789182D01*
X76833862Y-91866792D01*
X76833863Y-91866794D01*
X76920705Y-91953636D01*
X76920707Y-91953637D01*
X77031044Y-92007578D01*
X77102577Y-92018000D01*
X77614831Y-92017999D01*
X77682952Y-92038001D01*
X77703926Y-92054904D01*
X78006580Y-92357557D01*
X78008851Y-92359951D01*
X78036486Y-92390644D01*
X78036488Y-92390645D01*
X78055615Y-92399160D01*
X78072977Y-92408586D01*
X78090550Y-92419998D01*
X78092583Y-92420320D01*
X78124126Y-92429663D01*
X78126006Y-92430500D01*
X78146939Y-92430500D01*
X78166648Y-92432051D01*
X78187333Y-92435327D01*
X78188249Y-92435081D01*
X78189328Y-92434793D01*
X78221936Y-92430500D01*
X79533332Y-92430500D01*
X79536604Y-92430585D01*
X79577893Y-92432749D01*
X79597437Y-92425245D01*
X79616399Y-92419628D01*
X79636876Y-92415277D01*
X79638538Y-92414068D01*
X79667458Y-92398366D01*
X79669373Y-92397632D01*
X79684177Y-92382827D01*
X79699205Y-92369991D01*
X79716151Y-92357681D01*
X79717184Y-92355891D01*
X79737205Y-92329798D01*
X80084250Y-91982753D01*
X80146560Y-91948729D01*
X80217375Y-91953794D01*
X80262434Y-91982750D01*
X80263730Y-91984046D01*
X80263732Y-91984047D01*
X80263733Y-91984048D01*
X80359667Y-92026407D01*
X80383115Y-92029127D01*
X80383117Y-92029128D01*
X80383120Y-92029128D01*
X80766883Y-92029128D01*
X80766883Y-92029127D01*
X80790333Y-92026407D01*
X80886267Y-91984048D01*
X80960420Y-91909895D01*
X81002779Y-91813961D01*
X81005500Y-91790508D01*
X81005500Y-90356748D01*
X81002779Y-90333295D01*
X80993549Y-90312393D01*
X80984332Y-90241999D01*
X81014636Y-90177795D01*
X81074841Y-90140166D01*
X81108814Y-90135500D01*
X82513500Y-90135500D01*
X82581621Y-90155502D01*
X82628114Y-90209158D01*
X82639500Y-90261500D01*
X82639500Y-91773992D01*
X82639501Y-91774016D01*
X82642593Y-91802787D01*
X82642594Y-91802795D01*
X82653982Y-91855145D01*
X82683980Y-91915073D01*
X82721602Y-91958491D01*
X82727292Y-91966687D01*
X82752295Y-91982755D01*
X82794704Y-92010009D01*
X82862825Y-92030011D01*
X82900996Y-92035499D01*
X82900998Y-92035500D01*
X82901000Y-92035500D01*
X83696560Y-92035500D01*
X83696560Y-92035499D01*
X83734733Y-92030011D01*
X83802853Y-92010009D01*
X83867081Y-91968732D01*
X83913574Y-91915077D01*
X83913574Y-91915076D01*
X83919475Y-91908267D01*
X83921158Y-91909725D01*
X83965445Y-91871341D01*
X84035718Y-91861227D01*
X84053292Y-91865048D01*
X84105915Y-91880500D01*
X84105916Y-91880500D01*
X84244085Y-91880500D01*
X84376659Y-91841573D01*
X84492896Y-91766872D01*
X84501922Y-91756456D01*
X84530056Y-91723988D01*
X84589782Y-91685604D01*
X84625280Y-91680500D01*
X84668056Y-91680500D01*
X84736177Y-91700502D01*
X84781253Y-91751161D01*
X84819449Y-91829292D01*
X84819450Y-91829294D01*
X84906292Y-91916136D01*
X84906294Y-91916137D01*
X85016631Y-91970078D01*
X85088164Y-91980500D01*
X85633009Y-91980499D01*
X85704543Y-91970078D01*
X85752125Y-91946816D01*
X85822105Y-91934868D01*
X85875580Y-91954015D01*
X85922314Y-91984048D01*
X85962711Y-92010009D01*
X86030832Y-92030011D01*
X86069003Y-92035499D01*
X86069005Y-92035500D01*
X86069007Y-92035500D01*
X86566578Y-92035500D01*
X86566581Y-92035500D01*
X86573756Y-92034939D01*
X86587621Y-92033856D01*
X86587618Y-92033856D01*
X86587620Y-92033855D01*
X86587628Y-92033855D01*
X86626295Y-92027775D01*
X86681478Y-92005943D01*
X86732036Y-91971538D01*
X86749076Y-91961793D01*
X86765747Y-91953914D01*
X86765942Y-91954328D01*
X86787936Y-91939359D01*
X86858908Y-91937485D01*
X86881953Y-91946079D01*
X86914097Y-91961793D01*
X86931044Y-91970078D01*
X87002577Y-91980500D01*
X87514833Y-91980499D01*
X87582954Y-92000501D01*
X87603928Y-92017404D01*
X88620118Y-93033595D01*
X88654144Y-93095907D01*
X88656101Y-93123018D01*
X88657000Y-93123018D01*
X88657000Y-93672420D01*
X88661595Y-93703956D01*
X88667422Y-93743956D01*
X88694303Y-93798941D01*
X88721362Y-93854292D01*
X88721363Y-93854294D01*
X88808205Y-93941136D01*
X88808207Y-93941137D01*
X88918544Y-93995078D01*
X88990077Y-94005500D01*
X89634922Y-94005499D01*
X89706456Y-93995078D01*
X89816793Y-93941137D01*
X89903637Y-93854293D01*
X89957578Y-93743956D01*
X89968000Y-93672423D01*
X89967999Y-93127578D01*
X89957578Y-93056044D01*
X89903637Y-92945707D01*
X89903636Y-92945705D01*
X89816794Y-92858863D01*
X89816792Y-92858862D01*
X89706457Y-92804922D01*
X89634924Y-92794500D01*
X89634923Y-92794500D01*
X89085167Y-92794500D01*
X89017046Y-92774498D01*
X88996072Y-92757595D01*
X88489072Y-92250595D01*
X88455046Y-92188283D01*
X88460111Y-92117468D01*
X88502658Y-92060632D01*
X88569178Y-92035821D01*
X88578167Y-92035500D01*
X89600550Y-92035500D01*
X89600553Y-92035500D01*
X89607728Y-92034939D01*
X89621593Y-92033856D01*
X89621590Y-92033856D01*
X89621592Y-92033855D01*
X89621600Y-92033855D01*
X89660268Y-92027775D01*
X89715454Y-92005942D01*
X89774149Y-91965999D01*
X89774151Y-91965996D01*
X89774152Y-91965996D01*
X89809673Y-91922752D01*
X89822610Y-91907003D01*
X89850393Y-91841669D01*
X89850393Y-91841668D01*
X89850394Y-91841656D01*
X89850691Y-91840202D01*
X89850817Y-91838036D01*
X89859266Y-91765836D01*
X89859266Y-91765835D01*
X89847318Y-91695860D01*
X89847316Y-91695856D01*
X89847316Y-91695852D01*
X89845255Y-91689460D01*
X89840491Y-91668959D01*
X89837449Y-91648083D01*
X89838563Y-91640226D01*
X89833149Y-91615718D01*
X89832922Y-91614808D01*
X89832700Y-91613684D01*
X89832424Y-91612434D01*
X89832064Y-91610462D01*
X89831698Y-91608607D01*
X89828819Y-91588849D01*
X89828334Y-91588202D01*
X89823332Y-91571274D01*
X89823171Y-91570545D01*
X89822928Y-91569609D01*
X89822162Y-91566161D01*
X89820731Y-91562369D01*
X89820519Y-91561660D01*
X89818728Y-91555657D01*
X89817939Y-91552755D01*
X89787935Y-91431027D01*
X89784274Y-91400873D01*
X89784274Y-91299123D01*
X89787935Y-91268969D01*
X89817938Y-91147246D01*
X89818729Y-91144337D01*
X89820742Y-91137591D01*
X89821652Y-91136189D01*
X89823010Y-91130064D01*
X89823153Y-91129514D01*
X89823173Y-91129449D01*
X89823316Y-91128800D01*
X89827303Y-91121553D01*
X89830903Y-91096845D01*
X89830912Y-91096807D01*
X89831593Y-91092117D01*
X89832424Y-91087569D01*
X89836268Y-91070169D01*
X89836130Y-91069694D01*
X89837446Y-91051935D01*
X89837747Y-91049872D01*
X89849227Y-91012731D01*
X89878037Y-90953798D01*
X89883435Y-90944552D01*
X89883255Y-90944448D01*
X89885654Y-90940309D01*
X89885661Y-90940300D01*
X89903502Y-90903326D01*
X89924313Y-90835448D01*
X89925221Y-90759104D01*
X89915566Y-90724716D01*
X89916412Y-90653725D01*
X89955504Y-90594459D01*
X90020431Y-90565737D01*
X90090126Y-90576464D01*
X90192416Y-90624163D01*
X90227833Y-90628825D01*
X90259601Y-90637336D01*
X90327734Y-90665558D01*
X90381620Y-90672652D01*
X90446547Y-90701374D01*
X90460399Y-90715062D01*
X90471602Y-90727991D01*
X90477292Y-90736187D01*
X90512953Y-90759104D01*
X90544704Y-90779509D01*
X90612825Y-90799511D01*
X90650996Y-90804999D01*
X90650998Y-90805000D01*
X90651000Y-90805000D01*
X91258428Y-90805000D01*
X91266027Y-90805460D01*
X91306223Y-90810339D01*
X91345468Y-90815103D01*
X91374961Y-90822373D01*
X91394366Y-90829732D01*
X91416175Y-90838005D01*
X91416179Y-90838006D01*
X91439806Y-90844593D01*
X91484487Y-90852781D01*
X91498361Y-90854041D01*
X91501703Y-90854437D01*
X91529375Y-90858469D01*
X91566542Y-90869952D01*
X91604718Y-90888615D01*
X91638474Y-90912717D01*
X91666555Y-90940798D01*
X91690658Y-90974556D01*
X91709313Y-91012717D01*
X91720791Y-91049838D01*
X91721093Y-91051905D01*
X91719982Y-91059755D01*
X91726126Y-91087569D01*
X91726951Y-91092074D01*
X91729726Y-91111124D01*
X91730109Y-91111631D01*
X91735246Y-91128929D01*
X91736212Y-91133314D01*
X91737728Y-91137333D01*
X91738573Y-91140165D01*
X91739810Y-91144310D01*
X91740608Y-91147241D01*
X91770613Y-91268973D01*
X91774275Y-91299128D01*
X91774275Y-91323992D01*
X91774276Y-91324016D01*
X91777368Y-91352787D01*
X91777369Y-91352795D01*
X91788757Y-91405145D01*
X91818755Y-91465073D01*
X91856377Y-91508491D01*
X91862067Y-91516687D01*
X91903403Y-91543251D01*
X91929479Y-91560009D01*
X91997600Y-91580011D01*
X92035771Y-91585499D01*
X92035773Y-91585500D01*
X93192775Y-91585500D01*
X93260896Y-91605502D01*
X93307389Y-91659158D01*
X93318775Y-91711500D01*
X93318775Y-92366578D01*
X93318689Y-92369850D01*
X93316526Y-92411139D01*
X93321046Y-92422915D01*
X93324030Y-92430687D01*
X93329643Y-92449636D01*
X93332344Y-92462345D01*
X93333998Y-92470124D01*
X93335210Y-92471791D01*
X93350903Y-92500693D01*
X93351640Y-92502614D01*
X93351644Y-92502620D01*
X93366441Y-92517417D01*
X93379282Y-92532451D01*
X93391594Y-92549397D01*
X93393378Y-92550427D01*
X93419478Y-92570454D01*
X93920095Y-93071071D01*
X93954121Y-93133383D01*
X93957000Y-93160166D01*
X93957000Y-93672420D01*
X93961595Y-93703956D01*
X93967422Y-93743956D01*
X93994303Y-93798941D01*
X94021362Y-93854292D01*
X94021363Y-93854294D01*
X94108205Y-93941136D01*
X94108207Y-93941137D01*
X94218544Y-93995078D01*
X94290077Y-94005500D01*
X94859922Y-94005499D01*
X94931456Y-93995078D01*
X95041793Y-93941137D01*
X95128637Y-93854293D01*
X95182578Y-93743956D01*
X95193000Y-93672423D01*
X95192999Y-93127578D01*
X95182578Y-93056044D01*
X95128637Y-92945707D01*
X95128636Y-92945705D01*
X95041794Y-92858863D01*
X95041792Y-92858862D01*
X94931457Y-92804922D01*
X94859924Y-92794500D01*
X94859923Y-92794500D01*
X94347667Y-92794500D01*
X94279546Y-92774498D01*
X94258572Y-92757595D01*
X93816680Y-92315703D01*
X93782654Y-92253391D01*
X93779775Y-92226608D01*
X93779775Y-90935778D01*
X93799777Y-90867657D01*
X93816674Y-90846688D01*
X93951535Y-90711827D01*
X94013843Y-90677805D01*
X94057071Y-90676003D01*
X94091228Y-90680500D01*
X94091235Y-90680500D01*
X94167315Y-90680500D01*
X94167322Y-90680500D01*
X94280816Y-90665558D01*
X94348880Y-90637364D01*
X94419469Y-90629776D01*
X94482956Y-90661555D01*
X94496537Y-90677805D01*
X94502402Y-90684574D01*
X94502403Y-90684575D01*
X94528820Y-90715062D01*
X94540023Y-90727991D01*
X94545713Y-90736187D01*
X94581374Y-90759104D01*
X94613125Y-90779509D01*
X94681246Y-90799511D01*
X94719417Y-90804999D01*
X94719419Y-90805000D01*
X94719421Y-90805000D01*
X95258427Y-90805000D01*
X95266026Y-90805460D01*
X95352661Y-90815977D01*
X95360910Y-90817542D01*
X95393459Y-90825993D01*
X95393465Y-90825994D01*
X95393473Y-90825996D01*
X95447141Y-90833863D01*
X95447144Y-90833862D01*
X95447146Y-90833863D01*
X95514140Y-90826753D01*
X95514142Y-90826752D01*
X95514146Y-90826752D01*
X95580666Y-90801941D01*
X95583214Y-90800034D01*
X95595775Y-90790630D01*
X95641786Y-90756187D01*
X95684333Y-90699351D01*
X95710014Y-90630500D01*
X95711014Y-90627819D01*
X95711014Y-90627818D01*
X95711015Y-90627816D01*
X95716080Y-90557001D01*
X95716080Y-90556998D01*
X95699849Y-90482393D01*
X95696138Y-90475597D01*
X95694340Y-90472040D01*
X95674402Y-90429283D01*
X95644924Y-90366068D01*
X95634192Y-90329216D01*
X95634209Y-90329344D01*
X95633916Y-90327570D01*
X95641824Y-90258804D01*
X95644833Y-90251540D01*
X95648293Y-90225263D01*
X95664784Y-90100000D01*
X95644833Y-89948459D01*
X95641821Y-89941189D01*
X95633910Y-89872461D01*
X95634209Y-89870649D01*
X95634198Y-89870736D01*
X95644926Y-89833927D01*
X95657687Y-89806560D01*
X95682784Y-89770716D01*
X95699991Y-89753509D01*
X95735835Y-89728412D01*
X95763202Y-89715651D01*
X95800011Y-89704923D01*
X95799930Y-89704934D01*
X95799927Y-89704934D01*
X95802690Y-89704384D01*
X95808619Y-89703205D01*
X95848960Y-89692396D01*
X95857361Y-89689544D01*
X95857364Y-89689542D01*
X95857369Y-89689541D01*
X95857367Y-89689542D01*
X95907298Y-89668857D01*
X95918689Y-89664139D01*
X95921483Y-89663059D01*
X95924777Y-89661874D01*
X95924795Y-89661869D01*
X95947183Y-89653820D01*
X95990075Y-89628714D01*
X96033493Y-89591092D01*
X96041687Y-89585402D01*
X96043731Y-89582221D01*
X96043732Y-89582221D01*
X96085009Y-89517992D01*
X96105011Y-89449871D01*
X96110500Y-89411696D01*
X96110500Y-89385480D01*
X96110265Y-89379840D01*
X96108285Y-89356130D01*
X96095134Y-89308197D01*
X96095131Y-89308190D01*
X96064113Y-89244340D01*
X96064111Y-89244336D01*
X96012753Y-89187843D01*
X95999592Y-89179822D01*
X95999587Y-89179817D01*
X95962921Y-89157470D01*
X95958121Y-89152191D01*
X95955082Y-89150932D01*
X95937723Y-89142113D01*
X95933686Y-89139652D01*
X95927762Y-89139370D01*
X95920736Y-89136700D01*
X95888362Y-89123280D01*
X95888226Y-89123239D01*
X95857360Y-89110454D01*
X95857359Y-89110453D01*
X95857355Y-89110452D01*
X95853709Y-89109214D01*
X95848962Y-89107603D01*
X95848956Y-89107601D01*
X95848952Y-89107600D01*
X95831280Y-89102865D01*
X95808623Y-89096795D01*
X95808624Y-89096795D01*
X95799916Y-89095063D01*
X95799988Y-89095073D01*
X95763202Y-89084347D01*
X95735832Y-89071584D01*
X95699990Y-89046486D01*
X95682787Y-89029283D01*
X95657687Y-88993436D01*
X95643826Y-88963710D01*
X95634669Y-88936158D01*
X95634263Y-88934209D01*
X95639952Y-88863440D01*
X95641209Y-88860289D01*
X95641431Y-88859753D01*
X95644833Y-88851541D01*
X95664784Y-88700000D01*
X95662765Y-88684668D01*
X95644833Y-88548460D01*
X95644833Y-88548459D01*
X95616611Y-88480326D01*
X95608100Y-88448556D01*
X95603438Y-88413142D01*
X95590280Y-88384925D01*
X95554181Y-88307509D01*
X95554180Y-88307508D01*
X95554180Y-88307507D01*
X95471767Y-88225094D01*
X95366132Y-88175836D01*
X95330716Y-88171174D01*
X95298944Y-88162661D01*
X95230816Y-88134442D01*
X95117324Y-88119500D01*
X95117322Y-88119500D01*
X95041228Y-88119500D01*
X95041225Y-88119500D01*
X94927733Y-88134442D01*
X94859605Y-88162661D01*
X94827834Y-88171174D01*
X94792417Y-88175836D01*
X94686782Y-88225094D01*
X94604369Y-88307507D01*
X94555111Y-88413142D01*
X94550449Y-88448559D01*
X94541936Y-88480330D01*
X94513717Y-88548458D01*
X94506280Y-88604947D01*
X94477557Y-88669874D01*
X94418292Y-88708965D01*
X94381358Y-88714500D01*
X93927192Y-88714500D01*
X93859071Y-88694498D01*
X93812578Y-88640842D01*
X93802270Y-88604947D01*
X93794833Y-88548460D01*
X93794833Y-88548459D01*
X93766611Y-88480326D01*
X93758100Y-88448556D01*
X93753438Y-88413142D01*
X93740280Y-88384925D01*
X93704181Y-88307509D01*
X93704180Y-88307508D01*
X93704180Y-88307507D01*
X93621767Y-88225094D01*
X93516132Y-88175836D01*
X93480716Y-88171174D01*
X93448944Y-88162661D01*
X93380816Y-88134442D01*
X93267324Y-88119500D01*
X93267322Y-88119500D01*
X93191228Y-88119500D01*
X93191225Y-88119500D01*
X93077733Y-88134442D01*
X93009605Y-88162661D01*
X92977834Y-88171174D01*
X92942417Y-88175836D01*
X92832525Y-88227080D01*
X92762333Y-88237741D01*
X92726025Y-88227080D01*
X92616132Y-88175836D01*
X92580716Y-88171174D01*
X92548944Y-88162661D01*
X92480816Y-88134442D01*
X92367324Y-88119500D01*
X92367322Y-88119500D01*
X92340399Y-88119500D01*
X92272278Y-88099498D01*
X92225785Y-88045842D01*
X92215681Y-87975568D01*
X92226623Y-87946440D01*
X92224527Y-87945636D01*
X92229270Y-87933276D01*
X92229273Y-87933273D01*
X92229594Y-87931239D01*
X92238938Y-87899694D01*
X92239775Y-87897817D01*
X92239775Y-87876883D01*
X92241326Y-87857174D01*
X92242438Y-87850150D01*
X92244602Y-87836490D01*
X92244460Y-87835961D01*
X92244068Y-87834495D01*
X92239775Y-87801887D01*
X92239775Y-86616964D01*
X92239860Y-86613691D01*
X92242024Y-86572411D01*
X92234520Y-86552864D01*
X92228904Y-86533903D01*
X92224552Y-86513430D01*
X92224552Y-86513428D01*
X92223340Y-86511760D01*
X92207644Y-86482853D01*
X92206907Y-86480931D01*
X92192103Y-86466127D01*
X92179266Y-86451096D01*
X92166959Y-86434156D01*
X92166956Y-86434154D01*
X92166956Y-86434153D01*
X92165169Y-86433121D01*
X92139075Y-86413098D01*
X91754904Y-86028927D01*
X91720878Y-85966615D01*
X91717999Y-85939840D01*
X91717999Y-85427578D01*
X91707578Y-85356044D01*
X91653637Y-85245707D01*
X91653636Y-85245705D01*
X91566794Y-85158863D01*
X91566792Y-85158862D01*
X91456457Y-85104922D01*
X91438572Y-85102316D01*
X91384923Y-85094500D01*
X91384920Y-85094500D01*
X90815079Y-85094500D01*
X90753965Y-85103403D01*
X90743544Y-85104922D01*
X90743541Y-85104923D01*
X90743542Y-85104923D01*
X90633207Y-85158862D01*
X90633205Y-85158863D01*
X90546363Y-85245705D01*
X90546362Y-85245707D01*
X90492422Y-85356041D01*
X90492422Y-85356043D01*
X90482000Y-85427575D01*
X90482000Y-85972420D01*
X90484090Y-85986763D01*
X90492422Y-86043956D01*
X90504910Y-86069500D01*
X90546362Y-86154292D01*
X90546363Y-86154294D01*
X90633205Y-86241136D01*
X90633207Y-86241137D01*
X90743544Y-86295078D01*
X90815077Y-86305500D01*
X91327331Y-86305499D01*
X91395452Y-86325501D01*
X91416426Y-86342403D01*
X91741870Y-86667846D01*
X91775895Y-86730159D01*
X91778775Y-86756942D01*
X91778775Y-87701156D01*
X91758773Y-87769277D01*
X91741874Y-87790246D01*
X91586485Y-87945636D01*
X91446108Y-88086013D01*
X91383796Y-88120038D01*
X91373460Y-88121839D01*
X91277733Y-88134442D01*
X91209605Y-88162661D01*
X91177834Y-88171174D01*
X91142417Y-88175836D01*
X91036782Y-88225094D01*
X91027755Y-88231416D01*
X91025535Y-88228245D01*
X90981058Y-88252533D01*
X90910243Y-88247468D01*
X90882182Y-88229434D01*
X90880795Y-88231416D01*
X90871767Y-88225094D01*
X90766132Y-88175836D01*
X90730716Y-88171174D01*
X90698944Y-88162661D01*
X90630816Y-88134442D01*
X90517324Y-88119500D01*
X90517322Y-88119500D01*
X90441228Y-88119500D01*
X90441225Y-88119500D01*
X90327733Y-88134442D01*
X90259605Y-88162661D01*
X90227834Y-88171174D01*
X90192417Y-88175836D01*
X90086782Y-88225094D01*
X90004369Y-88307507D01*
X89955111Y-88413142D01*
X89950449Y-88448559D01*
X89941936Y-88480330D01*
X89913717Y-88548458D01*
X89893766Y-88699999D01*
X89893766Y-88700000D01*
X89913716Y-88851538D01*
X89913717Y-88851541D01*
X89917340Y-88860289D01*
X89917493Y-88860657D01*
X89925080Y-88931247D01*
X89922389Y-88942944D01*
X89922107Y-88943948D01*
X89914995Y-88963127D01*
X89900860Y-88993439D01*
X89875761Y-89029283D01*
X89858558Y-89046486D01*
X89822715Y-89071585D01*
X89795348Y-89084347D01*
X89758578Y-89095070D01*
X89758627Y-89095064D01*
X89758623Y-89095065D01*
X89749923Y-89096795D01*
X89749919Y-89096796D01*
X89749920Y-89096795D01*
X89725276Y-89103399D01*
X89709598Y-89107600D01*
X89701196Y-89110452D01*
X89674714Y-89121420D01*
X89660770Y-89127197D01*
X89628997Y-89135710D01*
X89589963Y-89140849D01*
X89586200Y-89141391D01*
X89565139Y-89147716D01*
X89494849Y-89148349D01*
X89467732Y-89140737D01*
X89467728Y-89140736D01*
X89467723Y-89140735D01*
X89429551Y-89135710D01*
X89397780Y-89127197D01*
X89379152Y-89119481D01*
X89357356Y-89110453D01*
X89357348Y-89110450D01*
X89357345Y-89110449D01*
X89357344Y-89110449D01*
X89348955Y-89107601D01*
X89348954Y-89107600D01*
X89308624Y-89096795D01*
X89299916Y-89095063D01*
X89299988Y-89095073D01*
X89263202Y-89084347D01*
X89235832Y-89071584D01*
X89199990Y-89046486D01*
X89182787Y-89029283D01*
X89157687Y-88993438D01*
X89154103Y-88985753D01*
X89144925Y-88966070D01*
X89134193Y-88929223D01*
X89134208Y-88929338D01*
X89134212Y-88929363D01*
X89134184Y-88929223D01*
X89132481Y-88920657D01*
X89127390Y-88901659D01*
X89121672Y-88880318D01*
X89121672Y-88880316D01*
X89118819Y-88871911D01*
X89110381Y-88851541D01*
X89102075Y-88831491D01*
X89093563Y-88799721D01*
X89084238Y-88728889D01*
X89082600Y-88716444D01*
X89082600Y-88683556D01*
X89098850Y-88560134D01*
X89098513Y-88522367D01*
X89088205Y-88453578D01*
X89056605Y-88384925D01*
X89018983Y-88341507D01*
X89013294Y-88333312D01*
X88945883Y-88289991D01*
X88877767Y-88269990D01*
X88877752Y-88269987D01*
X88839591Y-88264500D01*
X88839587Y-88264500D01*
X86517394Y-88264500D01*
X86449273Y-88244498D01*
X86402780Y-88190842D01*
X86392676Y-88120568D01*
X86393580Y-88116550D01*
X86395114Y-88106023D01*
X86405500Y-88034738D01*
X86405500Y-87262518D01*
X86394724Y-87188556D01*
X86338951Y-87074471D01*
X86338950Y-87074469D01*
X86249158Y-86984677D01*
X86249156Y-86984676D01*
X86135074Y-86928905D01*
X86135072Y-86928904D01*
X86061111Y-86918128D01*
X86061110Y-86918128D01*
X85088890Y-86918128D01*
X85088888Y-86918128D01*
X85014927Y-86928904D01*
X85014925Y-86928905D01*
X84900843Y-86984676D01*
X84900841Y-86984677D01*
X84811049Y-87074469D01*
X84811048Y-87074471D01*
X84755277Y-87188553D01*
X84755276Y-87188555D01*
X84753609Y-87200000D01*
X84744500Y-87262518D01*
X84744500Y-88034738D01*
X84754008Y-88100000D01*
X84756687Y-88118383D01*
X84753236Y-88118885D01*
X84753993Y-88172283D01*
X84716458Y-88232547D01*
X84652302Y-88262951D01*
X84632606Y-88264500D01*
X81382201Y-88264500D01*
X81314080Y-88244498D01*
X81267587Y-88190842D01*
X81257483Y-88120570D01*
X81257798Y-88118383D01*
X81260441Y-88100001D01*
X81260441Y-88099996D01*
X81240778Y-87963241D01*
X81240777Y-87963240D01*
X81240777Y-87963235D01*
X81183379Y-87837551D01*
X81092896Y-87733128D01*
X81076673Y-87722702D01*
X81063376Y-87714156D01*
X81016884Y-87660499D01*
X81005499Y-87608159D01*
X81005499Y-87300003D01*
X81389559Y-87300003D01*
X81409221Y-87436758D01*
X81409223Y-87436765D01*
X81466621Y-87562449D01*
X81557104Y-87666872D01*
X81673341Y-87741573D01*
X81805915Y-87780500D01*
X81944085Y-87780500D01*
X82076659Y-87741573D01*
X82192896Y-87666872D01*
X82283379Y-87562449D01*
X82340777Y-87436765D01*
X82352000Y-87358707D01*
X82360441Y-87300003D01*
X82360441Y-87299996D01*
X82340778Y-87163241D01*
X82340777Y-87163240D01*
X82340777Y-87163235D01*
X82283379Y-87037551D01*
X82192896Y-86933128D01*
X82192895Y-86933127D01*
X82186995Y-86926318D01*
X82189697Y-86923976D01*
X82160576Y-86878585D01*
X82155500Y-86843181D01*
X82155500Y-86787006D01*
X82175502Y-86718885D01*
X82192405Y-86697911D01*
X82230418Y-86659897D01*
X82230420Y-86659895D01*
X82272779Y-86563961D01*
X82275500Y-86540508D01*
X82275500Y-85106748D01*
X82272779Y-85083295D01*
X82230420Y-84987361D01*
X82230419Y-84987360D01*
X82230418Y-84987358D01*
X82156269Y-84913209D01*
X82156267Y-84913208D01*
X82060331Y-84870848D01*
X82060332Y-84870848D01*
X82036885Y-84868128D01*
X82036880Y-84868128D01*
X81653120Y-84868128D01*
X81653114Y-84868128D01*
X81629668Y-84870848D01*
X81533732Y-84913208D01*
X81533730Y-84913209D01*
X81459581Y-84987358D01*
X81459580Y-84987360D01*
X81417220Y-85083296D01*
X81414500Y-85106742D01*
X81414500Y-86540513D01*
X81417220Y-86563959D01*
X81459579Y-86659894D01*
X81459580Y-86659895D01*
X81533733Y-86734048D01*
X81533735Y-86734049D01*
X81539710Y-86738142D01*
X81584604Y-86793143D01*
X81594500Y-86842090D01*
X81594500Y-86843181D01*
X81574498Y-86911302D01*
X81562143Y-86925571D01*
X81563005Y-86926318D01*
X81466621Y-87037550D01*
X81409223Y-87163234D01*
X81409221Y-87163241D01*
X81389559Y-87299996D01*
X81389559Y-87300003D01*
X81005499Y-87300003D01*
X81005499Y-86856050D01*
X81005499Y-86031284D01*
X81005583Y-86028093D01*
X81007749Y-85986765D01*
X81007747Y-85986761D01*
X81007051Y-85982359D01*
X81005500Y-85962650D01*
X81005500Y-85106745D01*
X81005499Y-85106742D01*
X81005072Y-85103064D01*
X81002779Y-85083295D01*
X80960420Y-84987361D01*
X80960419Y-84987360D01*
X80960418Y-84987358D01*
X80886269Y-84913209D01*
X80886267Y-84913208D01*
X80790331Y-84870848D01*
X80790332Y-84870848D01*
X80766885Y-84868128D01*
X80766880Y-84868128D01*
X80414929Y-84868128D01*
X80346808Y-84848126D01*
X80300316Y-84794472D01*
X80295956Y-84784925D01*
X80258336Y-84741509D01*
X80252645Y-84733312D01*
X80185234Y-84689991D01*
X80117118Y-84669990D01*
X80117103Y-84669987D01*
X80078942Y-84664500D01*
X80078938Y-84664500D01*
X79386500Y-84664500D01*
X79318379Y-84644498D01*
X79271886Y-84590842D01*
X79260500Y-84538500D01*
X79260500Y-81761500D01*
X79280502Y-81693379D01*
X79334158Y-81646886D01*
X79386500Y-81635500D01*
X80067670Y-81635500D01*
X80135791Y-81655502D01*
X80182284Y-81709158D01*
X80192388Y-81779432D01*
X80171619Y-81832708D01*
X80168656Y-81837032D01*
X80126297Y-81932967D01*
X80123577Y-81956413D01*
X80123577Y-83215184D01*
X80126297Y-83238630D01*
X80168657Y-83334566D01*
X80168658Y-83334568D01*
X80242807Y-83408717D01*
X80242809Y-83408718D01*
X80242810Y-83408719D01*
X80338744Y-83451078D01*
X80362192Y-83453798D01*
X80362194Y-83453799D01*
X80362197Y-83453799D01*
X80745960Y-83453799D01*
X80745960Y-83453798D01*
X80769410Y-83451078D01*
X80865344Y-83408719D01*
X80869085Y-83404977D01*
X80931394Y-83370952D01*
X81002210Y-83376013D01*
X81047277Y-83404976D01*
X82648122Y-85005821D01*
X82682148Y-85068133D01*
X82683880Y-85103064D01*
X82684710Y-85103112D01*
X82684500Y-85106745D01*
X82684500Y-86540513D01*
X82687220Y-86563959D01*
X82729580Y-86659895D01*
X82729581Y-86659897D01*
X82803730Y-86734046D01*
X82803732Y-86734047D01*
X82803733Y-86734048D01*
X82899667Y-86776407D01*
X82923115Y-86779127D01*
X82923117Y-86779128D01*
X82923120Y-86779128D01*
X83306883Y-86779128D01*
X83306883Y-86779127D01*
X83330333Y-86776407D01*
X83426267Y-86734048D01*
X83500420Y-86659895D01*
X83542779Y-86563961D01*
X83545500Y-86540508D01*
X83545500Y-85932664D01*
X83565502Y-85864544D01*
X83582400Y-85843575D01*
X85083571Y-84342403D01*
X85145883Y-84308378D01*
X85172666Y-84305499D01*
X85722421Y-84305499D01*
X85722422Y-84305499D01*
X85793956Y-84295078D01*
X85828295Y-84278290D01*
X85898276Y-84266341D01*
X85963610Y-84294124D01*
X86003553Y-84352819D01*
X86005422Y-84423791D01*
X85972729Y-84480582D01*
X85572090Y-84881223D01*
X85509778Y-84915248D01*
X85482994Y-84918128D01*
X85088888Y-84918128D01*
X85014927Y-84928904D01*
X85014925Y-84928905D01*
X84900843Y-84984676D01*
X84900841Y-84984677D01*
X84811049Y-85074469D01*
X84811048Y-85074471D01*
X84755277Y-85188553D01*
X84755276Y-85188555D01*
X84744500Y-85262516D01*
X84744500Y-86034739D01*
X84755276Y-86108700D01*
X84755277Y-86108702D01*
X84811048Y-86222784D01*
X84811049Y-86222786D01*
X84900841Y-86312578D01*
X84900843Y-86312579D01*
X85014928Y-86368352D01*
X85088890Y-86379128D01*
X85088896Y-86379128D01*
X86061104Y-86379128D01*
X86061110Y-86379128D01*
X86135072Y-86368352D01*
X86249157Y-86312579D01*
X86338951Y-86222785D01*
X86394724Y-86108700D01*
X86405500Y-86034738D01*
X86405500Y-85262518D01*
X86394724Y-85188556D01*
X86338951Y-85074471D01*
X86332886Y-85065976D01*
X86335782Y-85063907D01*
X86310652Y-85017885D01*
X86315717Y-84947070D01*
X86344674Y-84902011D01*
X86904284Y-84342401D01*
X86966594Y-84308378D01*
X86993377Y-84305499D01*
X87472421Y-84305499D01*
X87472422Y-84305499D01*
X87543956Y-84295078D01*
X87654293Y-84241137D01*
X87741137Y-84154293D01*
X87772157Y-84090842D01*
X87791556Y-84051161D01*
X87839444Y-83998747D01*
X87904753Y-83980500D01*
X88349720Y-83980500D01*
X88417841Y-84000502D01*
X88444944Y-84023988D01*
X88482101Y-84066870D01*
X88482103Y-84066871D01*
X88482104Y-84066872D01*
X88598341Y-84141573D01*
X88730915Y-84180500D01*
X88869085Y-84180500D01*
X89001659Y-84141573D01*
X89117896Y-84066872D01*
X89208379Y-83962449D01*
X89265777Y-83836765D01*
X89277380Y-83756060D01*
X89306872Y-83691483D01*
X89366598Y-83653099D01*
X89437595Y-83653099D01*
X89530915Y-83680500D01*
X89669085Y-83680500D01*
X89801659Y-83641573D01*
X89917896Y-83566872D01*
X90008379Y-83462449D01*
X90065777Y-83336765D01*
X90069821Y-83308641D01*
X90085441Y-83200003D01*
X90085441Y-83199996D01*
X90065778Y-83063241D01*
X90065777Y-83063240D01*
X90065777Y-83063235D01*
X90008379Y-82937551D01*
X89917896Y-82833128D01*
X89888376Y-82814156D01*
X89841885Y-82760499D01*
X89830500Y-82708160D01*
X89830500Y-82432689D01*
X89830585Y-82429416D01*
X89832749Y-82388136D01*
X89825245Y-82368589D01*
X89819629Y-82349628D01*
X89815277Y-82329155D01*
X89815277Y-82329153D01*
X89814065Y-82327485D01*
X89798369Y-82298578D01*
X89797632Y-82296656D01*
X89782828Y-82281852D01*
X89769991Y-82266821D01*
X89757684Y-82249881D01*
X89757682Y-82249879D01*
X89757681Y-82249878D01*
X89755996Y-82248905D01*
X89752335Y-82245065D01*
X89747841Y-82241019D01*
X89748149Y-82240675D01*
X89707005Y-82197523D01*
X89692999Y-82139791D01*
X89692999Y-81627578D01*
X89682578Y-81556044D01*
X89628637Y-81445707D01*
X89628636Y-81445705D01*
X89541794Y-81358863D01*
X89541792Y-81358862D01*
X89431457Y-81304922D01*
X89413322Y-81302280D01*
X89359923Y-81294500D01*
X89359920Y-81294500D01*
X88790079Y-81294500D01*
X88732170Y-81302937D01*
X88718544Y-81304922D01*
X88718541Y-81304923D01*
X88718542Y-81304923D01*
X88608207Y-81358862D01*
X88608205Y-81358863D01*
X88521363Y-81445705D01*
X88521362Y-81445707D01*
X88467422Y-81556041D01*
X88467420Y-81556049D01*
X88466602Y-81561667D01*
X88436988Y-81626192D01*
X88377189Y-81664463D01*
X88341919Y-81669500D01*
X87920580Y-81669500D01*
X87852459Y-81649498D01*
X87805966Y-81595842D01*
X87795896Y-81561660D01*
X87795078Y-81556044D01*
X87741137Y-81445707D01*
X87741136Y-81445705D01*
X87654294Y-81358863D01*
X87654292Y-81358862D01*
X87543957Y-81304922D01*
X87525822Y-81302280D01*
X87472423Y-81294500D01*
X87472420Y-81294500D01*
X86902579Y-81294500D01*
X86844670Y-81302937D01*
X86831044Y-81304922D01*
X86831041Y-81304923D01*
X86831042Y-81304923D01*
X86720707Y-81358862D01*
X86720705Y-81358863D01*
X86633863Y-81445705D01*
X86633862Y-81445707D01*
X86579922Y-81556041D01*
X86579922Y-81556043D01*
X86569500Y-81627575D01*
X86569500Y-82172420D01*
X86576126Y-82217898D01*
X86579922Y-82243956D01*
X86605129Y-82295517D01*
X86633862Y-82354292D01*
X86633863Y-82354294D01*
X86720705Y-82441136D01*
X86720707Y-82441137D01*
X86831044Y-82495078D01*
X86902577Y-82505500D01*
X87472422Y-82505499D01*
X87543956Y-82495078D01*
X87654293Y-82441137D01*
X87741137Y-82354293D01*
X87795078Y-82243956D01*
X87795506Y-82241019D01*
X87795898Y-82238333D01*
X87825512Y-82173808D01*
X87885311Y-82135537D01*
X87920581Y-82130500D01*
X88341920Y-82130500D01*
X88410041Y-82150502D01*
X88456534Y-82204158D01*
X88466603Y-82238339D01*
X88467422Y-82243956D01*
X88492629Y-82295517D01*
X88521362Y-82354292D01*
X88521363Y-82354294D01*
X88608205Y-82441136D01*
X88608207Y-82441137D01*
X88718544Y-82495078D01*
X88790077Y-82505500D01*
X89243500Y-82505499D01*
X89311621Y-82525501D01*
X89358114Y-82579156D01*
X89369500Y-82631499D01*
X89369500Y-82708160D01*
X89349498Y-82776281D01*
X89311624Y-82814156D01*
X89282105Y-82833127D01*
X89282101Y-82833131D01*
X89191621Y-82937550D01*
X89134223Y-83063234D01*
X89134221Y-83063241D01*
X89122619Y-83143936D01*
X89093126Y-83208517D01*
X89033400Y-83246900D01*
X88962405Y-83246900D01*
X88869086Y-83219500D01*
X88869085Y-83219500D01*
X88730915Y-83219500D01*
X88598343Y-83258426D01*
X88598339Y-83258428D01*
X88482103Y-83333128D01*
X88482101Y-83333129D01*
X88444944Y-83376012D01*
X88385218Y-83414396D01*
X88349720Y-83419500D01*
X87904753Y-83419500D01*
X87836632Y-83399498D01*
X87791556Y-83348839D01*
X87741137Y-83245707D01*
X87741136Y-83245705D01*
X87654294Y-83158863D01*
X87654292Y-83158862D01*
X87543957Y-83104922D01*
X87526072Y-83102316D01*
X87472423Y-83094500D01*
X87472420Y-83094500D01*
X86827579Y-83094500D01*
X86766465Y-83103403D01*
X86756044Y-83104922D01*
X86756041Y-83104923D01*
X86756042Y-83104923D01*
X86645707Y-83158862D01*
X86645705Y-83158863D01*
X86558863Y-83245705D01*
X86558862Y-83245707D01*
X86504922Y-83356041D01*
X86504922Y-83356043D01*
X86494500Y-83427575D01*
X86494500Y-83906621D01*
X86474498Y-83974742D01*
X86457595Y-83995717D01*
X86230583Y-84222728D01*
X86168271Y-84256753D01*
X86097455Y-84251688D01*
X86040620Y-84209141D01*
X86015809Y-84142620D01*
X86028292Y-84078291D01*
X86045078Y-84043956D01*
X86055500Y-83972423D01*
X86055499Y-83427578D01*
X86055499Y-83427575D01*
X86055499Y-83423019D01*
X86057712Y-83423019D01*
X86070815Y-83362436D01*
X86092377Y-83333597D01*
X86237564Y-83188410D01*
X86239921Y-83186175D01*
X86246453Y-83180294D01*
X86270645Y-83158512D01*
X86279164Y-83139374D01*
X86288590Y-83122014D01*
X86299998Y-83104450D01*
X86300319Y-83102416D01*
X86309663Y-83070871D01*
X86310500Y-83068994D01*
X86310500Y-83048061D01*
X86312051Y-83028352D01*
X86312227Y-83027234D01*
X86315327Y-83007668D01*
X86315185Y-83007139D01*
X86314793Y-83005673D01*
X86310500Y-82973065D01*
X86310500Y-78211500D01*
X86330502Y-78143379D01*
X86384158Y-78096886D01*
X86436500Y-78085500D01*
X88748993Y-78085500D01*
X88749000Y-78085500D01*
X88761085Y-78084200D01*
X88777787Y-78082406D01*
X88777795Y-78082405D01*
X88777797Y-78082404D01*
X88777802Y-78082404D01*
X88830144Y-78071018D01*
X88858099Y-78057024D01*
X88927968Y-78044418D01*
X88993561Y-78071587D01*
X89034052Y-78129905D01*
X89040500Y-78169696D01*
X89040500Y-79408500D01*
X89020498Y-79476621D01*
X88966842Y-79523114D01*
X88914501Y-79534500D01*
X88790079Y-79534500D01*
X88728965Y-79543403D01*
X88718544Y-79544922D01*
X88718541Y-79544923D01*
X88718542Y-79544923D01*
X88608207Y-79598862D01*
X88608205Y-79598863D01*
X88521363Y-79685705D01*
X88521362Y-79685707D01*
X88467422Y-79796041D01*
X88467420Y-79796049D01*
X88466602Y-79801667D01*
X88436988Y-79866192D01*
X88377189Y-79904463D01*
X88341919Y-79909500D01*
X87920580Y-79909500D01*
X87852459Y-79889498D01*
X87805966Y-79835842D01*
X87795896Y-79801660D01*
X87795078Y-79796044D01*
X87741137Y-79685707D01*
X87741136Y-79685705D01*
X87654294Y-79598863D01*
X87654292Y-79598862D01*
X87543957Y-79544922D01*
X87526072Y-79542316D01*
X87472423Y-79534500D01*
X87472420Y-79534500D01*
X86902579Y-79534500D01*
X86841466Y-79543403D01*
X86831044Y-79544922D01*
X86831041Y-79544923D01*
X86831042Y-79544923D01*
X86720707Y-79598862D01*
X86720705Y-79598863D01*
X86633863Y-79685705D01*
X86633862Y-79685707D01*
X86579922Y-79796041D01*
X86579922Y-79796043D01*
X86569500Y-79867575D01*
X86569500Y-80412420D01*
X86574095Y-80443956D01*
X86579922Y-80483956D01*
X86606892Y-80539124D01*
X86633862Y-80594292D01*
X86633863Y-80594294D01*
X86720705Y-80681136D01*
X86720707Y-80681137D01*
X86831044Y-80735078D01*
X86902577Y-80745500D01*
X87472422Y-80745499D01*
X87543956Y-80735078D01*
X87654293Y-80681137D01*
X87741137Y-80594293D01*
X87795078Y-80483956D01*
X87795079Y-80483950D01*
X87795898Y-80478333D01*
X87825512Y-80413808D01*
X87885311Y-80375537D01*
X87920581Y-80370500D01*
X88341920Y-80370500D01*
X88410041Y-80390502D01*
X88456534Y-80444158D01*
X88466603Y-80478339D01*
X88467422Y-80483956D01*
X88494392Y-80539124D01*
X88521362Y-80594292D01*
X88521363Y-80594294D01*
X88608205Y-80681136D01*
X88608207Y-80681137D01*
X88718544Y-80735078D01*
X88790077Y-80745500D01*
X89359922Y-80745499D01*
X89431456Y-80735078D01*
X89541793Y-80681137D01*
X89628637Y-80594293D01*
X89682578Y-80483956D01*
X89693000Y-80412423D01*
X89692999Y-79867578D01*
X89682578Y-79796044D01*
X89628637Y-79685707D01*
X89628636Y-79685705D01*
X89538405Y-79595474D01*
X89504379Y-79533162D01*
X89501500Y-79506379D01*
X89501500Y-79371666D01*
X89521502Y-79303545D01*
X89575158Y-79257052D01*
X89645432Y-79246948D01*
X89710012Y-79276442D01*
X89716595Y-79282571D01*
X90245095Y-79811071D01*
X90279121Y-79873383D01*
X90282000Y-79900166D01*
X90282000Y-80412420D01*
X90286595Y-80443956D01*
X90292422Y-80483956D01*
X90319392Y-80539124D01*
X90346362Y-80594292D01*
X90346363Y-80594294D01*
X90433205Y-80681136D01*
X90433207Y-80681137D01*
X90543544Y-80735078D01*
X90561666Y-80737718D01*
X90626191Y-80767332D01*
X90664462Y-80827131D01*
X90669500Y-80862402D01*
X90669500Y-81177598D01*
X90649498Y-81245719D01*
X90595842Y-81292212D01*
X90561666Y-81302282D01*
X90543544Y-81304922D01*
X90543542Y-81304923D01*
X90433207Y-81358862D01*
X90433205Y-81358863D01*
X90346363Y-81445705D01*
X90346362Y-81445707D01*
X90292422Y-81556041D01*
X90292422Y-81556043D01*
X90282000Y-81627575D01*
X90282000Y-82172420D01*
X90288626Y-82217898D01*
X90292422Y-82243956D01*
X90317629Y-82295517D01*
X90346362Y-82354292D01*
X90346363Y-82354294D01*
X90433205Y-82441136D01*
X90433207Y-82441137D01*
X90543544Y-82495078D01*
X90615077Y-82505500D01*
X91184922Y-82505499D01*
X91256456Y-82495078D01*
X91366793Y-82441137D01*
X91453637Y-82354293D01*
X91507578Y-82243956D01*
X91518000Y-82172423D01*
X91517999Y-82142515D01*
X91537999Y-82074397D01*
X91591653Y-82027903D01*
X91661927Y-82017797D01*
X91726509Y-82047288D01*
X91758612Y-82090172D01*
X91791619Y-82162446D01*
X91791621Y-82162449D01*
X91882104Y-82266872D01*
X91998341Y-82341573D01*
X92130915Y-82380500D01*
X92269085Y-82380500D01*
X92401659Y-82341573D01*
X92517896Y-82266872D01*
X92598380Y-82173987D01*
X92658107Y-82135604D01*
X92693605Y-82130500D01*
X92704420Y-82130500D01*
X92772541Y-82150502D01*
X92819034Y-82204158D01*
X92829103Y-82238339D01*
X92829922Y-82243956D01*
X92855129Y-82295517D01*
X92883862Y-82354292D01*
X92883863Y-82354294D01*
X92970705Y-82441136D01*
X92970707Y-82441137D01*
X93081044Y-82495078D01*
X93152577Y-82505500D01*
X93722422Y-82505499D01*
X93793956Y-82495078D01*
X93904293Y-82441137D01*
X93991137Y-82354293D01*
X94045078Y-82243956D01*
X94055500Y-82172423D01*
X94055500Y-82172420D01*
X94644500Y-82172420D01*
X94651126Y-82217898D01*
X94654922Y-82243956D01*
X94680129Y-82295517D01*
X94708862Y-82354292D01*
X94708863Y-82354294D01*
X94795705Y-82441136D01*
X94795707Y-82441137D01*
X94906044Y-82495078D01*
X94977577Y-82505500D01*
X95547422Y-82505499D01*
X95618956Y-82495078D01*
X95729293Y-82441137D01*
X95816137Y-82354293D01*
X95870078Y-82243956D01*
X95876725Y-82198332D01*
X95906340Y-82133808D01*
X95966138Y-82095537D01*
X96001409Y-82090500D01*
X96479420Y-82090500D01*
X96547541Y-82110502D01*
X96594034Y-82164158D01*
X96604103Y-82198339D01*
X96604922Y-82203956D01*
X96624478Y-82243958D01*
X96658862Y-82314292D01*
X96658863Y-82314294D01*
X96745705Y-82401136D01*
X96745707Y-82401137D01*
X96856044Y-82455078D01*
X96927577Y-82465500D01*
X97572422Y-82465499D01*
X97643956Y-82455078D01*
X97754293Y-82401137D01*
X97841137Y-82314293D01*
X97895078Y-82203956D01*
X97905500Y-82132423D01*
X97905500Y-82132420D01*
X98344500Y-82132420D01*
X98349124Y-82164158D01*
X98354922Y-82203956D01*
X98374478Y-82243958D01*
X98408862Y-82314292D01*
X98408863Y-82314294D01*
X98495705Y-82401136D01*
X98495707Y-82401137D01*
X98606044Y-82455078D01*
X98677577Y-82465500D01*
X99227333Y-82465499D01*
X99295454Y-82485501D01*
X99316427Y-82502403D01*
X104171580Y-87357556D01*
X104173833Y-87359931D01*
X104201486Y-87390644D01*
X104201487Y-87390644D01*
X104201488Y-87390645D01*
X104219099Y-87398486D01*
X104220611Y-87399159D01*
X104237989Y-87408594D01*
X104238029Y-87408620D01*
X104255550Y-87419998D01*
X104257581Y-87420319D01*
X104289126Y-87429663D01*
X104291006Y-87430500D01*
X104311938Y-87430500D01*
X104331647Y-87432051D01*
X104335563Y-87432671D01*
X104352332Y-87435327D01*
X104354321Y-87434793D01*
X104386934Y-87430500D01*
X104895063Y-87430500D01*
X104963184Y-87450502D01*
X105009677Y-87504158D01*
X105016253Y-87522019D01*
X105041321Y-87610127D01*
X105134712Y-87797682D01*
X105260970Y-87964875D01*
X105260971Y-87964876D01*
X105415797Y-88106018D01*
X105415811Y-88106029D01*
X105593922Y-88216310D01*
X105593925Y-88216311D01*
X105593934Y-88216317D01*
X105674344Y-88247468D01*
X105789292Y-88292000D01*
X105789295Y-88292000D01*
X105789299Y-88292002D01*
X105995244Y-88330500D01*
X105995247Y-88330500D01*
X106204753Y-88330500D01*
X106204756Y-88330500D01*
X106410701Y-88292002D01*
X106410705Y-88292000D01*
X106410707Y-88292000D01*
X106467528Y-88269987D01*
X106606066Y-88216317D01*
X106660704Y-88182486D01*
X106784188Y-88106029D01*
X106784190Y-88106026D01*
X106784197Y-88106023D01*
X106939029Y-87964876D01*
X107065288Y-87797681D01*
X107158676Y-87610133D01*
X107158677Y-87610128D01*
X107158678Y-87610127D01*
X107183747Y-87522019D01*
X107221628Y-87461972D01*
X107285958Y-87431938D01*
X107304937Y-87430500D01*
X111395063Y-87430500D01*
X111463184Y-87450502D01*
X111509677Y-87504158D01*
X111516253Y-87522019D01*
X111541321Y-87610127D01*
X111634712Y-87797682D01*
X111760970Y-87964875D01*
X111760971Y-87964876D01*
X111915797Y-88106018D01*
X111915811Y-88106029D01*
X112093922Y-88216310D01*
X112093925Y-88216311D01*
X112093934Y-88216317D01*
X112174344Y-88247468D01*
X112289292Y-88292000D01*
X112289295Y-88292000D01*
X112289299Y-88292002D01*
X112495244Y-88330500D01*
X112495247Y-88330500D01*
X112704753Y-88330500D01*
X112704756Y-88330500D01*
X112910701Y-88292002D01*
X112910705Y-88292000D01*
X112910707Y-88292000D01*
X112967528Y-88269987D01*
X113106066Y-88216317D01*
X113160704Y-88182486D01*
X113284188Y-88106029D01*
X113284190Y-88106026D01*
X113284197Y-88106023D01*
X113439029Y-87964876D01*
X113565288Y-87797681D01*
X113658676Y-87610133D01*
X113716012Y-87408619D01*
X113735343Y-87200000D01*
X113716012Y-86991381D01*
X113658676Y-86789867D01*
X113565288Y-86602319D01*
X113565287Y-86602318D01*
X113565287Y-86602317D01*
X113439029Y-86435124D01*
X113439028Y-86435123D01*
X113284202Y-86293981D01*
X113284188Y-86293970D01*
X113106077Y-86183689D01*
X113106070Y-86183685D01*
X113106066Y-86183683D01*
X113106061Y-86183681D01*
X112910707Y-86107999D01*
X112874007Y-86101138D01*
X112704756Y-86069500D01*
X112495244Y-86069500D01*
X112362387Y-86094335D01*
X112289292Y-86107999D01*
X112093938Y-86183681D01*
X112093922Y-86183689D01*
X111915811Y-86293970D01*
X111915797Y-86293981D01*
X111760971Y-86435123D01*
X111760970Y-86435124D01*
X111634712Y-86602317D01*
X111541321Y-86789872D01*
X111516253Y-86877981D01*
X111478372Y-86938028D01*
X111414042Y-86968062D01*
X111395063Y-86969500D01*
X107304937Y-86969500D01*
X107236816Y-86949498D01*
X107190323Y-86895842D01*
X107183747Y-86877981D01*
X107158678Y-86789872D01*
X107158675Y-86789866D01*
X107065288Y-86602319D01*
X107065287Y-86602318D01*
X107065287Y-86602317D01*
X106939029Y-86435124D01*
X106939028Y-86435123D01*
X106784202Y-86293981D01*
X106784188Y-86293970D01*
X106606077Y-86183689D01*
X106606070Y-86183685D01*
X106606066Y-86183683D01*
X106606061Y-86183681D01*
X106410707Y-86107999D01*
X106374007Y-86101138D01*
X106204756Y-86069500D01*
X105995244Y-86069500D01*
X105862387Y-86094335D01*
X105789292Y-86107999D01*
X105593938Y-86183681D01*
X105593922Y-86183689D01*
X105415811Y-86293970D01*
X105415797Y-86293981D01*
X105260971Y-86435123D01*
X105260970Y-86435124D01*
X105134712Y-86602317D01*
X105041321Y-86789872D01*
X105016253Y-86877981D01*
X104978372Y-86938028D01*
X104914042Y-86968062D01*
X104895063Y-86969500D01*
X104487666Y-86969500D01*
X104419545Y-86949498D01*
X104398571Y-86932595D01*
X99692381Y-82226404D01*
X99658355Y-82164092D01*
X99656445Y-82136983D01*
X99655500Y-82136983D01*
X99655499Y-81587579D01*
X99655499Y-81587577D01*
X99645078Y-81516044D01*
X99591137Y-81405707D01*
X99591136Y-81405705D01*
X99504294Y-81318863D01*
X99504292Y-81318862D01*
X99393957Y-81264922D01*
X99338333Y-81256818D01*
X99273808Y-81227203D01*
X99235536Y-81167405D01*
X99230500Y-81132141D01*
X99230500Y-80827860D01*
X99250501Y-80759743D01*
X99304157Y-80713250D01*
X99338331Y-80703181D01*
X99393956Y-80695078D01*
X99504293Y-80641137D01*
X99591137Y-80554293D01*
X99645078Y-80443956D01*
X99655500Y-80372423D01*
X99655499Y-79827578D01*
X99645078Y-79756044D01*
X99591137Y-79645707D01*
X99591136Y-79645705D01*
X99504294Y-79558863D01*
X99504292Y-79558862D01*
X99393957Y-79504922D01*
X99338333Y-79496818D01*
X99273808Y-79467203D01*
X99235537Y-79407405D01*
X99230500Y-79372134D01*
X99230500Y-78827864D01*
X99250502Y-78759743D01*
X99304158Y-78713250D01*
X99338333Y-78703181D01*
X99393956Y-78695078D01*
X99504293Y-78641137D01*
X99591137Y-78554293D01*
X99645078Y-78443956D01*
X99655500Y-78372423D01*
X99655499Y-77827578D01*
X99645078Y-77756044D01*
X99591137Y-77645707D01*
X99591136Y-77645705D01*
X99504294Y-77558863D01*
X99504292Y-77558862D01*
X99393957Y-77504922D01*
X99338333Y-77496818D01*
X99273808Y-77467203D01*
X99235537Y-77407405D01*
X99230500Y-77372134D01*
X99230500Y-76927864D01*
X99250502Y-76859743D01*
X99304158Y-76813250D01*
X99338333Y-76803181D01*
X99393956Y-76795078D01*
X99504293Y-76741137D01*
X99591137Y-76654293D01*
X99645078Y-76543956D01*
X99655500Y-76472423D01*
X99655499Y-75927578D01*
X99645078Y-75856044D01*
X99591137Y-75745707D01*
X99591136Y-75745705D01*
X99504294Y-75658863D01*
X99504292Y-75658862D01*
X99393957Y-75604922D01*
X99376072Y-75602316D01*
X99322423Y-75594500D01*
X99322420Y-75594500D01*
X98677579Y-75594500D01*
X98616466Y-75603403D01*
X98606044Y-75604922D01*
X98606041Y-75604923D01*
X98606042Y-75604923D01*
X98495707Y-75658862D01*
X98495705Y-75658863D01*
X98408863Y-75745705D01*
X98408862Y-75745707D01*
X98354922Y-75856041D01*
X98354922Y-75856043D01*
X98344500Y-75927575D01*
X98344500Y-76472420D01*
X98350328Y-76512420D01*
X98354922Y-76543956D01*
X98380903Y-76597100D01*
X98408862Y-76654292D01*
X98408863Y-76654294D01*
X98495705Y-76741136D01*
X98495707Y-76741137D01*
X98606044Y-76795078D01*
X98661667Y-76803182D01*
X98726190Y-76832795D01*
X98764462Y-76892593D01*
X98769500Y-76927865D01*
X98769500Y-77372135D01*
X98749498Y-77440256D01*
X98695842Y-77486749D01*
X98661665Y-77496819D01*
X98606044Y-77504922D01*
X98606042Y-77504923D01*
X98495707Y-77558862D01*
X98495705Y-77558863D01*
X98408863Y-77645705D01*
X98408862Y-77645707D01*
X98354922Y-77756041D01*
X98354922Y-77756043D01*
X98344500Y-77827575D01*
X98344500Y-78372420D01*
X98349124Y-78404158D01*
X98354922Y-78443956D01*
X98381892Y-78499124D01*
X98408862Y-78554292D01*
X98408863Y-78554294D01*
X98495705Y-78641136D01*
X98495707Y-78641137D01*
X98606044Y-78695078D01*
X98661667Y-78703182D01*
X98726190Y-78732795D01*
X98764462Y-78792593D01*
X98769500Y-78827865D01*
X98769500Y-79372135D01*
X98749498Y-79440256D01*
X98695842Y-79486749D01*
X98661665Y-79496819D01*
X98606044Y-79504922D01*
X98606042Y-79504923D01*
X98495707Y-79558862D01*
X98495705Y-79558863D01*
X98408863Y-79645705D01*
X98408862Y-79645707D01*
X98354922Y-79756041D01*
X98354922Y-79756043D01*
X98344500Y-79827575D01*
X98344500Y-80372420D01*
X98350328Y-80412420D01*
X98354922Y-80443956D01*
X98374478Y-80483958D01*
X98408862Y-80554292D01*
X98408863Y-80554294D01*
X98495705Y-80641136D01*
X98495707Y-80641137D01*
X98606044Y-80695078D01*
X98661667Y-80703182D01*
X98726190Y-80732795D01*
X98764462Y-80792593D01*
X98769500Y-80827865D01*
X98769500Y-81132135D01*
X98749498Y-81200256D01*
X98695842Y-81246749D01*
X98661665Y-81256819D01*
X98606044Y-81264922D01*
X98606042Y-81264923D01*
X98495707Y-81318862D01*
X98495705Y-81318863D01*
X98408863Y-81405705D01*
X98408862Y-81405707D01*
X98354922Y-81516041D01*
X98354922Y-81516043D01*
X98344500Y-81587575D01*
X98344500Y-82132420D01*
X97905500Y-82132420D01*
X97905499Y-81587578D01*
X97895078Y-81516044D01*
X97841137Y-81405707D01*
X97841136Y-81405705D01*
X97754294Y-81318863D01*
X97754292Y-81318862D01*
X97643957Y-81264922D01*
X97626072Y-81262316D01*
X97572423Y-81254500D01*
X97572420Y-81254500D01*
X96927579Y-81254500D01*
X96866465Y-81263403D01*
X96856044Y-81264922D01*
X96856041Y-81264923D01*
X96856042Y-81264923D01*
X96745707Y-81318862D01*
X96745705Y-81318863D01*
X96658863Y-81405705D01*
X96658862Y-81405707D01*
X96604922Y-81516041D01*
X96604920Y-81516049D01*
X96604102Y-81521667D01*
X96574488Y-81586192D01*
X96514689Y-81624463D01*
X96479419Y-81629500D01*
X95984641Y-81629500D01*
X95916520Y-81609498D01*
X95871444Y-81558838D01*
X95816139Y-81445709D01*
X95816136Y-81445705D01*
X95729294Y-81358863D01*
X95729292Y-81358862D01*
X95618957Y-81304922D01*
X95600822Y-81302280D01*
X95547423Y-81294500D01*
X95547420Y-81294500D01*
X94977579Y-81294500D01*
X94919670Y-81302937D01*
X94906044Y-81304922D01*
X94906041Y-81304923D01*
X94906042Y-81304923D01*
X94795707Y-81358862D01*
X94795705Y-81358863D01*
X94708863Y-81445705D01*
X94708862Y-81445707D01*
X94654922Y-81556041D01*
X94654922Y-81556043D01*
X94644500Y-81627575D01*
X94644500Y-82172420D01*
X94055500Y-82172420D01*
X94055499Y-81627578D01*
X94045078Y-81556044D01*
X93991137Y-81445707D01*
X93991136Y-81445705D01*
X93904294Y-81358863D01*
X93904292Y-81358862D01*
X93793957Y-81304922D01*
X93775822Y-81302280D01*
X93722423Y-81294500D01*
X93722420Y-81294500D01*
X93152579Y-81294500D01*
X93094670Y-81302937D01*
X93081044Y-81304922D01*
X93081041Y-81304923D01*
X93081042Y-81304923D01*
X92970707Y-81358862D01*
X92970705Y-81358863D01*
X92883863Y-81445705D01*
X92883862Y-81445707D01*
X92829922Y-81556041D01*
X92829920Y-81556049D01*
X92829102Y-81561667D01*
X92799488Y-81626192D01*
X92739689Y-81664463D01*
X92704419Y-81669500D01*
X92693605Y-81669500D01*
X92625484Y-81649498D01*
X92598380Y-81626012D01*
X92583339Y-81608654D01*
X92517896Y-81533128D01*
X92517895Y-81533127D01*
X92435688Y-81480296D01*
X92401659Y-81458427D01*
X92358338Y-81445707D01*
X92269085Y-81419500D01*
X92130915Y-81419500D01*
X91998343Y-81458426D01*
X91998339Y-81458428D01*
X91882104Y-81533127D01*
X91791621Y-81637550D01*
X91791619Y-81637553D01*
X91758612Y-81709829D01*
X91712119Y-81763484D01*
X91643999Y-81783486D01*
X91575878Y-81763484D01*
X91529385Y-81709828D01*
X91517999Y-81657486D01*
X91517999Y-81627579D01*
X91517999Y-81627577D01*
X91507578Y-81556044D01*
X91453637Y-81445707D01*
X91453636Y-81445705D01*
X91366794Y-81358863D01*
X91366792Y-81358862D01*
X91256458Y-81304922D01*
X91256451Y-81304920D01*
X91238330Y-81302280D01*
X91173806Y-81272664D01*
X91135536Y-81212864D01*
X91130500Y-81177597D01*
X91130500Y-80862401D01*
X91150502Y-80794280D01*
X91204158Y-80747787D01*
X91238335Y-80737717D01*
X91256456Y-80735078D01*
X91366793Y-80681137D01*
X91453637Y-80594293D01*
X91507578Y-80483956D01*
X91518000Y-80412423D01*
X91517999Y-79867578D01*
X91507578Y-79796044D01*
X91453637Y-79685707D01*
X91453636Y-79685705D01*
X91366794Y-79598863D01*
X91366792Y-79598862D01*
X91256457Y-79544922D01*
X91184924Y-79534500D01*
X91184923Y-79534500D01*
X90672667Y-79534500D01*
X90604546Y-79514498D01*
X90583572Y-79497595D01*
X90085980Y-79000003D01*
X91514559Y-79000003D01*
X91534221Y-79136758D01*
X91534223Y-79136765D01*
X91591621Y-79262449D01*
X91682104Y-79366872D01*
X91798341Y-79441573D01*
X91930915Y-79480500D01*
X92069082Y-79480500D01*
X92069085Y-79480500D01*
X92069087Y-79480499D01*
X92078005Y-79479217D01*
X92078429Y-79482170D01*
X92134387Y-79482166D01*
X92187994Y-79513970D01*
X92782595Y-80108571D01*
X92816621Y-80170883D01*
X92819500Y-80197665D01*
X92819500Y-80412420D01*
X92824095Y-80443956D01*
X92829922Y-80483956D01*
X92856892Y-80539124D01*
X92883862Y-80594292D01*
X92883863Y-80594294D01*
X92970705Y-80681136D01*
X92970707Y-80681137D01*
X93081044Y-80735078D01*
X93152577Y-80745500D01*
X93722422Y-80745499D01*
X93793956Y-80735078D01*
X93904293Y-80681137D01*
X93991137Y-80594293D01*
X94045078Y-80483956D01*
X94055500Y-80412423D01*
X94055500Y-80412420D01*
X94644500Y-80412420D01*
X94649095Y-80443956D01*
X94654922Y-80483956D01*
X94681892Y-80539124D01*
X94708862Y-80594292D01*
X94708863Y-80594294D01*
X94795705Y-80681136D01*
X94795707Y-80681137D01*
X94906044Y-80735078D01*
X94977577Y-80745500D01*
X95547422Y-80745499D01*
X95618956Y-80735078D01*
X95729293Y-80681137D01*
X95816137Y-80594293D01*
X95870078Y-80483956D01*
X95870079Y-80483950D01*
X95870898Y-80478333D01*
X95900512Y-80413808D01*
X95960311Y-80375537D01*
X95995581Y-80370500D01*
X96490359Y-80370500D01*
X96558480Y-80390502D01*
X96603556Y-80441162D01*
X96658860Y-80554290D01*
X96658863Y-80554294D01*
X96745705Y-80641136D01*
X96745707Y-80641137D01*
X96856044Y-80695078D01*
X96927577Y-80705500D01*
X97572422Y-80705499D01*
X97643956Y-80695078D01*
X97754293Y-80641137D01*
X97841137Y-80554293D01*
X97895078Y-80443956D01*
X97905500Y-80372423D01*
X97905499Y-79827578D01*
X97895078Y-79756044D01*
X97841137Y-79645707D01*
X97841136Y-79645705D01*
X97754294Y-79558863D01*
X97754292Y-79558862D01*
X97643957Y-79504922D01*
X97626072Y-79502316D01*
X97572423Y-79494500D01*
X97572420Y-79494500D01*
X96927579Y-79494500D01*
X96866465Y-79503403D01*
X96856044Y-79504922D01*
X96856041Y-79504923D01*
X96856042Y-79504923D01*
X96745707Y-79558862D01*
X96745705Y-79558863D01*
X96658863Y-79645705D01*
X96658862Y-79645707D01*
X96604922Y-79756041D01*
X96604922Y-79756042D01*
X96598275Y-79801667D01*
X96568660Y-79866192D01*
X96508862Y-79904463D01*
X96473591Y-79909500D01*
X95995580Y-79909500D01*
X95927459Y-79889498D01*
X95880966Y-79835842D01*
X95870896Y-79801660D01*
X95870078Y-79796044D01*
X95816137Y-79685707D01*
X95816136Y-79685705D01*
X95729294Y-79598863D01*
X95729292Y-79598862D01*
X95618957Y-79544922D01*
X95601072Y-79542316D01*
X95547423Y-79534500D01*
X95547420Y-79534500D01*
X94977579Y-79534500D01*
X94916466Y-79543403D01*
X94906044Y-79544922D01*
X94906041Y-79544923D01*
X94906042Y-79544923D01*
X94795707Y-79598862D01*
X94795705Y-79598863D01*
X94708863Y-79685705D01*
X94708862Y-79685707D01*
X94654922Y-79796041D01*
X94654922Y-79796043D01*
X94644500Y-79867575D01*
X94644500Y-80412420D01*
X94055500Y-80412420D01*
X94055499Y-79867578D01*
X94045078Y-79796044D01*
X93991137Y-79685707D01*
X93991136Y-79685705D01*
X93904294Y-79598863D01*
X93904292Y-79598862D01*
X93793957Y-79544922D01*
X93776072Y-79542316D01*
X93722423Y-79534500D01*
X93722420Y-79534500D01*
X93152579Y-79534500D01*
X93091465Y-79543403D01*
X93081044Y-79544922D01*
X93081043Y-79544922D01*
X93081039Y-79544923D01*
X93020720Y-79574412D01*
X92950736Y-79586361D01*
X92885402Y-79558577D01*
X92876287Y-79550310D01*
X92509994Y-79184017D01*
X92475968Y-79121705D01*
X92474371Y-79076990D01*
X92476718Y-79060668D01*
X92485441Y-79000000D01*
X92485440Y-78999998D01*
X92485441Y-78999996D01*
X92465778Y-78863241D01*
X92465777Y-78863240D01*
X92465777Y-78863235D01*
X92408379Y-78737551D01*
X92408375Y-78737546D01*
X92392124Y-78718790D01*
X92362631Y-78654209D01*
X92372736Y-78583935D01*
X92419228Y-78530282D01*
X92517896Y-78466872D01*
X92528058Y-78455145D01*
X92563721Y-78413988D01*
X92623447Y-78375604D01*
X92658945Y-78370500D01*
X92704420Y-78370500D01*
X92772541Y-78390502D01*
X92819034Y-78444158D01*
X92829103Y-78478339D01*
X92829922Y-78483956D01*
X92845619Y-78516064D01*
X92883862Y-78594292D01*
X92883863Y-78594294D01*
X92970705Y-78681136D01*
X92970707Y-78681137D01*
X93081044Y-78735078D01*
X93152577Y-78745500D01*
X93722422Y-78745499D01*
X93793956Y-78735078D01*
X93904293Y-78681137D01*
X93991137Y-78594293D01*
X94045078Y-78483956D01*
X94055500Y-78412423D01*
X94055500Y-78412420D01*
X94644500Y-78412420D01*
X94649095Y-78443956D01*
X94654922Y-78483956D01*
X94670619Y-78516064D01*
X94708862Y-78594292D01*
X94708863Y-78594294D01*
X94795705Y-78681136D01*
X94795707Y-78681137D01*
X94906044Y-78735078D01*
X94977577Y-78745500D01*
X95547422Y-78745499D01*
X95618956Y-78735078D01*
X95729293Y-78681137D01*
X95816137Y-78594293D01*
X95870078Y-78483956D01*
X95876725Y-78438332D01*
X95906340Y-78373808D01*
X95966138Y-78335537D01*
X96001409Y-78330500D01*
X96479420Y-78330500D01*
X96547541Y-78350502D01*
X96594034Y-78404158D01*
X96604103Y-78438339D01*
X96604922Y-78443956D01*
X96631892Y-78499124D01*
X96658862Y-78554292D01*
X96658863Y-78554294D01*
X96745705Y-78641136D01*
X96745707Y-78641137D01*
X96856044Y-78695078D01*
X96927577Y-78705500D01*
X97572422Y-78705499D01*
X97643956Y-78695078D01*
X97754293Y-78641137D01*
X97841137Y-78554293D01*
X97895078Y-78443956D01*
X97905500Y-78372423D01*
X97905499Y-77827578D01*
X97895078Y-77756044D01*
X97841137Y-77645707D01*
X97841136Y-77645705D01*
X97754294Y-77558863D01*
X97754292Y-77558862D01*
X97643957Y-77504922D01*
X97626072Y-77502316D01*
X97572423Y-77494500D01*
X97572420Y-77494500D01*
X96927579Y-77494500D01*
X96866465Y-77503403D01*
X96856044Y-77504922D01*
X96856041Y-77504923D01*
X96856042Y-77504923D01*
X96745707Y-77558862D01*
X96745705Y-77558863D01*
X96658863Y-77645705D01*
X96658862Y-77645707D01*
X96604922Y-77756041D01*
X96604920Y-77756049D01*
X96604102Y-77761667D01*
X96574488Y-77826192D01*
X96514689Y-77864463D01*
X96479419Y-77869500D01*
X95984641Y-77869500D01*
X95916520Y-77849498D01*
X95871444Y-77798838D01*
X95816139Y-77685709D01*
X95816136Y-77685705D01*
X95729294Y-77598863D01*
X95729292Y-77598862D01*
X95618957Y-77544922D01*
X95601072Y-77542316D01*
X95547423Y-77534500D01*
X95547420Y-77534500D01*
X94977579Y-77534500D01*
X94916466Y-77543403D01*
X94906044Y-77544922D01*
X94906041Y-77544923D01*
X94906042Y-77544923D01*
X94795707Y-77598862D01*
X94795705Y-77598863D01*
X94708863Y-77685705D01*
X94708862Y-77685707D01*
X94654922Y-77796041D01*
X94654922Y-77796043D01*
X94644500Y-77867575D01*
X94644500Y-78412420D01*
X94055500Y-78412420D01*
X94055499Y-77867578D01*
X94045078Y-77796044D01*
X93991137Y-77685707D01*
X93991136Y-77685705D01*
X93904294Y-77598863D01*
X93904292Y-77598862D01*
X93793957Y-77544922D01*
X93776072Y-77542316D01*
X93722423Y-77534500D01*
X93722420Y-77534500D01*
X93152579Y-77534500D01*
X93091465Y-77543403D01*
X93081044Y-77544922D01*
X93081041Y-77544923D01*
X93081042Y-77544923D01*
X92970707Y-77598862D01*
X92970705Y-77598863D01*
X92883863Y-77685705D01*
X92883862Y-77685707D01*
X92829921Y-77796043D01*
X92829228Y-77798289D01*
X92827689Y-77800610D01*
X92825624Y-77804835D01*
X92825069Y-77804563D01*
X92790004Y-77857467D01*
X92725013Y-77886045D01*
X92654889Y-77874950D01*
X92613621Y-77843600D01*
X92517895Y-77733127D01*
X92459777Y-77695777D01*
X92401659Y-77658427D01*
X92358338Y-77645707D01*
X92269085Y-77619500D01*
X92130915Y-77619500D01*
X91998343Y-77658426D01*
X91998339Y-77658428D01*
X91882104Y-77733127D01*
X91791621Y-77837550D01*
X91734223Y-77963234D01*
X91734221Y-77963241D01*
X91714559Y-78099996D01*
X91714559Y-78100003D01*
X91734221Y-78236758D01*
X91734223Y-78236765D01*
X91791621Y-78362449D01*
X91807876Y-78381209D01*
X91837368Y-78445790D01*
X91827263Y-78516064D01*
X91780771Y-78569718D01*
X91682104Y-78633127D01*
X91591621Y-78737550D01*
X91534223Y-78863234D01*
X91534221Y-78863241D01*
X91514559Y-78999996D01*
X91514559Y-79000003D01*
X90085980Y-79000003D01*
X90022405Y-78936428D01*
X89988379Y-78874116D01*
X89985500Y-78847333D01*
X89985500Y-78056145D01*
X90005502Y-77988024D01*
X90050356Y-77949157D01*
X90049599Y-77948025D01*
X90058618Y-77941998D01*
X90059158Y-77941531D01*
X90059616Y-77941331D01*
X90059918Y-77941129D01*
X90059919Y-77941129D01*
X90103086Y-77912286D01*
X90131929Y-77869119D01*
X90139500Y-77831055D01*
X90139500Y-77831053D01*
X90640500Y-77831053D01*
X90648071Y-77869120D01*
X90675052Y-77909500D01*
X90676914Y-77912286D01*
X90720081Y-77941129D01*
X90758145Y-77948700D01*
X91291854Y-77948699D01*
X91329919Y-77941129D01*
X91373086Y-77912286D01*
X91401929Y-77869119D01*
X91409500Y-77831055D01*
X91409500Y-77184100D01*
X91429502Y-77115979D01*
X91483158Y-77069486D01*
X91535500Y-77058100D01*
X92842203Y-77058100D01*
X92845475Y-77058185D01*
X92886764Y-77060349D01*
X92906308Y-77052845D01*
X92925270Y-77047228D01*
X92945747Y-77042877D01*
X92947409Y-77041668D01*
X92976329Y-77025966D01*
X92978244Y-77025232D01*
X92993048Y-77010427D01*
X93008076Y-76997591D01*
X93025022Y-76985281D01*
X93026055Y-76983491D01*
X93046073Y-76957401D01*
X93121073Y-76882401D01*
X93183384Y-76848378D01*
X93210166Y-76845499D01*
X93722421Y-76845499D01*
X93722422Y-76845499D01*
X93793956Y-76835078D01*
X93904293Y-76781137D01*
X93991137Y-76694293D01*
X94045078Y-76583956D01*
X94055500Y-76512423D01*
X94055500Y-76512420D01*
X94644500Y-76512420D01*
X94649095Y-76543956D01*
X94654922Y-76583956D01*
X94661348Y-76597100D01*
X94708862Y-76694292D01*
X94708863Y-76694294D01*
X94795705Y-76781136D01*
X94795707Y-76781137D01*
X94906044Y-76835078D01*
X94977577Y-76845500D01*
X95547422Y-76845499D01*
X95618956Y-76835078D01*
X95729293Y-76781137D01*
X95816137Y-76694293D01*
X95870078Y-76583956D01*
X95870079Y-76583950D01*
X95870898Y-76578333D01*
X95900512Y-76513808D01*
X95960311Y-76475537D01*
X95995581Y-76470500D01*
X96490359Y-76470500D01*
X96558480Y-76490502D01*
X96603556Y-76541162D01*
X96658860Y-76654290D01*
X96658863Y-76654294D01*
X96745705Y-76741136D01*
X96745707Y-76741137D01*
X96856044Y-76795078D01*
X96927577Y-76805500D01*
X97572422Y-76805499D01*
X97643956Y-76795078D01*
X97754293Y-76741137D01*
X97841137Y-76654293D01*
X97895078Y-76543956D01*
X97905500Y-76472423D01*
X97905499Y-75927578D01*
X97895078Y-75856044D01*
X97841137Y-75745707D01*
X97841136Y-75745705D01*
X97754294Y-75658863D01*
X97754292Y-75658862D01*
X97643957Y-75604922D01*
X97626072Y-75602316D01*
X97572423Y-75594500D01*
X97572420Y-75594500D01*
X96927579Y-75594500D01*
X96866465Y-75603403D01*
X96856044Y-75604922D01*
X96856041Y-75604923D01*
X96856042Y-75604923D01*
X96745707Y-75658862D01*
X96745705Y-75658863D01*
X96658863Y-75745705D01*
X96658862Y-75745707D01*
X96604922Y-75856041D01*
X96604922Y-75856042D01*
X96598275Y-75901667D01*
X96568660Y-75966192D01*
X96508862Y-76004463D01*
X96473591Y-76009500D01*
X95995580Y-76009500D01*
X95927459Y-75989498D01*
X95880966Y-75935842D01*
X95870896Y-75901660D01*
X95870078Y-75896047D01*
X95870078Y-75896044D01*
X95816137Y-75785707D01*
X95816136Y-75785705D01*
X95729294Y-75698863D01*
X95729292Y-75698862D01*
X95618957Y-75644922D01*
X95601072Y-75642316D01*
X95547423Y-75634500D01*
X95547420Y-75634500D01*
X94977579Y-75634500D01*
X94916466Y-75643403D01*
X94906044Y-75644922D01*
X94906041Y-75644923D01*
X94906042Y-75644923D01*
X94795707Y-75698862D01*
X94795705Y-75698863D01*
X94708863Y-75785705D01*
X94708862Y-75785707D01*
X94654922Y-75896041D01*
X94654922Y-75896043D01*
X94644500Y-75967575D01*
X94644500Y-76512420D01*
X94055500Y-76512420D01*
X94055499Y-75967578D01*
X94045078Y-75896044D01*
X93991137Y-75785707D01*
X93991136Y-75785705D01*
X93904294Y-75698863D01*
X93904292Y-75698862D01*
X93793957Y-75644922D01*
X93776072Y-75642316D01*
X93722423Y-75634500D01*
X93722420Y-75634500D01*
X93152579Y-75634500D01*
X93091465Y-75643403D01*
X93081044Y-75644922D01*
X93081041Y-75644923D01*
X93081042Y-75644923D01*
X92970707Y-75698862D01*
X92970705Y-75698863D01*
X92883863Y-75785705D01*
X92883862Y-75785707D01*
X92829922Y-75896041D01*
X92829922Y-75896043D01*
X92819500Y-75967575D01*
X92819500Y-75967583D01*
X92819501Y-76471100D01*
X92799499Y-76539221D01*
X92745844Y-76585714D01*
X92693501Y-76597100D01*
X91535499Y-76597100D01*
X91467378Y-76577098D01*
X91420885Y-76523442D01*
X91409499Y-76471100D01*
X91409499Y-75824146D01*
X91409498Y-75824140D01*
X91401929Y-75786081D01*
X91391755Y-75770855D01*
X91373086Y-75742914D01*
X91373085Y-75742913D01*
X91329919Y-75714071D01*
X91310887Y-75710285D01*
X91291856Y-75706500D01*
X90758146Y-75706500D01*
X90720079Y-75714071D01*
X90676914Y-75742913D01*
X90648071Y-75786081D01*
X90640500Y-75824140D01*
X90640500Y-77831053D01*
X90139500Y-77831053D01*
X90139499Y-75824146D01*
X90131929Y-75786081D01*
X90121755Y-75770855D01*
X90103086Y-75742914D01*
X90103085Y-75742913D01*
X90059919Y-75714071D01*
X90052306Y-75712556D01*
X90021859Y-75706500D01*
X90021855Y-75706500D01*
X89627500Y-75706500D01*
X89559379Y-75686498D01*
X89512886Y-75632842D01*
X89501500Y-75580500D01*
X89501500Y-73700003D01*
X90614559Y-73700003D01*
X90634221Y-73836758D01*
X90634223Y-73836765D01*
X90691621Y-73962449D01*
X90782104Y-74066872D01*
X90898341Y-74141573D01*
X91030915Y-74180500D01*
X91169085Y-74180500D01*
X91301659Y-74141573D01*
X91417896Y-74066872D01*
X91508379Y-73962449D01*
X91565777Y-73836765D01*
X91566067Y-73834741D01*
X91585441Y-73700003D01*
X91585441Y-73699996D01*
X91565778Y-73563241D01*
X91565777Y-73563240D01*
X91565777Y-73563235D01*
X91559272Y-73548992D01*
X116064500Y-73548992D01*
X116064501Y-73549016D01*
X116067593Y-73577787D01*
X116067594Y-73577795D01*
X116078982Y-73630145D01*
X116108980Y-73690073D01*
X116146602Y-73733491D01*
X116152292Y-73741687D01*
X116185832Y-73763241D01*
X116219704Y-73785009D01*
X116287825Y-73805011D01*
X116325996Y-73810499D01*
X116325998Y-73810500D01*
X116326000Y-73810500D01*
X125138500Y-73810500D01*
X125206621Y-73830502D01*
X125253114Y-73884158D01*
X125264500Y-73936500D01*
X125264499Y-82290071D01*
X125262499Y-82312431D01*
X125258603Y-82334038D01*
X125257050Y-82340610D01*
X125244990Y-82381687D01*
X125244989Y-82381691D01*
X125244988Y-82381696D01*
X125239500Y-82419869D01*
X125239500Y-85099000D01*
X125239500Y-85099005D01*
X125239501Y-85099016D01*
X125242593Y-85127787D01*
X125242594Y-85127795D01*
X125253982Y-85180145D01*
X125283980Y-85240073D01*
X125321602Y-85283491D01*
X125327292Y-85291687D01*
X125365153Y-85316018D01*
X125394704Y-85335009D01*
X125462825Y-85355011D01*
X125500996Y-85360499D01*
X125500998Y-85360500D01*
X125501000Y-85360500D01*
X130498993Y-85360500D01*
X130499000Y-85360500D01*
X130511085Y-85359200D01*
X130527787Y-85357406D01*
X130527795Y-85357405D01*
X130527797Y-85357404D01*
X130527802Y-85357404D01*
X130580144Y-85346018D01*
X130640075Y-85316018D01*
X130683494Y-85278394D01*
X130691687Y-85272706D01*
X130693731Y-85269525D01*
X130693732Y-85269525D01*
X130735009Y-85205296D01*
X130755011Y-85137175D01*
X130760500Y-85099000D01*
X130760499Y-83461499D01*
X130780501Y-83393379D01*
X130834157Y-83346886D01*
X130886499Y-83335500D01*
X131418500Y-83335500D01*
X131486621Y-83355502D01*
X131533114Y-83409158D01*
X131544500Y-83461500D01*
X131544500Y-84942853D01*
X131552071Y-84980920D01*
X131580913Y-85024085D01*
X131580914Y-85024086D01*
X131624081Y-85052929D01*
X131662145Y-85060500D01*
X132337854Y-85060499D01*
X132375919Y-85052929D01*
X132419086Y-85024086D01*
X132447929Y-84980919D01*
X132455500Y-84942855D01*
X132455500Y-84851499D01*
X132475502Y-84783379D01*
X132529158Y-84736886D01*
X132581500Y-84725500D01*
X135089123Y-84725500D01*
X135157244Y-84745502D01*
X135178218Y-84762405D01*
X135357595Y-84941782D01*
X135391621Y-85004094D01*
X135394500Y-85030877D01*
X135394500Y-85472420D01*
X135401447Y-85520102D01*
X135404922Y-85543956D01*
X135411063Y-85556517D01*
X135458862Y-85654292D01*
X135458863Y-85654294D01*
X135545705Y-85741136D01*
X135545707Y-85741137D01*
X135656044Y-85795078D01*
X135727577Y-85805500D01*
X136297422Y-85805499D01*
X136368956Y-85795078D01*
X136479293Y-85741137D01*
X136566137Y-85654293D01*
X136620078Y-85543956D01*
X136630500Y-85472423D01*
X136630499Y-84927578D01*
X136620078Y-84856044D01*
X136566137Y-84745707D01*
X136566136Y-84745705D01*
X136479294Y-84658863D01*
X136479292Y-84658862D01*
X136368957Y-84604922D01*
X136297424Y-84594500D01*
X136297423Y-84594500D01*
X135855878Y-84594500D01*
X135787757Y-84574498D01*
X135766784Y-84557597D01*
X135759900Y-84550713D01*
X135743281Y-84534094D01*
X135709256Y-84471785D01*
X135714319Y-84400969D01*
X135743279Y-84355906D01*
X136406623Y-83692562D01*
X136413200Y-83686840D01*
X136421957Y-83680225D01*
X136421967Y-83680221D01*
X136429813Y-83671613D01*
X136490485Y-83634747D01*
X136517897Y-83631157D01*
X136517874Y-83630829D01*
X136522413Y-83630500D01*
X136522420Y-83630499D01*
X136522422Y-83630499D01*
X136593956Y-83620078D01*
X136704293Y-83566137D01*
X136791137Y-83479293D01*
X136845078Y-83368956D01*
X136855500Y-83297423D01*
X136855499Y-82727578D01*
X136845078Y-82656044D01*
X136791137Y-82545707D01*
X136791136Y-82545705D01*
X136704294Y-82458863D01*
X136704292Y-82458862D01*
X136593957Y-82404922D01*
X136567970Y-82401136D01*
X136522423Y-82394500D01*
X136522420Y-82394500D01*
X135977579Y-82394500D01*
X135916466Y-82403403D01*
X135906044Y-82404922D01*
X135906041Y-82404923D01*
X135906042Y-82404923D01*
X135795707Y-82458862D01*
X135795705Y-82458863D01*
X135708863Y-82545705D01*
X135708862Y-82545707D01*
X135654922Y-82656041D01*
X135654922Y-82656043D01*
X135644500Y-82727575D01*
X135644500Y-83297420D01*
X135649703Y-83333129D01*
X135654922Y-83368956D01*
X135679632Y-83419500D01*
X135707984Y-83477496D01*
X135719932Y-83547480D01*
X135692147Y-83612814D01*
X135683882Y-83621929D01*
X135178218Y-84127595D01*
X135115905Y-84161620D01*
X135089122Y-84164500D01*
X132581500Y-84164500D01*
X132513379Y-84144498D01*
X132466886Y-84090842D01*
X132455500Y-84038500D01*
X132455499Y-83356858D01*
X132475501Y-83288737D01*
X132498990Y-83261631D01*
X132518731Y-83244526D01*
X132534814Y-83219500D01*
X132560009Y-83180296D01*
X132580011Y-83112175D01*
X132585500Y-83074000D01*
X132585500Y-80761500D01*
X132605502Y-80693379D01*
X132659158Y-80646886D01*
X132711500Y-80635500D01*
X133188500Y-80635500D01*
X133256621Y-80655502D01*
X133303114Y-80709158D01*
X133314500Y-80761500D01*
X133314500Y-81723992D01*
X133314501Y-81724016D01*
X133317593Y-81752787D01*
X133317594Y-81752795D01*
X133328982Y-81805145D01*
X133358980Y-81865073D01*
X133396602Y-81908491D01*
X133402292Y-81916687D01*
X133427625Y-81932967D01*
X133469704Y-81960009D01*
X133537825Y-81980011D01*
X133575996Y-81985499D01*
X133575998Y-81985500D01*
X133576000Y-81985500D01*
X137240084Y-81985500D01*
X137262436Y-81987498D01*
X137267641Y-81988436D01*
X137267643Y-81988437D01*
X137284021Y-81991389D01*
X137290589Y-81992940D01*
X137331691Y-82005010D01*
X137331693Y-82005011D01*
X137344611Y-82006868D01*
X137369865Y-82010499D01*
X137369867Y-82010500D01*
X137369869Y-82010500D01*
X137763500Y-82010500D01*
X137831621Y-82030502D01*
X137878114Y-82084158D01*
X137889500Y-82136500D01*
X137889500Y-82431017D01*
X137889500Y-91374000D01*
X137889500Y-91374005D01*
X137889501Y-91374016D01*
X137892593Y-91402787D01*
X137892594Y-91402795D01*
X137903982Y-91455145D01*
X137933980Y-91515073D01*
X137971602Y-91558491D01*
X137977292Y-91566687D01*
X137998027Y-91580012D01*
X138044704Y-91610009D01*
X138112825Y-91630011D01*
X138150996Y-91635499D01*
X138150998Y-91635500D01*
X138151000Y-91635500D01*
X141423993Y-91635500D01*
X141424000Y-91635500D01*
X141436085Y-91634200D01*
X141452787Y-91632406D01*
X141452795Y-91632405D01*
X141452797Y-91632404D01*
X141452802Y-91632404D01*
X141505144Y-91621018D01*
X141565075Y-91591018D01*
X141608494Y-91553394D01*
X141616687Y-91547706D01*
X141618731Y-91544525D01*
X141618732Y-91544525D01*
X141660009Y-91480296D01*
X141680011Y-91412175D01*
X141685500Y-91374000D01*
X141685500Y-81934923D01*
X141687501Y-81912554D01*
X141688992Y-81904294D01*
X141691401Y-81890935D01*
X141692954Y-81884368D01*
X141705011Y-81843306D01*
X141710499Y-81805137D01*
X141710500Y-81805132D01*
X141710500Y-76876007D01*
X141710500Y-76876000D01*
X141709698Y-76868544D01*
X141707406Y-76847212D01*
X141707405Y-76847204D01*
X141707404Y-76847198D01*
X141696018Y-76794856D01*
X141666018Y-76734925D01*
X141628398Y-76691509D01*
X141622707Y-76683312D01*
X141555296Y-76639991D01*
X141487180Y-76619990D01*
X141487165Y-76619987D01*
X141449004Y-76614500D01*
X141449000Y-76614500D01*
X137426000Y-76614500D01*
X137425997Y-76614500D01*
X137425973Y-76614501D01*
X137424947Y-76614612D01*
X137424711Y-76614569D01*
X137422629Y-76614681D01*
X137422602Y-76614188D01*
X137355081Y-76601995D01*
X137303127Y-76553607D01*
X137285500Y-76489332D01*
X137285500Y-73801007D01*
X137285500Y-73801000D01*
X137282404Y-73772198D01*
X137271018Y-73719856D01*
X137241018Y-73659925D01*
X137203398Y-73616509D01*
X137197707Y-73608312D01*
X137130296Y-73564991D01*
X137062180Y-73544990D01*
X137062165Y-73544987D01*
X137024004Y-73539500D01*
X137024000Y-73539500D01*
X130201000Y-73539500D01*
X130200995Y-73539500D01*
X130200983Y-73539501D01*
X130172212Y-73542593D01*
X130172204Y-73542594D01*
X130119854Y-73553982D01*
X130059924Y-73583981D01*
X130059922Y-73583982D01*
X130016507Y-73621602D01*
X130008313Y-73627291D01*
X129964991Y-73694703D01*
X129944990Y-73762819D01*
X129944987Y-73762834D01*
X129939500Y-73800995D01*
X129939500Y-80373992D01*
X129939501Y-80374016D01*
X129942593Y-80402787D01*
X129942594Y-80402795D01*
X129953982Y-80455145D01*
X129983980Y-80515073D01*
X130021602Y-80558491D01*
X130027292Y-80566687D01*
X130068628Y-80593251D01*
X130094704Y-80610009D01*
X130162825Y-80630011D01*
X130200996Y-80635499D01*
X130200998Y-80635500D01*
X130201000Y-80635500D01*
X130313500Y-80635500D01*
X130381621Y-80655502D01*
X130428114Y-80709158D01*
X130439500Y-80761500D01*
X130439500Y-82098999D01*
X130419498Y-82167120D01*
X130365842Y-82213613D01*
X130313500Y-82224999D01*
X129787896Y-82224999D01*
X129763324Y-82222579D01*
X129744703Y-82218876D01*
X129744694Y-82218874D01*
X129744685Y-82218873D01*
X129742978Y-82218619D01*
X129678537Y-82188821D01*
X129640436Y-82128914D01*
X129635500Y-82093995D01*
X129635500Y-81544000D01*
X129634234Y-81532219D01*
X129632406Y-81515212D01*
X129632405Y-81515204D01*
X129632404Y-81515198D01*
X129621018Y-81462856D01*
X129591018Y-81402925D01*
X129553398Y-81359509D01*
X129547707Y-81351312D01*
X129480296Y-81307991D01*
X129412180Y-81287990D01*
X129412165Y-81287987D01*
X129374004Y-81282500D01*
X129374000Y-81282500D01*
X128931500Y-81282500D01*
X128931495Y-81282500D01*
X128931483Y-81282501D01*
X128902712Y-81285593D01*
X128902704Y-81285594D01*
X128850354Y-81296982D01*
X128790425Y-81326981D01*
X128736772Y-81373472D01*
X128736768Y-81373476D01*
X128695492Y-81437700D01*
X128695491Y-81437704D01*
X128675490Y-81505819D01*
X128675487Y-81505833D01*
X128670000Y-81543994D01*
X128669679Y-81548486D01*
X128669456Y-81548470D01*
X128668683Y-81559145D01*
X128666884Y-81571488D01*
X128655398Y-81608654D01*
X128638568Y-81643080D01*
X128614466Y-81676836D01*
X128589335Y-81701967D01*
X128555579Y-81726069D01*
X128521159Y-81742896D01*
X128483989Y-81754382D01*
X128471637Y-81756182D01*
X128453468Y-81757499D01*
X127946522Y-81757499D01*
X127928352Y-81756182D01*
X127927015Y-81755987D01*
X127916014Y-81754384D01*
X127878846Y-81742898D01*
X127844418Y-81726067D01*
X127810663Y-81701967D01*
X127785532Y-81676837D01*
X127761428Y-81643078D01*
X127744598Y-81608650D01*
X127733114Y-81571478D01*
X127731316Y-81559137D01*
X127730000Y-81540977D01*
X127730000Y-80909024D01*
X127731315Y-80890866D01*
X127732335Y-80883862D01*
X127733114Y-80878515D01*
X127744598Y-80841347D01*
X127761432Y-80806913D01*
X127785527Y-80773166D01*
X127810665Y-80748028D01*
X127844412Y-80723933D01*
X127878846Y-80707099D01*
X127916015Y-80695615D01*
X127925220Y-80694273D01*
X127928372Y-80693815D01*
X127946530Y-80692500D01*
X128453467Y-80692500D01*
X128471623Y-80693814D01*
X128483983Y-80695615D01*
X128521157Y-80707101D01*
X128525363Y-80709158D01*
X128555578Y-80723929D01*
X128589333Y-80748029D01*
X128614465Y-80773160D01*
X128638567Y-80806916D01*
X128657602Y-80845851D01*
X128657608Y-80845862D01*
X128678104Y-80876411D01*
X128678107Y-80876415D01*
X128723178Y-80927067D01*
X128723186Y-80927074D01*
X128756254Y-80948019D01*
X128786235Y-80967009D01*
X128786237Y-80967009D01*
X128786238Y-80967010D01*
X128798829Y-80970707D01*
X128854356Y-80987011D01*
X128892527Y-80992499D01*
X128892529Y-80992500D01*
X128892531Y-80992500D01*
X129373993Y-80992500D01*
X129374000Y-80992500D01*
X129386085Y-80991200D01*
X129402787Y-80989406D01*
X129402795Y-80989405D01*
X129402797Y-80989404D01*
X129402802Y-80989404D01*
X129455144Y-80978018D01*
X129515075Y-80948018D01*
X129558494Y-80910394D01*
X129566687Y-80904706D01*
X129568731Y-80901525D01*
X129568732Y-80901525D01*
X129610009Y-80837296D01*
X129630011Y-80769175D01*
X129635500Y-80731000D01*
X129635500Y-73675000D01*
X129635500Y-69850999D01*
X129632403Y-69822197D01*
X129630366Y-69812834D01*
X129621017Y-69769857D01*
X129621016Y-69769853D01*
X129606000Y-69739856D01*
X129591018Y-69709925D01*
X129553396Y-69666507D01*
X129547707Y-69658312D01*
X129480296Y-69614991D01*
X129412180Y-69594990D01*
X129412165Y-69594987D01*
X129374004Y-69589500D01*
X129374000Y-69589500D01*
X116326000Y-69589500D01*
X116325995Y-69589500D01*
X116325983Y-69589501D01*
X116297212Y-69592593D01*
X116297204Y-69592594D01*
X116244854Y-69603982D01*
X116184924Y-69633981D01*
X116184922Y-69633982D01*
X116141507Y-69671602D01*
X116133313Y-69677291D01*
X116089991Y-69744703D01*
X116069990Y-69812819D01*
X116069987Y-69812834D01*
X116064500Y-69850995D01*
X116064500Y-73548992D01*
X91559272Y-73548992D01*
X91508379Y-73437551D01*
X91417896Y-73333128D01*
X91388376Y-73314156D01*
X91341885Y-73260499D01*
X91330500Y-73208160D01*
X91330500Y-73079463D01*
X91350502Y-73011342D01*
X91367405Y-72990368D01*
X91373083Y-72984689D01*
X91373084Y-72984687D01*
X91373086Y-72984686D01*
X91401929Y-72941519D01*
X91409500Y-72903455D01*
X91409499Y-70896546D01*
X91401929Y-70858481D01*
X91399993Y-70855584D01*
X91373086Y-70815314D01*
X91373085Y-70815313D01*
X91329919Y-70786471D01*
X91310887Y-70782685D01*
X91291856Y-70778900D01*
X90758146Y-70778900D01*
X90720079Y-70786471D01*
X90676914Y-70815313D01*
X90648071Y-70858481D01*
X90640500Y-70896540D01*
X90640500Y-72903453D01*
X90648071Y-72941520D01*
X90676913Y-72984685D01*
X90676914Y-72984686D01*
X90720081Y-73013529D01*
X90758145Y-73021100D01*
X90764217Y-73022308D01*
X90763858Y-73024111D01*
X90821668Y-73047445D01*
X90862686Y-73105393D01*
X90869500Y-73146267D01*
X90869500Y-73208160D01*
X90849498Y-73276281D01*
X90811624Y-73314156D01*
X90782105Y-73333127D01*
X90782101Y-73333131D01*
X90691621Y-73437550D01*
X90634223Y-73563234D01*
X90634221Y-73563241D01*
X90614559Y-73699996D01*
X90614559Y-73700003D01*
X89501500Y-73700003D01*
X89501500Y-73147099D01*
X89521502Y-73078978D01*
X89575158Y-73032485D01*
X89627500Y-73021099D01*
X90021853Y-73021099D01*
X90021854Y-73021099D01*
X90059919Y-73013529D01*
X90103086Y-72984686D01*
X90131929Y-72941519D01*
X90139500Y-72903455D01*
X90139499Y-70896546D01*
X90131929Y-70858481D01*
X90129993Y-70855584D01*
X90103086Y-70815314D01*
X90103085Y-70815313D01*
X90059919Y-70786471D01*
X90040887Y-70782685D01*
X90021856Y-70778900D01*
X89488146Y-70778900D01*
X89450079Y-70786471D01*
X89406914Y-70815313D01*
X89378071Y-70858481D01*
X89370500Y-70896540D01*
X89370500Y-71906332D01*
X89350498Y-71974453D01*
X89333595Y-71995427D01*
X89225595Y-72103427D01*
X89163283Y-72137453D01*
X89092468Y-72132388D01*
X89035632Y-72089841D01*
X89010821Y-72023321D01*
X89010500Y-72014332D01*
X89010500Y-70926007D01*
X89010500Y-70926000D01*
X89007404Y-70897198D01*
X88996018Y-70844856D01*
X88966018Y-70784925D01*
X88928398Y-70741509D01*
X88922707Y-70733312D01*
X88855296Y-70689991D01*
X88787180Y-70669990D01*
X88787165Y-70669987D01*
X88749004Y-70664500D01*
X88749000Y-70664500D01*
X87725499Y-70664500D01*
X87725494Y-70664500D01*
X87725482Y-70664501D01*
X87696711Y-70667593D01*
X87696703Y-70667594D01*
X87644353Y-70678982D01*
X87584424Y-70708981D01*
X87530771Y-70755472D01*
X87530767Y-70755476D01*
X87489491Y-70819700D01*
X87489490Y-70819704D01*
X87469489Y-70887819D01*
X87469486Y-70887833D01*
X87463999Y-70925994D01*
X87463999Y-72759599D01*
X87443997Y-72827720D01*
X87390341Y-72874213D01*
X87337999Y-72885599D01*
X87092000Y-72885599D01*
X87023879Y-72865597D01*
X86977386Y-72811941D01*
X86966000Y-72759599D01*
X86966000Y-70926007D01*
X86966000Y-70926000D01*
X86962904Y-70897198D01*
X86951518Y-70844856D01*
X86921518Y-70784925D01*
X86883898Y-70741509D01*
X86878207Y-70733312D01*
X86810796Y-70689991D01*
X86742680Y-70669990D01*
X86742665Y-70669987D01*
X86704504Y-70664500D01*
X86704500Y-70664500D01*
X85701000Y-70664500D01*
X85700995Y-70664500D01*
X85700983Y-70664501D01*
X85672212Y-70667593D01*
X85672204Y-70667594D01*
X85619854Y-70678982D01*
X85559924Y-70708981D01*
X85559922Y-70708982D01*
X85516507Y-70746602D01*
X85508313Y-70752291D01*
X85464991Y-70819703D01*
X85444990Y-70887819D01*
X85444987Y-70887834D01*
X85439500Y-70925995D01*
X85439500Y-77823992D01*
X85439501Y-77824016D01*
X85442593Y-77852787D01*
X85442594Y-77852795D01*
X85453982Y-77905145D01*
X85483980Y-77965073D01*
X85521602Y-78008491D01*
X85527292Y-78016687D01*
X85549630Y-78031042D01*
X85594704Y-78060009D01*
X85662825Y-78080011D01*
X85700996Y-78085499D01*
X85700998Y-78085500D01*
X85701000Y-78085500D01*
X85723500Y-78085500D01*
X85791621Y-78105502D01*
X85838114Y-78159158D01*
X85849500Y-78211500D01*
X85849500Y-78686319D01*
X85829498Y-78754440D01*
X85775842Y-78800933D01*
X85705568Y-78811037D01*
X85640988Y-78781543D01*
X85613574Y-78744924D01*
X85613251Y-78745132D01*
X85610346Y-78740613D01*
X85608887Y-78738663D01*
X85608379Y-78737551D01*
X85608378Y-78737550D01*
X85592123Y-78718790D01*
X85517896Y-78633128D01*
X85517895Y-78633127D01*
X85419228Y-78569718D01*
X85401659Y-78558427D01*
X85387583Y-78554294D01*
X85269085Y-78519500D01*
X85130915Y-78519500D01*
X85130911Y-78519501D01*
X85121996Y-78520783D01*
X85121572Y-78517836D01*
X85065565Y-78517819D01*
X85012006Y-78486029D01*
X84942405Y-78416428D01*
X84908379Y-78354116D01*
X84905500Y-78327333D01*
X84905500Y-78056145D01*
X84925502Y-77988024D01*
X84970356Y-77949157D01*
X84969599Y-77948025D01*
X84978618Y-77941998D01*
X84979158Y-77941531D01*
X84979616Y-77941331D01*
X84979918Y-77941129D01*
X84979919Y-77941129D01*
X85023086Y-77912286D01*
X85051929Y-77869119D01*
X85059500Y-77831055D01*
X85059499Y-75824146D01*
X85051929Y-75786081D01*
X85041755Y-75770855D01*
X85023086Y-75742914D01*
X85023085Y-75742913D01*
X84979919Y-75714071D01*
X84972306Y-75712556D01*
X84941859Y-75706500D01*
X84941855Y-75706500D01*
X84547500Y-75706500D01*
X84479379Y-75686498D01*
X84432886Y-75632842D01*
X84421500Y-75580500D01*
X84421500Y-73147099D01*
X84441502Y-73078978D01*
X84495158Y-73032485D01*
X84547500Y-73021099D01*
X84941853Y-73021099D01*
X84941854Y-73021099D01*
X84979919Y-73013529D01*
X85023086Y-72984686D01*
X85051929Y-72941519D01*
X85059500Y-72903455D01*
X85059499Y-70896546D01*
X85051929Y-70858481D01*
X85049993Y-70855584D01*
X85023086Y-70815314D01*
X85023085Y-70815313D01*
X84979919Y-70786471D01*
X84960887Y-70782685D01*
X84941856Y-70778900D01*
X84408146Y-70778900D01*
X84370079Y-70786471D01*
X84326914Y-70815313D01*
X84298071Y-70858481D01*
X84290500Y-70896540D01*
X84290500Y-71906332D01*
X84270498Y-71974453D01*
X84253599Y-71995422D01*
X84116634Y-72132388D01*
X84033458Y-72215564D01*
X84031066Y-72217834D01*
X83999811Y-72245977D01*
X83935804Y-72276695D01*
X83865350Y-72267932D01*
X83810818Y-72222470D01*
X83789522Y-72154743D01*
X83789499Y-72152407D01*
X83789499Y-70896546D01*
X83781929Y-70858481D01*
X83779993Y-70855584D01*
X83753086Y-70815314D01*
X83753085Y-70815313D01*
X83709919Y-70786471D01*
X83702146Y-70784925D01*
X83671859Y-70778900D01*
X83422375Y-70778900D01*
X83354254Y-70758898D01*
X83307761Y-70705242D01*
X83297657Y-70634968D01*
X83327151Y-70570388D01*
X83333250Y-70563835D01*
X84379684Y-69517402D01*
X84441994Y-69483379D01*
X84468777Y-69480500D01*
X107648945Y-69480500D01*
X107717066Y-69500502D01*
X107738040Y-69517405D01*
X108330040Y-70109405D01*
X108364066Y-70171717D01*
X108359001Y-70242532D01*
X108316454Y-70299368D01*
X108249934Y-70324179D01*
X108240945Y-70324500D01*
X107258646Y-70324500D01*
X107222907Y-70327312D01*
X107222906Y-70327312D01*
X107069926Y-70371758D01*
X106932816Y-70452845D01*
X106932809Y-70452850D01*
X106820172Y-70565487D01*
X106820167Y-70565494D01*
X106739080Y-70702604D01*
X106694634Y-70855584D01*
X106694634Y-70855585D01*
X106691822Y-70891324D01*
X106691822Y-72018676D01*
X106694634Y-72054414D01*
X106694634Y-72054415D01*
X106739080Y-72207395D01*
X106820167Y-72344505D01*
X106820172Y-72344512D01*
X106932809Y-72457149D01*
X106932816Y-72457154D01*
X107069926Y-72538241D01*
X107069927Y-72538241D01*
X107069930Y-72538243D01*
X107222906Y-72582687D01*
X107230054Y-72583249D01*
X107258646Y-72585500D01*
X107258650Y-72585500D01*
X112885998Y-72585500D01*
X112909823Y-72583624D01*
X112921738Y-72582687D01*
X113074714Y-72538243D01*
X113211831Y-72457152D01*
X113324474Y-72344509D01*
X113405565Y-72207392D01*
X113450009Y-72054416D01*
X113452822Y-72018672D01*
X113452822Y-70891328D01*
X113452546Y-70887825D01*
X113450009Y-70855585D01*
X113450009Y-70855584D01*
X113439585Y-70819704D01*
X113405565Y-70702608D01*
X113398103Y-70689991D01*
X113324476Y-70565494D01*
X113324471Y-70565487D01*
X113211834Y-70452850D01*
X113211827Y-70452845D01*
X113074717Y-70371758D01*
X112921736Y-70327312D01*
X112885998Y-70324500D01*
X112885994Y-70324500D01*
X109390699Y-70324500D01*
X109322578Y-70304498D01*
X109301604Y-70287595D01*
X108680517Y-69666508D01*
X108057389Y-69043380D01*
X108051661Y-69036797D01*
X108045041Y-69028030D01*
X108012148Y-68998045D01*
X108010064Y-68996055D01*
X107997286Y-68983277D01*
X107995514Y-68982063D01*
X107988674Y-68976645D01*
X107967544Y-68957383D01*
X107967542Y-68957382D01*
X107967540Y-68957380D01*
X107962626Y-68955477D01*
X107936934Y-68941934D01*
X107932588Y-68938957D01*
X107932581Y-68938953D01*
X107904753Y-68932409D01*
X107896414Y-68929827D01*
X107869757Y-68919500D01*
X107869756Y-68919500D01*
X107864485Y-68919500D01*
X107835637Y-68916153D01*
X107830499Y-68914944D01*
X107802182Y-68918895D01*
X107793468Y-68919500D01*
X84359410Y-68919500D01*
X84350693Y-68918895D01*
X84339824Y-68917378D01*
X84339823Y-68917378D01*
X84295369Y-68919433D01*
X84292459Y-68919500D01*
X84274407Y-68919500D01*
X84274405Y-68919500D01*
X84274389Y-68919501D01*
X84272273Y-68919897D01*
X84263618Y-68920900D01*
X84235071Y-68922220D01*
X84235059Y-68922223D01*
X84230228Y-68924356D01*
X84202513Y-68932938D01*
X84197320Y-68933909D01*
X84197312Y-68933912D01*
X84173013Y-68948958D01*
X84165288Y-68953029D01*
X84139136Y-68964577D01*
X84139132Y-68964580D01*
X84135398Y-68968314D01*
X84112649Y-68986333D01*
X84108157Y-68989114D01*
X84108153Y-68989118D01*
X84090920Y-69011937D01*
X84085188Y-69018524D01*
X79676118Y-73427595D01*
X79613806Y-73461620D01*
X79587023Y-73464500D01*
X77401000Y-73464500D01*
X77400995Y-73464500D01*
X77400983Y-73464501D01*
X77372212Y-73467593D01*
X77372191Y-73467597D01*
X77358280Y-73470623D01*
X77287465Y-73465557D01*
X77230630Y-73423008D01*
X77205821Y-73356488D01*
X77205500Y-73347502D01*
X77205500Y-72506499D01*
X77225502Y-72438378D01*
X77279158Y-72391885D01*
X77331500Y-72380499D01*
X77937853Y-72380499D01*
X77937854Y-72380499D01*
X77975919Y-72372929D01*
X78019086Y-72344086D01*
X78047929Y-72300919D01*
X78055500Y-72262855D01*
X78055499Y-70237146D01*
X78047929Y-70199081D01*
X78019086Y-70155914D01*
X77975919Y-70127071D01*
X77956887Y-70123285D01*
X77937856Y-70119500D01*
X75912146Y-70119500D01*
X75874079Y-70127071D01*
X75830914Y-70155913D01*
X75802071Y-70199081D01*
X75794500Y-70237140D01*
X75794500Y-72262853D01*
X75802071Y-72300920D01*
X75824847Y-72335006D01*
X75830914Y-72344086D01*
X75874081Y-72372929D01*
X75912145Y-72380500D01*
X76518500Y-72380499D01*
X76586621Y-72400501D01*
X76633114Y-72454157D01*
X76644500Y-72506499D01*
X76644500Y-73288500D01*
X76624498Y-73356621D01*
X76570842Y-73403114D01*
X76518500Y-73414500D01*
X71601000Y-73414500D01*
X71600995Y-73414500D01*
X71600983Y-73414501D01*
X71572212Y-73417593D01*
X71572204Y-73417594D01*
X71519854Y-73428982D01*
X71459924Y-73458981D01*
X71459922Y-73458982D01*
X71416507Y-73496602D01*
X71408313Y-73502291D01*
X71364991Y-73569703D01*
X71344990Y-73637819D01*
X71344987Y-73637834D01*
X71339500Y-73675995D01*
X71339500Y-78373992D01*
X71339501Y-78374016D01*
X71342593Y-78402787D01*
X71342594Y-78402795D01*
X71353982Y-78455145D01*
X71383980Y-78515073D01*
X71421602Y-78558491D01*
X71427292Y-78566687D01*
X71468628Y-78593251D01*
X71494704Y-78610009D01*
X71562825Y-78630011D01*
X71600996Y-78635499D01*
X71600998Y-78635500D01*
X71601000Y-78635500D01*
X76213500Y-78635500D01*
X76281621Y-78655502D01*
X76328114Y-78709158D01*
X76339500Y-78761500D01*
X76339500Y-85116562D01*
X76319498Y-85184683D01*
X76265842Y-85231176D01*
X76195568Y-85241280D01*
X76130988Y-85211786D01*
X76124405Y-85205657D01*
X76094106Y-85175358D01*
X76088370Y-85168767D01*
X76074979Y-85151033D01*
X76049891Y-85084617D01*
X76049531Y-85075104D01*
X76049531Y-84994117D01*
X76047653Y-84984676D01*
X76041961Y-84956052D01*
X76040695Y-84954158D01*
X76013118Y-84912885D01*
X76013117Y-84912885D01*
X75969951Y-84884042D01*
X75958594Y-84881783D01*
X75931891Y-84876471D01*
X74673828Y-84876471D01*
X74605707Y-84856469D01*
X74559214Y-84802813D01*
X74549110Y-84732539D01*
X74578603Y-84667960D01*
X74583379Y-84662449D01*
X74640777Y-84536765D01*
X74655156Y-84436758D01*
X74660441Y-84400003D01*
X74660441Y-84399996D01*
X74640778Y-84263241D01*
X74640777Y-84263240D01*
X74640777Y-84263235D01*
X74583379Y-84137551D01*
X74501221Y-84042736D01*
X74471729Y-83978156D01*
X74481832Y-83907882D01*
X74528325Y-83854226D01*
X74541108Y-83847027D01*
X74604290Y-83816139D01*
X74604294Y-83816136D01*
X74691136Y-83729294D01*
X74691137Y-83729293D01*
X74745078Y-83618956D01*
X74755500Y-83547423D01*
X74755499Y-82977578D01*
X74745078Y-82906044D01*
X74691137Y-82795707D01*
X74691136Y-82795705D01*
X74604294Y-82708863D01*
X74604292Y-82708862D01*
X74493957Y-82654922D01*
X74476072Y-82652316D01*
X74422423Y-82644500D01*
X74422420Y-82644500D01*
X73877579Y-82644500D01*
X73816466Y-82653403D01*
X73806044Y-82654922D01*
X73806041Y-82654923D01*
X73806042Y-82654923D01*
X73695707Y-82708862D01*
X73695705Y-82708863D01*
X73608863Y-82795705D01*
X73608862Y-82795707D01*
X73554922Y-82906041D01*
X73554922Y-82906043D01*
X73544500Y-82977575D01*
X73544500Y-83547420D01*
X73547227Y-83566136D01*
X73554922Y-83618956D01*
X73567907Y-83645517D01*
X73608862Y-83729292D01*
X73608863Y-83729294D01*
X73695705Y-83816136D01*
X73695707Y-83816137D01*
X73794014Y-83864197D01*
X73846428Y-83912085D01*
X73864631Y-83980708D01*
X73842845Y-84048279D01*
X73833900Y-84059906D01*
X73766621Y-84137550D01*
X73709223Y-84263234D01*
X73709221Y-84263241D01*
X73689559Y-84399996D01*
X73689559Y-84400003D01*
X73709221Y-84536758D01*
X73709223Y-84536765D01*
X73766621Y-84662449D01*
X73857104Y-84766872D01*
X73973341Y-84841573D01*
X74105915Y-84880500D01*
X74105916Y-84880500D01*
X74114836Y-84881783D01*
X74114514Y-84884018D01*
X74170653Y-84900502D01*
X74217146Y-84954158D01*
X74228532Y-85006500D01*
X74228532Y-85669824D01*
X74236103Y-85707891D01*
X74255533Y-85736970D01*
X74276747Y-85804723D01*
X74257963Y-85873190D01*
X74255533Y-85876971D01*
X74236103Y-85906050D01*
X74228532Y-85944111D01*
X74228532Y-86619824D01*
X74236103Y-86657891D01*
X74255533Y-86686970D01*
X74276747Y-86754723D01*
X74257963Y-86823190D01*
X74255533Y-86826971D01*
X74236103Y-86856050D01*
X74228532Y-86894111D01*
X74228532Y-87569824D01*
X74236103Y-87607891D01*
X74264945Y-87651056D01*
X74264946Y-87651057D01*
X74308113Y-87679900D01*
X74346177Y-87687471D01*
X74537905Y-87687470D01*
X74606024Y-87707472D01*
X74652517Y-87761127D01*
X74662622Y-87831401D01*
X74633129Y-87895982D01*
X74626999Y-87902565D01*
X73902422Y-88627143D01*
X73895837Y-88632874D01*
X73877756Y-88646530D01*
X73875771Y-88643902D01*
X73831415Y-88670853D01*
X73760441Y-88669062D01*
X73709882Y-88638195D01*
X73693882Y-88622195D01*
X73659856Y-88559883D01*
X73658260Y-88515168D01*
X73660441Y-88500000D01*
X73660441Y-88499998D01*
X73660441Y-88499996D01*
X73640778Y-88363241D01*
X73640777Y-88363240D01*
X73640777Y-88363235D01*
X73583379Y-88237551D01*
X73492896Y-88133128D01*
X73492895Y-88133127D01*
X73434777Y-88095777D01*
X73376659Y-88058427D01*
X73244085Y-88019500D01*
X73105915Y-88019500D01*
X72973343Y-88058426D01*
X72973339Y-88058428D01*
X72857104Y-88133127D01*
X72766621Y-88237550D01*
X72709223Y-88363234D01*
X72709221Y-88363241D01*
X72689559Y-88499996D01*
X72689559Y-88500003D01*
X72709221Y-88636758D01*
X72709223Y-88636765D01*
X72766621Y-88762449D01*
X72779438Y-88777241D01*
X72808931Y-88841822D01*
X72798826Y-88912096D01*
X72752333Y-88965751D01*
X72684213Y-88985753D01*
X71785532Y-88985753D01*
X71717411Y-88965751D01*
X71670918Y-88912095D01*
X71659532Y-88859753D01*
X71659532Y-86863470D01*
X71679534Y-86795349D01*
X71733190Y-86748856D01*
X71785532Y-86737470D01*
X73231885Y-86737470D01*
X73231886Y-86737470D01*
X73269951Y-86729900D01*
X73313118Y-86701057D01*
X73341961Y-86657890D01*
X73349532Y-86619826D01*
X73349531Y-85944117D01*
X73341961Y-85906052D01*
X73341960Y-85906050D01*
X73341959Y-85906047D01*
X73322531Y-85876971D01*
X73301316Y-85809218D01*
X73320099Y-85740752D01*
X73322518Y-85736988D01*
X73341961Y-85707890D01*
X73349532Y-85669826D01*
X73349531Y-84994117D01*
X73341961Y-84956052D01*
X73340695Y-84954158D01*
X73313118Y-84912885D01*
X73313117Y-84912885D01*
X73269951Y-84884042D01*
X73258594Y-84881783D01*
X73231891Y-84876471D01*
X72587178Y-84876471D01*
X72519057Y-84856469D01*
X72472564Y-84802813D01*
X72462460Y-84732539D01*
X72491954Y-84667959D01*
X72491954Y-84667958D01*
X72492893Y-84666873D01*
X72492896Y-84666872D01*
X72583379Y-84562449D01*
X72640777Y-84436765D01*
X72654344Y-84342404D01*
X72660441Y-84300003D01*
X72660441Y-84299996D01*
X72640778Y-84163241D01*
X72640777Y-84163240D01*
X72640777Y-84163235D01*
X72583379Y-84037551D01*
X72539432Y-83986834D01*
X72509940Y-83922254D01*
X72520043Y-83851980D01*
X72566536Y-83798324D01*
X72579281Y-83791145D01*
X72579294Y-83791136D01*
X72666136Y-83704294D01*
X72666137Y-83704293D01*
X72720078Y-83593956D01*
X72730500Y-83522423D01*
X72730499Y-82952578D01*
X72720078Y-82881044D01*
X72666137Y-82770707D01*
X72666136Y-82770705D01*
X72579294Y-82683863D01*
X72579292Y-82683862D01*
X72468957Y-82629922D01*
X72451072Y-82627316D01*
X72397423Y-82619500D01*
X72397420Y-82619500D01*
X71852579Y-82619500D01*
X71797985Y-82627454D01*
X71781044Y-82629922D01*
X71781041Y-82629923D01*
X71781042Y-82629923D01*
X71670707Y-82683862D01*
X71670705Y-82683863D01*
X71583863Y-82770705D01*
X71583862Y-82770707D01*
X71529922Y-82881041D01*
X71529922Y-82881043D01*
X71519500Y-82952575D01*
X71519500Y-83522420D01*
X71525869Y-83566136D01*
X71529922Y-83593956D01*
X71547948Y-83630829D01*
X71583862Y-83704292D01*
X71583863Y-83704294D01*
X71670705Y-83791136D01*
X71670707Y-83791137D01*
X71740925Y-83825465D01*
X71793339Y-83873353D01*
X71811542Y-83941976D01*
X71789756Y-84009547D01*
X71780812Y-84021173D01*
X71766621Y-84037550D01*
X71709223Y-84163234D01*
X71709221Y-84163241D01*
X71689559Y-84299996D01*
X71689559Y-84300003D01*
X71709221Y-84436758D01*
X71709223Y-84436765D01*
X71766621Y-84562449D01*
X71766621Y-84562450D01*
X71858045Y-84667958D01*
X71887538Y-84732539D01*
X71877435Y-84802813D01*
X71830942Y-84856469D01*
X71762822Y-84876471D01*
X71646179Y-84876471D01*
X71608111Y-84884042D01*
X71556006Y-84918858D01*
X71488253Y-84940072D01*
X71419786Y-84921288D01*
X71396910Y-84903187D01*
X70836126Y-84342403D01*
X70263120Y-83769397D01*
X70257392Y-83762814D01*
X70250772Y-83754047D01*
X70217879Y-83724062D01*
X70215795Y-83722072D01*
X70203017Y-83709294D01*
X70201245Y-83708080D01*
X70194405Y-83702662D01*
X70173275Y-83683400D01*
X70173273Y-83683399D01*
X70173271Y-83683397D01*
X70168357Y-83681494D01*
X70142665Y-83667951D01*
X70138319Y-83664974D01*
X70138312Y-83664970D01*
X70110484Y-83658426D01*
X70102145Y-83655844D01*
X70075488Y-83645517D01*
X70075487Y-83645517D01*
X70070216Y-83645517D01*
X70041368Y-83642170D01*
X70036230Y-83640961D01*
X70007913Y-83644912D01*
X69999199Y-83645517D01*
X68654552Y-83645517D01*
X68586431Y-83625515D01*
X68539938Y-83571859D01*
X68528552Y-83519517D01*
X68528552Y-82413163D01*
X68526160Y-82401136D01*
X68520982Y-82375098D01*
X68507081Y-82354294D01*
X68492139Y-82331931D01*
X68487981Y-82329153D01*
X68448972Y-82303088D01*
X68429939Y-82299302D01*
X68410909Y-82295517D01*
X66885199Y-82295517D01*
X66847132Y-82303088D01*
X66803967Y-82331930D01*
X66775124Y-82375098D01*
X66767553Y-82413157D01*
X66767553Y-85438870D01*
X63907365Y-85438870D01*
X63904673Y-79872420D01*
X71494500Y-79872420D01*
X71499902Y-79909500D01*
X71504922Y-79943956D01*
X71504923Y-79943958D01*
X71558862Y-80054292D01*
X71558863Y-80054294D01*
X71645705Y-80141136D01*
X71645706Y-80141136D01*
X71645707Y-80141137D01*
X71748840Y-80191556D01*
X71801253Y-80239442D01*
X71819500Y-80304752D01*
X71819500Y-80707468D01*
X71799498Y-80775589D01*
X71748840Y-80820665D01*
X71670705Y-80858863D01*
X71583863Y-80945705D01*
X71583862Y-80945707D01*
X71529922Y-81056041D01*
X71529922Y-81056043D01*
X71519500Y-81127575D01*
X71519500Y-81697420D01*
X71523373Y-81724000D01*
X71529922Y-81768956D01*
X71547614Y-81805145D01*
X71583862Y-81879292D01*
X71583863Y-81879294D01*
X71670705Y-81966136D01*
X71670707Y-81966137D01*
X71781044Y-82020078D01*
X71852577Y-82030500D01*
X72397422Y-82030499D01*
X72468956Y-82020078D01*
X72579293Y-81966137D01*
X72666137Y-81879293D01*
X72720078Y-81768956D01*
X72730500Y-81697423D01*
X72730499Y-81127578D01*
X72720078Y-81056044D01*
X72666137Y-80945707D01*
X72666136Y-80945705D01*
X72579294Y-80858863D01*
X72579292Y-80858862D01*
X72460165Y-80800624D01*
X72460773Y-80799378D01*
X72410116Y-80765799D01*
X72381541Y-80700807D01*
X72380500Y-80684644D01*
X72380500Y-80304752D01*
X72400502Y-80236631D01*
X72451159Y-80191556D01*
X72554293Y-80141137D01*
X72641137Y-80054293D01*
X72695078Y-79943956D01*
X72705500Y-79872423D01*
X72705500Y-79872420D01*
X73494500Y-79872420D01*
X73499902Y-79909500D01*
X73504922Y-79943956D01*
X73504923Y-79943958D01*
X73558862Y-80054292D01*
X73558863Y-80054294D01*
X73645705Y-80141136D01*
X73645706Y-80141136D01*
X73645707Y-80141137D01*
X73748840Y-80191556D01*
X73801253Y-80239442D01*
X73819500Y-80304752D01*
X73819500Y-80744690D01*
X73799498Y-80812811D01*
X73748840Y-80857887D01*
X73695705Y-80883863D01*
X73608863Y-80970705D01*
X73608862Y-80970707D01*
X73554922Y-81081041D01*
X73554922Y-81081043D01*
X73544500Y-81152575D01*
X73544500Y-81722420D01*
X73550483Y-81763484D01*
X73554922Y-81793956D01*
X73581892Y-81849124D01*
X73608862Y-81904292D01*
X73608863Y-81904294D01*
X73695705Y-81991136D01*
X73695707Y-81991137D01*
X73806044Y-82045078D01*
X73877577Y-82055500D01*
X74422422Y-82055499D01*
X74493956Y-82045078D01*
X74604293Y-81991137D01*
X74691137Y-81904293D01*
X74745078Y-81793956D01*
X74755500Y-81722423D01*
X74755499Y-81152578D01*
X74745078Y-81081044D01*
X74691137Y-80970707D01*
X74691136Y-80970705D01*
X74604294Y-80883863D01*
X74604292Y-80883862D01*
X74493958Y-80829922D01*
X74493950Y-80829920D01*
X74488333Y-80829102D01*
X74423808Y-80799488D01*
X74385537Y-80739689D01*
X74380500Y-80704419D01*
X74380500Y-80304752D01*
X74400502Y-80236631D01*
X74451159Y-80191556D01*
X74554293Y-80141137D01*
X74641137Y-80054293D01*
X74695078Y-79943956D01*
X74705500Y-79872423D01*
X74705499Y-79227578D01*
X74695078Y-79156044D01*
X74641137Y-79045707D01*
X74641136Y-79045705D01*
X74554294Y-78958863D01*
X74554292Y-78958862D01*
X74443957Y-78904922D01*
X74426072Y-78902316D01*
X74372423Y-78894500D01*
X74372420Y-78894500D01*
X73827579Y-78894500D01*
X73766465Y-78903403D01*
X73756044Y-78904922D01*
X73756041Y-78904923D01*
X73756042Y-78904923D01*
X73645707Y-78958862D01*
X73645705Y-78958863D01*
X73558863Y-79045705D01*
X73558862Y-79045707D01*
X73504922Y-79156041D01*
X73504922Y-79156043D01*
X73494500Y-79227575D01*
X73494500Y-79872420D01*
X72705500Y-79872420D01*
X72705499Y-79227578D01*
X72695078Y-79156044D01*
X72641137Y-79045707D01*
X72641136Y-79045705D01*
X72554294Y-78958863D01*
X72554292Y-78958862D01*
X72443957Y-78904922D01*
X72426072Y-78902316D01*
X72372423Y-78894500D01*
X72372420Y-78894500D01*
X71827579Y-78894500D01*
X71766465Y-78903403D01*
X71756044Y-78904922D01*
X71756041Y-78904923D01*
X71756042Y-78904923D01*
X71645707Y-78958862D01*
X71645705Y-78958863D01*
X71558863Y-79045705D01*
X71558862Y-79045707D01*
X71504922Y-79156041D01*
X71504922Y-79156043D01*
X71494500Y-79227575D01*
X71494500Y-79872420D01*
X63904673Y-79872420D01*
X63899349Y-68861899D01*
X63899463Y-68858123D01*
X63919251Y-68530237D01*
X63920061Y-68523289D01*
X63975889Y-68201236D01*
X63977468Y-68194411D01*
X64003422Y-68105167D01*
X64068740Y-67880556D01*
X64071067Y-67873950D01*
X64196654Y-67572182D01*
X64199695Y-67565888D01*
X64358052Y-67279926D01*
X64361760Y-67274031D01*
X64550924Y-67007426D01*
X64555268Y-67001975D01*
X64772868Y-66758067D01*
X64777813Y-66753111D01*
X65021159Y-66534907D01*
X65026636Y-66530520D01*
X65113795Y-66468347D01*
X65292728Y-66340709D01*
X65298637Y-66336972D01*
X65584178Y-66177906D01*
X65590476Y-66174845D01*
X65674161Y-66139769D01*
X65891926Y-66048496D01*
X65898518Y-66046155D01*
X66212140Y-65954091D01*
X66218957Y-65952496D01*
X66540865Y-65895857D01*
X66547828Y-65895029D01*
X66875519Y-65874421D01*
X66879474Y-65874296D01*
X140847335Y-65900480D01*
G37*
%TD.AperFunction*%
%TD*%
%TA.AperFunction,Conductor*%
%TO.N,VBUS*%
G36*
X90844716Y-88870002D02*
G01*
X90891209Y-88923658D01*
X90901517Y-88959554D01*
X90905111Y-88986857D01*
X90954369Y-89092492D01*
X91036782Y-89174905D01*
X91036783Y-89174905D01*
X91036784Y-89174906D01*
X91142416Y-89224163D01*
X91177833Y-89228825D01*
X91209601Y-89237336D01*
X91277734Y-89265558D01*
X91391228Y-89280500D01*
X91391235Y-89280500D01*
X91467315Y-89280500D01*
X91467322Y-89280500D01*
X91580816Y-89265558D01*
X91648951Y-89237335D01*
X91680706Y-89228827D01*
X91716134Y-89224163D01*
X91821766Y-89174906D01*
X91821766Y-89174905D01*
X91826024Y-89172920D01*
X91896216Y-89162258D01*
X91932526Y-89172920D01*
X91936783Y-89174905D01*
X91936784Y-89174906D01*
X92042416Y-89224163D01*
X92077833Y-89228825D01*
X92109601Y-89237336D01*
X92177734Y-89265558D01*
X92250046Y-89275078D01*
X92314973Y-89303800D01*
X92329116Y-89325242D01*
X92341309Y-89305764D01*
X92405534Y-89275505D01*
X92408475Y-89275081D01*
X92480816Y-89265558D01*
X92548951Y-89237335D01*
X92580706Y-89228827D01*
X92616134Y-89224163D01*
X92721766Y-89174906D01*
X92721766Y-89174905D01*
X92726024Y-89172920D01*
X92796216Y-89162258D01*
X92832526Y-89172920D01*
X92836783Y-89174905D01*
X92836784Y-89174906D01*
X92942416Y-89224163D01*
X92977833Y-89228825D01*
X93009601Y-89237336D01*
X93077734Y-89265558D01*
X93150046Y-89275078D01*
X93214973Y-89303800D01*
X93229116Y-89325242D01*
X93241309Y-89305764D01*
X93305534Y-89275505D01*
X93308475Y-89275081D01*
X93380816Y-89265558D01*
X93448951Y-89237335D01*
X93480706Y-89228827D01*
X93516134Y-89224163D01*
X93621766Y-89174906D01*
X93704181Y-89092491D01*
X93753438Y-88986859D01*
X93757032Y-88959554D01*
X93785755Y-88894627D01*
X93845020Y-88855535D01*
X93881955Y-88850000D01*
X95376595Y-88850000D01*
X95444716Y-88870002D01*
X95491209Y-88923658D01*
X95501517Y-88959554D01*
X95505111Y-88986857D01*
X95554369Y-89092492D01*
X95636782Y-89174905D01*
X95636783Y-89174905D01*
X95636784Y-89174906D01*
X95742416Y-89224163D01*
X95777833Y-89228825D01*
X95809601Y-89237336D01*
X95877734Y-89265558D01*
X95877735Y-89265558D01*
X95881609Y-89266596D01*
X95884510Y-89268364D01*
X95885364Y-89268718D01*
X95885308Y-89268851D01*
X95942232Y-89303546D01*
X95973255Y-89367406D01*
X95975000Y-89388303D01*
X95975000Y-89411696D01*
X95954998Y-89479817D01*
X95901342Y-89526310D01*
X95881618Y-89533401D01*
X95877733Y-89534441D01*
X95809605Y-89562661D01*
X95777834Y-89571174D01*
X95742417Y-89575836D01*
X95636782Y-89625094D01*
X95554369Y-89707507D01*
X95505111Y-89813142D01*
X95500449Y-89848559D01*
X95491936Y-89880330D01*
X95463717Y-89948458D01*
X95443766Y-90099999D01*
X95443766Y-90100000D01*
X95463717Y-90251541D01*
X95491936Y-90319667D01*
X95500449Y-90351440D01*
X95505111Y-90386857D01*
X95554369Y-90492492D01*
X95560691Y-90501520D01*
X95557230Y-90503942D01*
X95580925Y-90547334D01*
X95575860Y-90618149D01*
X95533313Y-90674985D01*
X95466793Y-90699796D01*
X95413125Y-90691929D01*
X95393325Y-90684420D01*
X95270444Y-90669500D01*
X95270438Y-90669500D01*
X94719421Y-90669500D01*
X94651300Y-90649498D01*
X94604807Y-90595842D01*
X94594703Y-90525568D01*
X94605226Y-90490250D01*
X94605652Y-90489335D01*
X94653438Y-90386859D01*
X94658102Y-90351431D01*
X94666610Y-90319676D01*
X94694833Y-90251541D01*
X94714784Y-90100000D01*
X94694833Y-89948459D01*
X94666611Y-89880326D01*
X94658100Y-89848556D01*
X94653438Y-89813142D01*
X94604180Y-89707507D01*
X94521767Y-89625094D01*
X94416132Y-89575836D01*
X94380716Y-89571174D01*
X94348944Y-89562661D01*
X94280816Y-89534442D01*
X94167324Y-89519500D01*
X94167322Y-89519500D01*
X94091228Y-89519500D01*
X94091225Y-89519500D01*
X93977733Y-89534442D01*
X93909605Y-89562661D01*
X93877834Y-89571174D01*
X93842417Y-89575836D01*
X93732525Y-89627080D01*
X93662333Y-89637741D01*
X93626025Y-89627080D01*
X93516132Y-89575836D01*
X93480716Y-89571174D01*
X93448944Y-89562661D01*
X93380816Y-89534442D01*
X93372909Y-89533401D01*
X93308501Y-89524921D01*
X93243576Y-89496200D01*
X93229432Y-89474757D01*
X93217240Y-89494236D01*
X93153015Y-89524495D01*
X93150062Y-89524919D01*
X93106192Y-89530695D01*
X93077733Y-89534442D01*
X93009605Y-89562661D01*
X92977834Y-89571174D01*
X92942417Y-89575836D01*
X92832525Y-89627080D01*
X92762333Y-89637741D01*
X92726025Y-89627080D01*
X92616132Y-89575836D01*
X92580716Y-89571174D01*
X92548944Y-89562661D01*
X92480816Y-89534442D01*
X92472909Y-89533401D01*
X92408501Y-89524921D01*
X92343576Y-89496200D01*
X92329432Y-89474757D01*
X92317240Y-89494236D01*
X92253015Y-89524495D01*
X92250062Y-89524919D01*
X92206192Y-89530695D01*
X92177733Y-89534442D01*
X92109605Y-89562661D01*
X92077834Y-89571174D01*
X92042417Y-89575836D01*
X91936782Y-89625094D01*
X91854369Y-89707507D01*
X91805111Y-89813142D01*
X91800449Y-89848559D01*
X91791936Y-89880330D01*
X91763717Y-89948458D01*
X91743766Y-90099999D01*
X91743766Y-90100000D01*
X91763717Y-90251541D01*
X91791936Y-90319667D01*
X91800449Y-90351440D01*
X91805111Y-90386857D01*
X91854369Y-90492492D01*
X91936782Y-90574905D01*
X91936783Y-90574905D01*
X91936784Y-90574906D01*
X92042416Y-90624163D01*
X92077833Y-90628825D01*
X92109601Y-90637336D01*
X92177734Y-90665558D01*
X92291228Y-90680500D01*
X92291235Y-90680500D01*
X92367315Y-90680500D01*
X92367322Y-90680500D01*
X92480816Y-90665558D01*
X92548951Y-90637335D01*
X92580706Y-90628827D01*
X92616134Y-90624163D01*
X92721766Y-90574906D01*
X92721766Y-90574905D01*
X92726024Y-90572920D01*
X92796216Y-90562258D01*
X92832526Y-90572920D01*
X92836783Y-90574905D01*
X92836784Y-90574906D01*
X92942416Y-90624163D01*
X92977833Y-90628825D01*
X93009601Y-90637336D01*
X93077734Y-90665558D01*
X93191228Y-90680500D01*
X93191240Y-90680500D01*
X93195351Y-90680770D01*
X93195231Y-90682596D01*
X93256213Y-90700502D01*
X93302706Y-90754158D01*
X93313919Y-90799901D01*
X93313947Y-90800441D01*
X93314481Y-90802433D01*
X93318775Y-90835048D01*
X93318775Y-91324000D01*
X93298773Y-91392121D01*
X93245117Y-91438614D01*
X93192775Y-91450000D01*
X92035775Y-91450000D01*
X91967654Y-91429998D01*
X91921161Y-91376342D01*
X91909775Y-91324000D01*
X91909775Y-91267373D01*
X91909775Y-91267372D01*
X91870227Y-91106919D01*
X91870226Y-91106917D01*
X91867689Y-91100227D01*
X91860652Y-91068369D01*
X91860432Y-91068402D01*
X91859990Y-91065371D01*
X91859828Y-91064636D01*
X91859775Y-91063908D01*
X91859775Y-91063890D01*
X91848999Y-90989928D01*
X91793226Y-90875843D01*
X91793225Y-90875841D01*
X91703433Y-90786049D01*
X91703431Y-90786048D01*
X91589349Y-90730277D01*
X91589347Y-90730276D01*
X91515386Y-90719500D01*
X91515385Y-90719500D01*
X91508911Y-90719500D01*
X91464230Y-90711312D01*
X91393322Y-90684419D01*
X91270444Y-90669500D01*
X91270438Y-90669500D01*
X90651000Y-90669500D01*
X90582879Y-90649498D01*
X90536386Y-90595842D01*
X90525000Y-90543500D01*
X90525000Y-90250000D01*
X90525000Y-88850000D01*
X90776595Y-88850000D01*
X90844716Y-88870002D01*
G37*
%TD.AperFunction*%
%TD*%
M02*
