%TF.GenerationSoftware,KiCad,Pcbnew,7.0.6-0*%
%TF.CreationDate,2024-01-24T21:05:41+01:00*%
%TF.ProjectId,smoke_extractorV1_1,736d6f6b-655f-4657-9874-726163746f72,rev?*%
%TF.SameCoordinates,Original*%
%TF.FileFunction,Legend,Top*%
%TF.FilePolarity,Positive*%
%FSLAX46Y46*%
G04 Gerber Fmt 4.6, Leading zero omitted, Abs format (unit mm)*
G04 Created by KiCad (PCBNEW 7.0.6-0) date 2024-01-24 21:05:41*
%MOMM*%
%LPD*%
G01*
G04 APERTURE LIST*
%ADD10C,0.120000*%
%ADD11C,0.150000*%
%ADD12C,0.152400*%
G04 APERTURE END LIST*
D10*
X115748117Y-85579058D02*
X129310000Y-85579058D01*
X129310000Y-93240941D01*
X115748117Y-93240941D01*
X115748117Y-85579058D01*
X116387518Y-91474474D02*
X116387518Y-90724474D01*
X116387518Y-90724474D02*
X116816089Y-91474474D01*
X116816089Y-91474474D02*
X116816089Y-90724474D01*
X117494661Y-90974474D02*
X117494661Y-91474474D01*
X117173232Y-90974474D02*
X117173232Y-91367331D01*
X117173232Y-91367331D02*
X117208946Y-91438760D01*
X117208946Y-91438760D02*
X117280375Y-91474474D01*
X117280375Y-91474474D02*
X117387518Y-91474474D01*
X117387518Y-91474474D02*
X117458946Y-91438760D01*
X117458946Y-91438760D02*
X117494661Y-91403045D01*
X117851803Y-90974474D02*
X117851803Y-91474474D01*
X117851803Y-91045902D02*
X117887517Y-91010188D01*
X117887517Y-91010188D02*
X117958946Y-90974474D01*
X117958946Y-90974474D02*
X118066089Y-90974474D01*
X118066089Y-90974474D02*
X118137517Y-91010188D01*
X118137517Y-91010188D02*
X118173232Y-91081617D01*
X118173232Y-91081617D02*
X118173232Y-91474474D01*
X118637517Y-91474474D02*
X118566088Y-91438760D01*
X118566088Y-91438760D02*
X118530374Y-91403045D01*
X118530374Y-91403045D02*
X118494660Y-91331617D01*
X118494660Y-91331617D02*
X118494660Y-91117331D01*
X118494660Y-91117331D02*
X118530374Y-91045902D01*
X118530374Y-91045902D02*
X118566088Y-91010188D01*
X118566088Y-91010188D02*
X118637517Y-90974474D01*
X118637517Y-90974474D02*
X118744660Y-90974474D01*
X118744660Y-90974474D02*
X118816088Y-91010188D01*
X118816088Y-91010188D02*
X118851803Y-91045902D01*
X118851803Y-91045902D02*
X118887517Y-91117331D01*
X118887517Y-91117331D02*
X118887517Y-91331617D01*
X118887517Y-91331617D02*
X118851803Y-91403045D01*
X118851803Y-91403045D02*
X118816088Y-91438760D01*
X118816088Y-91438760D02*
X118744660Y-91474474D01*
X118744660Y-91474474D02*
X118637517Y-91474474D01*
X119780374Y-91474474D02*
X119780374Y-90724474D01*
X119780374Y-90724474D02*
X120208945Y-91474474D01*
X120208945Y-91474474D02*
X120208945Y-90724474D01*
X120673231Y-91474474D02*
X120601802Y-91438760D01*
X120601802Y-91438760D02*
X120566088Y-91403045D01*
X120566088Y-91403045D02*
X120530374Y-91331617D01*
X120530374Y-91331617D02*
X120530374Y-91117331D01*
X120530374Y-91117331D02*
X120566088Y-91045902D01*
X120566088Y-91045902D02*
X120601802Y-91010188D01*
X120601802Y-91010188D02*
X120673231Y-90974474D01*
X120673231Y-90974474D02*
X120780374Y-90974474D01*
X120780374Y-90974474D02*
X120851802Y-91010188D01*
X120851802Y-91010188D02*
X120887517Y-91045902D01*
X120887517Y-91045902D02*
X120923231Y-91117331D01*
X120923231Y-91117331D02*
X120923231Y-91331617D01*
X120923231Y-91331617D02*
X120887517Y-91403045D01*
X120887517Y-91403045D02*
X120851802Y-91438760D01*
X120851802Y-91438760D02*
X120780374Y-91474474D01*
X120780374Y-91474474D02*
X120673231Y-91474474D01*
X121566088Y-90974474D02*
X121566088Y-91581617D01*
X121566088Y-91581617D02*
X121530373Y-91653045D01*
X121530373Y-91653045D02*
X121494659Y-91688760D01*
X121494659Y-91688760D02*
X121423230Y-91724474D01*
X121423230Y-91724474D02*
X121316088Y-91724474D01*
X121316088Y-91724474D02*
X121244659Y-91688760D01*
X121566088Y-91438760D02*
X121494659Y-91474474D01*
X121494659Y-91474474D02*
X121351802Y-91474474D01*
X121351802Y-91474474D02*
X121280373Y-91438760D01*
X121280373Y-91438760D02*
X121244659Y-91403045D01*
X121244659Y-91403045D02*
X121208945Y-91331617D01*
X121208945Y-91331617D02*
X121208945Y-91117331D01*
X121208945Y-91117331D02*
X121244659Y-91045902D01*
X121244659Y-91045902D02*
X121280373Y-91010188D01*
X121280373Y-91010188D02*
X121351802Y-90974474D01*
X121351802Y-90974474D02*
X121494659Y-90974474D01*
X121494659Y-90974474D02*
X121566088Y-91010188D01*
X122244659Y-90974474D02*
X122244659Y-91474474D01*
X121923230Y-90974474D02*
X121923230Y-91367331D01*
X121923230Y-91367331D02*
X121958944Y-91438760D01*
X121958944Y-91438760D02*
X122030373Y-91474474D01*
X122030373Y-91474474D02*
X122137516Y-91474474D01*
X122137516Y-91474474D02*
X122208944Y-91438760D01*
X122208944Y-91438760D02*
X122244659Y-91403045D01*
X122887515Y-91438760D02*
X122816087Y-91474474D01*
X122816087Y-91474474D02*
X122673230Y-91474474D01*
X122673230Y-91474474D02*
X122601801Y-91438760D01*
X122601801Y-91438760D02*
X122566087Y-91367331D01*
X122566087Y-91367331D02*
X122566087Y-91081617D01*
X122566087Y-91081617D02*
X122601801Y-91010188D01*
X122601801Y-91010188D02*
X122673230Y-90974474D01*
X122673230Y-90974474D02*
X122816087Y-90974474D01*
X122816087Y-90974474D02*
X122887515Y-91010188D01*
X122887515Y-91010188D02*
X122923230Y-91081617D01*
X122923230Y-91081617D02*
X122923230Y-91153045D01*
X122923230Y-91153045D02*
X122566087Y-91224474D01*
X123244658Y-91474474D02*
X123244658Y-90974474D01*
X123244658Y-90724474D02*
X123208944Y-90760188D01*
X123208944Y-90760188D02*
X123244658Y-90795902D01*
X123244658Y-90795902D02*
X123280372Y-90760188D01*
X123280372Y-90760188D02*
X123244658Y-90724474D01*
X123244658Y-90724474D02*
X123244658Y-90795902D01*
X123601801Y-91474474D02*
X123601801Y-90974474D01*
X123601801Y-91117331D02*
X123637515Y-91045902D01*
X123637515Y-91045902D02*
X123673230Y-91010188D01*
X123673230Y-91010188D02*
X123744658Y-90974474D01*
X123744658Y-90974474D02*
X123816087Y-90974474D01*
X124387516Y-91474474D02*
X124387516Y-91081617D01*
X124387516Y-91081617D02*
X124351801Y-91010188D01*
X124351801Y-91010188D02*
X124280373Y-90974474D01*
X124280373Y-90974474D02*
X124137516Y-90974474D01*
X124137516Y-90974474D02*
X124066087Y-91010188D01*
X124387516Y-91438760D02*
X124316087Y-91474474D01*
X124316087Y-91474474D02*
X124137516Y-91474474D01*
X124137516Y-91474474D02*
X124066087Y-91438760D01*
X124066087Y-91438760D02*
X124030373Y-91367331D01*
X124030373Y-91367331D02*
X124030373Y-91295902D01*
X124030373Y-91295902D02*
X124066087Y-91224474D01*
X124066087Y-91224474D02*
X124137516Y-91188760D01*
X124137516Y-91188760D02*
X124316087Y-91188760D01*
X124316087Y-91188760D02*
X124387516Y-91153045D01*
X116351804Y-92003402D02*
X116387518Y-91967688D01*
X116387518Y-91967688D02*
X116458947Y-91931974D01*
X116458947Y-91931974D02*
X116637518Y-91931974D01*
X116637518Y-91931974D02*
X116708947Y-91967688D01*
X116708947Y-91967688D02*
X116744661Y-92003402D01*
X116744661Y-92003402D02*
X116780375Y-92074831D01*
X116780375Y-92074831D02*
X116780375Y-92146260D01*
X116780375Y-92146260D02*
X116744661Y-92253402D01*
X116744661Y-92253402D02*
X116316089Y-92681974D01*
X116316089Y-92681974D02*
X116780375Y-92681974D01*
X117423233Y-92181974D02*
X117423233Y-92681974D01*
X117244661Y-91896260D02*
X117066090Y-92431974D01*
X117066090Y-92431974D02*
X117530375Y-92431974D01*
X118351804Y-91896260D02*
X117708947Y-92860545D01*
X118744661Y-91931974D02*
X118816090Y-91931974D01*
X118816090Y-91931974D02*
X118887518Y-91967688D01*
X118887518Y-91967688D02*
X118923233Y-92003402D01*
X118923233Y-92003402D02*
X118958947Y-92074831D01*
X118958947Y-92074831D02*
X118994661Y-92217688D01*
X118994661Y-92217688D02*
X118994661Y-92396260D01*
X118994661Y-92396260D02*
X118958947Y-92539117D01*
X118958947Y-92539117D02*
X118923233Y-92610545D01*
X118923233Y-92610545D02*
X118887518Y-92646260D01*
X118887518Y-92646260D02*
X118816090Y-92681974D01*
X118816090Y-92681974D02*
X118744661Y-92681974D01*
X118744661Y-92681974D02*
X118673233Y-92646260D01*
X118673233Y-92646260D02*
X118637518Y-92610545D01*
X118637518Y-92610545D02*
X118601804Y-92539117D01*
X118601804Y-92539117D02*
X118566090Y-92396260D01*
X118566090Y-92396260D02*
X118566090Y-92217688D01*
X118566090Y-92217688D02*
X118601804Y-92074831D01*
X118601804Y-92074831D02*
X118637518Y-92003402D01*
X118637518Y-92003402D02*
X118673233Y-91967688D01*
X118673233Y-91967688D02*
X118744661Y-91931974D01*
X119708947Y-92681974D02*
X119280376Y-92681974D01*
X119494661Y-92681974D02*
X119494661Y-91931974D01*
X119494661Y-91931974D02*
X119423233Y-92039117D01*
X119423233Y-92039117D02*
X119351804Y-92110545D01*
X119351804Y-92110545D02*
X119280376Y-92146260D01*
X120566090Y-91896260D02*
X119923233Y-92860545D01*
X120780376Y-92003402D02*
X120816090Y-91967688D01*
X120816090Y-91967688D02*
X120887519Y-91931974D01*
X120887519Y-91931974D02*
X121066090Y-91931974D01*
X121066090Y-91931974D02*
X121137519Y-91967688D01*
X121137519Y-91967688D02*
X121173233Y-92003402D01*
X121173233Y-92003402D02*
X121208947Y-92074831D01*
X121208947Y-92074831D02*
X121208947Y-92146260D01*
X121208947Y-92146260D02*
X121173233Y-92253402D01*
X121173233Y-92253402D02*
X120744661Y-92681974D01*
X120744661Y-92681974D02*
X121208947Y-92681974D01*
X121673233Y-91931974D02*
X121744662Y-91931974D01*
X121744662Y-91931974D02*
X121816090Y-91967688D01*
X121816090Y-91967688D02*
X121851805Y-92003402D01*
X121851805Y-92003402D02*
X121887519Y-92074831D01*
X121887519Y-92074831D02*
X121923233Y-92217688D01*
X121923233Y-92217688D02*
X121923233Y-92396260D01*
X121923233Y-92396260D02*
X121887519Y-92539117D01*
X121887519Y-92539117D02*
X121851805Y-92610545D01*
X121851805Y-92610545D02*
X121816090Y-92646260D01*
X121816090Y-92646260D02*
X121744662Y-92681974D01*
X121744662Y-92681974D02*
X121673233Y-92681974D01*
X121673233Y-92681974D02*
X121601805Y-92646260D01*
X121601805Y-92646260D02*
X121566090Y-92610545D01*
X121566090Y-92610545D02*
X121530376Y-92539117D01*
X121530376Y-92539117D02*
X121494662Y-92396260D01*
X121494662Y-92396260D02*
X121494662Y-92217688D01*
X121494662Y-92217688D02*
X121530376Y-92074831D01*
X121530376Y-92074831D02*
X121566090Y-92003402D01*
X121566090Y-92003402D02*
X121601805Y-91967688D01*
X121601805Y-91967688D02*
X121673233Y-91931974D01*
X122208948Y-92003402D02*
X122244662Y-91967688D01*
X122244662Y-91967688D02*
X122316091Y-91931974D01*
X122316091Y-91931974D02*
X122494662Y-91931974D01*
X122494662Y-91931974D02*
X122566091Y-91967688D01*
X122566091Y-91967688D02*
X122601805Y-92003402D01*
X122601805Y-92003402D02*
X122637519Y-92074831D01*
X122637519Y-92074831D02*
X122637519Y-92146260D01*
X122637519Y-92146260D02*
X122601805Y-92253402D01*
X122601805Y-92253402D02*
X122173233Y-92681974D01*
X122173233Y-92681974D02*
X122637519Y-92681974D01*
X123280377Y-92181974D02*
X123280377Y-92681974D01*
X123101805Y-91896260D02*
X122923234Y-92431974D01*
X122923234Y-92431974D02*
X123387519Y-92431974D01*
D11*
X116400112Y-87131200D02*
X116528684Y-87174057D01*
X116528684Y-87174057D02*
X116742969Y-87174057D01*
X116742969Y-87174057D02*
X116828684Y-87131200D01*
X116828684Y-87131200D02*
X116871541Y-87088342D01*
X116871541Y-87088342D02*
X116914398Y-87002628D01*
X116914398Y-87002628D02*
X116914398Y-86916914D01*
X116914398Y-86916914D02*
X116871541Y-86831200D01*
X116871541Y-86831200D02*
X116828684Y-86788342D01*
X116828684Y-86788342D02*
X116742969Y-86745485D01*
X116742969Y-86745485D02*
X116571541Y-86702628D01*
X116571541Y-86702628D02*
X116485826Y-86659771D01*
X116485826Y-86659771D02*
X116442969Y-86616914D01*
X116442969Y-86616914D02*
X116400112Y-86531200D01*
X116400112Y-86531200D02*
X116400112Y-86445485D01*
X116400112Y-86445485D02*
X116442969Y-86359771D01*
X116442969Y-86359771D02*
X116485826Y-86316914D01*
X116485826Y-86316914D02*
X116571541Y-86274057D01*
X116571541Y-86274057D02*
X116785826Y-86274057D01*
X116785826Y-86274057D02*
X116914398Y-86316914D01*
X117300112Y-87174057D02*
X117300112Y-86274057D01*
X117300112Y-86274057D02*
X117600112Y-86916914D01*
X117600112Y-86916914D02*
X117900112Y-86274057D01*
X117900112Y-86274057D02*
X117900112Y-87174057D01*
X118500112Y-86274057D02*
X118671540Y-86274057D01*
X118671540Y-86274057D02*
X118757255Y-86316914D01*
X118757255Y-86316914D02*
X118842969Y-86402628D01*
X118842969Y-86402628D02*
X118885826Y-86574057D01*
X118885826Y-86574057D02*
X118885826Y-86874057D01*
X118885826Y-86874057D02*
X118842969Y-87045485D01*
X118842969Y-87045485D02*
X118757255Y-87131200D01*
X118757255Y-87131200D02*
X118671540Y-87174057D01*
X118671540Y-87174057D02*
X118500112Y-87174057D01*
X118500112Y-87174057D02*
X118414398Y-87131200D01*
X118414398Y-87131200D02*
X118328683Y-87045485D01*
X118328683Y-87045485D02*
X118285826Y-86874057D01*
X118285826Y-86874057D02*
X118285826Y-86574057D01*
X118285826Y-86574057D02*
X118328683Y-86402628D01*
X118328683Y-86402628D02*
X118414398Y-86316914D01*
X118414398Y-86316914D02*
X118500112Y-86274057D01*
X119271540Y-87174057D02*
X119271540Y-86274057D01*
X119785826Y-87174057D02*
X119400112Y-86659771D01*
X119785826Y-86274057D02*
X119271540Y-86788342D01*
X120171540Y-86702628D02*
X120471540Y-86702628D01*
X120600112Y-87174057D02*
X120171540Y-87174057D01*
X120171540Y-87174057D02*
X120171540Y-86274057D01*
X120171540Y-86274057D02*
X120600112Y-86274057D01*
X121671540Y-86702628D02*
X121971540Y-86702628D01*
X122100112Y-87174057D02*
X121671540Y-87174057D01*
X121671540Y-87174057D02*
X121671540Y-86274057D01*
X121671540Y-86274057D02*
X122100112Y-86274057D01*
X122400112Y-86274057D02*
X123000112Y-87174057D01*
X123000112Y-86274057D02*
X122400112Y-87174057D01*
X123214398Y-86274057D02*
X123728684Y-86274057D01*
X123471541Y-87174057D02*
X123471541Y-86274057D01*
X124542969Y-87174057D02*
X124242969Y-86745485D01*
X124028683Y-87174057D02*
X124028683Y-86274057D01*
X124028683Y-86274057D02*
X124371540Y-86274057D01*
X124371540Y-86274057D02*
X124457255Y-86316914D01*
X124457255Y-86316914D02*
X124500112Y-86359771D01*
X124500112Y-86359771D02*
X124542969Y-86445485D01*
X124542969Y-86445485D02*
X124542969Y-86574057D01*
X124542969Y-86574057D02*
X124500112Y-86659771D01*
X124500112Y-86659771D02*
X124457255Y-86702628D01*
X124457255Y-86702628D02*
X124371540Y-86745485D01*
X124371540Y-86745485D02*
X124028683Y-86745485D01*
X124885826Y-86916914D02*
X125314398Y-86916914D01*
X124800112Y-87174057D02*
X125100112Y-86274057D01*
X125100112Y-86274057D02*
X125400112Y-87174057D01*
X126214398Y-87088342D02*
X126171541Y-87131200D01*
X126171541Y-87131200D02*
X126042969Y-87174057D01*
X126042969Y-87174057D02*
X125957255Y-87174057D01*
X125957255Y-87174057D02*
X125828684Y-87131200D01*
X125828684Y-87131200D02*
X125742969Y-87045485D01*
X125742969Y-87045485D02*
X125700112Y-86959771D01*
X125700112Y-86959771D02*
X125657255Y-86788342D01*
X125657255Y-86788342D02*
X125657255Y-86659771D01*
X125657255Y-86659771D02*
X125700112Y-86488342D01*
X125700112Y-86488342D02*
X125742969Y-86402628D01*
X125742969Y-86402628D02*
X125828684Y-86316914D01*
X125828684Y-86316914D02*
X125957255Y-86274057D01*
X125957255Y-86274057D02*
X126042969Y-86274057D01*
X126042969Y-86274057D02*
X126171541Y-86316914D01*
X126171541Y-86316914D02*
X126214398Y-86359771D01*
X126471541Y-86274057D02*
X126985827Y-86274057D01*
X126728684Y-87174057D02*
X126728684Y-86274057D01*
X127457255Y-86274057D02*
X127628683Y-86274057D01*
X127628683Y-86274057D02*
X127714398Y-86316914D01*
X127714398Y-86316914D02*
X127800112Y-86402628D01*
X127800112Y-86402628D02*
X127842969Y-86574057D01*
X127842969Y-86574057D02*
X127842969Y-86874057D01*
X127842969Y-86874057D02*
X127800112Y-87045485D01*
X127800112Y-87045485D02*
X127714398Y-87131200D01*
X127714398Y-87131200D02*
X127628683Y-87174057D01*
X127628683Y-87174057D02*
X127457255Y-87174057D01*
X127457255Y-87174057D02*
X127371541Y-87131200D01*
X127371541Y-87131200D02*
X127285826Y-87045485D01*
X127285826Y-87045485D02*
X127242969Y-86874057D01*
X127242969Y-86874057D02*
X127242969Y-86574057D01*
X127242969Y-86574057D02*
X127285826Y-86402628D01*
X127285826Y-86402628D02*
X127371541Y-86316914D01*
X127371541Y-86316914D02*
X127457255Y-86274057D01*
X128742969Y-87174057D02*
X128442969Y-86745485D01*
X128228683Y-87174057D02*
X128228683Y-86274057D01*
X128228683Y-86274057D02*
X128571540Y-86274057D01*
X128571540Y-86274057D02*
X128657255Y-86316914D01*
X128657255Y-86316914D02*
X128700112Y-86359771D01*
X128700112Y-86359771D02*
X128742969Y-86445485D01*
X128742969Y-86445485D02*
X128742969Y-86574057D01*
X128742969Y-86574057D02*
X128700112Y-86659771D01*
X128700112Y-86659771D02*
X128657255Y-86702628D01*
X128657255Y-86702628D02*
X128571540Y-86745485D01*
X128571540Y-86745485D02*
X128228683Y-86745485D01*
X116314398Y-87723057D02*
X116614398Y-88623057D01*
X116614398Y-88623057D02*
X116914398Y-87723057D01*
X117171541Y-87808771D02*
X117214398Y-87765914D01*
X117214398Y-87765914D02*
X117300113Y-87723057D01*
X117300113Y-87723057D02*
X117514398Y-87723057D01*
X117514398Y-87723057D02*
X117600113Y-87765914D01*
X117600113Y-87765914D02*
X117642970Y-87808771D01*
X117642970Y-87808771D02*
X117685827Y-87894485D01*
X117685827Y-87894485D02*
X117685827Y-87980200D01*
X117685827Y-87980200D02*
X117642970Y-88108771D01*
X117642970Y-88108771D02*
X117128684Y-88623057D01*
X117128684Y-88623057D02*
X117685827Y-88623057D01*
X118071541Y-88537342D02*
X118114398Y-88580200D01*
X118114398Y-88580200D02*
X118071541Y-88623057D01*
X118071541Y-88623057D02*
X118028684Y-88580200D01*
X118028684Y-88580200D02*
X118071541Y-88537342D01*
X118071541Y-88537342D02*
X118071541Y-88623057D01*
X118671541Y-87723057D02*
X118757255Y-87723057D01*
X118757255Y-87723057D02*
X118842969Y-87765914D01*
X118842969Y-87765914D02*
X118885827Y-87808771D01*
X118885827Y-87808771D02*
X118928684Y-87894485D01*
X118928684Y-87894485D02*
X118971541Y-88065914D01*
X118971541Y-88065914D02*
X118971541Y-88280200D01*
X118971541Y-88280200D02*
X118928684Y-88451628D01*
X118928684Y-88451628D02*
X118885827Y-88537342D01*
X118885827Y-88537342D02*
X118842969Y-88580200D01*
X118842969Y-88580200D02*
X118757255Y-88623057D01*
X118757255Y-88623057D02*
X118671541Y-88623057D01*
X118671541Y-88623057D02*
X118585827Y-88580200D01*
X118585827Y-88580200D02*
X118542969Y-88537342D01*
X118542969Y-88537342D02*
X118500112Y-88451628D01*
X118500112Y-88451628D02*
X118457255Y-88280200D01*
X118457255Y-88280200D02*
X118457255Y-88065914D01*
X118457255Y-88065914D02*
X118500112Y-87894485D01*
X118500112Y-87894485D02*
X118542969Y-87808771D01*
X118542969Y-87808771D02*
X118585827Y-87765914D01*
X118585827Y-87765914D02*
X118671541Y-87723057D01*
X119785827Y-87723057D02*
X119357255Y-87723057D01*
X119357255Y-87723057D02*
X119314398Y-88151628D01*
X119314398Y-88151628D02*
X119357255Y-88108771D01*
X119357255Y-88108771D02*
X119442970Y-88065914D01*
X119442970Y-88065914D02*
X119657255Y-88065914D01*
X119657255Y-88065914D02*
X119742970Y-88108771D01*
X119742970Y-88108771D02*
X119785827Y-88151628D01*
X119785827Y-88151628D02*
X119828684Y-88237342D01*
X119828684Y-88237342D02*
X119828684Y-88451628D01*
X119828684Y-88451628D02*
X119785827Y-88537342D01*
X119785827Y-88537342D02*
X119742970Y-88580200D01*
X119742970Y-88580200D02*
X119657255Y-88623057D01*
X119657255Y-88623057D02*
X119442970Y-88623057D01*
X119442970Y-88623057D02*
X119357255Y-88580200D01*
X119357255Y-88580200D02*
X119314398Y-88537342D01*
D10*
%TO.C,D5*%
X80348087Y-76546187D02*
X80348087Y-73246187D01*
X80348087Y-76546187D02*
X74838087Y-76546187D01*
X80348087Y-73246187D02*
X74838087Y-73246187D01*
%TO.C,R19*%
X74672500Y-82095276D02*
X74672500Y-82604724D01*
X73627500Y-82095276D02*
X73627500Y-82604724D01*
%TO.C,R14*%
X94095276Y-77617500D02*
X94604724Y-77617500D01*
X94095276Y-78662500D02*
X94604724Y-78662500D01*
%TO.C,kibuzzard-65B1691E*%
G36*
X69641630Y-77405677D02*
G01*
X69703225Y-77408535D01*
X69783235Y-77434570D01*
X69804825Y-77512675D01*
X69783870Y-77611100D01*
X69705765Y-77638405D01*
X69541935Y-77638405D01*
X69541935Y-77405995D01*
X69596545Y-77404725D01*
X69641630Y-77405677D01*
G37*
G36*
X71024448Y-78408448D02*
G01*
X70759865Y-78408448D01*
X70466495Y-78408448D01*
X70014375Y-78408448D01*
X69219355Y-78408448D01*
X68180495Y-78408448D01*
X67840135Y-78408448D01*
X67575552Y-78408448D01*
X67575552Y-77701905D01*
X67840135Y-77701905D01*
X67843522Y-77809008D01*
X67853682Y-77898332D01*
X67870615Y-77969875D01*
X67911572Y-78050361D01*
X67973485Y-78103860D01*
X68028659Y-78126085D01*
X68097663Y-78139420D01*
X68180495Y-78143865D01*
X68281936Y-78138309D01*
X68357660Y-78121640D01*
X68412111Y-78091477D01*
X68449735Y-78045440D01*
X68473230Y-77980194D01*
X68485295Y-77892405D01*
X68326545Y-77892405D01*
X68285905Y-77981940D01*
X68244312Y-77999561D01*
X68180495Y-78005435D01*
X68118582Y-77998609D01*
X68072545Y-77978130D01*
X68040001Y-77941459D01*
X68018570Y-77886055D01*
X68006664Y-77807633D01*
X68002695Y-77701905D01*
X68006664Y-77594907D01*
X68018570Y-77515215D01*
X68040001Y-77458859D01*
X68072545Y-77421870D01*
X68118582Y-77401391D01*
X68180495Y-77394565D01*
X68238280Y-77400915D01*
X68277015Y-77419965D01*
X68302097Y-77456477D01*
X68318925Y-77515215D01*
X68477675Y-77515215D01*
X68467832Y-77425204D01*
X68445925Y-77358370D01*
X68409412Y-77311062D01*
X68355755Y-77279630D01*
X68309851Y-77268835D01*
X68602135Y-77268835D01*
X68602135Y-78132435D01*
X68764695Y-78132435D01*
X68764695Y-77755245D01*
X69056795Y-77755245D01*
X69056795Y-78132435D01*
X69219355Y-78132435D01*
X69380645Y-78132435D01*
X69541935Y-78132435D01*
X69541935Y-77779375D01*
X69623215Y-77779375D01*
X69690525Y-77784296D01*
X69734975Y-77799060D01*
X69780695Y-77874625D01*
X69840385Y-78132435D01*
X70014375Y-78132435D01*
X69941985Y-77863195D01*
X69920236Y-77799377D01*
X69895630Y-77757785D01*
X69816255Y-77718415D01*
X69816255Y-77706985D01*
X69836293Y-77700635D01*
X70108355Y-77700635D01*
X70111953Y-77807809D01*
X70122748Y-77897344D01*
X70140740Y-77969240D01*
X70184079Y-78050203D01*
X70249325Y-78103860D01*
X70307322Y-78126085D01*
X70379712Y-78139420D01*
X70466495Y-78143865D01*
X70544600Y-78140373D01*
X70611275Y-78129895D01*
X70678268Y-78109575D01*
X70757325Y-78076555D01*
X70757325Y-77646025D01*
X70424585Y-77646025D01*
X70424585Y-77784455D01*
X70603655Y-77784455D01*
X70603655Y-77978765D01*
X70540790Y-77998450D01*
X70462685Y-78004165D01*
X70395216Y-77997497D01*
X70345210Y-77977495D01*
X70309809Y-77941459D01*
X70286155Y-77886690D01*
X70272820Y-77809061D01*
X70268375Y-77704445D01*
X70272344Y-77597447D01*
X70284250Y-77517755D01*
X70305681Y-77461240D01*
X70338225Y-77423775D01*
X70384263Y-77402820D01*
X70446175Y-77395835D01*
X70535710Y-77405995D01*
X70583335Y-77439650D01*
X70602385Y-77507595D01*
X70759865Y-77507595D01*
X70748594Y-77419965D01*
X70724940Y-77355195D01*
X70686046Y-77309475D01*
X70629055Y-77278995D01*
X70549998Y-77261850D01*
X70444905Y-77256135D01*
X70363554Y-77260580D01*
X70295609Y-77273915D01*
X70241070Y-77296140D01*
X70179634Y-77349797D01*
X70138835Y-77430760D01*
X70121902Y-77502797D01*
X70111742Y-77592756D01*
X70108355Y-77700635D01*
X69836293Y-77700635D01*
X69906425Y-77678410D01*
X69951510Y-77621260D01*
X69964845Y-77519025D01*
X69956749Y-77432030D01*
X69932460Y-77366625D01*
X69888962Y-77319635D01*
X69823240Y-77287885D01*
X69765032Y-77274479D01*
X69692853Y-77266436D01*
X69606705Y-77263755D01*
X69531775Y-77265025D01*
X69380645Y-77270105D01*
X69380645Y-78132435D01*
X69219355Y-78132435D01*
X69219355Y-77268835D01*
X69056795Y-77268835D01*
X69056795Y-77611735D01*
X68764695Y-77611735D01*
X68764695Y-77268835D01*
X68602135Y-77268835D01*
X68309851Y-77268835D01*
X68280825Y-77262009D01*
X68180495Y-77256135D01*
X68097663Y-77260580D01*
X68028659Y-77273915D01*
X67973485Y-77296140D01*
X67911572Y-77349956D01*
X67870615Y-77431395D01*
X67853682Y-77503785D01*
X67843522Y-77593955D01*
X67840135Y-77701905D01*
X67575552Y-77701905D01*
X67575552Y-76991552D01*
X67840135Y-76991552D01*
X70759865Y-76991552D01*
X71024448Y-76991552D01*
X71024448Y-78408448D01*
G37*
%TO.C,kibuzzard-655136E2*%
G36*
X134593395Y-92074496D02*
G01*
X134638163Y-92078068D01*
X134693050Y-92088426D01*
X134733889Y-92106166D01*
X134762821Y-92133551D01*
X134781990Y-92172841D01*
X134792706Y-92226777D01*
X134796278Y-92298095D01*
X134792587Y-92373462D01*
X134781514Y-92430016D01*
X134761630Y-92470617D01*
X134731508Y-92498120D01*
X134688883Y-92514789D01*
X134631495Y-92522885D01*
X134556248Y-92520028D01*
X134556248Y-92073305D01*
X134593395Y-92074496D01*
G37*
G36*
X135117587Y-92827050D02*
G01*
X134919150Y-92827050D01*
X134602920Y-92827050D01*
X134340982Y-92827050D01*
X133549455Y-92827050D01*
X133280850Y-92827050D01*
X133082412Y-92827050D01*
X133082412Y-92296190D01*
X133280850Y-92296190D01*
X133283549Y-92376571D01*
X133291645Y-92443722D01*
X133305139Y-92497644D01*
X133337643Y-92558366D01*
X133386577Y-92598609D01*
X133430075Y-92615278D01*
X133484367Y-92625279D01*
X133549455Y-92628613D01*
X133608034Y-92625993D01*
X133658040Y-92618135D01*
X133708284Y-92602895D01*
X133767577Y-92578130D01*
X133767577Y-92255233D01*
X133518022Y-92255233D01*
X133518022Y-92359055D01*
X133652325Y-92359055D01*
X133652325Y-92504788D01*
X133605176Y-92519551D01*
X133546597Y-92523838D01*
X133495996Y-92518837D01*
X133458491Y-92503835D01*
X133431940Y-92476808D01*
X133414200Y-92435732D01*
X133404199Y-92377510D01*
X133400865Y-92299048D01*
X133403842Y-92218800D01*
X133412771Y-92159030D01*
X133428845Y-92116644D01*
X133453252Y-92088545D01*
X133487781Y-92072829D01*
X133534215Y-92067590D01*
X133601366Y-92075210D01*
X133637085Y-92100451D01*
X133651372Y-92151410D01*
X133769482Y-92151410D01*
X133761029Y-92085688D01*
X133743289Y-92037110D01*
X133714118Y-92002820D01*
X133671375Y-91979960D01*
X133636239Y-91972340D01*
X133853302Y-91972340D01*
X133853302Y-92620040D01*
X133970460Y-92620040D01*
X133970460Y-92247613D01*
X133957125Y-92112358D01*
X133959983Y-92112358D01*
X134192392Y-92620040D01*
X134340982Y-92620040D01*
X134434328Y-92620040D01*
X134496663Y-92624274D01*
X134552861Y-92626814D01*
X134602920Y-92627660D01*
X134679226Y-92624379D01*
X134743043Y-92614537D01*
X134794373Y-92598133D01*
X134852237Y-92558723D01*
X134890575Y-92499549D01*
X134906450Y-92447214D01*
X134915975Y-92382286D01*
X134919150Y-92304763D01*
X134916398Y-92230626D01*
X134908143Y-92168238D01*
X134894385Y-92117596D01*
X134860928Y-92058899D01*
X134810089Y-92017108D01*
X134764951Y-91997423D01*
X134708912Y-91982818D01*
X134641973Y-91973293D01*
X134596253Y-91969721D01*
X134544818Y-91968530D01*
X134492430Y-91969483D01*
X134434328Y-91972340D01*
X134434328Y-92620040D01*
X134340982Y-92620040D01*
X134340982Y-91972340D01*
X134223825Y-91972340D01*
X134223825Y-92344768D01*
X134237160Y-92480023D01*
X134234303Y-92480023D01*
X134001892Y-91972340D01*
X133853302Y-91972340D01*
X133636239Y-91972340D01*
X133612082Y-91967101D01*
X133533262Y-91962815D01*
X133472250Y-91966149D01*
X133421291Y-91976150D01*
X133380386Y-91992819D01*
X133334309Y-92033062D01*
X133303710Y-92093784D01*
X133291010Y-92147812D01*
X133283390Y-92215281D01*
X133280850Y-92296190D01*
X133082412Y-92296190D01*
X133082412Y-91764378D01*
X133280850Y-91764378D01*
X134919150Y-91764378D01*
X135117587Y-91764378D01*
X135117587Y-92827050D01*
G37*
%TO.C,R13*%
X94095276Y-75717500D02*
X94604724Y-75717500D01*
X94095276Y-76762500D02*
X94604724Y-76762500D01*
%TO.C,U1*%
X88579275Y-86700000D02*
X97079275Y-86700000D01*
X97079275Y-86700000D02*
X97079275Y-92100000D01*
X97079275Y-92100000D02*
X88579275Y-92100000D01*
X88579275Y-92100000D02*
X88579275Y-86700000D01*
%TO.C,TP2*%
X75725000Y-70050000D02*
X78125000Y-70050000D01*
X75725000Y-72450000D02*
X75725000Y-70050000D01*
X78125000Y-70050000D02*
X78125000Y-72450000D01*
X78125000Y-72450000D02*
X75725000Y-72450000D01*
%TO.C,C8*%
X134935000Y-82038748D02*
X134935000Y-82561252D01*
X133465000Y-82038748D02*
X133465000Y-82561252D01*
%TO.C,D6*%
X99785000Y-80835000D02*
X99785000Y-79365000D01*
X99785000Y-79365000D02*
X97325000Y-79365000D01*
X97325000Y-80835000D02*
X99785000Y-80835000D01*
%TO.C,C1*%
X77860381Y-86228733D02*
X77860381Y-86521267D01*
X76840381Y-86228733D02*
X76840381Y-86521267D01*
%TO.C,D10*%
X140249139Y-79750000D02*
X140249139Y-76450000D01*
X140249139Y-79750000D02*
X134849139Y-79750000D01*
X140249139Y-76450000D02*
X134849139Y-76450000D01*
%TO.C,D2*%
X99785000Y-78835000D02*
X99785000Y-77365000D01*
X99785000Y-77365000D02*
X97325000Y-77365000D01*
X97325000Y-78835000D02*
X99785000Y-78835000D01*
%TO.C,D1*%
X91847500Y-94135000D02*
X91847500Y-92665000D01*
X91847500Y-92665000D02*
X89387500Y-92665000D01*
X89387500Y-94135000D02*
X91847500Y-94135000D01*
%TO.C,kibuzzard-655136D6*%
G36*
X140805205Y-92827050D02*
G01*
X140606768Y-92827050D01*
X140414363Y-92827050D01*
X139992405Y-92827050D01*
X139316130Y-92827050D01*
X138993232Y-92827050D01*
X138794795Y-92827050D01*
X138794795Y-92250470D01*
X138993232Y-92250470D01*
X139164682Y-92144742D01*
X139201830Y-92114262D01*
X139198020Y-92173317D01*
X139198020Y-92628613D01*
X139316130Y-92628613D01*
X139316130Y-92161887D01*
X139532347Y-92161887D01*
X139654267Y-92161887D01*
X139667603Y-92109024D01*
X139700464Y-92082354D01*
X139762852Y-92074257D01*
X139824765Y-92081877D01*
X139855721Y-92107119D01*
X139864770Y-92158077D01*
X139858103Y-92201892D01*
X139833337Y-92238087D01*
X139790237Y-92278331D01*
X139735230Y-92324765D01*
X139700583Y-92352507D01*
X139657601Y-92386201D01*
X139606285Y-92425849D01*
X139546635Y-92471450D01*
X139546635Y-92628613D01*
X139992405Y-92628613D01*
X139992405Y-92521933D01*
X139669507Y-92521933D01*
X139669507Y-92513360D01*
X139726075Y-92473249D01*
X139773859Y-92438007D01*
X139812859Y-92407632D01*
X139864413Y-92363579D01*
X139915253Y-92315240D01*
X139948828Y-92277140D01*
X139969545Y-92242850D01*
X139980261Y-92205941D01*
X139983833Y-92159982D01*
X139978832Y-92094141D01*
X139963830Y-92045206D01*
X139937041Y-92010678D01*
X139896679Y-91988056D01*
X139863951Y-91980912D01*
X140072415Y-91980912D01*
X140264820Y-92628613D01*
X140414363Y-92628613D01*
X140606768Y-91980912D01*
X140482943Y-91980912D01*
X140341973Y-92485737D01*
X140337210Y-92485737D01*
X140196240Y-91980912D01*
X140072415Y-91980912D01*
X139863951Y-91980912D01*
X139839410Y-91975555D01*
X139761900Y-91971387D01*
X139684867Y-91975674D01*
X139627121Y-91988532D01*
X139585688Y-92011512D01*
X139557589Y-92046159D01*
X139540563Y-92095332D01*
X139532347Y-92161887D01*
X139316130Y-92161887D01*
X139316130Y-91980912D01*
X139198020Y-91980912D01*
X138993232Y-92124740D01*
X138993232Y-92250470D01*
X138794795Y-92250470D01*
X138794795Y-91772950D01*
X138993232Y-91772950D01*
X140606768Y-91772950D01*
X140805205Y-91772950D01*
X140805205Y-92827050D01*
G37*
%TO.C,D7*%
X71365000Y-80335000D02*
X72835000Y-80335000D01*
X72835000Y-80335000D02*
X72835000Y-77875000D01*
X71365000Y-77875000D02*
X71365000Y-80335000D01*
%TO.C,U7*%
X129440000Y-81900000D02*
X129440000Y-83700000D01*
X132660000Y-83700000D02*
X132660000Y-81250000D01*
%TO.C,R15*%
X94095276Y-79617500D02*
X94604724Y-79617500D01*
X94095276Y-80662500D02*
X94604724Y-80662500D01*
%TO.C,C7*%
X85870587Y-90303733D02*
X85870587Y-90596267D01*
X84850587Y-90303733D02*
X84850587Y-90596267D01*
%TO.C,IC1*%
X74725000Y-88781253D02*
X72925000Y-88781253D01*
X72925000Y-92001253D02*
X75875000Y-92001253D01*
%TO.C,Q1*%
X78044077Y-81648299D02*
X78044077Y-83323299D01*
X78044077Y-81648299D02*
X78044077Y-80998299D01*
X81164077Y-81648299D02*
X81164077Y-82298299D01*
X81164077Y-81648299D02*
X81164077Y-80998299D01*
%TO.C,U8*%
X72889032Y-87891971D02*
X74689032Y-87891971D01*
X74689032Y-84671971D02*
X71739032Y-84671971D01*
%TO.C,kibuzzard-65B168C9*%
G36*
X90975725Y-83886995D02*
G01*
X90777605Y-83886995D01*
X90875395Y-83523775D01*
X90877935Y-83523775D01*
X90975725Y-83886995D01*
G37*
G36*
X90126095Y-83502185D02*
G01*
X90186896Y-83512663D01*
X90224520Y-83531395D01*
X90250555Y-83611405D01*
X90230870Y-83690780D01*
X90156575Y-83714275D01*
X89978775Y-83714275D01*
X89978775Y-83498375D01*
X90020685Y-83498375D01*
X90126095Y-83502185D01*
G37*
G36*
X93893550Y-83503137D02*
G01*
X93955145Y-83505995D01*
X94035155Y-83532030D01*
X94056745Y-83610135D01*
X94035790Y-83708560D01*
X93957685Y-83735865D01*
X93793855Y-83735865D01*
X93793855Y-83503455D01*
X93848465Y-83502185D01*
X93893550Y-83503137D01*
G37*
G36*
X90221980Y-83864770D02*
G01*
X90270240Y-83902235D01*
X90284845Y-83978435D01*
X90267065Y-84052730D01*
X90208010Y-84089560D01*
X90157686Y-84097656D01*
X90089265Y-84100355D01*
X90036242Y-84099720D01*
X89978775Y-84097815D01*
X89978775Y-83853975D01*
X90124825Y-83853975D01*
X90221980Y-83864770D01*
G37*
G36*
X99845828Y-84504638D02*
G01*
X99581245Y-84504638D01*
X98798925Y-84504638D01*
X97833725Y-84504638D01*
X97274925Y-84504638D01*
X96533245Y-84504638D01*
X94767945Y-84504638D01*
X94266295Y-84504638D01*
X93464925Y-84504638D01*
X92481945Y-84504638D01*
X91719945Y-84504638D01*
X91237345Y-84504638D01*
X90067675Y-84504638D01*
X89818755Y-84504638D01*
X89554172Y-84504638D01*
X89554172Y-84227355D01*
X89818755Y-84227355D01*
X89907373Y-84234411D01*
X89990346Y-84238644D01*
X90067675Y-84240055D01*
X90159891Y-84237586D01*
X90236726Y-84230177D01*
X90238130Y-84229895D01*
X90515985Y-84229895D01*
X90677275Y-84229895D01*
X90739505Y-84022885D01*
X91013825Y-84022885D01*
X91076055Y-84229895D01*
X91237345Y-84229895D01*
X90979535Y-83366295D01*
X91326245Y-83366295D01*
X91326245Y-83511075D01*
X91557385Y-83511075D01*
X91557385Y-84229895D01*
X91719945Y-84229895D01*
X91719945Y-83511075D01*
X91951085Y-83511075D01*
X91951085Y-83366295D01*
X92088245Y-83366295D01*
X92088245Y-83511075D01*
X92319385Y-83511075D01*
X92319385Y-84229895D01*
X92481945Y-84229895D01*
X92481945Y-83511075D01*
X92713085Y-83511075D01*
X92713085Y-83366295D01*
X92903585Y-83366295D01*
X92903585Y-84229895D01*
X93464925Y-84229895D01*
X93632565Y-84229895D01*
X93793855Y-84229895D01*
X93793855Y-83876835D01*
X93875135Y-83876835D01*
X93942445Y-83881756D01*
X93986895Y-83896520D01*
X94032615Y-83972085D01*
X94092305Y-84229895D01*
X94266295Y-84229895D01*
X94193905Y-83960655D01*
X94172156Y-83896838D01*
X94147550Y-83855245D01*
X94068175Y-83815875D01*
X94068175Y-83804445D01*
X94158345Y-83775870D01*
X94203430Y-83718720D01*
X94216765Y-83616485D01*
X94208669Y-83529490D01*
X94184380Y-83464085D01*
X94140882Y-83417095D01*
X94075160Y-83385345D01*
X94016952Y-83371939D01*
X93944773Y-83363896D01*
X93940242Y-83363755D01*
X94347575Y-83363755D01*
X94605385Y-83878105D01*
X94605385Y-84229895D01*
X94767945Y-84229895D01*
X94767945Y-83878105D01*
X95025746Y-83366295D01*
X95933805Y-83366295D01*
X95933805Y-84228625D01*
X96533245Y-84228625D01*
X96533245Y-84086385D01*
X96096365Y-84086385D01*
X96096365Y-83366295D01*
X96713585Y-83366295D01*
X96713585Y-84229895D01*
X97274925Y-84229895D01*
X97274925Y-84090195D01*
X96876145Y-84090195D01*
X96876145Y-83851435D01*
X97198725Y-83851435D01*
X97198725Y-83711735D01*
X96876145Y-83711735D01*
X96876145Y-83505995D01*
X97249525Y-83505995D01*
X97249525Y-83366295D01*
X97377795Y-83366295D01*
X97634335Y-84229895D01*
X97833725Y-84229895D01*
X98090265Y-83366295D01*
X98237585Y-83366295D01*
X98237585Y-84229895D01*
X98798925Y-84229895D01*
X98798925Y-84090195D01*
X98400145Y-84090195D01*
X98400145Y-83851435D01*
X98722725Y-83851435D01*
X98722725Y-83711735D01*
X98400145Y-83711735D01*
X98400145Y-83505995D01*
X98773525Y-83505995D01*
X98773525Y-83366295D01*
X98981805Y-83366295D01*
X98981805Y-84228625D01*
X99581245Y-84228625D01*
X99581245Y-84086385D01*
X99144365Y-84086385D01*
X99144365Y-83366295D01*
X98981805Y-83366295D01*
X98773525Y-83366295D01*
X98237585Y-83366295D01*
X98090265Y-83366295D01*
X97925165Y-83366295D01*
X97737205Y-84039395D01*
X97730855Y-84039395D01*
X97542895Y-83366295D01*
X97377795Y-83366295D01*
X97249525Y-83366295D01*
X96713585Y-83366295D01*
X96096365Y-83366295D01*
X95933805Y-83366295D01*
X95025746Y-83366295D01*
X95027025Y-83363755D01*
X94853035Y-83363755D01*
X94690475Y-83718085D01*
X94684125Y-83718085D01*
X94522835Y-83363755D01*
X94347575Y-83363755D01*
X93940242Y-83363755D01*
X93858625Y-83361215D01*
X93783695Y-83362485D01*
X93632565Y-83367565D01*
X93632565Y-84229895D01*
X93464925Y-84229895D01*
X93464925Y-84090195D01*
X93066145Y-84090195D01*
X93066145Y-83851435D01*
X93388725Y-83851435D01*
X93388725Y-83711735D01*
X93066145Y-83711735D01*
X93066145Y-83505995D01*
X93439525Y-83505995D01*
X93439525Y-83366295D01*
X92903585Y-83366295D01*
X92713085Y-83366295D01*
X92088245Y-83366295D01*
X91951085Y-83366295D01*
X91326245Y-83366295D01*
X90979535Y-83366295D01*
X90773795Y-83366295D01*
X90515985Y-84229895D01*
X90238130Y-84229895D01*
X90298180Y-84217830D01*
X90367236Y-84187826D01*
X90413115Y-84142265D01*
X90438832Y-84077495D01*
X90447405Y-83989865D01*
X90444071Y-83927317D01*
X90434070Y-83879375D01*
X90388350Y-83815875D01*
X90296275Y-83782855D01*
X90296275Y-83775235D01*
X90351044Y-83755232D01*
X90385810Y-83723165D01*
X90404384Y-83673317D01*
X90410575Y-83599975D01*
X90401844Y-83516631D01*
X90375650Y-83454560D01*
X90328819Y-83410586D01*
X90258175Y-83381535D01*
X90195381Y-83369541D01*
X90117064Y-83362344D01*
X90027892Y-83360064D01*
X89818755Y-83363755D01*
X89818755Y-84227355D01*
X89554172Y-84227355D01*
X89554172Y-83095362D01*
X89818755Y-83095362D01*
X99581245Y-83095362D01*
X99845828Y-83095362D01*
X99845828Y-84504638D01*
G37*
%TO.C,D3*%
X99785000Y-76935000D02*
X99785000Y-75465000D01*
X99785000Y-75465000D02*
X97325000Y-75465000D01*
X97325000Y-76935000D02*
X99785000Y-76935000D01*
%TO.C,R20*%
X86310000Y-86421564D02*
X86310000Y-86875692D01*
X84840000Y-86421564D02*
X84840000Y-86875692D01*
%TO.C,C6*%
X127690000Y-82233767D02*
X127690000Y-81941233D01*
X128710000Y-82233767D02*
X128710000Y-81941233D01*
%TO.C,R5*%
X83810000Y-80765276D02*
X83810000Y-81274724D01*
X82765000Y-80765276D02*
X82765000Y-81274724D01*
%TO.C,U2*%
X104572322Y-83355000D02*
X125572322Y-83355000D01*
X125572322Y-83355000D02*
X125572322Y-68355000D01*
X125572322Y-68355000D02*
X104572322Y-68355000D01*
X104572322Y-68355000D02*
X104572322Y-83355000D01*
X123572322Y-82055000D02*
X106572322Y-82055000D01*
X106572322Y-82055000D02*
X106572322Y-69655000D01*
X106572322Y-69655000D02*
X123572322Y-69655000D01*
X123572322Y-69655000D02*
X123572322Y-82055000D01*
%TO.C,D8*%
X73365000Y-80335000D02*
X74835000Y-80335000D01*
X74835000Y-80335000D02*
X74835000Y-77875000D01*
X73365000Y-77875000D02*
X73365000Y-80335000D01*
%TO.C,R3*%
X90242224Y-80662500D02*
X89732776Y-80662500D01*
X90242224Y-79617500D02*
X89732776Y-79617500D01*
%TO.C,R21*%
X136772500Y-81845276D02*
X136772500Y-82354724D01*
X135727500Y-81845276D02*
X135727500Y-82354724D01*
%TO.C,U5*%
X78650000Y-88448628D02*
X78650000Y-91898628D01*
X78650000Y-88448628D02*
X78650000Y-86498628D01*
X83770000Y-88448628D02*
X83770000Y-90398628D01*
X83770000Y-88448628D02*
X83770000Y-86498628D01*
%TO.C,R16*%
X76852500Y-90742224D02*
X76852500Y-90232776D01*
X77897500Y-90742224D02*
X77897500Y-90232776D01*
%TO.C,SW1*%
X112850000Y-90200000D02*
X112850000Y-88700000D01*
X111600000Y-86200000D02*
X107100000Y-86200000D01*
X107100000Y-92700000D02*
X111600000Y-92700000D01*
X105850000Y-88700000D02*
X105850000Y-90200000D01*
%TO.C,R11*%
X87797500Y-90195276D02*
X87797500Y-90704724D01*
X86752500Y-90195276D02*
X86752500Y-90704724D01*
%TO.C,R22*%
X135354724Y-85722500D02*
X134845276Y-85722500D01*
X135354724Y-84677500D02*
X134845276Y-84677500D01*
%TO.C,R4*%
X86529724Y-80662500D02*
X86020276Y-80662500D01*
X86529724Y-79617500D02*
X86020276Y-79617500D01*
%TO.C,R9*%
X95232776Y-92877500D02*
X95742224Y-92877500D01*
X95232776Y-93922500D02*
X95742224Y-93922500D01*
%TO.C,D4*%
X99785000Y-82595000D02*
X99785000Y-81125000D01*
X99785000Y-81125000D02*
X97325000Y-81125000D01*
X97325000Y-82595000D02*
X99785000Y-82595000D01*
%TO.C,kibuzzard-65B1692F*%
G36*
X78068985Y-77404725D02*
G01*
X78129786Y-77415202D01*
X78167410Y-77433935D01*
X78193445Y-77513945D01*
X78173760Y-77593320D01*
X78099465Y-77616815D01*
X77921665Y-77616815D01*
X77921665Y-77400915D01*
X77963575Y-77400915D01*
X78068985Y-77404725D01*
G37*
G36*
X78164870Y-77767310D02*
G01*
X78213130Y-77804775D01*
X78227735Y-77880975D01*
X78209955Y-77955270D01*
X78150900Y-77992100D01*
X78100576Y-78000196D01*
X78032155Y-78002895D01*
X77979133Y-78002260D01*
X77921665Y-78000355D01*
X77921665Y-77756515D01*
X78067715Y-77756515D01*
X78164870Y-77767310D01*
G37*
G36*
X77195225Y-77405042D02*
G01*
X77254915Y-77409805D01*
X77328099Y-77423616D01*
X77382550Y-77447270D01*
X77421126Y-77483782D01*
X77446685Y-77536170D01*
X77460973Y-77608084D01*
X77465735Y-77703175D01*
X77460814Y-77803664D01*
X77446050Y-77879070D01*
X77419539Y-77933204D01*
X77379375Y-77969875D01*
X77322543Y-77992100D01*
X77246025Y-78002895D01*
X77145695Y-77999085D01*
X77145695Y-77403455D01*
X77195225Y-77405042D01*
G37*
G36*
X79424498Y-78408448D02*
G01*
X79159915Y-78408448D01*
X78900835Y-78408448D01*
X78010565Y-78408448D01*
X77207925Y-78408448D01*
X76614835Y-78408448D01*
X75774095Y-78408448D01*
X75440085Y-78408448D01*
X75175502Y-78408448D01*
X75175502Y-77872085D01*
X75443895Y-77872085D01*
X75448340Y-77966700D01*
X75469295Y-78037185D01*
X75509141Y-78087032D01*
X75570260Y-78119735D01*
X75657096Y-78137832D01*
X75774095Y-78143865D01*
X75887601Y-78138468D01*
X75971580Y-78122275D01*
X76030794Y-78093065D01*
X76070005Y-78048615D01*
X76091912Y-77985750D01*
X76099215Y-77901295D01*
X76093183Y-77831921D01*
X76075085Y-77776200D01*
X76042859Y-77730956D01*
X75994440Y-77693015D01*
X75926019Y-77659042D01*
X75833785Y-77625705D01*
X75727264Y-77589034D01*
X75659160Y-77557760D01*
X75610265Y-77492355D01*
X75624235Y-77432665D01*
X75670590Y-77403455D01*
X75763935Y-77394565D01*
X75854740Y-77404090D01*
X75901730Y-77435840D01*
X75920145Y-77499975D01*
X76081435Y-77499975D01*
X76075085Y-77414567D01*
X76053495Y-77351385D01*
X76014919Y-77306935D01*
X75957610Y-77277725D01*
X75913423Y-77268835D01*
X76221135Y-77268835D01*
X76221135Y-77413615D01*
X76452275Y-77413615D01*
X76452275Y-78132435D01*
X76614835Y-78132435D01*
X76983135Y-78132435D01*
X77066249Y-78138079D01*
X77141179Y-78141466D01*
X77207925Y-78142595D01*
X77309666Y-78138221D01*
X77363648Y-78129895D01*
X77761645Y-78129895D01*
X77850263Y-78136951D01*
X77933236Y-78141184D01*
X78010565Y-78142595D01*
X78102781Y-78140126D01*
X78179616Y-78132717D01*
X78241070Y-78120370D01*
X78310126Y-78090366D01*
X78356005Y-78044805D01*
X78381723Y-77980035D01*
X78390295Y-77892405D01*
X78386961Y-77829857D01*
X78376960Y-77781915D01*
X78331240Y-77718415D01*
X78239165Y-77685395D01*
X78239165Y-77677775D01*
X78293934Y-77657772D01*
X78328700Y-77625705D01*
X78347274Y-77575857D01*
X78353465Y-77502515D01*
X78344734Y-77419171D01*
X78318540Y-77357100D01*
X78271709Y-77313126D01*
X78201065Y-77284075D01*
X78138271Y-77272081D01*
X78075308Y-77266295D01*
X78480465Y-77266295D01*
X78738275Y-77780645D01*
X78738275Y-78132435D01*
X78900835Y-78132435D01*
X78900835Y-77780645D01*
X79159915Y-77266295D01*
X78985925Y-77266295D01*
X78823365Y-77620625D01*
X78817015Y-77620625D01*
X78655725Y-77266295D01*
X78480465Y-77266295D01*
X78075308Y-77266295D01*
X78059954Y-77264884D01*
X77970782Y-77262604D01*
X77761645Y-77266295D01*
X77761645Y-78129895D01*
X77363648Y-78129895D01*
X77394756Y-78125097D01*
X77463195Y-78103225D01*
X77540348Y-78050679D01*
X77591465Y-77971780D01*
X77612632Y-77902001D01*
X77625332Y-77815429D01*
X77629565Y-77712065D01*
X77625896Y-77613217D01*
X77614889Y-77530032D01*
X77596545Y-77462510D01*
X77551936Y-77384246D01*
X77484150Y-77328525D01*
X77423966Y-77302278D01*
X77349248Y-77282805D01*
X77259995Y-77270105D01*
X77199035Y-77265342D01*
X77130455Y-77263755D01*
X77060605Y-77265025D01*
X76983135Y-77268835D01*
X76983135Y-78132435D01*
X76614835Y-78132435D01*
X76614835Y-77413615D01*
X76845975Y-77413615D01*
X76845975Y-77268835D01*
X76221135Y-77268835D01*
X75913423Y-77268835D01*
X75877124Y-77261532D01*
X75769015Y-77256135D01*
X75658684Y-77261374D01*
X75576610Y-77277090D01*
X75518507Y-77305189D01*
X75480090Y-77347575D01*
X75458659Y-77407265D01*
X75451515Y-77487275D01*
X75457548Y-77549822D01*
X75475645Y-77600305D01*
X75508189Y-77641739D01*
X75557560Y-77677140D01*
X75627569Y-77709366D01*
X75722025Y-77741275D01*
X75797431Y-77765881D01*
X75853470Y-77788900D01*
X75920145Y-77837795D01*
X75940465Y-77902565D01*
X75926495Y-77965430D01*
X75878870Y-77996545D01*
X75784255Y-78005435D01*
X75722501Y-78002577D01*
X75676940Y-77994005D01*
X75622965Y-77954000D01*
X75602645Y-77872085D01*
X75443895Y-77872085D01*
X75175502Y-77872085D01*
X75175502Y-76991552D01*
X75440085Y-76991552D01*
X79159915Y-76991552D01*
X79424498Y-76991552D01*
X79424498Y-78408448D01*
G37*
%TO.C,kibuzzard-65B169C7*%
G36*
X84191633Y-84428768D02*
G01*
X83927050Y-84428768D01*
X83035510Y-84428768D01*
X82872950Y-84428768D01*
X82608367Y-84428768D01*
X82608367Y-83300585D01*
X82872950Y-83300585D01*
X82872950Y-84164185D01*
X83035510Y-84164185D01*
X83035510Y-84146405D01*
X83709880Y-84146405D01*
X83927050Y-84146405D01*
X83927050Y-83936855D01*
X83874980Y-83936855D01*
X83709880Y-83936855D01*
X83709880Y-84146405D01*
X83035510Y-84146405D01*
X83035510Y-83803505D01*
X83408890Y-83803505D01*
X83408890Y-83661265D01*
X83035510Y-83661265D01*
X83035510Y-83444095D01*
X83459690Y-83444095D01*
X83459690Y-83300585D01*
X82872950Y-83300585D01*
X82608367Y-83300585D01*
X82608367Y-83235815D01*
X83739090Y-83235815D01*
X83739090Y-83639675D01*
X83758140Y-83887325D01*
X83874980Y-83887325D01*
X83894030Y-83639675D01*
X83894030Y-83235815D01*
X83739090Y-83235815D01*
X82608367Y-83235815D01*
X82608367Y-82971232D01*
X82872950Y-82971232D01*
X83927050Y-82971232D01*
X84191633Y-82971232D01*
X84191633Y-84428768D01*
G37*
%TO.C,R10*%
X90442224Y-86222500D02*
X89932776Y-86222500D01*
X90442224Y-85177500D02*
X89932776Y-85177500D01*
%TO.C,R1*%
X86020276Y-81377500D02*
X86529724Y-81377500D01*
X86020276Y-82422500D02*
X86529724Y-82422500D01*
%TO.C,R12*%
X94095276Y-81377500D02*
X94604724Y-81377500D01*
X94095276Y-82422500D02*
X94604724Y-82422500D01*
D12*
%TO.C,U3*%
X91583800Y-75710000D02*
X91583800Y-73017600D01*
X82846200Y-74668600D02*
X82846200Y-75710000D01*
X82846200Y-74059000D02*
X82846200Y-74668600D01*
X82846200Y-73017600D02*
X82846200Y-74059000D01*
X82846200Y-74668600D02*
G75*
G03*
X82846200Y-74059000I0J304800D01*
G01*
D10*
%TO.C,L1*%
X129350000Y-74100000D02*
X130150000Y-74100000D01*
X129350000Y-79700000D02*
X130150000Y-79700000D01*
%TO.C,J2*%
X132550000Y-88350000D02*
X135450000Y-88350000D01*
X132550000Y-91250000D02*
X132550000Y-88350000D01*
X135450000Y-88350000D02*
X135450000Y-91250000D01*
X135450000Y-91250000D02*
X132550000Y-91250000D01*
%TO.C,F1*%
X86446267Y-84210000D02*
X86103733Y-84210000D01*
X86446267Y-83190000D02*
X86103733Y-83190000D01*
%TO.C,J1*%
X141250000Y-88350000D02*
X141250000Y-91250000D01*
X138350000Y-88350000D02*
X141250000Y-88350000D01*
X141250000Y-91250000D02*
X138350000Y-91250000D01*
X138350000Y-91250000D02*
X138350000Y-88350000D01*
%TO.C,R2*%
X89732776Y-81377500D02*
X90242224Y-81377500D01*
X89732776Y-82422500D02*
X90242224Y-82422500D01*
%TO.C,R18*%
X72647500Y-82070276D02*
X72647500Y-82579724D01*
X71602500Y-82070276D02*
X71602500Y-82579724D01*
%TO.C,R6*%
X74320276Y-92837500D02*
X74829724Y-92837500D01*
X74320276Y-93882500D02*
X74829724Y-93882500D01*
%TD*%
M02*
