%TF.GenerationSoftware,KiCad,Pcbnew,7.0.6-0*%
%TF.CreationDate,2024-01-24T21:05:41+01:00*%
%TF.ProjectId,smoke_extractorV1_1,736d6f6b-655f-4657-9874-726163746f72,rev?*%
%TF.SameCoordinates,Original*%
%TF.FileFunction,Paste,Top*%
%TF.FilePolarity,Positive*%
%FSLAX46Y46*%
G04 Gerber Fmt 4.6, Leading zero omitted, Abs format (unit mm)*
G04 Created by KiCad (PCBNEW 7.0.6-0) date 2024-01-24 21:05:41*
%MOMM*%
%LPD*%
G01*
G04 APERTURE LIST*
G04 Aperture macros list*
%AMRoundRect*
0 Rectangle with rounded corners*
0 $1 Rounding radius*
0 $2 $3 $4 $5 $6 $7 $8 $9 X,Y pos of 4 corners*
0 Add a 4 corners polygon primitive as box body*
4,1,4,$2,$3,$4,$5,$6,$7,$8,$9,$2,$3,0*
0 Add four circle primitives for the rounded corners*
1,1,$1+$1,$2,$3*
1,1,$1+$1,$4,$5*
1,1,$1+$1,$6,$7*
1,1,$1+$1,$8,$9*
0 Add four rect primitives between the rounded corners*
20,1,$1+$1,$2,$3,$4,$5,0*
20,1,$1+$1,$4,$5,$6,$7,0*
20,1,$1+$1,$6,$7,$8,$9,0*
20,1,$1+$1,$8,$9,$2,$3,0*%
G04 Aperture macros list end*
%ADD10RoundRect,0.250000X1.000000X0.650000X-1.000000X0.650000X-1.000000X-0.650000X1.000000X-0.650000X0*%
%ADD11RoundRect,0.237500X-0.237500X0.250000X-0.237500X-0.250000X0.237500X-0.250000X0.237500X0.250000X0*%
%ADD12RoundRect,0.237500X-0.250000X-0.237500X0.250000X-0.237500X0.250000X0.237500X-0.250000X0.237500X0*%
%ADD13RoundRect,0.250000X-0.475000X0.337500X-0.475000X-0.337500X0.475000X-0.337500X0.475000X0.337500X0*%
%ADD14RoundRect,0.237500X0.287500X0.237500X-0.287500X0.237500X-0.287500X-0.237500X0.287500X-0.237500X0*%
%ADD15RoundRect,0.237500X-0.237500X0.300000X-0.237500X-0.300000X0.237500X-0.300000X0.237500X0.300000X0*%
%ADD16R,2.500000X1.800000*%
%ADD17RoundRect,0.237500X0.237500X-0.287500X0.237500X0.287500X-0.237500X0.287500X-0.237500X-0.287500X0*%
%ADD18R,0.650000X1.560000*%
%ADD19R,1.560000X0.650000*%
%ADD20RoundRect,0.150000X0.150000X-0.587500X0.150000X0.587500X-0.150000X0.587500X-0.150000X-0.587500X0*%
%ADD21RoundRect,0.250000X-0.450000X0.350000X-0.450000X-0.350000X0.450000X-0.350000X0.450000X0.350000X0*%
%ADD22RoundRect,0.237500X0.237500X-0.300000X0.237500X0.300000X-0.237500X0.300000X-0.237500X-0.300000X0*%
%ADD23RoundRect,0.237500X0.250000X0.237500X-0.250000X0.237500X-0.250000X-0.237500X0.250000X-0.237500X0*%
%ADD24RoundRect,0.150000X0.150000X-0.675000X0.150000X0.675000X-0.150000X0.675000X-0.150000X-0.675000X0*%
%ADD25RoundRect,0.237500X0.237500X-0.250000X0.237500X0.250000X-0.237500X0.250000X-0.237500X-0.250000X0*%
%ADD26R,0.508000X1.981200*%
%ADD27R,2.150000X5.500000*%
G04 APERTURE END LIST*
D10*
%TO.C,D5*%
X78838087Y-74896187D03*
X74838087Y-74896187D03*
%TD*%
D11*
%TO.C,R19*%
X74150000Y-81437500D03*
X74150000Y-83262500D03*
%TD*%
D12*
%TO.C,R14*%
X93437500Y-78140000D03*
X95262500Y-78140000D03*
%TD*%
%TO.C,R13*%
X93437500Y-76240000D03*
X95262500Y-76240000D03*
%TD*%
D13*
%TO.C,C8*%
X134200000Y-81262500D03*
X134200000Y-83337500D03*
%TD*%
D14*
%TO.C,D6*%
X99000000Y-80100000D03*
X97250000Y-80100000D03*
%TD*%
D15*
%TO.C,C1*%
X77350381Y-85512500D03*
X77350381Y-87237500D03*
%TD*%
D16*
%TO.C,D10*%
X138849139Y-78100000D03*
X134849139Y-78100000D03*
%TD*%
D14*
%TO.C,D2*%
X99000000Y-78100000D03*
X97250000Y-78100000D03*
%TD*%
%TO.C,D1*%
X91062500Y-93400000D03*
X89312500Y-93400000D03*
%TD*%
D17*
%TO.C,D7*%
X72100000Y-79550000D03*
X72100000Y-77800000D03*
%TD*%
D18*
%TO.C,U7*%
X132000000Y-81450000D03*
X131050000Y-81450000D03*
X130100000Y-81450000D03*
X130100000Y-84150000D03*
X132000000Y-84150000D03*
%TD*%
D12*
%TO.C,R15*%
X93437500Y-80140000D03*
X95262500Y-80140000D03*
%TD*%
D15*
%TO.C,C7*%
X85360587Y-89587500D03*
X85360587Y-91312500D03*
%TD*%
D19*
%TO.C,IC1*%
X75175000Y-91341253D03*
X75175000Y-90391253D03*
X75175000Y-89441253D03*
X72475000Y-89441253D03*
X72475000Y-90391253D03*
X72475000Y-91341253D03*
%TD*%
D20*
%TO.C,Q1*%
X78654077Y-82585799D03*
X80554077Y-82585799D03*
X79604077Y-80710799D03*
%TD*%
D19*
%TO.C,U8*%
X72439032Y-85331971D03*
X72439032Y-86281971D03*
X72439032Y-87231971D03*
X75139032Y-87231971D03*
X75139032Y-86281971D03*
X75139032Y-85331971D03*
%TD*%
D14*
%TO.C,D3*%
X99000000Y-76200000D03*
X97250000Y-76200000D03*
%TD*%
D21*
%TO.C,R20*%
X85575000Y-85648628D03*
X85575000Y-87648628D03*
%TD*%
D22*
%TO.C,C6*%
X128200000Y-82950000D03*
X128200000Y-81225000D03*
%TD*%
D11*
%TO.C,R5*%
X83287500Y-80107500D03*
X83287500Y-81932500D03*
%TD*%
D17*
%TO.C,D8*%
X74100000Y-79550000D03*
X74100000Y-77800000D03*
%TD*%
D23*
%TO.C,R3*%
X90900000Y-80140000D03*
X89075000Y-80140000D03*
%TD*%
D11*
%TO.C,R21*%
X136250000Y-81187500D03*
X136250000Y-83012500D03*
%TD*%
D24*
%TO.C,U5*%
X79305000Y-91073628D03*
X80575000Y-91073628D03*
X81845000Y-91073628D03*
X83115000Y-91073628D03*
X83115000Y-85823628D03*
X81845000Y-85823628D03*
X80575000Y-85823628D03*
X79305000Y-85823628D03*
%TD*%
D25*
%TO.C,R16*%
X77375000Y-91400000D03*
X77375000Y-89575000D03*
%TD*%
D11*
%TO.C,R11*%
X87275000Y-89537500D03*
X87275000Y-91362500D03*
%TD*%
D23*
%TO.C,R22*%
X136012500Y-85200000D03*
X134187500Y-85200000D03*
%TD*%
%TO.C,R4*%
X87187500Y-80140000D03*
X85362500Y-80140000D03*
%TD*%
D12*
%TO.C,R9*%
X94575000Y-93400000D03*
X96400000Y-93400000D03*
%TD*%
D14*
%TO.C,D4*%
X99000000Y-81860000D03*
X97250000Y-81860000D03*
%TD*%
D23*
%TO.C,R10*%
X91100000Y-85700000D03*
X89275000Y-85700000D03*
%TD*%
D12*
%TO.C,R1*%
X85362500Y-81900000D03*
X87187500Y-81900000D03*
%TD*%
%TO.C,R12*%
X93437500Y-81900000D03*
X95262500Y-81900000D03*
%TD*%
D26*
%TO.C,U3*%
X83405000Y-76827600D03*
X84675000Y-76827600D03*
X85945000Y-76827600D03*
X87215000Y-76827600D03*
X88485000Y-76827600D03*
X89755000Y-76827600D03*
X91025000Y-76827600D03*
X91025000Y-71900000D03*
X89755000Y-71900000D03*
X88485000Y-71900000D03*
X87215000Y-71900000D03*
X85945000Y-71900000D03*
X84675000Y-71900000D03*
X83405000Y-71900000D03*
%TD*%
D27*
%TO.C,L1*%
X127820000Y-76900000D03*
X131680000Y-76900000D03*
%TD*%
D14*
%TO.C,F1*%
X87150000Y-83700000D03*
X85400000Y-83700000D03*
%TD*%
D12*
%TO.C,R2*%
X89075000Y-81900000D03*
X90900000Y-81900000D03*
%TD*%
D11*
%TO.C,R18*%
X72125000Y-81412500D03*
X72125000Y-83237500D03*
%TD*%
D12*
%TO.C,R6*%
X73662500Y-93360000D03*
X75487500Y-93360000D03*
%TD*%
M02*
