%TF.GenerationSoftware,KiCad,Pcbnew,7.0.6-0*%
%TF.CreationDate,2023-11-12T21:55:02+01:00*%
%TF.ProjectId,smoke_extractorV1_1,736d6f6b-655f-4657-9874-726163746f72,rev?*%
%TF.SameCoordinates,Original*%
%TF.FileFunction,Drillmap*%
%TF.FilePolarity,Positive*%
%FSLAX45Y45*%
G04 Gerber Fmt 4.5, Leading zero omitted, Abs format (unit mm)*
G04 Created by KiCad (PCBNEW 7.0.6-0) date 2023-11-12 21:55:02*
%MOMM*%
%LPD*%
G01*
G04 APERTURE LIST*
%ADD10C,0.100000*%
%ADD11C,0.200000*%
%ADD12C,0.030000*%
%ADD13C,0.040000*%
%ADD14C,0.050000*%
%ADD15C,0.070000*%
%ADD16C,0.076200*%
%ADD17C,0.090000*%
%ADD18C,0.320000*%
G04 APERTURE END LIST*
D10*
X14092132Y-9490002D02*
G75*
G03*
X14390000Y-9190000I-2142J300002D01*
G01*
X6687753Y-6587379D02*
G75*
G03*
X6389885Y-6886000I2137J-300001D01*
G01*
X14092132Y-9490000D02*
X6691000Y-9489868D01*
X14390002Y-6887868D02*
G75*
G03*
X14090000Y-6590000I-300002J-2142D01*
G01*
X6391000Y-9192000D02*
X6389885Y-6886000D01*
X14090000Y-6590000D02*
X6687753Y-6587380D01*
X6391000Y-9192000D02*
G75*
G03*
X6691000Y-9489868I300000J2140D01*
G01*
X14390000Y-6887868D02*
X14390000Y-9190000D01*
D11*
D12*
X6945000Y-8395000D02*
X6975000Y-8425000D01*
X6975000Y-8395000D02*
X6945000Y-8425000D01*
X7045000Y-8815000D02*
X7075000Y-8845000D01*
X7075000Y-8815000D02*
X7045000Y-8845000D01*
X7075000Y-9185000D02*
X7105000Y-9215000D01*
X7105000Y-9185000D02*
X7075000Y-9215000D01*
X7145000Y-8405000D02*
X7175000Y-8435000D01*
X7175000Y-8405000D02*
X7145000Y-8435000D01*
X7695000Y-8375000D02*
X7725000Y-8405000D01*
X7725000Y-8375000D02*
X7695000Y-8405000D01*
X7805000Y-8775000D02*
X7835000Y-8805000D01*
X7835000Y-8775000D02*
X7805000Y-8805000D01*
X7860000Y-7390000D02*
X7890000Y-7420000D01*
X7890000Y-7390000D02*
X7860000Y-7420000D01*
X7860000Y-7475000D02*
X7890000Y-7505000D01*
X7890000Y-7475000D02*
X7860000Y-7505000D01*
X7860000Y-7560000D02*
X7890000Y-7590000D01*
X7890000Y-7560000D02*
X7860000Y-7590000D01*
X7860000Y-7645000D02*
X7890000Y-7675000D01*
X7890000Y-7645000D02*
X7860000Y-7675000D01*
X7860000Y-7730000D02*
X7890000Y-7760000D01*
X7890000Y-7730000D02*
X7860000Y-7760000D01*
X7860000Y-7815000D02*
X7890000Y-7845000D01*
X7890000Y-7815000D02*
X7860000Y-7845000D01*
X7915000Y-8695000D02*
X7945000Y-8725000D01*
X7945000Y-8695000D02*
X7915000Y-8725000D01*
X8145000Y-8925000D02*
X8175000Y-8955000D01*
X8175000Y-8925000D02*
X8145000Y-8955000D01*
X8145000Y-9105000D02*
X8175000Y-9135000D01*
X8175000Y-9105000D02*
X8145000Y-9135000D01*
X8210000Y-7135000D02*
X8240000Y-7165000D01*
X8240000Y-7135000D02*
X8210000Y-7165000D01*
X8210000Y-7260000D02*
X8240000Y-7290000D01*
X8240000Y-7260000D02*
X8210000Y-7290000D01*
X8510000Y-8510000D02*
X8540000Y-8540000D01*
X8540000Y-8510000D02*
X8510000Y-8540000D01*
X8785000Y-7135000D02*
X8815000Y-7165000D01*
X8815000Y-7135000D02*
X8785000Y-7165000D01*
X8960000Y-7910000D02*
X8990000Y-7940000D01*
X8990000Y-7910000D02*
X8960000Y-7940000D01*
X9365000Y-7655000D02*
X9395000Y-7685000D01*
X9395000Y-7655000D02*
X9365000Y-7685000D01*
X9385000Y-7160000D02*
X9415000Y-7190000D01*
X9415000Y-7160000D02*
X9385000Y-7190000D01*
X9460000Y-7660000D02*
X9490000Y-7690000D01*
X9490000Y-7660000D02*
X9460000Y-7690000D01*
X9515000Y-8575000D02*
X9545000Y-8605000D01*
X9545000Y-8575000D02*
X9515000Y-8605000D01*
X9595000Y-8575000D02*
X9625000Y-8605000D01*
X9625000Y-8575000D02*
X9595000Y-8605000D01*
X9710000Y-8085000D02*
X9740000Y-8115000D01*
X9740000Y-8085000D02*
X9710000Y-8115000D01*
X9760000Y-9010000D02*
X9790000Y-9040000D01*
X9790000Y-9010000D02*
X9760000Y-9040000D01*
X9935000Y-7960000D02*
X9965000Y-7990000D01*
X9965000Y-7960000D02*
X9935000Y-7990000D01*
X9935000Y-8885000D02*
X9965000Y-8915000D01*
X9965000Y-8885000D02*
X9935000Y-8915000D01*
X9935000Y-9010000D02*
X9965000Y-9040000D01*
X9965000Y-9010000D02*
X9935000Y-9040000D01*
X9960000Y-8060000D02*
X9990000Y-8090000D01*
X9990000Y-8060000D02*
X9960000Y-8090000D01*
X10035000Y-7160000D02*
X10065000Y-7190000D01*
X10065000Y-7160000D02*
X10035000Y-7190000D01*
X10035000Y-8310000D02*
X10065000Y-8340000D01*
X10065000Y-8310000D02*
X10035000Y-8340000D01*
X10060000Y-8510000D02*
X10090000Y-8540000D01*
X10090000Y-8510000D02*
X10060000Y-8540000D01*
X10185000Y-8510000D02*
X10215000Y-8540000D01*
X10215000Y-8510000D02*
X10185000Y-8540000D01*
X10195000Y-8965000D02*
X10225000Y-8995000D01*
X10225000Y-8965000D02*
X10195000Y-8995000D01*
X10465000Y-8865000D02*
X10495000Y-8895000D01*
X10495000Y-8865000D02*
X10465000Y-8895000D01*
X10465000Y-8995000D02*
X10495000Y-9025000D01*
X10495000Y-8995000D02*
X10465000Y-9025000D01*
D13*
X6784805Y-8392602D02*
G75*
G03*
X6784805Y-8392602I-20000J0D01*
G01*
D11*
X6784805Y-8452602D02*
X6784805Y-8332602D01*
X6784805Y-8332602D02*
G75*
G03*
X6744805Y-8332602I-20000J0D01*
G01*
X6744805Y-8332602D02*
X6744805Y-8452602D01*
X6744805Y-8452602D02*
G75*
G03*
X6784805Y-8452602I20000J0D01*
G01*
D13*
X14034805Y-8392602D02*
G75*
G03*
X14034805Y-8392602I-20000J0D01*
G01*
D11*
X13994805Y-8332602D02*
X13994805Y-8452602D01*
X13994805Y-8452602D02*
G75*
G03*
X14034805Y-8452602I20000J0D01*
G01*
X14034805Y-8452602D02*
X14034805Y-8332602D01*
X14034805Y-8332602D02*
G75*
G03*
X13994805Y-8332602I-20000J0D01*
G01*
D14*
X8695428Y-8825000D02*
X8695428Y-8875000D01*
X8670428Y-8850000D02*
X8720428Y-8850000D01*
X8695428Y-8965000D02*
X8695428Y-9015000D01*
X8670428Y-8990000D02*
X8720428Y-8990000D01*
X8790428Y-8825000D02*
X8790428Y-8875000D01*
X8765428Y-8850000D02*
X8815428Y-8850000D01*
X8790428Y-8965000D02*
X8790428Y-9015000D01*
X8765428Y-8990000D02*
X8815428Y-8990000D01*
X8885428Y-8825000D02*
X8885428Y-8875000D01*
X8860428Y-8850000D02*
X8910428Y-8850000D01*
X8975428Y-8825000D02*
X8975428Y-8875000D01*
X8950428Y-8850000D02*
X9000428Y-8850000D01*
X8975428Y-8965000D02*
X8975428Y-9015000D01*
X8950428Y-8990000D02*
X9000428Y-8990000D01*
X9065428Y-8825000D02*
X9065428Y-8875000D01*
X9040428Y-8850000D02*
X9090428Y-8850000D01*
X9065428Y-8965000D02*
X9065428Y-9015000D01*
X9040428Y-8990000D02*
X9090428Y-8990000D01*
X9155428Y-8965000D02*
X9155428Y-9015000D01*
X9130428Y-8990000D02*
X9180428Y-8990000D01*
X9250428Y-8825000D02*
X9250428Y-8875000D01*
X9225428Y-8850000D02*
X9275428Y-8850000D01*
X9250428Y-8965000D02*
X9250428Y-9015000D01*
X9225428Y-8990000D02*
X9275428Y-8990000D01*
X9345428Y-8825000D02*
X9345428Y-8875000D01*
X9320428Y-8850000D02*
X9370428Y-8850000D01*
X9345428Y-8965000D02*
X9345428Y-9015000D01*
X9320428Y-8990000D02*
X9370428Y-8990000D01*
D15*
X8845177Y-8749749D02*
X8845177Y-8700251D01*
X8795679Y-8700251D01*
X8795679Y-8749749D01*
X8845177Y-8749749D01*
D11*
X8775428Y-8760000D02*
X8865428Y-8760000D01*
X8865428Y-8760000D02*
G75*
G03*
X8865428Y-8690000I0J35000D01*
G01*
X8865428Y-8690000D02*
X8775428Y-8690000D01*
X8775428Y-8690000D02*
G75*
G03*
X8775428Y-8760000I0J-35000D01*
G01*
D15*
X8845177Y-9139749D02*
X8845177Y-9090251D01*
X8795679Y-9090251D01*
X8795679Y-9139749D01*
X8845177Y-9139749D01*
D11*
X8775428Y-9150000D02*
X8865428Y-9150000D01*
X8865428Y-9150000D02*
G75*
G03*
X8865428Y-9080000I0J35000D01*
G01*
X8865428Y-9080000D02*
X8775428Y-9080000D01*
X8775428Y-9080000D02*
G75*
G03*
X8775428Y-9150000I0J-35000D01*
G01*
D15*
X9245177Y-8749749D02*
X9245177Y-8700251D01*
X9195679Y-8700251D01*
X9195679Y-8749749D01*
X9245177Y-8749749D01*
D11*
X9175428Y-8760000D02*
X9265428Y-8760000D01*
X9265428Y-8760000D02*
G75*
G03*
X9265428Y-8690000I0J35000D01*
G01*
X9265428Y-8690000D02*
X9175428Y-8690000D01*
X9175428Y-8690000D02*
G75*
G03*
X9175428Y-8760000I0J-35000D01*
G01*
D15*
X9245177Y-9139749D02*
X9245177Y-9090251D01*
X9195679Y-9090251D01*
X9195679Y-9139749D01*
X9245177Y-9139749D01*
D11*
X9175428Y-9150000D02*
X9265428Y-9150000D01*
X9265428Y-9150000D02*
G75*
G03*
X9265428Y-9080000I0J35000D01*
G01*
X9265428Y-9080000D02*
X9175428Y-9080000D01*
X9175428Y-9080000D02*
G75*
G03*
X9175428Y-9150000I0J-35000D01*
G01*
D16*
X11007232Y-7183600D02*
X11045332Y-7145500D01*
X11007232Y-7107400D01*
X10969132Y-7145500D01*
X11007232Y-7183600D01*
D11*
X10795332Y-7183600D02*
X11219132Y-7183600D01*
X11219132Y-7183600D02*
G75*
G03*
X11219132Y-7107400I0J38100D01*
G01*
X11219132Y-7107400D02*
X10795332Y-7107400D01*
X10795332Y-7107400D02*
G75*
G03*
X10795332Y-7183600I0J-38100D01*
G01*
D16*
X12007232Y-7183600D02*
X12045332Y-7145500D01*
X12007232Y-7107400D01*
X11969132Y-7145500D01*
X12007232Y-7183600D01*
D11*
X11795332Y-7183600D02*
X12219132Y-7183600D01*
X12219132Y-7183600D02*
G75*
G03*
X12219132Y-7107400I0J38100D01*
G01*
X12219132Y-7107400D02*
X11795332Y-7107400D01*
X11795332Y-7107400D02*
G75*
G03*
X11795332Y-7183600I0J-38100D01*
G01*
D17*
X7760570Y-7044806D02*
X7850570Y-7134806D01*
X7850570Y-7044806D02*
X7760570Y-7134806D01*
X7850570Y-7089806D02*
G75*
G03*
X7850570Y-7089806I-45000J0D01*
G01*
X8014570Y-7044806D02*
X8104570Y-7134806D01*
X8104570Y-7044806D02*
X8014570Y-7134806D01*
X8104570Y-7089806D02*
G75*
G03*
X8104570Y-7089806I-45000J0D01*
G01*
X8348070Y-7044806D02*
X8438070Y-7134806D01*
X8438070Y-7044806D02*
X8348070Y-7134806D01*
X8438070Y-7089806D02*
G75*
G03*
X8438070Y-7089806I-45000J0D01*
G01*
X8602070Y-7044806D02*
X8692070Y-7134806D01*
X8692070Y-7044806D02*
X8602070Y-7134806D01*
X8692070Y-7089806D02*
G75*
G03*
X8692070Y-7089806I-45000J0D01*
G01*
X8935570Y-7044806D02*
X9025570Y-7134806D01*
X9025570Y-7044806D02*
X8935570Y-7134806D01*
X9025570Y-7089806D02*
G75*
G03*
X9025570Y-7089806I-45000J0D01*
G01*
X9189570Y-7044806D02*
X9279570Y-7134806D01*
X9279570Y-7044806D02*
X9189570Y-7134806D01*
X9279570Y-7089806D02*
G75*
G03*
X9279570Y-7089806I-45000J0D01*
G01*
X9523070Y-7044806D02*
X9613070Y-7134806D01*
X9613070Y-7044806D02*
X9523070Y-7134806D01*
X9613070Y-7089806D02*
G75*
G03*
X9613070Y-7089806I-45000J0D01*
G01*
X9777070Y-7044806D02*
X9867070Y-7134806D01*
X9867070Y-7044806D02*
X9777070Y-7134806D01*
X9867070Y-7089806D02*
G75*
G03*
X9867070Y-7089806I-45000J0D01*
G01*
D18*
X6580000Y-6780000D02*
X6900000Y-7100000D01*
X6900000Y-6780000D02*
X6580000Y-7100000D01*
X6740000Y-6780000D02*
X6740000Y-7100000D01*
X6580000Y-6940000D02*
X6900000Y-6940000D01*
X13880000Y-6780000D02*
X14200000Y-7100000D01*
X14200000Y-6780000D02*
X13880000Y-7100000D01*
X14040000Y-6780000D02*
X14040000Y-7100000D01*
X13880000Y-6940000D02*
X14200000Y-6940000D01*
D11*
X6645662Y-9806484D02*
X6645662Y-9606484D01*
X6645662Y-9606484D02*
X6693281Y-9606484D01*
X6693281Y-9606484D02*
X6721852Y-9616008D01*
X6721852Y-9616008D02*
X6740900Y-9635055D01*
X6740900Y-9635055D02*
X6750424Y-9654103D01*
X6750424Y-9654103D02*
X6759947Y-9692198D01*
X6759947Y-9692198D02*
X6759947Y-9720770D01*
X6759947Y-9720770D02*
X6750424Y-9758865D01*
X6750424Y-9758865D02*
X6740900Y-9777912D01*
X6740900Y-9777912D02*
X6721852Y-9796960D01*
X6721852Y-9796960D02*
X6693281Y-9806484D01*
X6693281Y-9806484D02*
X6645662Y-9806484D01*
X6845662Y-9806484D02*
X6845662Y-9673150D01*
X6845662Y-9711246D02*
X6855185Y-9692198D01*
X6855185Y-9692198D02*
X6864709Y-9682674D01*
X6864709Y-9682674D02*
X6883757Y-9673150D01*
X6883757Y-9673150D02*
X6902805Y-9673150D01*
X6969471Y-9806484D02*
X6969471Y-9673150D01*
X6969471Y-9606484D02*
X6959947Y-9616008D01*
X6959947Y-9616008D02*
X6969471Y-9625531D01*
X6969471Y-9625531D02*
X6978995Y-9616008D01*
X6978995Y-9616008D02*
X6969471Y-9606484D01*
X6969471Y-9606484D02*
X6969471Y-9625531D01*
X7093281Y-9806484D02*
X7074233Y-9796960D01*
X7074233Y-9796960D02*
X7064709Y-9777912D01*
X7064709Y-9777912D02*
X7064709Y-9606484D01*
X7198043Y-9806484D02*
X7178995Y-9796960D01*
X7178995Y-9796960D02*
X7169471Y-9777912D01*
X7169471Y-9777912D02*
X7169471Y-9606484D01*
X7426614Y-9806484D02*
X7426614Y-9606484D01*
X7426614Y-9606484D02*
X7493281Y-9749341D01*
X7493281Y-9749341D02*
X7559947Y-9606484D01*
X7559947Y-9606484D02*
X7559947Y-9806484D01*
X7740900Y-9806484D02*
X7740900Y-9701722D01*
X7740900Y-9701722D02*
X7731376Y-9682674D01*
X7731376Y-9682674D02*
X7712328Y-9673150D01*
X7712328Y-9673150D02*
X7674233Y-9673150D01*
X7674233Y-9673150D02*
X7655185Y-9682674D01*
X7740900Y-9796960D02*
X7721852Y-9806484D01*
X7721852Y-9806484D02*
X7674233Y-9806484D01*
X7674233Y-9806484D02*
X7655185Y-9796960D01*
X7655185Y-9796960D02*
X7645662Y-9777912D01*
X7645662Y-9777912D02*
X7645662Y-9758865D01*
X7645662Y-9758865D02*
X7655185Y-9739817D01*
X7655185Y-9739817D02*
X7674233Y-9730293D01*
X7674233Y-9730293D02*
X7721852Y-9730293D01*
X7721852Y-9730293D02*
X7740900Y-9720770D01*
X7836138Y-9673150D02*
X7836138Y-9873150D01*
X7836138Y-9682674D02*
X7855185Y-9673150D01*
X7855185Y-9673150D02*
X7893281Y-9673150D01*
X7893281Y-9673150D02*
X7912328Y-9682674D01*
X7912328Y-9682674D02*
X7921852Y-9692198D01*
X7921852Y-9692198D02*
X7931376Y-9711246D01*
X7931376Y-9711246D02*
X7931376Y-9768389D01*
X7931376Y-9768389D02*
X7921852Y-9787436D01*
X7921852Y-9787436D02*
X7912328Y-9796960D01*
X7912328Y-9796960D02*
X7893281Y-9806484D01*
X7893281Y-9806484D02*
X7855185Y-9806484D01*
X7855185Y-9806484D02*
X7836138Y-9796960D01*
X8017090Y-9787436D02*
X8026614Y-9796960D01*
X8026614Y-9796960D02*
X8017090Y-9806484D01*
X8017090Y-9806484D02*
X8007566Y-9796960D01*
X8007566Y-9796960D02*
X8017090Y-9787436D01*
X8017090Y-9787436D02*
X8017090Y-9806484D01*
X8017090Y-9682674D02*
X8026614Y-9692198D01*
X8026614Y-9692198D02*
X8017090Y-9701722D01*
X8017090Y-9701722D02*
X8007566Y-9692198D01*
X8007566Y-9692198D02*
X8017090Y-9682674D01*
X8017090Y-9682674D02*
X8017090Y-9701722D01*
D12*
X6354885Y-10120000D02*
X6384885Y-10150000D01*
X6384885Y-10120000D02*
X6354885Y-10150000D01*
D11*
X6683757Y-10026484D02*
X6702805Y-10026484D01*
X6702805Y-10026484D02*
X6721852Y-10036008D01*
X6721852Y-10036008D02*
X6731376Y-10045531D01*
X6731376Y-10045531D02*
X6740900Y-10064579D01*
X6740900Y-10064579D02*
X6750424Y-10102674D01*
X6750424Y-10102674D02*
X6750424Y-10150293D01*
X6750424Y-10150293D02*
X6740900Y-10188389D01*
X6740900Y-10188389D02*
X6731376Y-10207436D01*
X6731376Y-10207436D02*
X6721852Y-10216960D01*
X6721852Y-10216960D02*
X6702805Y-10226484D01*
X6702805Y-10226484D02*
X6683757Y-10226484D01*
X6683757Y-10226484D02*
X6664709Y-10216960D01*
X6664709Y-10216960D02*
X6655185Y-10207436D01*
X6655185Y-10207436D02*
X6645662Y-10188389D01*
X6645662Y-10188389D02*
X6636138Y-10150293D01*
X6636138Y-10150293D02*
X6636138Y-10102674D01*
X6636138Y-10102674D02*
X6645662Y-10064579D01*
X6645662Y-10064579D02*
X6655185Y-10045531D01*
X6655185Y-10045531D02*
X6664709Y-10036008D01*
X6664709Y-10036008D02*
X6683757Y-10026484D01*
X6836138Y-10207436D02*
X6845662Y-10216960D01*
X6845662Y-10216960D02*
X6836138Y-10226484D01*
X6836138Y-10226484D02*
X6826614Y-10216960D01*
X6826614Y-10216960D02*
X6836138Y-10207436D01*
X6836138Y-10207436D02*
X6836138Y-10226484D01*
X6912328Y-10026484D02*
X7036138Y-10026484D01*
X7036138Y-10026484D02*
X6969471Y-10102674D01*
X6969471Y-10102674D02*
X6998043Y-10102674D01*
X6998043Y-10102674D02*
X7017090Y-10112198D01*
X7017090Y-10112198D02*
X7026614Y-10121722D01*
X7026614Y-10121722D02*
X7036138Y-10140770D01*
X7036138Y-10140770D02*
X7036138Y-10188389D01*
X7036138Y-10188389D02*
X7026614Y-10207436D01*
X7026614Y-10207436D02*
X7017090Y-10216960D01*
X7017090Y-10216960D02*
X6998043Y-10226484D01*
X6998043Y-10226484D02*
X6940900Y-10226484D01*
X6940900Y-10226484D02*
X6921852Y-10216960D01*
X6921852Y-10216960D02*
X6912328Y-10207436D01*
X7159947Y-10026484D02*
X7178995Y-10026484D01*
X7178995Y-10026484D02*
X7198043Y-10036008D01*
X7198043Y-10036008D02*
X7207566Y-10045531D01*
X7207566Y-10045531D02*
X7217090Y-10064579D01*
X7217090Y-10064579D02*
X7226614Y-10102674D01*
X7226614Y-10102674D02*
X7226614Y-10150293D01*
X7226614Y-10150293D02*
X7217090Y-10188389D01*
X7217090Y-10188389D02*
X7207566Y-10207436D01*
X7207566Y-10207436D02*
X7198043Y-10216960D01*
X7198043Y-10216960D02*
X7178995Y-10226484D01*
X7178995Y-10226484D02*
X7159947Y-10226484D01*
X7159947Y-10226484D02*
X7140900Y-10216960D01*
X7140900Y-10216960D02*
X7131376Y-10207436D01*
X7131376Y-10207436D02*
X7121852Y-10188389D01*
X7121852Y-10188389D02*
X7112328Y-10150293D01*
X7112328Y-10150293D02*
X7112328Y-10102674D01*
X7112328Y-10102674D02*
X7121852Y-10064579D01*
X7121852Y-10064579D02*
X7131376Y-10045531D01*
X7131376Y-10045531D02*
X7140900Y-10036008D01*
X7140900Y-10036008D02*
X7159947Y-10026484D01*
X7350424Y-10026484D02*
X7369471Y-10026484D01*
X7369471Y-10026484D02*
X7388519Y-10036008D01*
X7388519Y-10036008D02*
X7398043Y-10045531D01*
X7398043Y-10045531D02*
X7407566Y-10064579D01*
X7407566Y-10064579D02*
X7417090Y-10102674D01*
X7417090Y-10102674D02*
X7417090Y-10150293D01*
X7417090Y-10150293D02*
X7407566Y-10188389D01*
X7407566Y-10188389D02*
X7398043Y-10207436D01*
X7398043Y-10207436D02*
X7388519Y-10216960D01*
X7388519Y-10216960D02*
X7369471Y-10226484D01*
X7369471Y-10226484D02*
X7350424Y-10226484D01*
X7350424Y-10226484D02*
X7331376Y-10216960D01*
X7331376Y-10216960D02*
X7321852Y-10207436D01*
X7321852Y-10207436D02*
X7312328Y-10188389D01*
X7312328Y-10188389D02*
X7302805Y-10150293D01*
X7302805Y-10150293D02*
X7302805Y-10102674D01*
X7302805Y-10102674D02*
X7312328Y-10064579D01*
X7312328Y-10064579D02*
X7321852Y-10045531D01*
X7321852Y-10045531D02*
X7331376Y-10036008D01*
X7331376Y-10036008D02*
X7350424Y-10026484D01*
X7502805Y-10226484D02*
X7502805Y-10093150D01*
X7502805Y-10112198D02*
X7512328Y-10102674D01*
X7512328Y-10102674D02*
X7531376Y-10093150D01*
X7531376Y-10093150D02*
X7559947Y-10093150D01*
X7559947Y-10093150D02*
X7578995Y-10102674D01*
X7578995Y-10102674D02*
X7588519Y-10121722D01*
X7588519Y-10121722D02*
X7588519Y-10226484D01*
X7588519Y-10121722D02*
X7598043Y-10102674D01*
X7598043Y-10102674D02*
X7617090Y-10093150D01*
X7617090Y-10093150D02*
X7645662Y-10093150D01*
X7645662Y-10093150D02*
X7664709Y-10102674D01*
X7664709Y-10102674D02*
X7674233Y-10121722D01*
X7674233Y-10121722D02*
X7674233Y-10226484D01*
X7769471Y-10226484D02*
X7769471Y-10093150D01*
X7769471Y-10112198D02*
X7778995Y-10102674D01*
X7778995Y-10102674D02*
X7798043Y-10093150D01*
X7798043Y-10093150D02*
X7826614Y-10093150D01*
X7826614Y-10093150D02*
X7845662Y-10102674D01*
X7845662Y-10102674D02*
X7855186Y-10121722D01*
X7855186Y-10121722D02*
X7855186Y-10226484D01*
X7855186Y-10121722D02*
X7864709Y-10102674D01*
X7864709Y-10102674D02*
X7883757Y-10093150D01*
X7883757Y-10093150D02*
X7912328Y-10093150D01*
X7912328Y-10093150D02*
X7931376Y-10102674D01*
X7931376Y-10102674D02*
X7940900Y-10121722D01*
X7940900Y-10121722D02*
X7940900Y-10226484D01*
X8331376Y-10016960D02*
X8159948Y-10274103D01*
X8588519Y-10026484D02*
X8607567Y-10026484D01*
X8607567Y-10026484D02*
X8626614Y-10036008D01*
X8626614Y-10036008D02*
X8636138Y-10045531D01*
X8636138Y-10045531D02*
X8645662Y-10064579D01*
X8645662Y-10064579D02*
X8655186Y-10102674D01*
X8655186Y-10102674D02*
X8655186Y-10150293D01*
X8655186Y-10150293D02*
X8645662Y-10188389D01*
X8645662Y-10188389D02*
X8636138Y-10207436D01*
X8636138Y-10207436D02*
X8626614Y-10216960D01*
X8626614Y-10216960D02*
X8607567Y-10226484D01*
X8607567Y-10226484D02*
X8588519Y-10226484D01*
X8588519Y-10226484D02*
X8569471Y-10216960D01*
X8569471Y-10216960D02*
X8559948Y-10207436D01*
X8559948Y-10207436D02*
X8550424Y-10188389D01*
X8550424Y-10188389D02*
X8540900Y-10150293D01*
X8540900Y-10150293D02*
X8540900Y-10102674D01*
X8540900Y-10102674D02*
X8550424Y-10064579D01*
X8550424Y-10064579D02*
X8559948Y-10045531D01*
X8559948Y-10045531D02*
X8569471Y-10036008D01*
X8569471Y-10036008D02*
X8588519Y-10026484D01*
X8740900Y-10207436D02*
X8750424Y-10216960D01*
X8750424Y-10216960D02*
X8740900Y-10226484D01*
X8740900Y-10226484D02*
X8731376Y-10216960D01*
X8731376Y-10216960D02*
X8740900Y-10207436D01*
X8740900Y-10207436D02*
X8740900Y-10226484D01*
X8874233Y-10026484D02*
X8893281Y-10026484D01*
X8893281Y-10026484D02*
X8912329Y-10036008D01*
X8912329Y-10036008D02*
X8921852Y-10045531D01*
X8921852Y-10045531D02*
X8931376Y-10064579D01*
X8931376Y-10064579D02*
X8940900Y-10102674D01*
X8940900Y-10102674D02*
X8940900Y-10150293D01*
X8940900Y-10150293D02*
X8931376Y-10188389D01*
X8931376Y-10188389D02*
X8921852Y-10207436D01*
X8921852Y-10207436D02*
X8912329Y-10216960D01*
X8912329Y-10216960D02*
X8893281Y-10226484D01*
X8893281Y-10226484D02*
X8874233Y-10226484D01*
X8874233Y-10226484D02*
X8855186Y-10216960D01*
X8855186Y-10216960D02*
X8845662Y-10207436D01*
X8845662Y-10207436D02*
X8836138Y-10188389D01*
X8836138Y-10188389D02*
X8826614Y-10150293D01*
X8826614Y-10150293D02*
X8826614Y-10102674D01*
X8826614Y-10102674D02*
X8836138Y-10064579D01*
X8836138Y-10064579D02*
X8845662Y-10045531D01*
X8845662Y-10045531D02*
X8855186Y-10036008D01*
X8855186Y-10036008D02*
X8874233Y-10026484D01*
X9131376Y-10226484D02*
X9017091Y-10226484D01*
X9074233Y-10226484D02*
X9074233Y-10026484D01*
X9074233Y-10026484D02*
X9055186Y-10055055D01*
X9055186Y-10055055D02*
X9036138Y-10074103D01*
X9036138Y-10074103D02*
X9017091Y-10083627D01*
X9321852Y-10226484D02*
X9207567Y-10226484D01*
X9264710Y-10226484D02*
X9264710Y-10026484D01*
X9264710Y-10026484D02*
X9245662Y-10055055D01*
X9245662Y-10055055D02*
X9226614Y-10074103D01*
X9226614Y-10074103D02*
X9207567Y-10083627D01*
X9436138Y-10112198D02*
X9417091Y-10102674D01*
X9417091Y-10102674D02*
X9407567Y-10093150D01*
X9407567Y-10093150D02*
X9398043Y-10074103D01*
X9398043Y-10074103D02*
X9398043Y-10064579D01*
X9398043Y-10064579D02*
X9407567Y-10045531D01*
X9407567Y-10045531D02*
X9417091Y-10036008D01*
X9417091Y-10036008D02*
X9436138Y-10026484D01*
X9436138Y-10026484D02*
X9474233Y-10026484D01*
X9474233Y-10026484D02*
X9493281Y-10036008D01*
X9493281Y-10036008D02*
X9502805Y-10045531D01*
X9502805Y-10045531D02*
X9512329Y-10064579D01*
X9512329Y-10064579D02*
X9512329Y-10074103D01*
X9512329Y-10074103D02*
X9502805Y-10093150D01*
X9502805Y-10093150D02*
X9493281Y-10102674D01*
X9493281Y-10102674D02*
X9474233Y-10112198D01*
X9474233Y-10112198D02*
X9436138Y-10112198D01*
X9436138Y-10112198D02*
X9417091Y-10121722D01*
X9417091Y-10121722D02*
X9407567Y-10131246D01*
X9407567Y-10131246D02*
X9398043Y-10150293D01*
X9398043Y-10150293D02*
X9398043Y-10188389D01*
X9398043Y-10188389D02*
X9407567Y-10207436D01*
X9407567Y-10207436D02*
X9417091Y-10216960D01*
X9417091Y-10216960D02*
X9436138Y-10226484D01*
X9436138Y-10226484D02*
X9474233Y-10226484D01*
X9474233Y-10226484D02*
X9493281Y-10216960D01*
X9493281Y-10216960D02*
X9502805Y-10207436D01*
X9502805Y-10207436D02*
X9512329Y-10188389D01*
X9512329Y-10188389D02*
X9512329Y-10150293D01*
X9512329Y-10150293D02*
X9502805Y-10131246D01*
X9502805Y-10131246D02*
X9493281Y-10121722D01*
X9493281Y-10121722D02*
X9474233Y-10112198D01*
X9588519Y-10026484D02*
X9588519Y-10064579D01*
X9664710Y-10026484D02*
X9664710Y-10064579D01*
X9959948Y-10302674D02*
X9950424Y-10293150D01*
X9950424Y-10293150D02*
X9931376Y-10264579D01*
X9931376Y-10264579D02*
X9921853Y-10245531D01*
X9921853Y-10245531D02*
X9912329Y-10216960D01*
X9912329Y-10216960D02*
X9902805Y-10169341D01*
X9902805Y-10169341D02*
X9902805Y-10131246D01*
X9902805Y-10131246D02*
X9912329Y-10083627D01*
X9912329Y-10083627D02*
X9921853Y-10055055D01*
X9921853Y-10055055D02*
X9931376Y-10036008D01*
X9931376Y-10036008D02*
X9950424Y-10007436D01*
X9950424Y-10007436D02*
X9959948Y-9997912D01*
X10017091Y-10026484D02*
X10140900Y-10026484D01*
X10140900Y-10026484D02*
X10074233Y-10102674D01*
X10074233Y-10102674D02*
X10102805Y-10102674D01*
X10102805Y-10102674D02*
X10121853Y-10112198D01*
X10121853Y-10112198D02*
X10131376Y-10121722D01*
X10131376Y-10121722D02*
X10140900Y-10140770D01*
X10140900Y-10140770D02*
X10140900Y-10188389D01*
X10140900Y-10188389D02*
X10131376Y-10207436D01*
X10131376Y-10207436D02*
X10121853Y-10216960D01*
X10121853Y-10216960D02*
X10102805Y-10226484D01*
X10102805Y-10226484D02*
X10045662Y-10226484D01*
X10045662Y-10226484D02*
X10026614Y-10216960D01*
X10026614Y-10216960D02*
X10017091Y-10207436D01*
X10255186Y-10112198D02*
X10236138Y-10102674D01*
X10236138Y-10102674D02*
X10226614Y-10093150D01*
X10226614Y-10093150D02*
X10217091Y-10074103D01*
X10217091Y-10074103D02*
X10217091Y-10064579D01*
X10217091Y-10064579D02*
X10226614Y-10045531D01*
X10226614Y-10045531D02*
X10236138Y-10036008D01*
X10236138Y-10036008D02*
X10255186Y-10026484D01*
X10255186Y-10026484D02*
X10293281Y-10026484D01*
X10293281Y-10026484D02*
X10312329Y-10036008D01*
X10312329Y-10036008D02*
X10321853Y-10045531D01*
X10321853Y-10045531D02*
X10331376Y-10064579D01*
X10331376Y-10064579D02*
X10331376Y-10074103D01*
X10331376Y-10074103D02*
X10321853Y-10093150D01*
X10321853Y-10093150D02*
X10312329Y-10102674D01*
X10312329Y-10102674D02*
X10293281Y-10112198D01*
X10293281Y-10112198D02*
X10255186Y-10112198D01*
X10255186Y-10112198D02*
X10236138Y-10121722D01*
X10236138Y-10121722D02*
X10226614Y-10131246D01*
X10226614Y-10131246D02*
X10217091Y-10150293D01*
X10217091Y-10150293D02*
X10217091Y-10188389D01*
X10217091Y-10188389D02*
X10226614Y-10207436D01*
X10226614Y-10207436D02*
X10236138Y-10216960D01*
X10236138Y-10216960D02*
X10255186Y-10226484D01*
X10255186Y-10226484D02*
X10293281Y-10226484D01*
X10293281Y-10226484D02*
X10312329Y-10216960D01*
X10312329Y-10216960D02*
X10321853Y-10207436D01*
X10321853Y-10207436D02*
X10331376Y-10188389D01*
X10331376Y-10188389D02*
X10331376Y-10150293D01*
X10331376Y-10150293D02*
X10321853Y-10131246D01*
X10321853Y-10131246D02*
X10312329Y-10121722D01*
X10312329Y-10121722D02*
X10293281Y-10112198D01*
X10569472Y-10226484D02*
X10569472Y-10026484D01*
X10655186Y-10226484D02*
X10655186Y-10121722D01*
X10655186Y-10121722D02*
X10645662Y-10102674D01*
X10645662Y-10102674D02*
X10626615Y-10093150D01*
X10626615Y-10093150D02*
X10598043Y-10093150D01*
X10598043Y-10093150D02*
X10578995Y-10102674D01*
X10578995Y-10102674D02*
X10569472Y-10112198D01*
X10778995Y-10226484D02*
X10759948Y-10216960D01*
X10759948Y-10216960D02*
X10750424Y-10207436D01*
X10750424Y-10207436D02*
X10740900Y-10188389D01*
X10740900Y-10188389D02*
X10740900Y-10131246D01*
X10740900Y-10131246D02*
X10750424Y-10112198D01*
X10750424Y-10112198D02*
X10759948Y-10102674D01*
X10759948Y-10102674D02*
X10778995Y-10093150D01*
X10778995Y-10093150D02*
X10807567Y-10093150D01*
X10807567Y-10093150D02*
X10826615Y-10102674D01*
X10826615Y-10102674D02*
X10836138Y-10112198D01*
X10836138Y-10112198D02*
X10845662Y-10131246D01*
X10845662Y-10131246D02*
X10845662Y-10188389D01*
X10845662Y-10188389D02*
X10836138Y-10207436D01*
X10836138Y-10207436D02*
X10826615Y-10216960D01*
X10826615Y-10216960D02*
X10807567Y-10226484D01*
X10807567Y-10226484D02*
X10778995Y-10226484D01*
X10959948Y-10226484D02*
X10940900Y-10216960D01*
X10940900Y-10216960D02*
X10931376Y-10197912D01*
X10931376Y-10197912D02*
X10931376Y-10026484D01*
X11112329Y-10216960D02*
X11093281Y-10226484D01*
X11093281Y-10226484D02*
X11055186Y-10226484D01*
X11055186Y-10226484D02*
X11036138Y-10216960D01*
X11036138Y-10216960D02*
X11026615Y-10197912D01*
X11026615Y-10197912D02*
X11026615Y-10121722D01*
X11026615Y-10121722D02*
X11036138Y-10102674D01*
X11036138Y-10102674D02*
X11055186Y-10093150D01*
X11055186Y-10093150D02*
X11093281Y-10093150D01*
X11093281Y-10093150D02*
X11112329Y-10102674D01*
X11112329Y-10102674D02*
X11121853Y-10121722D01*
X11121853Y-10121722D02*
X11121853Y-10140770D01*
X11121853Y-10140770D02*
X11026615Y-10159817D01*
X11198043Y-10216960D02*
X11217091Y-10226484D01*
X11217091Y-10226484D02*
X11255186Y-10226484D01*
X11255186Y-10226484D02*
X11274234Y-10216960D01*
X11274234Y-10216960D02*
X11283757Y-10197912D01*
X11283757Y-10197912D02*
X11283757Y-10188389D01*
X11283757Y-10188389D02*
X11274234Y-10169341D01*
X11274234Y-10169341D02*
X11255186Y-10159817D01*
X11255186Y-10159817D02*
X11226614Y-10159817D01*
X11226614Y-10159817D02*
X11207567Y-10150293D01*
X11207567Y-10150293D02*
X11198043Y-10131246D01*
X11198043Y-10131246D02*
X11198043Y-10121722D01*
X11198043Y-10121722D02*
X11207567Y-10102674D01*
X11207567Y-10102674D02*
X11226614Y-10093150D01*
X11226614Y-10093150D02*
X11255186Y-10093150D01*
X11255186Y-10093150D02*
X11274234Y-10102674D01*
X11350424Y-10302674D02*
X11359948Y-10293150D01*
X11359948Y-10293150D02*
X11378995Y-10264579D01*
X11378995Y-10264579D02*
X11388519Y-10245531D01*
X11388519Y-10245531D02*
X11398043Y-10216960D01*
X11398043Y-10216960D02*
X11407567Y-10169341D01*
X11407567Y-10169341D02*
X11407567Y-10131246D01*
X11407567Y-10131246D02*
X11398043Y-10083627D01*
X11398043Y-10083627D02*
X11388519Y-10055055D01*
X11388519Y-10055055D02*
X11378995Y-10036008D01*
X11378995Y-10036008D02*
X11359948Y-10007436D01*
X11359948Y-10007436D02*
X11350424Y-9997912D01*
D13*
X6384885Y-10399000D02*
G75*
G03*
X6384885Y-10399000I-20000J0D01*
G01*
D11*
X6683757Y-10290484D02*
X6702805Y-10290484D01*
X6702805Y-10290484D02*
X6721852Y-10300008D01*
X6721852Y-10300008D02*
X6731376Y-10309531D01*
X6731376Y-10309531D02*
X6740900Y-10328579D01*
X6740900Y-10328579D02*
X6750424Y-10366674D01*
X6750424Y-10366674D02*
X6750424Y-10414293D01*
X6750424Y-10414293D02*
X6740900Y-10452389D01*
X6740900Y-10452389D02*
X6731376Y-10471436D01*
X6731376Y-10471436D02*
X6721852Y-10480960D01*
X6721852Y-10480960D02*
X6702805Y-10490484D01*
X6702805Y-10490484D02*
X6683757Y-10490484D01*
X6683757Y-10490484D02*
X6664709Y-10480960D01*
X6664709Y-10480960D02*
X6655185Y-10471436D01*
X6655185Y-10471436D02*
X6645662Y-10452389D01*
X6645662Y-10452389D02*
X6636138Y-10414293D01*
X6636138Y-10414293D02*
X6636138Y-10366674D01*
X6636138Y-10366674D02*
X6645662Y-10328579D01*
X6645662Y-10328579D02*
X6655185Y-10309531D01*
X6655185Y-10309531D02*
X6664709Y-10300008D01*
X6664709Y-10300008D02*
X6683757Y-10290484D01*
X6836138Y-10471436D02*
X6845662Y-10480960D01*
X6845662Y-10480960D02*
X6836138Y-10490484D01*
X6836138Y-10490484D02*
X6826614Y-10480960D01*
X6826614Y-10480960D02*
X6836138Y-10471436D01*
X6836138Y-10471436D02*
X6836138Y-10490484D01*
X7017090Y-10357150D02*
X7017090Y-10490484D01*
X6969471Y-10280960D02*
X6921852Y-10423817D01*
X6921852Y-10423817D02*
X7045662Y-10423817D01*
X7159947Y-10290484D02*
X7178995Y-10290484D01*
X7178995Y-10290484D02*
X7198043Y-10300008D01*
X7198043Y-10300008D02*
X7207566Y-10309531D01*
X7207566Y-10309531D02*
X7217090Y-10328579D01*
X7217090Y-10328579D02*
X7226614Y-10366674D01*
X7226614Y-10366674D02*
X7226614Y-10414293D01*
X7226614Y-10414293D02*
X7217090Y-10452389D01*
X7217090Y-10452389D02*
X7207566Y-10471436D01*
X7207566Y-10471436D02*
X7198043Y-10480960D01*
X7198043Y-10480960D02*
X7178995Y-10490484D01*
X7178995Y-10490484D02*
X7159947Y-10490484D01*
X7159947Y-10490484D02*
X7140900Y-10480960D01*
X7140900Y-10480960D02*
X7131376Y-10471436D01*
X7131376Y-10471436D02*
X7121852Y-10452389D01*
X7121852Y-10452389D02*
X7112328Y-10414293D01*
X7112328Y-10414293D02*
X7112328Y-10366674D01*
X7112328Y-10366674D02*
X7121852Y-10328579D01*
X7121852Y-10328579D02*
X7131376Y-10309531D01*
X7131376Y-10309531D02*
X7140900Y-10300008D01*
X7140900Y-10300008D02*
X7159947Y-10290484D01*
X7350424Y-10290484D02*
X7369471Y-10290484D01*
X7369471Y-10290484D02*
X7388519Y-10300008D01*
X7388519Y-10300008D02*
X7398043Y-10309531D01*
X7398043Y-10309531D02*
X7407566Y-10328579D01*
X7407566Y-10328579D02*
X7417090Y-10366674D01*
X7417090Y-10366674D02*
X7417090Y-10414293D01*
X7417090Y-10414293D02*
X7407566Y-10452389D01*
X7407566Y-10452389D02*
X7398043Y-10471436D01*
X7398043Y-10471436D02*
X7388519Y-10480960D01*
X7388519Y-10480960D02*
X7369471Y-10490484D01*
X7369471Y-10490484D02*
X7350424Y-10490484D01*
X7350424Y-10490484D02*
X7331376Y-10480960D01*
X7331376Y-10480960D02*
X7321852Y-10471436D01*
X7321852Y-10471436D02*
X7312328Y-10452389D01*
X7312328Y-10452389D02*
X7302805Y-10414293D01*
X7302805Y-10414293D02*
X7302805Y-10366674D01*
X7302805Y-10366674D02*
X7312328Y-10328579D01*
X7312328Y-10328579D02*
X7321852Y-10309531D01*
X7321852Y-10309531D02*
X7331376Y-10300008D01*
X7331376Y-10300008D02*
X7350424Y-10290484D01*
X7502805Y-10490484D02*
X7502805Y-10357150D01*
X7502805Y-10376198D02*
X7512328Y-10366674D01*
X7512328Y-10366674D02*
X7531376Y-10357150D01*
X7531376Y-10357150D02*
X7559947Y-10357150D01*
X7559947Y-10357150D02*
X7578995Y-10366674D01*
X7578995Y-10366674D02*
X7588519Y-10385722D01*
X7588519Y-10385722D02*
X7588519Y-10490484D01*
X7588519Y-10385722D02*
X7598043Y-10366674D01*
X7598043Y-10366674D02*
X7617090Y-10357150D01*
X7617090Y-10357150D02*
X7645662Y-10357150D01*
X7645662Y-10357150D02*
X7664709Y-10366674D01*
X7664709Y-10366674D02*
X7674233Y-10385722D01*
X7674233Y-10385722D02*
X7674233Y-10490484D01*
X7769471Y-10490484D02*
X7769471Y-10357150D01*
X7769471Y-10376198D02*
X7778995Y-10366674D01*
X7778995Y-10366674D02*
X7798043Y-10357150D01*
X7798043Y-10357150D02*
X7826614Y-10357150D01*
X7826614Y-10357150D02*
X7845662Y-10366674D01*
X7845662Y-10366674D02*
X7855186Y-10385722D01*
X7855186Y-10385722D02*
X7855186Y-10490484D01*
X7855186Y-10385722D02*
X7864709Y-10366674D01*
X7864709Y-10366674D02*
X7883757Y-10357150D01*
X7883757Y-10357150D02*
X7912328Y-10357150D01*
X7912328Y-10357150D02*
X7931376Y-10366674D01*
X7931376Y-10366674D02*
X7940900Y-10385722D01*
X7940900Y-10385722D02*
X7940900Y-10490484D01*
X8331376Y-10280960D02*
X8159948Y-10538103D01*
X8588519Y-10290484D02*
X8607567Y-10290484D01*
X8607567Y-10290484D02*
X8626614Y-10300008D01*
X8626614Y-10300008D02*
X8636138Y-10309531D01*
X8636138Y-10309531D02*
X8645662Y-10328579D01*
X8645662Y-10328579D02*
X8655186Y-10366674D01*
X8655186Y-10366674D02*
X8655186Y-10414293D01*
X8655186Y-10414293D02*
X8645662Y-10452389D01*
X8645662Y-10452389D02*
X8636138Y-10471436D01*
X8636138Y-10471436D02*
X8626614Y-10480960D01*
X8626614Y-10480960D02*
X8607567Y-10490484D01*
X8607567Y-10490484D02*
X8588519Y-10490484D01*
X8588519Y-10490484D02*
X8569471Y-10480960D01*
X8569471Y-10480960D02*
X8559948Y-10471436D01*
X8559948Y-10471436D02*
X8550424Y-10452389D01*
X8550424Y-10452389D02*
X8540900Y-10414293D01*
X8540900Y-10414293D02*
X8540900Y-10366674D01*
X8540900Y-10366674D02*
X8550424Y-10328579D01*
X8550424Y-10328579D02*
X8559948Y-10309531D01*
X8559948Y-10309531D02*
X8569471Y-10300008D01*
X8569471Y-10300008D02*
X8588519Y-10290484D01*
X8740900Y-10471436D02*
X8750424Y-10480960D01*
X8750424Y-10480960D02*
X8740900Y-10490484D01*
X8740900Y-10490484D02*
X8731376Y-10480960D01*
X8731376Y-10480960D02*
X8740900Y-10471436D01*
X8740900Y-10471436D02*
X8740900Y-10490484D01*
X8874233Y-10290484D02*
X8893281Y-10290484D01*
X8893281Y-10290484D02*
X8912329Y-10300008D01*
X8912329Y-10300008D02*
X8921852Y-10309531D01*
X8921852Y-10309531D02*
X8931376Y-10328579D01*
X8931376Y-10328579D02*
X8940900Y-10366674D01*
X8940900Y-10366674D02*
X8940900Y-10414293D01*
X8940900Y-10414293D02*
X8931376Y-10452389D01*
X8931376Y-10452389D02*
X8921852Y-10471436D01*
X8921852Y-10471436D02*
X8912329Y-10480960D01*
X8912329Y-10480960D02*
X8893281Y-10490484D01*
X8893281Y-10490484D02*
X8874233Y-10490484D01*
X8874233Y-10490484D02*
X8855186Y-10480960D01*
X8855186Y-10480960D02*
X8845662Y-10471436D01*
X8845662Y-10471436D02*
X8836138Y-10452389D01*
X8836138Y-10452389D02*
X8826614Y-10414293D01*
X8826614Y-10414293D02*
X8826614Y-10366674D01*
X8826614Y-10366674D02*
X8836138Y-10328579D01*
X8836138Y-10328579D02*
X8845662Y-10309531D01*
X8845662Y-10309531D02*
X8855186Y-10300008D01*
X8855186Y-10300008D02*
X8874233Y-10290484D01*
X9131376Y-10490484D02*
X9017091Y-10490484D01*
X9074233Y-10490484D02*
X9074233Y-10290484D01*
X9074233Y-10290484D02*
X9055186Y-10319055D01*
X9055186Y-10319055D02*
X9036138Y-10338103D01*
X9036138Y-10338103D02*
X9017091Y-10347627D01*
X9312329Y-10290484D02*
X9217091Y-10290484D01*
X9217091Y-10290484D02*
X9207567Y-10385722D01*
X9207567Y-10385722D02*
X9217091Y-10376198D01*
X9217091Y-10376198D02*
X9236138Y-10366674D01*
X9236138Y-10366674D02*
X9283757Y-10366674D01*
X9283757Y-10366674D02*
X9302805Y-10376198D01*
X9302805Y-10376198D02*
X9312329Y-10385722D01*
X9312329Y-10385722D02*
X9321852Y-10404770D01*
X9321852Y-10404770D02*
X9321852Y-10452389D01*
X9321852Y-10452389D02*
X9312329Y-10471436D01*
X9312329Y-10471436D02*
X9302805Y-10480960D01*
X9302805Y-10480960D02*
X9283757Y-10490484D01*
X9283757Y-10490484D02*
X9236138Y-10490484D01*
X9236138Y-10490484D02*
X9217091Y-10480960D01*
X9217091Y-10480960D02*
X9207567Y-10471436D01*
X9388519Y-10290484D02*
X9521852Y-10290484D01*
X9521852Y-10290484D02*
X9436138Y-10490484D01*
X9588519Y-10290484D02*
X9588519Y-10328579D01*
X9664710Y-10290484D02*
X9664710Y-10328579D01*
X9959948Y-10566674D02*
X9950424Y-10557150D01*
X9950424Y-10557150D02*
X9931376Y-10528579D01*
X9931376Y-10528579D02*
X9921853Y-10509531D01*
X9921853Y-10509531D02*
X9912329Y-10480960D01*
X9912329Y-10480960D02*
X9902805Y-10433341D01*
X9902805Y-10433341D02*
X9902805Y-10395246D01*
X9902805Y-10395246D02*
X9912329Y-10347627D01*
X9912329Y-10347627D02*
X9921853Y-10319055D01*
X9921853Y-10319055D02*
X9931376Y-10300008D01*
X9931376Y-10300008D02*
X9950424Y-10271436D01*
X9950424Y-10271436D02*
X9959948Y-10261912D01*
X10074233Y-10290484D02*
X10093281Y-10290484D01*
X10093281Y-10290484D02*
X10112329Y-10300008D01*
X10112329Y-10300008D02*
X10121853Y-10309531D01*
X10121853Y-10309531D02*
X10131376Y-10328579D01*
X10131376Y-10328579D02*
X10140900Y-10366674D01*
X10140900Y-10366674D02*
X10140900Y-10414293D01*
X10140900Y-10414293D02*
X10131376Y-10452389D01*
X10131376Y-10452389D02*
X10121853Y-10471436D01*
X10121853Y-10471436D02*
X10112329Y-10480960D01*
X10112329Y-10480960D02*
X10093281Y-10490484D01*
X10093281Y-10490484D02*
X10074233Y-10490484D01*
X10074233Y-10490484D02*
X10055186Y-10480960D01*
X10055186Y-10480960D02*
X10045662Y-10471436D01*
X10045662Y-10471436D02*
X10036138Y-10452389D01*
X10036138Y-10452389D02*
X10026614Y-10414293D01*
X10026614Y-10414293D02*
X10026614Y-10366674D01*
X10026614Y-10366674D02*
X10036138Y-10328579D01*
X10036138Y-10328579D02*
X10045662Y-10309531D01*
X10045662Y-10309531D02*
X10055186Y-10300008D01*
X10055186Y-10300008D02*
X10074233Y-10290484D01*
X10378995Y-10490484D02*
X10378995Y-10290484D01*
X10464710Y-10490484D02*
X10464710Y-10385722D01*
X10464710Y-10385722D02*
X10455186Y-10366674D01*
X10455186Y-10366674D02*
X10436138Y-10357150D01*
X10436138Y-10357150D02*
X10407567Y-10357150D01*
X10407567Y-10357150D02*
X10388519Y-10366674D01*
X10388519Y-10366674D02*
X10378995Y-10376198D01*
X10588519Y-10490484D02*
X10569472Y-10480960D01*
X10569472Y-10480960D02*
X10559948Y-10471436D01*
X10559948Y-10471436D02*
X10550424Y-10452389D01*
X10550424Y-10452389D02*
X10550424Y-10395246D01*
X10550424Y-10395246D02*
X10559948Y-10376198D01*
X10559948Y-10376198D02*
X10569472Y-10366674D01*
X10569472Y-10366674D02*
X10588519Y-10357150D01*
X10588519Y-10357150D02*
X10617091Y-10357150D01*
X10617091Y-10357150D02*
X10636138Y-10366674D01*
X10636138Y-10366674D02*
X10645662Y-10376198D01*
X10645662Y-10376198D02*
X10655186Y-10395246D01*
X10655186Y-10395246D02*
X10655186Y-10452389D01*
X10655186Y-10452389D02*
X10645662Y-10471436D01*
X10645662Y-10471436D02*
X10636138Y-10480960D01*
X10636138Y-10480960D02*
X10617091Y-10490484D01*
X10617091Y-10490484D02*
X10588519Y-10490484D01*
X10769472Y-10490484D02*
X10750424Y-10480960D01*
X10750424Y-10480960D02*
X10740900Y-10461912D01*
X10740900Y-10461912D02*
X10740900Y-10290484D01*
X10921853Y-10480960D02*
X10902805Y-10490484D01*
X10902805Y-10490484D02*
X10864710Y-10490484D01*
X10864710Y-10490484D02*
X10845662Y-10480960D01*
X10845662Y-10480960D02*
X10836138Y-10461912D01*
X10836138Y-10461912D02*
X10836138Y-10385722D01*
X10836138Y-10385722D02*
X10845662Y-10366674D01*
X10845662Y-10366674D02*
X10864710Y-10357150D01*
X10864710Y-10357150D02*
X10902805Y-10357150D01*
X10902805Y-10357150D02*
X10921853Y-10366674D01*
X10921853Y-10366674D02*
X10931376Y-10385722D01*
X10931376Y-10385722D02*
X10931376Y-10404770D01*
X10931376Y-10404770D02*
X10836138Y-10423817D01*
X11007567Y-10480960D02*
X11026615Y-10490484D01*
X11026615Y-10490484D02*
X11064710Y-10490484D01*
X11064710Y-10490484D02*
X11083757Y-10480960D01*
X11083757Y-10480960D02*
X11093281Y-10461912D01*
X11093281Y-10461912D02*
X11093281Y-10452389D01*
X11093281Y-10452389D02*
X11083757Y-10433341D01*
X11083757Y-10433341D02*
X11064710Y-10423817D01*
X11064710Y-10423817D02*
X11036138Y-10423817D01*
X11036138Y-10423817D02*
X11017091Y-10414293D01*
X11017091Y-10414293D02*
X11007567Y-10395246D01*
X11007567Y-10395246D02*
X11007567Y-10385722D01*
X11007567Y-10385722D02*
X11017091Y-10366674D01*
X11017091Y-10366674D02*
X11036138Y-10357150D01*
X11036138Y-10357150D02*
X11064710Y-10357150D01*
X11064710Y-10357150D02*
X11083757Y-10366674D01*
X11331376Y-10414293D02*
X11483757Y-10414293D01*
X11407567Y-10490484D02*
X11407567Y-10338103D01*
X11721853Y-10309531D02*
X11731376Y-10300008D01*
X11731376Y-10300008D02*
X11750424Y-10290484D01*
X11750424Y-10290484D02*
X11798043Y-10290484D01*
X11798043Y-10290484D02*
X11817091Y-10300008D01*
X11817091Y-10300008D02*
X11826615Y-10309531D01*
X11826615Y-10309531D02*
X11836138Y-10328579D01*
X11836138Y-10328579D02*
X11836138Y-10347627D01*
X11836138Y-10347627D02*
X11826615Y-10376198D01*
X11826615Y-10376198D02*
X11712329Y-10490484D01*
X11712329Y-10490484D02*
X11836138Y-10490484D01*
X12064710Y-10480960D02*
X12083757Y-10490484D01*
X12083757Y-10490484D02*
X12121853Y-10490484D01*
X12121853Y-10490484D02*
X12140900Y-10480960D01*
X12140900Y-10480960D02*
X12150424Y-10461912D01*
X12150424Y-10461912D02*
X12150424Y-10452389D01*
X12150424Y-10452389D02*
X12140900Y-10433341D01*
X12140900Y-10433341D02*
X12121853Y-10423817D01*
X12121853Y-10423817D02*
X12093281Y-10423817D01*
X12093281Y-10423817D02*
X12074234Y-10414293D01*
X12074234Y-10414293D02*
X12064710Y-10395246D01*
X12064710Y-10395246D02*
X12064710Y-10385722D01*
X12064710Y-10385722D02*
X12074234Y-10366674D01*
X12074234Y-10366674D02*
X12093281Y-10357150D01*
X12093281Y-10357150D02*
X12121853Y-10357150D01*
X12121853Y-10357150D02*
X12140900Y-10366674D01*
X12264710Y-10490484D02*
X12245662Y-10480960D01*
X12245662Y-10480960D02*
X12236138Y-10461912D01*
X12236138Y-10461912D02*
X12236138Y-10290484D01*
X12369472Y-10490484D02*
X12350424Y-10480960D01*
X12350424Y-10480960D02*
X12340900Y-10471436D01*
X12340900Y-10471436D02*
X12331377Y-10452389D01*
X12331377Y-10452389D02*
X12331377Y-10395246D01*
X12331377Y-10395246D02*
X12340900Y-10376198D01*
X12340900Y-10376198D02*
X12350424Y-10366674D01*
X12350424Y-10366674D02*
X12369472Y-10357150D01*
X12369472Y-10357150D02*
X12398043Y-10357150D01*
X12398043Y-10357150D02*
X12417091Y-10366674D01*
X12417091Y-10366674D02*
X12426615Y-10376198D01*
X12426615Y-10376198D02*
X12436138Y-10395246D01*
X12436138Y-10395246D02*
X12436138Y-10452389D01*
X12436138Y-10452389D02*
X12426615Y-10471436D01*
X12426615Y-10471436D02*
X12417091Y-10480960D01*
X12417091Y-10480960D02*
X12398043Y-10490484D01*
X12398043Y-10490484D02*
X12369472Y-10490484D01*
X12493281Y-10357150D02*
X12569472Y-10357150D01*
X12521853Y-10290484D02*
X12521853Y-10461912D01*
X12521853Y-10461912D02*
X12531377Y-10480960D01*
X12531377Y-10480960D02*
X12550424Y-10490484D01*
X12550424Y-10490484D02*
X12569472Y-10490484D01*
X12626615Y-10480960D02*
X12645662Y-10490484D01*
X12645662Y-10490484D02*
X12683757Y-10490484D01*
X12683757Y-10490484D02*
X12702805Y-10480960D01*
X12702805Y-10480960D02*
X12712329Y-10461912D01*
X12712329Y-10461912D02*
X12712329Y-10452389D01*
X12712329Y-10452389D02*
X12702805Y-10433341D01*
X12702805Y-10433341D02*
X12683757Y-10423817D01*
X12683757Y-10423817D02*
X12655186Y-10423817D01*
X12655186Y-10423817D02*
X12636138Y-10414293D01*
X12636138Y-10414293D02*
X12626615Y-10395246D01*
X12626615Y-10395246D02*
X12626615Y-10385722D01*
X12626615Y-10385722D02*
X12636138Y-10366674D01*
X12636138Y-10366674D02*
X12655186Y-10357150D01*
X12655186Y-10357150D02*
X12683757Y-10357150D01*
X12683757Y-10357150D02*
X12702805Y-10366674D01*
X12778996Y-10566674D02*
X12788519Y-10557150D01*
X12788519Y-10557150D02*
X12807567Y-10528579D01*
X12807567Y-10528579D02*
X12817091Y-10509531D01*
X12817091Y-10509531D02*
X12826615Y-10480960D01*
X12826615Y-10480960D02*
X12836138Y-10433341D01*
X12836138Y-10433341D02*
X12836138Y-10395246D01*
X12836138Y-10395246D02*
X12826615Y-10347627D01*
X12826615Y-10347627D02*
X12817091Y-10319055D01*
X12817091Y-10319055D02*
X12807567Y-10300008D01*
X12807567Y-10300008D02*
X12788519Y-10271436D01*
X12788519Y-10271436D02*
X12778996Y-10261912D01*
D14*
X6359885Y-10638000D02*
X6359885Y-10688000D01*
X6334885Y-10663000D02*
X6384885Y-10663000D01*
D11*
X6683757Y-10554484D02*
X6702805Y-10554484D01*
X6702805Y-10554484D02*
X6721852Y-10564008D01*
X6721852Y-10564008D02*
X6731376Y-10573531D01*
X6731376Y-10573531D02*
X6740900Y-10592579D01*
X6740900Y-10592579D02*
X6750424Y-10630674D01*
X6750424Y-10630674D02*
X6750424Y-10678293D01*
X6750424Y-10678293D02*
X6740900Y-10716389D01*
X6740900Y-10716389D02*
X6731376Y-10735436D01*
X6731376Y-10735436D02*
X6721852Y-10744960D01*
X6721852Y-10744960D02*
X6702805Y-10754484D01*
X6702805Y-10754484D02*
X6683757Y-10754484D01*
X6683757Y-10754484D02*
X6664709Y-10744960D01*
X6664709Y-10744960D02*
X6655185Y-10735436D01*
X6655185Y-10735436D02*
X6645662Y-10716389D01*
X6645662Y-10716389D02*
X6636138Y-10678293D01*
X6636138Y-10678293D02*
X6636138Y-10630674D01*
X6636138Y-10630674D02*
X6645662Y-10592579D01*
X6645662Y-10592579D02*
X6655185Y-10573531D01*
X6655185Y-10573531D02*
X6664709Y-10564008D01*
X6664709Y-10564008D02*
X6683757Y-10554484D01*
X6836138Y-10735436D02*
X6845662Y-10744960D01*
X6845662Y-10744960D02*
X6836138Y-10754484D01*
X6836138Y-10754484D02*
X6826614Y-10744960D01*
X6826614Y-10744960D02*
X6836138Y-10735436D01*
X6836138Y-10735436D02*
X6836138Y-10754484D01*
X7026614Y-10554484D02*
X6931376Y-10554484D01*
X6931376Y-10554484D02*
X6921852Y-10649722D01*
X6921852Y-10649722D02*
X6931376Y-10640198D01*
X6931376Y-10640198D02*
X6950424Y-10630674D01*
X6950424Y-10630674D02*
X6998043Y-10630674D01*
X6998043Y-10630674D02*
X7017090Y-10640198D01*
X7017090Y-10640198D02*
X7026614Y-10649722D01*
X7026614Y-10649722D02*
X7036138Y-10668770D01*
X7036138Y-10668770D02*
X7036138Y-10716389D01*
X7036138Y-10716389D02*
X7026614Y-10735436D01*
X7026614Y-10735436D02*
X7017090Y-10744960D01*
X7017090Y-10744960D02*
X6998043Y-10754484D01*
X6998043Y-10754484D02*
X6950424Y-10754484D01*
X6950424Y-10754484D02*
X6931376Y-10744960D01*
X6931376Y-10744960D02*
X6921852Y-10735436D01*
X7159947Y-10554484D02*
X7178995Y-10554484D01*
X7178995Y-10554484D02*
X7198043Y-10564008D01*
X7198043Y-10564008D02*
X7207566Y-10573531D01*
X7207566Y-10573531D02*
X7217090Y-10592579D01*
X7217090Y-10592579D02*
X7226614Y-10630674D01*
X7226614Y-10630674D02*
X7226614Y-10678293D01*
X7226614Y-10678293D02*
X7217090Y-10716389D01*
X7217090Y-10716389D02*
X7207566Y-10735436D01*
X7207566Y-10735436D02*
X7198043Y-10744960D01*
X7198043Y-10744960D02*
X7178995Y-10754484D01*
X7178995Y-10754484D02*
X7159947Y-10754484D01*
X7159947Y-10754484D02*
X7140900Y-10744960D01*
X7140900Y-10744960D02*
X7131376Y-10735436D01*
X7131376Y-10735436D02*
X7121852Y-10716389D01*
X7121852Y-10716389D02*
X7112328Y-10678293D01*
X7112328Y-10678293D02*
X7112328Y-10630674D01*
X7112328Y-10630674D02*
X7121852Y-10592579D01*
X7121852Y-10592579D02*
X7131376Y-10573531D01*
X7131376Y-10573531D02*
X7140900Y-10564008D01*
X7140900Y-10564008D02*
X7159947Y-10554484D01*
X7350424Y-10554484D02*
X7369471Y-10554484D01*
X7369471Y-10554484D02*
X7388519Y-10564008D01*
X7388519Y-10564008D02*
X7398043Y-10573531D01*
X7398043Y-10573531D02*
X7407566Y-10592579D01*
X7407566Y-10592579D02*
X7417090Y-10630674D01*
X7417090Y-10630674D02*
X7417090Y-10678293D01*
X7417090Y-10678293D02*
X7407566Y-10716389D01*
X7407566Y-10716389D02*
X7398043Y-10735436D01*
X7398043Y-10735436D02*
X7388519Y-10744960D01*
X7388519Y-10744960D02*
X7369471Y-10754484D01*
X7369471Y-10754484D02*
X7350424Y-10754484D01*
X7350424Y-10754484D02*
X7331376Y-10744960D01*
X7331376Y-10744960D02*
X7321852Y-10735436D01*
X7321852Y-10735436D02*
X7312328Y-10716389D01*
X7312328Y-10716389D02*
X7302805Y-10678293D01*
X7302805Y-10678293D02*
X7302805Y-10630674D01*
X7302805Y-10630674D02*
X7312328Y-10592579D01*
X7312328Y-10592579D02*
X7321852Y-10573531D01*
X7321852Y-10573531D02*
X7331376Y-10564008D01*
X7331376Y-10564008D02*
X7350424Y-10554484D01*
X7502805Y-10754484D02*
X7502805Y-10621150D01*
X7502805Y-10640198D02*
X7512328Y-10630674D01*
X7512328Y-10630674D02*
X7531376Y-10621150D01*
X7531376Y-10621150D02*
X7559947Y-10621150D01*
X7559947Y-10621150D02*
X7578995Y-10630674D01*
X7578995Y-10630674D02*
X7588519Y-10649722D01*
X7588519Y-10649722D02*
X7588519Y-10754484D01*
X7588519Y-10649722D02*
X7598043Y-10630674D01*
X7598043Y-10630674D02*
X7617090Y-10621150D01*
X7617090Y-10621150D02*
X7645662Y-10621150D01*
X7645662Y-10621150D02*
X7664709Y-10630674D01*
X7664709Y-10630674D02*
X7674233Y-10649722D01*
X7674233Y-10649722D02*
X7674233Y-10754484D01*
X7769471Y-10754484D02*
X7769471Y-10621150D01*
X7769471Y-10640198D02*
X7778995Y-10630674D01*
X7778995Y-10630674D02*
X7798043Y-10621150D01*
X7798043Y-10621150D02*
X7826614Y-10621150D01*
X7826614Y-10621150D02*
X7845662Y-10630674D01*
X7845662Y-10630674D02*
X7855186Y-10649722D01*
X7855186Y-10649722D02*
X7855186Y-10754484D01*
X7855186Y-10649722D02*
X7864709Y-10630674D01*
X7864709Y-10630674D02*
X7883757Y-10621150D01*
X7883757Y-10621150D02*
X7912328Y-10621150D01*
X7912328Y-10621150D02*
X7931376Y-10630674D01*
X7931376Y-10630674D02*
X7940900Y-10649722D01*
X7940900Y-10649722D02*
X7940900Y-10754484D01*
X8331376Y-10544960D02*
X8159948Y-10802103D01*
X8588519Y-10554484D02*
X8607567Y-10554484D01*
X8607567Y-10554484D02*
X8626614Y-10564008D01*
X8626614Y-10564008D02*
X8636138Y-10573531D01*
X8636138Y-10573531D02*
X8645662Y-10592579D01*
X8645662Y-10592579D02*
X8655186Y-10630674D01*
X8655186Y-10630674D02*
X8655186Y-10678293D01*
X8655186Y-10678293D02*
X8645662Y-10716389D01*
X8645662Y-10716389D02*
X8636138Y-10735436D01*
X8636138Y-10735436D02*
X8626614Y-10744960D01*
X8626614Y-10744960D02*
X8607567Y-10754484D01*
X8607567Y-10754484D02*
X8588519Y-10754484D01*
X8588519Y-10754484D02*
X8569471Y-10744960D01*
X8569471Y-10744960D02*
X8559948Y-10735436D01*
X8559948Y-10735436D02*
X8550424Y-10716389D01*
X8550424Y-10716389D02*
X8540900Y-10678293D01*
X8540900Y-10678293D02*
X8540900Y-10630674D01*
X8540900Y-10630674D02*
X8550424Y-10592579D01*
X8550424Y-10592579D02*
X8559948Y-10573531D01*
X8559948Y-10573531D02*
X8569471Y-10564008D01*
X8569471Y-10564008D02*
X8588519Y-10554484D01*
X8740900Y-10735436D02*
X8750424Y-10744960D01*
X8750424Y-10744960D02*
X8740900Y-10754484D01*
X8740900Y-10754484D02*
X8731376Y-10744960D01*
X8731376Y-10744960D02*
X8740900Y-10735436D01*
X8740900Y-10735436D02*
X8740900Y-10754484D01*
X8874233Y-10554484D02*
X8893281Y-10554484D01*
X8893281Y-10554484D02*
X8912329Y-10564008D01*
X8912329Y-10564008D02*
X8921852Y-10573531D01*
X8921852Y-10573531D02*
X8931376Y-10592579D01*
X8931376Y-10592579D02*
X8940900Y-10630674D01*
X8940900Y-10630674D02*
X8940900Y-10678293D01*
X8940900Y-10678293D02*
X8931376Y-10716389D01*
X8931376Y-10716389D02*
X8921852Y-10735436D01*
X8921852Y-10735436D02*
X8912329Y-10744960D01*
X8912329Y-10744960D02*
X8893281Y-10754484D01*
X8893281Y-10754484D02*
X8874233Y-10754484D01*
X8874233Y-10754484D02*
X8855186Y-10744960D01*
X8855186Y-10744960D02*
X8845662Y-10735436D01*
X8845662Y-10735436D02*
X8836138Y-10716389D01*
X8836138Y-10716389D02*
X8826614Y-10678293D01*
X8826614Y-10678293D02*
X8826614Y-10630674D01*
X8826614Y-10630674D02*
X8836138Y-10592579D01*
X8836138Y-10592579D02*
X8845662Y-10573531D01*
X8845662Y-10573531D02*
X8855186Y-10564008D01*
X8855186Y-10564008D02*
X8874233Y-10554484D01*
X9131376Y-10754484D02*
X9017091Y-10754484D01*
X9074233Y-10754484D02*
X9074233Y-10554484D01*
X9074233Y-10554484D02*
X9055186Y-10583055D01*
X9055186Y-10583055D02*
X9036138Y-10602103D01*
X9036138Y-10602103D02*
X9017091Y-10611627D01*
X9226614Y-10754484D02*
X9264710Y-10754484D01*
X9264710Y-10754484D02*
X9283757Y-10744960D01*
X9283757Y-10744960D02*
X9293281Y-10735436D01*
X9293281Y-10735436D02*
X9312329Y-10706865D01*
X9312329Y-10706865D02*
X9321852Y-10668770D01*
X9321852Y-10668770D02*
X9321852Y-10592579D01*
X9321852Y-10592579D02*
X9312329Y-10573531D01*
X9312329Y-10573531D02*
X9302805Y-10564008D01*
X9302805Y-10564008D02*
X9283757Y-10554484D01*
X9283757Y-10554484D02*
X9245662Y-10554484D01*
X9245662Y-10554484D02*
X9226614Y-10564008D01*
X9226614Y-10564008D02*
X9217091Y-10573531D01*
X9217091Y-10573531D02*
X9207567Y-10592579D01*
X9207567Y-10592579D02*
X9207567Y-10640198D01*
X9207567Y-10640198D02*
X9217091Y-10659246D01*
X9217091Y-10659246D02*
X9226614Y-10668770D01*
X9226614Y-10668770D02*
X9245662Y-10678293D01*
X9245662Y-10678293D02*
X9283757Y-10678293D01*
X9283757Y-10678293D02*
X9302805Y-10668770D01*
X9302805Y-10668770D02*
X9312329Y-10659246D01*
X9312329Y-10659246D02*
X9321852Y-10640198D01*
X9388519Y-10554484D02*
X9521852Y-10554484D01*
X9521852Y-10554484D02*
X9436138Y-10754484D01*
X9588519Y-10554484D02*
X9588519Y-10592579D01*
X9664710Y-10554484D02*
X9664710Y-10592579D01*
X9959948Y-10830674D02*
X9950424Y-10821150D01*
X9950424Y-10821150D02*
X9931376Y-10792579D01*
X9931376Y-10792579D02*
X9921853Y-10773531D01*
X9921853Y-10773531D02*
X9912329Y-10744960D01*
X9912329Y-10744960D02*
X9902805Y-10697341D01*
X9902805Y-10697341D02*
X9902805Y-10659246D01*
X9902805Y-10659246D02*
X9912329Y-10611627D01*
X9912329Y-10611627D02*
X9921853Y-10583055D01*
X9921853Y-10583055D02*
X9931376Y-10564008D01*
X9931376Y-10564008D02*
X9950424Y-10535436D01*
X9950424Y-10535436D02*
X9959948Y-10525912D01*
X10140900Y-10754484D02*
X10026614Y-10754484D01*
X10083757Y-10754484D02*
X10083757Y-10554484D01*
X10083757Y-10554484D02*
X10064710Y-10583055D01*
X10064710Y-10583055D02*
X10045662Y-10602103D01*
X10045662Y-10602103D02*
X10026614Y-10611627D01*
X10312329Y-10621150D02*
X10312329Y-10754484D01*
X10264710Y-10544960D02*
X10217091Y-10687817D01*
X10217091Y-10687817D02*
X10340900Y-10687817D01*
X10569472Y-10754484D02*
X10569472Y-10554484D01*
X10655186Y-10754484D02*
X10655186Y-10649722D01*
X10655186Y-10649722D02*
X10645662Y-10630674D01*
X10645662Y-10630674D02*
X10626615Y-10621150D01*
X10626615Y-10621150D02*
X10598043Y-10621150D01*
X10598043Y-10621150D02*
X10578995Y-10630674D01*
X10578995Y-10630674D02*
X10569472Y-10640198D01*
X10778995Y-10754484D02*
X10759948Y-10744960D01*
X10759948Y-10744960D02*
X10750424Y-10735436D01*
X10750424Y-10735436D02*
X10740900Y-10716389D01*
X10740900Y-10716389D02*
X10740900Y-10659246D01*
X10740900Y-10659246D02*
X10750424Y-10640198D01*
X10750424Y-10640198D02*
X10759948Y-10630674D01*
X10759948Y-10630674D02*
X10778995Y-10621150D01*
X10778995Y-10621150D02*
X10807567Y-10621150D01*
X10807567Y-10621150D02*
X10826615Y-10630674D01*
X10826615Y-10630674D02*
X10836138Y-10640198D01*
X10836138Y-10640198D02*
X10845662Y-10659246D01*
X10845662Y-10659246D02*
X10845662Y-10716389D01*
X10845662Y-10716389D02*
X10836138Y-10735436D01*
X10836138Y-10735436D02*
X10826615Y-10744960D01*
X10826615Y-10744960D02*
X10807567Y-10754484D01*
X10807567Y-10754484D02*
X10778995Y-10754484D01*
X10959948Y-10754484D02*
X10940900Y-10744960D01*
X10940900Y-10744960D02*
X10931376Y-10725912D01*
X10931376Y-10725912D02*
X10931376Y-10554484D01*
X11112329Y-10744960D02*
X11093281Y-10754484D01*
X11093281Y-10754484D02*
X11055186Y-10754484D01*
X11055186Y-10754484D02*
X11036138Y-10744960D01*
X11036138Y-10744960D02*
X11026615Y-10725912D01*
X11026615Y-10725912D02*
X11026615Y-10649722D01*
X11026615Y-10649722D02*
X11036138Y-10630674D01*
X11036138Y-10630674D02*
X11055186Y-10621150D01*
X11055186Y-10621150D02*
X11093281Y-10621150D01*
X11093281Y-10621150D02*
X11112329Y-10630674D01*
X11112329Y-10630674D02*
X11121853Y-10649722D01*
X11121853Y-10649722D02*
X11121853Y-10668770D01*
X11121853Y-10668770D02*
X11026615Y-10687817D01*
X11198043Y-10744960D02*
X11217091Y-10754484D01*
X11217091Y-10754484D02*
X11255186Y-10754484D01*
X11255186Y-10754484D02*
X11274234Y-10744960D01*
X11274234Y-10744960D02*
X11283757Y-10725912D01*
X11283757Y-10725912D02*
X11283757Y-10716389D01*
X11283757Y-10716389D02*
X11274234Y-10697341D01*
X11274234Y-10697341D02*
X11255186Y-10687817D01*
X11255186Y-10687817D02*
X11226614Y-10687817D01*
X11226614Y-10687817D02*
X11207567Y-10678293D01*
X11207567Y-10678293D02*
X11198043Y-10659246D01*
X11198043Y-10659246D02*
X11198043Y-10649722D01*
X11198043Y-10649722D02*
X11207567Y-10630674D01*
X11207567Y-10630674D02*
X11226614Y-10621150D01*
X11226614Y-10621150D02*
X11255186Y-10621150D01*
X11255186Y-10621150D02*
X11274234Y-10630674D01*
X11350424Y-10830674D02*
X11359948Y-10821150D01*
X11359948Y-10821150D02*
X11378995Y-10792579D01*
X11378995Y-10792579D02*
X11388519Y-10773531D01*
X11388519Y-10773531D02*
X11398043Y-10744960D01*
X11398043Y-10744960D02*
X11407567Y-10697341D01*
X11407567Y-10697341D02*
X11407567Y-10659246D01*
X11407567Y-10659246D02*
X11398043Y-10611627D01*
X11398043Y-10611627D02*
X11388519Y-10583055D01*
X11388519Y-10583055D02*
X11378995Y-10564008D01*
X11378995Y-10564008D02*
X11359948Y-10535436D01*
X11359948Y-10535436D02*
X11350424Y-10525912D01*
D15*
X6374634Y-10951749D02*
X6374634Y-10902251D01*
X6325136Y-10902251D01*
X6325136Y-10951749D01*
X6374634Y-10951749D01*
D11*
X6683757Y-10818484D02*
X6702805Y-10818484D01*
X6702805Y-10818484D02*
X6721852Y-10828008D01*
X6721852Y-10828008D02*
X6731376Y-10837531D01*
X6731376Y-10837531D02*
X6740900Y-10856579D01*
X6740900Y-10856579D02*
X6750424Y-10894674D01*
X6750424Y-10894674D02*
X6750424Y-10942293D01*
X6750424Y-10942293D02*
X6740900Y-10980389D01*
X6740900Y-10980389D02*
X6731376Y-10999436D01*
X6731376Y-10999436D02*
X6721852Y-11008960D01*
X6721852Y-11008960D02*
X6702805Y-11018484D01*
X6702805Y-11018484D02*
X6683757Y-11018484D01*
X6683757Y-11018484D02*
X6664709Y-11008960D01*
X6664709Y-11008960D02*
X6655185Y-10999436D01*
X6655185Y-10999436D02*
X6645662Y-10980389D01*
X6645662Y-10980389D02*
X6636138Y-10942293D01*
X6636138Y-10942293D02*
X6636138Y-10894674D01*
X6636138Y-10894674D02*
X6645662Y-10856579D01*
X6645662Y-10856579D02*
X6655185Y-10837531D01*
X6655185Y-10837531D02*
X6664709Y-10828008D01*
X6664709Y-10828008D02*
X6683757Y-10818484D01*
X6836138Y-10999436D02*
X6845662Y-11008960D01*
X6845662Y-11008960D02*
X6836138Y-11018484D01*
X6836138Y-11018484D02*
X6826614Y-11008960D01*
X6826614Y-11008960D02*
X6836138Y-10999436D01*
X6836138Y-10999436D02*
X6836138Y-11018484D01*
X6912328Y-10818484D02*
X7045662Y-10818484D01*
X7045662Y-10818484D02*
X6959947Y-11018484D01*
X7159947Y-10818484D02*
X7178995Y-10818484D01*
X7178995Y-10818484D02*
X7198043Y-10828008D01*
X7198043Y-10828008D02*
X7207566Y-10837531D01*
X7207566Y-10837531D02*
X7217090Y-10856579D01*
X7217090Y-10856579D02*
X7226614Y-10894674D01*
X7226614Y-10894674D02*
X7226614Y-10942293D01*
X7226614Y-10942293D02*
X7217090Y-10980389D01*
X7217090Y-10980389D02*
X7207566Y-10999436D01*
X7207566Y-10999436D02*
X7198043Y-11008960D01*
X7198043Y-11008960D02*
X7178995Y-11018484D01*
X7178995Y-11018484D02*
X7159947Y-11018484D01*
X7159947Y-11018484D02*
X7140900Y-11008960D01*
X7140900Y-11008960D02*
X7131376Y-10999436D01*
X7131376Y-10999436D02*
X7121852Y-10980389D01*
X7121852Y-10980389D02*
X7112328Y-10942293D01*
X7112328Y-10942293D02*
X7112328Y-10894674D01*
X7112328Y-10894674D02*
X7121852Y-10856579D01*
X7121852Y-10856579D02*
X7131376Y-10837531D01*
X7131376Y-10837531D02*
X7140900Y-10828008D01*
X7140900Y-10828008D02*
X7159947Y-10818484D01*
X7350424Y-10818484D02*
X7369471Y-10818484D01*
X7369471Y-10818484D02*
X7388519Y-10828008D01*
X7388519Y-10828008D02*
X7398043Y-10837531D01*
X7398043Y-10837531D02*
X7407566Y-10856579D01*
X7407566Y-10856579D02*
X7417090Y-10894674D01*
X7417090Y-10894674D02*
X7417090Y-10942293D01*
X7417090Y-10942293D02*
X7407566Y-10980389D01*
X7407566Y-10980389D02*
X7398043Y-10999436D01*
X7398043Y-10999436D02*
X7388519Y-11008960D01*
X7388519Y-11008960D02*
X7369471Y-11018484D01*
X7369471Y-11018484D02*
X7350424Y-11018484D01*
X7350424Y-11018484D02*
X7331376Y-11008960D01*
X7331376Y-11008960D02*
X7321852Y-10999436D01*
X7321852Y-10999436D02*
X7312328Y-10980389D01*
X7312328Y-10980389D02*
X7302805Y-10942293D01*
X7302805Y-10942293D02*
X7302805Y-10894674D01*
X7302805Y-10894674D02*
X7312328Y-10856579D01*
X7312328Y-10856579D02*
X7321852Y-10837531D01*
X7321852Y-10837531D02*
X7331376Y-10828008D01*
X7331376Y-10828008D02*
X7350424Y-10818484D01*
X7502805Y-11018484D02*
X7502805Y-10885150D01*
X7502805Y-10904198D02*
X7512328Y-10894674D01*
X7512328Y-10894674D02*
X7531376Y-10885150D01*
X7531376Y-10885150D02*
X7559947Y-10885150D01*
X7559947Y-10885150D02*
X7578995Y-10894674D01*
X7578995Y-10894674D02*
X7588519Y-10913722D01*
X7588519Y-10913722D02*
X7588519Y-11018484D01*
X7588519Y-10913722D02*
X7598043Y-10894674D01*
X7598043Y-10894674D02*
X7617090Y-10885150D01*
X7617090Y-10885150D02*
X7645662Y-10885150D01*
X7645662Y-10885150D02*
X7664709Y-10894674D01*
X7664709Y-10894674D02*
X7674233Y-10913722D01*
X7674233Y-10913722D02*
X7674233Y-11018484D01*
X7769471Y-11018484D02*
X7769471Y-10885150D01*
X7769471Y-10904198D02*
X7778995Y-10894674D01*
X7778995Y-10894674D02*
X7798043Y-10885150D01*
X7798043Y-10885150D02*
X7826614Y-10885150D01*
X7826614Y-10885150D02*
X7845662Y-10894674D01*
X7845662Y-10894674D02*
X7855186Y-10913722D01*
X7855186Y-10913722D02*
X7855186Y-11018484D01*
X7855186Y-10913722D02*
X7864709Y-10894674D01*
X7864709Y-10894674D02*
X7883757Y-10885150D01*
X7883757Y-10885150D02*
X7912328Y-10885150D01*
X7912328Y-10885150D02*
X7931376Y-10894674D01*
X7931376Y-10894674D02*
X7940900Y-10913722D01*
X7940900Y-10913722D02*
X7940900Y-11018484D01*
X8331376Y-10808960D02*
X8159948Y-11066103D01*
X8588519Y-10818484D02*
X8607567Y-10818484D01*
X8607567Y-10818484D02*
X8626614Y-10828008D01*
X8626614Y-10828008D02*
X8636138Y-10837531D01*
X8636138Y-10837531D02*
X8645662Y-10856579D01*
X8645662Y-10856579D02*
X8655186Y-10894674D01*
X8655186Y-10894674D02*
X8655186Y-10942293D01*
X8655186Y-10942293D02*
X8645662Y-10980389D01*
X8645662Y-10980389D02*
X8636138Y-10999436D01*
X8636138Y-10999436D02*
X8626614Y-11008960D01*
X8626614Y-11008960D02*
X8607567Y-11018484D01*
X8607567Y-11018484D02*
X8588519Y-11018484D01*
X8588519Y-11018484D02*
X8569471Y-11008960D01*
X8569471Y-11008960D02*
X8559948Y-10999436D01*
X8559948Y-10999436D02*
X8550424Y-10980389D01*
X8550424Y-10980389D02*
X8540900Y-10942293D01*
X8540900Y-10942293D02*
X8540900Y-10894674D01*
X8540900Y-10894674D02*
X8550424Y-10856579D01*
X8550424Y-10856579D02*
X8559948Y-10837531D01*
X8559948Y-10837531D02*
X8569471Y-10828008D01*
X8569471Y-10828008D02*
X8588519Y-10818484D01*
X8740900Y-10999436D02*
X8750424Y-11008960D01*
X8750424Y-11008960D02*
X8740900Y-11018484D01*
X8740900Y-11018484D02*
X8731376Y-11008960D01*
X8731376Y-11008960D02*
X8740900Y-10999436D01*
X8740900Y-10999436D02*
X8740900Y-11018484D01*
X8874233Y-10818484D02*
X8893281Y-10818484D01*
X8893281Y-10818484D02*
X8912329Y-10828008D01*
X8912329Y-10828008D02*
X8921852Y-10837531D01*
X8921852Y-10837531D02*
X8931376Y-10856579D01*
X8931376Y-10856579D02*
X8940900Y-10894674D01*
X8940900Y-10894674D02*
X8940900Y-10942293D01*
X8940900Y-10942293D02*
X8931376Y-10980389D01*
X8931376Y-10980389D02*
X8921852Y-10999436D01*
X8921852Y-10999436D02*
X8912329Y-11008960D01*
X8912329Y-11008960D02*
X8893281Y-11018484D01*
X8893281Y-11018484D02*
X8874233Y-11018484D01*
X8874233Y-11018484D02*
X8855186Y-11008960D01*
X8855186Y-11008960D02*
X8845662Y-10999436D01*
X8845662Y-10999436D02*
X8836138Y-10980389D01*
X8836138Y-10980389D02*
X8826614Y-10942293D01*
X8826614Y-10942293D02*
X8826614Y-10894674D01*
X8826614Y-10894674D02*
X8836138Y-10856579D01*
X8836138Y-10856579D02*
X8845662Y-10837531D01*
X8845662Y-10837531D02*
X8855186Y-10828008D01*
X8855186Y-10828008D02*
X8874233Y-10818484D01*
X9017091Y-10837531D02*
X9026614Y-10828008D01*
X9026614Y-10828008D02*
X9045662Y-10818484D01*
X9045662Y-10818484D02*
X9093281Y-10818484D01*
X9093281Y-10818484D02*
X9112329Y-10828008D01*
X9112329Y-10828008D02*
X9121852Y-10837531D01*
X9121852Y-10837531D02*
X9131376Y-10856579D01*
X9131376Y-10856579D02*
X9131376Y-10875627D01*
X9131376Y-10875627D02*
X9121852Y-10904198D01*
X9121852Y-10904198D02*
X9007567Y-11018484D01*
X9007567Y-11018484D02*
X9131376Y-11018484D01*
X9198043Y-10818484D02*
X9331376Y-10818484D01*
X9331376Y-10818484D02*
X9245662Y-11018484D01*
X9493281Y-10818484D02*
X9455186Y-10818484D01*
X9455186Y-10818484D02*
X9436138Y-10828008D01*
X9436138Y-10828008D02*
X9426614Y-10837531D01*
X9426614Y-10837531D02*
X9407567Y-10866103D01*
X9407567Y-10866103D02*
X9398043Y-10904198D01*
X9398043Y-10904198D02*
X9398043Y-10980389D01*
X9398043Y-10980389D02*
X9407567Y-10999436D01*
X9407567Y-10999436D02*
X9417091Y-11008960D01*
X9417091Y-11008960D02*
X9436138Y-11018484D01*
X9436138Y-11018484D02*
X9474233Y-11018484D01*
X9474233Y-11018484D02*
X9493281Y-11008960D01*
X9493281Y-11008960D02*
X9502805Y-10999436D01*
X9502805Y-10999436D02*
X9512329Y-10980389D01*
X9512329Y-10980389D02*
X9512329Y-10932770D01*
X9512329Y-10932770D02*
X9502805Y-10913722D01*
X9502805Y-10913722D02*
X9493281Y-10904198D01*
X9493281Y-10904198D02*
X9474233Y-10894674D01*
X9474233Y-10894674D02*
X9436138Y-10894674D01*
X9436138Y-10894674D02*
X9417091Y-10904198D01*
X9417091Y-10904198D02*
X9407567Y-10913722D01*
X9407567Y-10913722D02*
X9398043Y-10932770D01*
X9588519Y-10818484D02*
X9588519Y-10856579D01*
X9664710Y-10818484D02*
X9664710Y-10856579D01*
X9959948Y-11094674D02*
X9950424Y-11085150D01*
X9950424Y-11085150D02*
X9931376Y-11056579D01*
X9931376Y-11056579D02*
X9921853Y-11037531D01*
X9921853Y-11037531D02*
X9912329Y-11008960D01*
X9912329Y-11008960D02*
X9902805Y-10961341D01*
X9902805Y-10961341D02*
X9902805Y-10923246D01*
X9902805Y-10923246D02*
X9912329Y-10875627D01*
X9912329Y-10875627D02*
X9921853Y-10847055D01*
X9921853Y-10847055D02*
X9931376Y-10828008D01*
X9931376Y-10828008D02*
X9950424Y-10799436D01*
X9950424Y-10799436D02*
X9959948Y-10789912D01*
X10074233Y-10818484D02*
X10093281Y-10818484D01*
X10093281Y-10818484D02*
X10112329Y-10828008D01*
X10112329Y-10828008D02*
X10121853Y-10837531D01*
X10121853Y-10837531D02*
X10131376Y-10856579D01*
X10131376Y-10856579D02*
X10140900Y-10894674D01*
X10140900Y-10894674D02*
X10140900Y-10942293D01*
X10140900Y-10942293D02*
X10131376Y-10980389D01*
X10131376Y-10980389D02*
X10121853Y-10999436D01*
X10121853Y-10999436D02*
X10112329Y-11008960D01*
X10112329Y-11008960D02*
X10093281Y-11018484D01*
X10093281Y-11018484D02*
X10074233Y-11018484D01*
X10074233Y-11018484D02*
X10055186Y-11008960D01*
X10055186Y-11008960D02*
X10045662Y-10999436D01*
X10045662Y-10999436D02*
X10036138Y-10980389D01*
X10036138Y-10980389D02*
X10026614Y-10942293D01*
X10026614Y-10942293D02*
X10026614Y-10894674D01*
X10026614Y-10894674D02*
X10036138Y-10856579D01*
X10036138Y-10856579D02*
X10045662Y-10837531D01*
X10045662Y-10837531D02*
X10055186Y-10828008D01*
X10055186Y-10828008D02*
X10074233Y-10818484D01*
X10378995Y-11018484D02*
X10378995Y-10818484D01*
X10464710Y-11018484D02*
X10464710Y-10913722D01*
X10464710Y-10913722D02*
X10455186Y-10894674D01*
X10455186Y-10894674D02*
X10436138Y-10885150D01*
X10436138Y-10885150D02*
X10407567Y-10885150D01*
X10407567Y-10885150D02*
X10388519Y-10894674D01*
X10388519Y-10894674D02*
X10378995Y-10904198D01*
X10588519Y-11018484D02*
X10569472Y-11008960D01*
X10569472Y-11008960D02*
X10559948Y-10999436D01*
X10559948Y-10999436D02*
X10550424Y-10980389D01*
X10550424Y-10980389D02*
X10550424Y-10923246D01*
X10550424Y-10923246D02*
X10559948Y-10904198D01*
X10559948Y-10904198D02*
X10569472Y-10894674D01*
X10569472Y-10894674D02*
X10588519Y-10885150D01*
X10588519Y-10885150D02*
X10617091Y-10885150D01*
X10617091Y-10885150D02*
X10636138Y-10894674D01*
X10636138Y-10894674D02*
X10645662Y-10904198D01*
X10645662Y-10904198D02*
X10655186Y-10923246D01*
X10655186Y-10923246D02*
X10655186Y-10980389D01*
X10655186Y-10980389D02*
X10645662Y-10999436D01*
X10645662Y-10999436D02*
X10636138Y-11008960D01*
X10636138Y-11008960D02*
X10617091Y-11018484D01*
X10617091Y-11018484D02*
X10588519Y-11018484D01*
X10769472Y-11018484D02*
X10750424Y-11008960D01*
X10750424Y-11008960D02*
X10740900Y-10989912D01*
X10740900Y-10989912D02*
X10740900Y-10818484D01*
X10921853Y-11008960D02*
X10902805Y-11018484D01*
X10902805Y-11018484D02*
X10864710Y-11018484D01*
X10864710Y-11018484D02*
X10845662Y-11008960D01*
X10845662Y-11008960D02*
X10836138Y-10989912D01*
X10836138Y-10989912D02*
X10836138Y-10913722D01*
X10836138Y-10913722D02*
X10845662Y-10894674D01*
X10845662Y-10894674D02*
X10864710Y-10885150D01*
X10864710Y-10885150D02*
X10902805Y-10885150D01*
X10902805Y-10885150D02*
X10921853Y-10894674D01*
X10921853Y-10894674D02*
X10931376Y-10913722D01*
X10931376Y-10913722D02*
X10931376Y-10932770D01*
X10931376Y-10932770D02*
X10836138Y-10951817D01*
X11007567Y-11008960D02*
X11026615Y-11018484D01*
X11026615Y-11018484D02*
X11064710Y-11018484D01*
X11064710Y-11018484D02*
X11083757Y-11008960D01*
X11083757Y-11008960D02*
X11093281Y-10989912D01*
X11093281Y-10989912D02*
X11093281Y-10980389D01*
X11093281Y-10980389D02*
X11083757Y-10961341D01*
X11083757Y-10961341D02*
X11064710Y-10951817D01*
X11064710Y-10951817D02*
X11036138Y-10951817D01*
X11036138Y-10951817D02*
X11017091Y-10942293D01*
X11017091Y-10942293D02*
X11007567Y-10923246D01*
X11007567Y-10923246D02*
X11007567Y-10913722D01*
X11007567Y-10913722D02*
X11017091Y-10894674D01*
X11017091Y-10894674D02*
X11036138Y-10885150D01*
X11036138Y-10885150D02*
X11064710Y-10885150D01*
X11064710Y-10885150D02*
X11083757Y-10894674D01*
X11331376Y-10942293D02*
X11483757Y-10942293D01*
X11407567Y-11018484D02*
X11407567Y-10866103D01*
X11817091Y-10885150D02*
X11817091Y-11018484D01*
X11769472Y-10808960D02*
X11721853Y-10951817D01*
X11721853Y-10951817D02*
X11845662Y-10951817D01*
X12064710Y-11008960D02*
X12083757Y-11018484D01*
X12083757Y-11018484D02*
X12121853Y-11018484D01*
X12121853Y-11018484D02*
X12140900Y-11008960D01*
X12140900Y-11008960D02*
X12150424Y-10989912D01*
X12150424Y-10989912D02*
X12150424Y-10980389D01*
X12150424Y-10980389D02*
X12140900Y-10961341D01*
X12140900Y-10961341D02*
X12121853Y-10951817D01*
X12121853Y-10951817D02*
X12093281Y-10951817D01*
X12093281Y-10951817D02*
X12074234Y-10942293D01*
X12074234Y-10942293D02*
X12064710Y-10923246D01*
X12064710Y-10923246D02*
X12064710Y-10913722D01*
X12064710Y-10913722D02*
X12074234Y-10894674D01*
X12074234Y-10894674D02*
X12093281Y-10885150D01*
X12093281Y-10885150D02*
X12121853Y-10885150D01*
X12121853Y-10885150D02*
X12140900Y-10894674D01*
X12264710Y-11018484D02*
X12245662Y-11008960D01*
X12245662Y-11008960D02*
X12236138Y-10989912D01*
X12236138Y-10989912D02*
X12236138Y-10818484D01*
X12369472Y-11018484D02*
X12350424Y-11008960D01*
X12350424Y-11008960D02*
X12340900Y-10999436D01*
X12340900Y-10999436D02*
X12331377Y-10980389D01*
X12331377Y-10980389D02*
X12331377Y-10923246D01*
X12331377Y-10923246D02*
X12340900Y-10904198D01*
X12340900Y-10904198D02*
X12350424Y-10894674D01*
X12350424Y-10894674D02*
X12369472Y-10885150D01*
X12369472Y-10885150D02*
X12398043Y-10885150D01*
X12398043Y-10885150D02*
X12417091Y-10894674D01*
X12417091Y-10894674D02*
X12426615Y-10904198D01*
X12426615Y-10904198D02*
X12436138Y-10923246D01*
X12436138Y-10923246D02*
X12436138Y-10980389D01*
X12436138Y-10980389D02*
X12426615Y-10999436D01*
X12426615Y-10999436D02*
X12417091Y-11008960D01*
X12417091Y-11008960D02*
X12398043Y-11018484D01*
X12398043Y-11018484D02*
X12369472Y-11018484D01*
X12493281Y-10885150D02*
X12569472Y-10885150D01*
X12521853Y-10818484D02*
X12521853Y-10989912D01*
X12521853Y-10989912D02*
X12531377Y-11008960D01*
X12531377Y-11008960D02*
X12550424Y-11018484D01*
X12550424Y-11018484D02*
X12569472Y-11018484D01*
X12626615Y-11008960D02*
X12645662Y-11018484D01*
X12645662Y-11018484D02*
X12683757Y-11018484D01*
X12683757Y-11018484D02*
X12702805Y-11008960D01*
X12702805Y-11008960D02*
X12712329Y-10989912D01*
X12712329Y-10989912D02*
X12712329Y-10980389D01*
X12712329Y-10980389D02*
X12702805Y-10961341D01*
X12702805Y-10961341D02*
X12683757Y-10951817D01*
X12683757Y-10951817D02*
X12655186Y-10951817D01*
X12655186Y-10951817D02*
X12636138Y-10942293D01*
X12636138Y-10942293D02*
X12626615Y-10923246D01*
X12626615Y-10923246D02*
X12626615Y-10913722D01*
X12626615Y-10913722D02*
X12636138Y-10894674D01*
X12636138Y-10894674D02*
X12655186Y-10885150D01*
X12655186Y-10885150D02*
X12683757Y-10885150D01*
X12683757Y-10885150D02*
X12702805Y-10894674D01*
X12778996Y-11094674D02*
X12788519Y-11085150D01*
X12788519Y-11085150D02*
X12807567Y-11056579D01*
X12807567Y-11056579D02*
X12817091Y-11037531D01*
X12817091Y-11037531D02*
X12826615Y-11008960D01*
X12826615Y-11008960D02*
X12836138Y-10961341D01*
X12836138Y-10961341D02*
X12836138Y-10923246D01*
X12836138Y-10923246D02*
X12826615Y-10875627D01*
X12826615Y-10875627D02*
X12817091Y-10847055D01*
X12817091Y-10847055D02*
X12807567Y-10828008D01*
X12807567Y-10828008D02*
X12788519Y-10799436D01*
X12788519Y-10799436D02*
X12778996Y-10789912D01*
D16*
X6346785Y-11229100D02*
X6384885Y-11191000D01*
X6346785Y-11152900D01*
X6308685Y-11191000D01*
X6346785Y-11229100D01*
D11*
X6683757Y-11082484D02*
X6702805Y-11082484D01*
X6702805Y-11082484D02*
X6721852Y-11092008D01*
X6721852Y-11092008D02*
X6731376Y-11101531D01*
X6731376Y-11101531D02*
X6740900Y-11120579D01*
X6740900Y-11120579D02*
X6750424Y-11158674D01*
X6750424Y-11158674D02*
X6750424Y-11206293D01*
X6750424Y-11206293D02*
X6740900Y-11244388D01*
X6740900Y-11244388D02*
X6731376Y-11263436D01*
X6731376Y-11263436D02*
X6721852Y-11272960D01*
X6721852Y-11272960D02*
X6702805Y-11282484D01*
X6702805Y-11282484D02*
X6683757Y-11282484D01*
X6683757Y-11282484D02*
X6664709Y-11272960D01*
X6664709Y-11272960D02*
X6655185Y-11263436D01*
X6655185Y-11263436D02*
X6645662Y-11244388D01*
X6645662Y-11244388D02*
X6636138Y-11206293D01*
X6636138Y-11206293D02*
X6636138Y-11158674D01*
X6636138Y-11158674D02*
X6645662Y-11120579D01*
X6645662Y-11120579D02*
X6655185Y-11101531D01*
X6655185Y-11101531D02*
X6664709Y-11092008D01*
X6664709Y-11092008D02*
X6683757Y-11082484D01*
X6836138Y-11263436D02*
X6845662Y-11272960D01*
X6845662Y-11272960D02*
X6836138Y-11282484D01*
X6836138Y-11282484D02*
X6826614Y-11272960D01*
X6826614Y-11272960D02*
X6836138Y-11263436D01*
X6836138Y-11263436D02*
X6836138Y-11282484D01*
X6912328Y-11082484D02*
X7045662Y-11082484D01*
X7045662Y-11082484D02*
X6959947Y-11282484D01*
X7207566Y-11082484D02*
X7169471Y-11082484D01*
X7169471Y-11082484D02*
X7150424Y-11092008D01*
X7150424Y-11092008D02*
X7140900Y-11101531D01*
X7140900Y-11101531D02*
X7121852Y-11130103D01*
X7121852Y-11130103D02*
X7112328Y-11168198D01*
X7112328Y-11168198D02*
X7112328Y-11244388D01*
X7112328Y-11244388D02*
X7121852Y-11263436D01*
X7121852Y-11263436D02*
X7131376Y-11272960D01*
X7131376Y-11272960D02*
X7150424Y-11282484D01*
X7150424Y-11282484D02*
X7188519Y-11282484D01*
X7188519Y-11282484D02*
X7207566Y-11272960D01*
X7207566Y-11272960D02*
X7217090Y-11263436D01*
X7217090Y-11263436D02*
X7226614Y-11244388D01*
X7226614Y-11244388D02*
X7226614Y-11196769D01*
X7226614Y-11196769D02*
X7217090Y-11177722D01*
X7217090Y-11177722D02*
X7207566Y-11168198D01*
X7207566Y-11168198D02*
X7188519Y-11158674D01*
X7188519Y-11158674D02*
X7150424Y-11158674D01*
X7150424Y-11158674D02*
X7131376Y-11168198D01*
X7131376Y-11168198D02*
X7121852Y-11177722D01*
X7121852Y-11177722D02*
X7112328Y-11196769D01*
X7302805Y-11101531D02*
X7312328Y-11092008D01*
X7312328Y-11092008D02*
X7331376Y-11082484D01*
X7331376Y-11082484D02*
X7378995Y-11082484D01*
X7378995Y-11082484D02*
X7398043Y-11092008D01*
X7398043Y-11092008D02*
X7407566Y-11101531D01*
X7407566Y-11101531D02*
X7417090Y-11120579D01*
X7417090Y-11120579D02*
X7417090Y-11139627D01*
X7417090Y-11139627D02*
X7407566Y-11168198D01*
X7407566Y-11168198D02*
X7293281Y-11282484D01*
X7293281Y-11282484D02*
X7417090Y-11282484D01*
X7502805Y-11282484D02*
X7502805Y-11149150D01*
X7502805Y-11168198D02*
X7512328Y-11158674D01*
X7512328Y-11158674D02*
X7531376Y-11149150D01*
X7531376Y-11149150D02*
X7559947Y-11149150D01*
X7559947Y-11149150D02*
X7578995Y-11158674D01*
X7578995Y-11158674D02*
X7588519Y-11177722D01*
X7588519Y-11177722D02*
X7588519Y-11282484D01*
X7588519Y-11177722D02*
X7598043Y-11158674D01*
X7598043Y-11158674D02*
X7617090Y-11149150D01*
X7617090Y-11149150D02*
X7645662Y-11149150D01*
X7645662Y-11149150D02*
X7664709Y-11158674D01*
X7664709Y-11158674D02*
X7674233Y-11177722D01*
X7674233Y-11177722D02*
X7674233Y-11282484D01*
X7769471Y-11282484D02*
X7769471Y-11149150D01*
X7769471Y-11168198D02*
X7778995Y-11158674D01*
X7778995Y-11158674D02*
X7798043Y-11149150D01*
X7798043Y-11149150D02*
X7826614Y-11149150D01*
X7826614Y-11149150D02*
X7845662Y-11158674D01*
X7845662Y-11158674D02*
X7855186Y-11177722D01*
X7855186Y-11177722D02*
X7855186Y-11282484D01*
X7855186Y-11177722D02*
X7864709Y-11158674D01*
X7864709Y-11158674D02*
X7883757Y-11149150D01*
X7883757Y-11149150D02*
X7912328Y-11149150D01*
X7912328Y-11149150D02*
X7931376Y-11158674D01*
X7931376Y-11158674D02*
X7940900Y-11177722D01*
X7940900Y-11177722D02*
X7940900Y-11282484D01*
X8331376Y-11072960D02*
X8159948Y-11330103D01*
X8588519Y-11082484D02*
X8607567Y-11082484D01*
X8607567Y-11082484D02*
X8626614Y-11092008D01*
X8626614Y-11092008D02*
X8636138Y-11101531D01*
X8636138Y-11101531D02*
X8645662Y-11120579D01*
X8645662Y-11120579D02*
X8655186Y-11158674D01*
X8655186Y-11158674D02*
X8655186Y-11206293D01*
X8655186Y-11206293D02*
X8645662Y-11244388D01*
X8645662Y-11244388D02*
X8636138Y-11263436D01*
X8636138Y-11263436D02*
X8626614Y-11272960D01*
X8626614Y-11272960D02*
X8607567Y-11282484D01*
X8607567Y-11282484D02*
X8588519Y-11282484D01*
X8588519Y-11282484D02*
X8569471Y-11272960D01*
X8569471Y-11272960D02*
X8559948Y-11263436D01*
X8559948Y-11263436D02*
X8550424Y-11244388D01*
X8550424Y-11244388D02*
X8540900Y-11206293D01*
X8540900Y-11206293D02*
X8540900Y-11158674D01*
X8540900Y-11158674D02*
X8550424Y-11120579D01*
X8550424Y-11120579D02*
X8559948Y-11101531D01*
X8559948Y-11101531D02*
X8569471Y-11092008D01*
X8569471Y-11092008D02*
X8588519Y-11082484D01*
X8740900Y-11263436D02*
X8750424Y-11272960D01*
X8750424Y-11272960D02*
X8740900Y-11282484D01*
X8740900Y-11282484D02*
X8731376Y-11272960D01*
X8731376Y-11272960D02*
X8740900Y-11263436D01*
X8740900Y-11263436D02*
X8740900Y-11282484D01*
X8874233Y-11082484D02*
X8893281Y-11082484D01*
X8893281Y-11082484D02*
X8912329Y-11092008D01*
X8912329Y-11092008D02*
X8921852Y-11101531D01*
X8921852Y-11101531D02*
X8931376Y-11120579D01*
X8931376Y-11120579D02*
X8940900Y-11158674D01*
X8940900Y-11158674D02*
X8940900Y-11206293D01*
X8940900Y-11206293D02*
X8931376Y-11244388D01*
X8931376Y-11244388D02*
X8921852Y-11263436D01*
X8921852Y-11263436D02*
X8912329Y-11272960D01*
X8912329Y-11272960D02*
X8893281Y-11282484D01*
X8893281Y-11282484D02*
X8874233Y-11282484D01*
X8874233Y-11282484D02*
X8855186Y-11272960D01*
X8855186Y-11272960D02*
X8845662Y-11263436D01*
X8845662Y-11263436D02*
X8836138Y-11244388D01*
X8836138Y-11244388D02*
X8826614Y-11206293D01*
X8826614Y-11206293D02*
X8826614Y-11158674D01*
X8826614Y-11158674D02*
X8836138Y-11120579D01*
X8836138Y-11120579D02*
X8845662Y-11101531D01*
X8845662Y-11101531D02*
X8855186Y-11092008D01*
X8855186Y-11092008D02*
X8874233Y-11082484D01*
X9007567Y-11082484D02*
X9131376Y-11082484D01*
X9131376Y-11082484D02*
X9064710Y-11158674D01*
X9064710Y-11158674D02*
X9093281Y-11158674D01*
X9093281Y-11158674D02*
X9112329Y-11168198D01*
X9112329Y-11168198D02*
X9121852Y-11177722D01*
X9121852Y-11177722D02*
X9131376Y-11196769D01*
X9131376Y-11196769D02*
X9131376Y-11244388D01*
X9131376Y-11244388D02*
X9121852Y-11263436D01*
X9121852Y-11263436D02*
X9112329Y-11272960D01*
X9112329Y-11272960D02*
X9093281Y-11282484D01*
X9093281Y-11282484D02*
X9036138Y-11282484D01*
X9036138Y-11282484D02*
X9017091Y-11272960D01*
X9017091Y-11272960D02*
X9007567Y-11263436D01*
X9255186Y-11082484D02*
X9274233Y-11082484D01*
X9274233Y-11082484D02*
X9293281Y-11092008D01*
X9293281Y-11092008D02*
X9302805Y-11101531D01*
X9302805Y-11101531D02*
X9312329Y-11120579D01*
X9312329Y-11120579D02*
X9321852Y-11158674D01*
X9321852Y-11158674D02*
X9321852Y-11206293D01*
X9321852Y-11206293D02*
X9312329Y-11244388D01*
X9312329Y-11244388D02*
X9302805Y-11263436D01*
X9302805Y-11263436D02*
X9293281Y-11272960D01*
X9293281Y-11272960D02*
X9274233Y-11282484D01*
X9274233Y-11282484D02*
X9255186Y-11282484D01*
X9255186Y-11282484D02*
X9236138Y-11272960D01*
X9236138Y-11272960D02*
X9226614Y-11263436D01*
X9226614Y-11263436D02*
X9217091Y-11244388D01*
X9217091Y-11244388D02*
X9207567Y-11206293D01*
X9207567Y-11206293D02*
X9207567Y-11158674D01*
X9207567Y-11158674D02*
X9217091Y-11120579D01*
X9217091Y-11120579D02*
X9226614Y-11101531D01*
X9226614Y-11101531D02*
X9236138Y-11092008D01*
X9236138Y-11092008D02*
X9255186Y-11082484D01*
X9445662Y-11082484D02*
X9464710Y-11082484D01*
X9464710Y-11082484D02*
X9483757Y-11092008D01*
X9483757Y-11092008D02*
X9493281Y-11101531D01*
X9493281Y-11101531D02*
X9502805Y-11120579D01*
X9502805Y-11120579D02*
X9512329Y-11158674D01*
X9512329Y-11158674D02*
X9512329Y-11206293D01*
X9512329Y-11206293D02*
X9502805Y-11244388D01*
X9502805Y-11244388D02*
X9493281Y-11263436D01*
X9493281Y-11263436D02*
X9483757Y-11272960D01*
X9483757Y-11272960D02*
X9464710Y-11282484D01*
X9464710Y-11282484D02*
X9445662Y-11282484D01*
X9445662Y-11282484D02*
X9426614Y-11272960D01*
X9426614Y-11272960D02*
X9417091Y-11263436D01*
X9417091Y-11263436D02*
X9407567Y-11244388D01*
X9407567Y-11244388D02*
X9398043Y-11206293D01*
X9398043Y-11206293D02*
X9398043Y-11158674D01*
X9398043Y-11158674D02*
X9407567Y-11120579D01*
X9407567Y-11120579D02*
X9417091Y-11101531D01*
X9417091Y-11101531D02*
X9426614Y-11092008D01*
X9426614Y-11092008D02*
X9445662Y-11082484D01*
X9588519Y-11082484D02*
X9588519Y-11120579D01*
X9664710Y-11082484D02*
X9664710Y-11120579D01*
X9959948Y-11358674D02*
X9950424Y-11349150D01*
X9950424Y-11349150D02*
X9931376Y-11320579D01*
X9931376Y-11320579D02*
X9921853Y-11301531D01*
X9921853Y-11301531D02*
X9912329Y-11272960D01*
X9912329Y-11272960D02*
X9902805Y-11225341D01*
X9902805Y-11225341D02*
X9902805Y-11187246D01*
X9902805Y-11187246D02*
X9912329Y-11139627D01*
X9912329Y-11139627D02*
X9921853Y-11111055D01*
X9921853Y-11111055D02*
X9931376Y-11092008D01*
X9931376Y-11092008D02*
X9950424Y-11063436D01*
X9950424Y-11063436D02*
X9959948Y-11053912D01*
X10074233Y-11082484D02*
X10093281Y-11082484D01*
X10093281Y-11082484D02*
X10112329Y-11092008D01*
X10112329Y-11092008D02*
X10121853Y-11101531D01*
X10121853Y-11101531D02*
X10131376Y-11120579D01*
X10131376Y-11120579D02*
X10140900Y-11158674D01*
X10140900Y-11158674D02*
X10140900Y-11206293D01*
X10140900Y-11206293D02*
X10131376Y-11244388D01*
X10131376Y-11244388D02*
X10121853Y-11263436D01*
X10121853Y-11263436D02*
X10112329Y-11272960D01*
X10112329Y-11272960D02*
X10093281Y-11282484D01*
X10093281Y-11282484D02*
X10074233Y-11282484D01*
X10074233Y-11282484D02*
X10055186Y-11272960D01*
X10055186Y-11272960D02*
X10045662Y-11263436D01*
X10045662Y-11263436D02*
X10036138Y-11244388D01*
X10036138Y-11244388D02*
X10026614Y-11206293D01*
X10026614Y-11206293D02*
X10026614Y-11158674D01*
X10026614Y-11158674D02*
X10036138Y-11120579D01*
X10036138Y-11120579D02*
X10045662Y-11101531D01*
X10045662Y-11101531D02*
X10055186Y-11092008D01*
X10055186Y-11092008D02*
X10074233Y-11082484D01*
X10378995Y-11282484D02*
X10378995Y-11082484D01*
X10464710Y-11282484D02*
X10464710Y-11177722D01*
X10464710Y-11177722D02*
X10455186Y-11158674D01*
X10455186Y-11158674D02*
X10436138Y-11149150D01*
X10436138Y-11149150D02*
X10407567Y-11149150D01*
X10407567Y-11149150D02*
X10388519Y-11158674D01*
X10388519Y-11158674D02*
X10378995Y-11168198D01*
X10588519Y-11282484D02*
X10569472Y-11272960D01*
X10569472Y-11272960D02*
X10559948Y-11263436D01*
X10559948Y-11263436D02*
X10550424Y-11244388D01*
X10550424Y-11244388D02*
X10550424Y-11187246D01*
X10550424Y-11187246D02*
X10559948Y-11168198D01*
X10559948Y-11168198D02*
X10569472Y-11158674D01*
X10569472Y-11158674D02*
X10588519Y-11149150D01*
X10588519Y-11149150D02*
X10617091Y-11149150D01*
X10617091Y-11149150D02*
X10636138Y-11158674D01*
X10636138Y-11158674D02*
X10645662Y-11168198D01*
X10645662Y-11168198D02*
X10655186Y-11187246D01*
X10655186Y-11187246D02*
X10655186Y-11244388D01*
X10655186Y-11244388D02*
X10645662Y-11263436D01*
X10645662Y-11263436D02*
X10636138Y-11272960D01*
X10636138Y-11272960D02*
X10617091Y-11282484D01*
X10617091Y-11282484D02*
X10588519Y-11282484D01*
X10769472Y-11282484D02*
X10750424Y-11272960D01*
X10750424Y-11272960D02*
X10740900Y-11253912D01*
X10740900Y-11253912D02*
X10740900Y-11082484D01*
X10921853Y-11272960D02*
X10902805Y-11282484D01*
X10902805Y-11282484D02*
X10864710Y-11282484D01*
X10864710Y-11282484D02*
X10845662Y-11272960D01*
X10845662Y-11272960D02*
X10836138Y-11253912D01*
X10836138Y-11253912D02*
X10836138Y-11177722D01*
X10836138Y-11177722D02*
X10845662Y-11158674D01*
X10845662Y-11158674D02*
X10864710Y-11149150D01*
X10864710Y-11149150D02*
X10902805Y-11149150D01*
X10902805Y-11149150D02*
X10921853Y-11158674D01*
X10921853Y-11158674D02*
X10931376Y-11177722D01*
X10931376Y-11177722D02*
X10931376Y-11196769D01*
X10931376Y-11196769D02*
X10836138Y-11215817D01*
X11007567Y-11272960D02*
X11026615Y-11282484D01*
X11026615Y-11282484D02*
X11064710Y-11282484D01*
X11064710Y-11282484D02*
X11083757Y-11272960D01*
X11083757Y-11272960D02*
X11093281Y-11253912D01*
X11093281Y-11253912D02*
X11093281Y-11244388D01*
X11093281Y-11244388D02*
X11083757Y-11225341D01*
X11083757Y-11225341D02*
X11064710Y-11215817D01*
X11064710Y-11215817D02*
X11036138Y-11215817D01*
X11036138Y-11215817D02*
X11017091Y-11206293D01*
X11017091Y-11206293D02*
X11007567Y-11187246D01*
X11007567Y-11187246D02*
X11007567Y-11177722D01*
X11007567Y-11177722D02*
X11017091Y-11158674D01*
X11017091Y-11158674D02*
X11036138Y-11149150D01*
X11036138Y-11149150D02*
X11064710Y-11149150D01*
X11064710Y-11149150D02*
X11083757Y-11158674D01*
X11331376Y-11206293D02*
X11483757Y-11206293D01*
X11407567Y-11282484D02*
X11407567Y-11130103D01*
X11721853Y-11101531D02*
X11731376Y-11092008D01*
X11731376Y-11092008D02*
X11750424Y-11082484D01*
X11750424Y-11082484D02*
X11798043Y-11082484D01*
X11798043Y-11082484D02*
X11817091Y-11092008D01*
X11817091Y-11092008D02*
X11826615Y-11101531D01*
X11826615Y-11101531D02*
X11836138Y-11120579D01*
X11836138Y-11120579D02*
X11836138Y-11139627D01*
X11836138Y-11139627D02*
X11826615Y-11168198D01*
X11826615Y-11168198D02*
X11712329Y-11282484D01*
X11712329Y-11282484D02*
X11836138Y-11282484D01*
X12064710Y-11272960D02*
X12083757Y-11282484D01*
X12083757Y-11282484D02*
X12121853Y-11282484D01*
X12121853Y-11282484D02*
X12140900Y-11272960D01*
X12140900Y-11272960D02*
X12150424Y-11253912D01*
X12150424Y-11253912D02*
X12150424Y-11244388D01*
X12150424Y-11244388D02*
X12140900Y-11225341D01*
X12140900Y-11225341D02*
X12121853Y-11215817D01*
X12121853Y-11215817D02*
X12093281Y-11215817D01*
X12093281Y-11215817D02*
X12074234Y-11206293D01*
X12074234Y-11206293D02*
X12064710Y-11187246D01*
X12064710Y-11187246D02*
X12064710Y-11177722D01*
X12064710Y-11177722D02*
X12074234Y-11158674D01*
X12074234Y-11158674D02*
X12093281Y-11149150D01*
X12093281Y-11149150D02*
X12121853Y-11149150D01*
X12121853Y-11149150D02*
X12140900Y-11158674D01*
X12264710Y-11282484D02*
X12245662Y-11272960D01*
X12245662Y-11272960D02*
X12236138Y-11253912D01*
X12236138Y-11253912D02*
X12236138Y-11082484D01*
X12369472Y-11282484D02*
X12350424Y-11272960D01*
X12350424Y-11272960D02*
X12340900Y-11263436D01*
X12340900Y-11263436D02*
X12331377Y-11244388D01*
X12331377Y-11244388D02*
X12331377Y-11187246D01*
X12331377Y-11187246D02*
X12340900Y-11168198D01*
X12340900Y-11168198D02*
X12350424Y-11158674D01*
X12350424Y-11158674D02*
X12369472Y-11149150D01*
X12369472Y-11149150D02*
X12398043Y-11149150D01*
X12398043Y-11149150D02*
X12417091Y-11158674D01*
X12417091Y-11158674D02*
X12426615Y-11168198D01*
X12426615Y-11168198D02*
X12436138Y-11187246D01*
X12436138Y-11187246D02*
X12436138Y-11244388D01*
X12436138Y-11244388D02*
X12426615Y-11263436D01*
X12426615Y-11263436D02*
X12417091Y-11272960D01*
X12417091Y-11272960D02*
X12398043Y-11282484D01*
X12398043Y-11282484D02*
X12369472Y-11282484D01*
X12493281Y-11149150D02*
X12569472Y-11149150D01*
X12521853Y-11082484D02*
X12521853Y-11253912D01*
X12521853Y-11253912D02*
X12531377Y-11272960D01*
X12531377Y-11272960D02*
X12550424Y-11282484D01*
X12550424Y-11282484D02*
X12569472Y-11282484D01*
X12626615Y-11272960D02*
X12645662Y-11282484D01*
X12645662Y-11282484D02*
X12683757Y-11282484D01*
X12683757Y-11282484D02*
X12702805Y-11272960D01*
X12702805Y-11272960D02*
X12712329Y-11253912D01*
X12712329Y-11253912D02*
X12712329Y-11244388D01*
X12712329Y-11244388D02*
X12702805Y-11225341D01*
X12702805Y-11225341D02*
X12683757Y-11215817D01*
X12683757Y-11215817D02*
X12655186Y-11215817D01*
X12655186Y-11215817D02*
X12636138Y-11206293D01*
X12636138Y-11206293D02*
X12626615Y-11187246D01*
X12626615Y-11187246D02*
X12626615Y-11177722D01*
X12626615Y-11177722D02*
X12636138Y-11158674D01*
X12636138Y-11158674D02*
X12655186Y-11149150D01*
X12655186Y-11149150D02*
X12683757Y-11149150D01*
X12683757Y-11149150D02*
X12702805Y-11158674D01*
X12778996Y-11358674D02*
X12788519Y-11349150D01*
X12788519Y-11349150D02*
X12807567Y-11320579D01*
X12807567Y-11320579D02*
X12817091Y-11301531D01*
X12817091Y-11301531D02*
X12826615Y-11272960D01*
X12826615Y-11272960D02*
X12836138Y-11225341D01*
X12836138Y-11225341D02*
X12836138Y-11187246D01*
X12836138Y-11187246D02*
X12826615Y-11139627D01*
X12826615Y-11139627D02*
X12817091Y-11111055D01*
X12817091Y-11111055D02*
X12807567Y-11092008D01*
X12807567Y-11092008D02*
X12788519Y-11063436D01*
X12788519Y-11063436D02*
X12778996Y-11053912D01*
D17*
X6294885Y-11410000D02*
X6384885Y-11500000D01*
X6384885Y-11410000D02*
X6294885Y-11500000D01*
X6384885Y-11455000D02*
G75*
G03*
X6384885Y-11455000I-45000J0D01*
G01*
D11*
X6683757Y-11346484D02*
X6702805Y-11346484D01*
X6702805Y-11346484D02*
X6721852Y-11356008D01*
X6721852Y-11356008D02*
X6731376Y-11365531D01*
X6731376Y-11365531D02*
X6740900Y-11384579D01*
X6740900Y-11384579D02*
X6750424Y-11422674D01*
X6750424Y-11422674D02*
X6750424Y-11470293D01*
X6750424Y-11470293D02*
X6740900Y-11508388D01*
X6740900Y-11508388D02*
X6731376Y-11527436D01*
X6731376Y-11527436D02*
X6721852Y-11536960D01*
X6721852Y-11536960D02*
X6702805Y-11546484D01*
X6702805Y-11546484D02*
X6683757Y-11546484D01*
X6683757Y-11546484D02*
X6664709Y-11536960D01*
X6664709Y-11536960D02*
X6655185Y-11527436D01*
X6655185Y-11527436D02*
X6645662Y-11508388D01*
X6645662Y-11508388D02*
X6636138Y-11470293D01*
X6636138Y-11470293D02*
X6636138Y-11422674D01*
X6636138Y-11422674D02*
X6645662Y-11384579D01*
X6645662Y-11384579D02*
X6655185Y-11365531D01*
X6655185Y-11365531D02*
X6664709Y-11356008D01*
X6664709Y-11356008D02*
X6683757Y-11346484D01*
X6836138Y-11527436D02*
X6845662Y-11536960D01*
X6845662Y-11536960D02*
X6836138Y-11546484D01*
X6836138Y-11546484D02*
X6826614Y-11536960D01*
X6826614Y-11536960D02*
X6836138Y-11527436D01*
X6836138Y-11527436D02*
X6836138Y-11546484D01*
X6940900Y-11546484D02*
X6978995Y-11546484D01*
X6978995Y-11546484D02*
X6998043Y-11536960D01*
X6998043Y-11536960D02*
X7007566Y-11527436D01*
X7007566Y-11527436D02*
X7026614Y-11498865D01*
X7026614Y-11498865D02*
X7036138Y-11460769D01*
X7036138Y-11460769D02*
X7036138Y-11384579D01*
X7036138Y-11384579D02*
X7026614Y-11365531D01*
X7026614Y-11365531D02*
X7017090Y-11356008D01*
X7017090Y-11356008D02*
X6998043Y-11346484D01*
X6998043Y-11346484D02*
X6959947Y-11346484D01*
X6959947Y-11346484D02*
X6940900Y-11356008D01*
X6940900Y-11356008D02*
X6931376Y-11365531D01*
X6931376Y-11365531D02*
X6921852Y-11384579D01*
X6921852Y-11384579D02*
X6921852Y-11432198D01*
X6921852Y-11432198D02*
X6931376Y-11451246D01*
X6931376Y-11451246D02*
X6940900Y-11460769D01*
X6940900Y-11460769D02*
X6959947Y-11470293D01*
X6959947Y-11470293D02*
X6998043Y-11470293D01*
X6998043Y-11470293D02*
X7017090Y-11460769D01*
X7017090Y-11460769D02*
X7026614Y-11451246D01*
X7026614Y-11451246D02*
X7036138Y-11432198D01*
X7159947Y-11346484D02*
X7178995Y-11346484D01*
X7178995Y-11346484D02*
X7198043Y-11356008D01*
X7198043Y-11356008D02*
X7207566Y-11365531D01*
X7207566Y-11365531D02*
X7217090Y-11384579D01*
X7217090Y-11384579D02*
X7226614Y-11422674D01*
X7226614Y-11422674D02*
X7226614Y-11470293D01*
X7226614Y-11470293D02*
X7217090Y-11508388D01*
X7217090Y-11508388D02*
X7207566Y-11527436D01*
X7207566Y-11527436D02*
X7198043Y-11536960D01*
X7198043Y-11536960D02*
X7178995Y-11546484D01*
X7178995Y-11546484D02*
X7159947Y-11546484D01*
X7159947Y-11546484D02*
X7140900Y-11536960D01*
X7140900Y-11536960D02*
X7131376Y-11527436D01*
X7131376Y-11527436D02*
X7121852Y-11508388D01*
X7121852Y-11508388D02*
X7112328Y-11470293D01*
X7112328Y-11470293D02*
X7112328Y-11422674D01*
X7112328Y-11422674D02*
X7121852Y-11384579D01*
X7121852Y-11384579D02*
X7131376Y-11365531D01*
X7131376Y-11365531D02*
X7140900Y-11356008D01*
X7140900Y-11356008D02*
X7159947Y-11346484D01*
X7350424Y-11346484D02*
X7369471Y-11346484D01*
X7369471Y-11346484D02*
X7388519Y-11356008D01*
X7388519Y-11356008D02*
X7398043Y-11365531D01*
X7398043Y-11365531D02*
X7407566Y-11384579D01*
X7407566Y-11384579D02*
X7417090Y-11422674D01*
X7417090Y-11422674D02*
X7417090Y-11470293D01*
X7417090Y-11470293D02*
X7407566Y-11508388D01*
X7407566Y-11508388D02*
X7398043Y-11527436D01*
X7398043Y-11527436D02*
X7388519Y-11536960D01*
X7388519Y-11536960D02*
X7369471Y-11546484D01*
X7369471Y-11546484D02*
X7350424Y-11546484D01*
X7350424Y-11546484D02*
X7331376Y-11536960D01*
X7331376Y-11536960D02*
X7321852Y-11527436D01*
X7321852Y-11527436D02*
X7312328Y-11508388D01*
X7312328Y-11508388D02*
X7302805Y-11470293D01*
X7302805Y-11470293D02*
X7302805Y-11422674D01*
X7302805Y-11422674D02*
X7312328Y-11384579D01*
X7312328Y-11384579D02*
X7321852Y-11365531D01*
X7321852Y-11365531D02*
X7331376Y-11356008D01*
X7331376Y-11356008D02*
X7350424Y-11346484D01*
X7502805Y-11546484D02*
X7502805Y-11413150D01*
X7502805Y-11432198D02*
X7512328Y-11422674D01*
X7512328Y-11422674D02*
X7531376Y-11413150D01*
X7531376Y-11413150D02*
X7559947Y-11413150D01*
X7559947Y-11413150D02*
X7578995Y-11422674D01*
X7578995Y-11422674D02*
X7588519Y-11441722D01*
X7588519Y-11441722D02*
X7588519Y-11546484D01*
X7588519Y-11441722D02*
X7598043Y-11422674D01*
X7598043Y-11422674D02*
X7617090Y-11413150D01*
X7617090Y-11413150D02*
X7645662Y-11413150D01*
X7645662Y-11413150D02*
X7664709Y-11422674D01*
X7664709Y-11422674D02*
X7674233Y-11441722D01*
X7674233Y-11441722D02*
X7674233Y-11546484D01*
X7769471Y-11546484D02*
X7769471Y-11413150D01*
X7769471Y-11432198D02*
X7778995Y-11422674D01*
X7778995Y-11422674D02*
X7798043Y-11413150D01*
X7798043Y-11413150D02*
X7826614Y-11413150D01*
X7826614Y-11413150D02*
X7845662Y-11422674D01*
X7845662Y-11422674D02*
X7855186Y-11441722D01*
X7855186Y-11441722D02*
X7855186Y-11546484D01*
X7855186Y-11441722D02*
X7864709Y-11422674D01*
X7864709Y-11422674D02*
X7883757Y-11413150D01*
X7883757Y-11413150D02*
X7912328Y-11413150D01*
X7912328Y-11413150D02*
X7931376Y-11422674D01*
X7931376Y-11422674D02*
X7940900Y-11441722D01*
X7940900Y-11441722D02*
X7940900Y-11546484D01*
X8331376Y-11336960D02*
X8159948Y-11594103D01*
X8588519Y-11346484D02*
X8607567Y-11346484D01*
X8607567Y-11346484D02*
X8626614Y-11356008D01*
X8626614Y-11356008D02*
X8636138Y-11365531D01*
X8636138Y-11365531D02*
X8645662Y-11384579D01*
X8645662Y-11384579D02*
X8655186Y-11422674D01*
X8655186Y-11422674D02*
X8655186Y-11470293D01*
X8655186Y-11470293D02*
X8645662Y-11508388D01*
X8645662Y-11508388D02*
X8636138Y-11527436D01*
X8636138Y-11527436D02*
X8626614Y-11536960D01*
X8626614Y-11536960D02*
X8607567Y-11546484D01*
X8607567Y-11546484D02*
X8588519Y-11546484D01*
X8588519Y-11546484D02*
X8569471Y-11536960D01*
X8569471Y-11536960D02*
X8559948Y-11527436D01*
X8559948Y-11527436D02*
X8550424Y-11508388D01*
X8550424Y-11508388D02*
X8540900Y-11470293D01*
X8540900Y-11470293D02*
X8540900Y-11422674D01*
X8540900Y-11422674D02*
X8550424Y-11384579D01*
X8550424Y-11384579D02*
X8559948Y-11365531D01*
X8559948Y-11365531D02*
X8569471Y-11356008D01*
X8569471Y-11356008D02*
X8588519Y-11346484D01*
X8740900Y-11527436D02*
X8750424Y-11536960D01*
X8750424Y-11536960D02*
X8740900Y-11546484D01*
X8740900Y-11546484D02*
X8731376Y-11536960D01*
X8731376Y-11536960D02*
X8740900Y-11527436D01*
X8740900Y-11527436D02*
X8740900Y-11546484D01*
X8874233Y-11346484D02*
X8893281Y-11346484D01*
X8893281Y-11346484D02*
X8912329Y-11356008D01*
X8912329Y-11356008D02*
X8921852Y-11365531D01*
X8921852Y-11365531D02*
X8931376Y-11384579D01*
X8931376Y-11384579D02*
X8940900Y-11422674D01*
X8940900Y-11422674D02*
X8940900Y-11470293D01*
X8940900Y-11470293D02*
X8931376Y-11508388D01*
X8931376Y-11508388D02*
X8921852Y-11527436D01*
X8921852Y-11527436D02*
X8912329Y-11536960D01*
X8912329Y-11536960D02*
X8893281Y-11546484D01*
X8893281Y-11546484D02*
X8874233Y-11546484D01*
X8874233Y-11546484D02*
X8855186Y-11536960D01*
X8855186Y-11536960D02*
X8845662Y-11527436D01*
X8845662Y-11527436D02*
X8836138Y-11508388D01*
X8836138Y-11508388D02*
X8826614Y-11470293D01*
X8826614Y-11470293D02*
X8826614Y-11422674D01*
X8826614Y-11422674D02*
X8836138Y-11384579D01*
X8836138Y-11384579D02*
X8845662Y-11365531D01*
X8845662Y-11365531D02*
X8855186Y-11356008D01*
X8855186Y-11356008D02*
X8874233Y-11346484D01*
X9007567Y-11346484D02*
X9131376Y-11346484D01*
X9131376Y-11346484D02*
X9064710Y-11422674D01*
X9064710Y-11422674D02*
X9093281Y-11422674D01*
X9093281Y-11422674D02*
X9112329Y-11432198D01*
X9112329Y-11432198D02*
X9121852Y-11441722D01*
X9121852Y-11441722D02*
X9131376Y-11460769D01*
X9131376Y-11460769D02*
X9131376Y-11508388D01*
X9131376Y-11508388D02*
X9121852Y-11527436D01*
X9121852Y-11527436D02*
X9112329Y-11536960D01*
X9112329Y-11536960D02*
X9093281Y-11546484D01*
X9093281Y-11546484D02*
X9036138Y-11546484D01*
X9036138Y-11546484D02*
X9017091Y-11536960D01*
X9017091Y-11536960D02*
X9007567Y-11527436D01*
X9312329Y-11346484D02*
X9217091Y-11346484D01*
X9217091Y-11346484D02*
X9207567Y-11441722D01*
X9207567Y-11441722D02*
X9217091Y-11432198D01*
X9217091Y-11432198D02*
X9236138Y-11422674D01*
X9236138Y-11422674D02*
X9283757Y-11422674D01*
X9283757Y-11422674D02*
X9302805Y-11432198D01*
X9302805Y-11432198D02*
X9312329Y-11441722D01*
X9312329Y-11441722D02*
X9321852Y-11460769D01*
X9321852Y-11460769D02*
X9321852Y-11508388D01*
X9321852Y-11508388D02*
X9312329Y-11527436D01*
X9312329Y-11527436D02*
X9302805Y-11536960D01*
X9302805Y-11536960D02*
X9283757Y-11546484D01*
X9283757Y-11546484D02*
X9236138Y-11546484D01*
X9236138Y-11546484D02*
X9217091Y-11536960D01*
X9217091Y-11536960D02*
X9207567Y-11527436D01*
X9493281Y-11413150D02*
X9493281Y-11546484D01*
X9445662Y-11336960D02*
X9398043Y-11479817D01*
X9398043Y-11479817D02*
X9521852Y-11479817D01*
X9588519Y-11346484D02*
X9588519Y-11384579D01*
X9664710Y-11346484D02*
X9664710Y-11384579D01*
X9959948Y-11622674D02*
X9950424Y-11613150D01*
X9950424Y-11613150D02*
X9931376Y-11584579D01*
X9931376Y-11584579D02*
X9921853Y-11565531D01*
X9921853Y-11565531D02*
X9912329Y-11536960D01*
X9912329Y-11536960D02*
X9902805Y-11489341D01*
X9902805Y-11489341D02*
X9902805Y-11451246D01*
X9902805Y-11451246D02*
X9912329Y-11403627D01*
X9912329Y-11403627D02*
X9921853Y-11375055D01*
X9921853Y-11375055D02*
X9931376Y-11356008D01*
X9931376Y-11356008D02*
X9950424Y-11327436D01*
X9950424Y-11327436D02*
X9959948Y-11317912D01*
X10064710Y-11432198D02*
X10045662Y-11422674D01*
X10045662Y-11422674D02*
X10036138Y-11413150D01*
X10036138Y-11413150D02*
X10026614Y-11394103D01*
X10026614Y-11394103D02*
X10026614Y-11384579D01*
X10026614Y-11384579D02*
X10036138Y-11365531D01*
X10036138Y-11365531D02*
X10045662Y-11356008D01*
X10045662Y-11356008D02*
X10064710Y-11346484D01*
X10064710Y-11346484D02*
X10102805Y-11346484D01*
X10102805Y-11346484D02*
X10121853Y-11356008D01*
X10121853Y-11356008D02*
X10131376Y-11365531D01*
X10131376Y-11365531D02*
X10140900Y-11384579D01*
X10140900Y-11384579D02*
X10140900Y-11394103D01*
X10140900Y-11394103D02*
X10131376Y-11413150D01*
X10131376Y-11413150D02*
X10121853Y-11422674D01*
X10121853Y-11422674D02*
X10102805Y-11432198D01*
X10102805Y-11432198D02*
X10064710Y-11432198D01*
X10064710Y-11432198D02*
X10045662Y-11441722D01*
X10045662Y-11441722D02*
X10036138Y-11451246D01*
X10036138Y-11451246D02*
X10026614Y-11470293D01*
X10026614Y-11470293D02*
X10026614Y-11508388D01*
X10026614Y-11508388D02*
X10036138Y-11527436D01*
X10036138Y-11527436D02*
X10045662Y-11536960D01*
X10045662Y-11536960D02*
X10064710Y-11546484D01*
X10064710Y-11546484D02*
X10102805Y-11546484D01*
X10102805Y-11546484D02*
X10121853Y-11536960D01*
X10121853Y-11536960D02*
X10131376Y-11527436D01*
X10131376Y-11527436D02*
X10140900Y-11508388D01*
X10140900Y-11508388D02*
X10140900Y-11470293D01*
X10140900Y-11470293D02*
X10131376Y-11451246D01*
X10131376Y-11451246D02*
X10121853Y-11441722D01*
X10121853Y-11441722D02*
X10102805Y-11432198D01*
X10378995Y-11546484D02*
X10378995Y-11346484D01*
X10464710Y-11546484D02*
X10464710Y-11441722D01*
X10464710Y-11441722D02*
X10455186Y-11422674D01*
X10455186Y-11422674D02*
X10436138Y-11413150D01*
X10436138Y-11413150D02*
X10407567Y-11413150D01*
X10407567Y-11413150D02*
X10388519Y-11422674D01*
X10388519Y-11422674D02*
X10378995Y-11432198D01*
X10588519Y-11546484D02*
X10569472Y-11536960D01*
X10569472Y-11536960D02*
X10559948Y-11527436D01*
X10559948Y-11527436D02*
X10550424Y-11508388D01*
X10550424Y-11508388D02*
X10550424Y-11451246D01*
X10550424Y-11451246D02*
X10559948Y-11432198D01*
X10559948Y-11432198D02*
X10569472Y-11422674D01*
X10569472Y-11422674D02*
X10588519Y-11413150D01*
X10588519Y-11413150D02*
X10617091Y-11413150D01*
X10617091Y-11413150D02*
X10636138Y-11422674D01*
X10636138Y-11422674D02*
X10645662Y-11432198D01*
X10645662Y-11432198D02*
X10655186Y-11451246D01*
X10655186Y-11451246D02*
X10655186Y-11508388D01*
X10655186Y-11508388D02*
X10645662Y-11527436D01*
X10645662Y-11527436D02*
X10636138Y-11536960D01*
X10636138Y-11536960D02*
X10617091Y-11546484D01*
X10617091Y-11546484D02*
X10588519Y-11546484D01*
X10769472Y-11546484D02*
X10750424Y-11536960D01*
X10750424Y-11536960D02*
X10740900Y-11517912D01*
X10740900Y-11517912D02*
X10740900Y-11346484D01*
X10921853Y-11536960D02*
X10902805Y-11546484D01*
X10902805Y-11546484D02*
X10864710Y-11546484D01*
X10864710Y-11546484D02*
X10845662Y-11536960D01*
X10845662Y-11536960D02*
X10836138Y-11517912D01*
X10836138Y-11517912D02*
X10836138Y-11441722D01*
X10836138Y-11441722D02*
X10845662Y-11422674D01*
X10845662Y-11422674D02*
X10864710Y-11413150D01*
X10864710Y-11413150D02*
X10902805Y-11413150D01*
X10902805Y-11413150D02*
X10921853Y-11422674D01*
X10921853Y-11422674D02*
X10931376Y-11441722D01*
X10931376Y-11441722D02*
X10931376Y-11460769D01*
X10931376Y-11460769D02*
X10836138Y-11479817D01*
X11007567Y-11536960D02*
X11026615Y-11546484D01*
X11026615Y-11546484D02*
X11064710Y-11546484D01*
X11064710Y-11546484D02*
X11083757Y-11536960D01*
X11083757Y-11536960D02*
X11093281Y-11517912D01*
X11093281Y-11517912D02*
X11093281Y-11508388D01*
X11093281Y-11508388D02*
X11083757Y-11489341D01*
X11083757Y-11489341D02*
X11064710Y-11479817D01*
X11064710Y-11479817D02*
X11036138Y-11479817D01*
X11036138Y-11479817D02*
X11017091Y-11470293D01*
X11017091Y-11470293D02*
X11007567Y-11451246D01*
X11007567Y-11451246D02*
X11007567Y-11441722D01*
X11007567Y-11441722D02*
X11017091Y-11422674D01*
X11017091Y-11422674D02*
X11036138Y-11413150D01*
X11036138Y-11413150D02*
X11064710Y-11413150D01*
X11064710Y-11413150D02*
X11083757Y-11422674D01*
X11159948Y-11622674D02*
X11169472Y-11613150D01*
X11169472Y-11613150D02*
X11188519Y-11584579D01*
X11188519Y-11584579D02*
X11198043Y-11565531D01*
X11198043Y-11565531D02*
X11207567Y-11536960D01*
X11207567Y-11536960D02*
X11217091Y-11489341D01*
X11217091Y-11489341D02*
X11217091Y-11451246D01*
X11217091Y-11451246D02*
X11207567Y-11403627D01*
X11207567Y-11403627D02*
X11198043Y-11375055D01*
X11198043Y-11375055D02*
X11188519Y-11356008D01*
X11188519Y-11356008D02*
X11169472Y-11327436D01*
X11169472Y-11327436D02*
X11159948Y-11317912D01*
X6184885Y-11619000D02*
X6384885Y-11819000D01*
X6384885Y-11619000D02*
X6184885Y-11819000D01*
X6284885Y-11619000D02*
X6284885Y-11819000D01*
X6184885Y-11719000D02*
X6384885Y-11719000D01*
X6626614Y-11610484D02*
X6750424Y-11610484D01*
X6750424Y-11610484D02*
X6683757Y-11686674D01*
X6683757Y-11686674D02*
X6712328Y-11686674D01*
X6712328Y-11686674D02*
X6731376Y-11696198D01*
X6731376Y-11696198D02*
X6740900Y-11705722D01*
X6740900Y-11705722D02*
X6750424Y-11724769D01*
X6750424Y-11724769D02*
X6750424Y-11772388D01*
X6750424Y-11772388D02*
X6740900Y-11791436D01*
X6740900Y-11791436D02*
X6731376Y-11800960D01*
X6731376Y-11800960D02*
X6712328Y-11810484D01*
X6712328Y-11810484D02*
X6655185Y-11810484D01*
X6655185Y-11810484D02*
X6636138Y-11800960D01*
X6636138Y-11800960D02*
X6626614Y-11791436D01*
X6836138Y-11791436D02*
X6845662Y-11800960D01*
X6845662Y-11800960D02*
X6836138Y-11810484D01*
X6836138Y-11810484D02*
X6826614Y-11800960D01*
X6826614Y-11800960D02*
X6836138Y-11791436D01*
X6836138Y-11791436D02*
X6836138Y-11810484D01*
X6921852Y-11629531D02*
X6931376Y-11620008D01*
X6931376Y-11620008D02*
X6950424Y-11610484D01*
X6950424Y-11610484D02*
X6998043Y-11610484D01*
X6998043Y-11610484D02*
X7017090Y-11620008D01*
X7017090Y-11620008D02*
X7026614Y-11629531D01*
X7026614Y-11629531D02*
X7036138Y-11648579D01*
X7036138Y-11648579D02*
X7036138Y-11667627D01*
X7036138Y-11667627D02*
X7026614Y-11696198D01*
X7026614Y-11696198D02*
X6912328Y-11810484D01*
X6912328Y-11810484D02*
X7036138Y-11810484D01*
X7159947Y-11610484D02*
X7178995Y-11610484D01*
X7178995Y-11610484D02*
X7198043Y-11620008D01*
X7198043Y-11620008D02*
X7207566Y-11629531D01*
X7207566Y-11629531D02*
X7217090Y-11648579D01*
X7217090Y-11648579D02*
X7226614Y-11686674D01*
X7226614Y-11686674D02*
X7226614Y-11734293D01*
X7226614Y-11734293D02*
X7217090Y-11772388D01*
X7217090Y-11772388D02*
X7207566Y-11791436D01*
X7207566Y-11791436D02*
X7198043Y-11800960D01*
X7198043Y-11800960D02*
X7178995Y-11810484D01*
X7178995Y-11810484D02*
X7159947Y-11810484D01*
X7159947Y-11810484D02*
X7140900Y-11800960D01*
X7140900Y-11800960D02*
X7131376Y-11791436D01*
X7131376Y-11791436D02*
X7121852Y-11772388D01*
X7121852Y-11772388D02*
X7112328Y-11734293D01*
X7112328Y-11734293D02*
X7112328Y-11686674D01*
X7112328Y-11686674D02*
X7121852Y-11648579D01*
X7121852Y-11648579D02*
X7131376Y-11629531D01*
X7131376Y-11629531D02*
X7140900Y-11620008D01*
X7140900Y-11620008D02*
X7159947Y-11610484D01*
X7350424Y-11610484D02*
X7369471Y-11610484D01*
X7369471Y-11610484D02*
X7388519Y-11620008D01*
X7388519Y-11620008D02*
X7398043Y-11629531D01*
X7398043Y-11629531D02*
X7407566Y-11648579D01*
X7407566Y-11648579D02*
X7417090Y-11686674D01*
X7417090Y-11686674D02*
X7417090Y-11734293D01*
X7417090Y-11734293D02*
X7407566Y-11772388D01*
X7407566Y-11772388D02*
X7398043Y-11791436D01*
X7398043Y-11791436D02*
X7388519Y-11800960D01*
X7388519Y-11800960D02*
X7369471Y-11810484D01*
X7369471Y-11810484D02*
X7350424Y-11810484D01*
X7350424Y-11810484D02*
X7331376Y-11800960D01*
X7331376Y-11800960D02*
X7321852Y-11791436D01*
X7321852Y-11791436D02*
X7312328Y-11772388D01*
X7312328Y-11772388D02*
X7302805Y-11734293D01*
X7302805Y-11734293D02*
X7302805Y-11686674D01*
X7302805Y-11686674D02*
X7312328Y-11648579D01*
X7312328Y-11648579D02*
X7321852Y-11629531D01*
X7321852Y-11629531D02*
X7331376Y-11620008D01*
X7331376Y-11620008D02*
X7350424Y-11610484D01*
X7502805Y-11810484D02*
X7502805Y-11677150D01*
X7502805Y-11696198D02*
X7512328Y-11686674D01*
X7512328Y-11686674D02*
X7531376Y-11677150D01*
X7531376Y-11677150D02*
X7559947Y-11677150D01*
X7559947Y-11677150D02*
X7578995Y-11686674D01*
X7578995Y-11686674D02*
X7588519Y-11705722D01*
X7588519Y-11705722D02*
X7588519Y-11810484D01*
X7588519Y-11705722D02*
X7598043Y-11686674D01*
X7598043Y-11686674D02*
X7617090Y-11677150D01*
X7617090Y-11677150D02*
X7645662Y-11677150D01*
X7645662Y-11677150D02*
X7664709Y-11686674D01*
X7664709Y-11686674D02*
X7674233Y-11705722D01*
X7674233Y-11705722D02*
X7674233Y-11810484D01*
X7769471Y-11810484D02*
X7769471Y-11677150D01*
X7769471Y-11696198D02*
X7778995Y-11686674D01*
X7778995Y-11686674D02*
X7798043Y-11677150D01*
X7798043Y-11677150D02*
X7826614Y-11677150D01*
X7826614Y-11677150D02*
X7845662Y-11686674D01*
X7845662Y-11686674D02*
X7855186Y-11705722D01*
X7855186Y-11705722D02*
X7855186Y-11810484D01*
X7855186Y-11705722D02*
X7864709Y-11686674D01*
X7864709Y-11686674D02*
X7883757Y-11677150D01*
X7883757Y-11677150D02*
X7912328Y-11677150D01*
X7912328Y-11677150D02*
X7931376Y-11686674D01*
X7931376Y-11686674D02*
X7940900Y-11705722D01*
X7940900Y-11705722D02*
X7940900Y-11810484D01*
X8331376Y-11600960D02*
X8159948Y-11858103D01*
X8588519Y-11610484D02*
X8607567Y-11610484D01*
X8607567Y-11610484D02*
X8626614Y-11620008D01*
X8626614Y-11620008D02*
X8636138Y-11629531D01*
X8636138Y-11629531D02*
X8645662Y-11648579D01*
X8645662Y-11648579D02*
X8655186Y-11686674D01*
X8655186Y-11686674D02*
X8655186Y-11734293D01*
X8655186Y-11734293D02*
X8645662Y-11772388D01*
X8645662Y-11772388D02*
X8636138Y-11791436D01*
X8636138Y-11791436D02*
X8626614Y-11800960D01*
X8626614Y-11800960D02*
X8607567Y-11810484D01*
X8607567Y-11810484D02*
X8588519Y-11810484D01*
X8588519Y-11810484D02*
X8569471Y-11800960D01*
X8569471Y-11800960D02*
X8559948Y-11791436D01*
X8559948Y-11791436D02*
X8550424Y-11772388D01*
X8550424Y-11772388D02*
X8540900Y-11734293D01*
X8540900Y-11734293D02*
X8540900Y-11686674D01*
X8540900Y-11686674D02*
X8550424Y-11648579D01*
X8550424Y-11648579D02*
X8559948Y-11629531D01*
X8559948Y-11629531D02*
X8569471Y-11620008D01*
X8569471Y-11620008D02*
X8588519Y-11610484D01*
X8740900Y-11791436D02*
X8750424Y-11800960D01*
X8750424Y-11800960D02*
X8740900Y-11810484D01*
X8740900Y-11810484D02*
X8731376Y-11800960D01*
X8731376Y-11800960D02*
X8740900Y-11791436D01*
X8740900Y-11791436D02*
X8740900Y-11810484D01*
X8940900Y-11810484D02*
X8826614Y-11810484D01*
X8883757Y-11810484D02*
X8883757Y-11610484D01*
X8883757Y-11610484D02*
X8864710Y-11639055D01*
X8864710Y-11639055D02*
X8845662Y-11658103D01*
X8845662Y-11658103D02*
X8826614Y-11667627D01*
X9017091Y-11629531D02*
X9026614Y-11620008D01*
X9026614Y-11620008D02*
X9045662Y-11610484D01*
X9045662Y-11610484D02*
X9093281Y-11610484D01*
X9093281Y-11610484D02*
X9112329Y-11620008D01*
X9112329Y-11620008D02*
X9121852Y-11629531D01*
X9121852Y-11629531D02*
X9131376Y-11648579D01*
X9131376Y-11648579D02*
X9131376Y-11667627D01*
X9131376Y-11667627D02*
X9121852Y-11696198D01*
X9121852Y-11696198D02*
X9007567Y-11810484D01*
X9007567Y-11810484D02*
X9131376Y-11810484D01*
X9302805Y-11610484D02*
X9264710Y-11610484D01*
X9264710Y-11610484D02*
X9245662Y-11620008D01*
X9245662Y-11620008D02*
X9236138Y-11629531D01*
X9236138Y-11629531D02*
X9217091Y-11658103D01*
X9217091Y-11658103D02*
X9207567Y-11696198D01*
X9207567Y-11696198D02*
X9207567Y-11772388D01*
X9207567Y-11772388D02*
X9217091Y-11791436D01*
X9217091Y-11791436D02*
X9226614Y-11800960D01*
X9226614Y-11800960D02*
X9245662Y-11810484D01*
X9245662Y-11810484D02*
X9283757Y-11810484D01*
X9283757Y-11810484D02*
X9302805Y-11800960D01*
X9302805Y-11800960D02*
X9312329Y-11791436D01*
X9312329Y-11791436D02*
X9321852Y-11772388D01*
X9321852Y-11772388D02*
X9321852Y-11724769D01*
X9321852Y-11724769D02*
X9312329Y-11705722D01*
X9312329Y-11705722D02*
X9302805Y-11696198D01*
X9302805Y-11696198D02*
X9283757Y-11686674D01*
X9283757Y-11686674D02*
X9245662Y-11686674D01*
X9245662Y-11686674D02*
X9226614Y-11696198D01*
X9226614Y-11696198D02*
X9217091Y-11705722D01*
X9217091Y-11705722D02*
X9207567Y-11724769D01*
X9445662Y-11610484D02*
X9464710Y-11610484D01*
X9464710Y-11610484D02*
X9483757Y-11620008D01*
X9483757Y-11620008D02*
X9493281Y-11629531D01*
X9493281Y-11629531D02*
X9502805Y-11648579D01*
X9502805Y-11648579D02*
X9512329Y-11686674D01*
X9512329Y-11686674D02*
X9512329Y-11734293D01*
X9512329Y-11734293D02*
X9502805Y-11772388D01*
X9502805Y-11772388D02*
X9493281Y-11791436D01*
X9493281Y-11791436D02*
X9483757Y-11800960D01*
X9483757Y-11800960D02*
X9464710Y-11810484D01*
X9464710Y-11810484D02*
X9445662Y-11810484D01*
X9445662Y-11810484D02*
X9426614Y-11800960D01*
X9426614Y-11800960D02*
X9417091Y-11791436D01*
X9417091Y-11791436D02*
X9407567Y-11772388D01*
X9407567Y-11772388D02*
X9398043Y-11734293D01*
X9398043Y-11734293D02*
X9398043Y-11686674D01*
X9398043Y-11686674D02*
X9407567Y-11648579D01*
X9407567Y-11648579D02*
X9417091Y-11629531D01*
X9417091Y-11629531D02*
X9426614Y-11620008D01*
X9426614Y-11620008D02*
X9445662Y-11610484D01*
X9588519Y-11610484D02*
X9588519Y-11648579D01*
X9664710Y-11610484D02*
X9664710Y-11648579D01*
X9959948Y-11886674D02*
X9950424Y-11877150D01*
X9950424Y-11877150D02*
X9931376Y-11848579D01*
X9931376Y-11848579D02*
X9921853Y-11829531D01*
X9921853Y-11829531D02*
X9912329Y-11800960D01*
X9912329Y-11800960D02*
X9902805Y-11753341D01*
X9902805Y-11753341D02*
X9902805Y-11715246D01*
X9902805Y-11715246D02*
X9912329Y-11667627D01*
X9912329Y-11667627D02*
X9921853Y-11639055D01*
X9921853Y-11639055D02*
X9931376Y-11620008D01*
X9931376Y-11620008D02*
X9950424Y-11591436D01*
X9950424Y-11591436D02*
X9959948Y-11581912D01*
X10026614Y-11629531D02*
X10036138Y-11620008D01*
X10036138Y-11620008D02*
X10055186Y-11610484D01*
X10055186Y-11610484D02*
X10102805Y-11610484D01*
X10102805Y-11610484D02*
X10121853Y-11620008D01*
X10121853Y-11620008D02*
X10131376Y-11629531D01*
X10131376Y-11629531D02*
X10140900Y-11648579D01*
X10140900Y-11648579D02*
X10140900Y-11667627D01*
X10140900Y-11667627D02*
X10131376Y-11696198D01*
X10131376Y-11696198D02*
X10017091Y-11810484D01*
X10017091Y-11810484D02*
X10140900Y-11810484D01*
X10378995Y-11810484D02*
X10378995Y-11610484D01*
X10464710Y-11810484D02*
X10464710Y-11705722D01*
X10464710Y-11705722D02*
X10455186Y-11686674D01*
X10455186Y-11686674D02*
X10436138Y-11677150D01*
X10436138Y-11677150D02*
X10407567Y-11677150D01*
X10407567Y-11677150D02*
X10388519Y-11686674D01*
X10388519Y-11686674D02*
X10378995Y-11696198D01*
X10588519Y-11810484D02*
X10569472Y-11800960D01*
X10569472Y-11800960D02*
X10559948Y-11791436D01*
X10559948Y-11791436D02*
X10550424Y-11772388D01*
X10550424Y-11772388D02*
X10550424Y-11715246D01*
X10550424Y-11715246D02*
X10559948Y-11696198D01*
X10559948Y-11696198D02*
X10569472Y-11686674D01*
X10569472Y-11686674D02*
X10588519Y-11677150D01*
X10588519Y-11677150D02*
X10617091Y-11677150D01*
X10617091Y-11677150D02*
X10636138Y-11686674D01*
X10636138Y-11686674D02*
X10645662Y-11696198D01*
X10645662Y-11696198D02*
X10655186Y-11715246D01*
X10655186Y-11715246D02*
X10655186Y-11772388D01*
X10655186Y-11772388D02*
X10645662Y-11791436D01*
X10645662Y-11791436D02*
X10636138Y-11800960D01*
X10636138Y-11800960D02*
X10617091Y-11810484D01*
X10617091Y-11810484D02*
X10588519Y-11810484D01*
X10769472Y-11810484D02*
X10750424Y-11800960D01*
X10750424Y-11800960D02*
X10740900Y-11781912D01*
X10740900Y-11781912D02*
X10740900Y-11610484D01*
X10921853Y-11800960D02*
X10902805Y-11810484D01*
X10902805Y-11810484D02*
X10864710Y-11810484D01*
X10864710Y-11810484D02*
X10845662Y-11800960D01*
X10845662Y-11800960D02*
X10836138Y-11781912D01*
X10836138Y-11781912D02*
X10836138Y-11705722D01*
X10836138Y-11705722D02*
X10845662Y-11686674D01*
X10845662Y-11686674D02*
X10864710Y-11677150D01*
X10864710Y-11677150D02*
X10902805Y-11677150D01*
X10902805Y-11677150D02*
X10921853Y-11686674D01*
X10921853Y-11686674D02*
X10931376Y-11705722D01*
X10931376Y-11705722D02*
X10931376Y-11724769D01*
X10931376Y-11724769D02*
X10836138Y-11743817D01*
X11007567Y-11800960D02*
X11026615Y-11810484D01*
X11026615Y-11810484D02*
X11064710Y-11810484D01*
X11064710Y-11810484D02*
X11083757Y-11800960D01*
X11083757Y-11800960D02*
X11093281Y-11781912D01*
X11093281Y-11781912D02*
X11093281Y-11772388D01*
X11093281Y-11772388D02*
X11083757Y-11753341D01*
X11083757Y-11753341D02*
X11064710Y-11743817D01*
X11064710Y-11743817D02*
X11036138Y-11743817D01*
X11036138Y-11743817D02*
X11017091Y-11734293D01*
X11017091Y-11734293D02*
X11007567Y-11715246D01*
X11007567Y-11715246D02*
X11007567Y-11705722D01*
X11007567Y-11705722D02*
X11017091Y-11686674D01*
X11017091Y-11686674D02*
X11036138Y-11677150D01*
X11036138Y-11677150D02*
X11064710Y-11677150D01*
X11064710Y-11677150D02*
X11083757Y-11686674D01*
X11159948Y-11886674D02*
X11169472Y-11877150D01*
X11169472Y-11877150D02*
X11188519Y-11848579D01*
X11188519Y-11848579D02*
X11198043Y-11829531D01*
X11198043Y-11829531D02*
X11207567Y-11800960D01*
X11207567Y-11800960D02*
X11217091Y-11753341D01*
X11217091Y-11753341D02*
X11217091Y-11715246D01*
X11217091Y-11715246D02*
X11207567Y-11667627D01*
X11207567Y-11667627D02*
X11198043Y-11639055D01*
X11198043Y-11639055D02*
X11188519Y-11620008D01*
X11188519Y-11620008D02*
X11169472Y-11591436D01*
X11169472Y-11591436D02*
X11159948Y-11581912D01*
M02*
