%TF.GenerationSoftware,KiCad,Pcbnew,(6.0.4-0)*%
%TF.CreationDate,2022-09-29T18:28:13+01:00*%
%TF.ProjectId,smoke_extractorV1_1,736d6f6b-655f-4657-9874-726163746f72,rev?*%
%TF.SameCoordinates,Original*%
%TF.FileFunction,Copper,L1,Top*%
%TF.FilePolarity,Positive*%
%FSLAX46Y46*%
G04 Gerber Fmt 4.6, Leading zero omitted, Abs format (unit mm)*
G04 Created by KiCad (PCBNEW (6.0.4-0)) date 2022-09-29 18:28:13*
%MOMM*%
%LPD*%
G01*
G04 APERTURE LIST*
G04 Aperture macros list*
%AMRoundRect*
0 Rectangle with rounded corners*
0 $1 Rounding radius*
0 $2 $3 $4 $5 $6 $7 $8 $9 X,Y pos of 4 corners*
0 Add a 4 corners polygon primitive as box body*
4,1,4,$2,$3,$4,$5,$6,$7,$8,$9,$2,$3,0*
0 Add four circle primitives for the rounded corners*
1,1,$1+$1,$2,$3*
1,1,$1+$1,$4,$5*
1,1,$1+$1,$6,$7*
1,1,$1+$1,$8,$9*
0 Add four rect primitives between the rounded corners*
20,1,$1+$1,$2,$3,$4,$5,0*
20,1,$1+$1,$4,$5,$6,$7,0*
20,1,$1+$1,$6,$7,$8,$9,0*
20,1,$1+$1,$8,$9,$2,$3,0*%
%AMFreePoly0*
4,1,5,3.500000,-1.500000,-3.500000,-1.500000,-3.500000,1.500000,3.500000,1.500000,3.500000,-1.500000,3.500000,-1.500000,$1*%
G04 Aperture macros list end*
%TA.AperFunction,ComponentPad*%
%ADD10C,5.700000*%
%TD*%
%TA.AperFunction,ComponentPad*%
%ADD11R,3.000000X3.000000*%
%TD*%
%TA.AperFunction,ComponentPad*%
%ADD12C,3.000000*%
%TD*%
%TA.AperFunction,SMDPad,CuDef*%
%ADD13R,0.650000X1.560000*%
%TD*%
%TA.AperFunction,SMDPad,CuDef*%
%ADD14RoundRect,0.237500X0.237500X-0.250000X0.237500X0.250000X-0.237500X0.250000X-0.237500X-0.250000X0*%
%TD*%
%TA.AperFunction,SMDPad,CuDef*%
%ADD15C,1.000000*%
%TD*%
%TA.AperFunction,SMDPad,CuDef*%
%ADD16RoundRect,0.237500X0.300000X0.237500X-0.300000X0.237500X-0.300000X-0.237500X0.300000X-0.237500X0*%
%TD*%
%TA.AperFunction,SMDPad,CuDef*%
%ADD17RoundRect,0.237500X-0.250000X-0.237500X0.250000X-0.237500X0.250000X0.237500X-0.250000X0.237500X0*%
%TD*%
%TA.AperFunction,SMDPad,CuDef*%
%ADD18R,0.600000X0.700000*%
%TD*%
%TA.AperFunction,SMDPad,CuDef*%
%ADD19RoundRect,0.237500X-0.237500X0.250000X-0.237500X-0.250000X0.237500X-0.250000X0.237500X0.250000X0*%
%TD*%
%TA.AperFunction,ComponentPad*%
%ADD20FreePoly0,270.000000*%
%TD*%
%TA.AperFunction,SMDPad,CuDef*%
%ADD21RoundRect,0.237500X0.250000X0.237500X-0.250000X0.237500X-0.250000X-0.237500X0.250000X-0.237500X0*%
%TD*%
%TA.AperFunction,SMDPad,CuDef*%
%ADD22RoundRect,0.250000X-0.475000X0.337500X-0.475000X-0.337500X0.475000X-0.337500X0.475000X0.337500X0*%
%TD*%
%TA.AperFunction,SMDPad,CuDef*%
%ADD23RoundRect,0.100000X-0.712500X-0.100000X0.712500X-0.100000X0.712500X0.100000X-0.712500X0.100000X0*%
%TD*%
%TA.AperFunction,SMDPad,CuDef*%
%ADD24RoundRect,0.237500X-0.300000X-0.237500X0.300000X-0.237500X0.300000X0.237500X-0.300000X0.237500X0*%
%TD*%
%TA.AperFunction,SMDPad,CuDef*%
%ADD25RoundRect,0.250001X-0.462499X-0.849999X0.462499X-0.849999X0.462499X0.849999X-0.462499X0.849999X0*%
%TD*%
%TA.AperFunction,SMDPad,CuDef*%
%ADD26R,0.300000X0.870000*%
%TD*%
%TA.AperFunction,ComponentPad*%
%ADD27O,1.500000X1.200000*%
%TD*%
%TA.AperFunction,SMDPad,CuDef*%
%ADD28RoundRect,0.237500X0.287500X0.237500X-0.287500X0.237500X-0.287500X-0.237500X0.287500X-0.237500X0*%
%TD*%
%TA.AperFunction,SMDPad,CuDef*%
%ADD29R,1.560000X0.650000*%
%TD*%
%TA.AperFunction,SMDPad,CuDef*%
%ADD30R,1.200000X1.200000*%
%TD*%
%TA.AperFunction,SMDPad,CuDef*%
%ADD31RoundRect,0.150000X0.150000X-0.587500X0.150000X0.587500X-0.150000X0.587500X-0.150000X-0.587500X0*%
%TD*%
%TA.AperFunction,ViaPad*%
%ADD32C,0.600000*%
%TD*%
%TA.AperFunction,Conductor*%
%ADD33C,0.250000*%
%TD*%
%TA.AperFunction,Conductor*%
%ADD34C,0.200000*%
%TD*%
G04 APERTURE END LIST*
D10*
%TO.P,H2,1,1*%
%TO.N,GND*%
X142750000Y-99500000D03*
%TD*%
D11*
%TO.P,J2,1,Pin_1*%
%TO.N,VBOOST_OUT*%
X141500000Y-106960000D03*
D12*
%TO.P,J2,2,Pin_2*%
%TO.N,VBUS_DRAIN*%
X141500000Y-112040000D03*
%TD*%
D13*
%TO.P,U4,1,+*%
%TO.N,CC1*%
X125300000Y-119800000D03*
%TO.P,U4,2,V-*%
%TO.N,GND*%
X126250000Y-119800000D03*
%TO.P,U4,3,-*%
%TO.N,V_CC_REF*%
X127200000Y-119800000D03*
%TO.P,U4,4*%
%TO.N,CC1_DET*%
X127200000Y-117100000D03*
%TO.P,U4,5,V+*%
%TO.N,VBUS_OPEN*%
X125300000Y-117100000D03*
%TD*%
D14*
%TO.P,R15,1*%
%TO.N,Net-(C4-Pad2)*%
X115900000Y-99512500D03*
%TO.P,R15,2*%
%TO.N,VBUS_DRAIN*%
X115900000Y-97687500D03*
%TD*%
D15*
%TO.P,REF\u002A\u002A,1*%
%TO.N,VBUS_SWITCH*%
X112300000Y-98200000D03*
%TD*%
D16*
%TO.P,C4,1*%
%TO.N,Net-(C4-Pad1)*%
X120343701Y-99500000D03*
%TO.P,C4,2*%
%TO.N,Net-(C4-Pad2)*%
X118618701Y-99500000D03*
%TD*%
D17*
%TO.P,R9,1*%
%TO.N,Net-(Q1-Pad1)*%
X106087500Y-113500000D03*
%TO.P,R9,2*%
%TO.N,Net-(D1-Pad1)*%
X107912500Y-113500000D03*
%TD*%
D10*
%TO.P,H1,1,1*%
%TO.N,GND*%
X95750000Y-119500000D03*
%TD*%
D18*
%TO.P,D2,1,K*%
%TO.N,Net-(D1-Pad1)*%
X109850000Y-112750000D03*
%TO.P,D2,2,A*%
%TO.N,CC1_DET*%
X111250000Y-112750000D03*
%TD*%
D19*
%TO.P,R13,1*%
%TO.N,GND*%
X115869531Y-109325000D03*
%TO.P,R13,2*%
%TO.N,CC2*%
X115869531Y-111150000D03*
%TD*%
D20*
%TO.P,U2,1,IN*%
%TO.N,VBUS_OPEN*%
X97195000Y-103095000D03*
%TO.P,U2,2,OUT*%
%TO.N,VBUS_SWITCH*%
X104195000Y-103095000D03*
%TD*%
D21*
%TO.P,R17,1*%
%TO.N,Net-(R16-Pad2)*%
X131979540Y-105651654D03*
%TO.P,R17,2*%
%TO.N,VBUS_DRAIN*%
X130154540Y-105651654D03*
%TD*%
D22*
%TO.P,C5,1*%
%TO.N,VBOOST_OUT*%
X130000000Y-101079091D03*
%TO.P,C5,2*%
%TO.N,VBUS_DRAIN*%
X130000000Y-103154091D03*
%TD*%
D17*
%TO.P,R3,1*%
%TO.N,VDAT_REF*%
X117087500Y-121200000D03*
%TO.P,R3,2*%
%TO.N,VBUS_OPEN*%
X118912500Y-121200000D03*
%TD*%
D14*
%TO.P,R18,1*%
%TO.N,CC1_DET*%
X123600000Y-119112500D03*
%TO.P,R18,2*%
%TO.N,VBUS_OPEN*%
X123600000Y-117287500D03*
%TD*%
%TO.P,R6,1*%
%TO.N,CHG_DET*%
X121250000Y-119112500D03*
%TO.P,R6,2*%
%TO.N,VBUS_OPEN*%
X121250000Y-117287500D03*
%TD*%
D23*
%TO.P,U3,1,COMP*%
%TO.N,Net-(C4-Pad1)*%
X122581201Y-101566591D03*
%TO.P,U3,2,FB*%
%TO.N,Net-(R16-Pad2)*%
X122581201Y-102216591D03*
%TO.P,U3,3,EN*%
%TO.N,VBUS_SWITCH*%
X122581201Y-102866591D03*
%TO.P,U3,4,GND*%
%TO.N,VBUS_DRAIN*%
X122581201Y-103516591D03*
%TO.P,U3,5,SW*%
%TO.N,Net-(D5-Pad2)*%
X126806201Y-103516591D03*
%TO.P,U3,6,IN*%
%TO.N,VBUS_SWITCH*%
X126806201Y-102866591D03*
%TO.P,U3,7,FSEL*%
X126806201Y-102216591D03*
%TO.P,U3,8,SS*%
%TO.N,Net-(C3-Pad1)*%
X126806201Y-101566591D03*
%TD*%
D14*
%TO.P,R5,1*%
%TO.N,D-*%
X113750000Y-117862500D03*
%TO.P,R5,2*%
%TO.N,GND*%
X113750000Y-116037500D03*
%TD*%
D24*
%TO.P,C6,1*%
%TO.N,VBUS_OPEN*%
X121237500Y-115400000D03*
%TO.P,C6,2*%
%TO.N,GND*%
X122962500Y-115400000D03*
%TD*%
D25*
%TO.P,L1,1,1*%
%TO.N,VBUS_SWITCH*%
X122668701Y-98616591D03*
%TO.P,L1,2,2*%
%TO.N,Net-(D5-Pad2)*%
X124993701Y-98616591D03*
%TD*%
D17*
%TO.P,R10,1*%
%TO.N,Net-(Q1-Pad1)*%
X106087500Y-111150000D03*
%TO.P,R10,2*%
%TO.N,GND*%
X107912500Y-111150000D03*
%TD*%
D18*
%TO.P,D3,1,K*%
%TO.N,Net-(D1-Pad1)*%
X109850000Y-111000000D03*
%TO.P,D3,2,A*%
%TO.N,CC2_DET*%
X111250000Y-111000000D03*
%TD*%
D26*
%TO.P,J1,A1,GND*%
%TO.N,GND*%
X109750000Y-119800000D03*
%TO.P,J1,A4,VBUS*%
%TO.N,VBUS_OPEN*%
X108250000Y-119800000D03*
%TO.P,J1,A5,CC1*%
%TO.N,CC1*%
X107750000Y-119800000D03*
%TO.P,J1,A6,D+*%
%TO.N,D+*%
X107250000Y-119800000D03*
%TO.P,J1,A7,D-*%
%TO.N,D-*%
X106750000Y-119800000D03*
%TO.P,J1,A8,SBU1*%
%TO.N,unconnected-(J1-PadA8)*%
X106250000Y-119800000D03*
%TO.P,J1,A9,VBUS*%
%TO.N,VBUS_OPEN*%
X105750000Y-119800000D03*
%TO.P,J1,A12,GND*%
%TO.N,GND*%
X104250000Y-119800000D03*
%TO.P,J1,B1,GND*%
X104250000Y-118000000D03*
%TO.P,J1,B4,VBUS*%
%TO.N,VBUS_OPEN*%
X105750000Y-118000000D03*
%TO.P,J1,B5,CC2*%
%TO.N,CC2*%
X106250000Y-118000000D03*
%TO.P,J1,B6,D+*%
%TO.N,D+*%
X106750000Y-118000000D03*
%TO.P,J1,B7,D-*%
%TO.N,D-*%
X107250000Y-118000000D03*
%TO.P,J1,B8,SBU2*%
%TO.N,unconnected-(J1-PadB8)*%
X107750000Y-118000000D03*
%TO.P,J1,B9,VBUS*%
%TO.N,VBUS_OPEN*%
X108250000Y-118000000D03*
%TO.P,J1,B12,GND*%
%TO.N,GND*%
X109750000Y-118000000D03*
D27*
%TO.P,J1,S1,SHIELD*%
X109400000Y-121050000D03*
X109400000Y-116750000D03*
X104600000Y-121050000D03*
X104600000Y-116750000D03*
%TD*%
D28*
%TO.P,D4,1,K*%
%TO.N,VBUS_DRAIN*%
X117656201Y-105512500D03*
%TO.P,D4,2,A*%
%TO.N,Net-(D4-Pad2)*%
X115906201Y-105512500D03*
%TD*%
D22*
%TO.P,C2,1*%
%TO.N,VBUS_SWITCH*%
X120098241Y-103330745D03*
%TO.P,C2,2*%
%TO.N,VBUS_DRAIN*%
X120098241Y-105405745D03*
%TD*%
D14*
%TO.P,R2,1*%
%TO.N,GND*%
X100250000Y-121412500D03*
%TO.P,R2,2*%
%TO.N,D+*%
X100250000Y-119587500D03*
%TD*%
D16*
%TO.P,C7,1*%
%TO.N,VBUS_OPEN*%
X120562500Y-109300000D03*
%TO.P,C7,2*%
%TO.N,GND*%
X118837500Y-109300000D03*
%TD*%
%TO.P,C3,1*%
%TO.N,Net-(C3-Pad1)*%
X124210741Y-105618245D03*
%TO.P,C3,2*%
%TO.N,VBUS_DRAIN*%
X122485741Y-105618245D03*
%TD*%
D19*
%TO.P,R16,1*%
%TO.N,VBOOST_OUT*%
X132250000Y-101187500D03*
%TO.P,R16,2*%
%TO.N,Net-(R16-Pad2)*%
X132250000Y-103012500D03*
%TD*%
D29*
%TO.P,U5,1,+*%
%TO.N,CC2*%
X118269531Y-111287500D03*
%TO.P,U5,2,V-*%
%TO.N,GND*%
X118269531Y-112237500D03*
%TO.P,U5,3,-*%
%TO.N,V_CC_REF*%
X118269531Y-113187500D03*
%TO.P,U5,4*%
%TO.N,CC2_DET*%
X120969531Y-113187500D03*
%TO.P,U5,5,V+*%
%TO.N,VBUS_OPEN*%
X120969531Y-111287500D03*
%TD*%
D14*
%TO.P,R19,1*%
%TO.N,CC2_DET*%
X123369531Y-112900000D03*
%TO.P,R19,2*%
%TO.N,VBUS_OPEN*%
X123369531Y-111075000D03*
%TD*%
D30*
%TO.P,D6,1,K*%
%TO.N,VBUS_OPEN*%
X97200000Y-111500000D03*
%TO.P,D6,2,A*%
%TO.N,VBUS_DRAIN*%
X100000000Y-111500000D03*
%TD*%
%TO.P,D5,1,K*%
%TO.N,VBOOST_OUT*%
X130481201Y-98616591D03*
%TO.P,D5,2,A*%
%TO.N,Net-(D5-Pad2)*%
X127681201Y-98616591D03*
%TD*%
D19*
%TO.P,R8,1*%
%TO.N,GND*%
X94600000Y-113187500D03*
%TO.P,R8,2*%
%TO.N,V_CC_REF*%
X94600000Y-115012500D03*
%TD*%
D17*
%TO.P,R7,1*%
%TO.N,V_CC_REF*%
X96587500Y-115000000D03*
%TO.P,R7,2*%
%TO.N,VBUS_OPEN*%
X98412500Y-115000000D03*
%TD*%
D29*
%TO.P,U1,1,+*%
%TO.N,D-*%
X116150000Y-117500000D03*
%TO.P,U1,2,V-*%
%TO.N,GND*%
X116150000Y-118450000D03*
%TO.P,U1,3,-*%
%TO.N,VDAT_REF*%
X116150000Y-119400000D03*
%TO.P,U1,4*%
%TO.N,CHG_DET*%
X118850000Y-119400000D03*
%TO.P,U1,5,V+*%
%TO.N,VBUS_OPEN*%
X118850000Y-117500000D03*
%TD*%
D16*
%TO.P,C1,1*%
%TO.N,VBUS_OPEN*%
X118362500Y-115700000D03*
%TO.P,C1,2*%
%TO.N,GND*%
X116637500Y-115700000D03*
%TD*%
D17*
%TO.P,R4,1*%
%TO.N,GND*%
X113337500Y-121200000D03*
%TO.P,R4,2*%
%TO.N,VDAT_REF*%
X115162500Y-121200000D03*
%TD*%
D19*
%TO.P,R12,1*%
%TO.N,VBUS_SWITCH*%
X115831201Y-101437500D03*
%TO.P,R12,2*%
%TO.N,Net-(D4-Pad2)*%
X115831201Y-103262500D03*
%TD*%
D15*
%TO.P,REF\u002A\u002A,1*%
%TO.N,VBUS_DRAIN*%
X117800000Y-97700000D03*
%TD*%
D18*
%TO.P,D1,1,K*%
%TO.N,Net-(D1-Pad1)*%
X109850000Y-114450000D03*
%TO.P,D1,2,A*%
%TO.N,CHG_DET*%
X111250000Y-114450000D03*
%TD*%
D31*
%TO.P,Q1,1,G*%
%TO.N,Net-(Q1-Pad1)*%
X102050000Y-113287500D03*
%TO.P,Q1,2,S*%
%TO.N,GND*%
X103950000Y-113287500D03*
%TO.P,Q1,3,D*%
%TO.N,VBUS_DRAIN*%
X103000000Y-111412500D03*
%TD*%
D10*
%TO.P,H3,1,1*%
%TO.N,GND*%
X142750000Y-119500000D03*
%TD*%
D19*
%TO.P,R14,1*%
%TO.N,VBUS_SWITCH*%
X117800000Y-101487500D03*
%TO.P,R14,2*%
%TO.N,VBUS_DRAIN*%
X117800000Y-103312500D03*
%TD*%
D14*
%TO.P,R1,1*%
%TO.N,D+*%
X100250000Y-117662500D03*
%TO.P,R1,2*%
%TO.N,VBUS_OPEN*%
X100250000Y-115837500D03*
%TD*%
D21*
%TO.P,R11,1*%
%TO.N,GND*%
X123187500Y-121200000D03*
%TO.P,R11,2*%
%TO.N,CC1*%
X121362500Y-121200000D03*
%TD*%
D32*
%TO.N,GND*%
X128000000Y-112000000D03*
X98500000Y-97500000D03*
X105500000Y-97500000D03*
X126000000Y-108000000D03*
X96500000Y-97500000D03*
X127000000Y-112000000D03*
X137500000Y-98500000D03*
X136500000Y-98500000D03*
X106500000Y-97500000D03*
X128000000Y-109000000D03*
X99500000Y-98500000D03*
X101500000Y-98500000D03*
X137500000Y-101500000D03*
X105500000Y-98500000D03*
X129000000Y-114000000D03*
X138500000Y-102500000D03*
X107500000Y-105500000D03*
X103500000Y-97500000D03*
X107500000Y-103500000D03*
X111500000Y-103500000D03*
X110500000Y-103500000D03*
X129000000Y-110000000D03*
X137500000Y-97500000D03*
X108500000Y-103500000D03*
X126000000Y-110000000D03*
X103500000Y-98500000D03*
X139500000Y-102500000D03*
X136500000Y-114000000D03*
X108500000Y-104500000D03*
X127000000Y-109000000D03*
X139500000Y-103500000D03*
X95000000Y-111600000D03*
X128000000Y-110000000D03*
X127000000Y-114000000D03*
X129000000Y-111000000D03*
X100500000Y-98500000D03*
X134500000Y-97500000D03*
X127000000Y-113000000D03*
X107500000Y-98500000D03*
X108500000Y-105500000D03*
X99500000Y-97500000D03*
X95000000Y-110600000D03*
X102500000Y-97500000D03*
X95500000Y-97500000D03*
X96500000Y-98500000D03*
X101500000Y-97500000D03*
X104500000Y-97500000D03*
X138500000Y-97500000D03*
X111500000Y-105500000D03*
X128000000Y-113000000D03*
X139500000Y-101500000D03*
X106500000Y-98500000D03*
X108500000Y-99500000D03*
X135500000Y-113000000D03*
X102500000Y-98500000D03*
X112500000Y-119000000D03*
X111500000Y-104500000D03*
X129000000Y-108000000D03*
X135500000Y-97500000D03*
X135500000Y-114000000D03*
X137500000Y-99500000D03*
X109500000Y-99500000D03*
X129000000Y-109000000D03*
X127000000Y-110000000D03*
X109500000Y-104500000D03*
X104500000Y-98500000D03*
X107500000Y-97500000D03*
X97500000Y-98500000D03*
X109500000Y-105500000D03*
X126000000Y-114000000D03*
X109500000Y-106500000D03*
X100500000Y-97500000D03*
X126000000Y-111000000D03*
X126000000Y-113000000D03*
X109500000Y-103500000D03*
X111500000Y-106500000D03*
X112500000Y-118000000D03*
X110500000Y-104500000D03*
X138500000Y-98500000D03*
X94000000Y-111600000D03*
X128000000Y-114000000D03*
X126000000Y-112000000D03*
X109500000Y-98500000D03*
X138500000Y-100500000D03*
X110500000Y-97500000D03*
X108500000Y-97500000D03*
X97500000Y-97500000D03*
X127000000Y-108000000D03*
X109500000Y-97500000D03*
X107500000Y-104500000D03*
X110500000Y-98500000D03*
X110500000Y-99500000D03*
X112500000Y-103500000D03*
X128000000Y-108000000D03*
X107500000Y-106500000D03*
X108500000Y-98500000D03*
X95500000Y-98500000D03*
X138500000Y-99500000D03*
X128000000Y-111000000D03*
X122500000Y-120000000D03*
X108500000Y-106500000D03*
X126000000Y-109000000D03*
X94000000Y-110600000D03*
X112500000Y-104500000D03*
X136500000Y-113000000D03*
X136500000Y-99500000D03*
X112500000Y-106500000D03*
X110500000Y-105500000D03*
X112500000Y-105500000D03*
X110500000Y-106500000D03*
X137500000Y-100500000D03*
X129000000Y-112000000D03*
X138500000Y-101500000D03*
X136500000Y-97500000D03*
X127000000Y-111000000D03*
X107500000Y-99500000D03*
X135500000Y-98500000D03*
X129000000Y-113000000D03*
X98500000Y-98500000D03*
%TO.N,Net-(C3-Pad1)*%
X126800000Y-100700000D03*
X125481201Y-105612500D03*
%TO.N,CHG_DET*%
X112600000Y-113550000D03*
X120100000Y-120200000D03*
%TO.N,CC1_DET*%
X112600000Y-112750000D03*
X126300000Y-115750000D03*
X124200000Y-120400000D03*
%TO.N,CC2_DET*%
X112550000Y-111000000D03*
X120950000Y-113987500D03*
%TO.N,D-*%
X106250000Y-121450000D03*
X108000000Y-116350000D03*
%TO.N,VBUS_OPEN*%
X111250000Y-116750000D03*
X106300000Y-116000000D03*
X115000000Y-116750000D03*
%TO.N,V_CC_REF*%
X126900000Y-118500000D03*
X96600000Y-113600000D03*
X116650000Y-112887500D03*
%TO.N,Net-(R16-Pad2)*%
X120650000Y-101850000D03*
X132050000Y-104250000D03*
%TO.N,VBUS_DRAIN*%
X129700000Y-106900000D03*
X126100000Y-106900000D03*
X124300000Y-106900000D03*
X130600000Y-106900000D03*
X125200000Y-106900000D03*
X131500000Y-106900000D03*
X118900000Y-106900000D03*
X119700000Y-98200000D03*
X123400000Y-106900000D03*
X127900000Y-106900000D03*
X117100000Y-106900000D03*
X119700000Y-97300000D03*
X121600000Y-106900000D03*
X116200000Y-106900000D03*
X118000000Y-106900000D03*
X120700000Y-106900000D03*
X120600000Y-97300000D03*
X115300000Y-106900000D03*
X122500000Y-106900000D03*
X119800000Y-106900000D03*
X120600000Y-98200000D03*
X128800000Y-106900000D03*
X127000000Y-106900000D03*
X132400000Y-106900000D03*
%TD*%
D33*
%TO.N,Net-(C3-Pad1)*%
X125500000Y-105600000D02*
X124210292Y-105600000D01*
X126800000Y-101560390D02*
X126806201Y-101566591D01*
X126800000Y-100700000D02*
X126800000Y-101560390D01*
%TO.N,Net-(C4-Pad1)*%
X122581201Y-101566591D02*
X121250475Y-101566591D01*
X120343701Y-99462500D02*
X120343701Y-100659817D01*
X120343701Y-100659817D02*
X121250475Y-101566591D01*
%TO.N,Net-(C4-Pad2)*%
X118618701Y-99600000D02*
X118606201Y-99612500D01*
X118606201Y-99612500D02*
X115900000Y-99612500D01*
%TO.N,CHG_DET*%
X112600000Y-113550000D02*
X112150000Y-113550000D01*
X118850000Y-119400000D02*
X120962500Y-119400000D01*
X119650000Y-120200000D02*
X118850000Y-119400000D01*
X120100000Y-120200000D02*
X119650000Y-120200000D01*
X120962500Y-119400000D02*
X121250000Y-119112500D01*
X112150000Y-113550000D02*
X111250000Y-114450000D01*
%TO.N,CC1_DET*%
X112600000Y-112750000D02*
X111250000Y-112750000D01*
X123600000Y-119112500D02*
X123600000Y-119800000D01*
X127200000Y-116650000D02*
X126300000Y-115750000D01*
X123600000Y-119800000D02*
X124200000Y-120400000D01*
X127200000Y-117100000D02*
X127200000Y-116650000D01*
%TO.N,CC2_DET*%
X120949531Y-113937031D02*
X120949531Y-113207500D01*
X120969531Y-113187500D02*
X123057031Y-113187500D01*
X123057031Y-113187500D02*
X123357031Y-112887500D01*
X112550000Y-111000000D02*
X111050000Y-111000000D01*
X123357031Y-112887500D02*
X123369531Y-112900000D01*
X120949531Y-113937031D02*
X121000000Y-113987500D01*
%TO.N,Net-(D4-Pad2)*%
X115831201Y-105437500D02*
X115906201Y-105512500D01*
X115831201Y-103262500D02*
X115831201Y-105437500D01*
%TO.N,CC1*%
X125600000Y-121100000D02*
X125600000Y-119780000D01*
X124375000Y-122325000D02*
X125600000Y-121100000D01*
X108580456Y-122325000D02*
X121325000Y-122325000D01*
X107750000Y-121494544D02*
X108580456Y-122325000D01*
X121362500Y-121200000D02*
X121362500Y-122287500D01*
X121325000Y-122325000D02*
X124375000Y-122325000D01*
X107750000Y-120000000D02*
X107750000Y-121494544D01*
X121362500Y-122287500D02*
X121325000Y-122325000D01*
D34*
%TO.N,D+*%
X107250000Y-120000000D02*
X107250000Y-121450000D01*
X106750000Y-118200000D02*
X106750000Y-118835000D01*
X103112500Y-122150000D02*
X100250000Y-119287500D01*
X100250000Y-117662500D02*
X100250000Y-119587500D01*
X106750000Y-118835000D02*
X107250000Y-119335000D01*
X106550000Y-122150000D02*
X103112500Y-122150000D01*
X107250000Y-121450000D02*
X106550000Y-122150000D01*
X107250000Y-119335000D02*
X107250000Y-120000000D01*
%TO.N,D-*%
X108000000Y-116350000D02*
X107250000Y-117100000D01*
X108650000Y-115700000D02*
X108000000Y-116350000D01*
X116150000Y-117500000D02*
X114112500Y-117500000D01*
X111587500Y-115700000D02*
X108650000Y-115700000D01*
X113750000Y-117862500D02*
X111587500Y-115700000D01*
X106750000Y-120950000D02*
X106250000Y-121450000D01*
X107250000Y-117100000D02*
X107250000Y-118000000D01*
X106750000Y-120000000D02*
X106750000Y-120950000D01*
D33*
%TO.N,CC2*%
X111725000Y-115275000D02*
X108240000Y-115275000D01*
X106250000Y-118000000D02*
X106250000Y-117265000D01*
X111725000Y-115275000D02*
X115869531Y-111130469D01*
X108240000Y-115275000D02*
X106250000Y-117265000D01*
X116007031Y-111287500D02*
X115869531Y-111150000D01*
X118269531Y-111287500D02*
X116007031Y-111287500D01*
%TO.N,Net-(Q1-Pad1)*%
X104987500Y-114600000D02*
X102000000Y-114600000D01*
X102000000Y-113337500D02*
X102050000Y-113287500D01*
X106087500Y-111150000D02*
X106087500Y-113500000D01*
X102000000Y-114600000D02*
X102000000Y-113337500D01*
X106087500Y-113500000D02*
X104987500Y-114600000D01*
%TO.N,VBUS_OPEN*%
X116650000Y-116750000D02*
X117312500Y-116750000D01*
X117312500Y-116750000D02*
X118362500Y-115700000D01*
X111250000Y-120658148D02*
X111250000Y-116750000D01*
X108250000Y-119800000D02*
X108250000Y-121358148D01*
X118830000Y-115732500D02*
X118862500Y-115700000D01*
X115500000Y-116750000D02*
X116650000Y-116750000D01*
X108250000Y-118950000D02*
X108250000Y-119800000D01*
X109983148Y-121925000D02*
X111250000Y-120658148D01*
X108816852Y-121925000D02*
X109983148Y-121925000D01*
X115000000Y-116750000D02*
X115500000Y-116750000D01*
X108250000Y-118950000D02*
X108250000Y-118000000D01*
X108250000Y-121358148D02*
X108816852Y-121925000D01*
%TO.N,V_CC_REF*%
X117969531Y-112887500D02*
X118269531Y-113187500D01*
X127200000Y-119800000D02*
X127200000Y-118800000D01*
X96587500Y-115000000D02*
X94612500Y-115000000D01*
X127200000Y-118800000D02*
X126900000Y-118500000D01*
X96600000Y-113600000D02*
X96600000Y-114987500D01*
X94612500Y-115000000D02*
X94600000Y-115012500D01*
X96600000Y-114987500D02*
X96587500Y-115000000D01*
X116650000Y-112887500D02*
X117969531Y-112887500D01*
%TO.N,Net-(R16-Pad2)*%
X122581201Y-102216591D02*
X121016591Y-102216591D01*
X132050000Y-103012500D02*
X132050000Y-104250000D01*
X121016591Y-102216591D02*
X120650000Y-101850000D01*
X132050000Y-104250000D02*
X132050000Y-105562500D01*
%TD*%
%TA.AperFunction,Conductor*%
%TO.N,VBUS_OPEN*%
G36*
X120750000Y-118576286D02*
G01*
X120694689Y-118631597D01*
X120638891Y-118741107D01*
X120624500Y-118831967D01*
X120624501Y-118976815D01*
X120624501Y-118998499D01*
X120604499Y-119066620D01*
X120550844Y-119113113D01*
X120498501Y-119124500D01*
X119896699Y-119124500D01*
X119828578Y-119104498D01*
X119782085Y-119050842D01*
X119777211Y-119035746D01*
X119774188Y-119028447D01*
X119771767Y-119016278D01*
X119764873Y-119005960D01*
X119764872Y-119005958D01*
X119745399Y-118976815D01*
X119738504Y-118966496D01*
X119728185Y-118959601D01*
X119699042Y-118940128D01*
X119699040Y-118940127D01*
X119688722Y-118933233D01*
X119644820Y-118924500D01*
X118055180Y-118924500D01*
X118011278Y-118933233D01*
X118000960Y-118940127D01*
X118000958Y-118940128D01*
X117971815Y-118959601D01*
X117961496Y-118966496D01*
X117954601Y-118976815D01*
X117935128Y-119005958D01*
X117935127Y-119005960D01*
X117928233Y-119016278D01*
X117919500Y-119060180D01*
X117919500Y-119739820D01*
X117928233Y-119783722D01*
X117935127Y-119794040D01*
X117935128Y-119794042D01*
X117954601Y-119823185D01*
X117961496Y-119833504D01*
X117971815Y-119840399D01*
X118000958Y-119859872D01*
X118000960Y-119859873D01*
X118011278Y-119866767D01*
X118055180Y-119875500D01*
X118883694Y-119875500D01*
X118951815Y-119895502D01*
X118972789Y-119912405D01*
X119427228Y-120366844D01*
X119442898Y-120385936D01*
X119451376Y-120398624D01*
X119461689Y-120405515D01*
X119474377Y-120413993D01*
X119472788Y-120416370D01*
X119472790Y-120416371D01*
X119474378Y-120413994D01*
X119500532Y-120431469D01*
X119500534Y-120431472D01*
X119500535Y-120431471D01*
X119505344Y-120434684D01*
X119542505Y-120459515D01*
X119554674Y-120461936D01*
X119554675Y-120461936D01*
X119622867Y-120475500D01*
X119645304Y-120479963D01*
X119708214Y-120512870D01*
X119717173Y-120522466D01*
X119762970Y-120576948D01*
X119882313Y-120656390D01*
X120019157Y-120699142D01*
X120028129Y-120699306D01*
X120028132Y-120699307D01*
X120093463Y-120700504D01*
X120162499Y-120701770D01*
X120171533Y-120699307D01*
X120292158Y-120666421D01*
X120292160Y-120666420D01*
X120300817Y-120664060D01*
X120422991Y-120589045D01*
X120436156Y-120574501D01*
X120483254Y-120522467D01*
X120519200Y-120482754D01*
X120521222Y-120478581D01*
X120574215Y-120434684D01*
X120644696Y-120426142D01*
X120708606Y-120457062D01*
X120745654Y-120517625D01*
X120750000Y-120550431D01*
X120750000Y-120791981D01*
X120743833Y-120830919D01*
X120743395Y-120832268D01*
X120738891Y-120841107D01*
X120724500Y-120931967D01*
X120724501Y-121468032D01*
X120738891Y-121558893D01*
X120743392Y-121567726D01*
X120743833Y-121569083D01*
X120750000Y-121608019D01*
X120750000Y-121787590D01*
X120747579Y-121812171D01*
X120739666Y-121851953D01*
X120720852Y-121897374D01*
X120705345Y-121920582D01*
X120670582Y-121955345D01*
X120647374Y-121970852D01*
X120601953Y-121989666D01*
X120562171Y-121997579D01*
X120537590Y-122000000D01*
X117712410Y-122000000D01*
X117687829Y-121997579D01*
X117648047Y-121989666D01*
X117602626Y-121970852D01*
X117579418Y-121955345D01*
X117544660Y-121920590D01*
X117544523Y-121920385D01*
X117523303Y-121852634D01*
X117542081Y-121784166D01*
X117568633Y-121755541D01*
X117568403Y-121755311D01*
X117655311Y-121668403D01*
X117711109Y-121558893D01*
X117725500Y-121468033D01*
X117725499Y-120931968D01*
X117711109Y-120841107D01*
X117655311Y-120731597D01*
X117568403Y-120644689D01*
X117559568Y-120640187D01*
X117551936Y-120634642D01*
X117508584Y-120578418D01*
X117500000Y-120532708D01*
X117500000Y-117750000D01*
X120750000Y-117750000D01*
X120750000Y-118576286D01*
G37*
%TD.AperFunction*%
%TD*%
%TA.AperFunction,Conductor*%
%TO.N,Net-(D1-Pad1)*%
G36*
X110412171Y-110102421D02*
G01*
X110451953Y-110110334D01*
X110497374Y-110129148D01*
X110520582Y-110144655D01*
X110555345Y-110179418D01*
X110570852Y-110202626D01*
X110589666Y-110248047D01*
X110597579Y-110287829D01*
X110600000Y-110312410D01*
X110600000Y-114873500D01*
X110579998Y-114941621D01*
X110526342Y-114988114D01*
X110474000Y-114999500D01*
X109026000Y-114999500D01*
X108957879Y-114979498D01*
X108911386Y-114925842D01*
X108900000Y-114873500D01*
X108900000Y-114600000D01*
X107312410Y-114600000D01*
X107287829Y-114597579D01*
X107248047Y-114589666D01*
X107202626Y-114570852D01*
X107179418Y-114555345D01*
X107144655Y-114520582D01*
X107129148Y-114497374D01*
X107110334Y-114451953D01*
X107102421Y-114412171D01*
X107100000Y-114387590D01*
X107100000Y-112412410D01*
X107102421Y-112387829D01*
X107110334Y-112348047D01*
X107129148Y-112302626D01*
X107144655Y-112279418D01*
X107179418Y-112244655D01*
X107202626Y-112229148D01*
X107248047Y-112210334D01*
X107287829Y-112202421D01*
X107312410Y-112200000D01*
X108950000Y-112200000D01*
X108950000Y-110312410D01*
X108952421Y-110287829D01*
X108960334Y-110248047D01*
X108979148Y-110202626D01*
X108994655Y-110179418D01*
X109029418Y-110144655D01*
X109052626Y-110129148D01*
X109098047Y-110110334D01*
X109137829Y-110102421D01*
X109162410Y-110100000D01*
X110387590Y-110100000D01*
X110412171Y-110102421D01*
G37*
%TD.AperFunction*%
%TD*%
%TA.AperFunction,Conductor*%
%TO.N,VBUS_OPEN*%
G36*
X121987793Y-111936837D02*
G01*
X121987793Y-111936838D01*
X121987766Y-111945084D01*
X121985568Y-112608645D01*
X121965341Y-112676699D01*
X121911531Y-112723014D01*
X121841224Y-112732885D01*
X121816028Y-112725928D01*
X121808253Y-112720733D01*
X121764351Y-112712000D01*
X120174711Y-112712000D01*
X120130809Y-112720733D01*
X120120491Y-112727627D01*
X120120489Y-112727628D01*
X120091346Y-112747101D01*
X120081027Y-112753996D01*
X120074132Y-112764315D01*
X120054659Y-112793458D01*
X120054658Y-112793460D01*
X120047764Y-112803778D01*
X120039031Y-112847680D01*
X120039031Y-113527320D01*
X120047764Y-113571222D01*
X120054658Y-113581540D01*
X120054659Y-113581542D01*
X120074132Y-113610685D01*
X120081027Y-113621004D01*
X120091346Y-113627899D01*
X120120489Y-113647372D01*
X120120491Y-113647373D01*
X120130809Y-113654267D01*
X120174711Y-113663000D01*
X120351510Y-113663000D01*
X120419631Y-113683002D01*
X120466124Y-113736658D01*
X120476228Y-113806932D01*
X120472004Y-113825839D01*
X120470261Y-113831539D01*
X120466447Y-113839663D01*
X120444391Y-113981323D01*
X120445555Y-113990225D01*
X120445555Y-113990228D01*
X120453686Y-114052401D01*
X120462980Y-114123479D01*
X120520720Y-114254703D01*
X120526497Y-114261576D01*
X120526498Y-114261577D01*
X120531227Y-114267203D01*
X120612970Y-114364448D01*
X120732313Y-114443890D01*
X120869157Y-114486642D01*
X120878129Y-114486806D01*
X120878132Y-114486807D01*
X120943463Y-114488004D01*
X121012499Y-114489270D01*
X121021533Y-114486807D01*
X121142158Y-114453921D01*
X121142160Y-114453920D01*
X121150817Y-114451560D01*
X121272991Y-114376545D01*
X121369200Y-114270254D01*
X121431710Y-114141233D01*
X121455496Y-113999854D01*
X121455647Y-113987500D01*
X121447473Y-113930424D01*
X121436596Y-113854468D01*
X121436595Y-113854465D01*
X121435323Y-113845582D01*
X121431609Y-113837414D01*
X121429088Y-113828792D01*
X121431456Y-113828100D01*
X121423320Y-113770869D01*
X121452917Y-113706335D01*
X121512704Y-113668047D01*
X121548009Y-113663000D01*
X121764351Y-113663000D01*
X121808253Y-113654267D01*
X121812521Y-113651415D01*
X121878101Y-113644365D01*
X121941588Y-113676144D01*
X121977815Y-113737202D01*
X121981728Y-113768780D01*
X121979211Y-114529148D01*
X121978645Y-114700000D01*
X121974033Y-116092836D01*
X122174378Y-116093152D01*
X122174380Y-116093152D01*
X122180568Y-116093162D01*
X122180571Y-116093162D01*
X124035015Y-116096082D01*
X125885702Y-116098997D01*
X125953791Y-116119106D01*
X125960989Y-116124592D01*
X125962970Y-116126948D01*
X126082313Y-116206390D01*
X126219157Y-116249142D01*
X126228129Y-116249306D01*
X126228132Y-116249307D01*
X126301176Y-116250646D01*
X126362248Y-116251765D01*
X126429990Y-116273012D01*
X126449033Y-116288649D01*
X126462939Y-116302555D01*
X126496965Y-116364867D01*
X126499844Y-116391641D01*
X126499974Y-118152614D01*
X126479996Y-118219423D01*
X126477377Y-118222388D01*
X126416447Y-118352163D01*
X126415066Y-118361034D01*
X126410034Y-118393351D01*
X126379789Y-118457583D01*
X126319619Y-118495267D01*
X126285534Y-118499965D01*
X126031416Y-118499966D01*
X124007936Y-118499974D01*
X123969001Y-118493807D01*
X123967732Y-118493395D01*
X123958893Y-118488891D01*
X123949100Y-118487340D01*
X123949097Y-118487339D01*
X123912814Y-118481593D01*
X123868033Y-118474500D01*
X123600055Y-118474500D01*
X123331968Y-118474501D01*
X123327074Y-118475276D01*
X123327075Y-118475276D01*
X123250905Y-118487339D01*
X123250903Y-118487339D01*
X123241107Y-118488891D01*
X123232269Y-118493394D01*
X123230986Y-118493811D01*
X123192052Y-118499977D01*
X122102831Y-118499981D01*
X121657968Y-118499983D01*
X121619032Y-118493816D01*
X121617726Y-118493392D01*
X121608893Y-118488891D01*
X121599103Y-118487340D01*
X121599102Y-118487340D01*
X121574228Y-118483401D01*
X121518033Y-118474500D01*
X121250055Y-118474500D01*
X120981968Y-118474501D01*
X120977074Y-118475276D01*
X120977075Y-118475276D01*
X120900905Y-118487339D01*
X120900903Y-118487339D01*
X120891107Y-118488891D01*
X120882270Y-118493394D01*
X120882269Y-118493394D01*
X120869331Y-118499986D01*
X117500000Y-118500000D01*
X117500000Y-114712410D01*
X117502421Y-114687829D01*
X117510334Y-114648047D01*
X117529148Y-114602626D01*
X117544655Y-114579418D01*
X117579418Y-114544655D01*
X117602626Y-114529148D01*
X117648047Y-114510334D01*
X117687829Y-114502421D01*
X117712410Y-114500000D01*
X119700000Y-114500000D01*
X119700000Y-108462410D01*
X119702421Y-108437829D01*
X119710334Y-108398047D01*
X119729148Y-108352626D01*
X119744655Y-108329418D01*
X119779418Y-108294655D01*
X119802626Y-108279148D01*
X119848047Y-108260334D01*
X119887829Y-108252421D01*
X119912410Y-108250000D01*
X122000000Y-108250000D01*
X121987793Y-111936837D01*
G37*
%TD.AperFunction*%
%TD*%
%TA.AperFunction,Conductor*%
%TO.N,GND*%
G36*
X142744392Y-96102669D02*
G01*
X142759477Y-96102625D01*
X142775510Y-96106871D01*
X142787019Y-96103752D01*
X142789454Y-96104459D01*
X142789523Y-96103073D01*
X143119982Y-96119539D01*
X143133175Y-96120895D01*
X143300277Y-96147036D01*
X143467374Y-96173175D01*
X143480361Y-96175914D01*
X143643784Y-96219487D01*
X143807212Y-96263060D01*
X143819829Y-96267148D01*
X144135695Y-96388191D01*
X144147820Y-96393586D01*
X144154505Y-96396993D01*
X144449200Y-96547184D01*
X144460691Y-96553825D01*
X144744233Y-96738268D01*
X144754963Y-96746081D01*
X145017541Y-96959337D01*
X145027389Y-96968236D01*
X145229167Y-97170864D01*
X145266071Y-97207924D01*
X145274926Y-97217806D01*
X145355740Y-97318171D01*
X145487074Y-97481277D01*
X145494842Y-97492039D01*
X145678096Y-97776361D01*
X145684688Y-97787880D01*
X145688043Y-97794530D01*
X145837019Y-98089904D01*
X145842363Y-98102053D01*
X145962074Y-98418417D01*
X145966111Y-98431061D01*
X146050368Y-98752497D01*
X146051879Y-98758263D01*
X146054563Y-98771256D01*
X146100642Y-99074157D01*
X146105438Y-99105681D01*
X146106740Y-99118889D01*
X146109118Y-99171028D01*
X146121823Y-99449552D01*
X146120789Y-99449599D01*
X146121261Y-99451588D01*
X146118005Y-99463404D01*
X146122184Y-99479457D01*
X146122084Y-99493552D01*
X146122500Y-99496804D01*
X146122500Y-119494485D01*
X146122027Y-119498214D01*
X146122153Y-119511820D01*
X146118008Y-119527886D01*
X146121270Y-119539622D01*
X146120611Y-119541944D01*
X146121930Y-119541998D01*
X146112726Y-119768447D01*
X146109331Y-119851960D01*
X146108194Y-119864480D01*
X146063666Y-120179456D01*
X146061288Y-120191800D01*
X145985600Y-120500751D01*
X145982004Y-120512796D01*
X145875905Y-120812678D01*
X145871126Y-120824306D01*
X145855975Y-120856500D01*
X145757883Y-121064930D01*
X145735671Y-121112126D01*
X145729759Y-121123216D01*
X145650566Y-121255423D01*
X145566299Y-121396102D01*
X145559309Y-121406551D01*
X145369472Y-121661790D01*
X145361476Y-121671490D01*
X145147149Y-121906544D01*
X145138226Y-121915399D01*
X144901546Y-122127924D01*
X144891785Y-122135846D01*
X144635104Y-122323730D01*
X144624602Y-122330640D01*
X144350481Y-122492009D01*
X144339344Y-122497838D01*
X144050496Y-122631095D01*
X144038832Y-122635785D01*
X143738149Y-122739594D01*
X143726076Y-122743098D01*
X143416553Y-122816426D01*
X143404192Y-122818710D01*
X143283104Y-122834887D01*
X143088889Y-122860833D01*
X143076376Y-122861872D01*
X142766490Y-122872101D01*
X142766455Y-122871037D01*
X142764398Y-122871502D01*
X142752232Y-122868021D01*
X142736138Y-122872043D01*
X142724166Y-122871840D01*
X142718804Y-122872500D01*
X95770728Y-122872500D01*
X95764462Y-122871743D01*
X95753391Y-122871981D01*
X95737281Y-122868032D01*
X95725620Y-122871426D01*
X95723272Y-122870791D01*
X95723234Y-122872121D01*
X95723233Y-122872121D01*
X95677082Y-122870789D01*
X95412300Y-122863146D01*
X95399679Y-122862144D01*
X95083482Y-122820989D01*
X95071026Y-122818727D01*
X94967429Y-122794469D01*
X94760557Y-122746030D01*
X94748384Y-122742526D01*
X94446779Y-122639023D01*
X94435020Y-122634314D01*
X94145328Y-122501049D01*
X94134130Y-122495198D01*
X93859267Y-122333512D01*
X93848699Y-122326557D01*
X93844841Y-122323730D01*
X93591476Y-122138101D01*
X93581647Y-122130110D01*
X93344656Y-121916788D01*
X93335679Y-121907851D01*
X93218885Y-121779254D01*
X93121298Y-121671806D01*
X93113266Y-121662015D01*
X93063114Y-121594199D01*
X92923669Y-121405639D01*
X92916661Y-121395092D01*
X92887631Y-121346240D01*
X92753763Y-121120971D01*
X92747850Y-121109774D01*
X92613300Y-120820686D01*
X92608539Y-120808948D01*
X92556327Y-120658983D01*
X92503698Y-120507818D01*
X92500140Y-120495666D01*
X92426055Y-120185498D01*
X92423741Y-120173070D01*
X92381178Y-119857060D01*
X92380120Y-119844437D01*
X92369762Y-119533592D01*
X92370792Y-119533558D01*
X92370342Y-119531565D01*
X92373799Y-119519486D01*
X92369778Y-119503392D01*
X92369982Y-119491356D01*
X92369331Y-119486055D01*
X92371069Y-114731967D01*
X93974500Y-114731967D01*
X93974501Y-115293032D01*
X93975276Y-115297925D01*
X93985514Y-115362568D01*
X93988891Y-115383893D01*
X94044689Y-115493403D01*
X94131597Y-115580311D01*
X94241107Y-115636109D01*
X94250897Y-115637660D01*
X94250898Y-115637660D01*
X94275772Y-115641599D01*
X94331967Y-115650500D01*
X94599945Y-115650500D01*
X94868032Y-115650499D01*
X94890677Y-115646913D01*
X94949095Y-115637661D01*
X94949097Y-115637661D01*
X94958893Y-115636109D01*
X94979715Y-115625500D01*
X95059571Y-115584811D01*
X95059570Y-115584811D01*
X95068403Y-115580311D01*
X95155311Y-115493403D01*
X95211109Y-115383893D01*
X95212660Y-115374101D01*
X95215725Y-115364668D01*
X95219049Y-115365748D01*
X95241845Y-115317647D01*
X95302109Y-115280113D01*
X95335891Y-115275500D01*
X95846882Y-115275500D01*
X95915003Y-115295502D01*
X95961496Y-115349158D01*
X95962935Y-115352854D01*
X95963891Y-115358893D01*
X95968392Y-115367726D01*
X95968392Y-115367727D01*
X95971637Y-115374095D01*
X96019689Y-115468403D01*
X96106597Y-115555311D01*
X96216107Y-115611109D01*
X96225897Y-115612660D01*
X96225898Y-115612660D01*
X96250772Y-115616599D01*
X96306967Y-115625500D01*
X96587443Y-115625500D01*
X96868032Y-115625499D01*
X96890677Y-115621913D01*
X96949095Y-115612661D01*
X96949097Y-115612661D01*
X96958893Y-115611109D01*
X96980867Y-115599913D01*
X97022595Y-115578651D01*
X97068403Y-115555311D01*
X97155311Y-115468403D01*
X97203363Y-115374095D01*
X97206233Y-115368463D01*
X97254981Y-115316848D01*
X97323896Y-115299782D01*
X97391098Y-115322683D01*
X97435250Y-115378280D01*
X97444500Y-115425666D01*
X97444500Y-116487590D01*
X97444576Y-116489132D01*
X97444576Y-116489141D01*
X97445033Y-116498428D01*
X97445249Y-116502832D01*
X97445399Y-116504357D01*
X97445400Y-116504368D01*
X97447451Y-116525188D01*
X97447670Y-116527413D01*
X97449909Y-116542507D01*
X97450214Y-116544038D01*
X97454850Y-116567345D01*
X97457822Y-116582289D01*
X97466671Y-116611460D01*
X97485485Y-116656881D01*
X97486939Y-116659601D01*
X97486944Y-116659612D01*
X97498394Y-116681034D01*
X97499854Y-116683765D01*
X97501572Y-116686336D01*
X97513081Y-116703560D01*
X97515361Y-116706973D01*
X97534700Y-116730537D01*
X97569463Y-116765300D01*
X97593027Y-116784639D01*
X97595587Y-116786349D01*
X97595593Y-116786354D01*
X97599721Y-116789112D01*
X97616235Y-116800146D01*
X97618961Y-116801603D01*
X97618966Y-116801606D01*
X97640388Y-116813056D01*
X97640399Y-116813061D01*
X97643119Y-116814515D01*
X97688540Y-116833329D01*
X97701176Y-116837162D01*
X97714746Y-116841279D01*
X97714754Y-116841281D01*
X97717711Y-116842178D01*
X97720740Y-116842780D01*
X97720746Y-116842782D01*
X97734766Y-116845570D01*
X97757493Y-116850091D01*
X97759033Y-116850319D01*
X97759042Y-116850321D01*
X97771028Y-116852099D01*
X97771038Y-116852100D01*
X97772587Y-116852330D01*
X97774142Y-116852483D01*
X97774157Y-116852485D01*
X97795632Y-116854600D01*
X97795643Y-116854601D01*
X97797168Y-116854751D01*
X97798692Y-116854826D01*
X97798707Y-116854827D01*
X97810859Y-116855424D01*
X97810868Y-116855424D01*
X97812410Y-116855500D01*
X99726204Y-116855500D01*
X99794325Y-116875502D01*
X99840818Y-116929158D01*
X99850922Y-116999432D01*
X99821428Y-117064012D01*
X99797360Y-117082846D01*
X99798457Y-117084356D01*
X99790429Y-117090189D01*
X99781597Y-117094689D01*
X99694689Y-117181597D01*
X99638891Y-117291107D01*
X99624500Y-117381967D01*
X99624501Y-117943032D01*
X99625276Y-117947923D01*
X99625276Y-117947925D01*
X99636971Y-118021767D01*
X99638891Y-118033893D01*
X99694689Y-118143403D01*
X99781597Y-118230311D01*
X99891107Y-118286109D01*
X99900899Y-118287660D01*
X99910332Y-118290725D01*
X99909252Y-118294049D01*
X99957353Y-118316845D01*
X99994887Y-118377109D01*
X99999500Y-118410891D01*
X99999500Y-118839109D01*
X99979498Y-118907230D01*
X99925842Y-118953723D01*
X99910073Y-118958476D01*
X99910333Y-118959276D01*
X99900904Y-118962339D01*
X99891107Y-118963891D01*
X99781597Y-119019689D01*
X99694689Y-119106597D01*
X99638891Y-119216107D01*
X99637340Y-119225897D01*
X99637340Y-119225898D01*
X99634132Y-119246151D01*
X99624500Y-119306967D01*
X99624501Y-119868032D01*
X99625276Y-119872925D01*
X99636829Y-119945871D01*
X99638891Y-119958893D01*
X99694689Y-120068403D01*
X99781597Y-120155311D01*
X99891107Y-120211109D01*
X99900897Y-120212660D01*
X99900898Y-120212660D01*
X99925772Y-120216599D01*
X99981967Y-120225500D01*
X100249945Y-120225500D01*
X100518032Y-120225499D01*
X100540677Y-120221913D01*
X100599095Y-120212661D01*
X100599097Y-120212661D01*
X100608893Y-120211109D01*
X100617730Y-120206606D01*
X100617734Y-120206605D01*
X100666747Y-120181632D01*
X100736524Y-120168528D01*
X100802308Y-120195229D01*
X100813044Y-120204804D01*
X102909142Y-122300902D01*
X102924812Y-122319995D01*
X102925005Y-122320284D01*
X102925007Y-122320286D01*
X102931899Y-122330601D01*
X102984964Y-122366057D01*
X103014759Y-122385966D01*
X103112500Y-122405408D01*
X103124671Y-122402987D01*
X103124672Y-122402987D01*
X103125004Y-122402921D01*
X103149585Y-122400500D01*
X106512915Y-122400500D01*
X106537496Y-122402921D01*
X106537828Y-122402987D01*
X106537829Y-122402987D01*
X106550000Y-122405408D01*
X106562171Y-122402987D01*
X106635570Y-122388387D01*
X106647741Y-122385966D01*
X106677536Y-122366057D01*
X106730601Y-122330601D01*
X106737493Y-122320286D01*
X106737495Y-122320284D01*
X106737688Y-122319995D01*
X106753358Y-122300902D01*
X107368850Y-121685410D01*
X107431162Y-121651384D01*
X107501977Y-121656449D01*
X107545554Y-121684455D01*
X107551376Y-121693168D01*
X107561689Y-121700059D01*
X107564064Y-121701646D01*
X107583156Y-121717316D01*
X108357684Y-122491844D01*
X108373354Y-122510936D01*
X108381832Y-122523624D01*
X108392145Y-122530515D01*
X108404833Y-122538993D01*
X108403244Y-122541370D01*
X108403246Y-122541371D01*
X108404834Y-122538994D01*
X108417012Y-122547131D01*
X108472961Y-122584515D01*
X108485130Y-122586936D01*
X108485131Y-122586936D01*
X108553323Y-122600500D01*
X108568284Y-122603476D01*
X108568285Y-122603476D01*
X108580456Y-122605897D01*
X108595417Y-122602921D01*
X108619999Y-122600500D01*
X121285457Y-122600500D01*
X121310039Y-122602921D01*
X121325000Y-122605897D01*
X121339961Y-122602921D01*
X121364543Y-122600500D01*
X124335457Y-122600500D01*
X124360039Y-122602921D01*
X124375000Y-122605897D01*
X124402132Y-122600500D01*
X124402133Y-122600500D01*
X124482495Y-122584515D01*
X124538444Y-122547131D01*
X124550622Y-122538994D01*
X124550623Y-122538993D01*
X124573624Y-122523624D01*
X124582102Y-122510936D01*
X124597772Y-122491844D01*
X125766844Y-121322772D01*
X125785936Y-121307102D01*
X125788311Y-121305515D01*
X125798624Y-121298624D01*
X125810443Y-121280937D01*
X125827491Y-121255423D01*
X125852622Y-121217812D01*
X125852622Y-121217811D01*
X125859516Y-121207494D01*
X125880897Y-121100000D01*
X125877921Y-121085038D01*
X125875500Y-121060458D01*
X125875500Y-119752867D01*
X125859515Y-119672505D01*
X125798624Y-119581376D01*
X125801838Y-119579229D01*
X125778379Y-119536268D01*
X125775500Y-119509485D01*
X125775500Y-119005180D01*
X125766767Y-118961278D01*
X125759873Y-118950960D01*
X125759872Y-118950958D01*
X125740399Y-118921815D01*
X125733504Y-118911496D01*
X125695691Y-118886230D01*
X125650165Y-118831756D01*
X125641316Y-118761313D01*
X125671957Y-118697269D01*
X125732358Y-118659957D01*
X125765694Y-118655467D01*
X126189357Y-118655465D01*
X126285535Y-118655465D01*
X126306766Y-118654009D01*
X126308885Y-118653717D01*
X126308894Y-118653716D01*
X126320163Y-118652163D01*
X126390377Y-118662678D01*
X126443760Y-118709483D01*
X126452694Y-118726236D01*
X126460800Y-118744658D01*
X126470720Y-118767203D01*
X126476497Y-118774076D01*
X126476498Y-118774077D01*
X126536933Y-118845973D01*
X126562970Y-118876948D01*
X126570447Y-118881925D01*
X126668319Y-118947075D01*
X126713942Y-119001473D01*
X126724500Y-119051962D01*
X126724500Y-120594820D01*
X126733233Y-120638722D01*
X126740127Y-120649040D01*
X126740128Y-120649042D01*
X126752263Y-120667203D01*
X126766496Y-120688504D01*
X126776815Y-120695399D01*
X126805958Y-120714872D01*
X126805960Y-120714873D01*
X126816278Y-120721767D01*
X126860180Y-120730500D01*
X127539820Y-120730500D01*
X127583722Y-120721767D01*
X127594040Y-120714873D01*
X127594042Y-120714872D01*
X127623185Y-120695399D01*
X127633504Y-120688504D01*
X127647737Y-120667203D01*
X127659872Y-120649042D01*
X127659873Y-120649040D01*
X127666767Y-120638722D01*
X127675500Y-120594820D01*
X127675500Y-119005180D01*
X127666767Y-118961278D01*
X127659873Y-118950960D01*
X127659872Y-118950958D01*
X127640399Y-118921815D01*
X127633504Y-118911496D01*
X127599148Y-118888540D01*
X127594042Y-118885128D01*
X127594040Y-118885127D01*
X127583722Y-118878233D01*
X127571552Y-118875812D01*
X127560084Y-118871062D01*
X127560938Y-118869000D01*
X127512529Y-118843679D01*
X127476439Y-118777588D01*
X127475741Y-118774077D01*
X127470872Y-118749599D01*
X127466225Y-118726236D01*
X127461936Y-118704674D01*
X127461935Y-118704672D01*
X127459515Y-118692505D01*
X127452623Y-118682190D01*
X127452622Y-118682188D01*
X127424715Y-118640423D01*
X127419937Y-118633272D01*
X127398721Y-118565520D01*
X127400447Y-118542364D01*
X127404689Y-118517149D01*
X127405496Y-118512354D01*
X127405572Y-118506136D01*
X127405588Y-118504859D01*
X127405588Y-118504854D01*
X127405647Y-118500000D01*
X127388048Y-118377109D01*
X127386596Y-118366968D01*
X127386595Y-118366965D01*
X127385323Y-118358082D01*
X127325984Y-118227572D01*
X127322026Y-118222978D01*
X127302584Y-118156223D01*
X127322736Y-118088146D01*
X127376494Y-118041771D01*
X127428584Y-118030500D01*
X127539820Y-118030500D01*
X127583722Y-118021767D01*
X127594040Y-118014873D01*
X127594042Y-118014872D01*
X127623185Y-117995399D01*
X127633504Y-117988504D01*
X127642193Y-117975500D01*
X127659872Y-117949042D01*
X127659873Y-117949040D01*
X127666767Y-117938722D01*
X127675500Y-117894820D01*
X127675500Y-116305180D01*
X127666767Y-116261278D01*
X127659873Y-116250960D01*
X127659872Y-116250958D01*
X127640399Y-116221815D01*
X127633504Y-116211496D01*
X127609108Y-116195195D01*
X127594042Y-116185128D01*
X127594040Y-116185127D01*
X127583722Y-116178233D01*
X127539820Y-116169500D01*
X127161306Y-116169500D01*
X127093185Y-116149498D01*
X127072211Y-116132595D01*
X126836524Y-115896908D01*
X126802498Y-115834596D01*
X126801365Y-115786908D01*
X126804689Y-115767149D01*
X126805496Y-115762354D01*
X126805647Y-115750000D01*
X126789337Y-115636109D01*
X126786596Y-115616968D01*
X126786595Y-115616965D01*
X126785323Y-115608082D01*
X126725984Y-115477572D01*
X126702762Y-115450622D01*
X126638260Y-115375763D01*
X126638257Y-115375760D01*
X126632400Y-115368963D01*
X126512095Y-115290985D01*
X126374739Y-115249907D01*
X126365763Y-115249852D01*
X126365762Y-115249852D01*
X126305555Y-115249484D01*
X126231376Y-115249031D01*
X126093529Y-115288428D01*
X125972280Y-115364930D01*
X125966338Y-115371658D01*
X125966337Y-115371659D01*
X125947727Y-115392731D01*
X125877377Y-115472388D01*
X125816447Y-115602163D01*
X125794391Y-115743823D01*
X125795555Y-115752725D01*
X125795555Y-115752727D01*
X125801846Y-115800830D01*
X125790846Y-115870969D01*
X125743672Y-115924027D01*
X125676713Y-115943168D01*
X122256266Y-115937781D01*
X122188177Y-115917672D01*
X122141769Y-115863943D01*
X122130466Y-115811364D01*
X122134144Y-114700515D01*
X122134286Y-114657493D01*
X122137227Y-113769295D01*
X122136048Y-113749657D01*
X122135457Y-113744881D01*
X122132934Y-113724527D01*
X122132135Y-113718079D01*
X122124654Y-113696193D01*
X122113648Y-113663999D01*
X122111548Y-113657856D01*
X122108236Y-113652273D01*
X122105509Y-113646366D01*
X122106909Y-113645720D01*
X122091283Y-113584508D01*
X122113701Y-113517143D01*
X122168980Y-113472593D01*
X122217203Y-113463000D01*
X122861435Y-113463000D01*
X122918637Y-113476733D01*
X123001800Y-113519106D01*
X123010638Y-113523609D01*
X123020428Y-113525160D01*
X123020429Y-113525160D01*
X123045303Y-113529099D01*
X123101498Y-113538000D01*
X123369476Y-113538000D01*
X123637563Y-113537999D01*
X123666684Y-113533387D01*
X123718626Y-113525161D01*
X123718628Y-113525161D01*
X123728424Y-113523609D01*
X123741115Y-113517143D01*
X123792126Y-113491151D01*
X123837934Y-113467811D01*
X123924842Y-113380903D01*
X123980640Y-113271393D01*
X123995031Y-113180533D01*
X123995030Y-112619468D01*
X123980640Y-112528607D01*
X123924842Y-112419097D01*
X123837934Y-112332189D01*
X123728424Y-112276391D01*
X123718634Y-112274840D01*
X123718633Y-112274840D01*
X123693759Y-112270901D01*
X123637564Y-112262000D01*
X123369586Y-112262000D01*
X123101499Y-112262001D01*
X123096605Y-112262776D01*
X123096606Y-112262776D01*
X123020436Y-112274839D01*
X123020434Y-112274839D01*
X123010638Y-112276391D01*
X123001801Y-112280894D01*
X123001800Y-112280894D01*
X122977615Y-112293217D01*
X122901128Y-112332189D01*
X122814220Y-112419097D01*
X122758422Y-112528607D01*
X122744031Y-112619467D01*
X122744032Y-112764315D01*
X122744032Y-112785999D01*
X122724030Y-112854120D01*
X122670375Y-112900613D01*
X122618032Y-112912000D01*
X122221768Y-112912000D01*
X122153647Y-112891998D01*
X122107154Y-112838342D01*
X122097050Y-112768068D01*
X122107329Y-112733277D01*
X122109499Y-112728567D01*
X122114397Y-112721001D01*
X122116965Y-112712362D01*
X122133342Y-112657262D01*
X122133343Y-112657255D01*
X122134624Y-112652947D01*
X122141067Y-112609160D01*
X122143023Y-112018582D01*
X122163250Y-111950529D01*
X122217060Y-111904214D01*
X122269022Y-111893000D01*
X123787590Y-111893000D01*
X123789132Y-111892924D01*
X123789141Y-111892924D01*
X123801293Y-111892327D01*
X123801308Y-111892326D01*
X123802832Y-111892251D01*
X123804357Y-111892101D01*
X123804368Y-111892100D01*
X123825843Y-111889985D01*
X123825858Y-111889983D01*
X123827413Y-111889830D01*
X123828962Y-111889600D01*
X123828972Y-111889599D01*
X123840958Y-111887821D01*
X123840967Y-111887819D01*
X123842507Y-111887591D01*
X123865234Y-111883070D01*
X123879254Y-111880282D01*
X123879260Y-111880280D01*
X123882289Y-111879678D01*
X123885246Y-111878781D01*
X123885254Y-111878779D01*
X123898824Y-111874662D01*
X123911460Y-111870829D01*
X123956881Y-111852015D01*
X123959601Y-111850561D01*
X123959612Y-111850556D01*
X123981034Y-111839106D01*
X123981039Y-111839103D01*
X123983765Y-111837646D01*
X123990118Y-111833401D01*
X124004407Y-111823854D01*
X124004413Y-111823849D01*
X124006973Y-111822139D01*
X124030537Y-111802800D01*
X124065300Y-111768037D01*
X124084639Y-111744473D01*
X124100146Y-111721265D01*
X124101992Y-111717811D01*
X124113056Y-111697112D01*
X124113061Y-111697101D01*
X124114515Y-111694381D01*
X124133329Y-111648960D01*
X124138807Y-111630903D01*
X124141279Y-111622754D01*
X124141281Y-111622746D01*
X124142178Y-111619789D01*
X124144211Y-111609571D01*
X124149786Y-111581538D01*
X124150091Y-111580007D01*
X124150321Y-111578458D01*
X124152099Y-111566472D01*
X124152100Y-111566462D01*
X124152330Y-111564913D01*
X124152519Y-111563000D01*
X124154600Y-111541868D01*
X124154601Y-111541857D01*
X124154751Y-111540332D01*
X124155500Y-111525090D01*
X124155500Y-108449910D01*
X124154751Y-108434668D01*
X124152330Y-108410087D01*
X124150091Y-108394993D01*
X124142178Y-108355211D01*
X124133329Y-108326040D01*
X124114515Y-108280619D01*
X124113061Y-108277899D01*
X124113056Y-108277888D01*
X124101606Y-108256466D01*
X124101603Y-108256461D01*
X124100146Y-108253735D01*
X124084639Y-108230527D01*
X124065300Y-108206963D01*
X124030537Y-108172200D01*
X124006973Y-108152861D01*
X124004413Y-108151151D01*
X124004407Y-108151146D01*
X123986336Y-108139072D01*
X123983765Y-108137354D01*
X123981039Y-108135897D01*
X123981034Y-108135894D01*
X123959612Y-108124444D01*
X123959601Y-108124439D01*
X123956881Y-108122985D01*
X123911460Y-108104171D01*
X123896652Y-108099679D01*
X123885254Y-108096221D01*
X123885246Y-108096219D01*
X123882289Y-108095322D01*
X123879260Y-108094720D01*
X123879254Y-108094718D01*
X123865070Y-108091897D01*
X123842507Y-108087409D01*
X123840967Y-108087181D01*
X123840958Y-108087179D01*
X123828972Y-108085401D01*
X123828962Y-108085400D01*
X123827413Y-108085170D01*
X123825858Y-108085017D01*
X123825843Y-108085015D01*
X123804368Y-108082900D01*
X123804357Y-108082899D01*
X123802832Y-108082749D01*
X123801308Y-108082674D01*
X123801293Y-108082673D01*
X123789141Y-108082076D01*
X123789132Y-108082076D01*
X123787590Y-108082000D01*
X121547730Y-108082000D01*
X121543370Y-108082117D01*
X121540253Y-108082200D01*
X121540237Y-108082201D01*
X121539402Y-108082223D01*
X121538560Y-108082268D01*
X121538539Y-108082269D01*
X121534510Y-108082485D01*
X121525921Y-108082946D01*
X121499063Y-108089043D01*
X121489287Y-108090463D01*
X121487043Y-108090316D01*
X121478943Y-108091928D01*
X121478941Y-108091928D01*
X121478194Y-108092077D01*
X121453602Y-108094500D01*
X119912410Y-108094500D01*
X119910868Y-108094576D01*
X119910859Y-108094576D01*
X119898707Y-108095173D01*
X119898692Y-108095174D01*
X119897168Y-108095249D01*
X119895643Y-108095399D01*
X119895632Y-108095400D01*
X119874157Y-108097515D01*
X119874142Y-108097517D01*
X119872587Y-108097670D01*
X119871038Y-108097900D01*
X119871028Y-108097901D01*
X119859042Y-108099679D01*
X119859033Y-108099681D01*
X119857493Y-108099909D01*
X119840576Y-108103274D01*
X119820746Y-108107218D01*
X119820740Y-108107220D01*
X119817711Y-108107822D01*
X119814754Y-108108719D01*
X119814746Y-108108721D01*
X119801176Y-108112838D01*
X119788540Y-108116671D01*
X119743119Y-108135485D01*
X119740399Y-108136939D01*
X119740388Y-108136944D01*
X119718966Y-108148394D01*
X119718961Y-108148397D01*
X119716235Y-108149854D01*
X119713664Y-108151572D01*
X119695593Y-108163646D01*
X119695587Y-108163651D01*
X119693027Y-108165361D01*
X119669463Y-108184700D01*
X119634700Y-108219463D01*
X119615361Y-108243027D01*
X119599854Y-108266235D01*
X119598397Y-108268961D01*
X119598394Y-108268966D01*
X119586944Y-108290388D01*
X119586939Y-108290399D01*
X119585485Y-108293119D01*
X119566671Y-108338540D01*
X119557822Y-108367711D01*
X119549909Y-108407493D01*
X119547670Y-108422587D01*
X119547517Y-108424142D01*
X119547515Y-108424157D01*
X119545400Y-108445632D01*
X119545249Y-108447168D01*
X119544500Y-108462410D01*
X119544500Y-114218500D01*
X119524498Y-114286621D01*
X119470842Y-114333114D01*
X119418500Y-114344500D01*
X117712410Y-114344500D01*
X117710868Y-114344576D01*
X117710859Y-114344576D01*
X117698707Y-114345173D01*
X117698692Y-114345174D01*
X117697168Y-114345249D01*
X117695643Y-114345399D01*
X117695632Y-114345400D01*
X117674157Y-114347515D01*
X117674142Y-114347517D01*
X117672587Y-114347670D01*
X117671038Y-114347900D01*
X117671028Y-114347901D01*
X117659042Y-114349679D01*
X117659033Y-114349681D01*
X117657493Y-114349909D01*
X117634766Y-114354430D01*
X117620746Y-114357218D01*
X117620740Y-114357220D01*
X117617711Y-114357822D01*
X117614754Y-114358719D01*
X117614746Y-114358721D01*
X117601176Y-114362838D01*
X117588540Y-114366671D01*
X117543119Y-114385485D01*
X117540399Y-114386939D01*
X117540388Y-114386944D01*
X117518966Y-114398394D01*
X117518961Y-114398397D01*
X117516235Y-114399854D01*
X117513664Y-114401572D01*
X117495593Y-114413646D01*
X117495587Y-114413651D01*
X117493027Y-114415361D01*
X117469463Y-114434700D01*
X117434700Y-114469463D01*
X117415361Y-114493027D01*
X117399854Y-114516235D01*
X117398397Y-114518961D01*
X117398394Y-114518966D01*
X117386944Y-114540388D01*
X117386939Y-114540399D01*
X117385485Y-114543119D01*
X117366671Y-114588540D01*
X117365774Y-114591498D01*
X117358741Y-114614683D01*
X117357822Y-114617711D01*
X117349909Y-114657493D01*
X117347670Y-114672587D01*
X117347517Y-114674142D01*
X117347515Y-114674157D01*
X117345483Y-114694789D01*
X117345249Y-114697168D01*
X117345174Y-114698692D01*
X117345173Y-114698707D01*
X117344889Y-114704498D01*
X117344500Y-114712410D01*
X117344500Y-116276194D01*
X117324498Y-116344315D01*
X117307595Y-116365289D01*
X117235289Y-116437595D01*
X117172977Y-116471621D01*
X117146194Y-116474500D01*
X115481091Y-116474500D01*
X115412970Y-116454498D01*
X115385638Y-116430748D01*
X115338260Y-116375763D01*
X115338257Y-116375760D01*
X115332400Y-116368963D01*
X115212095Y-116290985D01*
X115074739Y-116249907D01*
X115065763Y-116249852D01*
X115065762Y-116249852D01*
X115005555Y-116249484D01*
X114931376Y-116249031D01*
X114793529Y-116288428D01*
X114672280Y-116364930D01*
X114577377Y-116472388D01*
X114516447Y-116602163D01*
X114509944Y-116643932D01*
X114496460Y-116730537D01*
X114494391Y-116743823D01*
X114495555Y-116752725D01*
X114495555Y-116752728D01*
X114500073Y-116787275D01*
X114512980Y-116885979D01*
X114516597Y-116894199D01*
X114563847Y-117001582D01*
X114570720Y-117017203D01*
X114576498Y-117024077D01*
X114576499Y-117024078D01*
X114591921Y-117042425D01*
X114620442Y-117107441D01*
X114609286Y-117177556D01*
X114561993Y-117230508D01*
X114495470Y-117249500D01*
X114156480Y-117249500D01*
X114117639Y-117243347D01*
X114108893Y-117238891D01*
X114099105Y-117237341D01*
X114099103Y-117237340D01*
X114065055Y-117231948D01*
X114018033Y-117224500D01*
X113953957Y-117224500D01*
X113518452Y-117224501D01*
X113450331Y-117204499D01*
X113429357Y-117187596D01*
X111906889Y-115665128D01*
X111872863Y-115602816D01*
X111877928Y-115532001D01*
X111906887Y-115486939D01*
X111913311Y-115480515D01*
X111923624Y-115473624D01*
X111932104Y-115460934D01*
X111947771Y-115441845D01*
X114508293Y-112881323D01*
X116144391Y-112881323D01*
X116145555Y-112890225D01*
X116145555Y-112890228D01*
X116147745Y-112906973D01*
X116162980Y-113023479D01*
X116220720Y-113154703D01*
X116226497Y-113161576D01*
X116226498Y-113161577D01*
X116303916Y-113253677D01*
X116312970Y-113264448D01*
X116362443Y-113297380D01*
X116420471Y-113336007D01*
X116432313Y-113343890D01*
X116569157Y-113386642D01*
X116578129Y-113386806D01*
X116578132Y-113386807D01*
X116643463Y-113388004D01*
X116712499Y-113389270D01*
X116721533Y-113386807D01*
X116842158Y-113353921D01*
X116842160Y-113353920D01*
X116850817Y-113351560D01*
X116972991Y-113276545D01*
X117038252Y-113204445D01*
X117098796Y-113167364D01*
X117131668Y-113163000D01*
X117213031Y-113163000D01*
X117281152Y-113183002D01*
X117327645Y-113236658D01*
X117339031Y-113289000D01*
X117339031Y-113527320D01*
X117347764Y-113571222D01*
X117354658Y-113581540D01*
X117354659Y-113581542D01*
X117368815Y-113602728D01*
X117381027Y-113621004D01*
X117391346Y-113627899D01*
X117420489Y-113647372D01*
X117420491Y-113647373D01*
X117430809Y-113654267D01*
X117474711Y-113663000D01*
X119064351Y-113663000D01*
X119108253Y-113654267D01*
X119118571Y-113647373D01*
X119118573Y-113647372D01*
X119147716Y-113627899D01*
X119158035Y-113621004D01*
X119170247Y-113602728D01*
X119184403Y-113581542D01*
X119184404Y-113581540D01*
X119191298Y-113571222D01*
X119200031Y-113527320D01*
X119200031Y-112847680D01*
X119191298Y-112803778D01*
X119184404Y-112793460D01*
X119184403Y-112793458D01*
X119164930Y-112764315D01*
X119158035Y-112753996D01*
X119143132Y-112744038D01*
X119118573Y-112727628D01*
X119118571Y-112727627D01*
X119108253Y-112720733D01*
X119064351Y-112712000D01*
X118240047Y-112712000D01*
X118171926Y-112691998D01*
X118168275Y-112689056D01*
X118168155Y-112688876D01*
X118145154Y-112673507D01*
X118146743Y-112671130D01*
X118146741Y-112671129D01*
X118145153Y-112673506D01*
X118114384Y-112652947D01*
X118087344Y-112634879D01*
X118087343Y-112634878D01*
X118077026Y-112627985D01*
X118064857Y-112625564D01*
X118064856Y-112625564D01*
X117996664Y-112612000D01*
X117981703Y-112609024D01*
X117981702Y-112609024D01*
X117969531Y-112606603D01*
X117957360Y-112609024D01*
X117954570Y-112609579D01*
X117929988Y-112612000D01*
X117131091Y-112612000D01*
X117062970Y-112591998D01*
X117035638Y-112568248D01*
X116988260Y-112513263D01*
X116988257Y-112513260D01*
X116982400Y-112506463D01*
X116862095Y-112428485D01*
X116724739Y-112387407D01*
X116715763Y-112387352D01*
X116715762Y-112387352D01*
X116655555Y-112386984D01*
X116581376Y-112386531D01*
X116443529Y-112425928D01*
X116322280Y-112502430D01*
X116316338Y-112509158D01*
X116316337Y-112509159D01*
X116290514Y-112538398D01*
X116227377Y-112609888D01*
X116166447Y-112739663D01*
X116157210Y-112798990D01*
X116148197Y-112856881D01*
X116144391Y-112881323D01*
X114508293Y-112881323D01*
X115564711Y-111824905D01*
X115627023Y-111790879D01*
X115653806Y-111788000D01*
X116091091Y-111787999D01*
X116137563Y-111787999D01*
X116160208Y-111784413D01*
X116218626Y-111775161D01*
X116218628Y-111775161D01*
X116228424Y-111773609D01*
X116244043Y-111765651D01*
X116329102Y-111722311D01*
X116329101Y-111722311D01*
X116337934Y-111717811D01*
X116424842Y-111630903D01*
X116429344Y-111622068D01*
X116434524Y-111614938D01*
X116490747Y-111571585D01*
X116536459Y-111563000D01*
X117222832Y-111563000D01*
X117290953Y-111583002D01*
X117337446Y-111636658D01*
X117342320Y-111651754D01*
X117345343Y-111659051D01*
X117347764Y-111671222D01*
X117354658Y-111681540D01*
X117354659Y-111681542D01*
X117370541Y-111705311D01*
X117381027Y-111721004D01*
X117391346Y-111727899D01*
X117420489Y-111747372D01*
X117420491Y-111747373D01*
X117430809Y-111754267D01*
X117474711Y-111763000D01*
X119064351Y-111763000D01*
X119108253Y-111754267D01*
X119118571Y-111747373D01*
X119118573Y-111747372D01*
X119147716Y-111727899D01*
X119158035Y-111721004D01*
X119168521Y-111705311D01*
X119184403Y-111681542D01*
X119184404Y-111681540D01*
X119191298Y-111671222D01*
X119200031Y-111627320D01*
X119200031Y-110947680D01*
X119191298Y-110903778D01*
X119184404Y-110893460D01*
X119184403Y-110893458D01*
X119164930Y-110864315D01*
X119158035Y-110853996D01*
X119147716Y-110847101D01*
X119118573Y-110827628D01*
X119118571Y-110827627D01*
X119108253Y-110820733D01*
X119064351Y-110812000D01*
X117474711Y-110812000D01*
X117430809Y-110820733D01*
X117420491Y-110827627D01*
X117420489Y-110827628D01*
X117391346Y-110847101D01*
X117381027Y-110853996D01*
X117374132Y-110864315D01*
X117354659Y-110893458D01*
X117354658Y-110893460D01*
X117347764Y-110903778D01*
X117345343Y-110915948D01*
X117340593Y-110927416D01*
X117338136Y-110926398D01*
X117313508Y-110973486D01*
X117251815Y-111008621D01*
X117222832Y-111012000D01*
X116621030Y-111012000D01*
X116552909Y-110991998D01*
X116506416Y-110938342D01*
X116495030Y-110886000D01*
X116495030Y-110869468D01*
X116485929Y-110812000D01*
X116482192Y-110788405D01*
X116482192Y-110788403D01*
X116480640Y-110778607D01*
X116424842Y-110669097D01*
X116337934Y-110582189D01*
X116228424Y-110526391D01*
X116218634Y-110524840D01*
X116218633Y-110524840D01*
X116193759Y-110520901D01*
X116137564Y-110512000D01*
X115869586Y-110512000D01*
X115601499Y-110512001D01*
X115596605Y-110512776D01*
X115596606Y-110512776D01*
X115520436Y-110524839D01*
X115520434Y-110524839D01*
X115510638Y-110526391D01*
X115501801Y-110530894D01*
X115501800Y-110530894D01*
X115472406Y-110545871D01*
X115401128Y-110582189D01*
X115314220Y-110669097D01*
X115258422Y-110778607D01*
X115244031Y-110869467D01*
X115244032Y-111107495D01*
X115244032Y-111314162D01*
X115224030Y-111382283D01*
X115207127Y-111403257D01*
X113250436Y-113359948D01*
X113188124Y-113393974D01*
X113117309Y-113388909D01*
X113060473Y-113346362D01*
X113046640Y-113323003D01*
X113029702Y-113285748D01*
X113029700Y-113285745D01*
X113025984Y-113277572D01*
X112995132Y-113241767D01*
X112987244Y-113232612D01*
X112957930Y-113167949D01*
X112968229Y-113097704D01*
X112989280Y-113065810D01*
X113013178Y-113039407D01*
X113019200Y-113032754D01*
X113081710Y-112903733D01*
X113105496Y-112762354D01*
X113105647Y-112750000D01*
X113096487Y-112686040D01*
X113086596Y-112616968D01*
X113086595Y-112616965D01*
X113085323Y-112608082D01*
X113069185Y-112572587D01*
X113045172Y-112519774D01*
X113025984Y-112477572D01*
X112983209Y-112427929D01*
X112938260Y-112375763D01*
X112938257Y-112375760D01*
X112932400Y-112368963D01*
X112812095Y-112290985D01*
X112674739Y-112249907D01*
X112665763Y-112249852D01*
X112665762Y-112249852D01*
X112605555Y-112249484D01*
X112531376Y-112249031D01*
X112393529Y-112288428D01*
X112272280Y-112364930D01*
X112266338Y-112371658D01*
X112266337Y-112371659D01*
X112213127Y-112431908D01*
X112153042Y-112469726D01*
X112118686Y-112474500D01*
X111821672Y-112474500D01*
X111753551Y-112454498D01*
X111707058Y-112400842D01*
X111698093Y-112373081D01*
X111697374Y-112369463D01*
X111691767Y-112341278D01*
X111684873Y-112330960D01*
X111684872Y-112330958D01*
X111665399Y-112301815D01*
X111658504Y-112291496D01*
X111635898Y-112276391D01*
X111619042Y-112265128D01*
X111619040Y-112265127D01*
X111608722Y-112258233D01*
X111564820Y-112249500D01*
X110935180Y-112249500D01*
X110925136Y-112251498D01*
X110906082Y-112255288D01*
X110835368Y-112248960D01*
X110779300Y-112205406D01*
X110755500Y-112131709D01*
X110755500Y-111618291D01*
X110775502Y-111550170D01*
X110829158Y-111503677D01*
X110906082Y-111494712D01*
X110914890Y-111496464D01*
X110935180Y-111500500D01*
X111564820Y-111500500D01*
X111608722Y-111491767D01*
X111619040Y-111484873D01*
X111619042Y-111484872D01*
X111648185Y-111465399D01*
X111658504Y-111458504D01*
X111682277Y-111422925D01*
X111684872Y-111419042D01*
X111684873Y-111419040D01*
X111691767Y-111408722D01*
X111698093Y-111376918D01*
X111731000Y-111314010D01*
X111792695Y-111278877D01*
X111821672Y-111275500D01*
X112069006Y-111275500D01*
X112137127Y-111295502D01*
X112165455Y-111320423D01*
X112212970Y-111376948D01*
X112332313Y-111456390D01*
X112469157Y-111499142D01*
X112478129Y-111499306D01*
X112478132Y-111499307D01*
X112543228Y-111500500D01*
X112612499Y-111501770D01*
X112621533Y-111499307D01*
X112742158Y-111466421D01*
X112742160Y-111466420D01*
X112750817Y-111464060D01*
X112872991Y-111389045D01*
X112969200Y-111282754D01*
X113031710Y-111153733D01*
X113055496Y-111012354D01*
X113055647Y-111000000D01*
X113045252Y-110927416D01*
X113036596Y-110866968D01*
X113036595Y-110866965D01*
X113035323Y-110858082D01*
X113021477Y-110827628D01*
X112995172Y-110769774D01*
X112975984Y-110727572D01*
X112956102Y-110704498D01*
X112888260Y-110625763D01*
X112888257Y-110625760D01*
X112882400Y-110618963D01*
X112762095Y-110540985D01*
X112624739Y-110499907D01*
X112615763Y-110499852D01*
X112615762Y-110499852D01*
X112555555Y-110499484D01*
X112481376Y-110499031D01*
X112343529Y-110538428D01*
X112222280Y-110614930D01*
X112216338Y-110621658D01*
X112216337Y-110621659D01*
X112163127Y-110681908D01*
X112103042Y-110719726D01*
X112068686Y-110724500D01*
X111821672Y-110724500D01*
X111753551Y-110704498D01*
X111707058Y-110650842D01*
X111698093Y-110623081D01*
X111694188Y-110603449D01*
X111691767Y-110591278D01*
X111684873Y-110580960D01*
X111684872Y-110580958D01*
X111665399Y-110551815D01*
X111658504Y-110541496D01*
X111642634Y-110530892D01*
X111619042Y-110515128D01*
X111619040Y-110515127D01*
X111608722Y-110508233D01*
X111564820Y-110499500D01*
X110935180Y-110499500D01*
X110925136Y-110501498D01*
X110906082Y-110505288D01*
X110835368Y-110498960D01*
X110779300Y-110455406D01*
X110755500Y-110381709D01*
X110755500Y-110312410D01*
X110754751Y-110297168D01*
X110752330Y-110272587D01*
X110750091Y-110257493D01*
X110742178Y-110217711D01*
X110741041Y-110213960D01*
X110734226Y-110191498D01*
X110733329Y-110188540D01*
X110714515Y-110143119D01*
X110713061Y-110140399D01*
X110713056Y-110140388D01*
X110701606Y-110118966D01*
X110701603Y-110118961D01*
X110700146Y-110116235D01*
X110684639Y-110093027D01*
X110665300Y-110069463D01*
X110630537Y-110034700D01*
X110606973Y-110015361D01*
X110604413Y-110013651D01*
X110604407Y-110013646D01*
X110586336Y-110001572D01*
X110583765Y-109999854D01*
X110581039Y-109998397D01*
X110581034Y-109998394D01*
X110559612Y-109986944D01*
X110559601Y-109986939D01*
X110556881Y-109985485D01*
X110511460Y-109966671D01*
X110498824Y-109962838D01*
X110485254Y-109958721D01*
X110485246Y-109958719D01*
X110482289Y-109957822D01*
X110479260Y-109957220D01*
X110479254Y-109957218D01*
X110465234Y-109954430D01*
X110442507Y-109949909D01*
X110440967Y-109949681D01*
X110440958Y-109949679D01*
X110428972Y-109947901D01*
X110428962Y-109947900D01*
X110427413Y-109947670D01*
X110425858Y-109947517D01*
X110425843Y-109947515D01*
X110404368Y-109945400D01*
X110404357Y-109945399D01*
X110402832Y-109945249D01*
X110401308Y-109945174D01*
X110401293Y-109945173D01*
X110389141Y-109944576D01*
X110389132Y-109944576D01*
X110387590Y-109944500D01*
X109162410Y-109944500D01*
X109160868Y-109944576D01*
X109160859Y-109944576D01*
X109148707Y-109945173D01*
X109148692Y-109945174D01*
X109147168Y-109945249D01*
X109145643Y-109945399D01*
X109145632Y-109945400D01*
X109124157Y-109947515D01*
X109124142Y-109947517D01*
X109122587Y-109947670D01*
X109121038Y-109947900D01*
X109121028Y-109947901D01*
X109109042Y-109949679D01*
X109109033Y-109949681D01*
X109107493Y-109949909D01*
X109084766Y-109954430D01*
X109070746Y-109957218D01*
X109070740Y-109957220D01*
X109067711Y-109957822D01*
X109064754Y-109958719D01*
X109064746Y-109958721D01*
X109051176Y-109962838D01*
X109038540Y-109966671D01*
X108993119Y-109985485D01*
X108990399Y-109986939D01*
X108990388Y-109986944D01*
X108968966Y-109998394D01*
X108968961Y-109998397D01*
X108966235Y-109999854D01*
X108963664Y-110001572D01*
X108945593Y-110013646D01*
X108945587Y-110013651D01*
X108943027Y-110015361D01*
X108919463Y-110034700D01*
X108884700Y-110069463D01*
X108865361Y-110093027D01*
X108849854Y-110116235D01*
X108848397Y-110118961D01*
X108848394Y-110118966D01*
X108836944Y-110140388D01*
X108836939Y-110140399D01*
X108835485Y-110143119D01*
X108816671Y-110188540D01*
X108815774Y-110191498D01*
X108808960Y-110213960D01*
X108807822Y-110217711D01*
X108799909Y-110257493D01*
X108797670Y-110272587D01*
X108795249Y-110297168D01*
X108794500Y-110312410D01*
X108794500Y-111918500D01*
X108774498Y-111986621D01*
X108720842Y-112033114D01*
X108668500Y-112044500D01*
X107312410Y-112044500D01*
X107310868Y-112044576D01*
X107310859Y-112044576D01*
X107298707Y-112045173D01*
X107298692Y-112045174D01*
X107297168Y-112045249D01*
X107295643Y-112045399D01*
X107295632Y-112045400D01*
X107274157Y-112047515D01*
X107274142Y-112047517D01*
X107272587Y-112047670D01*
X107271038Y-112047900D01*
X107271028Y-112047901D01*
X107259042Y-112049679D01*
X107259033Y-112049681D01*
X107257493Y-112049909D01*
X107234766Y-112054430D01*
X107220746Y-112057218D01*
X107220740Y-112057220D01*
X107217711Y-112057822D01*
X107214754Y-112058719D01*
X107214746Y-112058721D01*
X107201176Y-112062838D01*
X107188540Y-112066671D01*
X107143119Y-112085485D01*
X107140399Y-112086939D01*
X107140388Y-112086944D01*
X107118966Y-112098394D01*
X107118961Y-112098397D01*
X107116235Y-112099854D01*
X107113664Y-112101572D01*
X107095593Y-112113646D01*
X107095587Y-112113651D01*
X107093027Y-112115361D01*
X107069463Y-112134700D01*
X107034700Y-112169463D01*
X107015361Y-112193027D01*
X106999854Y-112216235D01*
X106998397Y-112218961D01*
X106998394Y-112218966D01*
X106986944Y-112240388D01*
X106986939Y-112240399D01*
X106985485Y-112243119D01*
X106966671Y-112288540D01*
X106965776Y-112291491D01*
X106965774Y-112291496D01*
X106958792Y-112314515D01*
X106957822Y-112317711D01*
X106949909Y-112357493D01*
X106949681Y-112359033D01*
X106949679Y-112359042D01*
X106948208Y-112368963D01*
X106947670Y-112372587D01*
X106947517Y-112374142D01*
X106947515Y-112374157D01*
X106945957Y-112389980D01*
X106945249Y-112397168D01*
X106944500Y-112412410D01*
X106944500Y-113074334D01*
X106924498Y-113142455D01*
X106870842Y-113188948D01*
X106800568Y-113199052D01*
X106735988Y-113169558D01*
X106706233Y-113131537D01*
X106667490Y-113055500D01*
X106655311Y-113031597D01*
X106568403Y-112944689D01*
X106458893Y-112888891D01*
X106449759Y-112887444D01*
X106391458Y-112847580D01*
X106363821Y-112782183D01*
X106363000Y-112767820D01*
X106363000Y-111882180D01*
X106383002Y-111814059D01*
X106436658Y-111767566D01*
X106449370Y-111762617D01*
X106458893Y-111761109D01*
X106568403Y-111705311D01*
X106655311Y-111618403D01*
X106711109Y-111508893D01*
X106725500Y-111418033D01*
X106725499Y-110881968D01*
X106711109Y-110791107D01*
X106655311Y-110681597D01*
X106568403Y-110594689D01*
X106458893Y-110538891D01*
X106449103Y-110537340D01*
X106449102Y-110537340D01*
X106424228Y-110533401D01*
X106368033Y-110524500D01*
X106087557Y-110524500D01*
X105806968Y-110524501D01*
X105784323Y-110528087D01*
X105725905Y-110537339D01*
X105725903Y-110537339D01*
X105716107Y-110538891D01*
X105606597Y-110594689D01*
X105519689Y-110681597D01*
X105463891Y-110791107D01*
X105449500Y-110881967D01*
X105449501Y-111418032D01*
X105450276Y-111422923D01*
X105450276Y-111422925D01*
X105461923Y-111496464D01*
X105463891Y-111508893D01*
X105468392Y-111517726D01*
X105468394Y-111517731D01*
X105484923Y-111550170D01*
X105519689Y-111618403D01*
X105606597Y-111705311D01*
X105716107Y-111761109D01*
X105725241Y-111762556D01*
X105783542Y-111802420D01*
X105811179Y-111867817D01*
X105812000Y-111882180D01*
X105812000Y-112767820D01*
X105791998Y-112835941D01*
X105738342Y-112882434D01*
X105725630Y-112887383D01*
X105716107Y-112888891D01*
X105606597Y-112944689D01*
X105519689Y-113031597D01*
X105463891Y-113141107D01*
X105462340Y-113150897D01*
X105462340Y-113150898D01*
X105458431Y-113175580D01*
X105449500Y-113231967D01*
X105449501Y-113476733D01*
X105449501Y-113696193D01*
X105429499Y-113764314D01*
X105412596Y-113785288D01*
X104910289Y-114287595D01*
X104847977Y-114321621D01*
X104821194Y-114324500D01*
X102479753Y-114324500D01*
X102411632Y-114304498D01*
X102365139Y-114250842D01*
X102355035Y-114180568D01*
X102384529Y-114115988D01*
X102390580Y-114109483D01*
X102444021Y-114055949D01*
X102444025Y-114055944D01*
X102452241Y-114047713D01*
X102457901Y-114034912D01*
X102491084Y-113959852D01*
X102497506Y-113945327D01*
X102500500Y-113919646D01*
X102500500Y-112655354D01*
X102497382Y-112629154D01*
X102454515Y-112532646D01*
X102445143Y-112462273D01*
X102475305Y-112398002D01*
X102535427Y-112360241D01*
X102569667Y-112355500D01*
X103287590Y-112355500D01*
X103289132Y-112355424D01*
X103289141Y-112355424D01*
X103301293Y-112354827D01*
X103301308Y-112354826D01*
X103302832Y-112354751D01*
X103304357Y-112354601D01*
X103304368Y-112354600D01*
X103325843Y-112352485D01*
X103325858Y-112352483D01*
X103327413Y-112352330D01*
X103328962Y-112352100D01*
X103328972Y-112352099D01*
X103340958Y-112350321D01*
X103340967Y-112350319D01*
X103342507Y-112350091D01*
X103365234Y-112345570D01*
X103379254Y-112342782D01*
X103379260Y-112342780D01*
X103382289Y-112342178D01*
X103411460Y-112333329D01*
X103456881Y-112314515D01*
X103459601Y-112313061D01*
X103459612Y-112313056D01*
X103481034Y-112301606D01*
X103481039Y-112301603D01*
X103483765Y-112300146D01*
X103496711Y-112291496D01*
X103504407Y-112286354D01*
X103504413Y-112286349D01*
X103506973Y-112284639D01*
X103530537Y-112265300D01*
X103565300Y-112230537D01*
X103584639Y-112206973D01*
X103600146Y-112183765D01*
X103606515Y-112171849D01*
X103613056Y-112159612D01*
X103613061Y-112159601D01*
X103614515Y-112156881D01*
X103633329Y-112111460D01*
X103640766Y-112086944D01*
X103641279Y-112085254D01*
X103641281Y-112085246D01*
X103642178Y-112082289D01*
X103650091Y-112042507D01*
X103650321Y-112040958D01*
X103652099Y-112028972D01*
X103652100Y-112028962D01*
X103652330Y-112027413D01*
X103654751Y-112002832D01*
X103655500Y-111987590D01*
X103655500Y-110528831D01*
X103675502Y-110460710D01*
X103729158Y-110414217D01*
X103755764Y-110405487D01*
X113454677Y-108381972D01*
X117352169Y-107568827D01*
X117355481Y-107567743D01*
X117381510Y-107559223D01*
X117381518Y-107559220D01*
X117384814Y-107558141D01*
X117399618Y-107551405D01*
X117451122Y-107540091D01*
X132885391Y-107456662D01*
X132892190Y-107456181D01*
X132903551Y-107455378D01*
X132903566Y-107455376D01*
X132905608Y-107455232D01*
X132938085Y-107450793D01*
X132940097Y-107450383D01*
X132940102Y-107450382D01*
X132943558Y-107449677D01*
X132957948Y-107446744D01*
X132992394Y-107437348D01*
X133063375Y-107438718D01*
X133124222Y-107480550D01*
X138280182Y-113973240D01*
X138309323Y-114009936D01*
X138320941Y-114022987D01*
X138322179Y-114024230D01*
X138322187Y-114024238D01*
X138330883Y-114032965D01*
X138340896Y-114043015D01*
X138353912Y-114054686D01*
X138389957Y-114083522D01*
X138419483Y-114102128D01*
X138470093Y-114126565D01*
X138503029Y-114138118D01*
X138506476Y-114138907D01*
X138506481Y-114138908D01*
X138516846Y-114141279D01*
X138548021Y-114148411D01*
X138556096Y-114149786D01*
X138563505Y-114151048D01*
X138563516Y-114151050D01*
X138565251Y-114151345D01*
X138593351Y-114154518D01*
X138610799Y-114155500D01*
X143687590Y-114155500D01*
X143689132Y-114155424D01*
X143689141Y-114155424D01*
X143701293Y-114154827D01*
X143701308Y-114154826D01*
X143702832Y-114154751D01*
X143704357Y-114154601D01*
X143704368Y-114154600D01*
X143725843Y-114152485D01*
X143725858Y-114152483D01*
X143727413Y-114152330D01*
X143728962Y-114152100D01*
X143728972Y-114152099D01*
X143740958Y-114150321D01*
X143740967Y-114150319D01*
X143742507Y-114150091D01*
X143765234Y-114145570D01*
X143779254Y-114142782D01*
X143779260Y-114142780D01*
X143782289Y-114142178D01*
X143785246Y-114141281D01*
X143785254Y-114141279D01*
X143799536Y-114136946D01*
X143811460Y-114133329D01*
X143856881Y-114114515D01*
X143859601Y-114113061D01*
X143859612Y-114113056D01*
X143881034Y-114101606D01*
X143881039Y-114101603D01*
X143883765Y-114100146D01*
X143890118Y-114095901D01*
X143904407Y-114086354D01*
X143904413Y-114086349D01*
X143906973Y-114084639D01*
X143930537Y-114065300D01*
X143965300Y-114030537D01*
X143984639Y-114006973D01*
X144000146Y-113983765D01*
X144003790Y-113976948D01*
X144013056Y-113959612D01*
X144013061Y-113959601D01*
X144014515Y-113956881D01*
X144033329Y-113911460D01*
X144042178Y-113882289D01*
X144042976Y-113878280D01*
X144049786Y-113844038D01*
X144050091Y-113842507D01*
X144052330Y-113827413D01*
X144054751Y-113802832D01*
X144055500Y-113787590D01*
X144055500Y-110212410D01*
X144054751Y-110197168D01*
X144054193Y-110191498D01*
X144052485Y-110174157D01*
X144052483Y-110174142D01*
X144052330Y-110172587D01*
X144050091Y-110157493D01*
X144042178Y-110117711D01*
X144040951Y-110113664D01*
X144037162Y-110101176D01*
X144033329Y-110088540D01*
X144014515Y-110043119D01*
X144013061Y-110040399D01*
X144013056Y-110040388D01*
X144001606Y-110018966D01*
X144001603Y-110018961D01*
X144000146Y-110016235D01*
X143984639Y-109993027D01*
X143965300Y-109969463D01*
X143930537Y-109934700D01*
X143906973Y-109915361D01*
X143904413Y-109913651D01*
X143904407Y-109913646D01*
X143886336Y-109901572D01*
X143883765Y-109899854D01*
X143881039Y-109898397D01*
X143881034Y-109898394D01*
X143859612Y-109886944D01*
X143859601Y-109886939D01*
X143856881Y-109885485D01*
X143811460Y-109866671D01*
X143798824Y-109862838D01*
X143785254Y-109858721D01*
X143785246Y-109858719D01*
X143782289Y-109857822D01*
X143779260Y-109857220D01*
X143779254Y-109857218D01*
X143765234Y-109854430D01*
X143742507Y-109849909D01*
X143740967Y-109849681D01*
X143740958Y-109849679D01*
X143728972Y-109847901D01*
X143728962Y-109847900D01*
X143727413Y-109847670D01*
X143725858Y-109847517D01*
X143725843Y-109847515D01*
X143704368Y-109845400D01*
X143704357Y-109845399D01*
X143702832Y-109845249D01*
X143701308Y-109845174D01*
X143701293Y-109845173D01*
X143689141Y-109844576D01*
X143689132Y-109844576D01*
X143687590Y-109844500D01*
X138436248Y-109844500D01*
X138368127Y-109824498D01*
X138337428Y-109796671D01*
X137866628Y-109201508D01*
X133359706Y-103504079D01*
X133265099Y-103384482D01*
X133265098Y-103384480D01*
X133248446Y-103363429D01*
X133233309Y-103338170D01*
X133231718Y-103332449D01*
X133187058Y-103259562D01*
X133134755Y-103211552D01*
X133129140Y-103208791D01*
X133122340Y-103203071D01*
X133121956Y-103203527D01*
X133121414Y-103203071D01*
X133074273Y-103163384D01*
X132996014Y-103144551D01*
X132992892Y-103145474D01*
X132936118Y-103130372D01*
X132888265Y-103077925D01*
X132875500Y-103022667D01*
X132875499Y-102988409D01*
X132895499Y-102920287D01*
X132949153Y-102873793D01*
X132983567Y-102863688D01*
X133039549Y-102855639D01*
X133048472Y-102854356D01*
X133069622Y-102844697D01*
X133119976Y-102821702D01*
X133119979Y-102821700D01*
X133128173Y-102817958D01*
X133134981Y-102812059D01*
X133134984Y-102812057D01*
X133175017Y-102777368D01*
X133175018Y-102777366D01*
X133181829Y-102771465D01*
X133229199Y-102697755D01*
X133230444Y-102698555D01*
X133270547Y-102652270D01*
X133338667Y-102632265D01*
X133406788Y-102652264D01*
X133437675Y-102680327D01*
X137937673Y-108396542D01*
X138430623Y-109022722D01*
X138458918Y-109058665D01*
X138470545Y-109071831D01*
X138490523Y-109092029D01*
X138503552Y-109103793D01*
X138539659Y-109132868D01*
X138569277Y-109151641D01*
X138572475Y-109153194D01*
X138572476Y-109153194D01*
X138616871Y-109174746D01*
X138616878Y-109174749D01*
X138620069Y-109176298D01*
X138623421Y-109177480D01*
X138623424Y-109177481D01*
X138636662Y-109182148D01*
X138653139Y-109187957D01*
X138656612Y-109188755D01*
X138656614Y-109188756D01*
X138667589Y-109191279D01*
X138698321Y-109198344D01*
X138709873Y-109200321D01*
X138713846Y-109201001D01*
X138713851Y-109201002D01*
X138715629Y-109201306D01*
X138743859Y-109204509D01*
X138748140Y-109204751D01*
X138759599Y-109205399D01*
X138759608Y-109205399D01*
X138761390Y-109205500D01*
X143587590Y-109205500D01*
X143589132Y-109205424D01*
X143589141Y-109205424D01*
X143601293Y-109204827D01*
X143601308Y-109204826D01*
X143602832Y-109204751D01*
X143604357Y-109204601D01*
X143604368Y-109204600D01*
X143625843Y-109202485D01*
X143625858Y-109202483D01*
X143627413Y-109202330D01*
X143628962Y-109202100D01*
X143628972Y-109202099D01*
X143640958Y-109200321D01*
X143640967Y-109200319D01*
X143642507Y-109200091D01*
X143665234Y-109195570D01*
X143679254Y-109192782D01*
X143679260Y-109192780D01*
X143682289Y-109192178D01*
X143685246Y-109191281D01*
X143685254Y-109191279D01*
X143700113Y-109186771D01*
X143711460Y-109183329D01*
X143756881Y-109164515D01*
X143759601Y-109163061D01*
X143759612Y-109163056D01*
X143781034Y-109151606D01*
X143781039Y-109151603D01*
X143783765Y-109150146D01*
X143790118Y-109145901D01*
X143804407Y-109136354D01*
X143804413Y-109136349D01*
X143806973Y-109134639D01*
X143830537Y-109115300D01*
X143865300Y-109080537D01*
X143884639Y-109056973D01*
X143900146Y-109033765D01*
X143901606Y-109031034D01*
X143913056Y-109009612D01*
X143913061Y-109009601D01*
X143914515Y-109006881D01*
X143933329Y-108961460D01*
X143937162Y-108948824D01*
X143941279Y-108935254D01*
X143941281Y-108935246D01*
X143942178Y-108932289D01*
X143950091Y-108892507D01*
X143952330Y-108877413D01*
X143954571Y-108854665D01*
X143954600Y-108854368D01*
X143954601Y-108854357D01*
X143954751Y-108852832D01*
X143955500Y-108837590D01*
X143955500Y-104562410D01*
X143954751Y-104547168D01*
X143952330Y-104522587D01*
X143950091Y-104507493D01*
X143942178Y-104467711D01*
X143933329Y-104438540D01*
X143914515Y-104393119D01*
X143913061Y-104390399D01*
X143913056Y-104390388D01*
X143901606Y-104368966D01*
X143901603Y-104368961D01*
X143900146Y-104366235D01*
X143884639Y-104343027D01*
X143865300Y-104319463D01*
X143830537Y-104284700D01*
X143806973Y-104265361D01*
X143804413Y-104263651D01*
X143804407Y-104263646D01*
X143786336Y-104251572D01*
X143783765Y-104249854D01*
X143781039Y-104248397D01*
X143781034Y-104248394D01*
X143759612Y-104236944D01*
X143759601Y-104236939D01*
X143756881Y-104235485D01*
X143711460Y-104216671D01*
X143698824Y-104212838D01*
X143685254Y-104208721D01*
X143685246Y-104208719D01*
X143682289Y-104207822D01*
X143679260Y-104207220D01*
X143679254Y-104207218D01*
X143665234Y-104204430D01*
X143642507Y-104199909D01*
X143640967Y-104199681D01*
X143640958Y-104199679D01*
X143628972Y-104197901D01*
X143628962Y-104197900D01*
X143627413Y-104197670D01*
X143625858Y-104197517D01*
X143625843Y-104197515D01*
X143604368Y-104195400D01*
X143604357Y-104195399D01*
X143602832Y-104195249D01*
X143601308Y-104195174D01*
X143601293Y-104195173D01*
X143589141Y-104194576D01*
X143589132Y-104194576D01*
X143587590Y-104194500D01*
X138789201Y-104194500D01*
X138721080Y-104174498D01*
X138689072Y-104144987D01*
X133343515Y-97147167D01*
X133343507Y-97147157D01*
X133342426Y-97145742D01*
X133330798Y-97132207D01*
X133329557Y-97130919D01*
X133329548Y-97130910D01*
X133312017Y-97112728D01*
X133310760Y-97111424D01*
X133297660Y-97099311D01*
X133296254Y-97098153D01*
X133270092Y-97076611D01*
X133230219Y-97017869D01*
X133228673Y-96946008D01*
X133236885Y-96916074D01*
X133239268Y-96907389D01*
X133237704Y-96819783D01*
X133216489Y-96752031D01*
X133197387Y-96712106D01*
X133184638Y-96693026D01*
X133165300Y-96669463D01*
X133130537Y-96634700D01*
X133106973Y-96615361D01*
X133104413Y-96613651D01*
X133104407Y-96613646D01*
X133086336Y-96601572D01*
X133083765Y-96599854D01*
X133081039Y-96598397D01*
X133081034Y-96598394D01*
X133059612Y-96586944D01*
X133059601Y-96586939D01*
X133056881Y-96585485D01*
X133011460Y-96566671D01*
X132998824Y-96562838D01*
X132985254Y-96558721D01*
X132985246Y-96558719D01*
X132982289Y-96557822D01*
X132979260Y-96557220D01*
X132979254Y-96557218D01*
X132962194Y-96553825D01*
X132942507Y-96549909D01*
X132940967Y-96549681D01*
X132940958Y-96549679D01*
X132928972Y-96547901D01*
X132928962Y-96547900D01*
X132927413Y-96547670D01*
X132925858Y-96547517D01*
X132925843Y-96547515D01*
X132904368Y-96545400D01*
X132904357Y-96545399D01*
X132902832Y-96545249D01*
X132901308Y-96545174D01*
X132901293Y-96545173D01*
X132889141Y-96544576D01*
X132889132Y-96544576D01*
X132887590Y-96544500D01*
X114812410Y-96544500D01*
X114810868Y-96544576D01*
X114810859Y-96544576D01*
X114798707Y-96545173D01*
X114798692Y-96545174D01*
X114797168Y-96545249D01*
X114795643Y-96545399D01*
X114795632Y-96545400D01*
X114774157Y-96547515D01*
X114774142Y-96547517D01*
X114772587Y-96547670D01*
X114771038Y-96547900D01*
X114771028Y-96547901D01*
X114759042Y-96549679D01*
X114759033Y-96549681D01*
X114757493Y-96549909D01*
X114737806Y-96553825D01*
X114720746Y-96557218D01*
X114720740Y-96557220D01*
X114717711Y-96557822D01*
X114714754Y-96558719D01*
X114714746Y-96558721D01*
X114701176Y-96562838D01*
X114688540Y-96566671D01*
X114643119Y-96585485D01*
X114640399Y-96586939D01*
X114640388Y-96586944D01*
X114618966Y-96598394D01*
X114618961Y-96598397D01*
X114616235Y-96599854D01*
X114613664Y-96601572D01*
X114595593Y-96613646D01*
X114595587Y-96613651D01*
X114593027Y-96615361D01*
X114569463Y-96634700D01*
X114534700Y-96669463D01*
X114532742Y-96671849D01*
X114517332Y-96690626D01*
X114515361Y-96693027D01*
X114513651Y-96695587D01*
X114513646Y-96695593D01*
X114504099Y-96709882D01*
X114499854Y-96716235D01*
X114498397Y-96718961D01*
X114498394Y-96718966D01*
X114486944Y-96740388D01*
X114486939Y-96740399D01*
X114485485Y-96743119D01*
X114466671Y-96788540D01*
X114465774Y-96791498D01*
X114459802Y-96811185D01*
X114457822Y-96817711D01*
X114449909Y-96857493D01*
X114447670Y-96872587D01*
X114445249Y-96897168D01*
X114445174Y-96898692D01*
X114445173Y-96898707D01*
X114444576Y-96910859D01*
X114444500Y-96912410D01*
X114444500Y-100318500D01*
X114424498Y-100386621D01*
X114370842Y-100433114D01*
X114318500Y-100444500D01*
X113381500Y-100444500D01*
X113313379Y-100424498D01*
X113266886Y-100370842D01*
X113255500Y-100318500D01*
X113255500Y-97526000D01*
X113255021Y-97521537D01*
X113253872Y-97510859D01*
X113251947Y-97492947D01*
X113240561Y-97440605D01*
X113206133Y-97371827D01*
X113200973Y-97365872D01*
X113200971Y-97365869D01*
X113165543Y-97324983D01*
X113165541Y-97324982D01*
X113159640Y-97318171D01*
X113085930Y-97270801D01*
X113077281Y-97268261D01*
X113077280Y-97268261D01*
X113047234Y-97259439D01*
X113017809Y-97250799D01*
X113013350Y-97250158D01*
X113013346Y-97250157D01*
X112995904Y-97247649D01*
X112974000Y-97244500D01*
X111626000Y-97244500D01*
X111622654Y-97244860D01*
X111622648Y-97244860D01*
X111610859Y-97246128D01*
X111592947Y-97248053D01*
X111540605Y-97259439D01*
X111471827Y-97293867D01*
X111465872Y-97299027D01*
X111465869Y-97299029D01*
X111435917Y-97324983D01*
X111418171Y-97340360D01*
X111370801Y-97414070D01*
X111350799Y-97482191D01*
X111344500Y-97526000D01*
X111344500Y-100318500D01*
X111324498Y-100386621D01*
X111270842Y-100433114D01*
X111218500Y-100444500D01*
X106581500Y-100444500D01*
X106513379Y-100424498D01*
X106466886Y-100370842D01*
X106455500Y-100318500D01*
X106455500Y-99112410D01*
X106455401Y-99110388D01*
X106454827Y-99098707D01*
X106454826Y-99098692D01*
X106454751Y-99097168D01*
X106454193Y-99091498D01*
X106452485Y-99074157D01*
X106452483Y-99074142D01*
X106452330Y-99072587D01*
X106450091Y-99057493D01*
X106442178Y-99017711D01*
X106440951Y-99013664D01*
X106437162Y-99001176D01*
X106433329Y-98988540D01*
X106414515Y-98943119D01*
X106413061Y-98940399D01*
X106413056Y-98940388D01*
X106401606Y-98918966D01*
X106401603Y-98918961D01*
X106400146Y-98916235D01*
X106384639Y-98893027D01*
X106365300Y-98869463D01*
X106330537Y-98834700D01*
X106306973Y-98815361D01*
X106304413Y-98813651D01*
X106304407Y-98813646D01*
X106286336Y-98801572D01*
X106283765Y-98799854D01*
X106281039Y-98798397D01*
X106281034Y-98798394D01*
X106259612Y-98786944D01*
X106259601Y-98786939D01*
X106256881Y-98785485D01*
X106211460Y-98766671D01*
X106198824Y-98762838D01*
X106185254Y-98758721D01*
X106185246Y-98758719D01*
X106182289Y-98757822D01*
X106179260Y-98757220D01*
X106179254Y-98757218D01*
X106165234Y-98754430D01*
X106142507Y-98749909D01*
X106140967Y-98749681D01*
X106140958Y-98749679D01*
X106128972Y-98747901D01*
X106128962Y-98747900D01*
X106127413Y-98747670D01*
X106125858Y-98747517D01*
X106125843Y-98747515D01*
X106104368Y-98745400D01*
X106104357Y-98745399D01*
X106102832Y-98745249D01*
X106101308Y-98745174D01*
X106101293Y-98745173D01*
X106089141Y-98744576D01*
X106089132Y-98744576D01*
X106087590Y-98744500D01*
X105840744Y-98744500D01*
X105798470Y-98750357D01*
X105732541Y-98768982D01*
X105693451Y-98786110D01*
X105663325Y-98804608D01*
X105653807Y-98810452D01*
X105621023Y-98824639D01*
X105569464Y-98838696D01*
X105560492Y-98841142D01*
X105525045Y-98845557D01*
X105491274Y-98844938D01*
X105462312Y-98844408D01*
X105427051Y-98838697D01*
X105367162Y-98819986D01*
X105334920Y-98804608D01*
X105327778Y-98799854D01*
X105315482Y-98791669D01*
X105311298Y-98789697D01*
X105311293Y-98789694D01*
X105291180Y-98780214D01*
X105274327Y-98772270D01*
X105269902Y-98770932D01*
X105269897Y-98770930D01*
X105239417Y-98761713D01*
X105204508Y-98751157D01*
X105199099Y-98750357D01*
X105164083Y-98745178D01*
X105164081Y-98745178D01*
X105159498Y-98744500D01*
X104840744Y-98744500D01*
X104798470Y-98750357D01*
X104732541Y-98768982D01*
X104693451Y-98786110D01*
X104663325Y-98804608D01*
X104653807Y-98810452D01*
X104621023Y-98824639D01*
X104569464Y-98838696D01*
X104560492Y-98841142D01*
X104525045Y-98845557D01*
X104491274Y-98844938D01*
X104462312Y-98844408D01*
X104427051Y-98838697D01*
X104367162Y-98819986D01*
X104334920Y-98804608D01*
X104327778Y-98799854D01*
X104315482Y-98791669D01*
X104311298Y-98789697D01*
X104311293Y-98789694D01*
X104291180Y-98780214D01*
X104274327Y-98772270D01*
X104269902Y-98770932D01*
X104269897Y-98770930D01*
X104239417Y-98761713D01*
X104204508Y-98751157D01*
X104199099Y-98750357D01*
X104164083Y-98745178D01*
X104164081Y-98745178D01*
X104159498Y-98744500D01*
X103840744Y-98744500D01*
X103798470Y-98750357D01*
X103732541Y-98768982D01*
X103693451Y-98786110D01*
X103663325Y-98804608D01*
X103653807Y-98810452D01*
X103621023Y-98824639D01*
X103569464Y-98838696D01*
X103560492Y-98841142D01*
X103525045Y-98845557D01*
X103491274Y-98844938D01*
X103462312Y-98844408D01*
X103427051Y-98838697D01*
X103367162Y-98819986D01*
X103334920Y-98804608D01*
X103327778Y-98799854D01*
X103315482Y-98791669D01*
X103311298Y-98789697D01*
X103311293Y-98789694D01*
X103291180Y-98780214D01*
X103274327Y-98772270D01*
X103269902Y-98770932D01*
X103269897Y-98770930D01*
X103239417Y-98761713D01*
X103204508Y-98751157D01*
X103199099Y-98750357D01*
X103164083Y-98745178D01*
X103164081Y-98745178D01*
X103159498Y-98744500D01*
X102840744Y-98744500D01*
X102798470Y-98750357D01*
X102732541Y-98768982D01*
X102693451Y-98786110D01*
X102663325Y-98804608D01*
X102653807Y-98810452D01*
X102621023Y-98824639D01*
X102569464Y-98838696D01*
X102560492Y-98841142D01*
X102525045Y-98845557D01*
X102491274Y-98844938D01*
X102462312Y-98844408D01*
X102427051Y-98838697D01*
X102367162Y-98819986D01*
X102334920Y-98804608D01*
X102327778Y-98799854D01*
X102315482Y-98791669D01*
X102311298Y-98789697D01*
X102311293Y-98789694D01*
X102291180Y-98780214D01*
X102274327Y-98772270D01*
X102269902Y-98770932D01*
X102269897Y-98770930D01*
X102239417Y-98761713D01*
X102204508Y-98751157D01*
X102199099Y-98750357D01*
X102164083Y-98745178D01*
X102164081Y-98745178D01*
X102159498Y-98744500D01*
X102012410Y-98744500D01*
X102010868Y-98744576D01*
X102010859Y-98744576D01*
X101998707Y-98745173D01*
X101998692Y-98745174D01*
X101997168Y-98745249D01*
X101995643Y-98745399D01*
X101995632Y-98745400D01*
X101974157Y-98747515D01*
X101974142Y-98747517D01*
X101972587Y-98747670D01*
X101971038Y-98747900D01*
X101971028Y-98747901D01*
X101959042Y-98749679D01*
X101959033Y-98749681D01*
X101957493Y-98749909D01*
X101934766Y-98754430D01*
X101920746Y-98757218D01*
X101920740Y-98757220D01*
X101917711Y-98757822D01*
X101914754Y-98758719D01*
X101914746Y-98758721D01*
X101901176Y-98762838D01*
X101888540Y-98766671D01*
X101843119Y-98785485D01*
X101840399Y-98786939D01*
X101840388Y-98786944D01*
X101818966Y-98798394D01*
X101818961Y-98798397D01*
X101816235Y-98799854D01*
X101813664Y-98801572D01*
X101795593Y-98813646D01*
X101795587Y-98813651D01*
X101793027Y-98815361D01*
X101769463Y-98834700D01*
X101734700Y-98869463D01*
X101715361Y-98893027D01*
X101699854Y-98916235D01*
X101698397Y-98918961D01*
X101698394Y-98918966D01*
X101686944Y-98940388D01*
X101686939Y-98940399D01*
X101685485Y-98943119D01*
X101666671Y-98988540D01*
X101662838Y-99001176D01*
X101659050Y-99013664D01*
X101657822Y-99017711D01*
X101649909Y-99057493D01*
X101647670Y-99072587D01*
X101647517Y-99074142D01*
X101647515Y-99074157D01*
X101645807Y-99091498D01*
X101645249Y-99097168D01*
X101645174Y-99098692D01*
X101645173Y-99098707D01*
X101644599Y-99110388D01*
X101644500Y-99112410D01*
X101644500Y-106987590D01*
X101645249Y-107002832D01*
X101647670Y-107027413D01*
X101649909Y-107042507D01*
X101657822Y-107082289D01*
X101666671Y-107111460D01*
X101685485Y-107156881D01*
X101686939Y-107159601D01*
X101686944Y-107159612D01*
X101698394Y-107181034D01*
X101699854Y-107183765D01*
X101715361Y-107206973D01*
X101734700Y-107230537D01*
X101769463Y-107265300D01*
X101793027Y-107284639D01*
X101795587Y-107286349D01*
X101795593Y-107286354D01*
X101809882Y-107295901D01*
X101816235Y-107300146D01*
X101818961Y-107301603D01*
X101818966Y-107301606D01*
X101840388Y-107313056D01*
X101840399Y-107313061D01*
X101843119Y-107314515D01*
X101888540Y-107333329D01*
X101901176Y-107337162D01*
X101914746Y-107341279D01*
X101914754Y-107341281D01*
X101917711Y-107342178D01*
X101920740Y-107342780D01*
X101920746Y-107342782D01*
X101934766Y-107345570D01*
X101957493Y-107350091D01*
X101959033Y-107350319D01*
X101959042Y-107350321D01*
X101971028Y-107352099D01*
X101971038Y-107352100D01*
X101972587Y-107352330D01*
X101974142Y-107352483D01*
X101974157Y-107352485D01*
X101995632Y-107354600D01*
X101995643Y-107354601D01*
X101997168Y-107354751D01*
X101998692Y-107354826D01*
X101998707Y-107354827D01*
X102010859Y-107355424D01*
X102010868Y-107355424D01*
X102012410Y-107355500D01*
X106087590Y-107355500D01*
X106089132Y-107355424D01*
X106089141Y-107355424D01*
X106101293Y-107354827D01*
X106101308Y-107354826D01*
X106102832Y-107354751D01*
X106104357Y-107354601D01*
X106104368Y-107354600D01*
X106125843Y-107352485D01*
X106125858Y-107352483D01*
X106127413Y-107352330D01*
X106128962Y-107352100D01*
X106128972Y-107352099D01*
X106140958Y-107350321D01*
X106140967Y-107350319D01*
X106142507Y-107350091D01*
X106165234Y-107345570D01*
X106179254Y-107342782D01*
X106179260Y-107342780D01*
X106182289Y-107342178D01*
X106185246Y-107341281D01*
X106185254Y-107341279D01*
X106198824Y-107337162D01*
X106211460Y-107333329D01*
X106256881Y-107314515D01*
X106259601Y-107313061D01*
X106259612Y-107313056D01*
X106281034Y-107301606D01*
X106281039Y-107301603D01*
X106283765Y-107300146D01*
X106290118Y-107295901D01*
X106304407Y-107286354D01*
X106304413Y-107286349D01*
X106306973Y-107284639D01*
X106330537Y-107265300D01*
X106365300Y-107230537D01*
X106384639Y-107206973D01*
X106400146Y-107183765D01*
X106401606Y-107181034D01*
X106413056Y-107159612D01*
X106413061Y-107159601D01*
X106414515Y-107156881D01*
X106433329Y-107111460D01*
X106442178Y-107082289D01*
X106450091Y-107042507D01*
X106452330Y-107027413D01*
X106454751Y-107002832D01*
X106455500Y-106987590D01*
X106455500Y-102531500D01*
X106475502Y-102463379D01*
X106529158Y-102416886D01*
X106581500Y-102405500D01*
X114318500Y-102405500D01*
X114386621Y-102425502D01*
X114433114Y-102479158D01*
X114444500Y-102531500D01*
X114444500Y-106366967D01*
X114424498Y-106435088D01*
X114370842Y-106481581D01*
X114342029Y-106490751D01*
X112694083Y-106803997D01*
X112694078Y-106803998D01*
X112692374Y-106804322D01*
X112675736Y-106808447D01*
X112657242Y-106814130D01*
X112656030Y-106814678D01*
X112647976Y-106817290D01*
X112560493Y-106841141D01*
X112525046Y-106845557D01*
X112511695Y-106845313D01*
X112508922Y-106845262D01*
X112504361Y-106845414D01*
X112494531Y-106845740D01*
X112494526Y-106845740D01*
X112492910Y-106845794D01*
X112475986Y-106847232D01*
X112468659Y-106847854D01*
X112468652Y-106847855D01*
X112467072Y-106847989D01*
X112465505Y-106848204D01*
X112465495Y-106848205D01*
X112460869Y-106848840D01*
X112451197Y-106850166D01*
X112449623Y-106850465D01*
X112449618Y-106850466D01*
X105832930Y-108108183D01*
X102649718Y-108713257D01*
X102649711Y-108713259D01*
X102647941Y-108713595D01*
X102646193Y-108714033D01*
X102646179Y-108714036D01*
X102636348Y-108716499D01*
X102630565Y-108717948D01*
X102628813Y-108718496D01*
X102604670Y-108726046D01*
X102604661Y-108726049D01*
X102602909Y-108726597D01*
X102601205Y-108727240D01*
X102601193Y-108727244D01*
X102587856Y-108732276D01*
X102586152Y-108732919D01*
X102542995Y-108752106D01*
X102526908Y-108761609D01*
X102515326Y-108768450D01*
X102515321Y-108768453D01*
X102512205Y-108770294D01*
X102466333Y-108805081D01*
X102463708Y-108807597D01*
X102463705Y-108807599D01*
X102443136Y-108827309D01*
X102443131Y-108827314D01*
X102440511Y-108829825D01*
X102419948Y-108854665D01*
X102417972Y-108857706D01*
X102417969Y-108857710D01*
X102402444Y-108881602D01*
X102402440Y-108881609D01*
X102400462Y-108884653D01*
X102398847Y-108887905D01*
X102398844Y-108887910D01*
X102378310Y-108929254D01*
X102374853Y-108936215D01*
X102362734Y-108969860D01*
X102361906Y-108973389D01*
X102361905Y-108973392D01*
X102353406Y-109009612D01*
X102351944Y-109015841D01*
X102348863Y-109033486D01*
X102345531Y-109062271D01*
X102344500Y-109080151D01*
X102344500Y-110518500D01*
X102324498Y-110586621D01*
X102270842Y-110633114D01*
X102218500Y-110644500D01*
X99412410Y-110644500D01*
X99410868Y-110644576D01*
X99410859Y-110644576D01*
X99398707Y-110645173D01*
X99398692Y-110645174D01*
X99397168Y-110645249D01*
X99393855Y-110645575D01*
X99324104Y-110632351D01*
X99272573Y-110583514D01*
X99255500Y-110520183D01*
X99255500Y-107440699D01*
X99275502Y-107372578D01*
X99333282Y-107324290D01*
X99354027Y-107315697D01*
X99356881Y-107314515D01*
X99359601Y-107313061D01*
X99359612Y-107313056D01*
X99381034Y-107301606D01*
X99381039Y-107301603D01*
X99383765Y-107300146D01*
X99390118Y-107295901D01*
X99404407Y-107286354D01*
X99404413Y-107286349D01*
X99406973Y-107284639D01*
X99430537Y-107265300D01*
X99465300Y-107230537D01*
X99484639Y-107206973D01*
X99500146Y-107183765D01*
X99501606Y-107181034D01*
X99513056Y-107159612D01*
X99513061Y-107159601D01*
X99514515Y-107156881D01*
X99533329Y-107111460D01*
X99542178Y-107082289D01*
X99550091Y-107042507D01*
X99552330Y-107027413D01*
X99554751Y-107002832D01*
X99555500Y-106987590D01*
X99555500Y-99212410D01*
X99554751Y-99197168D01*
X99552330Y-99172587D01*
X99550091Y-99157493D01*
X99542178Y-99117711D01*
X99541041Y-99113960D01*
X99534226Y-99091498D01*
X99533329Y-99088540D01*
X99514515Y-99043119D01*
X99513061Y-99040399D01*
X99513056Y-99040388D01*
X99501606Y-99018966D01*
X99501603Y-99018961D01*
X99500146Y-99016235D01*
X99484639Y-98993027D01*
X99465300Y-98969463D01*
X99430537Y-98934700D01*
X99406973Y-98915361D01*
X99404413Y-98913651D01*
X99404407Y-98913646D01*
X99386336Y-98901572D01*
X99383765Y-98899854D01*
X99381039Y-98898397D01*
X99381034Y-98898394D01*
X99359612Y-98886944D01*
X99359601Y-98886939D01*
X99356881Y-98885485D01*
X99311460Y-98866671D01*
X99298824Y-98862838D01*
X99285254Y-98858721D01*
X99285246Y-98858719D01*
X99282289Y-98857822D01*
X99279260Y-98857220D01*
X99279254Y-98857218D01*
X99265234Y-98854430D01*
X99242507Y-98849909D01*
X99240967Y-98849681D01*
X99240958Y-98849679D01*
X99228972Y-98847901D01*
X99228962Y-98847900D01*
X99227413Y-98847670D01*
X99225858Y-98847517D01*
X99225843Y-98847515D01*
X99204368Y-98845400D01*
X99204357Y-98845399D01*
X99202832Y-98845249D01*
X99201308Y-98845174D01*
X99201293Y-98845173D01*
X99189141Y-98844576D01*
X99189132Y-98844576D01*
X99187590Y-98844500D01*
X98574231Y-98844500D01*
X98564598Y-98844799D01*
X98557815Y-98845220D01*
X98557741Y-98845232D01*
X98543671Y-98845898D01*
X98469952Y-98844547D01*
X98468732Y-98844530D01*
X98468723Y-98844530D01*
X98468515Y-98844527D01*
X98468314Y-98844525D01*
X98468299Y-98844525D01*
X98466204Y-98844506D01*
X98464791Y-98844500D01*
X97574231Y-98844500D01*
X97564598Y-98844799D01*
X97557815Y-98845220D01*
X97557741Y-98845232D01*
X97543671Y-98845898D01*
X97469952Y-98844547D01*
X97468732Y-98844530D01*
X97468723Y-98844530D01*
X97468515Y-98844527D01*
X97468314Y-98844525D01*
X97468299Y-98844525D01*
X97466204Y-98844506D01*
X97464791Y-98844500D01*
X96574231Y-98844500D01*
X96564598Y-98844799D01*
X96557815Y-98845220D01*
X96557741Y-98845232D01*
X96543671Y-98845898D01*
X96469952Y-98844547D01*
X96468732Y-98844530D01*
X96468723Y-98844530D01*
X96468515Y-98844527D01*
X96468314Y-98844525D01*
X96468299Y-98844525D01*
X96466204Y-98844506D01*
X96464791Y-98844500D01*
X95574231Y-98844500D01*
X95564598Y-98844799D01*
X95557815Y-98845220D01*
X95557741Y-98845232D01*
X95543671Y-98845898D01*
X95469952Y-98844547D01*
X95468732Y-98844530D01*
X95468723Y-98844530D01*
X95468515Y-98844527D01*
X95468314Y-98844525D01*
X95468299Y-98844525D01*
X95466204Y-98844506D01*
X95464791Y-98844500D01*
X95312410Y-98844500D01*
X95310868Y-98844576D01*
X95310859Y-98844576D01*
X95298707Y-98845173D01*
X95298692Y-98845174D01*
X95297168Y-98845249D01*
X95295643Y-98845399D01*
X95295632Y-98845400D01*
X95274157Y-98847515D01*
X95274142Y-98847517D01*
X95272587Y-98847670D01*
X95271038Y-98847900D01*
X95271028Y-98847901D01*
X95259042Y-98849679D01*
X95259033Y-98849681D01*
X95257493Y-98849909D01*
X95234766Y-98854430D01*
X95220746Y-98857218D01*
X95220740Y-98857220D01*
X95217711Y-98857822D01*
X95214754Y-98858719D01*
X95214746Y-98858721D01*
X95201176Y-98862838D01*
X95188540Y-98866671D01*
X95143119Y-98885485D01*
X95140399Y-98886939D01*
X95140388Y-98886944D01*
X95118966Y-98898394D01*
X95118961Y-98898397D01*
X95116235Y-98899854D01*
X95113664Y-98901572D01*
X95095593Y-98913646D01*
X95095587Y-98913651D01*
X95093027Y-98915361D01*
X95069463Y-98934700D01*
X95034700Y-98969463D01*
X95015361Y-98993027D01*
X94999854Y-99016235D01*
X94998397Y-99018961D01*
X94998394Y-99018966D01*
X94986944Y-99040388D01*
X94986939Y-99040399D01*
X94985485Y-99043119D01*
X94966671Y-99088540D01*
X94965774Y-99091498D01*
X94958960Y-99113960D01*
X94957822Y-99117711D01*
X94949909Y-99157493D01*
X94947670Y-99172587D01*
X94945249Y-99197168D01*
X94944500Y-99212410D01*
X94944500Y-106987590D01*
X94945249Y-107002832D01*
X94947670Y-107027413D01*
X94949909Y-107042507D01*
X94957822Y-107082289D01*
X94966671Y-107111460D01*
X94985485Y-107156881D01*
X94986939Y-107159601D01*
X94986944Y-107159612D01*
X94998394Y-107181034D01*
X94999854Y-107183765D01*
X95015361Y-107206973D01*
X95034700Y-107230537D01*
X95069463Y-107265300D01*
X95093027Y-107284639D01*
X95095587Y-107286349D01*
X95095593Y-107286354D01*
X95109882Y-107295901D01*
X95116235Y-107300146D01*
X95118961Y-107301603D01*
X95118966Y-107301606D01*
X95140388Y-107313056D01*
X95140399Y-107313061D01*
X95143119Y-107314515D01*
X95188540Y-107333329D01*
X95201176Y-107337162D01*
X95214746Y-107341279D01*
X95214754Y-107341281D01*
X95217711Y-107342178D01*
X95220740Y-107342780D01*
X95220746Y-107342782D01*
X95234766Y-107345570D01*
X95257493Y-107350091D01*
X95259033Y-107350319D01*
X95259042Y-107350321D01*
X95271028Y-107352099D01*
X95271038Y-107352100D01*
X95272587Y-107352330D01*
X95274142Y-107352483D01*
X95274157Y-107352485D01*
X95295632Y-107354600D01*
X95295643Y-107354601D01*
X95297168Y-107354751D01*
X95298692Y-107354826D01*
X95298707Y-107354827D01*
X95310859Y-107355424D01*
X95310868Y-107355424D01*
X95312410Y-107355500D01*
X95818500Y-107355500D01*
X95886621Y-107375502D01*
X95933114Y-107429158D01*
X95944500Y-107481500D01*
X95944500Y-112687590D01*
X95944576Y-112689132D01*
X95944576Y-112689141D01*
X95944717Y-112691998D01*
X95945249Y-112702832D01*
X95945399Y-112704357D01*
X95945400Y-112704368D01*
X95946774Y-112718312D01*
X95947670Y-112727413D01*
X95947900Y-112728962D01*
X95947901Y-112728972D01*
X95948540Y-112733277D01*
X95949909Y-112742507D01*
X95952366Y-112754859D01*
X95954811Y-112767149D01*
X95957822Y-112782289D01*
X95966671Y-112811460D01*
X95985485Y-112856881D01*
X95986939Y-112859601D01*
X95986944Y-112859612D01*
X95996240Y-112877004D01*
X95999854Y-112883765D01*
X96015361Y-112906973D01*
X96034700Y-112930537D01*
X96069463Y-112965300D01*
X96093027Y-112984639D01*
X96095587Y-112986349D01*
X96095593Y-112986354D01*
X96109882Y-112995901D01*
X96116235Y-113000146D01*
X96118961Y-113001603D01*
X96118966Y-113001606D01*
X96140388Y-113013056D01*
X96140399Y-113013061D01*
X96143119Y-113014515D01*
X96188540Y-113033329D01*
X96191497Y-113034226D01*
X96193369Y-113034794D01*
X96193710Y-113035018D01*
X96194407Y-113035267D01*
X96194347Y-113035435D01*
X96252746Y-113073714D01*
X96281656Y-113138558D01*
X96270919Y-113208738D01*
X96251224Y-113238772D01*
X96177377Y-113322388D01*
X96116447Y-113452163D01*
X96115066Y-113461035D01*
X96097910Y-113571222D01*
X96094391Y-113593823D01*
X96095555Y-113602725D01*
X96095555Y-113602728D01*
X96102764Y-113657856D01*
X96112980Y-113735979D01*
X96119864Y-113751623D01*
X96167064Y-113858893D01*
X96170720Y-113867203D01*
X96176497Y-113874076D01*
X96176498Y-113874077D01*
X96248599Y-113959852D01*
X96262970Y-113976948D01*
X96270447Y-113981925D01*
X96277135Y-113987905D01*
X96275788Y-113989412D01*
X96313944Y-114034912D01*
X96324500Y-114085396D01*
X96324500Y-114264109D01*
X96304498Y-114332230D01*
X96250842Y-114378723D01*
X96235073Y-114383476D01*
X96235333Y-114384276D01*
X96225904Y-114387339D01*
X96216107Y-114388891D01*
X96207270Y-114393394D01*
X96207269Y-114393394D01*
X96167522Y-114413646D01*
X96106597Y-114444689D01*
X96019689Y-114531597D01*
X95963891Y-114641107D01*
X95963796Y-114641705D01*
X95926638Y-114696044D01*
X95861240Y-114723679D01*
X95846881Y-114724500D01*
X95328118Y-114724500D01*
X95259997Y-114704498D01*
X95213504Y-114650842D01*
X95212065Y-114647146D01*
X95211109Y-114641107D01*
X95197678Y-114614746D01*
X95159811Y-114540429D01*
X95155311Y-114531597D01*
X95068403Y-114444689D01*
X94958893Y-114388891D01*
X94949103Y-114387340D01*
X94949102Y-114387340D01*
X94924228Y-114383401D01*
X94868033Y-114374500D01*
X94600055Y-114374500D01*
X94331968Y-114374501D01*
X94327074Y-114375276D01*
X94327075Y-114375276D01*
X94250905Y-114387339D01*
X94250903Y-114387339D01*
X94241107Y-114388891D01*
X94232270Y-114393394D01*
X94232269Y-114393394D01*
X94192522Y-114413646D01*
X94131597Y-114444689D01*
X94044689Y-114531597D01*
X93988891Y-114641107D01*
X93974500Y-114731967D01*
X92371069Y-114731967D01*
X92376633Y-99508250D01*
X92376850Y-99506604D01*
X92376850Y-99490897D01*
X92381143Y-99474875D01*
X92378049Y-99463327D01*
X92378760Y-99460906D01*
X92377381Y-99460834D01*
X92394776Y-99128958D01*
X92396154Y-99115841D01*
X92424499Y-98936887D01*
X92449316Y-98780210D01*
X92452058Y-98767313D01*
X92452471Y-98765774D01*
X92540004Y-98439109D01*
X92544079Y-98426567D01*
X92665855Y-98109335D01*
X92671220Y-98097286D01*
X92671961Y-98095833D01*
X92825486Y-97794530D01*
X92832080Y-97783109D01*
X92996125Y-97530506D01*
X93017150Y-97498131D01*
X93024900Y-97487464D01*
X93029911Y-97481277D01*
X93238745Y-97223393D01*
X93247569Y-97213593D01*
X93487846Y-96973321D01*
X93497648Y-96964496D01*
X93761718Y-96750661D01*
X93772388Y-96742909D01*
X94057366Y-96557847D01*
X94068787Y-96551253D01*
X94082041Y-96544500D01*
X94371553Y-96396989D01*
X94383586Y-96391631D01*
X94700835Y-96269855D01*
X94713374Y-96265782D01*
X95041590Y-96177842D01*
X95054487Y-96175100D01*
X95390113Y-96121946D01*
X95403216Y-96120570D01*
X95735324Y-96103169D01*
X95735377Y-96104177D01*
X95737314Y-96103702D01*
X95749143Y-96106872D01*
X95765167Y-96102579D01*
X95780960Y-96102579D01*
X95782517Y-96102374D01*
X142742129Y-96102374D01*
X142744392Y-96102669D01*
G37*
%TD.AperFunction*%
%TA.AperFunction,Conductor*%
G36*
X111834901Y-116323314D02*
G01*
X111888295Y-116355056D01*
X113087595Y-117554356D01*
X113121621Y-117616668D01*
X113124500Y-117643451D01*
X113124501Y-117894042D01*
X113124501Y-118143032D01*
X113138891Y-118233893D01*
X113194689Y-118343403D01*
X113281597Y-118430311D01*
X113391107Y-118486109D01*
X113400897Y-118487660D01*
X113400898Y-118487660D01*
X113425772Y-118491599D01*
X113481967Y-118500500D01*
X113749945Y-118500500D01*
X114018032Y-118500499D01*
X114051592Y-118495184D01*
X114099095Y-118487661D01*
X114099097Y-118487661D01*
X114108893Y-118486109D01*
X114218403Y-118430311D01*
X114305311Y-118343403D01*
X114361109Y-118233893D01*
X114375500Y-118143033D01*
X114375499Y-117876499D01*
X114395501Y-117808380D01*
X114449156Y-117761887D01*
X114501499Y-117750500D01*
X115098328Y-117750500D01*
X115166449Y-117770502D01*
X115212942Y-117824158D01*
X115221906Y-117851917D01*
X115228233Y-117883722D01*
X115235127Y-117894040D01*
X115235128Y-117894042D01*
X115235648Y-117894820D01*
X115261496Y-117933504D01*
X115271815Y-117940399D01*
X115300958Y-117959872D01*
X115300960Y-117959873D01*
X115311278Y-117966767D01*
X115355180Y-117975500D01*
X116944820Y-117975500D01*
X116988722Y-117966767D01*
X116999040Y-117959873D01*
X116999042Y-117959872D01*
X117028185Y-117940399D01*
X117038504Y-117933504D01*
X117064352Y-117894820D01*
X117064872Y-117894042D01*
X117064873Y-117894040D01*
X117071767Y-117883722D01*
X117080500Y-117839820D01*
X117080500Y-117160180D01*
X117080948Y-117160180D01*
X117093480Y-117094098D01*
X117142319Y-117042569D01*
X117205645Y-117025500D01*
X117218500Y-117025500D01*
X117286621Y-117045502D01*
X117333114Y-117099158D01*
X117344500Y-117151500D01*
X117344500Y-118595771D01*
X117324498Y-118663892D01*
X117270842Y-118710385D01*
X117200568Y-118720489D01*
X117180575Y-118715386D01*
X117175953Y-118714380D01*
X117167509Y-118711231D01*
X117158520Y-118710588D01*
X117105684Y-118706809D01*
X117096694Y-118706166D01*
X117087887Y-118708082D01*
X117087886Y-118708082D01*
X117077300Y-118710385D01*
X117011075Y-118724792D01*
X117003167Y-118729110D01*
X117003162Y-118729112D01*
X116975127Y-118744421D01*
X116967313Y-118747850D01*
X116967339Y-118747903D01*
X116959932Y-118751556D01*
X116952113Y-118754210D01*
X116947418Y-118757347D01*
X116893151Y-118770000D01*
X115429005Y-118770000D01*
X115360884Y-118749998D01*
X115340708Y-118733887D01*
X115331449Y-118724792D01*
X115315444Y-118709070D01*
X115297266Y-118698394D01*
X115256958Y-118674721D01*
X115256957Y-118674720D01*
X115250283Y-118670801D01*
X115182162Y-118650799D01*
X115177703Y-118650158D01*
X115177699Y-118650157D01*
X115159322Y-118647515D01*
X115138353Y-118644500D01*
X114558508Y-118644500D01*
X114556966Y-118644576D01*
X114556957Y-118644576D01*
X114544805Y-118645173D01*
X114544790Y-118645174D01*
X114543266Y-118645249D01*
X114541741Y-118645399D01*
X114541730Y-118645400D01*
X114520255Y-118647515D01*
X114520240Y-118647517D01*
X114518685Y-118647670D01*
X114517136Y-118647900D01*
X114517126Y-118647901D01*
X114505140Y-118649679D01*
X114505131Y-118649681D01*
X114503591Y-118649909D01*
X114484452Y-118653716D01*
X114466844Y-118657218D01*
X114466838Y-118657220D01*
X114463809Y-118657822D01*
X114460852Y-118658719D01*
X114460844Y-118658721D01*
X114447801Y-118662678D01*
X114434638Y-118666671D01*
X114389217Y-118685485D01*
X114386497Y-118686939D01*
X114386486Y-118686944D01*
X114365064Y-118698394D01*
X114365059Y-118698397D01*
X114362333Y-118699854D01*
X114359762Y-118701572D01*
X114341691Y-118713646D01*
X114341685Y-118713651D01*
X114339125Y-118715361D01*
X114315561Y-118734700D01*
X114280798Y-118769463D01*
X114261459Y-118793027D01*
X114259749Y-118795587D01*
X114259744Y-118795593D01*
X114256010Y-118801182D01*
X114245952Y-118816235D01*
X114244495Y-118818961D01*
X114244492Y-118818966D01*
X114233042Y-118840388D01*
X114233037Y-118840399D01*
X114231583Y-118843119D01*
X114212769Y-118888540D01*
X114203920Y-118917711D01*
X114203318Y-118920740D01*
X114203316Y-118920746D01*
X114200848Y-118933155D01*
X114196007Y-118957493D01*
X114195779Y-118959033D01*
X114195777Y-118959042D01*
X114195446Y-118961278D01*
X114193768Y-118972587D01*
X114191347Y-118997168D01*
X114190598Y-119012410D01*
X114190598Y-121687590D01*
X114190674Y-121689132D01*
X114190674Y-121689141D01*
X114191211Y-121700059D01*
X114191347Y-121702832D01*
X114191497Y-121704357D01*
X114191498Y-121704368D01*
X114192774Y-121717316D01*
X114193768Y-121727413D01*
X114196007Y-121742507D01*
X114203920Y-121782289D01*
X114212769Y-121811460D01*
X114231583Y-121856881D01*
X114233037Y-121859602D01*
X114233043Y-121859614D01*
X114235446Y-121864109D01*
X114249915Y-121933615D01*
X114224509Y-121999910D01*
X114167294Y-122041946D01*
X114124322Y-122049500D01*
X110552454Y-122049500D01*
X110484333Y-122029498D01*
X110437840Y-121975842D01*
X110427736Y-121905568D01*
X110457230Y-121840988D01*
X110463359Y-121834405D01*
X111416844Y-120880920D01*
X111435936Y-120865250D01*
X111438311Y-120863663D01*
X111448624Y-120856772D01*
X111459092Y-120841107D01*
X111474732Y-120817700D01*
X111502622Y-120775959D01*
X111509515Y-120765643D01*
X111514531Y-120740429D01*
X111528476Y-120670319D01*
X111530897Y-120658148D01*
X111527921Y-120643187D01*
X111525500Y-120618605D01*
X111525500Y-117235976D01*
X111545502Y-117167855D01*
X111568637Y-117141718D01*
X111572991Y-117139045D01*
X111593599Y-117116278D01*
X111663178Y-117039407D01*
X111669200Y-117032754D01*
X111724120Y-116919399D01*
X111727795Y-116911814D01*
X111727795Y-116911813D01*
X111731710Y-116903733D01*
X111755496Y-116762354D01*
X111755647Y-116750000D01*
X111742703Y-116659612D01*
X111736596Y-116616968D01*
X111736595Y-116616965D01*
X111735323Y-116608082D01*
X111684500Y-116496302D01*
X111674514Y-116426011D01*
X111704114Y-116361480D01*
X111763904Y-116323196D01*
X111834901Y-116323314D01*
G37*
%TD.AperFunction*%
%TA.AperFunction,Conductor*%
G36*
X122923046Y-118675481D02*
G01*
X122969540Y-118729136D01*
X122979374Y-118801191D01*
X122975275Y-118827067D01*
X122975274Y-118827081D01*
X122974500Y-118831967D01*
X122974501Y-119393032D01*
X122988891Y-119483893D01*
X122993392Y-119492726D01*
X122993394Y-119492731D01*
X123014214Y-119533592D01*
X123044689Y-119593403D01*
X123131597Y-119680311D01*
X123241107Y-119736109D01*
X123243676Y-119736516D01*
X123298931Y-119774300D01*
X123324966Y-119829476D01*
X123340485Y-119907495D01*
X123362863Y-119940985D01*
X123385809Y-119975326D01*
X123401376Y-119998624D01*
X123411692Y-120005517D01*
X123411693Y-120005518D01*
X123414064Y-120007102D01*
X123433156Y-120022772D01*
X123663936Y-120253552D01*
X123697962Y-120315864D01*
X123699341Y-120362032D01*
X123695887Y-120384217D01*
X123694391Y-120393823D01*
X123695555Y-120402725D01*
X123695555Y-120402728D01*
X123702961Y-120459360D01*
X123712980Y-120535979D01*
X123723533Y-120559963D01*
X123763899Y-120651700D01*
X123770720Y-120667203D01*
X123776497Y-120674076D01*
X123776498Y-120674077D01*
X123832273Y-120740429D01*
X123862970Y-120776948D01*
X123982313Y-120856390D01*
X124119157Y-120899142D01*
X124128129Y-120899306D01*
X124128132Y-120899307D01*
X124193463Y-120900504D01*
X124262499Y-120901770D01*
X124271533Y-120899307D01*
X124392158Y-120866421D01*
X124392160Y-120866420D01*
X124400817Y-120864060D01*
X124522991Y-120789045D01*
X124583888Y-120721767D01*
X124613178Y-120689407D01*
X124619200Y-120682754D01*
X124625604Y-120669536D01*
X124673308Y-120616954D01*
X124741867Y-120598510D01*
X124809514Y-120620059D01*
X124843758Y-120654474D01*
X124866496Y-120688504D01*
X124876815Y-120695399D01*
X124905958Y-120714872D01*
X124905960Y-120714873D01*
X124916278Y-120721767D01*
X124960180Y-120730500D01*
X125198500Y-120730500D01*
X125266621Y-120750502D01*
X125313114Y-120804158D01*
X125324500Y-120856500D01*
X125324500Y-120933694D01*
X125304498Y-121001815D01*
X125287595Y-121022789D01*
X124297789Y-122012595D01*
X124235477Y-122046621D01*
X124208694Y-122049500D01*
X121790714Y-122049500D01*
X121722593Y-122029498D01*
X121676100Y-121975842D01*
X121665996Y-121905568D01*
X121695490Y-121840988D01*
X121735578Y-121814416D01*
X121733893Y-121811109D01*
X121784636Y-121785254D01*
X121843403Y-121755311D01*
X121930311Y-121668403D01*
X121986109Y-121558893D01*
X122000500Y-121468033D01*
X122000499Y-120931968D01*
X121989445Y-120862169D01*
X121987661Y-120850905D01*
X121987661Y-120850903D01*
X121986109Y-120841107D01*
X121977549Y-120824306D01*
X121941457Y-120753473D01*
X121930311Y-120731597D01*
X121843403Y-120644689D01*
X121733893Y-120588891D01*
X121724103Y-120587340D01*
X121724102Y-120587340D01*
X121698776Y-120583329D01*
X121643033Y-120574500D01*
X121362557Y-120574500D01*
X121081968Y-120574501D01*
X121038712Y-120581352D01*
X120968302Y-120572252D01*
X120913988Y-120526530D01*
X120901024Y-120496772D01*
X120899807Y-120497203D01*
X120880499Y-120442680D01*
X120880498Y-120442677D01*
X120878303Y-120436480D01*
X120873208Y-120428151D01*
X120845958Y-120383604D01*
X120845955Y-120383601D01*
X120841255Y-120375917D01*
X120834580Y-120369868D01*
X120834577Y-120369865D01*
X120793108Y-120332289D01*
X120776328Y-120317084D01*
X120768218Y-120313160D01*
X120768216Y-120313159D01*
X120767933Y-120313022D01*
X120767700Y-120312811D01*
X120760744Y-120308119D01*
X120761419Y-120307119D01*
X120715323Y-120265349D01*
X120696838Y-120196801D01*
X120718348Y-120129141D01*
X120763119Y-120091209D01*
X120762394Y-120090081D01*
X120769977Y-120085208D01*
X120778173Y-120081465D01*
X120784981Y-120075566D01*
X120784984Y-120075564D01*
X120825017Y-120040875D01*
X120825018Y-120040873D01*
X120831829Y-120034972D01*
X120879199Y-119961262D01*
X120899201Y-119893141D01*
X120904172Y-119858568D01*
X120933665Y-119793987D01*
X120993391Y-119755604D01*
X121028889Y-119750500D01*
X121466830Y-119750499D01*
X121518032Y-119750499D01*
X121541394Y-119746799D01*
X121599095Y-119737661D01*
X121599097Y-119737661D01*
X121608893Y-119736109D01*
X121718403Y-119680311D01*
X121805311Y-119593403D01*
X121861109Y-119483893D01*
X121875500Y-119393033D01*
X121875499Y-118831968D01*
X121874723Y-118827067D01*
X121870625Y-118801189D01*
X121879726Y-118730778D01*
X121925449Y-118676465D01*
X121995073Y-118655481D01*
X122425003Y-118655480D01*
X122854926Y-118655479D01*
X122923046Y-118675481D01*
G37*
%TD.AperFunction*%
%TA.AperFunction,Conductor*%
G36*
X104836602Y-116158611D02*
G01*
X104944541Y-116185023D01*
X104971894Y-116195195D01*
X105069307Y-116244937D01*
X105093579Y-116261125D01*
X105173189Y-116328758D01*
X105176924Y-116331931D01*
X105196827Y-116353275D01*
X105261650Y-116441361D01*
X105276108Y-116466708D01*
X105318930Y-116567345D01*
X105327170Y-116595339D01*
X105344671Y-116697187D01*
X105344674Y-116697199D01*
X105345692Y-116703125D01*
X105347269Y-116732259D01*
X105340497Y-116841420D01*
X105335330Y-116870140D01*
X105303628Y-116974815D01*
X105291991Y-117001578D01*
X105282583Y-117017774D01*
X105266896Y-117055436D01*
X105265817Y-117059442D01*
X105250930Y-117114712D01*
X105250929Y-117114719D01*
X105249851Y-117118720D01*
X105248042Y-117132392D01*
X105245514Y-117151500D01*
X105244500Y-117159161D01*
X105244500Y-120187590D01*
X105244576Y-120189132D01*
X105244576Y-120189141D01*
X105245110Y-120200000D01*
X105245249Y-120202832D01*
X105245399Y-120204357D01*
X105245400Y-120204368D01*
X105247482Y-120225500D01*
X105247670Y-120227413D01*
X105247900Y-120228962D01*
X105247901Y-120228972D01*
X105249679Y-120240958D01*
X105249909Y-120242507D01*
X105257822Y-120282289D01*
X105258719Y-120285246D01*
X105258721Y-120285254D01*
X105261386Y-120294038D01*
X105266671Y-120311460D01*
X105285485Y-120356881D01*
X105286939Y-120359601D01*
X105286944Y-120359612D01*
X105298394Y-120381034D01*
X105299854Y-120383765D01*
X105301572Y-120386336D01*
X105313393Y-120404027D01*
X105315361Y-120406973D01*
X105334700Y-120430537D01*
X105369463Y-120465300D01*
X105393027Y-120484639D01*
X105395587Y-120486349D01*
X105395593Y-120486354D01*
X105403807Y-120491842D01*
X105416235Y-120500146D01*
X105418961Y-120501603D01*
X105418966Y-120501606D01*
X105440388Y-120513056D01*
X105440399Y-120513061D01*
X105443119Y-120514515D01*
X105488540Y-120533329D01*
X105497276Y-120535979D01*
X105514746Y-120541279D01*
X105514754Y-120541281D01*
X105517711Y-120542178D01*
X105520740Y-120542780D01*
X105520746Y-120542782D01*
X105527871Y-120544199D01*
X105557493Y-120550091D01*
X105559033Y-120550319D01*
X105559042Y-120550321D01*
X105571028Y-120552099D01*
X105571038Y-120552100D01*
X105572587Y-120552330D01*
X105574142Y-120552483D01*
X105574157Y-120552485D01*
X105595632Y-120554600D01*
X105595643Y-120554601D01*
X105597168Y-120554751D01*
X105598692Y-120554826D01*
X105598707Y-120554827D01*
X105610859Y-120555424D01*
X105610868Y-120555424D01*
X105612410Y-120555500D01*
X105825000Y-120555500D01*
X105832974Y-120553363D01*
X105832977Y-120553363D01*
X105841681Y-120551031D01*
X105861672Y-120548127D01*
X105862108Y-120549900D01*
X105926331Y-120534118D01*
X105938449Y-120527074D01*
X105964207Y-120512100D01*
X106002082Y-120490083D01*
X106050922Y-120438555D01*
X106051929Y-120436588D01*
X106104906Y-120394667D01*
X106152088Y-120385500D01*
X106373500Y-120385500D01*
X106441621Y-120405502D01*
X106488114Y-120459158D01*
X106499500Y-120511500D01*
X106499500Y-120794048D01*
X106479498Y-120862169D01*
X106462597Y-120883142D01*
X106443970Y-120901770D01*
X106430379Y-120915361D01*
X106368067Y-120949387D01*
X106327469Y-120950723D01*
X106324739Y-120949907D01*
X106315765Y-120949852D01*
X106315764Y-120949852D01*
X106253058Y-120949469D01*
X106181376Y-120949031D01*
X106043529Y-120988428D01*
X105922280Y-121064930D01*
X105827377Y-121172388D01*
X105766447Y-121302163D01*
X105759584Y-121346240D01*
X105750336Y-121405643D01*
X105744391Y-121443823D01*
X105745555Y-121452725D01*
X105745555Y-121452728D01*
X105748196Y-121472923D01*
X105762980Y-121585979D01*
X105800606Y-121671490D01*
X105820720Y-121717203D01*
X105818899Y-121718004D01*
X105834833Y-121775322D01*
X105813848Y-121843147D01*
X105759525Y-121888859D01*
X105708846Y-121899500D01*
X103268450Y-121899500D01*
X103200329Y-121879498D01*
X103179355Y-121862595D01*
X100912404Y-119595644D01*
X100878378Y-119533332D01*
X100875499Y-119506549D01*
X100875499Y-119306968D01*
X100864990Y-119240612D01*
X100862661Y-119225905D01*
X100862661Y-119225903D01*
X100861109Y-119216107D01*
X100842758Y-119180090D01*
X100824470Y-119144199D01*
X100805311Y-119106597D01*
X100718403Y-119019689D01*
X100608893Y-118963891D01*
X100599101Y-118962340D01*
X100589668Y-118959275D01*
X100590748Y-118955951D01*
X100542647Y-118933155D01*
X100521997Y-118900000D01*
X102834543Y-118900000D01*
X102836094Y-118909793D01*
X102852593Y-119013960D01*
X102854877Y-119028383D01*
X102913888Y-119144199D01*
X103005801Y-119236112D01*
X103121617Y-119295123D01*
X103131407Y-119296674D01*
X103131408Y-119296674D01*
X103240207Y-119313906D01*
X103250000Y-119315457D01*
X103259793Y-119313906D01*
X103368592Y-119296674D01*
X103368593Y-119296674D01*
X103378383Y-119295123D01*
X103494199Y-119236112D01*
X103586112Y-119144199D01*
X103645123Y-119028383D01*
X103647408Y-119013960D01*
X103663906Y-118909793D01*
X103665457Y-118900000D01*
X103663190Y-118885689D01*
X103646674Y-118781408D01*
X103646674Y-118781407D01*
X103645123Y-118771617D01*
X103586112Y-118655801D01*
X103494199Y-118563888D01*
X103378383Y-118504877D01*
X103368593Y-118503326D01*
X103368592Y-118503326D01*
X103259793Y-118486094D01*
X103250000Y-118484543D01*
X103240207Y-118486094D01*
X103131408Y-118503326D01*
X103131407Y-118503326D01*
X103121617Y-118504877D01*
X103005801Y-118563888D01*
X102913888Y-118655801D01*
X102854877Y-118771617D01*
X102853326Y-118781407D01*
X102853326Y-118781408D01*
X102836810Y-118885689D01*
X102834543Y-118900000D01*
X100521997Y-118900000D01*
X100505113Y-118872891D01*
X100500500Y-118839109D01*
X100500500Y-118410891D01*
X100520502Y-118342770D01*
X100574158Y-118296277D01*
X100589927Y-118291524D01*
X100589667Y-118290724D01*
X100599096Y-118287661D01*
X100608893Y-118286109D01*
X100718403Y-118230311D01*
X100805311Y-118143403D01*
X100861109Y-118033893D01*
X100875500Y-117943033D01*
X100875499Y-117381968D01*
X100861109Y-117291107D01*
X100836767Y-117243332D01*
X100809811Y-117190429D01*
X100805311Y-117181597D01*
X100718403Y-117094689D01*
X100709571Y-117090189D01*
X100701543Y-117084356D01*
X100703614Y-117081506D01*
X100664985Y-117045030D01*
X100647911Y-116976117D01*
X100670805Y-116908913D01*
X100726398Y-116864755D01*
X100773796Y-116855500D01*
X103587460Y-116855500D01*
X103597897Y-116855149D01*
X103605460Y-116854640D01*
X103609228Y-116854387D01*
X103609231Y-116854387D01*
X103614769Y-116854014D01*
X103667724Y-116840857D01*
X103672804Y-116838589D01*
X103672807Y-116838588D01*
X103713708Y-116820327D01*
X103732553Y-116811914D01*
X103799258Y-116755098D01*
X103838147Y-116695699D01*
X103856874Y-116655597D01*
X103896371Y-116525188D01*
X103908007Y-116498428D01*
X103962937Y-116403857D01*
X103980419Y-116380488D01*
X104055636Y-116301088D01*
X104078023Y-116282369D01*
X104169482Y-116222406D01*
X104195576Y-116209339D01*
X104298377Y-116172024D01*
X104326776Y-116165311D01*
X104391702Y-116157741D01*
X104407940Y-116155848D01*
X104422531Y-116155000D01*
X104806654Y-116155000D01*
X104836602Y-116158611D01*
G37*
%TD.AperFunction*%
%TA.AperFunction,Conductor*%
G36*
X111499671Y-115970502D02*
G01*
X111520645Y-115987405D01*
X111647224Y-116113984D01*
X111681250Y-116176296D01*
X111676185Y-116247111D01*
X111633638Y-116303947D01*
X111567118Y-116328758D01*
X111497744Y-116313667D01*
X111489609Y-116308819D01*
X111462095Y-116290985D01*
X111324739Y-116249907D01*
X111315763Y-116249852D01*
X111315762Y-116249852D01*
X111255555Y-116249484D01*
X111181376Y-116249031D01*
X111043529Y-116288428D01*
X110922280Y-116364930D01*
X110827377Y-116472388D01*
X110766447Y-116602163D01*
X110759944Y-116643932D01*
X110746460Y-116730537D01*
X110744391Y-116743823D01*
X110745555Y-116752725D01*
X110745555Y-116752728D01*
X110750073Y-116787275D01*
X110762980Y-116885979D01*
X110766597Y-116894199D01*
X110813847Y-117001582D01*
X110820720Y-117017203D01*
X110826497Y-117024076D01*
X110826498Y-117024077D01*
X110904001Y-117116278D01*
X110912970Y-117126948D01*
X110920447Y-117131925D01*
X110927135Y-117137905D01*
X110925788Y-117139412D01*
X110963944Y-117184912D01*
X110974500Y-117235396D01*
X110974500Y-118372572D01*
X110954498Y-118440693D01*
X110900842Y-118487186D01*
X110828789Y-118497021D01*
X110759793Y-118486093D01*
X110750000Y-118484542D01*
X110740207Y-118486093D01*
X110631407Y-118503325D01*
X110631405Y-118503326D01*
X110621616Y-118504876D01*
X110505800Y-118563887D01*
X110413887Y-118655800D01*
X110354876Y-118771616D01*
X110353326Y-118781405D01*
X110353325Y-118781407D01*
X110337405Y-118881925D01*
X110334542Y-118900000D01*
X110336093Y-118909793D01*
X110350614Y-119001473D01*
X110354876Y-119028384D01*
X110413887Y-119144200D01*
X110505800Y-119236113D01*
X110621616Y-119295124D01*
X110631405Y-119296674D01*
X110631407Y-119296675D01*
X110740207Y-119313907D01*
X110750000Y-119315458D01*
X110828789Y-119302979D01*
X110899200Y-119312079D01*
X110953514Y-119357801D01*
X110974500Y-119427428D01*
X110974500Y-120491842D01*
X110954498Y-120559963D01*
X110937595Y-120580937D01*
X109905937Y-121612595D01*
X109843625Y-121646621D01*
X109816842Y-121649500D01*
X108983158Y-121649500D01*
X108915037Y-121629498D01*
X108894063Y-121612595D01*
X108562405Y-121280937D01*
X108528379Y-121218625D01*
X108525500Y-121191842D01*
X108525500Y-120682415D01*
X108545502Y-120614294D01*
X108601460Y-120567526D01*
X108601222Y-120567024D01*
X108603154Y-120566110D01*
X108603275Y-120566009D01*
X108603718Y-120565825D01*
X108606881Y-120564515D01*
X108609601Y-120563061D01*
X108609612Y-120563056D01*
X108631034Y-120551606D01*
X108631039Y-120551603D01*
X108633765Y-120550146D01*
X108645690Y-120542178D01*
X108654407Y-120536354D01*
X108654413Y-120536349D01*
X108656973Y-120534639D01*
X108680537Y-120515300D01*
X108715300Y-120480537D01*
X108734639Y-120456973D01*
X108750146Y-120433765D01*
X108751693Y-120430871D01*
X108763056Y-120409612D01*
X108763061Y-120409601D01*
X108764515Y-120406881D01*
X108783329Y-120361460D01*
X108792178Y-120332289D01*
X108800091Y-120292507D01*
X108802330Y-120277413D01*
X108803519Y-120265349D01*
X108804600Y-120254368D01*
X108804601Y-120254357D01*
X108804751Y-120252832D01*
X108805259Y-120242507D01*
X108805424Y-120239141D01*
X108805424Y-120239132D01*
X108805500Y-120237590D01*
X108805500Y-117242305D01*
X108805422Y-117237386D01*
X108805378Y-117235976D01*
X108805328Y-117234413D01*
X108805328Y-117234412D01*
X108805170Y-117229424D01*
X108795882Y-117181193D01*
X108771615Y-117114472D01*
X108750723Y-117075456D01*
X108744130Y-117066496D01*
X108738351Y-117058644D01*
X108723893Y-117033297D01*
X108681069Y-116932654D01*
X108672830Y-116904659D01*
X108656068Y-116807108D01*
X108656066Y-116807099D01*
X108655750Y-116805259D01*
X108651547Y-116787275D01*
X108650181Y-116782680D01*
X108644850Y-116764750D01*
X108644849Y-116764746D01*
X108643032Y-116758637D01*
X108613567Y-116703560D01*
X108568186Y-116648960D01*
X108560705Y-116643932D01*
X108535996Y-116627325D01*
X108490616Y-116572724D01*
X108482028Y-116501846D01*
X108504689Y-116367151D01*
X108504689Y-116367150D01*
X108505496Y-116362354D01*
X108505572Y-116356136D01*
X108505588Y-116354859D01*
X108505588Y-116354854D01*
X108505647Y-116350000D01*
X108495617Y-116279965D01*
X108505761Y-116209699D01*
X108531250Y-116173011D01*
X108716856Y-115987405D01*
X108779168Y-115953379D01*
X108805951Y-115950500D01*
X111431550Y-115950500D01*
X111499671Y-115970502D01*
G37*
%TD.AperFunction*%
%TD*%
%TA.AperFunction,Conductor*%
%TO.N,Net-(D5-Pad2)*%
G36*
X128212171Y-97202421D02*
G01*
X128251953Y-97210334D01*
X128297374Y-97229148D01*
X128320582Y-97244655D01*
X128355345Y-97279418D01*
X128370852Y-97302626D01*
X128389666Y-97348047D01*
X128397579Y-97387829D01*
X128400000Y-97412410D01*
X128400000Y-103737590D01*
X128397579Y-103762171D01*
X128389666Y-103801953D01*
X128370852Y-103847374D01*
X128355345Y-103870582D01*
X128320582Y-103905345D01*
X128297374Y-103920852D01*
X128251953Y-103939666D01*
X128212171Y-103947579D01*
X128187590Y-103950000D01*
X125962410Y-103950000D01*
X125937829Y-103947579D01*
X125898047Y-103939666D01*
X125852626Y-103920852D01*
X125829418Y-103905345D01*
X125794655Y-103870582D01*
X125779148Y-103847374D01*
X125760334Y-103801953D01*
X125752421Y-103762171D01*
X125750000Y-103737590D01*
X125750000Y-103273941D01*
X125770002Y-103205820D01*
X125823658Y-103159327D01*
X125893932Y-103149223D01*
X125946002Y-103169176D01*
X125985642Y-103195663D01*
X125985645Y-103195664D01*
X125995961Y-103202557D01*
X126069027Y-103217091D01*
X127543375Y-103217091D01*
X127616441Y-103202557D01*
X127699302Y-103147192D01*
X127754667Y-103064331D01*
X127769201Y-102991265D01*
X127769201Y-102741917D01*
X127754667Y-102668851D01*
X127747774Y-102658535D01*
X127747773Y-102658532D01*
X127716409Y-102611593D01*
X127695194Y-102543840D01*
X127716409Y-102471589D01*
X127747773Y-102424650D01*
X127747774Y-102424647D01*
X127754667Y-102414331D01*
X127769201Y-102341265D01*
X127769201Y-102091917D01*
X127754667Y-102018851D01*
X127747774Y-102008535D01*
X127747773Y-102008532D01*
X127716409Y-101961593D01*
X127695194Y-101893840D01*
X127716409Y-101821589D01*
X127747773Y-101774650D01*
X127747774Y-101774647D01*
X127754667Y-101764331D01*
X127769201Y-101691265D01*
X127769201Y-101441917D01*
X127754667Y-101368851D01*
X127699302Y-101285990D01*
X127616441Y-101230625D01*
X127543375Y-101216091D01*
X127291995Y-101216091D01*
X127223874Y-101196089D01*
X127177381Y-101142433D01*
X127167277Y-101072159D01*
X127198579Y-101005536D01*
X127213178Y-100989407D01*
X127219200Y-100982754D01*
X127281710Y-100853733D01*
X127305496Y-100712354D01*
X127305647Y-100700000D01*
X127285323Y-100558082D01*
X127225984Y-100427572D01*
X127207598Y-100406234D01*
X127138260Y-100325763D01*
X127138257Y-100325760D01*
X127132400Y-100318963D01*
X127012095Y-100240985D01*
X126874739Y-100199907D01*
X126865763Y-100199852D01*
X126865762Y-100199852D01*
X126805555Y-100199484D01*
X126731376Y-100199031D01*
X126593529Y-100238428D01*
X126472280Y-100314930D01*
X126377377Y-100422388D01*
X126316447Y-100552163D01*
X126294391Y-100693823D01*
X126295555Y-100702725D01*
X126295555Y-100702728D01*
X126296814Y-100712354D01*
X126312980Y-100835979D01*
X126370720Y-100967203D01*
X126376499Y-100974078D01*
X126405867Y-101009016D01*
X126434388Y-101074032D01*
X126423232Y-101144147D01*
X126375939Y-101197099D01*
X126309416Y-101216091D01*
X126069027Y-101216091D01*
X125995961Y-101230625D01*
X125985645Y-101237518D01*
X125985642Y-101237519D01*
X125946002Y-101264006D01*
X125878249Y-101285221D01*
X125809782Y-101266438D01*
X125762339Y-101213620D01*
X125750000Y-101159241D01*
X125750000Y-100350000D01*
X124112410Y-100350000D01*
X124087829Y-100347579D01*
X124048047Y-100339666D01*
X124002626Y-100320852D01*
X123979418Y-100305345D01*
X123944655Y-100270582D01*
X123929148Y-100247374D01*
X123910334Y-100201953D01*
X123902421Y-100162171D01*
X123900000Y-100137590D01*
X123900000Y-97412410D01*
X123902421Y-97387829D01*
X123910334Y-97348047D01*
X123929148Y-97302626D01*
X123944655Y-97279418D01*
X123979418Y-97244655D01*
X124002626Y-97229148D01*
X124048047Y-97210334D01*
X124087829Y-97202421D01*
X124112410Y-97200000D01*
X128187590Y-97200000D01*
X128212171Y-97202421D01*
G37*
%TD.AperFunction*%
%TD*%
%TA.AperFunction,Conductor*%
%TO.N,VBOOST_OUT*%
G36*
X133065250Y-97153307D02*
G01*
X133111075Y-97164018D01*
X133162488Y-97189441D01*
X133198817Y-97219354D01*
X133218855Y-97240137D01*
X138585570Y-104265656D01*
X138585573Y-104265659D01*
X138650000Y-104350000D01*
X143587590Y-104350000D01*
X143612171Y-104352421D01*
X143651953Y-104360334D01*
X143697374Y-104379148D01*
X143720582Y-104394655D01*
X143755345Y-104429418D01*
X143770852Y-104452626D01*
X143789666Y-104498047D01*
X143797579Y-104537829D01*
X143800000Y-104562410D01*
X143800000Y-108837590D01*
X143797579Y-108862171D01*
X143789666Y-108901953D01*
X143770852Y-108947374D01*
X143755345Y-108970582D01*
X143720582Y-109005345D01*
X143697374Y-109020852D01*
X143651953Y-109039666D01*
X143612171Y-109047579D01*
X143587590Y-109050000D01*
X138761390Y-109050000D01*
X138733160Y-109046797D01*
X138687978Y-109036410D01*
X138637186Y-109011753D01*
X138629228Y-109005345D01*
X138601079Y-108982678D01*
X138581101Y-108962480D01*
X138569209Y-108947374D01*
X138552806Y-108926537D01*
X137280701Y-107310619D01*
X133164467Y-102081889D01*
X133164464Y-102081886D01*
X133160057Y-102076288D01*
X133160056Y-102076287D01*
X133100000Y-102000000D01*
X129462410Y-102000000D01*
X129437829Y-101997579D01*
X129398047Y-101989666D01*
X129352626Y-101970852D01*
X129329418Y-101955345D01*
X129294655Y-101920582D01*
X129279148Y-101897374D01*
X129260334Y-101851953D01*
X129252421Y-101812171D01*
X129250000Y-101787590D01*
X129250000Y-97362410D01*
X129252421Y-97337829D01*
X129260334Y-97298047D01*
X129279148Y-97252626D01*
X129294655Y-97229418D01*
X129329418Y-97194655D01*
X129352626Y-97179148D01*
X129398047Y-97160334D01*
X129437829Y-97152421D01*
X129462410Y-97150000D01*
X133036572Y-97150000D01*
X133065250Y-97153307D01*
G37*
%TD.AperFunction*%
%TD*%
%TA.AperFunction,Conductor*%
%TO.N,VBUS_SWITCH*%
G36*
X115150000Y-102249958D02*
G01*
X115148833Y-102249814D01*
X115148833Y-102250000D01*
X106300000Y-102250000D01*
X106300000Y-100600000D01*
X115150000Y-100600000D01*
X115150000Y-102249958D01*
G37*
%TD.AperFunction*%
%TD*%
%TA.AperFunction,Conductor*%
%TO.N,VBUS_DRAIN*%
G36*
X133143142Y-103480953D02*
G01*
X133143143Y-103480955D01*
X133237750Y-103600552D01*
X136124111Y-107249348D01*
X138239944Y-109924081D01*
X138239946Y-109924082D01*
X138300000Y-110000000D01*
X143687590Y-110000000D01*
X143712171Y-110002421D01*
X143751953Y-110010334D01*
X143797374Y-110029148D01*
X143820582Y-110044655D01*
X143855345Y-110079418D01*
X143870852Y-110102626D01*
X143889666Y-110148047D01*
X143897579Y-110187829D01*
X143900000Y-110212410D01*
X143900000Y-113787590D01*
X143897579Y-113812171D01*
X143889666Y-113851953D01*
X143870852Y-113897374D01*
X143855345Y-113920582D01*
X143820582Y-113955345D01*
X143797374Y-113970852D01*
X143751953Y-113989666D01*
X143712171Y-113997579D01*
X143687590Y-114000000D01*
X138610799Y-114000000D01*
X138582699Y-113996827D01*
X138563910Y-113992528D01*
X138537707Y-113986534D01*
X138487097Y-113962097D01*
X138451052Y-113933261D01*
X138431097Y-113913233D01*
X138401956Y-113876537D01*
X135482353Y-110200000D01*
X133100000Y-107200000D01*
X133000000Y-103300000D01*
X133143142Y-103480953D01*
G37*
%TD.AperFunction*%
%TD*%
%TA.AperFunction,Conductor*%
%TO.N,VBUS_OPEN*%
G36*
X95467102Y-99000021D02*
G01*
X95562499Y-99001770D01*
X95567448Y-99000421D01*
X95574231Y-99000000D01*
X96464791Y-99000000D01*
X96467102Y-99000021D01*
X96562499Y-99001770D01*
X96567448Y-99000421D01*
X96574231Y-99000000D01*
X97464791Y-99000000D01*
X97467102Y-99000021D01*
X97562499Y-99001770D01*
X97567448Y-99000421D01*
X97574231Y-99000000D01*
X98464791Y-99000000D01*
X98467102Y-99000021D01*
X98562499Y-99001770D01*
X98567448Y-99000421D01*
X98574231Y-99000000D01*
X99187590Y-99000000D01*
X99212171Y-99002421D01*
X99251953Y-99010334D01*
X99297374Y-99029148D01*
X99320582Y-99044655D01*
X99355345Y-99079418D01*
X99370852Y-99102626D01*
X99389666Y-99148047D01*
X99397579Y-99187829D01*
X99400000Y-99212410D01*
X99400000Y-106987590D01*
X99397579Y-107012171D01*
X99389666Y-107051953D01*
X99370852Y-107097374D01*
X99355345Y-107120582D01*
X99320582Y-107155345D01*
X99297374Y-107170852D01*
X99251953Y-107189666D01*
X99212171Y-107197579D01*
X99187590Y-107200000D01*
X95312410Y-107200000D01*
X95287829Y-107197579D01*
X95248047Y-107189666D01*
X95202626Y-107170852D01*
X95179418Y-107155345D01*
X95144655Y-107120582D01*
X95129148Y-107097374D01*
X95110334Y-107051953D01*
X95102421Y-107012171D01*
X95100000Y-106987590D01*
X95100000Y-99212410D01*
X95102421Y-99187829D01*
X95110334Y-99148047D01*
X95129148Y-99102626D01*
X95144655Y-99079418D01*
X95179418Y-99044655D01*
X95202626Y-99029148D01*
X95248047Y-99010334D01*
X95287829Y-99002421D01*
X95312410Y-99000000D01*
X95464791Y-99000000D01*
X95467102Y-99000021D01*
G37*
%TD.AperFunction*%
%TD*%
%TA.AperFunction,Conductor*%
%TO.N,VBUS_SWITCH*%
G36*
X123462171Y-97202421D02*
G01*
X123501953Y-97210334D01*
X123547374Y-97229148D01*
X123570582Y-97244655D01*
X123605345Y-97279418D01*
X123620852Y-97302626D01*
X123639666Y-97348047D01*
X123647579Y-97387829D01*
X123650000Y-97412410D01*
X123650000Y-100450000D01*
X123884491Y-100450000D01*
X123938367Y-100462099D01*
X123940384Y-100463053D01*
X123943119Y-100464515D01*
X123945972Y-100465697D01*
X123945981Y-100465701D01*
X123980584Y-100480034D01*
X123988540Y-100483329D01*
X124001176Y-100487162D01*
X124014746Y-100491279D01*
X124014754Y-100491281D01*
X124017711Y-100492178D01*
X124020740Y-100492780D01*
X124020746Y-100492782D01*
X124034766Y-100495570D01*
X124057493Y-100500091D01*
X124059033Y-100500319D01*
X124059042Y-100500321D01*
X124071028Y-100502099D01*
X124071038Y-100502100D01*
X124072587Y-100502330D01*
X124074142Y-100502483D01*
X124074157Y-100502485D01*
X124095632Y-100504600D01*
X124095643Y-100504601D01*
X124097168Y-100504751D01*
X124098692Y-100504826D01*
X124098707Y-100504827D01*
X124110859Y-100505424D01*
X124110868Y-100505424D01*
X124112410Y-100505500D01*
X125417852Y-100505500D01*
X125485973Y-100525502D01*
X125532466Y-100579158D01*
X125541431Y-100606920D01*
X125547579Y-100637830D01*
X125550000Y-100662410D01*
X125550000Y-101850000D01*
X125879081Y-101850000D01*
X125949082Y-101871234D01*
X125995961Y-101902557D01*
X126069027Y-101917091D01*
X127446951Y-101917091D01*
X127515072Y-101937093D01*
X127561565Y-101990749D01*
X127564956Y-101999600D01*
X127565021Y-101999575D01*
X127566669Y-102003762D01*
X127568014Y-102008059D01*
X127587115Y-102047983D01*
X127589616Y-102051726D01*
X127592467Y-102055993D01*
X127613701Y-102125994D01*
X127613701Y-102307188D01*
X127592467Y-102377189D01*
X127589773Y-102381220D01*
X127589770Y-102381226D01*
X127587115Y-102385199D01*
X127567208Y-102427779D01*
X127565861Y-102432368D01*
X127546287Y-102499027D01*
X127546279Y-102499055D01*
X127545993Y-102500030D01*
X127543447Y-102509883D01*
X127546799Y-102590306D01*
X127568014Y-102658059D01*
X127587115Y-102697983D01*
X127589616Y-102701726D01*
X127592467Y-102705993D01*
X127613701Y-102775994D01*
X127613701Y-102935591D01*
X127593699Y-103003712D01*
X127540043Y-103050205D01*
X127487701Y-103061591D01*
X126103104Y-103061591D01*
X126039179Y-103042202D01*
X126038341Y-103043621D01*
X126035312Y-103041833D01*
X126032392Y-103039882D01*
X126001644Y-103023972D01*
X125949574Y-103004019D01*
X125941605Y-103003126D01*
X125941604Y-103003126D01*
X125929882Y-103001813D01*
X125871802Y-102995306D01*
X125801528Y-103005410D01*
X125793329Y-103009154D01*
X125793330Y-103009154D01*
X125730024Y-103038064D01*
X125730021Y-103038066D01*
X125721827Y-103041808D01*
X125715019Y-103047707D01*
X125715016Y-103047709D01*
X125690186Y-103069225D01*
X125625605Y-103098718D01*
X125607674Y-103100000D01*
X121650000Y-103100000D01*
X121650000Y-102514351D01*
X121714609Y-102518968D01*
X121740583Y-102532260D01*
X121770961Y-102552557D01*
X121844027Y-102567091D01*
X123318375Y-102567091D01*
X123391441Y-102552557D01*
X123474302Y-102497192D01*
X123517615Y-102432368D01*
X123522773Y-102424649D01*
X123522773Y-102424648D01*
X123529667Y-102414331D01*
X123544201Y-102341265D01*
X123544201Y-102091917D01*
X123529667Y-102018851D01*
X123522774Y-102008535D01*
X123522773Y-102008532D01*
X123491409Y-101961593D01*
X123470194Y-101893840D01*
X123491409Y-101821589D01*
X123522773Y-101774650D01*
X123522774Y-101774647D01*
X123529667Y-101764331D01*
X123544201Y-101691265D01*
X123544201Y-101441917D01*
X123529667Y-101368851D01*
X123474302Y-101285990D01*
X123391441Y-101230625D01*
X123318375Y-101216091D01*
X121844027Y-101216091D01*
X121800582Y-101224733D01*
X121729868Y-101218405D01*
X121673801Y-101174851D01*
X121650000Y-101101154D01*
X121650000Y-97412410D01*
X121652421Y-97387829D01*
X121660334Y-97348047D01*
X121679148Y-97302626D01*
X121694655Y-97279418D01*
X121729418Y-97244655D01*
X121752626Y-97229148D01*
X121798047Y-97210334D01*
X121837829Y-97202421D01*
X121862410Y-97200000D01*
X123437590Y-97200000D01*
X123462171Y-97202421D01*
G37*
%TD.AperFunction*%
%TD*%
%TA.AperFunction,Conductor*%
%TO.N,VBUS_DRAIN*%
G36*
X132912171Y-96702421D02*
G01*
X132951953Y-96710334D01*
X132997374Y-96729148D01*
X133020582Y-96744655D01*
X133055345Y-96779418D01*
X133068094Y-96798498D01*
X133089309Y-96866250D01*
X133070526Y-96934717D01*
X133017709Y-96982161D01*
X132963329Y-96994500D01*
X129462410Y-96994500D01*
X129460868Y-96994576D01*
X129460859Y-96994576D01*
X129448707Y-96995173D01*
X129448692Y-96995174D01*
X129447168Y-96995249D01*
X129445643Y-96995399D01*
X129445632Y-96995400D01*
X129424157Y-96997515D01*
X129424142Y-96997517D01*
X129422587Y-96997670D01*
X129421038Y-96997900D01*
X129421028Y-96997901D01*
X129409042Y-96999679D01*
X129409033Y-96999681D01*
X129407493Y-96999909D01*
X129384766Y-97004430D01*
X129370746Y-97007218D01*
X129370740Y-97007220D01*
X129367711Y-97007822D01*
X129364754Y-97008719D01*
X129364746Y-97008721D01*
X129351963Y-97012599D01*
X129338540Y-97016671D01*
X129293119Y-97035485D01*
X129290399Y-97036939D01*
X129290388Y-97036944D01*
X129268966Y-97048394D01*
X129268961Y-97048397D01*
X129266235Y-97049854D01*
X129263664Y-97051572D01*
X129245593Y-97063646D01*
X129245587Y-97063651D01*
X129243027Y-97065361D01*
X129219463Y-97084700D01*
X129184700Y-97119463D01*
X129165361Y-97143027D01*
X129163651Y-97145587D01*
X129163646Y-97145593D01*
X129154099Y-97159882D01*
X129149854Y-97166235D01*
X129148397Y-97168961D01*
X129148394Y-97168966D01*
X129136944Y-97190388D01*
X129136939Y-97190399D01*
X129135485Y-97193119D01*
X129116671Y-97238540D01*
X129107822Y-97267711D01*
X129099909Y-97307493D01*
X129097670Y-97322587D01*
X129095249Y-97347168D01*
X129095174Y-97348692D01*
X129095173Y-97348707D01*
X129094576Y-97360859D01*
X129094500Y-97362410D01*
X129094500Y-101787590D01*
X129095249Y-101802832D01*
X129097670Y-101827413D01*
X129099909Y-101842507D01*
X129107822Y-101882289D01*
X129116671Y-101911460D01*
X129135485Y-101956881D01*
X129136939Y-101959601D01*
X129136944Y-101959612D01*
X129148394Y-101981034D01*
X129149854Y-101983765D01*
X129165361Y-102006973D01*
X129184700Y-102030537D01*
X129219463Y-102065300D01*
X129243027Y-102084639D01*
X129245587Y-102086349D01*
X129245593Y-102086354D01*
X129259882Y-102095901D01*
X129266235Y-102100146D01*
X129268961Y-102101603D01*
X129268966Y-102101606D01*
X129290388Y-102113056D01*
X129290399Y-102113061D01*
X129293119Y-102114515D01*
X129338540Y-102133329D01*
X129351176Y-102137162D01*
X129364746Y-102141279D01*
X129364754Y-102141281D01*
X129367711Y-102142178D01*
X129370740Y-102142780D01*
X129370746Y-102142782D01*
X129384766Y-102145570D01*
X129407493Y-102150091D01*
X129409033Y-102150319D01*
X129409042Y-102150321D01*
X129421028Y-102152099D01*
X129421038Y-102152100D01*
X129422587Y-102152330D01*
X129424142Y-102152483D01*
X129424157Y-102152485D01*
X129445632Y-102154600D01*
X129445643Y-102154601D01*
X129447168Y-102154751D01*
X129448692Y-102154826D01*
X129448707Y-102154827D01*
X129460859Y-102155424D01*
X129460868Y-102155424D01*
X129462410Y-102155500D01*
X131824334Y-102155500D01*
X131892455Y-102175502D01*
X131938948Y-102229158D01*
X131949052Y-102299432D01*
X131919558Y-102364012D01*
X131881537Y-102393767D01*
X131858690Y-102405408D01*
X131781597Y-102444689D01*
X131694689Y-102531597D01*
X131638891Y-102641107D01*
X131624500Y-102731967D01*
X131624501Y-103293032D01*
X131638891Y-103383893D01*
X131694689Y-103493403D01*
X131737595Y-103536309D01*
X131771621Y-103598621D01*
X131774500Y-103625404D01*
X131774500Y-103763938D01*
X131754498Y-103832059D01*
X131730164Y-103859891D01*
X131729870Y-103860141D01*
X131722280Y-103864930D01*
X131627377Y-103972388D01*
X131566447Y-104102163D01*
X131561396Y-104134607D01*
X131547296Y-104225168D01*
X131544391Y-104243823D01*
X131545555Y-104252725D01*
X131545555Y-104252728D01*
X131546814Y-104262354D01*
X131562980Y-104385979D01*
X131620720Y-104517203D01*
X131626497Y-104524076D01*
X131626498Y-104524077D01*
X131633792Y-104532754D01*
X131712970Y-104626948D01*
X131720447Y-104631925D01*
X131727135Y-104637905D01*
X131725788Y-104639412D01*
X131763944Y-104684912D01*
X131774500Y-104735396D01*
X131774500Y-104906584D01*
X131754498Y-104974705D01*
X131700842Y-105021198D01*
X131668211Y-105031032D01*
X131649421Y-105034008D01*
X131617944Y-105038993D01*
X131617942Y-105038994D01*
X131608147Y-105040545D01*
X131498637Y-105096343D01*
X131411729Y-105183251D01*
X131355931Y-105292761D01*
X131341540Y-105383621D01*
X131341541Y-105919686D01*
X131342316Y-105924577D01*
X131342316Y-105924579D01*
X131353452Y-105994891D01*
X131355931Y-106010547D01*
X131411729Y-106120057D01*
X131498637Y-106206965D01*
X131608147Y-106262763D01*
X131617937Y-106264314D01*
X131617938Y-106264314D01*
X131642812Y-106268253D01*
X131699007Y-106277154D01*
X131979483Y-106277154D01*
X132260072Y-106277153D01*
X132282717Y-106273567D01*
X132341135Y-106264315D01*
X132341137Y-106264315D01*
X132350933Y-106262763D01*
X132460443Y-106206965D01*
X132547351Y-106120057D01*
X132603149Y-106010547D01*
X132617540Y-105919687D01*
X132617539Y-105383622D01*
X132610642Y-105340072D01*
X132604701Y-105302559D01*
X132604701Y-105302557D01*
X132603149Y-105292761D01*
X132547351Y-105183251D01*
X132460443Y-105096343D01*
X132394297Y-105062640D01*
X132342682Y-105013892D01*
X132325500Y-104950373D01*
X132325500Y-104735976D01*
X132345502Y-104667855D01*
X132368637Y-104641718D01*
X132372991Y-104639045D01*
X132469200Y-104532754D01*
X132531710Y-104403733D01*
X132555496Y-104262354D01*
X132555647Y-104250000D01*
X132545352Y-104178115D01*
X132536596Y-104116968D01*
X132536595Y-104116965D01*
X132535323Y-104108082D01*
X132528955Y-104094075D01*
X132502066Y-104034936D01*
X132475984Y-103977572D01*
X132397174Y-103886109D01*
X132388262Y-103875766D01*
X132388261Y-103875766D01*
X132382400Y-103868963D01*
X132381253Y-103868219D01*
X132345129Y-103811595D01*
X132345365Y-103740599D01*
X132383947Y-103681001D01*
X132448625Y-103651723D01*
X132466142Y-103650499D01*
X132518032Y-103650499D01*
X132567081Y-103642731D01*
X132599095Y-103637661D01*
X132599097Y-103637661D01*
X132608893Y-103636109D01*
X132718403Y-103580311D01*
X132805311Y-103493403D01*
X132861109Y-103383893D01*
X132864249Y-103385493D01*
X132894248Y-103341628D01*
X132959646Y-103313996D01*
X133029602Y-103326108D01*
X133081905Y-103374118D01*
X133100000Y-103439176D01*
X133100000Y-107084548D01*
X133095736Y-107117050D01*
X133082062Y-107168265D01*
X133049663Y-107224616D01*
X133024348Y-107250069D01*
X132968169Y-107282775D01*
X132917027Y-107296725D01*
X132884550Y-107301164D01*
X122096505Y-107359478D01*
X114600000Y-107400000D01*
X114600000Y-102531500D01*
X114620002Y-102463379D01*
X114673658Y-102416886D01*
X114726000Y-102405500D01*
X115148833Y-102405500D01*
X115148833Y-102405616D01*
X115151683Y-102405462D01*
X115152113Y-102405486D01*
X115409994Y-102402491D01*
X115478341Y-102421701D01*
X115525454Y-102474813D01*
X115536373Y-102544965D01*
X115507632Y-102609884D01*
X115468659Y-102640750D01*
X115463476Y-102643391D01*
X115362798Y-102694689D01*
X115275890Y-102781597D01*
X115220092Y-102891107D01*
X115205701Y-102981967D01*
X115205702Y-103543032D01*
X115220092Y-103633893D01*
X115275890Y-103743403D01*
X115362798Y-103830311D01*
X115472308Y-103886109D01*
X115472906Y-103886204D01*
X115527245Y-103923362D01*
X115554880Y-103988760D01*
X115555701Y-104003119D01*
X115555701Y-104794425D01*
X115535699Y-104862546D01*
X115486904Y-104906692D01*
X115387798Y-104957189D01*
X115300890Y-105044097D01*
X115245092Y-105153607D01*
X115230701Y-105244467D01*
X115230702Y-105780532D01*
X115245092Y-105871393D01*
X115300890Y-105980903D01*
X115387798Y-106067811D01*
X115497308Y-106123609D01*
X115507098Y-106125160D01*
X115507099Y-106125160D01*
X115531973Y-106129099D01*
X115588168Y-106138000D01*
X115906136Y-106138000D01*
X116224233Y-106137999D01*
X116246878Y-106134413D01*
X116305296Y-106125161D01*
X116305298Y-106125161D01*
X116315094Y-106123609D01*
X116343837Y-106108964D01*
X116415772Y-106072311D01*
X116415771Y-106072311D01*
X116424604Y-106067811D01*
X116511512Y-105980903D01*
X116567310Y-105871393D01*
X116581701Y-105780533D01*
X116581700Y-105350212D01*
X123522741Y-105350212D01*
X123522742Y-105886277D01*
X123537132Y-105977138D01*
X123541635Y-105985975D01*
X123541635Y-105985976D01*
X123549162Y-106000749D01*
X123592930Y-106086648D01*
X123679838Y-106173556D01*
X123789348Y-106229354D01*
X123799138Y-106230905D01*
X123799139Y-106230905D01*
X123824013Y-106234844D01*
X123880208Y-106243745D01*
X124210674Y-106243745D01*
X124541273Y-106243744D01*
X124563918Y-106240158D01*
X124622336Y-106230906D01*
X124622338Y-106230906D01*
X124632134Y-106229354D01*
X124741644Y-106173556D01*
X124828552Y-106086648D01*
X124862827Y-106019380D01*
X124879851Y-105985969D01*
X124879852Y-105985966D01*
X124884350Y-105977138D01*
X124884786Y-105974387D01*
X124922627Y-105919047D01*
X124988024Y-105891411D01*
X125057981Y-105903519D01*
X125098835Y-105935514D01*
X125144171Y-105989448D01*
X125151648Y-105994425D01*
X125251361Y-106060800D01*
X125263514Y-106068890D01*
X125400358Y-106111642D01*
X125409330Y-106111806D01*
X125409333Y-106111807D01*
X125474664Y-106113004D01*
X125543700Y-106114270D01*
X125552734Y-106111807D01*
X125673359Y-106078921D01*
X125673361Y-106078920D01*
X125682018Y-106076560D01*
X125804192Y-106001545D01*
X125900401Y-105895254D01*
X125955983Y-105780532D01*
X125958996Y-105774314D01*
X125958996Y-105774313D01*
X125962911Y-105766233D01*
X125986697Y-105624854D01*
X125986848Y-105612500D01*
X125966524Y-105470582D01*
X125907185Y-105340072D01*
X125857067Y-105281907D01*
X125819461Y-105238263D01*
X125819458Y-105238260D01*
X125813601Y-105231463D01*
X125693296Y-105153485D01*
X125555940Y-105112407D01*
X125546964Y-105112352D01*
X125546963Y-105112352D01*
X125486756Y-105111984D01*
X125412577Y-105111531D01*
X125274730Y-105150928D01*
X125153481Y-105227430D01*
X125116642Y-105269143D01*
X125105369Y-105281907D01*
X125045283Y-105319726D01*
X125010927Y-105324500D01*
X124994758Y-105324500D01*
X124926637Y-105304498D01*
X124882491Y-105255703D01*
X124833052Y-105158674D01*
X124828552Y-105149842D01*
X124741644Y-105062934D01*
X124632134Y-105007136D01*
X124622344Y-105005585D01*
X124622343Y-105005585D01*
X124597469Y-105001646D01*
X124541274Y-104992745D01*
X124210808Y-104992745D01*
X123880209Y-104992746D01*
X123875315Y-104993521D01*
X123875316Y-104993521D01*
X123799146Y-105005584D01*
X123799144Y-105005584D01*
X123789348Y-105007136D01*
X123780511Y-105011639D01*
X123780510Y-105011639D01*
X123752021Y-105026155D01*
X123679838Y-105062934D01*
X123592930Y-105149842D01*
X123537132Y-105259352D01*
X123535581Y-105269142D01*
X123535581Y-105269143D01*
X123533240Y-105283923D01*
X123522741Y-105350212D01*
X116581700Y-105350212D01*
X116581700Y-105244468D01*
X116572005Y-105183251D01*
X116568862Y-105163405D01*
X116568862Y-105163403D01*
X116567310Y-105153607D01*
X116561820Y-105142831D01*
X116516012Y-105052929D01*
X116511512Y-105044097D01*
X116424604Y-104957189D01*
X116315094Y-104901391D01*
X116305304Y-104899840D01*
X116305303Y-104899840D01*
X116256705Y-104892143D01*
X116224234Y-104887000D01*
X116222085Y-104887000D01*
X116156473Y-104861992D01*
X116114334Y-104804854D01*
X116106701Y-104761666D01*
X116106701Y-104003118D01*
X116126703Y-103934997D01*
X116180359Y-103888504D01*
X116184055Y-103887065D01*
X116190094Y-103886109D01*
X116210394Y-103875766D01*
X116290772Y-103834811D01*
X116290771Y-103834811D01*
X116299604Y-103830311D01*
X116386512Y-103743403D01*
X116442310Y-103633893D01*
X116456701Y-103543033D01*
X116456700Y-102981968D01*
X116442310Y-102891107D01*
X116386512Y-102781597D01*
X116299604Y-102694689D01*
X116190094Y-102638891D01*
X116183539Y-102637853D01*
X116126436Y-102598805D01*
X116098800Y-102533407D01*
X116110908Y-102463451D01*
X116158915Y-102411146D01*
X116222514Y-102393055D01*
X117528245Y-102377892D01*
X118299270Y-102368938D01*
X118367617Y-102388148D01*
X118417476Y-102447528D01*
X118597585Y-102891107D01*
X119042450Y-103986737D01*
X119048781Y-104000394D01*
X119060082Y-104021967D01*
X119067697Y-104034936D01*
X119068539Y-104036223D01*
X119068542Y-104036228D01*
X119087820Y-104065697D01*
X119089607Y-104068429D01*
X119108421Y-104091880D01*
X119142276Y-104126589D01*
X119165246Y-104145978D01*
X119167756Y-104147711D01*
X119167764Y-104147717D01*
X119185415Y-104159903D01*
X119185422Y-104159907D01*
X119187923Y-104161634D01*
X119214197Y-104176242D01*
X119258656Y-104195598D01*
X119287251Y-104204878D01*
X119308739Y-104209615D01*
X119324831Y-104213163D01*
X119324845Y-104213166D01*
X119326334Y-104213494D01*
X119327846Y-104213751D01*
X119327844Y-104213751D01*
X119339667Y-104215764D01*
X119339680Y-104215766D01*
X119341161Y-104216018D01*
X119342659Y-104216199D01*
X119342673Y-104216201D01*
X119355540Y-104217755D01*
X119365340Y-104218939D01*
X119371130Y-104219355D01*
X119378810Y-104219908D01*
X119378818Y-104219908D01*
X119380356Y-104220019D01*
X119381882Y-104220055D01*
X119381889Y-104220055D01*
X120776568Y-104252657D01*
X120776575Y-104252657D01*
X120778416Y-104252700D01*
X120796874Y-104252034D01*
X120798746Y-104251855D01*
X120798757Y-104251854D01*
X120818112Y-104250000D01*
X120826612Y-104249186D01*
X120828476Y-104248895D01*
X120843017Y-104246625D01*
X120843024Y-104246624D01*
X120844854Y-104246338D01*
X120867339Y-104241445D01*
X120888688Y-104236799D01*
X120888692Y-104236798D01*
X120892349Y-104236002D01*
X120895881Y-104234780D01*
X120895884Y-104234779D01*
X120923659Y-104225168D01*
X120923661Y-104225167D01*
X120927193Y-104223945D01*
X120980565Y-104198035D01*
X121011590Y-104178115D01*
X121049094Y-104147186D01*
X121052971Y-104143581D01*
X121061246Y-104135887D01*
X121061255Y-104135878D01*
X121062622Y-104134607D01*
X121083252Y-104113002D01*
X121092436Y-104102163D01*
X121093982Y-104100339D01*
X121093989Y-104100330D01*
X121095189Y-104098914D01*
X121689950Y-103305900D01*
X121746824Y-103263405D01*
X121790750Y-103255500D01*
X125468500Y-103255500D01*
X125536621Y-103275502D01*
X125583114Y-103329158D01*
X125594500Y-103381500D01*
X125594500Y-103737590D01*
X125594576Y-103739132D01*
X125594576Y-103739141D01*
X125594786Y-103743403D01*
X125595249Y-103752832D01*
X125597670Y-103777413D01*
X125599909Y-103792507D01*
X125607822Y-103832289D01*
X125616671Y-103861460D01*
X125635485Y-103906881D01*
X125636939Y-103909601D01*
X125636944Y-103909612D01*
X125648394Y-103931034D01*
X125649854Y-103933765D01*
X125665361Y-103956973D01*
X125684700Y-103980537D01*
X125719463Y-104015300D01*
X125743027Y-104034639D01*
X125745587Y-104036349D01*
X125745593Y-104036354D01*
X125759882Y-104045901D01*
X125766235Y-104050146D01*
X125768961Y-104051603D01*
X125768966Y-104051606D01*
X125790388Y-104063056D01*
X125790399Y-104063061D01*
X125793119Y-104064515D01*
X125838540Y-104083329D01*
X125851176Y-104087162D01*
X125864746Y-104091279D01*
X125864754Y-104091281D01*
X125867711Y-104092178D01*
X125870740Y-104092780D01*
X125870746Y-104092782D01*
X125884766Y-104095570D01*
X125907493Y-104100091D01*
X125909033Y-104100319D01*
X125909042Y-104100321D01*
X125921028Y-104102099D01*
X125921038Y-104102100D01*
X125922587Y-104102330D01*
X125924142Y-104102483D01*
X125924157Y-104102485D01*
X125945632Y-104104600D01*
X125945643Y-104104601D01*
X125947168Y-104104751D01*
X125948692Y-104104826D01*
X125948707Y-104104827D01*
X125960859Y-104105424D01*
X125960868Y-104105424D01*
X125962410Y-104105500D01*
X128187590Y-104105500D01*
X128189132Y-104105424D01*
X128189141Y-104105424D01*
X128201293Y-104104827D01*
X128201308Y-104104826D01*
X128202832Y-104104751D01*
X128204357Y-104104601D01*
X128204368Y-104104600D01*
X128225843Y-104102485D01*
X128225858Y-104102483D01*
X128227413Y-104102330D01*
X128228962Y-104102100D01*
X128228972Y-104102099D01*
X128240958Y-104100321D01*
X128240967Y-104100319D01*
X128242507Y-104100091D01*
X128265234Y-104095570D01*
X128279254Y-104092782D01*
X128279260Y-104092780D01*
X128282289Y-104092178D01*
X128285246Y-104091281D01*
X128285254Y-104091279D01*
X128298824Y-104087162D01*
X128311460Y-104083329D01*
X128356881Y-104064515D01*
X128359601Y-104063061D01*
X128359612Y-104063056D01*
X128381034Y-104051606D01*
X128381039Y-104051603D01*
X128383765Y-104050146D01*
X128390118Y-104045901D01*
X128404407Y-104036354D01*
X128404413Y-104036349D01*
X128406973Y-104034639D01*
X128430537Y-104015300D01*
X128465300Y-103980537D01*
X128484639Y-103956973D01*
X128500146Y-103933765D01*
X128501606Y-103931034D01*
X128513056Y-103909612D01*
X128513061Y-103909601D01*
X128514515Y-103906881D01*
X128533329Y-103861460D01*
X128542178Y-103832289D01*
X128550091Y-103792507D01*
X128552330Y-103777413D01*
X128554751Y-103752832D01*
X128555215Y-103743403D01*
X128555424Y-103739141D01*
X128555424Y-103739132D01*
X128555500Y-103737590D01*
X128555500Y-97412410D01*
X128554751Y-97397168D01*
X128552330Y-97372587D01*
X128551051Y-97363960D01*
X128550321Y-97359042D01*
X128550319Y-97359033D01*
X128550091Y-97357493D01*
X128542178Y-97317711D01*
X128539549Y-97309042D01*
X128534226Y-97291498D01*
X128533329Y-97288540D01*
X128514515Y-97243119D01*
X128513061Y-97240399D01*
X128513056Y-97240388D01*
X128501606Y-97218966D01*
X128501603Y-97218961D01*
X128500146Y-97216235D01*
X128495901Y-97209882D01*
X128486354Y-97195593D01*
X128486349Y-97195587D01*
X128484639Y-97193027D01*
X128465300Y-97169463D01*
X128430537Y-97134700D01*
X128406973Y-97115361D01*
X128404413Y-97113651D01*
X128404407Y-97113646D01*
X128386336Y-97101572D01*
X128383765Y-97099854D01*
X128381039Y-97098397D01*
X128381034Y-97098394D01*
X128359612Y-97086944D01*
X128359601Y-97086939D01*
X128356881Y-97085485D01*
X128311460Y-97066671D01*
X128298824Y-97062838D01*
X128285254Y-97058721D01*
X128285246Y-97058719D01*
X128282289Y-97057822D01*
X128279260Y-97057220D01*
X128279254Y-97057218D01*
X128265234Y-97054430D01*
X128242507Y-97049909D01*
X128240967Y-97049681D01*
X128240958Y-97049679D01*
X128228972Y-97047901D01*
X128228962Y-97047900D01*
X128227413Y-97047670D01*
X128225858Y-97047517D01*
X128225843Y-97047515D01*
X128204368Y-97045400D01*
X128204357Y-97045399D01*
X128202832Y-97045249D01*
X128201308Y-97045174D01*
X128201293Y-97045173D01*
X128189141Y-97044576D01*
X128189132Y-97044576D01*
X128187590Y-97044500D01*
X124112410Y-97044500D01*
X124110868Y-97044576D01*
X124110859Y-97044576D01*
X124098707Y-97045173D01*
X124098692Y-97045174D01*
X124097168Y-97045249D01*
X124095643Y-97045399D01*
X124095632Y-97045400D01*
X124074157Y-97047515D01*
X124074142Y-97047517D01*
X124072587Y-97047670D01*
X124071038Y-97047900D01*
X124071028Y-97047901D01*
X124059042Y-97049679D01*
X124059033Y-97049681D01*
X124057493Y-97049909D01*
X124034766Y-97054430D01*
X124020746Y-97057218D01*
X124020740Y-97057220D01*
X124017711Y-97057822D01*
X124014754Y-97058719D01*
X124014746Y-97058721D01*
X124001176Y-97062838D01*
X123988540Y-97066671D01*
X123943119Y-97085485D01*
X123940399Y-97086939D01*
X123940388Y-97086944D01*
X123918966Y-97098394D01*
X123918961Y-97098397D01*
X123916235Y-97099854D01*
X123913664Y-97101572D01*
X123895593Y-97113646D01*
X123895587Y-97113651D01*
X123893027Y-97115361D01*
X123869463Y-97134700D01*
X123864095Y-97140068D01*
X123801783Y-97174094D01*
X123730968Y-97169029D01*
X123685905Y-97140068D01*
X123680537Y-97134700D01*
X123656973Y-97115361D01*
X123654413Y-97113651D01*
X123654407Y-97113646D01*
X123636336Y-97101572D01*
X123633765Y-97099854D01*
X123631039Y-97098397D01*
X123631034Y-97098394D01*
X123609612Y-97086944D01*
X123609601Y-97086939D01*
X123606881Y-97085485D01*
X123561460Y-97066671D01*
X123548824Y-97062838D01*
X123535254Y-97058721D01*
X123535246Y-97058719D01*
X123532289Y-97057822D01*
X123529260Y-97057220D01*
X123529254Y-97057218D01*
X123515234Y-97054430D01*
X123492507Y-97049909D01*
X123490967Y-97049681D01*
X123490958Y-97049679D01*
X123478972Y-97047901D01*
X123478962Y-97047900D01*
X123477413Y-97047670D01*
X123475858Y-97047517D01*
X123475843Y-97047515D01*
X123454368Y-97045400D01*
X123454357Y-97045399D01*
X123452832Y-97045249D01*
X123451308Y-97045174D01*
X123451293Y-97045173D01*
X123439141Y-97044576D01*
X123439132Y-97044576D01*
X123437590Y-97044500D01*
X121862410Y-97044500D01*
X121860868Y-97044576D01*
X121860859Y-97044576D01*
X121848707Y-97045173D01*
X121848692Y-97045174D01*
X121847168Y-97045249D01*
X121845643Y-97045399D01*
X121845632Y-97045400D01*
X121824157Y-97047515D01*
X121824142Y-97047517D01*
X121822587Y-97047670D01*
X121821038Y-97047900D01*
X121821028Y-97047901D01*
X121809042Y-97049679D01*
X121809033Y-97049681D01*
X121807493Y-97049909D01*
X121784766Y-97054430D01*
X121770746Y-97057218D01*
X121770740Y-97057220D01*
X121767711Y-97057822D01*
X121764754Y-97058719D01*
X121764746Y-97058721D01*
X121751176Y-97062838D01*
X121738540Y-97066671D01*
X121693119Y-97085485D01*
X121690399Y-97086939D01*
X121690388Y-97086944D01*
X121668966Y-97098394D01*
X121668961Y-97098397D01*
X121666235Y-97099854D01*
X121663664Y-97101572D01*
X121645593Y-97113646D01*
X121645587Y-97113651D01*
X121643027Y-97115361D01*
X121619463Y-97134700D01*
X121584700Y-97169463D01*
X121565361Y-97193027D01*
X121563651Y-97195587D01*
X121563646Y-97195593D01*
X121554099Y-97209882D01*
X121549854Y-97216235D01*
X121548397Y-97218961D01*
X121548394Y-97218966D01*
X121536944Y-97240388D01*
X121536939Y-97240399D01*
X121535485Y-97243119D01*
X121516671Y-97288540D01*
X121515774Y-97291498D01*
X121510452Y-97309042D01*
X121507822Y-97317711D01*
X121499909Y-97357493D01*
X121499681Y-97359033D01*
X121499679Y-97359042D01*
X121498950Y-97363960D01*
X121497670Y-97372587D01*
X121495249Y-97397168D01*
X121494500Y-97412410D01*
X121494500Y-101101154D01*
X121495265Y-101106014D01*
X121495445Y-101108310D01*
X121480818Y-101177784D01*
X121430952Y-101228320D01*
X121361681Y-101243875D01*
X121294996Y-101219510D01*
X121280734Y-101207234D01*
X120656106Y-100582606D01*
X120622080Y-100520294D01*
X120619201Y-100493511D01*
X120619201Y-100241830D01*
X120639203Y-100173709D01*
X120692859Y-100127216D01*
X120725491Y-100117381D01*
X120765094Y-100111109D01*
X120874604Y-100055311D01*
X120961512Y-99968403D01*
X121017310Y-99858893D01*
X121031701Y-99768033D01*
X121031700Y-99231968D01*
X121017310Y-99141107D01*
X120961512Y-99031597D01*
X120874604Y-98944689D01*
X120765094Y-98888891D01*
X120755304Y-98887340D01*
X120755303Y-98887340D01*
X120730429Y-98883401D01*
X120674234Y-98874500D01*
X120343768Y-98874500D01*
X120013169Y-98874501D01*
X120008275Y-98875276D01*
X120008276Y-98875276D01*
X119932106Y-98887339D01*
X119932104Y-98887339D01*
X119922308Y-98888891D01*
X119812798Y-98944689D01*
X119725890Y-99031597D01*
X119670092Y-99141107D01*
X119655701Y-99231967D01*
X119655702Y-99768032D01*
X119670092Y-99858893D01*
X119725890Y-99968403D01*
X119812798Y-100055311D01*
X119922308Y-100111109D01*
X119932098Y-100112660D01*
X119932099Y-100112660D01*
X119961913Y-100117382D01*
X120026066Y-100147795D01*
X120063592Y-100208064D01*
X120068201Y-100241831D01*
X120068201Y-100620274D01*
X120065780Y-100644856D01*
X120062804Y-100659817D01*
X120068201Y-100686949D01*
X120068201Y-100686950D01*
X120084186Y-100767312D01*
X120145077Y-100858441D01*
X120155393Y-100865334D01*
X120155394Y-100865335D01*
X120157765Y-100866919D01*
X120176857Y-100882589D01*
X120480348Y-101186080D01*
X120514374Y-101248392D01*
X120509309Y-101319207D01*
X120466762Y-101376043D01*
X120447755Y-101387220D01*
X120443529Y-101388428D01*
X120322280Y-101464930D01*
X120227377Y-101572388D01*
X120166447Y-101702163D01*
X120165066Y-101711035D01*
X120146855Y-101827999D01*
X120144391Y-101843823D01*
X120145555Y-101852725D01*
X120145555Y-101852728D01*
X120150637Y-101891591D01*
X120162980Y-101985979D01*
X120166597Y-101994199D01*
X120205530Y-102082680D01*
X120220720Y-102117203D01*
X120226497Y-102124076D01*
X120226498Y-102124077D01*
X120252155Y-102154600D01*
X120312970Y-102226948D01*
X120314208Y-102227772D01*
X120349670Y-102284885D01*
X120348567Y-102355873D01*
X120309259Y-102414996D01*
X120244228Y-102443481D01*
X120228237Y-102444500D01*
X119823976Y-102444500D01*
X119755855Y-102424498D01*
X119711278Y-102374849D01*
X118853187Y-100658666D01*
X118852209Y-100656710D01*
X118841286Y-100638188D01*
X118821598Y-100609536D01*
X118808223Y-100592696D01*
X118791250Y-100574124D01*
X118773410Y-100554603D01*
X118773403Y-100554597D01*
X118770470Y-100551387D01*
X118737435Y-100524014D01*
X118678858Y-100487812D01*
X118674863Y-100486051D01*
X118643590Y-100472266D01*
X118643586Y-100472265D01*
X118639601Y-100470508D01*
X118635410Y-100469317D01*
X118635406Y-100469316D01*
X118612711Y-100462869D01*
X118585767Y-100455215D01*
X118564727Y-100450783D01*
X118543823Y-100447871D01*
X118532459Y-100446288D01*
X118532451Y-100446287D01*
X118530296Y-100445987D01*
X118508843Y-100444500D01*
X114726000Y-100444500D01*
X114657879Y-100424498D01*
X114611386Y-100370842D01*
X114600000Y-100318500D01*
X114600000Y-99231967D01*
X115274500Y-99231967D01*
X115274501Y-99793032D01*
X115275276Y-99797925D01*
X115286331Y-99867726D01*
X115288891Y-99883893D01*
X115344689Y-99993403D01*
X115431597Y-100080311D01*
X115541107Y-100136109D01*
X115550897Y-100137660D01*
X115550898Y-100137660D01*
X115575772Y-100141599D01*
X115631967Y-100150500D01*
X115899945Y-100150500D01*
X116168032Y-100150499D01*
X116190677Y-100146913D01*
X116249095Y-100137661D01*
X116249097Y-100137661D01*
X116258893Y-100136109D01*
X116279715Y-100125500D01*
X116359571Y-100084811D01*
X116359570Y-100084811D01*
X116368403Y-100080311D01*
X116455311Y-99993403D01*
X116473962Y-99956798D01*
X116522710Y-99905182D01*
X116586229Y-99888000D01*
X117882710Y-99888000D01*
X117950831Y-99908002D01*
X117990356Y-99951690D01*
X117990559Y-99951543D01*
X117991930Y-99953430D01*
X117994977Y-99956798D01*
X118000890Y-99968403D01*
X118087798Y-100055311D01*
X118197308Y-100111109D01*
X118207098Y-100112660D01*
X118207099Y-100112660D01*
X118231973Y-100116599D01*
X118288168Y-100125500D01*
X118618634Y-100125500D01*
X118949233Y-100125499D01*
X118971878Y-100121913D01*
X119030296Y-100112661D01*
X119030298Y-100112661D01*
X119040094Y-100111109D01*
X119149604Y-100055311D01*
X119236512Y-99968403D01*
X119292310Y-99858893D01*
X119306701Y-99768033D01*
X119306700Y-99231968D01*
X119292310Y-99141107D01*
X119236512Y-99031597D01*
X119149604Y-98944689D01*
X119040094Y-98888891D01*
X119030304Y-98887340D01*
X119030303Y-98887340D01*
X119005429Y-98883401D01*
X118949234Y-98874500D01*
X118618768Y-98874500D01*
X118288169Y-98874501D01*
X118283275Y-98875276D01*
X118283276Y-98875276D01*
X118207106Y-98887339D01*
X118207104Y-98887339D01*
X118197308Y-98888891D01*
X118087798Y-98944689D01*
X118000890Y-99031597D01*
X117945092Y-99141107D01*
X117943541Y-99150897D01*
X117943541Y-99150898D01*
X117930900Y-99230711D01*
X117900487Y-99294864D01*
X117840219Y-99332391D01*
X117806451Y-99337000D01*
X116649749Y-99337000D01*
X116581628Y-99316998D01*
X116535135Y-99263342D01*
X116525300Y-99230710D01*
X116521699Y-99207974D01*
X116511109Y-99141107D01*
X116455311Y-99031597D01*
X116368403Y-98944689D01*
X116258893Y-98888891D01*
X116249103Y-98887340D01*
X116249102Y-98887340D01*
X116224228Y-98883401D01*
X116168033Y-98874500D01*
X115900055Y-98874500D01*
X115631968Y-98874501D01*
X115627074Y-98875276D01*
X115627075Y-98875276D01*
X115550905Y-98887339D01*
X115550903Y-98887339D01*
X115541107Y-98888891D01*
X115431597Y-98944689D01*
X115344689Y-99031597D01*
X115288891Y-99141107D01*
X115274500Y-99231967D01*
X114600000Y-99231967D01*
X114600000Y-96912410D01*
X114602421Y-96887829D01*
X114610334Y-96848047D01*
X114629148Y-96802626D01*
X114644655Y-96779418D01*
X114679418Y-96744655D01*
X114702626Y-96729148D01*
X114748047Y-96710334D01*
X114787829Y-96702421D01*
X114812410Y-96700000D01*
X132887590Y-96700000D01*
X132912171Y-96702421D01*
G37*
%TD.AperFunction*%
%TD*%
%TA.AperFunction,Conductor*%
%TO.N,VBUS_SWITCH*%
G36*
X113042121Y-97420002D02*
G01*
X113088614Y-97473658D01*
X113100000Y-97526000D01*
X113100000Y-100600000D01*
X111500000Y-100600000D01*
X111500000Y-97526000D01*
X111520002Y-97457879D01*
X111573658Y-97411386D01*
X111626000Y-97400000D01*
X112974000Y-97400000D01*
X113042121Y-97420002D01*
G37*
%TD.AperFunction*%
%TD*%
%TA.AperFunction,Conductor*%
%TO.N,VBUS_OPEN*%
G36*
X101835215Y-114821235D02*
G01*
X101881800Y-114852362D01*
X101892505Y-114859515D01*
X102000000Y-114880897D01*
X102012171Y-114878476D01*
X102012173Y-114878476D01*
X102014963Y-114877921D01*
X102039543Y-114875500D01*
X104947957Y-114875500D01*
X104972539Y-114877921D01*
X104987500Y-114880897D01*
X105014632Y-114875500D01*
X105014633Y-114875500D01*
X105094995Y-114859515D01*
X105136965Y-114831471D01*
X105152287Y-114821233D01*
X105222286Y-114800000D01*
X106000000Y-114800000D01*
X106000000Y-117143265D01*
X105990485Y-117157505D01*
X105974500Y-117237867D01*
X105969103Y-117265000D01*
X105971524Y-117277171D01*
X105972079Y-117279961D01*
X105974500Y-117304543D01*
X105974500Y-117448270D01*
X105964965Y-117496203D01*
X105958233Y-117506278D01*
X105949500Y-117550180D01*
X105949500Y-118449820D01*
X105958233Y-118493722D01*
X105965127Y-118504040D01*
X105965128Y-118504042D01*
X105984601Y-118533185D01*
X105991496Y-118543504D01*
X106000000Y-118549186D01*
X106000000Y-119250814D01*
X105991496Y-119256496D01*
X105984601Y-119266815D01*
X105965128Y-119295958D01*
X105965127Y-119295960D01*
X105958233Y-119306278D01*
X105949500Y-119350180D01*
X105949500Y-120249820D01*
X105950707Y-120255886D01*
X105951292Y-120261830D01*
X105938063Y-120331583D01*
X105889223Y-120383111D01*
X105825000Y-120398893D01*
X105825000Y-120400000D01*
X105612410Y-120400000D01*
X105587829Y-120397579D01*
X105548047Y-120389666D01*
X105502626Y-120370852D01*
X105479418Y-120355345D01*
X105444655Y-120320582D01*
X105429148Y-120297374D01*
X105410334Y-120251953D01*
X105402421Y-120212171D01*
X105400000Y-120187590D01*
X105400000Y-117159161D01*
X105417045Y-117095877D01*
X105442939Y-117051298D01*
X105493667Y-116883807D01*
X105504503Y-116709138D01*
X105497925Y-116670852D01*
X105476106Y-116543875D01*
X105476105Y-116543873D01*
X105474866Y-116536660D01*
X105406346Y-116375627D01*
X105302617Y-116234676D01*
X105297039Y-116229937D01*
X105297036Y-116229934D01*
X105174824Y-116126107D01*
X105174820Y-116126104D01*
X105169245Y-116121368D01*
X105085062Y-116078382D01*
X105019900Y-116045108D01*
X105019898Y-116045107D01*
X105013384Y-116041781D01*
X105006279Y-116040042D01*
X105006275Y-116040041D01*
X104912741Y-116017154D01*
X104843394Y-116000185D01*
X104837794Y-115999838D01*
X104837790Y-115999837D01*
X104834291Y-115999620D01*
X104834282Y-115999620D01*
X104832352Y-115999500D01*
X104406178Y-115999500D01*
X104314631Y-116010173D01*
X104283444Y-116013809D01*
X104283442Y-116013809D01*
X104276172Y-116014657D01*
X104269295Y-116017153D01*
X104269292Y-116017154D01*
X104192281Y-116045108D01*
X104111669Y-116074369D01*
X103965315Y-116170323D01*
X103844960Y-116297372D01*
X103757061Y-116448702D01*
X103754940Y-116455706D01*
X103754938Y-116455710D01*
X103708050Y-116610523D01*
X103669161Y-116669922D01*
X103604332Y-116698865D01*
X103587460Y-116700000D01*
X97812410Y-116700000D01*
X97787829Y-116697579D01*
X97748047Y-116689666D01*
X97702626Y-116670852D01*
X97679418Y-116655345D01*
X97644655Y-116620582D01*
X97629148Y-116597374D01*
X97610334Y-116551953D01*
X97602421Y-116512171D01*
X97600000Y-116487590D01*
X97600000Y-114800000D01*
X101765213Y-114800000D01*
X101835215Y-114821235D01*
G37*
%TD.AperFunction*%
%TD*%
%TA.AperFunction,Conductor*%
%TO.N,VBUS_DRAIN*%
G36*
X102500000Y-112200000D02*
G01*
X99412410Y-112200000D01*
X99387829Y-112197579D01*
X99348047Y-112189666D01*
X99302626Y-112170852D01*
X99279418Y-112155345D01*
X99244655Y-112120582D01*
X99229148Y-112097374D01*
X99210334Y-112051953D01*
X99202421Y-112012171D01*
X99200000Y-111987590D01*
X99200000Y-111012410D01*
X99202421Y-110987829D01*
X99210334Y-110948047D01*
X99229148Y-110902626D01*
X99244655Y-110879418D01*
X99279418Y-110844655D01*
X99302626Y-110829148D01*
X99348047Y-110810334D01*
X99387829Y-110802421D01*
X99412410Y-110800000D01*
X102500000Y-110800000D01*
X102500000Y-112200000D01*
G37*
%TD.AperFunction*%
%TD*%
%TA.AperFunction,Conductor*%
%TO.N,VBUS_OPEN*%
G36*
X123812171Y-108239921D02*
G01*
X123851953Y-108247834D01*
X123897374Y-108266648D01*
X123920582Y-108282155D01*
X123955345Y-108316918D01*
X123970852Y-108340126D01*
X123989666Y-108385547D01*
X123997579Y-108425329D01*
X124000000Y-108449910D01*
X124000000Y-111525090D01*
X123997579Y-111549671D01*
X123989666Y-111589453D01*
X123970852Y-111634874D01*
X123955345Y-111658082D01*
X123920582Y-111692845D01*
X123897374Y-111708352D01*
X123851953Y-111727166D01*
X123812171Y-111735079D01*
X123787590Y-111737500D01*
X121500000Y-111737500D01*
X121500000Y-108246287D01*
X121517392Y-108242826D01*
X121517830Y-108245026D01*
X121534249Y-108238223D01*
X121547730Y-108237500D01*
X123787590Y-108237500D01*
X123812171Y-108239921D01*
G37*
%TD.AperFunction*%
%TD*%
%TA.AperFunction,Conductor*%
%TO.N,VBUS_OPEN*%
G36*
X108448600Y-116748355D02*
G01*
X108493981Y-116802955D01*
X108502496Y-116831593D01*
X108517584Y-116919399D01*
X108525134Y-116963340D01*
X108593654Y-117124373D01*
X108597992Y-117130268D01*
X108597994Y-117130271D01*
X108625481Y-117167622D01*
X108649748Y-117234343D01*
X108650000Y-117242305D01*
X108650000Y-120237590D01*
X108647579Y-120262171D01*
X108639666Y-120301953D01*
X108620852Y-120347374D01*
X108605345Y-120370582D01*
X108570582Y-120405345D01*
X108547374Y-120420852D01*
X108501953Y-120439666D01*
X108462171Y-120447579D01*
X108437590Y-120450000D01*
X108162987Y-120450000D01*
X108094866Y-120429998D01*
X108048373Y-120376342D01*
X108038269Y-120306068D01*
X108041579Y-120294003D01*
X108041767Y-120293722D01*
X108050500Y-120249820D01*
X108050500Y-119350180D01*
X108041767Y-119306278D01*
X108034873Y-119295960D01*
X108034872Y-119295958D01*
X108015399Y-119266815D01*
X108008504Y-119256496D01*
X107998185Y-119249601D01*
X107969042Y-119230128D01*
X107969040Y-119230127D01*
X107958722Y-119223233D01*
X107914820Y-119214500D01*
X107585180Y-119214500D01*
X107566756Y-119218165D01*
X107496043Y-119211837D01*
X107447249Y-119172516D01*
X107446272Y-119173493D01*
X107437493Y-119164714D01*
X107430601Y-119154399D01*
X107420286Y-119147507D01*
X107420284Y-119147505D01*
X107420001Y-119147316D01*
X107400908Y-119131647D01*
X107274547Y-119005286D01*
X107069856Y-118800596D01*
X107035831Y-118738283D01*
X107040895Y-118667468D01*
X107083442Y-118610632D01*
X107149962Y-118585821D01*
X107158951Y-118585500D01*
X107414820Y-118585500D01*
X107458722Y-118576767D01*
X107459599Y-118576181D01*
X107522370Y-118569432D01*
X107536517Y-118573586D01*
X107541278Y-118576767D01*
X107585180Y-118585500D01*
X107914820Y-118585500D01*
X107958722Y-118576767D01*
X107969040Y-118569873D01*
X107969042Y-118569872D01*
X107998185Y-118550399D01*
X108008504Y-118543504D01*
X108015399Y-118533185D01*
X108034872Y-118504042D01*
X108034873Y-118504040D01*
X108041767Y-118493722D01*
X108050500Y-118449820D01*
X108050500Y-117550180D01*
X108041767Y-117506278D01*
X108034873Y-117495960D01*
X108034872Y-117495958D01*
X108015399Y-117466815D01*
X108008504Y-117456496D01*
X107996193Y-117448270D01*
X107969042Y-117430128D01*
X107969040Y-117430127D01*
X107958722Y-117423233D01*
X107914820Y-117414500D01*
X107626500Y-117414500D01*
X107558379Y-117394498D01*
X107511886Y-117340842D01*
X107500500Y-117288500D01*
X107500500Y-117255950D01*
X107520502Y-117187829D01*
X107537405Y-117166855D01*
X107819561Y-116884699D01*
X107881873Y-116850673D01*
X107919147Y-116849675D01*
X107919157Y-116849142D01*
X108062499Y-116851770D01*
X108071163Y-116849408D01*
X108192158Y-116816421D01*
X108192160Y-116816420D01*
X108200817Y-116814060D01*
X108208464Y-116809365D01*
X108208468Y-116809363D01*
X108312388Y-116745556D01*
X108380905Y-116726958D01*
X108448600Y-116748355D01*
G37*
%TD.AperFunction*%
%TA.AperFunction,Conductor*%
G36*
X106001815Y-118550399D02*
G01*
X106030958Y-118569872D01*
X106030960Y-118569873D01*
X106041278Y-118576767D01*
X106085180Y-118585500D01*
X106373500Y-118585500D01*
X106441621Y-118605502D01*
X106488114Y-118659158D01*
X106499500Y-118711500D01*
X106499500Y-118797915D01*
X106497079Y-118822496D01*
X106494592Y-118835000D01*
X106514034Y-118932741D01*
X106533943Y-118962536D01*
X106569399Y-119015601D01*
X106570365Y-119016246D01*
X106600659Y-119071724D01*
X106595594Y-119142539D01*
X106553047Y-119199375D01*
X106486527Y-119224186D01*
X106452956Y-119222086D01*
X106433244Y-119218165D01*
X106414820Y-119214500D01*
X106085180Y-119214500D01*
X106041278Y-119223233D01*
X106030960Y-119230127D01*
X106030958Y-119230128D01*
X106001815Y-119249601D01*
X106000000Y-119250814D01*
X106000000Y-118549186D01*
X106001815Y-118550399D01*
G37*
%TD.AperFunction*%
%TA.AperFunction,Conductor*%
G36*
X108107755Y-114820002D02*
G01*
X108154248Y-114873658D01*
X108164352Y-114943932D01*
X108134858Y-115008512D01*
X108109638Y-115030764D01*
X108090536Y-115043528D01*
X108090536Y-115043527D01*
X108090532Y-115043531D01*
X108064378Y-115061006D01*
X108061811Y-115057165D01*
X108061810Y-115057166D01*
X108064377Y-115061007D01*
X108041376Y-115076376D01*
X108034485Y-115086689D01*
X108032898Y-115089064D01*
X108017228Y-115108156D01*
X106083156Y-117042228D01*
X106064064Y-117057898D01*
X106051376Y-117066376D01*
X106000000Y-117143265D01*
X106000000Y-114800000D01*
X108039634Y-114800000D01*
X108107755Y-114820002D01*
G37*
%TD.AperFunction*%
%TD*%
%TA.AperFunction,Conductor*%
%TO.N,VBUS_OPEN*%
G36*
X99100000Y-110784491D02*
G01*
X99087901Y-110838367D01*
X99086947Y-110840384D01*
X99085485Y-110843119D01*
X99084303Y-110845972D01*
X99084299Y-110845981D01*
X99069966Y-110880584D01*
X99066671Y-110888540D01*
X99057822Y-110917711D01*
X99049909Y-110957493D01*
X99047670Y-110972587D01*
X99045249Y-110997168D01*
X99044500Y-111012410D01*
X99044500Y-111987590D01*
X99045249Y-112002832D01*
X99047670Y-112027413D01*
X99049909Y-112042507D01*
X99057822Y-112082289D01*
X99066671Y-112111460D01*
X99085485Y-112156881D01*
X99087010Y-112159734D01*
X99087023Y-112159779D01*
X99088262Y-112162397D01*
X99087873Y-112162581D01*
X99099268Y-112200146D01*
X99100000Y-112200000D01*
X99100000Y-112400000D01*
X101187590Y-112400000D01*
X101212171Y-112402421D01*
X101251953Y-112410334D01*
X101297374Y-112429148D01*
X101320582Y-112444655D01*
X101355345Y-112479418D01*
X101370852Y-112502626D01*
X101389666Y-112548047D01*
X101397579Y-112587829D01*
X101400000Y-112612410D01*
X101400000Y-114800000D01*
X97600000Y-114800000D01*
X97600000Y-112900000D01*
X96312410Y-112900000D01*
X96287829Y-112897579D01*
X96248047Y-112889666D01*
X96202626Y-112870852D01*
X96179418Y-112855345D01*
X96144655Y-112820582D01*
X96129148Y-112797374D01*
X96110334Y-112751953D01*
X96102421Y-112712171D01*
X96100000Y-112687590D01*
X96100000Y-107200000D01*
X99100000Y-107200000D01*
X99100000Y-110784491D01*
G37*
%TD.AperFunction*%
%TD*%
%TA.AperFunction,Conductor*%
%TO.N,VBUS_SWITCH*%
G36*
X118543274Y-100604796D02*
G01*
X118597108Y-100620089D01*
X118655685Y-100656291D01*
X118693438Y-100697600D01*
X118713126Y-100726252D01*
X119650000Y-102600000D01*
X123400000Y-102600000D01*
X123400000Y-103100000D01*
X121650000Y-103100000D01*
X121585617Y-103185844D01*
X121585616Y-103185845D01*
X120970789Y-104005614D01*
X120950159Y-104027219D01*
X120912655Y-104058148D01*
X120859283Y-104084058D01*
X120811788Y-104094394D01*
X120782050Y-104097242D01*
X119701708Y-104071988D01*
X119383990Y-104064561D01*
X119359811Y-104061640D01*
X119320728Y-104053024D01*
X119276269Y-104033668D01*
X119253592Y-104018012D01*
X119219737Y-103983303D01*
X119197827Y-103949810D01*
X119186526Y-103928237D01*
X118885089Y-103185845D01*
X118850233Y-103100000D01*
X118689452Y-102704024D01*
X118543015Y-102343373D01*
X118540650Y-102337548D01*
X118540649Y-102337547D01*
X118489356Y-102211220D01*
X118353021Y-102212803D01*
X118353020Y-102212803D01*
X117526439Y-102222402D01*
X115150307Y-102249996D01*
X115148839Y-102249815D01*
X115150000Y-100600000D01*
X118508843Y-100600000D01*
X118543274Y-100604796D01*
G37*
%TD.AperFunction*%
%TD*%
%TA.AperFunction,Conductor*%
%TO.N,VBUS_DRAIN*%
G36*
X117372724Y-107392207D02*
G01*
X117370764Y-107393692D01*
X117320410Y-107416605D01*
X113422918Y-108229750D01*
X103666173Y-110265330D01*
X103666170Y-110265331D01*
X103659153Y-110266795D01*
X103659151Y-110266796D01*
X103500000Y-110300000D01*
X103500000Y-111987590D01*
X103497579Y-112012171D01*
X103489666Y-112051953D01*
X103470852Y-112097374D01*
X103455345Y-112120582D01*
X103420582Y-112155345D01*
X103397374Y-112170852D01*
X103351953Y-112189666D01*
X103312171Y-112197579D01*
X103287590Y-112200000D01*
X102500000Y-112200000D01*
X102500000Y-109080151D01*
X102503332Y-109051366D01*
X102514122Y-109005385D01*
X102539731Y-108953823D01*
X102560294Y-108928983D01*
X102606166Y-108894196D01*
X102649323Y-108875009D01*
X102676979Y-108866360D01*
X105861968Y-108260948D01*
X112480235Y-107002931D01*
X112506073Y-107000736D01*
X112531963Y-107001210D01*
X112562499Y-107001770D01*
X112619691Y-106986178D01*
X112692158Y-106966421D01*
X112692160Y-106966420D01*
X112700817Y-106964060D01*
X112702918Y-106962770D01*
X112721412Y-106957087D01*
X112969561Y-106909918D01*
X114600000Y-106600000D01*
X117372724Y-107392207D01*
G37*
%TD.AperFunction*%
%TD*%
%TA.AperFunction,Conductor*%
%TO.N,VDAT_REF*%
G36*
X115206474Y-118820002D02*
G01*
X115243116Y-118855996D01*
X115261496Y-118883504D01*
X115271815Y-118890399D01*
X115300958Y-118909872D01*
X115300960Y-118909873D01*
X115311278Y-118916767D01*
X115355180Y-118925500D01*
X116944820Y-118925500D01*
X116988722Y-118916767D01*
X116999040Y-118909873D01*
X116999042Y-118909872D01*
X117038504Y-118883504D01*
X117040209Y-118886056D01*
X117085600Y-118861270D01*
X117156415Y-118866335D01*
X117213251Y-118908882D01*
X117233971Y-118951341D01*
X117242623Y-118983171D01*
X117247034Y-119015673D01*
X117253451Y-120495588D01*
X117270787Y-120497381D01*
X117295647Y-120561437D01*
X117296098Y-120572085D01*
X117296098Y-121687590D01*
X117293677Y-121712171D01*
X117285764Y-121751953D01*
X117266950Y-121797374D01*
X117251443Y-121820582D01*
X117216680Y-121855345D01*
X117193472Y-121870852D01*
X117148051Y-121889666D01*
X117108269Y-121897579D01*
X117083688Y-121900000D01*
X114558508Y-121900000D01*
X114533927Y-121897579D01*
X114494145Y-121889666D01*
X114448724Y-121870852D01*
X114425516Y-121855345D01*
X114390753Y-121820582D01*
X114375246Y-121797374D01*
X114356432Y-121751953D01*
X114348519Y-121712171D01*
X114346098Y-121687590D01*
X114346098Y-119012410D01*
X114348519Y-118987829D01*
X114356432Y-118948047D01*
X114375246Y-118902626D01*
X114390753Y-118879418D01*
X114425516Y-118844655D01*
X114448724Y-118829148D01*
X114494145Y-118810334D01*
X114533927Y-118802421D01*
X114558508Y-118800000D01*
X115138353Y-118800000D01*
X115206474Y-118820002D01*
G37*
%TD.AperFunction*%
%TD*%
%TA.AperFunction,Conductor*%
%TO.N,VBUS_SWITCH*%
G36*
X102229317Y-98921113D02*
G01*
X102241388Y-98929148D01*
X102282313Y-98956390D01*
X102419157Y-98999142D01*
X102428129Y-98999306D01*
X102428132Y-98999307D01*
X102493463Y-99000504D01*
X102562499Y-99001770D01*
X102571533Y-98999307D01*
X102692158Y-98966421D01*
X102692160Y-98966420D01*
X102700817Y-98964060D01*
X102774815Y-98918625D01*
X102840744Y-98900000D01*
X103159498Y-98900000D01*
X103229317Y-98921113D01*
X103241388Y-98929148D01*
X103282313Y-98956390D01*
X103419157Y-98999142D01*
X103428129Y-98999306D01*
X103428132Y-98999307D01*
X103493463Y-99000504D01*
X103562499Y-99001770D01*
X103571533Y-98999307D01*
X103692158Y-98966421D01*
X103692160Y-98966420D01*
X103700817Y-98964060D01*
X103774815Y-98918625D01*
X103840744Y-98900000D01*
X104159498Y-98900000D01*
X104229317Y-98921113D01*
X104241388Y-98929148D01*
X104282313Y-98956390D01*
X104419157Y-98999142D01*
X104428129Y-98999306D01*
X104428132Y-98999307D01*
X104493463Y-99000504D01*
X104562499Y-99001770D01*
X104571533Y-98999307D01*
X104692158Y-98966421D01*
X104692160Y-98966420D01*
X104700817Y-98964060D01*
X104774815Y-98918625D01*
X104840744Y-98900000D01*
X105159498Y-98900000D01*
X105229317Y-98921113D01*
X105241388Y-98929148D01*
X105282313Y-98956390D01*
X105419157Y-98999142D01*
X105428129Y-98999306D01*
X105428132Y-98999307D01*
X105493463Y-99000504D01*
X105562499Y-99001770D01*
X105571533Y-98999307D01*
X105692158Y-98966421D01*
X105692160Y-98966420D01*
X105700817Y-98964060D01*
X105774815Y-98918625D01*
X105840744Y-98900000D01*
X106087590Y-98900000D01*
X106112171Y-98902421D01*
X106151953Y-98910334D01*
X106197374Y-98929148D01*
X106220582Y-98944655D01*
X106255345Y-98979418D01*
X106270852Y-99002626D01*
X106289666Y-99048047D01*
X106297579Y-99087829D01*
X106300000Y-99112410D01*
X106300000Y-106987590D01*
X106297579Y-107012171D01*
X106289666Y-107051953D01*
X106270852Y-107097374D01*
X106255345Y-107120582D01*
X106220582Y-107155345D01*
X106197374Y-107170852D01*
X106151953Y-107189666D01*
X106112171Y-107197579D01*
X106087590Y-107200000D01*
X102012410Y-107200000D01*
X101987829Y-107197579D01*
X101948047Y-107189666D01*
X101902626Y-107170852D01*
X101879418Y-107155345D01*
X101844655Y-107120582D01*
X101829148Y-107097374D01*
X101810334Y-107051953D01*
X101802421Y-107012171D01*
X101800000Y-106987590D01*
X101800000Y-99112410D01*
X101802421Y-99087829D01*
X101810334Y-99048047D01*
X101829148Y-99002626D01*
X101844655Y-98979418D01*
X101879418Y-98944655D01*
X101902626Y-98929148D01*
X101948047Y-98910334D01*
X101987829Y-98902421D01*
X102012410Y-98900000D01*
X102159498Y-98900000D01*
X102229317Y-98921113D01*
G37*
%TD.AperFunction*%
%TD*%
M02*
