M48
; DRILL file {KiCad (5.1.9)-1} date 11/10/21 21:50:46
; FORMAT={-:-/ absolute / inch / decimal}
; #@! TF.CreationDate,2021-11-10T21:50:46+01:00
; #@! TF.GenerationSoftware,Kicad,Pcbnew,(5.1.9)-1
FMAT,2
INCH
T1C0.0118
T2C0.0197
T3C0.0236
T4C0.0315
T5C0.0394
T6C0.0591
T7C0.1260
%
G90
G05
T1
X4.3858Y-3.437
X4.3858Y-3.4764
X4.3858Y-3.5157
X4.3858Y-3.5551
X4.4213Y-3.437
X4.4213Y-3.4764
X4.4213Y-3.5157
X4.4213Y-3.5551
X4.4921Y-3.437
X4.4921Y-3.4764
X4.6398Y-3.313
X4.6398Y-3.4961
X4.7205Y-3.6693
X4.7205Y-3.7087
X4.7559Y-3.6693
X4.7559Y-3.7087
X4.7638Y-3.0591
X4.7638Y-3.0984
X4.7992Y-3.0591
X4.7992Y-3.0984
X4.7992Y-3.1378
X4.7992Y-3.1772
X4.7992Y-3.2165
X4.7992Y-3.2559
X4.7992Y-3.2953
X4.7992Y-3.3386
X4.7992Y-3.378
X4.7992Y-3.4213
X4.7992Y-3.4606
X4.7992Y-3.5039
X4.7992Y-3.5433
X4.7992Y-3.5906
X4.7992Y-3.6299
X4.7992Y-3.6693
X4.7992Y-3.7087
X4.8346Y-3.0591
X4.8346Y-3.0984
X4.8346Y-3.1378
X4.8346Y-3.1772
X4.8346Y-3.2165
X4.8346Y-3.2559
X4.8346Y-3.2953
X4.8346Y-3.3386
X4.8346Y-3.378
X4.8346Y-3.4213
X4.8346Y-3.4606
X4.8346Y-3.5039
X4.8346Y-3.5433
X4.8346Y-3.5906
X4.8346Y-3.6299
X4.8346Y-3.6693
X4.8346Y-3.7087
X4.878Y-3.0591
X4.878Y-3.0984
X4.878Y-3.6693
X4.878Y-3.7087
X4.9134Y-3.0591
X4.9134Y-3.0984
X4.9134Y-3.6693
X4.9134Y-3.7087
X4.9567Y-3.0591
X4.9567Y-3.0984
X4.9567Y-3.6693
X4.9567Y-3.7087
X4.9921Y-3.0591
X4.9921Y-3.0984
X4.9921Y-3.4547
X4.9921Y-3.6693
X4.9921Y-3.7087
X5.0276Y-3.4547
X5.0315Y-3.0591
X5.0315Y-3.0984
X5.0669Y-3.0591
X5.0669Y-3.0984
X5.2441Y-3.4685
X5.2441Y-3.5039
X5.2441Y-3.5433
X5.2441Y-3.5787
X5.2441Y-3.6181
X5.2441Y-3.6575
X5.2441Y-3.6969
X5.2795Y-3.4685
X5.2795Y-3.5039
X5.2795Y-3.5433
X5.2795Y-3.5787
X5.2795Y-3.6181
X5.2795Y-3.6575
X5.2795Y-3.6969
X5.3228Y-3.4685
X5.3228Y-3.5039
X5.3228Y-3.5433
X5.3228Y-3.5787
X5.3228Y-3.6181
X5.3228Y-3.6575
X5.3228Y-3.6969
X5.3583Y-3.5787
X5.3583Y-3.6181
X5.3583Y-3.6575
X5.3583Y-3.6969
X5.4016Y-3.5787
X5.4016Y-3.6181
X5.4016Y-3.6575
X5.4016Y-3.6969
X5.437Y-3.5787
X5.437Y-3.6181
X5.437Y-3.6575
X5.437Y-3.6969
X5.4803Y-3.5787
X5.4803Y-3.6181
X5.4803Y-3.6575
X5.4803Y-3.6969
X5.5157Y-3.5787
X5.5157Y-3.6181
X5.5157Y-3.6575
X5.5157Y-3.6969
T2
X4.6102Y-2.874
X4.6379Y-2.8072
X4.6379Y-2.9408
X4.7047Y-2.7795
X4.7047Y-2.9685
X4.7715Y-2.8072
X4.7715Y-2.9408
X4.7992Y-2.874
X5.563Y-2.874
X5.5907Y-2.8072
X5.5907Y-2.9408
X5.6575Y-2.7795
X5.6575Y-2.9685
X5.7243Y-2.8072
X5.7243Y-2.9408
X5.752Y-2.874
T4
X4.3209Y-3.372
X4.3209Y-3.5098
X5.3878Y-3.3701
X5.3878Y-3.5079
T5
X5.0472Y-2.8465
X5.1457Y-2.8465
X5.689Y-3.2244
X5.689Y-3.3228
T7
X4.7047Y-2.874
X5.6575Y-2.874
T3
G00X3.7913Y-3.3543
M15
G01X3.8189Y-3.3543
M16
G05
G00X3.7913Y-3.6909
M15
G01X3.8189Y-3.6909
M16
G05
T6
G00X3.811Y-2.9213
M15
G01X3.811Y-3.0591
M16
G05
G00X4.0866Y-2.9213
M15
G01X4.0866Y-3.0591
M16
G05
G00X4.3622Y-2.9213
M15
G01X4.3622Y-3.0591
M16
G05
T0
M30
