%TF.GenerationSoftware,KiCad,Pcbnew,(5.1.6-0-10_14)*%
%TF.CreationDate,2022-04-17T17:35:50+02:00*%
%TF.ProjectId,smoke_extractor,736d6f6b-655f-4657-9874-726163746f72,rev?*%
%TF.SameCoordinates,Original*%
%TF.FileFunction,Copper,L1,Top*%
%TF.FilePolarity,Positive*%
%FSLAX46Y46*%
G04 Gerber Fmt 4.6, Leading zero omitted, Abs format (unit mm)*
G04 Created by KiCad (PCBNEW (5.1.6-0-10_14)) date 2022-04-17 17:35:50*
%MOMM*%
%LPD*%
G01*
G04 APERTURE LIST*
%TA.AperFunction,ComponentPad*%
%ADD10R,1.700000X1.700000*%
%TD*%
%TA.AperFunction,ComponentPad*%
%ADD11C,1.600000*%
%TD*%
%TA.AperFunction,ComponentPad*%
%ADD12R,1.600000X1.600000*%
%TD*%
%TA.AperFunction,ComponentPad*%
%ADD13R,3.000000X3.000000*%
%TD*%
%TA.AperFunction,SMDPad,CuDef*%
%ADD14R,1.500000X3.700000*%
%TD*%
%TA.AperFunction,SMDPad,CuDef*%
%ADD15R,1.680000X1.880000*%
%TD*%
%TA.AperFunction,SMDPad,CuDef*%
%ADD16R,1.560000X0.650000*%
%TD*%
%TA.AperFunction,ComponentPad*%
%ADD17C,1.524000*%
%TD*%
%TA.AperFunction,ComponentPad*%
%ADD18C,2.200000*%
%TD*%
%TA.AperFunction,SMDPad,CuDef*%
%ADD19R,3.500000X1.800000*%
%TD*%
%TA.AperFunction,SMDPad,CuDef*%
%ADD20R,2.000000X2.000000*%
%TD*%
%TA.AperFunction,ComponentPad*%
%ADD21C,0.800000*%
%TD*%
%TA.AperFunction,ComponentPad*%
%ADD22C,6.400000*%
%TD*%
%TA.AperFunction,SMDPad,CuDef*%
%ADD23R,4.000000X0.700000*%
%TD*%
%TA.AperFunction,SMDPad,CuDef*%
%ADD24R,4.000000X0.800000*%
%TD*%
%TA.AperFunction,SMDPad,CuDef*%
%ADD25R,4.000000X0.900000*%
%TD*%
%TA.AperFunction,ComponentPad*%
%ADD26C,0.100000*%
%TD*%
%TA.AperFunction,SMDPad,CuDef*%
%ADD27R,1.505000X0.802000*%
%TD*%
%TA.AperFunction,SMDPad,CuDef*%
%ADD28R,2.613000X3.502000*%
%TD*%
%TA.AperFunction,ViaPad*%
%ADD29C,0.600000*%
%TD*%
%TA.AperFunction,ViaPad*%
%ADD30C,0.800000*%
%TD*%
%TA.AperFunction,Conductor*%
%ADD31C,0.300000*%
%TD*%
%TA.AperFunction,Conductor*%
%ADD32C,0.250000*%
%TD*%
%TA.AperFunction,Conductor*%
%ADD33C,0.500000*%
%TD*%
%TA.AperFunction,Conductor*%
%ADD34C,0.254000*%
%TD*%
G04 APERTURE END LIST*
D10*
%TO.P,JPe,3*%
%TO.N,5V*%
X66050000Y-41720000D03*
%TO.P,JPe,2*%
%TO.N,5Vusb*%
X66050000Y-44260000D03*
%TO.P,JPe,1*%
%TO.N,5Vi*%
X66050000Y-46800000D03*
%TD*%
%TO.P,R13,2*%
%TO.N,Net-(R13-Pad2)*%
%TA.AperFunction,SMDPad,CuDef*%
G36*
G01*
X60800000Y-53912500D02*
X60800000Y-54387500D01*
G75*
G02*
X60562500Y-54625000I-237500J0D01*
G01*
X59987500Y-54625000D01*
G75*
G02*
X59750000Y-54387500I0J237500D01*
G01*
X59750000Y-53912500D01*
G75*
G02*
X59987500Y-53675000I237500J0D01*
G01*
X60562500Y-53675000D01*
G75*
G02*
X60800000Y-53912500I0J-237500D01*
G01*
G37*
%TD.AperFunction*%
%TO.P,R13,1*%
%TO.N,BAT-*%
%TA.AperFunction,SMDPad,CuDef*%
G36*
G01*
X62550000Y-53912500D02*
X62550000Y-54387500D01*
G75*
G02*
X62312500Y-54625000I-237500J0D01*
G01*
X61737500Y-54625000D01*
G75*
G02*
X61500000Y-54387500I0J237500D01*
G01*
X61500000Y-53912500D01*
G75*
G02*
X61737500Y-53675000I237500J0D01*
G01*
X62312500Y-53675000D01*
G75*
G02*
X62550000Y-53912500I0J-237500D01*
G01*
G37*
%TD.AperFunction*%
%TD*%
D11*
%TO.P,C13,2*%
%TO.N,BAT-*%
X51700000Y-42350000D03*
D12*
%TO.P,C13,1*%
%TO.N,BAT+*%
X49200000Y-42350000D03*
%TD*%
D11*
%TO.P,C9,2*%
%TO.N,BAT-*%
X54900000Y-41400000D03*
D12*
%TO.P,C9,1*%
%TO.N,Net-(C9-Pad1)*%
X57400000Y-41400000D03*
%TD*%
D13*
%TO.P,J3,2*%
%TO.N,5Vi*%
X73400000Y-37030000D03*
%TO.P,J3,1*%
%TO.N,BAT-*%
X73400000Y-31950000D03*
%TD*%
D14*
%TO.P,L1,2*%
%TO.N,Net-(C1-Pad1)*%
X46850000Y-20000000D03*
%TO.P,L1,1*%
%TO.N,Net-(D1-Pad2)*%
X49950000Y-20000000D03*
%TD*%
%TO.P,9V,2*%
%TO.N,BAT-*%
%TA.AperFunction,SMDPad,CuDef*%
G36*
G01*
X58237500Y-28150000D02*
X57762500Y-28150000D01*
G75*
G02*
X57525000Y-27912500I0J237500D01*
G01*
X57525000Y-27337500D01*
G75*
G02*
X57762500Y-27100000I237500J0D01*
G01*
X58237500Y-27100000D01*
G75*
G02*
X58475000Y-27337500I0J-237500D01*
G01*
X58475000Y-27912500D01*
G75*
G02*
X58237500Y-28150000I-237500J0D01*
G01*
G37*
%TD.AperFunction*%
%TO.P,9V,1*%
%TO.N,Net-(R12-Pad1)*%
%TA.AperFunction,SMDPad,CuDef*%
G36*
G01*
X58237500Y-29900000D02*
X57762500Y-29900000D01*
G75*
G02*
X57525000Y-29662500I0J237500D01*
G01*
X57525000Y-29087500D01*
G75*
G02*
X57762500Y-28850000I237500J0D01*
G01*
X58237500Y-28850000D01*
G75*
G02*
X58475000Y-29087500I0J-237500D01*
G01*
X58475000Y-29662500D01*
G75*
G02*
X58237500Y-29900000I-237500J0D01*
G01*
G37*
%TD.AperFunction*%
%TD*%
%TO.P,5V,2*%
%TO.N,BAT-*%
%TA.AperFunction,SMDPad,CuDef*%
G36*
G01*
X60237500Y-28150000D02*
X59762500Y-28150000D01*
G75*
G02*
X59525000Y-27912500I0J237500D01*
G01*
X59525000Y-27337500D01*
G75*
G02*
X59762500Y-27100000I237500J0D01*
G01*
X60237500Y-27100000D01*
G75*
G02*
X60475000Y-27337500I0J-237500D01*
G01*
X60475000Y-27912500D01*
G75*
G02*
X60237500Y-28150000I-237500J0D01*
G01*
G37*
%TD.AperFunction*%
%TO.P,5V,1*%
%TO.N,Net-(R11-Pad1)*%
%TA.AperFunction,SMDPad,CuDef*%
G36*
G01*
X60237500Y-29900000D02*
X59762500Y-29900000D01*
G75*
G02*
X59525000Y-29662500I0J237500D01*
G01*
X59525000Y-29087500D01*
G75*
G02*
X59762500Y-28850000I237500J0D01*
G01*
X60237500Y-28850000D01*
G75*
G02*
X60475000Y-29087500I0J-237500D01*
G01*
X60475000Y-29662500D01*
G75*
G02*
X60237500Y-29900000I-237500J0D01*
G01*
G37*
%TD.AperFunction*%
%TD*%
D15*
%TO.P,U4,9*%
%TO.N,N/C*%
X50000000Y-47400000D03*
%TO.P,U4,8*%
%TO.N,Net-(C9-Pad1)*%
%TA.AperFunction,SMDPad,CuDef*%
G36*
G01*
X48575000Y-48275000D02*
X48575000Y-48475000D01*
G75*
G02*
X48475000Y-48575000I-100000J0D01*
G01*
X47225000Y-48575000D01*
G75*
G02*
X47125000Y-48475000I0J100000D01*
G01*
X47125000Y-48275000D01*
G75*
G02*
X47225000Y-48175000I100000J0D01*
G01*
X48475000Y-48175000D01*
G75*
G02*
X48575000Y-48275000I0J-100000D01*
G01*
G37*
%TD.AperFunction*%
%TO.P,U4,7*%
%TO.N,Net-(Q1-Pad1)*%
%TA.AperFunction,SMDPad,CuDef*%
G36*
G01*
X48575000Y-47625000D02*
X48575000Y-47825000D01*
G75*
G02*
X48475000Y-47925000I-100000J0D01*
G01*
X47225000Y-47925000D01*
G75*
G02*
X47125000Y-47825000I0J100000D01*
G01*
X47125000Y-47625000D01*
G75*
G02*
X47225000Y-47525000I100000J0D01*
G01*
X48475000Y-47525000D01*
G75*
G02*
X48575000Y-47625000I0J-100000D01*
G01*
G37*
%TD.AperFunction*%
%TO.P,U4,6*%
%TO.N,Net-(Q1-Pad4)*%
%TA.AperFunction,SMDPad,CuDef*%
G36*
G01*
X48575000Y-46975000D02*
X48575000Y-47175000D01*
G75*
G02*
X48475000Y-47275000I-100000J0D01*
G01*
X47225000Y-47275000D01*
G75*
G02*
X47125000Y-47175000I0J100000D01*
G01*
X47125000Y-46975000D01*
G75*
G02*
X47225000Y-46875000I100000J0D01*
G01*
X48475000Y-46875000D01*
G75*
G02*
X48575000Y-46975000I0J-100000D01*
G01*
G37*
%TD.AperFunction*%
%TO.P,U4,5*%
%TO.N,BAT+*%
%TA.AperFunction,SMDPad,CuDef*%
G36*
G01*
X48575000Y-46325000D02*
X48575000Y-46525000D01*
G75*
G02*
X48475000Y-46625000I-100000J0D01*
G01*
X47225000Y-46625000D01*
G75*
G02*
X47125000Y-46525000I0J100000D01*
G01*
X47125000Y-46325000D01*
G75*
G02*
X47225000Y-46225000I100000J0D01*
G01*
X48475000Y-46225000D01*
G75*
G02*
X48575000Y-46325000I0J-100000D01*
G01*
G37*
%TD.AperFunction*%
%TO.P,U4,4*%
%TO.N,Net-(U4-Pad4)*%
%TA.AperFunction,SMDPad,CuDef*%
G36*
G01*
X52875000Y-46325000D02*
X52875000Y-46525000D01*
G75*
G02*
X52775000Y-46625000I-100000J0D01*
G01*
X51525000Y-46625000D01*
G75*
G02*
X51425000Y-46525000I0J100000D01*
G01*
X51425000Y-46325000D01*
G75*
G02*
X51525000Y-46225000I100000J0D01*
G01*
X52775000Y-46225000D01*
G75*
G02*
X52875000Y-46325000I0J-100000D01*
G01*
G37*
%TD.AperFunction*%
%TO.P,U4,3*%
%TO.N,Net-(D4-Pad1)*%
%TA.AperFunction,SMDPad,CuDef*%
G36*
G01*
X52875000Y-46975000D02*
X52875000Y-47175000D01*
G75*
G02*
X52775000Y-47275000I-100000J0D01*
G01*
X51525000Y-47275000D01*
G75*
G02*
X51425000Y-47175000I0J100000D01*
G01*
X51425000Y-46975000D01*
G75*
G02*
X51525000Y-46875000I100000J0D01*
G01*
X52775000Y-46875000D01*
G75*
G02*
X52875000Y-46975000I0J-100000D01*
G01*
G37*
%TD.AperFunction*%
%TO.P,U4,2*%
%TO.N,BAT-*%
%TA.AperFunction,SMDPad,CuDef*%
G36*
G01*
X52875000Y-47625000D02*
X52875000Y-47825000D01*
G75*
G02*
X52775000Y-47925000I-100000J0D01*
G01*
X51525000Y-47925000D01*
G75*
G02*
X51425000Y-47825000I0J100000D01*
G01*
X51425000Y-47625000D01*
G75*
G02*
X51525000Y-47525000I100000J0D01*
G01*
X52775000Y-47525000D01*
G75*
G02*
X52875000Y-47625000I0J-100000D01*
G01*
G37*
%TD.AperFunction*%
%TO.P,U4,1*%
%TO.N,Net-(R13-Pad2)*%
%TA.AperFunction,SMDPad,CuDef*%
G36*
G01*
X52875000Y-48275000D02*
X52875000Y-48475000D01*
G75*
G02*
X52775000Y-48575000I-100000J0D01*
G01*
X51525000Y-48575000D01*
G75*
G02*
X51425000Y-48475000I0J100000D01*
G01*
X51425000Y-48275000D01*
G75*
G02*
X51525000Y-48175000I100000J0D01*
G01*
X52775000Y-48175000D01*
G75*
G02*
X52875000Y-48275000I0J-100000D01*
G01*
G37*
%TD.AperFunction*%
%TD*%
D16*
%TO.P,U3,5*%
%TO.N,Net-(U3-Pad5)*%
X29100000Y-40650000D03*
%TO.P,U3,4*%
%TO.N,5V*%
X29100000Y-38750000D03*
%TO.P,U3,3*%
%TO.N,Net-(U3-Pad3)*%
X31800000Y-38750000D03*
%TO.P,U3,2*%
%TO.N,BAT-*%
X31800000Y-39700000D03*
%TO.P,U3,1*%
%TO.N,Net-(D5-Pad2)*%
X31800000Y-40650000D03*
%TD*%
D17*
%TO.P,SW2,2*%
%TO.N,Net-(R3-Pad1)*%
X56000000Y-32800000D03*
%TO.P,SW2,3*%
%TO.N,Net-(R12-Pad1)*%
X58000000Y-32800000D03*
%TO.P,SW2,4*%
%TO.N,Net-(R11-Pad1)*%
X60000000Y-32800000D03*
D18*
%TO.P,SW2,*%
%TO.N,*%
X62100000Y-32800000D03*
D17*
%TO.P,SW2,1*%
%TO.N,Net-(R2-Pad2)*%
X52000000Y-32800000D03*
D18*
%TO.P,SW2,*%
%TO.N,*%
X49900000Y-32800000D03*
%TD*%
%TO.P,R10,2*%
%TO.N,Net-(Q1-Pad1)*%
%TA.AperFunction,SMDPad,CuDef*%
G36*
G01*
X48525000Y-51574999D02*
X48525000Y-54425001D01*
G75*
G02*
X48275001Y-54675000I-249999J0D01*
G01*
X47249999Y-54675000D01*
G75*
G02*
X47000000Y-54425001I0J249999D01*
G01*
X47000000Y-51574999D01*
G75*
G02*
X47249999Y-51325000I249999J0D01*
G01*
X48275001Y-51325000D01*
G75*
G02*
X48525000Y-51574999I0J-249999D01*
G01*
G37*
%TD.AperFunction*%
%TO.P,R10,1*%
%TO.N,Net-(C9-Pad1)*%
%TA.AperFunction,SMDPad,CuDef*%
G36*
G01*
X54500000Y-51574999D02*
X54500000Y-54425001D01*
G75*
G02*
X54250001Y-54675000I-249999J0D01*
G01*
X53224999Y-54675000D01*
G75*
G02*
X52975000Y-54425001I0J249999D01*
G01*
X52975000Y-51574999D01*
G75*
G02*
X53224999Y-51325000I249999J0D01*
G01*
X54250001Y-51325000D01*
G75*
G02*
X54500000Y-51574999I0J-249999D01*
G01*
G37*
%TD.AperFunction*%
%TD*%
%TO.P,R9,2*%
%TO.N,5Vi*%
%TA.AperFunction,SMDPad,CuDef*%
G36*
G01*
X61500000Y-52737500D02*
X61500000Y-52262500D01*
G75*
G02*
X61737500Y-52025000I237500J0D01*
G01*
X62312500Y-52025000D01*
G75*
G02*
X62550000Y-52262500I0J-237500D01*
G01*
X62550000Y-52737500D01*
G75*
G02*
X62312500Y-52975000I-237500J0D01*
G01*
X61737500Y-52975000D01*
G75*
G02*
X61500000Y-52737500I0J237500D01*
G01*
G37*
%TD.AperFunction*%
%TO.P,R9,1*%
%TO.N,Net-(R13-Pad2)*%
%TA.AperFunction,SMDPad,CuDef*%
G36*
G01*
X59750000Y-52737500D02*
X59750000Y-52262500D01*
G75*
G02*
X59987500Y-52025000I237500J0D01*
G01*
X60562500Y-52025000D01*
G75*
G02*
X60800000Y-52262500I0J-237500D01*
G01*
X60800000Y-52737500D01*
G75*
G02*
X60562500Y-52975000I-237500J0D01*
G01*
X59987500Y-52975000D01*
G75*
G02*
X59750000Y-52737500I0J237500D01*
G01*
G37*
%TD.AperFunction*%
%TD*%
%TO.P,R8,2*%
%TO.N,Net-(D5-Pad2)*%
%TA.AperFunction,SMDPad,CuDef*%
G36*
G01*
X32850000Y-47450001D02*
X32850000Y-46549999D01*
G75*
G02*
X33099999Y-46300000I249999J0D01*
G01*
X33750001Y-46300000D01*
G75*
G02*
X34000000Y-46549999I0J-249999D01*
G01*
X34000000Y-47450001D01*
G75*
G02*
X33750001Y-47700000I-249999J0D01*
G01*
X33099999Y-47700000D01*
G75*
G02*
X32850000Y-47450001I0J249999D01*
G01*
G37*
%TD.AperFunction*%
%TO.P,R8,1*%
%TO.N,Net-(C10-Pad2)*%
%TA.AperFunction,SMDPad,CuDef*%
G36*
G01*
X30800000Y-47450001D02*
X30800000Y-46549999D01*
G75*
G02*
X31049999Y-46300000I249999J0D01*
G01*
X31700001Y-46300000D01*
G75*
G02*
X31950000Y-46549999I0J-249999D01*
G01*
X31950000Y-47450001D01*
G75*
G02*
X31700001Y-47700000I-249999J0D01*
G01*
X31049999Y-47700000D01*
G75*
G02*
X30800000Y-47450001I0J249999D01*
G01*
G37*
%TD.AperFunction*%
%TD*%
%TO.P,R7,2*%
%TO.N,Net-(C9-Pad1)*%
%TA.AperFunction,SMDPad,CuDef*%
G36*
G01*
X56762500Y-46550000D02*
X57237500Y-46550000D01*
G75*
G02*
X57475000Y-46787500I0J-237500D01*
G01*
X57475000Y-47362500D01*
G75*
G02*
X57237500Y-47600000I-237500J0D01*
G01*
X56762500Y-47600000D01*
G75*
G02*
X56525000Y-47362500I0J237500D01*
G01*
X56525000Y-46787500D01*
G75*
G02*
X56762500Y-46550000I237500J0D01*
G01*
G37*
%TD.AperFunction*%
%TO.P,R7,1*%
%TO.N,Net-(D4-Pad2)*%
%TA.AperFunction,SMDPad,CuDef*%
G36*
G01*
X56762500Y-44800000D02*
X57237500Y-44800000D01*
G75*
G02*
X57475000Y-45037500I0J-237500D01*
G01*
X57475000Y-45612500D01*
G75*
G02*
X57237500Y-45850000I-237500J0D01*
G01*
X56762500Y-45850000D01*
G75*
G02*
X56525000Y-45612500I0J237500D01*
G01*
X56525000Y-45037500D01*
G75*
G02*
X56762500Y-44800000I237500J0D01*
G01*
G37*
%TD.AperFunction*%
%TD*%
%TO.P,Q1,8*%
%TO.N,BAT+*%
%TA.AperFunction,SMDPad,CuDef*%
G36*
G01*
X40700000Y-45155000D02*
X40700000Y-45455000D01*
G75*
G02*
X40550000Y-45605000I-150000J0D01*
G01*
X38900000Y-45605000D01*
G75*
G02*
X38750000Y-45455000I0J150000D01*
G01*
X38750000Y-45155000D01*
G75*
G02*
X38900000Y-45005000I150000J0D01*
G01*
X40550000Y-45005000D01*
G75*
G02*
X40700000Y-45155000I0J-150000D01*
G01*
G37*
%TD.AperFunction*%
%TO.P,Q1,7*%
%TA.AperFunction,SMDPad,CuDef*%
G36*
G01*
X40700000Y-43885000D02*
X40700000Y-44185000D01*
G75*
G02*
X40550000Y-44335000I-150000J0D01*
G01*
X38900000Y-44335000D01*
G75*
G02*
X38750000Y-44185000I0J150000D01*
G01*
X38750000Y-43885000D01*
G75*
G02*
X38900000Y-43735000I150000J0D01*
G01*
X40550000Y-43735000D01*
G75*
G02*
X40700000Y-43885000I0J-150000D01*
G01*
G37*
%TD.AperFunction*%
%TO.P,Q1,6*%
%TA.AperFunction,SMDPad,CuDef*%
G36*
G01*
X40700000Y-42615000D02*
X40700000Y-42915000D01*
G75*
G02*
X40550000Y-43065000I-150000J0D01*
G01*
X38900000Y-43065000D01*
G75*
G02*
X38750000Y-42915000I0J150000D01*
G01*
X38750000Y-42615000D01*
G75*
G02*
X38900000Y-42465000I150000J0D01*
G01*
X40550000Y-42465000D01*
G75*
G02*
X40700000Y-42615000I0J-150000D01*
G01*
G37*
%TD.AperFunction*%
%TO.P,Q1,5*%
%TA.AperFunction,SMDPad,CuDef*%
G36*
G01*
X40700000Y-41345000D02*
X40700000Y-41645000D01*
G75*
G02*
X40550000Y-41795000I-150000J0D01*
G01*
X38900000Y-41795000D01*
G75*
G02*
X38750000Y-41645000I0J150000D01*
G01*
X38750000Y-41345000D01*
G75*
G02*
X38900000Y-41195000I150000J0D01*
G01*
X40550000Y-41195000D01*
G75*
G02*
X40700000Y-41345000I0J-150000D01*
G01*
G37*
%TD.AperFunction*%
%TO.P,Q1,4*%
%TO.N,Net-(Q1-Pad4)*%
%TA.AperFunction,SMDPad,CuDef*%
G36*
G01*
X45650000Y-41345000D02*
X45650000Y-41645000D01*
G75*
G02*
X45500000Y-41795000I-150000J0D01*
G01*
X43850000Y-41795000D01*
G75*
G02*
X43700000Y-41645000I0J150000D01*
G01*
X43700000Y-41345000D01*
G75*
G02*
X43850000Y-41195000I150000J0D01*
G01*
X45500000Y-41195000D01*
G75*
G02*
X45650000Y-41345000I0J-150000D01*
G01*
G37*
%TD.AperFunction*%
%TO.P,Q1,3*%
%TO.N,Net-(Q1-Pad1)*%
%TA.AperFunction,SMDPad,CuDef*%
G36*
G01*
X45650000Y-42615000D02*
X45650000Y-42915000D01*
G75*
G02*
X45500000Y-43065000I-150000J0D01*
G01*
X43850000Y-43065000D01*
G75*
G02*
X43700000Y-42915000I0J150000D01*
G01*
X43700000Y-42615000D01*
G75*
G02*
X43850000Y-42465000I150000J0D01*
G01*
X45500000Y-42465000D01*
G75*
G02*
X45650000Y-42615000I0J-150000D01*
G01*
G37*
%TD.AperFunction*%
%TO.P,Q1,2*%
%TA.AperFunction,SMDPad,CuDef*%
G36*
G01*
X45650000Y-43885000D02*
X45650000Y-44185000D01*
G75*
G02*
X45500000Y-44335000I-150000J0D01*
G01*
X43850000Y-44335000D01*
G75*
G02*
X43700000Y-44185000I0J150000D01*
G01*
X43700000Y-43885000D01*
G75*
G02*
X43850000Y-43735000I150000J0D01*
G01*
X45500000Y-43735000D01*
G75*
G02*
X45650000Y-43885000I0J-150000D01*
G01*
G37*
%TD.AperFunction*%
%TO.P,Q1,1*%
%TA.AperFunction,SMDPad,CuDef*%
G36*
G01*
X45650000Y-45155000D02*
X45650000Y-45455000D01*
G75*
G02*
X45500000Y-45605000I-150000J0D01*
G01*
X43850000Y-45605000D01*
G75*
G02*
X43700000Y-45455000I0J150000D01*
G01*
X43700000Y-45155000D01*
G75*
G02*
X43850000Y-45005000I150000J0D01*
G01*
X45500000Y-45005000D01*
G75*
G02*
X45650000Y-45155000I0J-150000D01*
G01*
G37*
%TD.AperFunction*%
%TD*%
%TO.P,L2,2*%
%TO.N,BAT+*%
%TA.AperFunction,SMDPad,CuDef*%
G36*
G01*
X36400000Y-42300000D02*
X36400000Y-40600000D01*
G75*
G02*
X36650000Y-40350000I250000J0D01*
G01*
X37400000Y-40350000D01*
G75*
G02*
X37650000Y-40600000I0J-250000D01*
G01*
X37650000Y-42300000D01*
G75*
G02*
X37400000Y-42550000I-250000J0D01*
G01*
X36650000Y-42550000D01*
G75*
G02*
X36400000Y-42300000I0J250000D01*
G01*
G37*
%TD.AperFunction*%
%TO.P,L2,1*%
%TO.N,Net-(D5-Pad2)*%
%TA.AperFunction,SMDPad,CuDef*%
G36*
G01*
X34250000Y-42300000D02*
X34250000Y-40600000D01*
G75*
G02*
X34500000Y-40350000I250000J0D01*
G01*
X35250000Y-40350000D01*
G75*
G02*
X35500000Y-40600000I0J-250000D01*
G01*
X35500000Y-42300000D01*
G75*
G02*
X35250000Y-42550000I-250000J0D01*
G01*
X34500000Y-42550000D01*
G75*
G02*
X34250000Y-42300000I0J250000D01*
G01*
G37*
%TD.AperFunction*%
%TD*%
D13*
%TO.P,J2,2*%
%TO.N,BAT-*%
X38420000Y-50700000D03*
%TO.P,J2,1*%
%TO.N,BAT+*%
X43500000Y-50700000D03*
%TD*%
%TO.P,J1,2*%
%TO.N,BAT-*%
X73400000Y-26380000D03*
%TO.P,J1,1*%
%TO.N,BOOST_OUT*%
X73400000Y-21300000D03*
%TD*%
D19*
%TO.P,D5,2*%
%TO.N,Net-(D5-Pad2)*%
X32700000Y-44200000D03*
%TO.P,D5,1*%
%TO.N,5V*%
X27700000Y-44200000D03*
%TD*%
%TO.P,D4,2*%
%TO.N,Net-(D4-Pad2)*%
%TA.AperFunction,SMDPad,CuDef*%
G36*
G01*
X55037500Y-45850000D02*
X54562500Y-45850000D01*
G75*
G02*
X54325000Y-45612500I0J237500D01*
G01*
X54325000Y-45037500D01*
G75*
G02*
X54562500Y-44800000I237500J0D01*
G01*
X55037500Y-44800000D01*
G75*
G02*
X55275000Y-45037500I0J-237500D01*
G01*
X55275000Y-45612500D01*
G75*
G02*
X55037500Y-45850000I-237500J0D01*
G01*
G37*
%TD.AperFunction*%
%TO.P,D4,1*%
%TO.N,Net-(D4-Pad1)*%
%TA.AperFunction,SMDPad,CuDef*%
G36*
G01*
X55037500Y-47600000D02*
X54562500Y-47600000D01*
G75*
G02*
X54325000Y-47362500I0J237500D01*
G01*
X54325000Y-46787500D01*
G75*
G02*
X54562500Y-46550000I237500J0D01*
G01*
X55037500Y-46550000D01*
G75*
G02*
X55275000Y-46787500I0J-237500D01*
G01*
X55275000Y-47362500D01*
G75*
G02*
X55037500Y-47600000I-237500J0D01*
G01*
G37*
%TD.AperFunction*%
%TD*%
%TO.P,D3,2*%
%TO.N,5Vi*%
X63850000Y-49850000D03*
%TO.P,D3,1*%
%TO.N,Net-(C9-Pad1)*%
X58850000Y-49850000D03*
%TD*%
%TO.P,C14,2*%
%TO.N,5V*%
%TA.AperFunction,SMDPad,CuDef*%
G36*
G01*
X26200000Y-40837500D02*
X26200000Y-40362500D01*
G75*
G02*
X26437500Y-40125000I237500J0D01*
G01*
X27012500Y-40125000D01*
G75*
G02*
X27250000Y-40362500I0J-237500D01*
G01*
X27250000Y-40837500D01*
G75*
G02*
X27012500Y-41075000I-237500J0D01*
G01*
X26437500Y-41075000D01*
G75*
G02*
X26200000Y-40837500I0J237500D01*
G01*
G37*
%TD.AperFunction*%
%TO.P,C14,1*%
%TO.N,BAT-*%
%TA.AperFunction,SMDPad,CuDef*%
G36*
G01*
X24450000Y-40837500D02*
X24450000Y-40362500D01*
G75*
G02*
X24687500Y-40125000I237500J0D01*
G01*
X25262500Y-40125000D01*
G75*
G02*
X25500000Y-40362500I0J-237500D01*
G01*
X25500000Y-40837500D01*
G75*
G02*
X25262500Y-41075000I-237500J0D01*
G01*
X24687500Y-41075000D01*
G75*
G02*
X24450000Y-40837500I0J237500D01*
G01*
G37*
%TD.AperFunction*%
%TD*%
%TO.P,C12,2*%
%TO.N,5V*%
%TA.AperFunction,SMDPad,CuDef*%
G36*
G01*
X26150000Y-38937500D02*
X26150000Y-38462500D01*
G75*
G02*
X26387500Y-38225000I237500J0D01*
G01*
X26962500Y-38225000D01*
G75*
G02*
X27200000Y-38462500I0J-237500D01*
G01*
X27200000Y-38937500D01*
G75*
G02*
X26962500Y-39175000I-237500J0D01*
G01*
X26387500Y-39175000D01*
G75*
G02*
X26150000Y-38937500I0J237500D01*
G01*
G37*
%TD.AperFunction*%
%TO.P,C12,1*%
%TO.N,BAT-*%
%TA.AperFunction,SMDPad,CuDef*%
G36*
G01*
X24400000Y-38937500D02*
X24400000Y-38462500D01*
G75*
G02*
X24637500Y-38225000I237500J0D01*
G01*
X25212500Y-38225000D01*
G75*
G02*
X25450000Y-38462500I0J-237500D01*
G01*
X25450000Y-38937500D01*
G75*
G02*
X25212500Y-39175000I-237500J0D01*
G01*
X24637500Y-39175000D01*
G75*
G02*
X24400000Y-38937500I0J237500D01*
G01*
G37*
%TD.AperFunction*%
%TD*%
%TO.P,C11,2*%
%TO.N,5V*%
%TA.AperFunction,SMDPad,CuDef*%
G36*
G01*
X26150000Y-37037500D02*
X26150000Y-36562500D01*
G75*
G02*
X26387500Y-36325000I237500J0D01*
G01*
X26962500Y-36325000D01*
G75*
G02*
X27200000Y-36562500I0J-237500D01*
G01*
X27200000Y-37037500D01*
G75*
G02*
X26962500Y-37275000I-237500J0D01*
G01*
X26387500Y-37275000D01*
G75*
G02*
X26150000Y-37037500I0J237500D01*
G01*
G37*
%TD.AperFunction*%
%TO.P,C11,1*%
%TO.N,BAT-*%
%TA.AperFunction,SMDPad,CuDef*%
G36*
G01*
X24400000Y-37037500D02*
X24400000Y-36562500D01*
G75*
G02*
X24637500Y-36325000I237500J0D01*
G01*
X25212500Y-36325000D01*
G75*
G02*
X25450000Y-36562500I0J-237500D01*
G01*
X25450000Y-37037500D01*
G75*
G02*
X25212500Y-37275000I-237500J0D01*
G01*
X24637500Y-37275000D01*
G75*
G02*
X24400000Y-37037500I0J237500D01*
G01*
G37*
%TD.AperFunction*%
%TD*%
%TO.P,C10,2*%
%TO.N,Net-(C10-Pad2)*%
%TA.AperFunction,SMDPad,CuDef*%
G36*
G01*
X27900000Y-47237500D02*
X27900000Y-46762500D01*
G75*
G02*
X28137500Y-46525000I237500J0D01*
G01*
X28712500Y-46525000D01*
G75*
G02*
X28950000Y-46762500I0J-237500D01*
G01*
X28950000Y-47237500D01*
G75*
G02*
X28712500Y-47475000I-237500J0D01*
G01*
X28137500Y-47475000D01*
G75*
G02*
X27900000Y-47237500I0J237500D01*
G01*
G37*
%TD.AperFunction*%
%TO.P,C10,1*%
%TO.N,5V*%
%TA.AperFunction,SMDPad,CuDef*%
G36*
G01*
X26150000Y-47237500D02*
X26150000Y-46762500D01*
G75*
G02*
X26387500Y-46525000I237500J0D01*
G01*
X26962500Y-46525000D01*
G75*
G02*
X27200000Y-46762500I0J-237500D01*
G01*
X27200000Y-47237500D01*
G75*
G02*
X26962500Y-47475000I-237500J0D01*
G01*
X26387500Y-47475000D01*
G75*
G02*
X26150000Y-47237500I0J237500D01*
G01*
G37*
%TD.AperFunction*%
%TD*%
D20*
%TO.P,D1,2*%
%TO.N,Net-(D1-Pad2)*%
X54800000Y-18800000D03*
%TO.P,D1,1*%
%TO.N,BOOST_OUT*%
X57600000Y-18800000D03*
%TD*%
D21*
%TO.P,H2,1*%
%TO.N,BAT-*%
X44647056Y-33802944D03*
X42950000Y-33100000D03*
X41252944Y-33802944D03*
X40550000Y-35500000D03*
X41252944Y-37197056D03*
X42950000Y-37900000D03*
X44647056Y-37197056D03*
X45350000Y-35500000D03*
D22*
X42950000Y-35500000D03*
%TD*%
%TO.P,R4,2*%
%TO.N,Net-(D2-Pad2)*%
%TA.AperFunction,SMDPad,CuDef*%
G36*
G01*
X30062500Y-23525000D02*
X30537500Y-23525000D01*
G75*
G02*
X30775000Y-23762500I0J-237500D01*
G01*
X30775000Y-24262500D01*
G75*
G02*
X30537500Y-24500000I-237500J0D01*
G01*
X30062500Y-24500000D01*
G75*
G02*
X29825000Y-24262500I0J237500D01*
G01*
X29825000Y-23762500D01*
G75*
G02*
X30062500Y-23525000I237500J0D01*
G01*
G37*
%TD.AperFunction*%
%TO.P,R4,1*%
%TO.N,Net-(C1-Pad1)*%
%TA.AperFunction,SMDPad,CuDef*%
G36*
G01*
X30062500Y-21700000D02*
X30537500Y-21700000D01*
G75*
G02*
X30775000Y-21937500I0J-237500D01*
G01*
X30775000Y-22437500D01*
G75*
G02*
X30537500Y-22675000I-237500J0D01*
G01*
X30062500Y-22675000D01*
G75*
G02*
X29825000Y-22437500I0J237500D01*
G01*
X29825000Y-21937500D01*
G75*
G02*
X30062500Y-21700000I237500J0D01*
G01*
G37*
%TD.AperFunction*%
%TD*%
%TO.P,D2,2*%
%TO.N,Net-(D2-Pad2)*%
%TA.AperFunction,SMDPad,CuDef*%
G36*
G01*
X30537500Y-26550000D02*
X30062500Y-26550000D01*
G75*
G02*
X29825000Y-26312500I0J237500D01*
G01*
X29825000Y-25737500D01*
G75*
G02*
X30062500Y-25500000I237500J0D01*
G01*
X30537500Y-25500000D01*
G75*
G02*
X30775000Y-25737500I0J-237500D01*
G01*
X30775000Y-26312500D01*
G75*
G02*
X30537500Y-26550000I-237500J0D01*
G01*
G37*
%TD.AperFunction*%
%TO.P,D2,1*%
%TO.N,BAT-*%
%TA.AperFunction,SMDPad,CuDef*%
G36*
G01*
X30537500Y-28300000D02*
X30062500Y-28300000D01*
G75*
G02*
X29825000Y-28062500I0J237500D01*
G01*
X29825000Y-27487500D01*
G75*
G02*
X30062500Y-27250000I237500J0D01*
G01*
X30537500Y-27250000D01*
G75*
G02*
X30775000Y-27487500I0J-237500D01*
G01*
X30775000Y-28062500D01*
G75*
G02*
X30537500Y-28300000I-237500J0D01*
G01*
G37*
%TD.AperFunction*%
%TD*%
D11*
%TO.P,C3,2*%
%TO.N,BAT-*%
X36250000Y-25650000D03*
D12*
%TO.P,C3,1*%
%TO.N,Net-(C1-Pad1)*%
X36250000Y-22150000D03*
%TD*%
%TO.P,C1,2*%
%TO.N,BAT-*%
%TA.AperFunction,SMDPad,CuDef*%
G36*
G01*
X44062500Y-23475000D02*
X44537500Y-23475000D01*
G75*
G02*
X44775000Y-23712500I0J-237500D01*
G01*
X44775000Y-24312500D01*
G75*
G02*
X44537500Y-24550000I-237500J0D01*
G01*
X44062500Y-24550000D01*
G75*
G02*
X43825000Y-24312500I0J237500D01*
G01*
X43825000Y-23712500D01*
G75*
G02*
X44062500Y-23475000I237500J0D01*
G01*
G37*
%TD.AperFunction*%
%TO.P,C1,1*%
%TO.N,Net-(C1-Pad1)*%
%TA.AperFunction,SMDPad,CuDef*%
G36*
G01*
X44062500Y-21750000D02*
X44537500Y-21750000D01*
G75*
G02*
X44775000Y-21987500I0J-237500D01*
G01*
X44775000Y-22587500D01*
G75*
G02*
X44537500Y-22825000I-237500J0D01*
G01*
X44062500Y-22825000D01*
G75*
G02*
X43825000Y-22587500I0J237500D01*
G01*
X43825000Y-21987500D01*
G75*
G02*
X44062500Y-21750000I237500J0D01*
G01*
G37*
%TD.AperFunction*%
%TD*%
%TO.P,12V,2*%
%TO.N,BAT-*%
%TA.AperFunction,SMDPad,CuDef*%
G36*
G01*
X56237500Y-28075000D02*
X55762500Y-28075000D01*
G75*
G02*
X55525000Y-27837500I0J237500D01*
G01*
X55525000Y-27337500D01*
G75*
G02*
X55762500Y-27100000I237500J0D01*
G01*
X56237500Y-27100000D01*
G75*
G02*
X56475000Y-27337500I0J-237500D01*
G01*
X56475000Y-27837500D01*
G75*
G02*
X56237500Y-28075000I-237500J0D01*
G01*
G37*
%TD.AperFunction*%
%TO.P,12V,1*%
%TO.N,Net-(R3-Pad1)*%
%TA.AperFunction,SMDPad,CuDef*%
G36*
G01*
X56237500Y-29900000D02*
X55762500Y-29900000D01*
G75*
G02*
X55525000Y-29662500I0J237500D01*
G01*
X55525000Y-29162500D01*
G75*
G02*
X55762500Y-28925000I237500J0D01*
G01*
X56237500Y-28925000D01*
G75*
G02*
X56475000Y-29162500I0J-237500D01*
G01*
X56475000Y-29662500D01*
G75*
G02*
X56237500Y-29900000I-237500J0D01*
G01*
G37*
%TD.AperFunction*%
%TD*%
D23*
%TO.P,U2,B5*%
%TO.N,Net-(R5-Pad2)*%
X71450000Y-46250000D03*
%TO.P,U2,A5*%
%TO.N,Net-(R6-Pad2)*%
X71450000Y-45250000D03*
D24*
%TO.P,U2,A9*%
%TO.N,Net-(U2-PadA9)*%
X71450000Y-47250000D03*
%TO.P,U2,B9*%
%TO.N,5Vusb*%
X71450000Y-44250000D03*
D25*
%TO.P,U2,A12*%
%TO.N,BAT-*%
X71450000Y-48500000D03*
%TO.P,U2,B12*%
X71450000Y-43000000D03*
%TA.AperFunction,ComponentPad*%
D26*
%TO.P,U2,SHELL*%
G36*
X72500000Y-50550000D02*
G01*
X72500000Y-49550000D01*
X74200000Y-49550000D01*
X74200000Y-50550000D01*
X72500000Y-50550000D01*
G37*
%TD.AperFunction*%
%TA.AperFunction,ComponentPad*%
G36*
X72500000Y-42000000D02*
G01*
X72500000Y-41000000D01*
X74200000Y-41000000D01*
X74200000Y-42000000D01*
X72500000Y-42000000D01*
G37*
%TD.AperFunction*%
%TD*%
D27*
%TO.P,U1,1*%
%TO.N,BAT-*%
X46552500Y-23895000D03*
%TO.P,U1,2*%
%TO.N,Net-(C1-Pad1)*%
X46552500Y-25165000D03*
%TO.P,U1,3*%
X46552500Y-26435000D03*
%TO.P,U1,4*%
%TO.N,Net-(C5-Pad1)*%
X46552500Y-27705000D03*
%TO.P,U1,5*%
%TO.N,BAT-*%
X51547500Y-27705000D03*
%TO.P,U1,6*%
%TO.N,Net-(R2-Pad2)*%
X51547500Y-26435000D03*
%TO.P,U1,7*%
%TO.N,Net-(C6-Pad1)*%
X51547500Y-25165000D03*
%TO.P,U1,8*%
%TO.N,Net-(D1-Pad2)*%
X51547500Y-23895000D03*
D28*
%TO.P,U1,9*%
%TO.N,BAT-*%
X49050000Y-25800000D03*
%TD*%
%TA.AperFunction,ComponentPad*%
D26*
%TO.P,SW1,1*%
%TO.N,5V*%
G36*
X25850000Y-34300000D02*
G01*
X18850000Y-34300000D01*
X18850000Y-31300000D01*
X25850000Y-31300000D01*
X25850000Y-34300000D01*
G37*
%TD.AperFunction*%
%TA.AperFunction,ComponentPad*%
%TO.P,SW1,2*%
%TO.N,Net-(C1-Pad1)*%
G36*
X25850000Y-27300000D02*
G01*
X18850000Y-27300000D01*
X18850000Y-24300000D01*
X25850000Y-24300000D01*
X25850000Y-27300000D01*
G37*
%TD.AperFunction*%
%TA.AperFunction,ComponentPad*%
%TO.P,SW1,3*%
%TO.N,N/C*%
G36*
X25850000Y-20300000D02*
G01*
X18850000Y-20300000D01*
X18850000Y-17300000D01*
X25850000Y-17300000D01*
X25850000Y-20300000D01*
G37*
%TD.AperFunction*%
%TD*%
%TO.P,R6,2*%
%TO.N,Net-(R6-Pad2)*%
%TA.AperFunction,SMDPad,CuDef*%
G36*
G01*
X76562500Y-43975000D02*
X77037500Y-43975000D01*
G75*
G02*
X77275000Y-44212500I0J-237500D01*
G01*
X77275000Y-44712500D01*
G75*
G02*
X77037500Y-44950000I-237500J0D01*
G01*
X76562500Y-44950000D01*
G75*
G02*
X76325000Y-44712500I0J237500D01*
G01*
X76325000Y-44212500D01*
G75*
G02*
X76562500Y-43975000I237500J0D01*
G01*
G37*
%TD.AperFunction*%
%TO.P,R6,1*%
%TO.N,BAT-*%
%TA.AperFunction,SMDPad,CuDef*%
G36*
G01*
X76562500Y-42150000D02*
X77037500Y-42150000D01*
G75*
G02*
X77275000Y-42387500I0J-237500D01*
G01*
X77275000Y-42887500D01*
G75*
G02*
X77037500Y-43125000I-237500J0D01*
G01*
X76562500Y-43125000D01*
G75*
G02*
X76325000Y-42887500I0J237500D01*
G01*
X76325000Y-42387500D01*
G75*
G02*
X76562500Y-42150000I237500J0D01*
G01*
G37*
%TD.AperFunction*%
%TD*%
%TO.P,R5,2*%
%TO.N,Net-(R5-Pad2)*%
%TA.AperFunction,SMDPad,CuDef*%
G36*
G01*
X77037500Y-47325000D02*
X76562500Y-47325000D01*
G75*
G02*
X76325000Y-47087500I0J237500D01*
G01*
X76325000Y-46587500D01*
G75*
G02*
X76562500Y-46350000I237500J0D01*
G01*
X77037500Y-46350000D01*
G75*
G02*
X77275000Y-46587500I0J-237500D01*
G01*
X77275000Y-47087500D01*
G75*
G02*
X77037500Y-47325000I-237500J0D01*
G01*
G37*
%TD.AperFunction*%
%TO.P,R5,1*%
%TO.N,BAT-*%
%TA.AperFunction,SMDPad,CuDef*%
G36*
G01*
X77037500Y-49150000D02*
X76562500Y-49150000D01*
G75*
G02*
X76325000Y-48912500I0J237500D01*
G01*
X76325000Y-48412500D01*
G75*
G02*
X76562500Y-48175000I237500J0D01*
G01*
X77037500Y-48175000D01*
G75*
G02*
X77275000Y-48412500I0J-237500D01*
G01*
X77275000Y-48912500D01*
G75*
G02*
X77037500Y-49150000I-237500J0D01*
G01*
G37*
%TD.AperFunction*%
%TD*%
%TO.P,R2,2*%
%TO.N,Net-(R2-Pad2)*%
%TA.AperFunction,SMDPad,CuDef*%
G36*
G01*
X55612500Y-23425000D02*
X56087500Y-23425000D01*
G75*
G02*
X56325000Y-23662500I0J-237500D01*
G01*
X56325000Y-24162500D01*
G75*
G02*
X56087500Y-24400000I-237500J0D01*
G01*
X55612500Y-24400000D01*
G75*
G02*
X55375000Y-24162500I0J237500D01*
G01*
X55375000Y-23662500D01*
G75*
G02*
X55612500Y-23425000I237500J0D01*
G01*
G37*
%TD.AperFunction*%
%TO.P,R2,1*%
%TO.N,BOOST_OUT*%
%TA.AperFunction,SMDPad,CuDef*%
G36*
G01*
X55612500Y-21600000D02*
X56087500Y-21600000D01*
G75*
G02*
X56325000Y-21837500I0J-237500D01*
G01*
X56325000Y-22337500D01*
G75*
G02*
X56087500Y-22575000I-237500J0D01*
G01*
X55612500Y-22575000D01*
G75*
G02*
X55375000Y-22337500I0J237500D01*
G01*
X55375000Y-21837500D01*
G75*
G02*
X55612500Y-21600000I237500J0D01*
G01*
G37*
%TD.AperFunction*%
%TD*%
%TO.P,R1,2*%
%TO.N,Net-(C4-Pad1)*%
%TA.AperFunction,SMDPad,CuDef*%
G36*
G01*
X44162500Y-29125000D02*
X44637500Y-29125000D01*
G75*
G02*
X44875000Y-29362500I0J-237500D01*
G01*
X44875000Y-29862500D01*
G75*
G02*
X44637500Y-30100000I-237500J0D01*
G01*
X44162500Y-30100000D01*
G75*
G02*
X43925000Y-29862500I0J237500D01*
G01*
X43925000Y-29362500D01*
G75*
G02*
X44162500Y-29125000I237500J0D01*
G01*
G37*
%TD.AperFunction*%
%TO.P,R1,1*%
%TO.N,Net-(C5-Pad1)*%
%TA.AperFunction,SMDPad,CuDef*%
G36*
G01*
X44162500Y-27300000D02*
X44637500Y-27300000D01*
G75*
G02*
X44875000Y-27537500I0J-237500D01*
G01*
X44875000Y-28037500D01*
G75*
G02*
X44637500Y-28275000I-237500J0D01*
G01*
X44162500Y-28275000D01*
G75*
G02*
X43925000Y-28037500I0J237500D01*
G01*
X43925000Y-27537500D01*
G75*
G02*
X44162500Y-27300000I237500J0D01*
G01*
G37*
%TD.AperFunction*%
%TD*%
D11*
%TO.P,C8,2*%
%TO.N,BAT-*%
X64200000Y-25300000D03*
D12*
%TO.P,C8,1*%
%TO.N,BOOST_OUT*%
X64200000Y-21800000D03*
%TD*%
%TO.P,C7,2*%
%TO.N,BAT-*%
%TA.AperFunction,SMDPad,CuDef*%
G36*
G01*
X57512500Y-23325000D02*
X57987500Y-23325000D01*
G75*
G02*
X58225000Y-23562500I0J-237500D01*
G01*
X58225000Y-24162500D01*
G75*
G02*
X57987500Y-24400000I-237500J0D01*
G01*
X57512500Y-24400000D01*
G75*
G02*
X57275000Y-24162500I0J237500D01*
G01*
X57275000Y-23562500D01*
G75*
G02*
X57512500Y-23325000I237500J0D01*
G01*
G37*
%TD.AperFunction*%
%TO.P,C7,1*%
%TO.N,BOOST_OUT*%
%TA.AperFunction,SMDPad,CuDef*%
G36*
G01*
X57512500Y-21600000D02*
X57987500Y-21600000D01*
G75*
G02*
X58225000Y-21837500I0J-237500D01*
G01*
X58225000Y-22437500D01*
G75*
G02*
X57987500Y-22675000I-237500J0D01*
G01*
X57512500Y-22675000D01*
G75*
G02*
X57275000Y-22437500I0J237500D01*
G01*
X57275000Y-21837500D01*
G75*
G02*
X57512500Y-21600000I237500J0D01*
G01*
G37*
%TD.AperFunction*%
%TD*%
%TO.P,C6,2*%
%TO.N,BAT-*%
%TA.AperFunction,SMDPad,CuDef*%
G36*
G01*
X54262500Y-27025000D02*
X54737500Y-27025000D01*
G75*
G02*
X54975000Y-27262500I0J-237500D01*
G01*
X54975000Y-27862500D01*
G75*
G02*
X54737500Y-28100000I-237500J0D01*
G01*
X54262500Y-28100000D01*
G75*
G02*
X54025000Y-27862500I0J237500D01*
G01*
X54025000Y-27262500D01*
G75*
G02*
X54262500Y-27025000I237500J0D01*
G01*
G37*
%TD.AperFunction*%
%TO.P,C6,1*%
%TO.N,Net-(C6-Pad1)*%
%TA.AperFunction,SMDPad,CuDef*%
G36*
G01*
X54262500Y-25300000D02*
X54737500Y-25300000D01*
G75*
G02*
X54975000Y-25537500I0J-237500D01*
G01*
X54975000Y-26137500D01*
G75*
G02*
X54737500Y-26375000I-237500J0D01*
G01*
X54262500Y-26375000D01*
G75*
G02*
X54025000Y-26137500I0J237500D01*
G01*
X54025000Y-25537500D01*
G75*
G02*
X54262500Y-25300000I237500J0D01*
G01*
G37*
%TD.AperFunction*%
%TD*%
%TO.P,C5,2*%
%TO.N,BAT-*%
%TA.AperFunction,SMDPad,CuDef*%
G36*
G01*
X41175000Y-27562500D02*
X41175000Y-28037500D01*
G75*
G02*
X40937500Y-28275000I-237500J0D01*
G01*
X40337500Y-28275000D01*
G75*
G02*
X40100000Y-28037500I0J237500D01*
G01*
X40100000Y-27562500D01*
G75*
G02*
X40337500Y-27325000I237500J0D01*
G01*
X40937500Y-27325000D01*
G75*
G02*
X41175000Y-27562500I0J-237500D01*
G01*
G37*
%TD.AperFunction*%
%TO.P,C5,1*%
%TO.N,Net-(C5-Pad1)*%
%TA.AperFunction,SMDPad,CuDef*%
G36*
G01*
X42900000Y-27562500D02*
X42900000Y-28037500D01*
G75*
G02*
X42662500Y-28275000I-237500J0D01*
G01*
X42062500Y-28275000D01*
G75*
G02*
X41825000Y-28037500I0J237500D01*
G01*
X41825000Y-27562500D01*
G75*
G02*
X42062500Y-27325000I237500J0D01*
G01*
X42662500Y-27325000D01*
G75*
G02*
X42900000Y-27562500I0J-237500D01*
G01*
G37*
%TD.AperFunction*%
%TD*%
%TO.P,C4,2*%
%TO.N,BAT-*%
%TA.AperFunction,SMDPad,CuDef*%
G36*
G01*
X41175000Y-29362500D02*
X41175000Y-29837500D01*
G75*
G02*
X40937500Y-30075000I-237500J0D01*
G01*
X40337500Y-30075000D01*
G75*
G02*
X40100000Y-29837500I0J237500D01*
G01*
X40100000Y-29362500D01*
G75*
G02*
X40337500Y-29125000I237500J0D01*
G01*
X40937500Y-29125000D01*
G75*
G02*
X41175000Y-29362500I0J-237500D01*
G01*
G37*
%TD.AperFunction*%
%TO.P,C4,1*%
%TO.N,Net-(C4-Pad1)*%
%TA.AperFunction,SMDPad,CuDef*%
G36*
G01*
X42900000Y-29362500D02*
X42900000Y-29837500D01*
G75*
G02*
X42662500Y-30075000I-237500J0D01*
G01*
X42062500Y-30075000D01*
G75*
G02*
X41825000Y-29837500I0J237500D01*
G01*
X41825000Y-29362500D01*
G75*
G02*
X42062500Y-29125000I237500J0D01*
G01*
X42662500Y-29125000D01*
G75*
G02*
X42900000Y-29362500I0J-237500D01*
G01*
G37*
%TD.AperFunction*%
%TD*%
%TO.P,C2,2*%
%TO.N,BAT-*%
%TA.AperFunction,SMDPad,CuDef*%
G36*
G01*
X42162500Y-23475000D02*
X42637500Y-23475000D01*
G75*
G02*
X42875000Y-23712500I0J-237500D01*
G01*
X42875000Y-24312500D01*
G75*
G02*
X42637500Y-24550000I-237500J0D01*
G01*
X42162500Y-24550000D01*
G75*
G02*
X41925000Y-24312500I0J237500D01*
G01*
X41925000Y-23712500D01*
G75*
G02*
X42162500Y-23475000I237500J0D01*
G01*
G37*
%TD.AperFunction*%
%TO.P,C2,1*%
%TO.N,Net-(C1-Pad1)*%
%TA.AperFunction,SMDPad,CuDef*%
G36*
G01*
X42162500Y-21750000D02*
X42637500Y-21750000D01*
G75*
G02*
X42875000Y-21987500I0J-237500D01*
G01*
X42875000Y-22587500D01*
G75*
G02*
X42637500Y-22825000I-237500J0D01*
G01*
X42162500Y-22825000D01*
G75*
G02*
X41925000Y-22587500I0J237500D01*
G01*
X41925000Y-21987500D01*
G75*
G02*
X42162500Y-21750000I237500J0D01*
G01*
G37*
%TD.AperFunction*%
%TD*%
D29*
%TO.N,Net-(C1-Pad1)*%
X44350000Y-20650000D03*
X44350000Y-25300000D03*
%TO.N,Net-(R2-Pad2)*%
X53100000Y-26400000D03*
X55800000Y-25200000D03*
%TO.N,BAT-*%
X48400000Y-24400000D03*
X48400000Y-26500000D03*
X48400000Y-25500000D03*
X48400000Y-17200000D03*
X48400000Y-18200000D03*
X48400000Y-19200000D03*
X48400000Y-20200000D03*
X48400000Y-21300000D03*
X48400000Y-16200000D03*
X48400000Y-23400000D03*
X48400000Y-27700000D03*
X49300000Y-28700000D03*
X49300000Y-27700000D03*
X48400000Y-28700000D03*
X48400000Y-29700000D03*
X49300000Y-29700000D03*
X50400000Y-29700000D03*
X47300000Y-29700000D03*
X46400000Y-29700000D03*
X62600000Y-27400000D03*
X62600000Y-28400000D03*
X61700000Y-27400000D03*
X61700000Y-28400000D03*
X61700000Y-29400000D03*
X62600000Y-29400000D03*
X60600000Y-25500000D03*
X59700000Y-25500000D03*
X59700000Y-24600000D03*
X60600000Y-24600000D03*
X63700000Y-27400000D03*
X64600000Y-28400000D03*
X64600000Y-27400000D03*
X63700000Y-28400000D03*
X63700000Y-29400000D03*
X64600000Y-29400000D03*
X66600000Y-28400000D03*
X65700000Y-28400000D03*
X65700000Y-27400000D03*
X66600000Y-27400000D03*
X65700000Y-29400000D03*
X66600000Y-29400000D03*
X61700000Y-24600000D03*
X61700000Y-25500000D03*
X61700000Y-26500000D03*
X38800000Y-24800000D03*
X38800000Y-23800000D03*
X37900000Y-24800000D03*
X37900000Y-23800000D03*
X40600000Y-24800000D03*
X40600000Y-23800000D03*
X37900000Y-26800000D03*
X38800000Y-25800000D03*
X37900000Y-25800000D03*
X38800000Y-26800000D03*
X54200000Y-24250000D03*
X53300000Y-24250000D03*
X48400000Y-22500000D03*
D30*
X22300000Y-39800000D03*
X23300000Y-36500000D03*
X23300000Y-37600000D03*
X22300000Y-37600000D03*
X23300000Y-41000000D03*
X22300000Y-38700000D03*
X22300000Y-41000000D03*
X23300000Y-39800000D03*
X22300000Y-36500000D03*
X23300000Y-38700000D03*
D29*
X37900000Y-27700000D03*
X38800000Y-27700000D03*
X37900000Y-28700000D03*
X38800000Y-28700000D03*
X38800000Y-29600000D03*
X37900000Y-29600000D03*
X38800000Y-31500000D03*
X37900000Y-31500000D03*
X37900000Y-30600000D03*
X38800000Y-30600000D03*
X36000000Y-31500000D03*
X36900000Y-31500000D03*
X36900000Y-30600000D03*
X36000000Y-30600000D03*
X36900000Y-29600000D03*
X36000000Y-29600000D03*
X36000000Y-28700000D03*
X36900000Y-28700000D03*
X35000000Y-29600000D03*
X34100000Y-29600000D03*
X34100000Y-28700000D03*
X35000000Y-28700000D03*
X34100000Y-30600000D03*
X34100000Y-31500000D03*
X35000000Y-30600000D03*
X35000000Y-31500000D03*
X32200000Y-30600000D03*
X33100000Y-31500000D03*
X32200000Y-31500000D03*
X33100000Y-30600000D03*
X32200000Y-29600000D03*
X33100000Y-28700000D03*
X32200000Y-28700000D03*
X33100000Y-29600000D03*
X32200000Y-33400000D03*
X33100000Y-33400000D03*
X32200000Y-32500000D03*
X33100000Y-32500000D03*
X35000000Y-32500000D03*
X34100000Y-33400000D03*
X35000000Y-33400000D03*
X34100000Y-32500000D03*
X36000000Y-32500000D03*
X36900000Y-33400000D03*
X36900000Y-32500000D03*
X36000000Y-33400000D03*
X32200000Y-35300000D03*
X32200000Y-34400000D03*
X33100000Y-35300000D03*
X33100000Y-34400000D03*
X35000000Y-35300000D03*
X34100000Y-34400000D03*
X34100000Y-35300000D03*
X35000000Y-34400000D03*
X36900000Y-34400000D03*
X36000000Y-35300000D03*
X36000000Y-34400000D03*
X33100000Y-36300000D03*
X32200000Y-36300000D03*
X35000000Y-36300000D03*
X34100000Y-36300000D03*
X36000000Y-36300000D03*
X31300000Y-36300000D03*
X31300000Y-34400000D03*
X31300000Y-35300000D03*
X31300000Y-33400000D03*
X31300000Y-32500000D03*
X31300000Y-31500000D03*
X31300000Y-30600000D03*
X66600000Y-30400000D03*
X65700000Y-30400000D03*
X65700000Y-31400000D03*
X66600000Y-31400000D03*
X65700000Y-33400000D03*
X66600000Y-33400000D03*
X66600000Y-32400000D03*
X65700000Y-32400000D03*
X66600000Y-34500000D03*
X65700000Y-34500000D03*
X67600000Y-34500000D03*
X68500000Y-34500000D03*
X67600000Y-32400000D03*
X68500000Y-33400000D03*
X67600000Y-33400000D03*
X68500000Y-32400000D03*
X67500000Y-31400000D03*
X68400000Y-31400000D03*
X68400000Y-30400000D03*
X67500000Y-30400000D03*
X68400000Y-28400000D03*
X68400000Y-29400000D03*
X67500000Y-28400000D03*
X67500000Y-29400000D03*
X64800000Y-34500000D03*
X64800000Y-33400000D03*
X64800000Y-32400000D03*
X64800000Y-31400000D03*
X64800000Y-30400000D03*
D30*
X54900000Y-48500000D03*
X53975571Y-48424429D03*
D29*
X49200000Y-35550000D03*
X50100000Y-35550000D03*
X52000000Y-35550000D03*
X51100000Y-35550000D03*
X50100000Y-36550000D03*
X49200000Y-36550000D03*
X52000000Y-36550000D03*
X51100000Y-36550000D03*
X48300000Y-36550000D03*
X48300000Y-35550000D03*
X49200000Y-38550000D03*
X51100000Y-38550000D03*
X52000000Y-37550000D03*
X50100000Y-38550000D03*
X53000000Y-37550000D03*
X50100000Y-37550000D03*
X52000000Y-38550000D03*
X49200000Y-37550000D03*
X51100000Y-37550000D03*
X48300000Y-38550000D03*
X53000000Y-38550000D03*
X48300000Y-37550000D03*
X58750000Y-37550000D03*
X54950000Y-37550000D03*
X56850000Y-37550000D03*
X54950000Y-38550000D03*
X55850000Y-38550000D03*
X58750000Y-38550000D03*
X55850000Y-37550000D03*
X57750000Y-38550000D03*
X56850000Y-38550000D03*
X54050000Y-37550000D03*
X57750000Y-37550000D03*
X54050000Y-38550000D03*
X60750000Y-38550000D03*
X60750000Y-37550000D03*
X59850000Y-37550000D03*
X59850000Y-38550000D03*
X60750000Y-36550000D03*
X59850000Y-35550000D03*
X60750000Y-35550000D03*
X59850000Y-36550000D03*
%TO.N,Net-(R13-Pad2)*%
X59000000Y-52499996D03*
X52200000Y-49250002D03*
%TD*%
D31*
%TO.N,Net-(C1-Pad1)*%
X46537500Y-25150000D02*
X46552500Y-25165000D01*
X44300000Y-20700000D02*
X44300000Y-22037500D01*
X46552500Y-26435000D02*
X46552500Y-25165000D01*
X46417500Y-25300000D02*
X46552500Y-25165000D01*
X44350000Y-25300000D02*
X46417500Y-25300000D01*
%TO.N,Net-(C4-Pad1)*%
X44387500Y-29600000D02*
X44400000Y-29612500D01*
X42362500Y-29600000D02*
X44387500Y-29600000D01*
%TO.N,Net-(C5-Pad1)*%
X44482500Y-27705000D02*
X44400000Y-27787500D01*
X46552500Y-27705000D02*
X44482500Y-27705000D01*
X42375000Y-27787500D02*
X42362500Y-27800000D01*
X44400000Y-27787500D02*
X42375000Y-27787500D01*
D32*
%TO.N,Net-(C6-Pad1)*%
X53827500Y-25165000D02*
X54500000Y-25837500D01*
X51547500Y-25165000D02*
X53827500Y-25165000D01*
%TO.N,Net-(R2-Pad2)*%
X51582500Y-26400000D02*
X51547500Y-26435000D01*
X53100000Y-26400000D02*
X51582500Y-26400000D01*
X55850000Y-25150000D02*
X55800000Y-25200000D01*
X55850000Y-23912500D02*
X55850000Y-25150000D01*
D33*
%TO.N,Net-(D2-Pad2)*%
X30300000Y-24012500D02*
X30300000Y-26025000D01*
D32*
%TO.N,BAT-*%
X54051142Y-48500000D02*
X53975571Y-48424429D01*
X54900000Y-48500000D02*
X54051142Y-48500000D01*
X52150000Y-47725000D02*
X53276142Y-47725000D01*
X53276142Y-47725000D02*
X53975571Y-48424429D01*
%TO.N,Net-(C10-Pad2)*%
X31350000Y-47050000D02*
X28450000Y-47050000D01*
%TO.N,Net-(D4-Pad2)*%
X54800000Y-45325000D02*
X57000000Y-45325000D01*
%TO.N,Net-(D4-Pad1)*%
X54700000Y-47075000D02*
X52150000Y-47075000D01*
%TO.N,Net-(Q1-Pad4)*%
X47125000Y-47075000D02*
X46400000Y-46350000D01*
X47850000Y-47075000D02*
X47125000Y-47075000D01*
X45650000Y-41495000D02*
X44675000Y-41495000D01*
X46400000Y-42245000D02*
X45650000Y-41495000D01*
X46400000Y-46350000D02*
X46400000Y-42245000D01*
%TO.N,Net-(R3-Pad1)*%
X56000000Y-29412500D02*
X56000000Y-32800000D01*
%TO.N,Net-(R5-Pad2)*%
X76212500Y-46250000D02*
X71450000Y-46250000D01*
X76800000Y-46837500D02*
X76212500Y-46250000D01*
%TO.N,Net-(R12-Pad1)*%
X58000000Y-29375000D02*
X58000000Y-32800000D01*
%TO.N,Net-(R11-Pad1)*%
X60000000Y-29375000D02*
X60000000Y-32800000D01*
%TO.N,Net-(R6-Pad2)*%
X76412500Y-45250000D02*
X71450000Y-45250000D01*
X76800000Y-44862500D02*
X76412500Y-45250000D01*
%TO.N,Net-(R13-Pad2)*%
X60275000Y-52500000D02*
X60275000Y-54150000D01*
X60274996Y-52499996D02*
X60275000Y-52500000D01*
X59000000Y-52499996D02*
X60274996Y-52499996D01*
X52150000Y-48375000D02*
X52150000Y-49200002D01*
X52150000Y-49200002D02*
X52200000Y-49250002D01*
D33*
%TO.N,5Vusb*%
X66060000Y-44250000D02*
X66050000Y-44260000D01*
X71450000Y-44250000D02*
X66060000Y-44250000D01*
%TD*%
D34*
%TO.N,Net-(C1-Pad1)*%
G36*
X47296257Y-16240769D02*
G01*
X47385955Y-16277923D01*
X47462976Y-16337024D01*
X47522077Y-16414045D01*
X47559231Y-16503743D01*
X47573000Y-16608328D01*
X47573000Y-22691672D01*
X47559231Y-22796257D01*
X47522077Y-22885955D01*
X47462976Y-22962976D01*
X47385955Y-23022077D01*
X47296257Y-23059231D01*
X47191672Y-23073000D01*
X37203660Y-23073000D01*
X37198004Y-23072963D01*
X29604960Y-22973054D01*
X29604119Y-22973046D01*
X29597541Y-22973003D01*
X29596711Y-22973000D01*
X29000000Y-22973000D01*
X28983423Y-22974086D01*
X28854013Y-22991123D01*
X28821989Y-22999704D01*
X28701399Y-23049654D01*
X28672687Y-23066232D01*
X28569134Y-23145692D01*
X28545692Y-23169134D01*
X28466232Y-23272687D01*
X28449654Y-23301399D01*
X28399704Y-23421989D01*
X28391123Y-23454013D01*
X28374086Y-23583423D01*
X28373000Y-23600000D01*
X28373000Y-27291672D01*
X28359231Y-27396257D01*
X28322077Y-27485955D01*
X28262976Y-27562976D01*
X28185955Y-27622077D01*
X28096257Y-27659231D01*
X27991672Y-27673000D01*
X17508328Y-27673000D01*
X17403743Y-27659231D01*
X17314045Y-27622077D01*
X17237024Y-27562976D01*
X17177923Y-27485955D01*
X17140769Y-27396257D01*
X17127000Y-27291672D01*
X17127000Y-17300000D01*
X18521418Y-17300000D01*
X18521418Y-20300000D01*
X18527732Y-20364103D01*
X18546430Y-20425743D01*
X18576794Y-20482550D01*
X18617657Y-20532343D01*
X18667450Y-20573206D01*
X18724257Y-20603570D01*
X18785897Y-20622268D01*
X18850000Y-20628582D01*
X25850000Y-20628582D01*
X25914103Y-20622268D01*
X25975743Y-20603570D01*
X26032550Y-20573206D01*
X26082343Y-20532343D01*
X26123206Y-20482550D01*
X26153570Y-20425743D01*
X26172268Y-20364103D01*
X26178582Y-20300000D01*
X26178582Y-17300000D01*
X26172268Y-17235897D01*
X26153570Y-17174257D01*
X26123206Y-17117450D01*
X26082343Y-17067657D01*
X26032550Y-17026794D01*
X25975743Y-16996430D01*
X25914103Y-16977732D01*
X25850000Y-16971418D01*
X18850000Y-16971418D01*
X18785897Y-16977732D01*
X18724257Y-16996430D01*
X18667450Y-17026794D01*
X18617657Y-17067657D01*
X18576794Y-17117450D01*
X18546430Y-17174257D01*
X18527732Y-17235897D01*
X18521418Y-17300000D01*
X17127000Y-17300000D01*
X17127000Y-16608328D01*
X17140769Y-16503743D01*
X17177923Y-16414045D01*
X17237024Y-16337024D01*
X17314045Y-16277923D01*
X17403743Y-16240769D01*
X17508328Y-16227000D01*
X47191672Y-16227000D01*
X47296257Y-16240769D01*
G37*
X47296257Y-16240769D02*
X47385955Y-16277923D01*
X47462976Y-16337024D01*
X47522077Y-16414045D01*
X47559231Y-16503743D01*
X47573000Y-16608328D01*
X47573000Y-22691672D01*
X47559231Y-22796257D01*
X47522077Y-22885955D01*
X47462976Y-22962976D01*
X47385955Y-23022077D01*
X47296257Y-23059231D01*
X47191672Y-23073000D01*
X37203660Y-23073000D01*
X37198004Y-23072963D01*
X29604960Y-22973054D01*
X29604119Y-22973046D01*
X29597541Y-22973003D01*
X29596711Y-22973000D01*
X29000000Y-22973000D01*
X28983423Y-22974086D01*
X28854013Y-22991123D01*
X28821989Y-22999704D01*
X28701399Y-23049654D01*
X28672687Y-23066232D01*
X28569134Y-23145692D01*
X28545692Y-23169134D01*
X28466232Y-23272687D01*
X28449654Y-23301399D01*
X28399704Y-23421989D01*
X28391123Y-23454013D01*
X28374086Y-23583423D01*
X28373000Y-23600000D01*
X28373000Y-27291672D01*
X28359231Y-27396257D01*
X28322077Y-27485955D01*
X28262976Y-27562976D01*
X28185955Y-27622077D01*
X28096257Y-27659231D01*
X27991672Y-27673000D01*
X17508328Y-27673000D01*
X17403743Y-27659231D01*
X17314045Y-27622077D01*
X17237024Y-27562976D01*
X17177923Y-27485955D01*
X17140769Y-27396257D01*
X17127000Y-27291672D01*
X17127000Y-17300000D01*
X18521418Y-17300000D01*
X18521418Y-20300000D01*
X18527732Y-20364103D01*
X18546430Y-20425743D01*
X18576794Y-20482550D01*
X18617657Y-20532343D01*
X18667450Y-20573206D01*
X18724257Y-20603570D01*
X18785897Y-20622268D01*
X18850000Y-20628582D01*
X25850000Y-20628582D01*
X25914103Y-20622268D01*
X25975743Y-20603570D01*
X26032550Y-20573206D01*
X26082343Y-20532343D01*
X26123206Y-20482550D01*
X26153570Y-20425743D01*
X26172268Y-20364103D01*
X26178582Y-20300000D01*
X26178582Y-17300000D01*
X26172268Y-17235897D01*
X26153570Y-17174257D01*
X26123206Y-17117450D01*
X26082343Y-17067657D01*
X26032550Y-17026794D01*
X25975743Y-16996430D01*
X25914103Y-16977732D01*
X25850000Y-16971418D01*
X18850000Y-16971418D01*
X18785897Y-16977732D01*
X18724257Y-16996430D01*
X18667450Y-17026794D01*
X18617657Y-17067657D01*
X18576794Y-17117450D01*
X18546430Y-17174257D01*
X18527732Y-17235897D01*
X18521418Y-17300000D01*
X17127000Y-17300000D01*
X17127000Y-16608328D01*
X17140769Y-16503743D01*
X17177923Y-16414045D01*
X17237024Y-16337024D01*
X17314045Y-16277923D01*
X17403743Y-16240769D01*
X17508328Y-16227000D01*
X47191672Y-16227000D01*
X47296257Y-16240769D01*
%TO.N,BOOST_OUT*%
G36*
X65274682Y-16340632D02*
G01*
X65364010Y-16377429D01*
X65440844Y-16435989D01*
X65500007Y-16512369D01*
X65537498Y-16601402D01*
X65551945Y-16705374D01*
X65569128Y-18904898D01*
X65570332Y-18921385D01*
X65588207Y-19050030D01*
X65596953Y-19081838D01*
X65647358Y-19201539D01*
X65664001Y-19230023D01*
X65743536Y-19332703D01*
X65766955Y-19355939D01*
X65870253Y-19434669D01*
X65898865Y-19451089D01*
X66018956Y-19500558D01*
X66050833Y-19509055D01*
X66179614Y-19525924D01*
X66196109Y-19527000D01*
X74791672Y-19527000D01*
X74896257Y-19540769D01*
X74985955Y-19577923D01*
X75062976Y-19637024D01*
X75122077Y-19714045D01*
X75159231Y-19803743D01*
X75173000Y-19908328D01*
X75173000Y-22689437D01*
X75159155Y-22794301D01*
X75121799Y-22884205D01*
X75062389Y-22961335D01*
X74984996Y-23020404D01*
X74894932Y-23057361D01*
X74790002Y-23070742D01*
X53206648Y-22975241D01*
X53102421Y-22961088D01*
X53013094Y-22923740D01*
X52936439Y-22864606D01*
X52877644Y-22787690D01*
X52840692Y-22698200D01*
X52827000Y-22593903D01*
X52827000Y-21708328D01*
X52840769Y-21603743D01*
X52877923Y-21514045D01*
X52937024Y-21437024D01*
X53014045Y-21377923D01*
X53103743Y-21340769D01*
X53208328Y-21327000D01*
X55557444Y-21327000D01*
X55577123Y-21325466D01*
X55730204Y-21301456D01*
X55754303Y-21295206D01*
X55767673Y-21289406D01*
X55906052Y-21219680D01*
X55927080Y-21206352D01*
X55938030Y-21196738D01*
X56048417Y-21087995D01*
X56064355Y-21068869D01*
X56071837Y-21056363D01*
X56143630Y-20919045D01*
X56152947Y-20895957D01*
X56156241Y-20881762D01*
X56182545Y-20729058D01*
X56184374Y-20709404D01*
X56244450Y-16704304D01*
X56265692Y-16580985D01*
X56319026Y-16478973D01*
X56401031Y-16398189D01*
X56503835Y-16346389D01*
X56627455Y-16327000D01*
X65170610Y-16327000D01*
X65274682Y-16340632D01*
G37*
X65274682Y-16340632D02*
X65364010Y-16377429D01*
X65440844Y-16435989D01*
X65500007Y-16512369D01*
X65537498Y-16601402D01*
X65551945Y-16705374D01*
X65569128Y-18904898D01*
X65570332Y-18921385D01*
X65588207Y-19050030D01*
X65596953Y-19081838D01*
X65647358Y-19201539D01*
X65664001Y-19230023D01*
X65743536Y-19332703D01*
X65766955Y-19355939D01*
X65870253Y-19434669D01*
X65898865Y-19451089D01*
X66018956Y-19500558D01*
X66050833Y-19509055D01*
X66179614Y-19525924D01*
X66196109Y-19527000D01*
X74791672Y-19527000D01*
X74896257Y-19540769D01*
X74985955Y-19577923D01*
X75062976Y-19637024D01*
X75122077Y-19714045D01*
X75159231Y-19803743D01*
X75173000Y-19908328D01*
X75173000Y-22689437D01*
X75159155Y-22794301D01*
X75121799Y-22884205D01*
X75062389Y-22961335D01*
X74984996Y-23020404D01*
X74894932Y-23057361D01*
X74790002Y-23070742D01*
X53206648Y-22975241D01*
X53102421Y-22961088D01*
X53013094Y-22923740D01*
X52936439Y-22864606D01*
X52877644Y-22787690D01*
X52840692Y-22698200D01*
X52827000Y-22593903D01*
X52827000Y-21708328D01*
X52840769Y-21603743D01*
X52877923Y-21514045D01*
X52937024Y-21437024D01*
X53014045Y-21377923D01*
X53103743Y-21340769D01*
X53208328Y-21327000D01*
X55557444Y-21327000D01*
X55577123Y-21325466D01*
X55730204Y-21301456D01*
X55754303Y-21295206D01*
X55767673Y-21289406D01*
X55906052Y-21219680D01*
X55927080Y-21206352D01*
X55938030Y-21196738D01*
X56048417Y-21087995D01*
X56064355Y-21068869D01*
X56071837Y-21056363D01*
X56143630Y-20919045D01*
X56152947Y-20895957D01*
X56156241Y-20881762D01*
X56182545Y-20729058D01*
X56184374Y-20709404D01*
X56244450Y-16704304D01*
X56265692Y-16580985D01*
X56319026Y-16478973D01*
X56401031Y-16398189D01*
X56503835Y-16346389D01*
X56627455Y-16327000D01*
X65170610Y-16327000D01*
X65274682Y-16340632D01*
%TO.N,Net-(D1-Pad2)*%
G36*
X55446257Y-16290769D02*
G01*
X55535955Y-16327923D01*
X55612976Y-16387024D01*
X55672077Y-16464045D01*
X55709231Y-16553743D01*
X55723000Y-16658328D01*
X55723000Y-20491672D01*
X55709231Y-20596257D01*
X55672077Y-20685955D01*
X55612976Y-20762976D01*
X55535955Y-20822077D01*
X55446257Y-20859231D01*
X55341672Y-20873000D01*
X53000000Y-20873000D01*
X52983423Y-20874086D01*
X52854013Y-20891123D01*
X52821989Y-20899704D01*
X52701399Y-20949654D01*
X52672687Y-20966232D01*
X52569134Y-21045692D01*
X52545692Y-21069134D01*
X52466232Y-21172687D01*
X52449654Y-21201399D01*
X52399704Y-21321989D01*
X52391123Y-21354013D01*
X52374086Y-21483423D01*
X52373000Y-21500000D01*
X52373000Y-24162491D01*
X52355629Y-24249819D01*
X52313248Y-24313248D01*
X52249819Y-24355629D01*
X52162491Y-24373000D01*
X51058328Y-24373000D01*
X50953743Y-24359231D01*
X50864045Y-24322077D01*
X50787024Y-24262976D01*
X50727923Y-24185955D01*
X50690769Y-24096257D01*
X50685082Y-24053060D01*
X50685082Y-24049000D01*
X50678768Y-23984897D01*
X50677000Y-23979069D01*
X50677000Y-23700000D01*
X50675914Y-23683423D01*
X50658877Y-23554013D01*
X50650296Y-23521989D01*
X50600346Y-23401399D01*
X50583768Y-23372687D01*
X50504308Y-23269134D01*
X50480866Y-23245692D01*
X50377313Y-23166232D01*
X50348601Y-23149654D01*
X50228011Y-23099704D01*
X50195987Y-23091123D01*
X50066577Y-23074086D01*
X50050000Y-23073000D01*
X49608328Y-23073000D01*
X49503743Y-23059231D01*
X49414045Y-23022077D01*
X49337024Y-22962976D01*
X49277923Y-22885955D01*
X49240769Y-22796257D01*
X49227000Y-22691672D01*
X49227000Y-16658328D01*
X49240769Y-16553743D01*
X49277923Y-16464045D01*
X49337024Y-16387024D01*
X49414045Y-16327923D01*
X49503743Y-16290769D01*
X49608328Y-16277000D01*
X55341672Y-16277000D01*
X55446257Y-16290769D01*
G37*
X55446257Y-16290769D02*
X55535955Y-16327923D01*
X55612976Y-16387024D01*
X55672077Y-16464045D01*
X55709231Y-16553743D01*
X55723000Y-16658328D01*
X55723000Y-20491672D01*
X55709231Y-20596257D01*
X55672077Y-20685955D01*
X55612976Y-20762976D01*
X55535955Y-20822077D01*
X55446257Y-20859231D01*
X55341672Y-20873000D01*
X53000000Y-20873000D01*
X52983423Y-20874086D01*
X52854013Y-20891123D01*
X52821989Y-20899704D01*
X52701399Y-20949654D01*
X52672687Y-20966232D01*
X52569134Y-21045692D01*
X52545692Y-21069134D01*
X52466232Y-21172687D01*
X52449654Y-21201399D01*
X52399704Y-21321989D01*
X52391123Y-21354013D01*
X52374086Y-21483423D01*
X52373000Y-21500000D01*
X52373000Y-24162491D01*
X52355629Y-24249819D01*
X52313248Y-24313248D01*
X52249819Y-24355629D01*
X52162491Y-24373000D01*
X51058328Y-24373000D01*
X50953743Y-24359231D01*
X50864045Y-24322077D01*
X50787024Y-24262976D01*
X50727923Y-24185955D01*
X50690769Y-24096257D01*
X50685082Y-24053060D01*
X50685082Y-24049000D01*
X50678768Y-23984897D01*
X50677000Y-23979069D01*
X50677000Y-23700000D01*
X50675914Y-23683423D01*
X50658877Y-23554013D01*
X50650296Y-23521989D01*
X50600346Y-23401399D01*
X50583768Y-23372687D01*
X50504308Y-23269134D01*
X50480866Y-23245692D01*
X50377313Y-23166232D01*
X50348601Y-23149654D01*
X50228011Y-23099704D01*
X50195987Y-23091123D01*
X50066577Y-23074086D01*
X50050000Y-23073000D01*
X49608328Y-23073000D01*
X49503743Y-23059231D01*
X49414045Y-23022077D01*
X49337024Y-22962976D01*
X49277923Y-22885955D01*
X49240769Y-22796257D01*
X49227000Y-22691672D01*
X49227000Y-16658328D01*
X49240769Y-16553743D01*
X49277923Y-16464045D01*
X49337024Y-16387024D01*
X49414045Y-16327923D01*
X49503743Y-16290769D01*
X49608328Y-16277000D01*
X55341672Y-16277000D01*
X55446257Y-16290769D01*
%TO.N,Net-(C9-Pad1)*%
G36*
X60796257Y-40440769D02*
G01*
X60885955Y-40477923D01*
X60962976Y-40537024D01*
X61022077Y-40614045D01*
X61059231Y-40703743D01*
X61073000Y-40808328D01*
X61073000Y-52022499D01*
X61033180Y-51948002D01*
X60962780Y-51862220D01*
X60876998Y-51791820D01*
X60779130Y-51739508D01*
X60672937Y-51707295D01*
X60562500Y-51696418D01*
X59987500Y-51696418D01*
X59877063Y-51707295D01*
X59770870Y-51739508D01*
X59673002Y-51791820D01*
X59587220Y-51862220D01*
X59516820Y-51948002D01*
X59464508Y-52045870D01*
X59463863Y-52047996D01*
X59434712Y-52047996D01*
X59399689Y-52012973D01*
X59296996Y-51944356D01*
X59182889Y-51897091D01*
X59061754Y-51872996D01*
X58938246Y-51872996D01*
X58817111Y-51897091D01*
X58703004Y-51944356D01*
X58600311Y-52012973D01*
X58512977Y-52100307D01*
X58444360Y-52203000D01*
X58397095Y-52317107D01*
X58373000Y-52438242D01*
X58373000Y-52561750D01*
X58397095Y-52682885D01*
X58444360Y-52796992D01*
X58512977Y-52899685D01*
X58600311Y-52987019D01*
X58703004Y-53055636D01*
X58817111Y-53102901D01*
X58938246Y-53126996D01*
X59061754Y-53126996D01*
X59182889Y-53102901D01*
X59296996Y-53055636D01*
X59399689Y-52987019D01*
X59434712Y-52951996D01*
X59463861Y-52951996D01*
X59464508Y-52954130D01*
X59516820Y-53051998D01*
X59587220Y-53137780D01*
X59673002Y-53208180D01*
X59770870Y-53260492D01*
X59823000Y-53276305D01*
X59823001Y-53373695D01*
X59770870Y-53389508D01*
X59673002Y-53441820D01*
X59587220Y-53512220D01*
X59516820Y-53598002D01*
X59464508Y-53695870D01*
X59432295Y-53802063D01*
X59421418Y-53912500D01*
X59421418Y-54387500D01*
X59432295Y-54497937D01*
X59464508Y-54604130D01*
X59516820Y-54701998D01*
X59587220Y-54787780D01*
X59673002Y-54858180D01*
X59770870Y-54910492D01*
X59877063Y-54942705D01*
X59987500Y-54953582D01*
X60562500Y-54953582D01*
X60672937Y-54942705D01*
X60779130Y-54910492D01*
X60876998Y-54858180D01*
X60962780Y-54787780D01*
X61033180Y-54701998D01*
X61066742Y-54639209D01*
X61059231Y-54696257D01*
X61022077Y-54785955D01*
X60962976Y-54862976D01*
X60885955Y-54922077D01*
X60796257Y-54959231D01*
X60691672Y-54973000D01*
X51308328Y-54973000D01*
X51203743Y-54959231D01*
X51114045Y-54922077D01*
X51037024Y-54862976D01*
X50977923Y-54785955D01*
X50940769Y-54696257D01*
X50927000Y-54591672D01*
X50927000Y-51400000D01*
X50925914Y-51383423D01*
X50908877Y-51254013D01*
X50900296Y-51221989D01*
X50850346Y-51101399D01*
X50833768Y-51072687D01*
X50754308Y-50969134D01*
X50730866Y-50945692D01*
X50627313Y-50866232D01*
X50598601Y-50849654D01*
X50478011Y-50799704D01*
X50445987Y-50791123D01*
X50316577Y-50774086D01*
X50300000Y-50773000D01*
X49634608Y-50773000D01*
X49535327Y-50760615D01*
X49442126Y-50724217D01*
X47429857Y-49634239D01*
X47342478Y-49570433D01*
X47280527Y-49492475D01*
X47241487Y-49400876D01*
X47227000Y-49293650D01*
X47227000Y-48708328D01*
X47240769Y-48603743D01*
X47277923Y-48514045D01*
X47337024Y-48437024D01*
X47414045Y-48377923D01*
X47503743Y-48340769D01*
X47608328Y-48327000D01*
X48090788Y-48327000D01*
X48192252Y-48340788D01*
X48278396Y-48377737D01*
X48351554Y-48436333D01*
X48406424Y-48512327D01*
X48439026Y-48600209D01*
X48448460Y-48710795D01*
X48448472Y-48710937D01*
X48459459Y-48838038D01*
X48467065Y-48871672D01*
X48511838Y-48991132D01*
X48528213Y-49021482D01*
X48603473Y-49124493D01*
X48627408Y-49149317D01*
X48727605Y-49228285D01*
X48757336Y-49245756D01*
X48875083Y-49294858D01*
X48908418Y-49303687D01*
X49035033Y-49319303D01*
X49052289Y-49320246D01*
X51573000Y-49286297D01*
X51573000Y-49311756D01*
X51597095Y-49432891D01*
X51644360Y-49546998D01*
X51712977Y-49649691D01*
X51800311Y-49737025D01*
X51903004Y-49805642D01*
X52017111Y-49852907D01*
X52138246Y-49877002D01*
X52261754Y-49877002D01*
X52382889Y-49852907D01*
X52496996Y-49805642D01*
X52599689Y-49737025D01*
X52687023Y-49649691D01*
X52755640Y-49546998D01*
X52802905Y-49432891D01*
X52827000Y-49311756D01*
X52827000Y-49269408D01*
X55490402Y-49233538D01*
X55509900Y-49231767D01*
X55661442Y-49206100D01*
X55685463Y-49199556D01*
X55698475Y-49193741D01*
X55835061Y-49123255D01*
X55855960Y-49109724D01*
X55866590Y-49100233D01*
X55975313Y-48991590D01*
X55991114Y-48972350D01*
X55998358Y-48960078D01*
X56068944Y-48823544D01*
X56078155Y-48800414D01*
X56081330Y-48786521D01*
X56107109Y-48634998D01*
X56108895Y-48615501D01*
X56149215Y-45777000D01*
X56223695Y-45777000D01*
X56239508Y-45829130D01*
X56291820Y-45926998D01*
X56362220Y-46012780D01*
X56448002Y-46083180D01*
X56545870Y-46135492D01*
X56652063Y-46167705D01*
X56762500Y-46178582D01*
X57237500Y-46178582D01*
X57347937Y-46167705D01*
X57454130Y-46135492D01*
X57551998Y-46083180D01*
X57637780Y-46012780D01*
X57708180Y-45926998D01*
X57760492Y-45829130D01*
X57792705Y-45722937D01*
X57803582Y-45612500D01*
X57803582Y-45037500D01*
X57792705Y-44927063D01*
X57760492Y-44820870D01*
X57708180Y-44723002D01*
X57637780Y-44637220D01*
X57551998Y-44566820D01*
X57454130Y-44514508D01*
X57347937Y-44482295D01*
X57237500Y-44471418D01*
X56762500Y-44471418D01*
X56652063Y-44482295D01*
X56545870Y-44514508D01*
X56448002Y-44566820D01*
X56362220Y-44637220D01*
X56291820Y-44723002D01*
X56239508Y-44820870D01*
X56223695Y-44873000D01*
X56162055Y-44873000D01*
X56219845Y-40804605D01*
X56241009Y-40681211D01*
X56294313Y-40579118D01*
X56376328Y-40498259D01*
X56479172Y-40446409D01*
X56602849Y-40427000D01*
X60691672Y-40427000D01*
X60796257Y-40440769D01*
G37*
X60796257Y-40440769D02*
X60885955Y-40477923D01*
X60962976Y-40537024D01*
X61022077Y-40614045D01*
X61059231Y-40703743D01*
X61073000Y-40808328D01*
X61073000Y-52022499D01*
X61033180Y-51948002D01*
X60962780Y-51862220D01*
X60876998Y-51791820D01*
X60779130Y-51739508D01*
X60672937Y-51707295D01*
X60562500Y-51696418D01*
X59987500Y-51696418D01*
X59877063Y-51707295D01*
X59770870Y-51739508D01*
X59673002Y-51791820D01*
X59587220Y-51862220D01*
X59516820Y-51948002D01*
X59464508Y-52045870D01*
X59463863Y-52047996D01*
X59434712Y-52047996D01*
X59399689Y-52012973D01*
X59296996Y-51944356D01*
X59182889Y-51897091D01*
X59061754Y-51872996D01*
X58938246Y-51872996D01*
X58817111Y-51897091D01*
X58703004Y-51944356D01*
X58600311Y-52012973D01*
X58512977Y-52100307D01*
X58444360Y-52203000D01*
X58397095Y-52317107D01*
X58373000Y-52438242D01*
X58373000Y-52561750D01*
X58397095Y-52682885D01*
X58444360Y-52796992D01*
X58512977Y-52899685D01*
X58600311Y-52987019D01*
X58703004Y-53055636D01*
X58817111Y-53102901D01*
X58938246Y-53126996D01*
X59061754Y-53126996D01*
X59182889Y-53102901D01*
X59296996Y-53055636D01*
X59399689Y-52987019D01*
X59434712Y-52951996D01*
X59463861Y-52951996D01*
X59464508Y-52954130D01*
X59516820Y-53051998D01*
X59587220Y-53137780D01*
X59673002Y-53208180D01*
X59770870Y-53260492D01*
X59823000Y-53276305D01*
X59823001Y-53373695D01*
X59770870Y-53389508D01*
X59673002Y-53441820D01*
X59587220Y-53512220D01*
X59516820Y-53598002D01*
X59464508Y-53695870D01*
X59432295Y-53802063D01*
X59421418Y-53912500D01*
X59421418Y-54387500D01*
X59432295Y-54497937D01*
X59464508Y-54604130D01*
X59516820Y-54701998D01*
X59587220Y-54787780D01*
X59673002Y-54858180D01*
X59770870Y-54910492D01*
X59877063Y-54942705D01*
X59987500Y-54953582D01*
X60562500Y-54953582D01*
X60672937Y-54942705D01*
X60779130Y-54910492D01*
X60876998Y-54858180D01*
X60962780Y-54787780D01*
X61033180Y-54701998D01*
X61066742Y-54639209D01*
X61059231Y-54696257D01*
X61022077Y-54785955D01*
X60962976Y-54862976D01*
X60885955Y-54922077D01*
X60796257Y-54959231D01*
X60691672Y-54973000D01*
X51308328Y-54973000D01*
X51203743Y-54959231D01*
X51114045Y-54922077D01*
X51037024Y-54862976D01*
X50977923Y-54785955D01*
X50940769Y-54696257D01*
X50927000Y-54591672D01*
X50927000Y-51400000D01*
X50925914Y-51383423D01*
X50908877Y-51254013D01*
X50900296Y-51221989D01*
X50850346Y-51101399D01*
X50833768Y-51072687D01*
X50754308Y-50969134D01*
X50730866Y-50945692D01*
X50627313Y-50866232D01*
X50598601Y-50849654D01*
X50478011Y-50799704D01*
X50445987Y-50791123D01*
X50316577Y-50774086D01*
X50300000Y-50773000D01*
X49634608Y-50773000D01*
X49535327Y-50760615D01*
X49442126Y-50724217D01*
X47429857Y-49634239D01*
X47342478Y-49570433D01*
X47280527Y-49492475D01*
X47241487Y-49400876D01*
X47227000Y-49293650D01*
X47227000Y-48708328D01*
X47240769Y-48603743D01*
X47277923Y-48514045D01*
X47337024Y-48437024D01*
X47414045Y-48377923D01*
X47503743Y-48340769D01*
X47608328Y-48327000D01*
X48090788Y-48327000D01*
X48192252Y-48340788D01*
X48278396Y-48377737D01*
X48351554Y-48436333D01*
X48406424Y-48512327D01*
X48439026Y-48600209D01*
X48448460Y-48710795D01*
X48448472Y-48710937D01*
X48459459Y-48838038D01*
X48467065Y-48871672D01*
X48511838Y-48991132D01*
X48528213Y-49021482D01*
X48603473Y-49124493D01*
X48627408Y-49149317D01*
X48727605Y-49228285D01*
X48757336Y-49245756D01*
X48875083Y-49294858D01*
X48908418Y-49303687D01*
X49035033Y-49319303D01*
X49052289Y-49320246D01*
X51573000Y-49286297D01*
X51573000Y-49311756D01*
X51597095Y-49432891D01*
X51644360Y-49546998D01*
X51712977Y-49649691D01*
X51800311Y-49737025D01*
X51903004Y-49805642D01*
X52017111Y-49852907D01*
X52138246Y-49877002D01*
X52261754Y-49877002D01*
X52382889Y-49852907D01*
X52496996Y-49805642D01*
X52599689Y-49737025D01*
X52687023Y-49649691D01*
X52755640Y-49546998D01*
X52802905Y-49432891D01*
X52827000Y-49311756D01*
X52827000Y-49269408D01*
X55490402Y-49233538D01*
X55509900Y-49231767D01*
X55661442Y-49206100D01*
X55685463Y-49199556D01*
X55698475Y-49193741D01*
X55835061Y-49123255D01*
X55855960Y-49109724D01*
X55866590Y-49100233D01*
X55975313Y-48991590D01*
X55991114Y-48972350D01*
X55998358Y-48960078D01*
X56068944Y-48823544D01*
X56078155Y-48800414D01*
X56081330Y-48786521D01*
X56107109Y-48634998D01*
X56108895Y-48615501D01*
X56149215Y-45777000D01*
X56223695Y-45777000D01*
X56239508Y-45829130D01*
X56291820Y-45926998D01*
X56362220Y-46012780D01*
X56448002Y-46083180D01*
X56545870Y-46135492D01*
X56652063Y-46167705D01*
X56762500Y-46178582D01*
X57237500Y-46178582D01*
X57347937Y-46167705D01*
X57454130Y-46135492D01*
X57551998Y-46083180D01*
X57637780Y-46012780D01*
X57708180Y-45926998D01*
X57760492Y-45829130D01*
X57792705Y-45722937D01*
X57803582Y-45612500D01*
X57803582Y-45037500D01*
X57792705Y-44927063D01*
X57760492Y-44820870D01*
X57708180Y-44723002D01*
X57637780Y-44637220D01*
X57551998Y-44566820D01*
X57454130Y-44514508D01*
X57347937Y-44482295D01*
X57237500Y-44471418D01*
X56762500Y-44471418D01*
X56652063Y-44482295D01*
X56545870Y-44514508D01*
X56448002Y-44566820D01*
X56362220Y-44637220D01*
X56291820Y-44723002D01*
X56239508Y-44820870D01*
X56223695Y-44873000D01*
X56162055Y-44873000D01*
X56219845Y-40804605D01*
X56241009Y-40681211D01*
X56294313Y-40579118D01*
X56376328Y-40498259D01*
X56479172Y-40446409D01*
X56602849Y-40427000D01*
X60691672Y-40427000D01*
X60796257Y-40440769D01*
%TO.N,Net-(Q1-Pad1)*%
G36*
X45750524Y-42234748D02*
G01*
X45948001Y-42432226D01*
X45948000Y-46327795D01*
X45945813Y-46350000D01*
X45951627Y-46409030D01*
X45954540Y-46438606D01*
X45980386Y-46523809D01*
X46022357Y-46602332D01*
X46078841Y-46671159D01*
X46096100Y-46685323D01*
X46789681Y-47378905D01*
X46803841Y-47396159D01*
X46872667Y-47452643D01*
X46925198Y-47480721D01*
X46986893Y-47531353D01*
X47060989Y-47570958D01*
X47141388Y-47595347D01*
X47225000Y-47603582D01*
X48475000Y-47603582D01*
X48558612Y-47595347D01*
X48573000Y-47590982D01*
X48573000Y-47859018D01*
X48558612Y-47854653D01*
X48475000Y-47846418D01*
X47225000Y-47846418D01*
X47141388Y-47854653D01*
X47060989Y-47879042D01*
X46986893Y-47918647D01*
X46921947Y-47971947D01*
X46868647Y-48036893D01*
X46829042Y-48110989D01*
X46804653Y-48191388D01*
X46796418Y-48275000D01*
X46796418Y-48475000D01*
X46799265Y-48503907D01*
X46792834Y-48527908D01*
X46775797Y-48657318D01*
X46773000Y-48700000D01*
X46773000Y-49302194D01*
X46775944Y-49345976D01*
X46793871Y-49478664D01*
X46817109Y-49563092D01*
X46869606Y-49686265D01*
X46914416Y-49761498D01*
X46997718Y-49866323D01*
X47060885Y-49926966D01*
X47169017Y-50005926D01*
X47206113Y-50029368D01*
X49232832Y-51127174D01*
X49269623Y-51144242D01*
X49384930Y-51189273D01*
X49463406Y-51209162D01*
X49586241Y-51224485D01*
X49626719Y-51227000D01*
X50278564Y-51227000D01*
X50344047Y-51235621D01*
X50385089Y-51252621D01*
X50420334Y-51279666D01*
X50447379Y-51314911D01*
X50464379Y-51355953D01*
X50473000Y-51421436D01*
X50473000Y-54600000D01*
X50475797Y-54642682D01*
X50492834Y-54772092D01*
X50514928Y-54854547D01*
X50529166Y-54888920D01*
X50485955Y-54922077D01*
X50396257Y-54959231D01*
X50291672Y-54973000D01*
X46708328Y-54973000D01*
X46603743Y-54959231D01*
X46514045Y-54922077D01*
X46470834Y-54888920D01*
X46485072Y-54854547D01*
X46507166Y-54772092D01*
X46524203Y-54642682D01*
X46527000Y-54600000D01*
X46527000Y-48500000D01*
X46524203Y-48457318D01*
X46507166Y-48327908D01*
X46485072Y-48245453D01*
X46435122Y-48124863D01*
X46392438Y-48050933D01*
X46312978Y-47947380D01*
X46252620Y-47887022D01*
X46149067Y-47807562D01*
X46075137Y-47764878D01*
X45954547Y-47714928D01*
X45872092Y-47692834D01*
X45742682Y-47675797D01*
X45700000Y-47673000D01*
X44021436Y-47673000D01*
X43955953Y-47664379D01*
X43914911Y-47647379D01*
X43879666Y-47620334D01*
X43852621Y-47585089D01*
X43835621Y-47544047D01*
X43827000Y-47478564D01*
X43827000Y-42272557D01*
X43903743Y-42240769D01*
X44008328Y-42227000D01*
X45691672Y-42227000D01*
X45750524Y-42234748D01*
G37*
X45750524Y-42234748D02*
X45948001Y-42432226D01*
X45948000Y-46327795D01*
X45945813Y-46350000D01*
X45951627Y-46409030D01*
X45954540Y-46438606D01*
X45980386Y-46523809D01*
X46022357Y-46602332D01*
X46078841Y-46671159D01*
X46096100Y-46685323D01*
X46789681Y-47378905D01*
X46803841Y-47396159D01*
X46872667Y-47452643D01*
X46925198Y-47480721D01*
X46986893Y-47531353D01*
X47060989Y-47570958D01*
X47141388Y-47595347D01*
X47225000Y-47603582D01*
X48475000Y-47603582D01*
X48558612Y-47595347D01*
X48573000Y-47590982D01*
X48573000Y-47859018D01*
X48558612Y-47854653D01*
X48475000Y-47846418D01*
X47225000Y-47846418D01*
X47141388Y-47854653D01*
X47060989Y-47879042D01*
X46986893Y-47918647D01*
X46921947Y-47971947D01*
X46868647Y-48036893D01*
X46829042Y-48110989D01*
X46804653Y-48191388D01*
X46796418Y-48275000D01*
X46796418Y-48475000D01*
X46799265Y-48503907D01*
X46792834Y-48527908D01*
X46775797Y-48657318D01*
X46773000Y-48700000D01*
X46773000Y-49302194D01*
X46775944Y-49345976D01*
X46793871Y-49478664D01*
X46817109Y-49563092D01*
X46869606Y-49686265D01*
X46914416Y-49761498D01*
X46997718Y-49866323D01*
X47060885Y-49926966D01*
X47169017Y-50005926D01*
X47206113Y-50029368D01*
X49232832Y-51127174D01*
X49269623Y-51144242D01*
X49384930Y-51189273D01*
X49463406Y-51209162D01*
X49586241Y-51224485D01*
X49626719Y-51227000D01*
X50278564Y-51227000D01*
X50344047Y-51235621D01*
X50385089Y-51252621D01*
X50420334Y-51279666D01*
X50447379Y-51314911D01*
X50464379Y-51355953D01*
X50473000Y-51421436D01*
X50473000Y-54600000D01*
X50475797Y-54642682D01*
X50492834Y-54772092D01*
X50514928Y-54854547D01*
X50529166Y-54888920D01*
X50485955Y-54922077D01*
X50396257Y-54959231D01*
X50291672Y-54973000D01*
X46708328Y-54973000D01*
X46603743Y-54959231D01*
X46514045Y-54922077D01*
X46470834Y-54888920D01*
X46485072Y-54854547D01*
X46507166Y-54772092D01*
X46524203Y-54642682D01*
X46527000Y-54600000D01*
X46527000Y-48500000D01*
X46524203Y-48457318D01*
X46507166Y-48327908D01*
X46485072Y-48245453D01*
X46435122Y-48124863D01*
X46392438Y-48050933D01*
X46312978Y-47947380D01*
X46252620Y-47887022D01*
X46149067Y-47807562D01*
X46075137Y-47764878D01*
X45954547Y-47714928D01*
X45872092Y-47692834D01*
X45742682Y-47675797D01*
X45700000Y-47673000D01*
X44021436Y-47673000D01*
X43955953Y-47664379D01*
X43914911Y-47647379D01*
X43879666Y-47620334D01*
X43852621Y-47585089D01*
X43835621Y-47544047D01*
X43827000Y-47478564D01*
X43827000Y-42272557D01*
X43903743Y-42240769D01*
X44008328Y-42227000D01*
X45691672Y-42227000D01*
X45750524Y-42234748D01*
%TO.N,BAT+*%
G36*
X49995198Y-40392255D02*
G01*
X50085195Y-40429255D01*
X50162510Y-40488329D01*
X50221855Y-40565434D01*
X50259170Y-40655297D01*
X50273000Y-40760110D01*
X50273000Y-46131418D01*
X49160000Y-46131418D01*
X49095897Y-46137732D01*
X49034257Y-46156430D01*
X48977450Y-46186794D01*
X48927657Y-46227657D01*
X48886794Y-46277450D01*
X48856430Y-46334257D01*
X48837732Y-46395897D01*
X48831418Y-46460000D01*
X48831418Y-46543628D01*
X48492016Y-46548094D01*
X48475000Y-46546418D01*
X47235642Y-46546418D01*
X46852000Y-46162777D01*
X46852000Y-42267204D01*
X46854187Y-42244999D01*
X46845460Y-42156392D01*
X46819614Y-42071190D01*
X46777642Y-41992666D01*
X46735313Y-41941088D01*
X46721159Y-41923841D01*
X46703910Y-41909685D01*
X46641890Y-41847666D01*
X46635598Y-41489001D01*
X46633725Y-41469384D01*
X46607115Y-41316989D01*
X46600449Y-41293001D01*
X46594450Y-41279793D01*
X46522530Y-41142825D01*
X46508851Y-41122023D01*
X46499099Y-41111279D01*
X46388753Y-41002852D01*
X46369370Y-40987228D01*
X46356802Y-40979979D01*
X46218594Y-40910473D01*
X46195363Y-40901521D01*
X46181181Y-40898462D01*
X46028342Y-40874529D01*
X46008695Y-40873000D01*
X45566827Y-40873000D01*
X45500000Y-40866418D01*
X43850000Y-40866418D01*
X43756633Y-40875614D01*
X43666855Y-40902848D01*
X43584114Y-40947074D01*
X43511591Y-41006591D01*
X43452074Y-41079114D01*
X43407848Y-41161855D01*
X43380614Y-41251633D01*
X43371418Y-41345000D01*
X43371418Y-41645000D01*
X43373000Y-41661062D01*
X43373000Y-42598938D01*
X43371418Y-42615000D01*
X43371418Y-42915000D01*
X43373000Y-42931062D01*
X43373000Y-43868938D01*
X43371418Y-43885000D01*
X43371418Y-44185000D01*
X43373000Y-44201062D01*
X43373000Y-45138938D01*
X43371418Y-45155000D01*
X43371418Y-45455000D01*
X43373000Y-45471062D01*
X43373000Y-47500000D01*
X43374086Y-47516577D01*
X43391123Y-47645987D01*
X43399704Y-47678011D01*
X43449654Y-47798601D01*
X43466232Y-47827313D01*
X43545692Y-47930866D01*
X43569134Y-47954308D01*
X43672687Y-48033768D01*
X43701399Y-48050346D01*
X43821989Y-48100296D01*
X43854013Y-48108877D01*
X43983423Y-48125914D01*
X44000000Y-48127000D01*
X45691672Y-48127000D01*
X45796257Y-48140769D01*
X45885955Y-48177923D01*
X45962976Y-48237024D01*
X46022077Y-48314045D01*
X46059231Y-48403743D01*
X46073000Y-48508328D01*
X46073000Y-54591672D01*
X46059231Y-54696257D01*
X46022077Y-54785955D01*
X45962976Y-54862976D01*
X45885955Y-54922077D01*
X45796257Y-54959231D01*
X45691672Y-54973000D01*
X41408328Y-54973000D01*
X41303743Y-54959231D01*
X41214045Y-54922077D01*
X41137024Y-54862976D01*
X41077923Y-54785955D01*
X41040769Y-54696257D01*
X41027000Y-54591672D01*
X41027000Y-48650000D01*
X41025914Y-48633423D01*
X41008877Y-48504013D01*
X41000296Y-48471989D01*
X40950346Y-48351399D01*
X40933768Y-48322687D01*
X40854308Y-48219134D01*
X40830866Y-48195692D01*
X40727313Y-48116232D01*
X40698601Y-48099654D01*
X40578011Y-48049704D01*
X40545987Y-48041123D01*
X40416577Y-48024086D01*
X40400000Y-48023000D01*
X36708328Y-48023000D01*
X36603743Y-48009231D01*
X36514045Y-47972077D01*
X36437024Y-47912976D01*
X36377923Y-47835955D01*
X36340769Y-47746257D01*
X36327000Y-47641672D01*
X36327000Y-40806546D01*
X36340706Y-40702196D01*
X36377699Y-40612667D01*
X36436557Y-40535728D01*
X36513291Y-40476597D01*
X36602692Y-40439289D01*
X36706989Y-40425216D01*
X49890345Y-40378795D01*
X49995198Y-40392255D01*
G37*
X49995198Y-40392255D02*
X50085195Y-40429255D01*
X50162510Y-40488329D01*
X50221855Y-40565434D01*
X50259170Y-40655297D01*
X50273000Y-40760110D01*
X50273000Y-46131418D01*
X49160000Y-46131418D01*
X49095897Y-46137732D01*
X49034257Y-46156430D01*
X48977450Y-46186794D01*
X48927657Y-46227657D01*
X48886794Y-46277450D01*
X48856430Y-46334257D01*
X48837732Y-46395897D01*
X48831418Y-46460000D01*
X48831418Y-46543628D01*
X48492016Y-46548094D01*
X48475000Y-46546418D01*
X47235642Y-46546418D01*
X46852000Y-46162777D01*
X46852000Y-42267204D01*
X46854187Y-42244999D01*
X46845460Y-42156392D01*
X46819614Y-42071190D01*
X46777642Y-41992666D01*
X46735313Y-41941088D01*
X46721159Y-41923841D01*
X46703910Y-41909685D01*
X46641890Y-41847666D01*
X46635598Y-41489001D01*
X46633725Y-41469384D01*
X46607115Y-41316989D01*
X46600449Y-41293001D01*
X46594450Y-41279793D01*
X46522530Y-41142825D01*
X46508851Y-41122023D01*
X46499099Y-41111279D01*
X46388753Y-41002852D01*
X46369370Y-40987228D01*
X46356802Y-40979979D01*
X46218594Y-40910473D01*
X46195363Y-40901521D01*
X46181181Y-40898462D01*
X46028342Y-40874529D01*
X46008695Y-40873000D01*
X45566827Y-40873000D01*
X45500000Y-40866418D01*
X43850000Y-40866418D01*
X43756633Y-40875614D01*
X43666855Y-40902848D01*
X43584114Y-40947074D01*
X43511591Y-41006591D01*
X43452074Y-41079114D01*
X43407848Y-41161855D01*
X43380614Y-41251633D01*
X43371418Y-41345000D01*
X43371418Y-41645000D01*
X43373000Y-41661062D01*
X43373000Y-42598938D01*
X43371418Y-42615000D01*
X43371418Y-42915000D01*
X43373000Y-42931062D01*
X43373000Y-43868938D01*
X43371418Y-43885000D01*
X43371418Y-44185000D01*
X43373000Y-44201062D01*
X43373000Y-45138938D01*
X43371418Y-45155000D01*
X43371418Y-45455000D01*
X43373000Y-45471062D01*
X43373000Y-47500000D01*
X43374086Y-47516577D01*
X43391123Y-47645987D01*
X43399704Y-47678011D01*
X43449654Y-47798601D01*
X43466232Y-47827313D01*
X43545692Y-47930866D01*
X43569134Y-47954308D01*
X43672687Y-48033768D01*
X43701399Y-48050346D01*
X43821989Y-48100296D01*
X43854013Y-48108877D01*
X43983423Y-48125914D01*
X44000000Y-48127000D01*
X45691672Y-48127000D01*
X45796257Y-48140769D01*
X45885955Y-48177923D01*
X45962976Y-48237024D01*
X46022077Y-48314045D01*
X46059231Y-48403743D01*
X46073000Y-48508328D01*
X46073000Y-54591672D01*
X46059231Y-54696257D01*
X46022077Y-54785955D01*
X45962976Y-54862976D01*
X45885955Y-54922077D01*
X45796257Y-54959231D01*
X45691672Y-54973000D01*
X41408328Y-54973000D01*
X41303743Y-54959231D01*
X41214045Y-54922077D01*
X41137024Y-54862976D01*
X41077923Y-54785955D01*
X41040769Y-54696257D01*
X41027000Y-54591672D01*
X41027000Y-48650000D01*
X41025914Y-48633423D01*
X41008877Y-48504013D01*
X41000296Y-48471989D01*
X40950346Y-48351399D01*
X40933768Y-48322687D01*
X40854308Y-48219134D01*
X40830866Y-48195692D01*
X40727313Y-48116232D01*
X40698601Y-48099654D01*
X40578011Y-48049704D01*
X40545987Y-48041123D01*
X40416577Y-48024086D01*
X40400000Y-48023000D01*
X36708328Y-48023000D01*
X36603743Y-48009231D01*
X36514045Y-47972077D01*
X36437024Y-47912976D01*
X36377923Y-47835955D01*
X36340769Y-47746257D01*
X36327000Y-47641672D01*
X36327000Y-40806546D01*
X36340706Y-40702196D01*
X36377699Y-40612667D01*
X36436557Y-40535728D01*
X36513291Y-40476597D01*
X36602692Y-40439289D01*
X36706989Y-40425216D01*
X49890345Y-40378795D01*
X49995198Y-40392255D01*
%TO.N,Net-(D5-Pad2)*%
G36*
X35596257Y-40440769D02*
G01*
X35685955Y-40477923D01*
X35762976Y-40537024D01*
X35822077Y-40614045D01*
X35859231Y-40703743D01*
X35873000Y-40808328D01*
X35873000Y-47641672D01*
X35859231Y-47746257D01*
X35822077Y-47835955D01*
X35762976Y-47912976D01*
X35685955Y-47972077D01*
X35596257Y-48009231D01*
X35491672Y-48023000D01*
X31756678Y-48023000D01*
X31812877Y-48017465D01*
X31921414Y-47984540D01*
X32021443Y-47931074D01*
X32109120Y-47859120D01*
X32181074Y-47771443D01*
X32234540Y-47671414D01*
X32267465Y-47562877D01*
X32278582Y-47450001D01*
X32278582Y-46549999D01*
X32267465Y-46437123D01*
X32234540Y-46328586D01*
X32181074Y-46228557D01*
X32109120Y-46140880D01*
X32021443Y-46068926D01*
X31921414Y-46015460D01*
X31812877Y-45982535D01*
X31700001Y-45971418D01*
X31049999Y-45971418D01*
X30937123Y-45982535D01*
X30828586Y-46015460D01*
X30728557Y-46068926D01*
X30640880Y-46140880D01*
X30568926Y-46228557D01*
X30515460Y-46328586D01*
X30482535Y-46437123D01*
X30471418Y-46549999D01*
X30471418Y-46598000D01*
X30427000Y-46598000D01*
X30427000Y-40808328D01*
X30440769Y-40703743D01*
X30477923Y-40614045D01*
X30537024Y-40537024D01*
X30614045Y-40477923D01*
X30703743Y-40440769D01*
X30808328Y-40427000D01*
X35491672Y-40427000D01*
X35596257Y-40440769D01*
G37*
X35596257Y-40440769D02*
X35685955Y-40477923D01*
X35762976Y-40537024D01*
X35822077Y-40614045D01*
X35859231Y-40703743D01*
X35873000Y-40808328D01*
X35873000Y-47641672D01*
X35859231Y-47746257D01*
X35822077Y-47835955D01*
X35762976Y-47912976D01*
X35685955Y-47972077D01*
X35596257Y-48009231D01*
X35491672Y-48023000D01*
X31756678Y-48023000D01*
X31812877Y-48017465D01*
X31921414Y-47984540D01*
X32021443Y-47931074D01*
X32109120Y-47859120D01*
X32181074Y-47771443D01*
X32234540Y-47671414D01*
X32267465Y-47562877D01*
X32278582Y-47450001D01*
X32278582Y-46549999D01*
X32267465Y-46437123D01*
X32234540Y-46328586D01*
X32181074Y-46228557D01*
X32109120Y-46140880D01*
X32021443Y-46068926D01*
X31921414Y-46015460D01*
X31812877Y-45982535D01*
X31700001Y-45971418D01*
X31049999Y-45971418D01*
X30937123Y-45982535D01*
X30828586Y-46015460D01*
X30728557Y-46068926D01*
X30640880Y-46140880D01*
X30568926Y-46228557D01*
X30515460Y-46328586D01*
X30482535Y-46437123D01*
X30471418Y-46549999D01*
X30471418Y-46598000D01*
X30427000Y-46598000D01*
X30427000Y-40808328D01*
X30440769Y-40703743D01*
X30477923Y-40614045D01*
X30537024Y-40537024D01*
X30614045Y-40477923D01*
X30703743Y-40440769D01*
X30808328Y-40427000D01*
X35491672Y-40427000D01*
X35596257Y-40440769D01*
%TO.N,5V*%
G36*
X29696257Y-30840769D02*
G01*
X29785955Y-30877923D01*
X29862976Y-30937024D01*
X29922077Y-31014045D01*
X29959231Y-31103743D01*
X29973000Y-31208328D01*
X29973000Y-40011498D01*
X29944103Y-40002732D01*
X29880000Y-39996418D01*
X28320000Y-39996418D01*
X28255897Y-40002732D01*
X28194257Y-40021430D01*
X28137450Y-40051794D01*
X28087657Y-40092657D01*
X28046794Y-40142450D01*
X28016430Y-40199257D01*
X27997732Y-40260897D01*
X27991418Y-40325000D01*
X27991418Y-40975000D01*
X27997732Y-41039103D01*
X28016430Y-41100743D01*
X28046794Y-41157550D01*
X28087657Y-41207343D01*
X28137450Y-41248206D01*
X28194257Y-41278570D01*
X28255897Y-41297268D01*
X28320000Y-41303582D01*
X29880000Y-41303582D01*
X29944103Y-41297268D01*
X29973000Y-41288502D01*
X29973000Y-46598000D01*
X29251305Y-46598000D01*
X29235492Y-46545870D01*
X29183180Y-46448002D01*
X29112780Y-46362220D01*
X29026998Y-46291820D01*
X28929130Y-46239508D01*
X28822937Y-46207295D01*
X28712500Y-46196418D01*
X28137500Y-46196418D01*
X28027063Y-46207295D01*
X27920870Y-46239508D01*
X27823002Y-46291820D01*
X27737220Y-46362220D01*
X27666820Y-46448002D01*
X27614508Y-46545870D01*
X27582295Y-46652063D01*
X27571418Y-46762500D01*
X27571418Y-47237500D01*
X27582295Y-47347937D01*
X27614508Y-47454130D01*
X27666820Y-47551998D01*
X27737220Y-47637780D01*
X27823002Y-47708180D01*
X27920870Y-47760492D01*
X28027063Y-47792705D01*
X28137500Y-47803582D01*
X28712500Y-47803582D01*
X28822937Y-47792705D01*
X28929130Y-47760492D01*
X29026998Y-47708180D01*
X29112780Y-47637780D01*
X29183180Y-47551998D01*
X29209905Y-47502000D01*
X29973000Y-47502000D01*
X29973000Y-47641672D01*
X29959231Y-47746257D01*
X29922077Y-47835955D01*
X29862976Y-47912976D01*
X29785955Y-47972077D01*
X29696257Y-48009231D01*
X29591672Y-48023000D01*
X17508328Y-48023000D01*
X17403743Y-48009231D01*
X17314045Y-47972077D01*
X17237024Y-47912976D01*
X17177923Y-47835955D01*
X17140769Y-47746257D01*
X17127000Y-47641672D01*
X17127000Y-36500000D01*
X21273000Y-36500000D01*
X21273000Y-41000000D01*
X21275797Y-41042682D01*
X21292834Y-41172092D01*
X21314928Y-41254547D01*
X21364878Y-41375137D01*
X21407562Y-41449067D01*
X21487022Y-41552620D01*
X21547380Y-41612978D01*
X21650933Y-41692438D01*
X21724863Y-41735122D01*
X21845453Y-41785072D01*
X21927908Y-41807166D01*
X22057318Y-41824203D01*
X22100000Y-41827000D01*
X25300000Y-41827000D01*
X25342682Y-41824203D01*
X25472092Y-41807166D01*
X25554547Y-41785072D01*
X25675137Y-41735122D01*
X25749067Y-41692438D01*
X25852620Y-41612978D01*
X25912978Y-41552620D01*
X25992438Y-41449067D01*
X26035122Y-41375137D01*
X26085072Y-41254547D01*
X26107166Y-41172092D01*
X26124203Y-41042682D01*
X26127000Y-41000000D01*
X26127000Y-36500000D01*
X26124203Y-36457318D01*
X26107166Y-36327908D01*
X26085072Y-36245453D01*
X26035122Y-36124863D01*
X25992438Y-36050933D01*
X25912978Y-35947380D01*
X25852620Y-35887022D01*
X25749067Y-35807562D01*
X25675137Y-35764878D01*
X25554547Y-35714928D01*
X25472092Y-35692834D01*
X25342682Y-35675797D01*
X25300000Y-35673000D01*
X22100000Y-35673000D01*
X22057318Y-35675797D01*
X21927908Y-35692834D01*
X21845453Y-35714928D01*
X21724863Y-35764878D01*
X21650933Y-35807562D01*
X21547380Y-35887022D01*
X21487022Y-35947380D01*
X21407562Y-36050933D01*
X21364878Y-36124863D01*
X21314928Y-36245453D01*
X21292834Y-36327908D01*
X21275797Y-36457318D01*
X21273000Y-36500000D01*
X17127000Y-36500000D01*
X17127000Y-31208328D01*
X17140769Y-31103743D01*
X17177923Y-31014045D01*
X17237024Y-30937024D01*
X17314045Y-30877923D01*
X17403743Y-30840769D01*
X17508328Y-30827000D01*
X29591672Y-30827000D01*
X29696257Y-30840769D01*
G37*
X29696257Y-30840769D02*
X29785955Y-30877923D01*
X29862976Y-30937024D01*
X29922077Y-31014045D01*
X29959231Y-31103743D01*
X29973000Y-31208328D01*
X29973000Y-40011498D01*
X29944103Y-40002732D01*
X29880000Y-39996418D01*
X28320000Y-39996418D01*
X28255897Y-40002732D01*
X28194257Y-40021430D01*
X28137450Y-40051794D01*
X28087657Y-40092657D01*
X28046794Y-40142450D01*
X28016430Y-40199257D01*
X27997732Y-40260897D01*
X27991418Y-40325000D01*
X27991418Y-40975000D01*
X27997732Y-41039103D01*
X28016430Y-41100743D01*
X28046794Y-41157550D01*
X28087657Y-41207343D01*
X28137450Y-41248206D01*
X28194257Y-41278570D01*
X28255897Y-41297268D01*
X28320000Y-41303582D01*
X29880000Y-41303582D01*
X29944103Y-41297268D01*
X29973000Y-41288502D01*
X29973000Y-46598000D01*
X29251305Y-46598000D01*
X29235492Y-46545870D01*
X29183180Y-46448002D01*
X29112780Y-46362220D01*
X29026998Y-46291820D01*
X28929130Y-46239508D01*
X28822937Y-46207295D01*
X28712500Y-46196418D01*
X28137500Y-46196418D01*
X28027063Y-46207295D01*
X27920870Y-46239508D01*
X27823002Y-46291820D01*
X27737220Y-46362220D01*
X27666820Y-46448002D01*
X27614508Y-46545870D01*
X27582295Y-46652063D01*
X27571418Y-46762500D01*
X27571418Y-47237500D01*
X27582295Y-47347937D01*
X27614508Y-47454130D01*
X27666820Y-47551998D01*
X27737220Y-47637780D01*
X27823002Y-47708180D01*
X27920870Y-47760492D01*
X28027063Y-47792705D01*
X28137500Y-47803582D01*
X28712500Y-47803582D01*
X28822937Y-47792705D01*
X28929130Y-47760492D01*
X29026998Y-47708180D01*
X29112780Y-47637780D01*
X29183180Y-47551998D01*
X29209905Y-47502000D01*
X29973000Y-47502000D01*
X29973000Y-47641672D01*
X29959231Y-47746257D01*
X29922077Y-47835955D01*
X29862976Y-47912976D01*
X29785955Y-47972077D01*
X29696257Y-48009231D01*
X29591672Y-48023000D01*
X17508328Y-48023000D01*
X17403743Y-48009231D01*
X17314045Y-47972077D01*
X17237024Y-47912976D01*
X17177923Y-47835955D01*
X17140769Y-47746257D01*
X17127000Y-47641672D01*
X17127000Y-36500000D01*
X21273000Y-36500000D01*
X21273000Y-41000000D01*
X21275797Y-41042682D01*
X21292834Y-41172092D01*
X21314928Y-41254547D01*
X21364878Y-41375137D01*
X21407562Y-41449067D01*
X21487022Y-41552620D01*
X21547380Y-41612978D01*
X21650933Y-41692438D01*
X21724863Y-41735122D01*
X21845453Y-41785072D01*
X21927908Y-41807166D01*
X22057318Y-41824203D01*
X22100000Y-41827000D01*
X25300000Y-41827000D01*
X25342682Y-41824203D01*
X25472092Y-41807166D01*
X25554547Y-41785072D01*
X25675137Y-41735122D01*
X25749067Y-41692438D01*
X25852620Y-41612978D01*
X25912978Y-41552620D01*
X25992438Y-41449067D01*
X26035122Y-41375137D01*
X26085072Y-41254547D01*
X26107166Y-41172092D01*
X26124203Y-41042682D01*
X26127000Y-41000000D01*
X26127000Y-36500000D01*
X26124203Y-36457318D01*
X26107166Y-36327908D01*
X26085072Y-36245453D01*
X26035122Y-36124863D01*
X25992438Y-36050933D01*
X25912978Y-35947380D01*
X25852620Y-35887022D01*
X25749067Y-35807562D01*
X25675137Y-35764878D01*
X25554547Y-35714928D01*
X25472092Y-35692834D01*
X25342682Y-35675797D01*
X25300000Y-35673000D01*
X22100000Y-35673000D01*
X22057318Y-35675797D01*
X21927908Y-35692834D01*
X21845453Y-35714928D01*
X21724863Y-35764878D01*
X21650933Y-35807562D01*
X21547380Y-35887022D01*
X21487022Y-35947380D01*
X21407562Y-36050933D01*
X21364878Y-36124863D01*
X21314928Y-36245453D01*
X21292834Y-36327908D01*
X21275797Y-36457318D01*
X21273000Y-36500000D01*
X17127000Y-36500000D01*
X17127000Y-31208328D01*
X17140769Y-31103743D01*
X17177923Y-31014045D01*
X17237024Y-30937024D01*
X17314045Y-30877923D01*
X17403743Y-30840769D01*
X17508328Y-30827000D01*
X29591672Y-30827000D01*
X29696257Y-30840769D01*
%TO.N,BAT-*%
G36*
X25396257Y-36140769D02*
G01*
X25485955Y-36177923D01*
X25562976Y-36237024D01*
X25622077Y-36314045D01*
X25659231Y-36403743D01*
X25673000Y-36508328D01*
X25673000Y-40991672D01*
X25659231Y-41096257D01*
X25622077Y-41185955D01*
X25562976Y-41262976D01*
X25485955Y-41322077D01*
X25396257Y-41359231D01*
X25291672Y-41373000D01*
X22108328Y-41373000D01*
X22003743Y-41359231D01*
X21914045Y-41322077D01*
X21837024Y-41262976D01*
X21777923Y-41185955D01*
X21740769Y-41096257D01*
X21727000Y-40991672D01*
X21727000Y-36508328D01*
X21740769Y-36403743D01*
X21777923Y-36314045D01*
X21837024Y-36237024D01*
X21914045Y-36177923D01*
X22003743Y-36140769D01*
X22108328Y-36127000D01*
X25291672Y-36127000D01*
X25396257Y-36140769D01*
G37*
X25396257Y-36140769D02*
X25485955Y-36177923D01*
X25562976Y-36237024D01*
X25622077Y-36314045D01*
X25659231Y-36403743D01*
X25673000Y-36508328D01*
X25673000Y-40991672D01*
X25659231Y-41096257D01*
X25622077Y-41185955D01*
X25562976Y-41262976D01*
X25485955Y-41322077D01*
X25396257Y-41359231D01*
X25291672Y-41373000D01*
X22108328Y-41373000D01*
X22003743Y-41359231D01*
X21914045Y-41322077D01*
X21837024Y-41262976D01*
X21777923Y-41185955D01*
X21740769Y-41096257D01*
X21727000Y-40991672D01*
X21727000Y-36508328D01*
X21740769Y-36403743D01*
X21777923Y-36314045D01*
X21837024Y-36237024D01*
X21914045Y-36177923D01*
X22003743Y-36140769D01*
X22108328Y-36127000D01*
X25291672Y-36127000D01*
X25396257Y-36140769D01*
G36*
X75721586Y-15539390D02*
G01*
X76257945Y-15636727D01*
X76760809Y-15834667D01*
X77215648Y-16126511D01*
X77605142Y-16501144D01*
X77914448Y-16944291D01*
X78134038Y-17444196D01*
X78213700Y-17747594D01*
X78233008Y-17931287D01*
X78238270Y-17956922D01*
X78243183Y-17982675D01*
X78244349Y-17986537D01*
X78302061Y-18172975D01*
X78312205Y-18197106D01*
X78322024Y-18221408D01*
X78323918Y-18224971D01*
X78416743Y-18396648D01*
X78431390Y-18418362D01*
X78445734Y-18440282D01*
X78448284Y-18443409D01*
X78572688Y-18593787D01*
X78591245Y-18612215D01*
X78609600Y-18630958D01*
X78612710Y-18633530D01*
X78763952Y-18756880D01*
X78785731Y-18771350D01*
X78807381Y-18786174D01*
X78810931Y-18788093D01*
X78983253Y-18879718D01*
X79007477Y-18889702D01*
X79031545Y-18900018D01*
X79035394Y-18901209D01*
X79035401Y-18901212D01*
X79035408Y-18901213D01*
X79222236Y-18957620D01*
X79247919Y-18962706D01*
X79273551Y-18968154D01*
X79277564Y-18968576D01*
X79471798Y-18987621D01*
X79637835Y-19003901D01*
X79770411Y-19043928D01*
X79892696Y-19108948D01*
X80000017Y-19196477D01*
X80088296Y-19303188D01*
X80154166Y-19425013D01*
X80195120Y-19557313D01*
X80211000Y-19708396D01*
X80211001Y-27985797D01*
X80211000Y-27985807D01*
X80211001Y-38485853D01*
X80196099Y-38637835D01*
X80156072Y-38770411D01*
X80091053Y-38892694D01*
X80003522Y-39000018D01*
X79896812Y-39088296D01*
X79774987Y-39154166D01*
X79642687Y-39195120D01*
X79479238Y-39212300D01*
X79466825Y-39212213D01*
X79462809Y-39212607D01*
X79268712Y-39233008D01*
X79243070Y-39238272D01*
X79217325Y-39243183D01*
X79213463Y-39244349D01*
X79027025Y-39302061D01*
X79002894Y-39312205D01*
X78978592Y-39322024D01*
X78975029Y-39323918D01*
X78803352Y-39416743D01*
X78781615Y-39431405D01*
X78759718Y-39445734D01*
X78756591Y-39448284D01*
X78606213Y-39572688D01*
X78587768Y-39591262D01*
X78569042Y-39609600D01*
X78566470Y-39612709D01*
X78443120Y-39763952D01*
X78428635Y-39785754D01*
X78413826Y-39807381D01*
X78411907Y-39810931D01*
X78320282Y-39983253D01*
X78310298Y-40007477D01*
X78299982Y-40031545D01*
X78298792Y-40035390D01*
X78298788Y-40035400D01*
X78298786Y-40035410D01*
X78242380Y-40222236D01*
X78237291Y-40247934D01*
X78231846Y-40273552D01*
X78231424Y-40277565D01*
X78212379Y-40471798D01*
X78212379Y-40471815D01*
X78211001Y-40485806D01*
X78211000Y-52785863D01*
X78158009Y-53326304D01*
X78005164Y-53832552D01*
X77756896Y-54299476D01*
X77422661Y-54709288D01*
X77015198Y-55046371D01*
X76550015Y-55297894D01*
X76044846Y-55454271D01*
X75505292Y-55510980D01*
X75499567Y-55511000D01*
X47185806Y-55511000D01*
X47173049Y-55512256D01*
X47166825Y-55512213D01*
X47162809Y-55512607D01*
X46968712Y-55533008D01*
X46943070Y-55538272D01*
X46917325Y-55543183D01*
X46913463Y-55544349D01*
X46727025Y-55602061D01*
X46702894Y-55612205D01*
X46678592Y-55622024D01*
X46675029Y-55623918D01*
X46503352Y-55716743D01*
X46481615Y-55731405D01*
X46459718Y-55745734D01*
X46456591Y-55748284D01*
X46306213Y-55872688D01*
X46287768Y-55891262D01*
X46269042Y-55909600D01*
X46266470Y-55912709D01*
X46143120Y-56063952D01*
X46128635Y-56085754D01*
X46113826Y-56107381D01*
X46111907Y-56110931D01*
X46020282Y-56283253D01*
X46010298Y-56307477D01*
X45999982Y-56331545D01*
X45998792Y-56335390D01*
X45998788Y-56335400D01*
X45998786Y-56335410D01*
X45942380Y-56522236D01*
X45937291Y-56547934D01*
X45931846Y-56573552D01*
X45931424Y-56577565D01*
X45912379Y-56771798D01*
X45912379Y-56771799D01*
X45896099Y-56937835D01*
X45856072Y-57070411D01*
X45791053Y-57192694D01*
X45703522Y-57300018D01*
X45596812Y-57388296D01*
X45474987Y-57454166D01*
X45342687Y-57495120D01*
X45191603Y-57511000D01*
X36714137Y-57511000D01*
X36562165Y-57496099D01*
X36429589Y-57456072D01*
X36307306Y-57391053D01*
X36199982Y-57303522D01*
X36111704Y-57196812D01*
X36045834Y-57074987D01*
X36004880Y-56942687D01*
X35987700Y-56779238D01*
X35987787Y-56766825D01*
X35987393Y-56762809D01*
X35966992Y-56568712D01*
X35961728Y-56543070D01*
X35956817Y-56517325D01*
X35955651Y-56513463D01*
X35897939Y-56327025D01*
X35887795Y-56302894D01*
X35877976Y-56278592D01*
X35876082Y-56275029D01*
X35783257Y-56103352D01*
X35768595Y-56081615D01*
X35754266Y-56059718D01*
X35751716Y-56056591D01*
X35627312Y-55906213D01*
X35608738Y-55887768D01*
X35590400Y-55869042D01*
X35587291Y-55866470D01*
X35436048Y-55743120D01*
X35414246Y-55728635D01*
X35392619Y-55713826D01*
X35389069Y-55711907D01*
X35216747Y-55620282D01*
X35192523Y-55610298D01*
X35168455Y-55599982D01*
X35164610Y-55598792D01*
X35164600Y-55598788D01*
X35164590Y-55598786D01*
X34977764Y-55542380D01*
X34952066Y-55537291D01*
X34926448Y-55531846D01*
X34922435Y-55531424D01*
X34728202Y-55512379D01*
X34728195Y-55512379D01*
X34714194Y-55511000D01*
X18014137Y-55511000D01*
X17473696Y-55458009D01*
X16967448Y-55305164D01*
X16500524Y-55056896D01*
X16090712Y-54722661D01*
X15753629Y-54315198D01*
X15502106Y-53850015D01*
X15345729Y-53344846D01*
X15289020Y-52805292D01*
X15289000Y-52799567D01*
X15289000Y-31200000D01*
X16673000Y-31200000D01*
X16673000Y-47650000D01*
X16675797Y-47692682D01*
X16692834Y-47822092D01*
X16714928Y-47904547D01*
X16764878Y-48025137D01*
X16807562Y-48099067D01*
X16887022Y-48202620D01*
X16947380Y-48262978D01*
X17050933Y-48342438D01*
X17124863Y-48385122D01*
X17245453Y-48435072D01*
X17327908Y-48457166D01*
X17457318Y-48474203D01*
X17500000Y-48477000D01*
X29600000Y-48477000D01*
X29642682Y-48474203D01*
X29772092Y-48457166D01*
X29854547Y-48435072D01*
X29975137Y-48385122D01*
X30049067Y-48342438D01*
X30152620Y-48262978D01*
X30200000Y-48215598D01*
X30247380Y-48262978D01*
X30350933Y-48342438D01*
X30424863Y-48385122D01*
X30545453Y-48435072D01*
X30627908Y-48457166D01*
X30757318Y-48474203D01*
X30800000Y-48477000D01*
X35500000Y-48477000D01*
X35542682Y-48474203D01*
X35672092Y-48457166D01*
X35754547Y-48435072D01*
X35875137Y-48385122D01*
X35949067Y-48342438D01*
X36052620Y-48262978D01*
X36100000Y-48215598D01*
X36147380Y-48262978D01*
X36250933Y-48342438D01*
X36324863Y-48385122D01*
X36445453Y-48435072D01*
X36527908Y-48457166D01*
X36657318Y-48474203D01*
X36700000Y-48477000D01*
X40378564Y-48477000D01*
X40444047Y-48485621D01*
X40485089Y-48502621D01*
X40520334Y-48529666D01*
X40547379Y-48564911D01*
X40564379Y-48605953D01*
X40573000Y-48671436D01*
X40573000Y-54600000D01*
X40575797Y-54642682D01*
X40592834Y-54772092D01*
X40614928Y-54854547D01*
X40664878Y-54975137D01*
X40707562Y-55049067D01*
X40787022Y-55152620D01*
X40847380Y-55212978D01*
X40950933Y-55292438D01*
X41024863Y-55335122D01*
X41145453Y-55385072D01*
X41227908Y-55407166D01*
X41357318Y-55424203D01*
X41400000Y-55427000D01*
X45700000Y-55427000D01*
X45742682Y-55424203D01*
X45872092Y-55407166D01*
X45954547Y-55385072D01*
X46075137Y-55335122D01*
X46149067Y-55292438D01*
X46200000Y-55253355D01*
X46250933Y-55292438D01*
X46324863Y-55335122D01*
X46445453Y-55385072D01*
X46527908Y-55407166D01*
X46657318Y-55424203D01*
X46700000Y-55427000D01*
X50300000Y-55427000D01*
X50342682Y-55424203D01*
X50472092Y-55407166D01*
X50554547Y-55385072D01*
X50675137Y-55335122D01*
X50749067Y-55292438D01*
X50800000Y-55253355D01*
X50850933Y-55292438D01*
X50924863Y-55335122D01*
X51045453Y-55385072D01*
X51127908Y-55407166D01*
X51257318Y-55424203D01*
X51300000Y-55427000D01*
X60700000Y-55427000D01*
X60742682Y-55424203D01*
X60872092Y-55407166D01*
X60954547Y-55385072D01*
X61075137Y-55335122D01*
X61149067Y-55292438D01*
X61252620Y-55212978D01*
X61312978Y-55152620D01*
X61392438Y-55049067D01*
X61435122Y-54975137D01*
X61485072Y-54854547D01*
X61507166Y-54772092D01*
X61524203Y-54642682D01*
X61527000Y-54600000D01*
X61527000Y-53424073D01*
X61550933Y-53442438D01*
X61624863Y-53485122D01*
X61745453Y-53535072D01*
X61827908Y-53557166D01*
X61957318Y-53574203D01*
X62000000Y-53577000D01*
X67250000Y-53577000D01*
X67292682Y-53574203D01*
X67422092Y-53557166D01*
X67504547Y-53535072D01*
X67625137Y-53485122D01*
X67699067Y-53442438D01*
X67802620Y-53362978D01*
X67862978Y-53302620D01*
X67942438Y-53199067D01*
X67985122Y-53125137D01*
X68035072Y-53004547D01*
X68057166Y-52922092D01*
X68074203Y-52792682D01*
X68077000Y-52750000D01*
X68077000Y-44827000D01*
X69130431Y-44827000D01*
X69127732Y-44835897D01*
X69121418Y-44900000D01*
X69121418Y-45600000D01*
X69127732Y-45664103D01*
X69146430Y-45725743D01*
X69159396Y-45750000D01*
X69146430Y-45774257D01*
X69127732Y-45835897D01*
X69121418Y-45900000D01*
X69121418Y-46600000D01*
X69127732Y-46664103D01*
X69146205Y-46725000D01*
X69127732Y-46785897D01*
X69121418Y-46850000D01*
X69121418Y-47650000D01*
X69127732Y-47714103D01*
X69146430Y-47775743D01*
X69176794Y-47832550D01*
X69217657Y-47882343D01*
X69267450Y-47923206D01*
X69324257Y-47953570D01*
X69385897Y-47972268D01*
X69450000Y-47978582D01*
X73450000Y-47978582D01*
X73514103Y-47972268D01*
X73575743Y-47953570D01*
X73632550Y-47923206D01*
X73682343Y-47882343D01*
X73723206Y-47832550D01*
X73753570Y-47775743D01*
X73772268Y-47714103D01*
X73778582Y-47650000D01*
X73778582Y-46850000D01*
X73772268Y-46785897D01*
X73753795Y-46725000D01*
X73760772Y-46702000D01*
X75996418Y-46702000D01*
X75996418Y-47087500D01*
X76007295Y-47197937D01*
X76039508Y-47304130D01*
X76091820Y-47401998D01*
X76162220Y-47487780D01*
X76248002Y-47558180D01*
X76345870Y-47610492D01*
X76452063Y-47642705D01*
X76562500Y-47653582D01*
X77037500Y-47653582D01*
X77147937Y-47642705D01*
X77254130Y-47610492D01*
X77351998Y-47558180D01*
X77437780Y-47487780D01*
X77508180Y-47401998D01*
X77560492Y-47304130D01*
X77592705Y-47197937D01*
X77603582Y-47087500D01*
X77603582Y-46587500D01*
X77592705Y-46477063D01*
X77560492Y-46370870D01*
X77508180Y-46273002D01*
X77437780Y-46187220D01*
X77351998Y-46116820D01*
X77254130Y-46064508D01*
X77147937Y-46032295D01*
X77037500Y-46021418D01*
X76623141Y-46021418D01*
X76547823Y-45946100D01*
X76533659Y-45928841D01*
X76464833Y-45872357D01*
X76386310Y-45830386D01*
X76301107Y-45804540D01*
X76234705Y-45798000D01*
X76212500Y-45795813D01*
X76190295Y-45798000D01*
X73760772Y-45798000D01*
X73753570Y-45774257D01*
X73740604Y-45750000D01*
X73753570Y-45725743D01*
X73760772Y-45702000D01*
X76390295Y-45702000D01*
X76412500Y-45704187D01*
X76434705Y-45702000D01*
X76501107Y-45695460D01*
X76586310Y-45669614D01*
X76664833Y-45627643D01*
X76733659Y-45571159D01*
X76747823Y-45553900D01*
X77023142Y-45278582D01*
X77037500Y-45278582D01*
X77147937Y-45267705D01*
X77254130Y-45235492D01*
X77351998Y-45183180D01*
X77437780Y-45112780D01*
X77508180Y-45026998D01*
X77560492Y-44929130D01*
X77592705Y-44822937D01*
X77603582Y-44712500D01*
X77603582Y-44212500D01*
X77592705Y-44102063D01*
X77560492Y-43995870D01*
X77508180Y-43898002D01*
X77437780Y-43812220D01*
X77351998Y-43741820D01*
X77254130Y-43689508D01*
X77147937Y-43657295D01*
X77037500Y-43646418D01*
X76562500Y-43646418D01*
X76452063Y-43657295D01*
X76345870Y-43689508D01*
X76248002Y-43741820D01*
X76162220Y-43812220D01*
X76091820Y-43898002D01*
X76039508Y-43995870D01*
X76007295Y-44102063D01*
X75996418Y-44212500D01*
X75996418Y-44712500D01*
X76004839Y-44798000D01*
X73760772Y-44798000D01*
X73753795Y-44775000D01*
X73772268Y-44714103D01*
X73778582Y-44650000D01*
X73778582Y-43850000D01*
X73772268Y-43785897D01*
X73753570Y-43724257D01*
X73723206Y-43667450D01*
X73682343Y-43617657D01*
X73632550Y-43576794D01*
X73575743Y-43546430D01*
X73514103Y-43527732D01*
X73450000Y-43521418D01*
X69450000Y-43521418D01*
X69385897Y-43527732D01*
X69324257Y-43546430D01*
X69267450Y-43576794D01*
X69217657Y-43617657D01*
X69176794Y-43667450D01*
X69173827Y-43673000D01*
X68077000Y-43673000D01*
X68077000Y-40021436D01*
X68085621Y-39955953D01*
X68102621Y-39914911D01*
X68129666Y-39879666D01*
X68164911Y-39852621D01*
X68205953Y-39835621D01*
X68271436Y-39827000D01*
X75000000Y-39827000D01*
X75042682Y-39824203D01*
X75172092Y-39807166D01*
X75254547Y-39785072D01*
X75375137Y-39735122D01*
X75449067Y-39692438D01*
X75552620Y-39612978D01*
X75612978Y-39552620D01*
X75692438Y-39449067D01*
X75735122Y-39375137D01*
X75785072Y-39254547D01*
X75807166Y-39172092D01*
X75824203Y-39042682D01*
X75827000Y-39000000D01*
X75827000Y-35750000D01*
X75824203Y-35707318D01*
X75807166Y-35577908D01*
X75785072Y-35495453D01*
X75735122Y-35374863D01*
X75692438Y-35300933D01*
X75612978Y-35197380D01*
X75552620Y-35137022D01*
X75449067Y-35057562D01*
X75375137Y-35014878D01*
X75254547Y-34964928D01*
X75172092Y-34942834D01*
X75042682Y-34925797D01*
X75000000Y-34923000D01*
X62000000Y-34923000D01*
X61957318Y-34925797D01*
X61827908Y-34942834D01*
X61745453Y-34964928D01*
X61624863Y-35014878D01*
X61550933Y-35057562D01*
X61447380Y-35137022D01*
X61387022Y-35197380D01*
X61307562Y-35300933D01*
X61264878Y-35374863D01*
X61214928Y-35495453D01*
X61192834Y-35577908D01*
X61175797Y-35707318D01*
X61173000Y-35750000D01*
X61173000Y-40125927D01*
X61149067Y-40107562D01*
X61075137Y-40064878D01*
X60954547Y-40014928D01*
X60872092Y-39992834D01*
X60742682Y-39975797D01*
X60700000Y-39973000D01*
X56592948Y-39973000D01*
X56542252Y-39976954D01*
X56389095Y-40000989D01*
X56352373Y-40008936D01*
X56292580Y-40032045D01*
X56154147Y-40101838D01*
X56121621Y-40120655D01*
X56071781Y-40160969D01*
X55961382Y-40269812D01*
X55936186Y-40297683D01*
X55901091Y-40351326D01*
X55829338Y-40488753D01*
X55813889Y-40523006D01*
X55796912Y-40584821D01*
X55770705Y-40737621D01*
X55766032Y-40788254D01*
X55708010Y-44873000D01*
X55576305Y-44873000D01*
X55560492Y-44820870D01*
X55508180Y-44723002D01*
X55437780Y-44637220D01*
X55351998Y-44566820D01*
X55254130Y-44514508D01*
X55147937Y-44482295D01*
X55037500Y-44471418D01*
X54562500Y-44471418D01*
X54452063Y-44482295D01*
X54345870Y-44514508D01*
X54248002Y-44566820D01*
X54162220Y-44637220D01*
X54091820Y-44723002D01*
X54039508Y-44820870D01*
X54007295Y-44927063D01*
X53996418Y-45037500D01*
X53996418Y-45612500D01*
X54007295Y-45722937D01*
X54039508Y-45829130D01*
X54091820Y-45926998D01*
X54162220Y-46012780D01*
X54248002Y-46083180D01*
X54345870Y-46135492D01*
X54452063Y-46167705D01*
X54562500Y-46178582D01*
X55037500Y-46178582D01*
X55147937Y-46167705D01*
X55254130Y-46135492D01*
X55351998Y-46083180D01*
X55437780Y-46012780D01*
X55508180Y-45926998D01*
X55560492Y-45829130D01*
X55576305Y-45777000D01*
X55695169Y-45777000D01*
X55655300Y-48583773D01*
X55642292Y-48660231D01*
X55618424Y-48706398D01*
X55581660Y-48743135D01*
X55535475Y-48766969D01*
X55459010Y-48779920D01*
X53036015Y-48812553D01*
X53078053Y-48778053D01*
X53131353Y-48713107D01*
X53170958Y-48639011D01*
X53195347Y-48558612D01*
X53203582Y-48475000D01*
X53203582Y-48275000D01*
X53195347Y-48191388D01*
X53170958Y-48110989D01*
X53131353Y-48036893D01*
X53078053Y-47971947D01*
X53013107Y-47918647D01*
X52939011Y-47879042D01*
X52858612Y-47854653D01*
X52775000Y-47846418D01*
X51525000Y-47846418D01*
X51441388Y-47854653D01*
X51360989Y-47879042D01*
X51286893Y-47918647D01*
X51221947Y-47971947D01*
X51168647Y-48036893D01*
X51168582Y-48037015D01*
X51168582Y-47412985D01*
X51168647Y-47413107D01*
X51221947Y-47478053D01*
X51286893Y-47531353D01*
X51360989Y-47570958D01*
X51441388Y-47595347D01*
X51525000Y-47603582D01*
X52775000Y-47603582D01*
X52858612Y-47595347D01*
X52939011Y-47570958D01*
X53013107Y-47531353D01*
X53018411Y-47527000D01*
X54023695Y-47527000D01*
X54039508Y-47579130D01*
X54091820Y-47676998D01*
X54162220Y-47762780D01*
X54248002Y-47833180D01*
X54345870Y-47885492D01*
X54452063Y-47917705D01*
X54562500Y-47928582D01*
X55037500Y-47928582D01*
X55147937Y-47917705D01*
X55254130Y-47885492D01*
X55351998Y-47833180D01*
X55437780Y-47762780D01*
X55508180Y-47676998D01*
X55560492Y-47579130D01*
X55592705Y-47472937D01*
X55603582Y-47362500D01*
X55603582Y-46787500D01*
X55592705Y-46677063D01*
X55560492Y-46570870D01*
X55508180Y-46473002D01*
X55437780Y-46387220D01*
X55351998Y-46316820D01*
X55254130Y-46264508D01*
X55147937Y-46232295D01*
X55037500Y-46221418D01*
X54562500Y-46221418D01*
X54452063Y-46232295D01*
X54345870Y-46264508D01*
X54248002Y-46316820D01*
X54162220Y-46387220D01*
X54091820Y-46473002D01*
X54039508Y-46570870D01*
X54023695Y-46623000D01*
X53190982Y-46623000D01*
X53195347Y-46608612D01*
X53203582Y-46525000D01*
X53203582Y-46325000D01*
X53195347Y-46241388D01*
X53170958Y-46160989D01*
X53131353Y-46086893D01*
X53078053Y-46021947D01*
X53013107Y-45968647D01*
X52939011Y-45929042D01*
X52858612Y-45904653D01*
X52775000Y-45896418D01*
X51525000Y-45896418D01*
X51441388Y-45904653D01*
X51360989Y-45929042D01*
X51286893Y-45968647D01*
X51221947Y-46021947D01*
X51168647Y-46086893D01*
X51129042Y-46160989D01*
X51104653Y-46241388D01*
X51102398Y-46264280D01*
X51072343Y-46227657D01*
X51022550Y-46186794D01*
X50965743Y-46156430D01*
X50904103Y-46137732D01*
X50840000Y-46131418D01*
X50727000Y-46131418D01*
X50727000Y-40751764D01*
X50724190Y-40708987D01*
X50707077Y-40579294D01*
X50684885Y-40496667D01*
X50634717Y-40375852D01*
X50591853Y-40301811D01*
X50512064Y-40198143D01*
X50451462Y-40137754D01*
X50347515Y-40058331D01*
X50273322Y-40015727D01*
X50152331Y-39965985D01*
X50069626Y-39944084D01*
X49939873Y-39927428D01*
X49897088Y-39924769D01*
X36697088Y-39971248D01*
X36654512Y-39974183D01*
X36525447Y-39991598D01*
X36443238Y-40013884D01*
X36323048Y-40064041D01*
X36249386Y-40106801D01*
X36146227Y-40186295D01*
X36099143Y-40233545D01*
X36052620Y-40187022D01*
X35949067Y-40107562D01*
X35875137Y-40064878D01*
X35754547Y-40014928D01*
X35672092Y-39992834D01*
X35542682Y-39975797D01*
X35500000Y-39973000D01*
X30800000Y-39973000D01*
X30757318Y-39975797D01*
X30627908Y-39992834D01*
X30545453Y-40014928D01*
X30427000Y-40063993D01*
X30427000Y-38425000D01*
X30691418Y-38425000D01*
X30691418Y-39075000D01*
X30697732Y-39139103D01*
X30716430Y-39200743D01*
X30746794Y-39257550D01*
X30787657Y-39307343D01*
X30837450Y-39348206D01*
X30894257Y-39378570D01*
X30955897Y-39397268D01*
X31020000Y-39403582D01*
X32580000Y-39403582D01*
X32644103Y-39397268D01*
X32705743Y-39378570D01*
X32762550Y-39348206D01*
X32812343Y-39307343D01*
X32853206Y-39257550D01*
X32883570Y-39200743D01*
X32902268Y-39139103D01*
X32908582Y-39075000D01*
X32908582Y-38425000D01*
X32902268Y-38360897D01*
X32883570Y-38299257D01*
X32853206Y-38242450D01*
X32812343Y-38192657D01*
X32762550Y-38151794D01*
X32705743Y-38121430D01*
X32644103Y-38102732D01*
X32580000Y-38096418D01*
X31020000Y-38096418D01*
X30955897Y-38102732D01*
X30894257Y-38121430D01*
X30837450Y-38151794D01*
X30787657Y-38192657D01*
X30746794Y-38242450D01*
X30716430Y-38299257D01*
X30697732Y-38360897D01*
X30691418Y-38425000D01*
X30427000Y-38425000D01*
X30427000Y-32659453D01*
X48473000Y-32659453D01*
X48473000Y-32940547D01*
X48527838Y-33216241D01*
X48635409Y-33475938D01*
X48791576Y-33709660D01*
X48990340Y-33908424D01*
X49224062Y-34064591D01*
X49483759Y-34172162D01*
X49759453Y-34227000D01*
X50040547Y-34227000D01*
X50316241Y-34172162D01*
X50575938Y-34064591D01*
X50809660Y-33908424D01*
X51008424Y-33709660D01*
X51153255Y-33492904D01*
X51154119Y-33494197D01*
X51305803Y-33645881D01*
X51484165Y-33765059D01*
X51682350Y-33847150D01*
X51892743Y-33889000D01*
X52107257Y-33889000D01*
X52317650Y-33847150D01*
X52515835Y-33765059D01*
X52694197Y-33645881D01*
X52845881Y-33494197D01*
X52965059Y-33315835D01*
X53047150Y-33117650D01*
X53089000Y-32907257D01*
X53089000Y-32692743D01*
X54911000Y-32692743D01*
X54911000Y-32907257D01*
X54952850Y-33117650D01*
X55034941Y-33315835D01*
X55154119Y-33494197D01*
X55305803Y-33645881D01*
X55484165Y-33765059D01*
X55682350Y-33847150D01*
X55892743Y-33889000D01*
X56107257Y-33889000D01*
X56317650Y-33847150D01*
X56515835Y-33765059D01*
X56694197Y-33645881D01*
X56845881Y-33494197D01*
X56965059Y-33315835D01*
X57000000Y-33231480D01*
X57034941Y-33315835D01*
X57154119Y-33494197D01*
X57305803Y-33645881D01*
X57484165Y-33765059D01*
X57682350Y-33847150D01*
X57892743Y-33889000D01*
X58107257Y-33889000D01*
X58317650Y-33847150D01*
X58515835Y-33765059D01*
X58694197Y-33645881D01*
X58845881Y-33494197D01*
X58965059Y-33315835D01*
X59000000Y-33231480D01*
X59034941Y-33315835D01*
X59154119Y-33494197D01*
X59305803Y-33645881D01*
X59484165Y-33765059D01*
X59682350Y-33847150D01*
X59892743Y-33889000D01*
X60107257Y-33889000D01*
X60317650Y-33847150D01*
X60515835Y-33765059D01*
X60694197Y-33645881D01*
X60845881Y-33494197D01*
X60846745Y-33492904D01*
X60991576Y-33709660D01*
X61190340Y-33908424D01*
X61424062Y-34064591D01*
X61683759Y-34172162D01*
X61959453Y-34227000D01*
X62240547Y-34227000D01*
X62516241Y-34172162D01*
X62775938Y-34064591D01*
X63009660Y-33908424D01*
X63208424Y-33709660D01*
X63364591Y-33475938D01*
X63472162Y-33216241D01*
X63527000Y-32940547D01*
X63527000Y-32659453D01*
X63472162Y-32383759D01*
X63364591Y-32124062D01*
X63208424Y-31890340D01*
X63009660Y-31691576D01*
X62775938Y-31535409D01*
X62516241Y-31427838D01*
X62240547Y-31373000D01*
X61959453Y-31373000D01*
X61683759Y-31427838D01*
X61424062Y-31535409D01*
X61190340Y-31691576D01*
X60991576Y-31890340D01*
X60846745Y-32107096D01*
X60845881Y-32105803D01*
X60694197Y-31954119D01*
X60515835Y-31834941D01*
X60452000Y-31808500D01*
X60452000Y-30186138D01*
X60454130Y-30185492D01*
X60551998Y-30133180D01*
X60637780Y-30062780D01*
X60708180Y-29976998D01*
X60760492Y-29879130D01*
X60792705Y-29772937D01*
X60803582Y-29662500D01*
X60803582Y-29087500D01*
X60792705Y-28977063D01*
X60760492Y-28870870D01*
X60708180Y-28773002D01*
X60637780Y-28687220D01*
X60551998Y-28616820D01*
X60454130Y-28564508D01*
X60347937Y-28532295D01*
X60237500Y-28521418D01*
X59762500Y-28521418D01*
X59652063Y-28532295D01*
X59545870Y-28564508D01*
X59448002Y-28616820D01*
X59362220Y-28687220D01*
X59291820Y-28773002D01*
X59239508Y-28870870D01*
X59207295Y-28977063D01*
X59196418Y-29087500D01*
X59196418Y-29662500D01*
X59207295Y-29772937D01*
X59239508Y-29879130D01*
X59291820Y-29976998D01*
X59362220Y-30062780D01*
X59448002Y-30133180D01*
X59545870Y-30185492D01*
X59548000Y-30186138D01*
X59548001Y-31808499D01*
X59484165Y-31834941D01*
X59305803Y-31954119D01*
X59154119Y-32105803D01*
X59034941Y-32284165D01*
X59000000Y-32368520D01*
X58965059Y-32284165D01*
X58845881Y-32105803D01*
X58694197Y-31954119D01*
X58515835Y-31834941D01*
X58452000Y-31808500D01*
X58452000Y-30186138D01*
X58454130Y-30185492D01*
X58551998Y-30133180D01*
X58637780Y-30062780D01*
X58708180Y-29976998D01*
X58760492Y-29879130D01*
X58792705Y-29772937D01*
X58803582Y-29662500D01*
X58803582Y-29087500D01*
X58792705Y-28977063D01*
X58760492Y-28870870D01*
X58708180Y-28773002D01*
X58637780Y-28687220D01*
X58551998Y-28616820D01*
X58454130Y-28564508D01*
X58347937Y-28532295D01*
X58237500Y-28521418D01*
X57762500Y-28521418D01*
X57652063Y-28532295D01*
X57545870Y-28564508D01*
X57448002Y-28616820D01*
X57362220Y-28687220D01*
X57291820Y-28773002D01*
X57239508Y-28870870D01*
X57207295Y-28977063D01*
X57196418Y-29087500D01*
X57196418Y-29662500D01*
X57207295Y-29772937D01*
X57239508Y-29879130D01*
X57291820Y-29976998D01*
X57362220Y-30062780D01*
X57448002Y-30133180D01*
X57545870Y-30185492D01*
X57548000Y-30186138D01*
X57548001Y-31808499D01*
X57484165Y-31834941D01*
X57305803Y-31954119D01*
X57154119Y-32105803D01*
X57034941Y-32284165D01*
X57000000Y-32368520D01*
X56965059Y-32284165D01*
X56845881Y-32105803D01*
X56694197Y-31954119D01*
X56515835Y-31834941D01*
X56452000Y-31808500D01*
X56452000Y-30186138D01*
X56454130Y-30185492D01*
X56551998Y-30133180D01*
X56637780Y-30062780D01*
X56708180Y-29976998D01*
X56760492Y-29879130D01*
X56792705Y-29772937D01*
X56803582Y-29662500D01*
X56803582Y-29162500D01*
X56792705Y-29052063D01*
X56760492Y-28945870D01*
X56708180Y-28848002D01*
X56637780Y-28762220D01*
X56551998Y-28691820D01*
X56454130Y-28639508D01*
X56347937Y-28607295D01*
X56237500Y-28596418D01*
X55762500Y-28596418D01*
X55652063Y-28607295D01*
X55545870Y-28639508D01*
X55448002Y-28691820D01*
X55362220Y-28762220D01*
X55291820Y-28848002D01*
X55239508Y-28945870D01*
X55207295Y-29052063D01*
X55196418Y-29162500D01*
X55196418Y-29662500D01*
X55207295Y-29772937D01*
X55239508Y-29879130D01*
X55291820Y-29976998D01*
X55362220Y-30062780D01*
X55448002Y-30133180D01*
X55545870Y-30185492D01*
X55548000Y-30186138D01*
X55548001Y-31808499D01*
X55484165Y-31834941D01*
X55305803Y-31954119D01*
X55154119Y-32105803D01*
X55034941Y-32284165D01*
X54952850Y-32482350D01*
X54911000Y-32692743D01*
X53089000Y-32692743D01*
X53047150Y-32482350D01*
X52965059Y-32284165D01*
X52845881Y-32105803D01*
X52694197Y-31954119D01*
X52515835Y-31834941D01*
X52317650Y-31752850D01*
X52107257Y-31711000D01*
X51892743Y-31711000D01*
X51682350Y-31752850D01*
X51484165Y-31834941D01*
X51305803Y-31954119D01*
X51154119Y-32105803D01*
X51153255Y-32107096D01*
X51008424Y-31890340D01*
X50809660Y-31691576D01*
X50575938Y-31535409D01*
X50316241Y-31427838D01*
X50040547Y-31373000D01*
X49759453Y-31373000D01*
X49483759Y-31427838D01*
X49224062Y-31535409D01*
X48990340Y-31691576D01*
X48791576Y-31890340D01*
X48635409Y-32124062D01*
X48527838Y-32383759D01*
X48473000Y-32659453D01*
X30427000Y-32659453D01*
X30427000Y-31200000D01*
X30424203Y-31157318D01*
X30407166Y-31027908D01*
X30385072Y-30945453D01*
X30335122Y-30824863D01*
X30292438Y-30750933D01*
X30212978Y-30647380D01*
X30152620Y-30587022D01*
X30049067Y-30507562D01*
X29975137Y-30464878D01*
X29854547Y-30414928D01*
X29772092Y-30392834D01*
X29642682Y-30375797D01*
X29600000Y-30373000D01*
X17500000Y-30373000D01*
X17457318Y-30375797D01*
X17327908Y-30392834D01*
X17245453Y-30414928D01*
X17124863Y-30464878D01*
X17050933Y-30507562D01*
X16947380Y-30587022D01*
X16887022Y-30647380D01*
X16807562Y-30750933D01*
X16764878Y-30824863D01*
X16714928Y-30945453D01*
X16692834Y-31027908D01*
X16675797Y-31157318D01*
X16673000Y-31200000D01*
X15289000Y-31200000D01*
X15289000Y-16600000D01*
X16673000Y-16600000D01*
X16673000Y-27300000D01*
X16675797Y-27342682D01*
X16692834Y-27472092D01*
X16714928Y-27554547D01*
X16764878Y-27675137D01*
X16807562Y-27749067D01*
X16887022Y-27852620D01*
X16947380Y-27912978D01*
X17050933Y-27992438D01*
X17124863Y-28035122D01*
X17245453Y-28085072D01*
X17327908Y-28107166D01*
X17457318Y-28124203D01*
X17500000Y-28127000D01*
X28000000Y-28127000D01*
X28042682Y-28124203D01*
X28172092Y-28107166D01*
X28254547Y-28085072D01*
X28375137Y-28035122D01*
X28449067Y-27992438D01*
X28552620Y-27912978D01*
X28612978Y-27852620D01*
X28692438Y-27749067D01*
X28735122Y-27675137D01*
X28785072Y-27554547D01*
X28807166Y-27472092D01*
X28824203Y-27342682D01*
X28827000Y-27300000D01*
X28827000Y-23621436D01*
X28835621Y-23555953D01*
X28852621Y-23514911D01*
X28879666Y-23479666D01*
X28914911Y-23452621D01*
X28955953Y-23435621D01*
X29021436Y-23427000D01*
X29595644Y-23427000D01*
X29600022Y-23427029D01*
X29608936Y-23427146D01*
X29591820Y-23448002D01*
X29539508Y-23545870D01*
X29507295Y-23652063D01*
X29496418Y-23762500D01*
X29496418Y-24262500D01*
X29507295Y-24372937D01*
X29539508Y-24479130D01*
X29591820Y-24576998D01*
X29662220Y-24662780D01*
X29723000Y-24712662D01*
X29723001Y-25287338D01*
X29662220Y-25337220D01*
X29591820Y-25423002D01*
X29539508Y-25520870D01*
X29507295Y-25627063D01*
X29496418Y-25737500D01*
X29496418Y-26312500D01*
X29507295Y-26422937D01*
X29539508Y-26529130D01*
X29591820Y-26626998D01*
X29662220Y-26712780D01*
X29748002Y-26783180D01*
X29845870Y-26835492D01*
X29952063Y-26867705D01*
X30062500Y-26878582D01*
X30537500Y-26878582D01*
X30647937Y-26867705D01*
X30754130Y-26835492D01*
X30851998Y-26783180D01*
X30937780Y-26712780D01*
X31008180Y-26626998D01*
X31060492Y-26529130D01*
X31092705Y-26422937D01*
X31103582Y-26312500D01*
X31103582Y-25737500D01*
X31092705Y-25627063D01*
X31060492Y-25520870D01*
X31008180Y-25423002D01*
X30937780Y-25337220D01*
X30877000Y-25287339D01*
X30877000Y-24712661D01*
X30937780Y-24662780D01*
X31008180Y-24576998D01*
X31060492Y-24479130D01*
X31092705Y-24372937D01*
X31103582Y-24262500D01*
X31103582Y-24152062D01*
X39173000Y-24152062D01*
X39173000Y-32152062D01*
X39175440Y-32176838D01*
X39182667Y-32200663D01*
X39194403Y-32222619D01*
X39210197Y-32241865D01*
X39229443Y-32257659D01*
X39251399Y-32269395D01*
X39275224Y-32276622D01*
X39300000Y-32279062D01*
X39600000Y-32279062D01*
X39624776Y-32276622D01*
X39648601Y-32269395D01*
X39670557Y-32257659D01*
X39689803Y-32241865D01*
X39705597Y-32222619D01*
X39717333Y-32200663D01*
X39724560Y-32176838D01*
X39727000Y-32152062D01*
X39727000Y-29362500D01*
X41496418Y-29362500D01*
X41496418Y-29837500D01*
X41507295Y-29947937D01*
X41539508Y-30054130D01*
X41591820Y-30151998D01*
X41662220Y-30237780D01*
X41748002Y-30308180D01*
X41845870Y-30360492D01*
X41952063Y-30392705D01*
X42062500Y-30403582D01*
X42662500Y-30403582D01*
X42772937Y-30392705D01*
X42879130Y-30360492D01*
X42976998Y-30308180D01*
X43062780Y-30237780D01*
X43133180Y-30151998D01*
X43173268Y-30077000D01*
X43638862Y-30077000D01*
X43639508Y-30079130D01*
X43691820Y-30176998D01*
X43762220Y-30262780D01*
X43848002Y-30333180D01*
X43945870Y-30385492D01*
X44052063Y-30417705D01*
X44162500Y-30428582D01*
X44637500Y-30428582D01*
X44747937Y-30417705D01*
X44854130Y-30385492D01*
X44951998Y-30333180D01*
X45037780Y-30262780D01*
X45108180Y-30176998D01*
X45160492Y-30079130D01*
X45192705Y-29972937D01*
X45203582Y-29862500D01*
X45203582Y-29362500D01*
X45192705Y-29252063D01*
X45160492Y-29145870D01*
X45108180Y-29048002D01*
X45037780Y-28962220D01*
X44951998Y-28891820D01*
X44854130Y-28839508D01*
X44747937Y-28807295D01*
X44637500Y-28796418D01*
X44162500Y-28796418D01*
X44052063Y-28807295D01*
X43945870Y-28839508D01*
X43848002Y-28891820D01*
X43762220Y-28962220D01*
X43691820Y-29048002D01*
X43651732Y-29123000D01*
X43173268Y-29123000D01*
X43133180Y-29048002D01*
X43062780Y-28962220D01*
X42976998Y-28891820D01*
X42879130Y-28839508D01*
X42772937Y-28807295D01*
X42662500Y-28796418D01*
X42062500Y-28796418D01*
X41952063Y-28807295D01*
X41845870Y-28839508D01*
X41748002Y-28891820D01*
X41662220Y-28962220D01*
X41591820Y-29048002D01*
X41539508Y-29145870D01*
X41507295Y-29252063D01*
X41496418Y-29362500D01*
X39727000Y-29362500D01*
X39727000Y-27562500D01*
X41496418Y-27562500D01*
X41496418Y-28037500D01*
X41507295Y-28147937D01*
X41539508Y-28254130D01*
X41591820Y-28351998D01*
X41662220Y-28437780D01*
X41748002Y-28508180D01*
X41845870Y-28560492D01*
X41952063Y-28592705D01*
X42062500Y-28603582D01*
X42662500Y-28603582D01*
X42772937Y-28592705D01*
X42879130Y-28560492D01*
X42976998Y-28508180D01*
X43062780Y-28437780D01*
X43133180Y-28351998D01*
X43179949Y-28264500D01*
X43645051Y-28264500D01*
X43691820Y-28351998D01*
X43762220Y-28437780D01*
X43848002Y-28508180D01*
X43945870Y-28560492D01*
X44052063Y-28592705D01*
X44162500Y-28603582D01*
X44637500Y-28603582D01*
X44747937Y-28592705D01*
X44854130Y-28560492D01*
X44951998Y-28508180D01*
X45037780Y-28437780D01*
X45108180Y-28351998D01*
X45160492Y-28254130D01*
X45182372Y-28182000D01*
X45481341Y-28182000D01*
X45496430Y-28231743D01*
X45526794Y-28288550D01*
X45567657Y-28338343D01*
X45617450Y-28379206D01*
X45674257Y-28409570D01*
X45735897Y-28428268D01*
X45800000Y-28434582D01*
X47305000Y-28434582D01*
X47369103Y-28428268D01*
X47430743Y-28409570D01*
X47487550Y-28379206D01*
X47537343Y-28338343D01*
X47573000Y-28294894D01*
X47573000Y-28473000D01*
X45400000Y-28473000D01*
X45375224Y-28475440D01*
X45351399Y-28482667D01*
X45329443Y-28494403D01*
X45310197Y-28510197D01*
X45294403Y-28529443D01*
X45282667Y-28551399D01*
X45275440Y-28575224D01*
X45273000Y-28600000D01*
X45273000Y-30500000D01*
X45275440Y-30524776D01*
X45282667Y-30548601D01*
X45294403Y-30570557D01*
X45310197Y-30589803D01*
X45329443Y-30605597D01*
X45351399Y-30617333D01*
X45375224Y-30624560D01*
X45400000Y-30627000D01*
X51200000Y-30627000D01*
X51224776Y-30624560D01*
X51248601Y-30617333D01*
X51270557Y-30605597D01*
X51289803Y-30589803D01*
X51305597Y-30570557D01*
X51317333Y-30548601D01*
X51324560Y-30524776D01*
X51327000Y-30500000D01*
X51327000Y-28600000D01*
X51324560Y-28575224D01*
X51317333Y-28551399D01*
X51305597Y-28529443D01*
X51289803Y-28510197D01*
X51270557Y-28494403D01*
X51248601Y-28482667D01*
X51224776Y-28475440D01*
X51200000Y-28473000D01*
X50127000Y-28473000D01*
X50127000Y-27727000D01*
X50700000Y-27727000D01*
X50724776Y-27724560D01*
X50748601Y-27717333D01*
X50770557Y-27705597D01*
X50789803Y-27689803D01*
X50805597Y-27670557D01*
X50817333Y-27648601D01*
X50824560Y-27624776D01*
X50827000Y-27600000D01*
X50827000Y-27164582D01*
X52300000Y-27164582D01*
X52364103Y-27158268D01*
X52425743Y-27139570D01*
X52482550Y-27109206D01*
X52532343Y-27068343D01*
X52573206Y-27018550D01*
X52603570Y-26961743D01*
X52622268Y-26900103D01*
X52627006Y-26852000D01*
X52665288Y-26852000D01*
X52700311Y-26887023D01*
X52803004Y-26955640D01*
X52917111Y-27002905D01*
X53038246Y-27027000D01*
X53161754Y-27027000D01*
X53282889Y-27002905D01*
X53396996Y-26955640D01*
X53499689Y-26887023D01*
X53587023Y-26799689D01*
X53655640Y-26696996D01*
X53702905Y-26582889D01*
X53727000Y-26461754D01*
X53727000Y-26338246D01*
X53712354Y-26264614D01*
X53739508Y-26354130D01*
X53791820Y-26451998D01*
X53862220Y-26537780D01*
X53948002Y-26608180D01*
X54045870Y-26660492D01*
X54152063Y-26692705D01*
X54262500Y-26703582D01*
X54737500Y-26703582D01*
X54847937Y-26692705D01*
X54954130Y-26660492D01*
X55051998Y-26608180D01*
X55137780Y-26537780D01*
X55208180Y-26451998D01*
X55260492Y-26354130D01*
X55292705Y-26247937D01*
X55303582Y-26137500D01*
X55303582Y-25585628D01*
X55312977Y-25599689D01*
X55400311Y-25687023D01*
X55503004Y-25755640D01*
X55617111Y-25802905D01*
X55738246Y-25827000D01*
X55861754Y-25827000D01*
X55982889Y-25802905D01*
X56096996Y-25755640D01*
X56199689Y-25687023D01*
X56287023Y-25599689D01*
X56355640Y-25496996D01*
X56402905Y-25382889D01*
X56427000Y-25261754D01*
X56427000Y-25138246D01*
X56402905Y-25017111D01*
X56355640Y-24903004D01*
X56302000Y-24822726D01*
X56302000Y-24686138D01*
X56304130Y-24685492D01*
X56401998Y-24633180D01*
X56487780Y-24562780D01*
X56558180Y-24476998D01*
X56610492Y-24379130D01*
X56642705Y-24272937D01*
X56653582Y-24162500D01*
X56653582Y-23662500D01*
X56642705Y-23552063D01*
X56610492Y-23445870D01*
X56609654Y-23444303D01*
X74796341Y-23524775D01*
X74839154Y-23522151D01*
X74968994Y-23505593D01*
X75051763Y-23483742D01*
X75172857Y-23434053D01*
X75247118Y-23391469D01*
X75351166Y-23312055D01*
X75411828Y-23251662D01*
X75491702Y-23147966D01*
X75534615Y-23073891D01*
X75584838Y-22953018D01*
X75607054Y-22870351D01*
X75624187Y-22740586D01*
X75627000Y-22697783D01*
X75627000Y-19900000D01*
X75624203Y-19857318D01*
X75607166Y-19727908D01*
X75585072Y-19645453D01*
X75535122Y-19524863D01*
X75492438Y-19450933D01*
X75412978Y-19347380D01*
X75352620Y-19287022D01*
X75249067Y-19207562D01*
X75175137Y-19164878D01*
X75054547Y-19114928D01*
X74972092Y-19092834D01*
X74842682Y-19075797D01*
X74800000Y-19073000D01*
X66217433Y-19073000D01*
X66152270Y-19064464D01*
X66111391Y-19047625D01*
X66076225Y-19020823D01*
X66049151Y-18985871D01*
X66031992Y-18945120D01*
X66022947Y-18880028D01*
X66005866Y-16693539D01*
X66002764Y-16651090D01*
X65984889Y-16522445D01*
X65962372Y-16440545D01*
X65911967Y-16320844D01*
X65869113Y-16247503D01*
X65789578Y-16144823D01*
X65729280Y-16084994D01*
X65625982Y-16006264D01*
X65552311Y-15963986D01*
X65432220Y-15914517D01*
X65350143Y-15892639D01*
X65221362Y-15875770D01*
X65178891Y-15873000D01*
X56617556Y-15873000D01*
X56566887Y-15876949D01*
X56413806Y-15900959D01*
X56377129Y-15908891D01*
X56317331Y-15931987D01*
X56178952Y-16001713D01*
X56146469Y-16020490D01*
X56096613Y-16060784D01*
X56004515Y-16151511D01*
X55962978Y-16097380D01*
X55902620Y-16037022D01*
X55799067Y-15957562D01*
X55725137Y-15914878D01*
X55604547Y-15864928D01*
X55522092Y-15842834D01*
X55392682Y-15825797D01*
X55350000Y-15823000D01*
X49600000Y-15823000D01*
X49557318Y-15825797D01*
X49427908Y-15842834D01*
X49345453Y-15864928D01*
X49224863Y-15914878D01*
X49150933Y-15957562D01*
X49047380Y-16037022D01*
X48987022Y-16097380D01*
X48907562Y-16200933D01*
X48864878Y-16274863D01*
X48814928Y-16395453D01*
X48792834Y-16477908D01*
X48775797Y-16607318D01*
X48773000Y-16650000D01*
X48773000Y-22700000D01*
X48775797Y-22742682D01*
X48792834Y-22872092D01*
X48814928Y-22954547D01*
X48864878Y-23075137D01*
X48907562Y-23149067D01*
X48987022Y-23252620D01*
X49047380Y-23312978D01*
X49150933Y-23392438D01*
X49224863Y-23435122D01*
X49345453Y-23485072D01*
X49427908Y-23507166D01*
X49557318Y-23524203D01*
X49600000Y-23527000D01*
X50028564Y-23527000D01*
X50094047Y-23535621D01*
X50135089Y-23552621D01*
X50170334Y-23579666D01*
X50197379Y-23614911D01*
X50214379Y-23655953D01*
X50223000Y-23721436D01*
X50223000Y-24000000D01*
X50225797Y-24042682D01*
X50242834Y-24172092D01*
X50264928Y-24254547D01*
X50314878Y-24375137D01*
X50357562Y-24449067D01*
X50437022Y-24552620D01*
X50497380Y-24612978D01*
X50502742Y-24617093D01*
X50491430Y-24638257D01*
X50472732Y-24699897D01*
X50466418Y-24764000D01*
X50466418Y-25566000D01*
X50472732Y-25630103D01*
X50491430Y-25691743D01*
X50521794Y-25748550D01*
X50562657Y-25798343D01*
X50564676Y-25800000D01*
X50562657Y-25801657D01*
X50521794Y-25851450D01*
X50491430Y-25908257D01*
X50472732Y-25969897D01*
X50466418Y-26034000D01*
X50466418Y-26778111D01*
X50451399Y-26782667D01*
X50429443Y-26794403D01*
X50410197Y-26810197D01*
X50394403Y-26829443D01*
X50382667Y-26851399D01*
X50375440Y-26875224D01*
X50373000Y-26900000D01*
X50373000Y-27273000D01*
X50127000Y-27273000D01*
X50127000Y-27200000D01*
X50124560Y-27175224D01*
X50117333Y-27151399D01*
X50105597Y-27129443D01*
X50089803Y-27110197D01*
X50070557Y-27094403D01*
X50048601Y-27082667D01*
X50024776Y-27075440D01*
X50000000Y-27073000D01*
X49800000Y-27073000D01*
X49775224Y-27075440D01*
X49751399Y-27082667D01*
X49729443Y-27094403D01*
X49710197Y-27110197D01*
X49694403Y-27129443D01*
X49682667Y-27151399D01*
X49675440Y-27175224D01*
X49673000Y-27200000D01*
X49673000Y-28800000D01*
X49675440Y-28824776D01*
X49682667Y-28848601D01*
X49694403Y-28870557D01*
X49710197Y-28889803D01*
X49729443Y-28905597D01*
X49751399Y-28917333D01*
X49775224Y-28924560D01*
X49800000Y-28927000D01*
X50873000Y-28927000D01*
X50873000Y-30173000D01*
X45727000Y-30173000D01*
X45727000Y-28927000D01*
X47900000Y-28927000D01*
X47924776Y-28924560D01*
X47948601Y-28917333D01*
X47970557Y-28905597D01*
X47989803Y-28889803D01*
X48005597Y-28870557D01*
X48017333Y-28848601D01*
X48024560Y-28824776D01*
X48027000Y-28800000D01*
X48027000Y-27800000D01*
X48024560Y-27775224D01*
X48017333Y-27751399D01*
X48005597Y-27729443D01*
X47989803Y-27710197D01*
X47970557Y-27694403D01*
X47948601Y-27682667D01*
X47924776Y-27675440D01*
X47900000Y-27673000D01*
X47700000Y-27673000D01*
X47675224Y-27675440D01*
X47651399Y-27682667D01*
X47633582Y-27692191D01*
X47633582Y-27304000D01*
X47627268Y-27239897D01*
X47608570Y-27178257D01*
X47578206Y-27121450D01*
X47537343Y-27071657D01*
X47535324Y-27070000D01*
X47537343Y-27068343D01*
X47578206Y-27018550D01*
X47608570Y-26961743D01*
X47627268Y-26900103D01*
X47633582Y-26836000D01*
X47633582Y-26034000D01*
X47627268Y-25969897D01*
X47608570Y-25908257D01*
X47578206Y-25851450D01*
X47537343Y-25801657D01*
X47535324Y-25800000D01*
X47537343Y-25798343D01*
X47578206Y-25748550D01*
X47608570Y-25691743D01*
X47627268Y-25630103D01*
X47633582Y-25566000D01*
X47633582Y-24764000D01*
X47627268Y-24699897D01*
X47608570Y-24638257D01*
X47578206Y-24581450D01*
X47537343Y-24531657D01*
X47487550Y-24490794D01*
X47430743Y-24460430D01*
X47369103Y-24441732D01*
X47305000Y-24435418D01*
X45800000Y-24435418D01*
X45735897Y-24441732D01*
X45674257Y-24460430D01*
X45617450Y-24490794D01*
X45567657Y-24531657D01*
X45526794Y-24581450D01*
X45496430Y-24638257D01*
X45477732Y-24699897D01*
X45471418Y-24764000D01*
X45471418Y-24823000D01*
X44759712Y-24823000D01*
X44749689Y-24812977D01*
X44646996Y-24744360D01*
X44532889Y-24697095D01*
X44411754Y-24673000D01*
X44288246Y-24673000D01*
X44167111Y-24697095D01*
X44053004Y-24744360D01*
X43950311Y-24812977D01*
X43862977Y-24900311D01*
X43794360Y-25003004D01*
X43747095Y-25117111D01*
X43723000Y-25238246D01*
X43723000Y-25361754D01*
X43747095Y-25482889D01*
X43794360Y-25596996D01*
X43862977Y-25699689D01*
X43950311Y-25787023D01*
X44053004Y-25855640D01*
X44167111Y-25902905D01*
X44288246Y-25927000D01*
X44411754Y-25927000D01*
X44532889Y-25902905D01*
X44646996Y-25855640D01*
X44749689Y-25787023D01*
X44759712Y-25777000D01*
X45550142Y-25777000D01*
X45567657Y-25798343D01*
X45569676Y-25800000D01*
X45567657Y-25801657D01*
X45526794Y-25851450D01*
X45496430Y-25908257D01*
X45477732Y-25969897D01*
X45471418Y-26034000D01*
X45471418Y-26836000D01*
X45477732Y-26900103D01*
X45496430Y-26961743D01*
X45526794Y-27018550D01*
X45567657Y-27068343D01*
X45569676Y-27070000D01*
X45567657Y-27071657D01*
X45526794Y-27121450D01*
X45496430Y-27178257D01*
X45481341Y-27228000D01*
X45110852Y-27228000D01*
X45108180Y-27223002D01*
X45037780Y-27137220D01*
X44951998Y-27066820D01*
X44854130Y-27014508D01*
X44747937Y-26982295D01*
X44637500Y-26971418D01*
X44162500Y-26971418D01*
X44052063Y-26982295D01*
X43945870Y-27014508D01*
X43848002Y-27066820D01*
X43762220Y-27137220D01*
X43691820Y-27223002D01*
X43645051Y-27310500D01*
X43166586Y-27310500D01*
X43133180Y-27248002D01*
X43062780Y-27162220D01*
X42976998Y-27091820D01*
X42879130Y-27039508D01*
X42772937Y-27007295D01*
X42662500Y-26996418D01*
X42062500Y-26996418D01*
X41952063Y-27007295D01*
X41845870Y-27039508D01*
X41748002Y-27091820D01*
X41662220Y-27162220D01*
X41591820Y-27248002D01*
X41539508Y-27345870D01*
X41507295Y-27452063D01*
X41496418Y-27562500D01*
X39727000Y-27562500D01*
X39727000Y-24152062D01*
X39724560Y-24127286D01*
X39717333Y-24103461D01*
X39705597Y-24081505D01*
X39689803Y-24062259D01*
X39670557Y-24046465D01*
X39648601Y-24034729D01*
X39624776Y-24027502D01*
X39600000Y-24025062D01*
X39300000Y-24025062D01*
X39275224Y-24027502D01*
X39251399Y-24034729D01*
X39229443Y-24046465D01*
X39210197Y-24062259D01*
X39194403Y-24081505D01*
X39182667Y-24103461D01*
X39175440Y-24127286D01*
X39173000Y-24152062D01*
X31103582Y-24152062D01*
X31103582Y-23762500D01*
X31092705Y-23652063D01*
X31060492Y-23545870D01*
X31008180Y-23448002D01*
X31006152Y-23445531D01*
X37192409Y-23526929D01*
X37194573Y-23526950D01*
X37201151Y-23526993D01*
X37203289Y-23527000D01*
X47200000Y-23527000D01*
X47242682Y-23524203D01*
X47372092Y-23507166D01*
X47454547Y-23485072D01*
X47575137Y-23435122D01*
X47649067Y-23392438D01*
X47752620Y-23312978D01*
X47812978Y-23252620D01*
X47892438Y-23149067D01*
X47935122Y-23075137D01*
X47985072Y-22954547D01*
X48007166Y-22872092D01*
X48024203Y-22742682D01*
X48027000Y-22700000D01*
X48027000Y-16600000D01*
X48024203Y-16557318D01*
X48007166Y-16427908D01*
X47985072Y-16345453D01*
X47935122Y-16224863D01*
X47892438Y-16150933D01*
X47812978Y-16047380D01*
X47752620Y-15987022D01*
X47649067Y-15907562D01*
X47575137Y-15864878D01*
X47454547Y-15814928D01*
X47372092Y-15792834D01*
X47242682Y-15775797D01*
X47200000Y-15773000D01*
X17500000Y-15773000D01*
X17457318Y-15775797D01*
X17327908Y-15792834D01*
X17245453Y-15814928D01*
X17124863Y-15864878D01*
X17050933Y-15907562D01*
X16947380Y-15987022D01*
X16887022Y-16047380D01*
X16807562Y-16150933D01*
X16764878Y-16224863D01*
X16714928Y-16345453D01*
X16692834Y-16427908D01*
X16675797Y-16557318D01*
X16673000Y-16600000D01*
X15289000Y-16600000D01*
X15289000Y-15539000D01*
X75697670Y-15539000D01*
X75721586Y-15539390D01*
G37*
X75721586Y-15539390D02*
X76257945Y-15636727D01*
X76760809Y-15834667D01*
X77215648Y-16126511D01*
X77605142Y-16501144D01*
X77914448Y-16944291D01*
X78134038Y-17444196D01*
X78213700Y-17747594D01*
X78233008Y-17931287D01*
X78238270Y-17956922D01*
X78243183Y-17982675D01*
X78244349Y-17986537D01*
X78302061Y-18172975D01*
X78312205Y-18197106D01*
X78322024Y-18221408D01*
X78323918Y-18224971D01*
X78416743Y-18396648D01*
X78431390Y-18418362D01*
X78445734Y-18440282D01*
X78448284Y-18443409D01*
X78572688Y-18593787D01*
X78591245Y-18612215D01*
X78609600Y-18630958D01*
X78612710Y-18633530D01*
X78763952Y-18756880D01*
X78785731Y-18771350D01*
X78807381Y-18786174D01*
X78810931Y-18788093D01*
X78983253Y-18879718D01*
X79007477Y-18889702D01*
X79031545Y-18900018D01*
X79035394Y-18901209D01*
X79035401Y-18901212D01*
X79035408Y-18901213D01*
X79222236Y-18957620D01*
X79247919Y-18962706D01*
X79273551Y-18968154D01*
X79277564Y-18968576D01*
X79471798Y-18987621D01*
X79637835Y-19003901D01*
X79770411Y-19043928D01*
X79892696Y-19108948D01*
X80000017Y-19196477D01*
X80088296Y-19303188D01*
X80154166Y-19425013D01*
X80195120Y-19557313D01*
X80211000Y-19708396D01*
X80211001Y-27985797D01*
X80211000Y-27985807D01*
X80211001Y-38485853D01*
X80196099Y-38637835D01*
X80156072Y-38770411D01*
X80091053Y-38892694D01*
X80003522Y-39000018D01*
X79896812Y-39088296D01*
X79774987Y-39154166D01*
X79642687Y-39195120D01*
X79479238Y-39212300D01*
X79466825Y-39212213D01*
X79462809Y-39212607D01*
X79268712Y-39233008D01*
X79243070Y-39238272D01*
X79217325Y-39243183D01*
X79213463Y-39244349D01*
X79027025Y-39302061D01*
X79002894Y-39312205D01*
X78978592Y-39322024D01*
X78975029Y-39323918D01*
X78803352Y-39416743D01*
X78781615Y-39431405D01*
X78759718Y-39445734D01*
X78756591Y-39448284D01*
X78606213Y-39572688D01*
X78587768Y-39591262D01*
X78569042Y-39609600D01*
X78566470Y-39612709D01*
X78443120Y-39763952D01*
X78428635Y-39785754D01*
X78413826Y-39807381D01*
X78411907Y-39810931D01*
X78320282Y-39983253D01*
X78310298Y-40007477D01*
X78299982Y-40031545D01*
X78298792Y-40035390D01*
X78298788Y-40035400D01*
X78298786Y-40035410D01*
X78242380Y-40222236D01*
X78237291Y-40247934D01*
X78231846Y-40273552D01*
X78231424Y-40277565D01*
X78212379Y-40471798D01*
X78212379Y-40471815D01*
X78211001Y-40485806D01*
X78211000Y-52785863D01*
X78158009Y-53326304D01*
X78005164Y-53832552D01*
X77756896Y-54299476D01*
X77422661Y-54709288D01*
X77015198Y-55046371D01*
X76550015Y-55297894D01*
X76044846Y-55454271D01*
X75505292Y-55510980D01*
X75499567Y-55511000D01*
X47185806Y-55511000D01*
X47173049Y-55512256D01*
X47166825Y-55512213D01*
X47162809Y-55512607D01*
X46968712Y-55533008D01*
X46943070Y-55538272D01*
X46917325Y-55543183D01*
X46913463Y-55544349D01*
X46727025Y-55602061D01*
X46702894Y-55612205D01*
X46678592Y-55622024D01*
X46675029Y-55623918D01*
X46503352Y-55716743D01*
X46481615Y-55731405D01*
X46459718Y-55745734D01*
X46456591Y-55748284D01*
X46306213Y-55872688D01*
X46287768Y-55891262D01*
X46269042Y-55909600D01*
X46266470Y-55912709D01*
X46143120Y-56063952D01*
X46128635Y-56085754D01*
X46113826Y-56107381D01*
X46111907Y-56110931D01*
X46020282Y-56283253D01*
X46010298Y-56307477D01*
X45999982Y-56331545D01*
X45998792Y-56335390D01*
X45998788Y-56335400D01*
X45998786Y-56335410D01*
X45942380Y-56522236D01*
X45937291Y-56547934D01*
X45931846Y-56573552D01*
X45931424Y-56577565D01*
X45912379Y-56771798D01*
X45912379Y-56771799D01*
X45896099Y-56937835D01*
X45856072Y-57070411D01*
X45791053Y-57192694D01*
X45703522Y-57300018D01*
X45596812Y-57388296D01*
X45474987Y-57454166D01*
X45342687Y-57495120D01*
X45191603Y-57511000D01*
X36714137Y-57511000D01*
X36562165Y-57496099D01*
X36429589Y-57456072D01*
X36307306Y-57391053D01*
X36199982Y-57303522D01*
X36111704Y-57196812D01*
X36045834Y-57074987D01*
X36004880Y-56942687D01*
X35987700Y-56779238D01*
X35987787Y-56766825D01*
X35987393Y-56762809D01*
X35966992Y-56568712D01*
X35961728Y-56543070D01*
X35956817Y-56517325D01*
X35955651Y-56513463D01*
X35897939Y-56327025D01*
X35887795Y-56302894D01*
X35877976Y-56278592D01*
X35876082Y-56275029D01*
X35783257Y-56103352D01*
X35768595Y-56081615D01*
X35754266Y-56059718D01*
X35751716Y-56056591D01*
X35627312Y-55906213D01*
X35608738Y-55887768D01*
X35590400Y-55869042D01*
X35587291Y-55866470D01*
X35436048Y-55743120D01*
X35414246Y-55728635D01*
X35392619Y-55713826D01*
X35389069Y-55711907D01*
X35216747Y-55620282D01*
X35192523Y-55610298D01*
X35168455Y-55599982D01*
X35164610Y-55598792D01*
X35164600Y-55598788D01*
X35164590Y-55598786D01*
X34977764Y-55542380D01*
X34952066Y-55537291D01*
X34926448Y-55531846D01*
X34922435Y-55531424D01*
X34728202Y-55512379D01*
X34728195Y-55512379D01*
X34714194Y-55511000D01*
X18014137Y-55511000D01*
X17473696Y-55458009D01*
X16967448Y-55305164D01*
X16500524Y-55056896D01*
X16090712Y-54722661D01*
X15753629Y-54315198D01*
X15502106Y-53850015D01*
X15345729Y-53344846D01*
X15289020Y-52805292D01*
X15289000Y-52799567D01*
X15289000Y-31200000D01*
X16673000Y-31200000D01*
X16673000Y-47650000D01*
X16675797Y-47692682D01*
X16692834Y-47822092D01*
X16714928Y-47904547D01*
X16764878Y-48025137D01*
X16807562Y-48099067D01*
X16887022Y-48202620D01*
X16947380Y-48262978D01*
X17050933Y-48342438D01*
X17124863Y-48385122D01*
X17245453Y-48435072D01*
X17327908Y-48457166D01*
X17457318Y-48474203D01*
X17500000Y-48477000D01*
X29600000Y-48477000D01*
X29642682Y-48474203D01*
X29772092Y-48457166D01*
X29854547Y-48435072D01*
X29975137Y-48385122D01*
X30049067Y-48342438D01*
X30152620Y-48262978D01*
X30200000Y-48215598D01*
X30247380Y-48262978D01*
X30350933Y-48342438D01*
X30424863Y-48385122D01*
X30545453Y-48435072D01*
X30627908Y-48457166D01*
X30757318Y-48474203D01*
X30800000Y-48477000D01*
X35500000Y-48477000D01*
X35542682Y-48474203D01*
X35672092Y-48457166D01*
X35754547Y-48435072D01*
X35875137Y-48385122D01*
X35949067Y-48342438D01*
X36052620Y-48262978D01*
X36100000Y-48215598D01*
X36147380Y-48262978D01*
X36250933Y-48342438D01*
X36324863Y-48385122D01*
X36445453Y-48435072D01*
X36527908Y-48457166D01*
X36657318Y-48474203D01*
X36700000Y-48477000D01*
X40378564Y-48477000D01*
X40444047Y-48485621D01*
X40485089Y-48502621D01*
X40520334Y-48529666D01*
X40547379Y-48564911D01*
X40564379Y-48605953D01*
X40573000Y-48671436D01*
X40573000Y-54600000D01*
X40575797Y-54642682D01*
X40592834Y-54772092D01*
X40614928Y-54854547D01*
X40664878Y-54975137D01*
X40707562Y-55049067D01*
X40787022Y-55152620D01*
X40847380Y-55212978D01*
X40950933Y-55292438D01*
X41024863Y-55335122D01*
X41145453Y-55385072D01*
X41227908Y-55407166D01*
X41357318Y-55424203D01*
X41400000Y-55427000D01*
X45700000Y-55427000D01*
X45742682Y-55424203D01*
X45872092Y-55407166D01*
X45954547Y-55385072D01*
X46075137Y-55335122D01*
X46149067Y-55292438D01*
X46200000Y-55253355D01*
X46250933Y-55292438D01*
X46324863Y-55335122D01*
X46445453Y-55385072D01*
X46527908Y-55407166D01*
X46657318Y-55424203D01*
X46700000Y-55427000D01*
X50300000Y-55427000D01*
X50342682Y-55424203D01*
X50472092Y-55407166D01*
X50554547Y-55385072D01*
X50675137Y-55335122D01*
X50749067Y-55292438D01*
X50800000Y-55253355D01*
X50850933Y-55292438D01*
X50924863Y-55335122D01*
X51045453Y-55385072D01*
X51127908Y-55407166D01*
X51257318Y-55424203D01*
X51300000Y-55427000D01*
X60700000Y-55427000D01*
X60742682Y-55424203D01*
X60872092Y-55407166D01*
X60954547Y-55385072D01*
X61075137Y-55335122D01*
X61149067Y-55292438D01*
X61252620Y-55212978D01*
X61312978Y-55152620D01*
X61392438Y-55049067D01*
X61435122Y-54975137D01*
X61485072Y-54854547D01*
X61507166Y-54772092D01*
X61524203Y-54642682D01*
X61527000Y-54600000D01*
X61527000Y-53424073D01*
X61550933Y-53442438D01*
X61624863Y-53485122D01*
X61745453Y-53535072D01*
X61827908Y-53557166D01*
X61957318Y-53574203D01*
X62000000Y-53577000D01*
X67250000Y-53577000D01*
X67292682Y-53574203D01*
X67422092Y-53557166D01*
X67504547Y-53535072D01*
X67625137Y-53485122D01*
X67699067Y-53442438D01*
X67802620Y-53362978D01*
X67862978Y-53302620D01*
X67942438Y-53199067D01*
X67985122Y-53125137D01*
X68035072Y-53004547D01*
X68057166Y-52922092D01*
X68074203Y-52792682D01*
X68077000Y-52750000D01*
X68077000Y-44827000D01*
X69130431Y-44827000D01*
X69127732Y-44835897D01*
X69121418Y-44900000D01*
X69121418Y-45600000D01*
X69127732Y-45664103D01*
X69146430Y-45725743D01*
X69159396Y-45750000D01*
X69146430Y-45774257D01*
X69127732Y-45835897D01*
X69121418Y-45900000D01*
X69121418Y-46600000D01*
X69127732Y-46664103D01*
X69146205Y-46725000D01*
X69127732Y-46785897D01*
X69121418Y-46850000D01*
X69121418Y-47650000D01*
X69127732Y-47714103D01*
X69146430Y-47775743D01*
X69176794Y-47832550D01*
X69217657Y-47882343D01*
X69267450Y-47923206D01*
X69324257Y-47953570D01*
X69385897Y-47972268D01*
X69450000Y-47978582D01*
X73450000Y-47978582D01*
X73514103Y-47972268D01*
X73575743Y-47953570D01*
X73632550Y-47923206D01*
X73682343Y-47882343D01*
X73723206Y-47832550D01*
X73753570Y-47775743D01*
X73772268Y-47714103D01*
X73778582Y-47650000D01*
X73778582Y-46850000D01*
X73772268Y-46785897D01*
X73753795Y-46725000D01*
X73760772Y-46702000D01*
X75996418Y-46702000D01*
X75996418Y-47087500D01*
X76007295Y-47197937D01*
X76039508Y-47304130D01*
X76091820Y-47401998D01*
X76162220Y-47487780D01*
X76248002Y-47558180D01*
X76345870Y-47610492D01*
X76452063Y-47642705D01*
X76562500Y-47653582D01*
X77037500Y-47653582D01*
X77147937Y-47642705D01*
X77254130Y-47610492D01*
X77351998Y-47558180D01*
X77437780Y-47487780D01*
X77508180Y-47401998D01*
X77560492Y-47304130D01*
X77592705Y-47197937D01*
X77603582Y-47087500D01*
X77603582Y-46587500D01*
X77592705Y-46477063D01*
X77560492Y-46370870D01*
X77508180Y-46273002D01*
X77437780Y-46187220D01*
X77351998Y-46116820D01*
X77254130Y-46064508D01*
X77147937Y-46032295D01*
X77037500Y-46021418D01*
X76623141Y-46021418D01*
X76547823Y-45946100D01*
X76533659Y-45928841D01*
X76464833Y-45872357D01*
X76386310Y-45830386D01*
X76301107Y-45804540D01*
X76234705Y-45798000D01*
X76212500Y-45795813D01*
X76190295Y-45798000D01*
X73760772Y-45798000D01*
X73753570Y-45774257D01*
X73740604Y-45750000D01*
X73753570Y-45725743D01*
X73760772Y-45702000D01*
X76390295Y-45702000D01*
X76412500Y-45704187D01*
X76434705Y-45702000D01*
X76501107Y-45695460D01*
X76586310Y-45669614D01*
X76664833Y-45627643D01*
X76733659Y-45571159D01*
X76747823Y-45553900D01*
X77023142Y-45278582D01*
X77037500Y-45278582D01*
X77147937Y-45267705D01*
X77254130Y-45235492D01*
X77351998Y-45183180D01*
X77437780Y-45112780D01*
X77508180Y-45026998D01*
X77560492Y-44929130D01*
X77592705Y-44822937D01*
X77603582Y-44712500D01*
X77603582Y-44212500D01*
X77592705Y-44102063D01*
X77560492Y-43995870D01*
X77508180Y-43898002D01*
X77437780Y-43812220D01*
X77351998Y-43741820D01*
X77254130Y-43689508D01*
X77147937Y-43657295D01*
X77037500Y-43646418D01*
X76562500Y-43646418D01*
X76452063Y-43657295D01*
X76345870Y-43689508D01*
X76248002Y-43741820D01*
X76162220Y-43812220D01*
X76091820Y-43898002D01*
X76039508Y-43995870D01*
X76007295Y-44102063D01*
X75996418Y-44212500D01*
X75996418Y-44712500D01*
X76004839Y-44798000D01*
X73760772Y-44798000D01*
X73753795Y-44775000D01*
X73772268Y-44714103D01*
X73778582Y-44650000D01*
X73778582Y-43850000D01*
X73772268Y-43785897D01*
X73753570Y-43724257D01*
X73723206Y-43667450D01*
X73682343Y-43617657D01*
X73632550Y-43576794D01*
X73575743Y-43546430D01*
X73514103Y-43527732D01*
X73450000Y-43521418D01*
X69450000Y-43521418D01*
X69385897Y-43527732D01*
X69324257Y-43546430D01*
X69267450Y-43576794D01*
X69217657Y-43617657D01*
X69176794Y-43667450D01*
X69173827Y-43673000D01*
X68077000Y-43673000D01*
X68077000Y-40021436D01*
X68085621Y-39955953D01*
X68102621Y-39914911D01*
X68129666Y-39879666D01*
X68164911Y-39852621D01*
X68205953Y-39835621D01*
X68271436Y-39827000D01*
X75000000Y-39827000D01*
X75042682Y-39824203D01*
X75172092Y-39807166D01*
X75254547Y-39785072D01*
X75375137Y-39735122D01*
X75449067Y-39692438D01*
X75552620Y-39612978D01*
X75612978Y-39552620D01*
X75692438Y-39449067D01*
X75735122Y-39375137D01*
X75785072Y-39254547D01*
X75807166Y-39172092D01*
X75824203Y-39042682D01*
X75827000Y-39000000D01*
X75827000Y-35750000D01*
X75824203Y-35707318D01*
X75807166Y-35577908D01*
X75785072Y-35495453D01*
X75735122Y-35374863D01*
X75692438Y-35300933D01*
X75612978Y-35197380D01*
X75552620Y-35137022D01*
X75449067Y-35057562D01*
X75375137Y-35014878D01*
X75254547Y-34964928D01*
X75172092Y-34942834D01*
X75042682Y-34925797D01*
X75000000Y-34923000D01*
X62000000Y-34923000D01*
X61957318Y-34925797D01*
X61827908Y-34942834D01*
X61745453Y-34964928D01*
X61624863Y-35014878D01*
X61550933Y-35057562D01*
X61447380Y-35137022D01*
X61387022Y-35197380D01*
X61307562Y-35300933D01*
X61264878Y-35374863D01*
X61214928Y-35495453D01*
X61192834Y-35577908D01*
X61175797Y-35707318D01*
X61173000Y-35750000D01*
X61173000Y-40125927D01*
X61149067Y-40107562D01*
X61075137Y-40064878D01*
X60954547Y-40014928D01*
X60872092Y-39992834D01*
X60742682Y-39975797D01*
X60700000Y-39973000D01*
X56592948Y-39973000D01*
X56542252Y-39976954D01*
X56389095Y-40000989D01*
X56352373Y-40008936D01*
X56292580Y-40032045D01*
X56154147Y-40101838D01*
X56121621Y-40120655D01*
X56071781Y-40160969D01*
X55961382Y-40269812D01*
X55936186Y-40297683D01*
X55901091Y-40351326D01*
X55829338Y-40488753D01*
X55813889Y-40523006D01*
X55796912Y-40584821D01*
X55770705Y-40737621D01*
X55766032Y-40788254D01*
X55708010Y-44873000D01*
X55576305Y-44873000D01*
X55560492Y-44820870D01*
X55508180Y-44723002D01*
X55437780Y-44637220D01*
X55351998Y-44566820D01*
X55254130Y-44514508D01*
X55147937Y-44482295D01*
X55037500Y-44471418D01*
X54562500Y-44471418D01*
X54452063Y-44482295D01*
X54345870Y-44514508D01*
X54248002Y-44566820D01*
X54162220Y-44637220D01*
X54091820Y-44723002D01*
X54039508Y-44820870D01*
X54007295Y-44927063D01*
X53996418Y-45037500D01*
X53996418Y-45612500D01*
X54007295Y-45722937D01*
X54039508Y-45829130D01*
X54091820Y-45926998D01*
X54162220Y-46012780D01*
X54248002Y-46083180D01*
X54345870Y-46135492D01*
X54452063Y-46167705D01*
X54562500Y-46178582D01*
X55037500Y-46178582D01*
X55147937Y-46167705D01*
X55254130Y-46135492D01*
X55351998Y-46083180D01*
X55437780Y-46012780D01*
X55508180Y-45926998D01*
X55560492Y-45829130D01*
X55576305Y-45777000D01*
X55695169Y-45777000D01*
X55655300Y-48583773D01*
X55642292Y-48660231D01*
X55618424Y-48706398D01*
X55581660Y-48743135D01*
X55535475Y-48766969D01*
X55459010Y-48779920D01*
X53036015Y-48812553D01*
X53078053Y-48778053D01*
X53131353Y-48713107D01*
X53170958Y-48639011D01*
X53195347Y-48558612D01*
X53203582Y-48475000D01*
X53203582Y-48275000D01*
X53195347Y-48191388D01*
X53170958Y-48110989D01*
X53131353Y-48036893D01*
X53078053Y-47971947D01*
X53013107Y-47918647D01*
X52939011Y-47879042D01*
X52858612Y-47854653D01*
X52775000Y-47846418D01*
X51525000Y-47846418D01*
X51441388Y-47854653D01*
X51360989Y-47879042D01*
X51286893Y-47918647D01*
X51221947Y-47971947D01*
X51168647Y-48036893D01*
X51168582Y-48037015D01*
X51168582Y-47412985D01*
X51168647Y-47413107D01*
X51221947Y-47478053D01*
X51286893Y-47531353D01*
X51360989Y-47570958D01*
X51441388Y-47595347D01*
X51525000Y-47603582D01*
X52775000Y-47603582D01*
X52858612Y-47595347D01*
X52939011Y-47570958D01*
X53013107Y-47531353D01*
X53018411Y-47527000D01*
X54023695Y-47527000D01*
X54039508Y-47579130D01*
X54091820Y-47676998D01*
X54162220Y-47762780D01*
X54248002Y-47833180D01*
X54345870Y-47885492D01*
X54452063Y-47917705D01*
X54562500Y-47928582D01*
X55037500Y-47928582D01*
X55147937Y-47917705D01*
X55254130Y-47885492D01*
X55351998Y-47833180D01*
X55437780Y-47762780D01*
X55508180Y-47676998D01*
X55560492Y-47579130D01*
X55592705Y-47472937D01*
X55603582Y-47362500D01*
X55603582Y-46787500D01*
X55592705Y-46677063D01*
X55560492Y-46570870D01*
X55508180Y-46473002D01*
X55437780Y-46387220D01*
X55351998Y-46316820D01*
X55254130Y-46264508D01*
X55147937Y-46232295D01*
X55037500Y-46221418D01*
X54562500Y-46221418D01*
X54452063Y-46232295D01*
X54345870Y-46264508D01*
X54248002Y-46316820D01*
X54162220Y-46387220D01*
X54091820Y-46473002D01*
X54039508Y-46570870D01*
X54023695Y-46623000D01*
X53190982Y-46623000D01*
X53195347Y-46608612D01*
X53203582Y-46525000D01*
X53203582Y-46325000D01*
X53195347Y-46241388D01*
X53170958Y-46160989D01*
X53131353Y-46086893D01*
X53078053Y-46021947D01*
X53013107Y-45968647D01*
X52939011Y-45929042D01*
X52858612Y-45904653D01*
X52775000Y-45896418D01*
X51525000Y-45896418D01*
X51441388Y-45904653D01*
X51360989Y-45929042D01*
X51286893Y-45968647D01*
X51221947Y-46021947D01*
X51168647Y-46086893D01*
X51129042Y-46160989D01*
X51104653Y-46241388D01*
X51102398Y-46264280D01*
X51072343Y-46227657D01*
X51022550Y-46186794D01*
X50965743Y-46156430D01*
X50904103Y-46137732D01*
X50840000Y-46131418D01*
X50727000Y-46131418D01*
X50727000Y-40751764D01*
X50724190Y-40708987D01*
X50707077Y-40579294D01*
X50684885Y-40496667D01*
X50634717Y-40375852D01*
X50591853Y-40301811D01*
X50512064Y-40198143D01*
X50451462Y-40137754D01*
X50347515Y-40058331D01*
X50273322Y-40015727D01*
X50152331Y-39965985D01*
X50069626Y-39944084D01*
X49939873Y-39927428D01*
X49897088Y-39924769D01*
X36697088Y-39971248D01*
X36654512Y-39974183D01*
X36525447Y-39991598D01*
X36443238Y-40013884D01*
X36323048Y-40064041D01*
X36249386Y-40106801D01*
X36146227Y-40186295D01*
X36099143Y-40233545D01*
X36052620Y-40187022D01*
X35949067Y-40107562D01*
X35875137Y-40064878D01*
X35754547Y-40014928D01*
X35672092Y-39992834D01*
X35542682Y-39975797D01*
X35500000Y-39973000D01*
X30800000Y-39973000D01*
X30757318Y-39975797D01*
X30627908Y-39992834D01*
X30545453Y-40014928D01*
X30427000Y-40063993D01*
X30427000Y-38425000D01*
X30691418Y-38425000D01*
X30691418Y-39075000D01*
X30697732Y-39139103D01*
X30716430Y-39200743D01*
X30746794Y-39257550D01*
X30787657Y-39307343D01*
X30837450Y-39348206D01*
X30894257Y-39378570D01*
X30955897Y-39397268D01*
X31020000Y-39403582D01*
X32580000Y-39403582D01*
X32644103Y-39397268D01*
X32705743Y-39378570D01*
X32762550Y-39348206D01*
X32812343Y-39307343D01*
X32853206Y-39257550D01*
X32883570Y-39200743D01*
X32902268Y-39139103D01*
X32908582Y-39075000D01*
X32908582Y-38425000D01*
X32902268Y-38360897D01*
X32883570Y-38299257D01*
X32853206Y-38242450D01*
X32812343Y-38192657D01*
X32762550Y-38151794D01*
X32705743Y-38121430D01*
X32644103Y-38102732D01*
X32580000Y-38096418D01*
X31020000Y-38096418D01*
X30955897Y-38102732D01*
X30894257Y-38121430D01*
X30837450Y-38151794D01*
X30787657Y-38192657D01*
X30746794Y-38242450D01*
X30716430Y-38299257D01*
X30697732Y-38360897D01*
X30691418Y-38425000D01*
X30427000Y-38425000D01*
X30427000Y-32659453D01*
X48473000Y-32659453D01*
X48473000Y-32940547D01*
X48527838Y-33216241D01*
X48635409Y-33475938D01*
X48791576Y-33709660D01*
X48990340Y-33908424D01*
X49224062Y-34064591D01*
X49483759Y-34172162D01*
X49759453Y-34227000D01*
X50040547Y-34227000D01*
X50316241Y-34172162D01*
X50575938Y-34064591D01*
X50809660Y-33908424D01*
X51008424Y-33709660D01*
X51153255Y-33492904D01*
X51154119Y-33494197D01*
X51305803Y-33645881D01*
X51484165Y-33765059D01*
X51682350Y-33847150D01*
X51892743Y-33889000D01*
X52107257Y-33889000D01*
X52317650Y-33847150D01*
X52515835Y-33765059D01*
X52694197Y-33645881D01*
X52845881Y-33494197D01*
X52965059Y-33315835D01*
X53047150Y-33117650D01*
X53089000Y-32907257D01*
X53089000Y-32692743D01*
X54911000Y-32692743D01*
X54911000Y-32907257D01*
X54952850Y-33117650D01*
X55034941Y-33315835D01*
X55154119Y-33494197D01*
X55305803Y-33645881D01*
X55484165Y-33765059D01*
X55682350Y-33847150D01*
X55892743Y-33889000D01*
X56107257Y-33889000D01*
X56317650Y-33847150D01*
X56515835Y-33765059D01*
X56694197Y-33645881D01*
X56845881Y-33494197D01*
X56965059Y-33315835D01*
X57000000Y-33231480D01*
X57034941Y-33315835D01*
X57154119Y-33494197D01*
X57305803Y-33645881D01*
X57484165Y-33765059D01*
X57682350Y-33847150D01*
X57892743Y-33889000D01*
X58107257Y-33889000D01*
X58317650Y-33847150D01*
X58515835Y-33765059D01*
X58694197Y-33645881D01*
X58845881Y-33494197D01*
X58965059Y-33315835D01*
X59000000Y-33231480D01*
X59034941Y-33315835D01*
X59154119Y-33494197D01*
X59305803Y-33645881D01*
X59484165Y-33765059D01*
X59682350Y-33847150D01*
X59892743Y-33889000D01*
X60107257Y-33889000D01*
X60317650Y-33847150D01*
X60515835Y-33765059D01*
X60694197Y-33645881D01*
X60845881Y-33494197D01*
X60846745Y-33492904D01*
X60991576Y-33709660D01*
X61190340Y-33908424D01*
X61424062Y-34064591D01*
X61683759Y-34172162D01*
X61959453Y-34227000D01*
X62240547Y-34227000D01*
X62516241Y-34172162D01*
X62775938Y-34064591D01*
X63009660Y-33908424D01*
X63208424Y-33709660D01*
X63364591Y-33475938D01*
X63472162Y-33216241D01*
X63527000Y-32940547D01*
X63527000Y-32659453D01*
X63472162Y-32383759D01*
X63364591Y-32124062D01*
X63208424Y-31890340D01*
X63009660Y-31691576D01*
X62775938Y-31535409D01*
X62516241Y-31427838D01*
X62240547Y-31373000D01*
X61959453Y-31373000D01*
X61683759Y-31427838D01*
X61424062Y-31535409D01*
X61190340Y-31691576D01*
X60991576Y-31890340D01*
X60846745Y-32107096D01*
X60845881Y-32105803D01*
X60694197Y-31954119D01*
X60515835Y-31834941D01*
X60452000Y-31808500D01*
X60452000Y-30186138D01*
X60454130Y-30185492D01*
X60551998Y-30133180D01*
X60637780Y-30062780D01*
X60708180Y-29976998D01*
X60760492Y-29879130D01*
X60792705Y-29772937D01*
X60803582Y-29662500D01*
X60803582Y-29087500D01*
X60792705Y-28977063D01*
X60760492Y-28870870D01*
X60708180Y-28773002D01*
X60637780Y-28687220D01*
X60551998Y-28616820D01*
X60454130Y-28564508D01*
X60347937Y-28532295D01*
X60237500Y-28521418D01*
X59762500Y-28521418D01*
X59652063Y-28532295D01*
X59545870Y-28564508D01*
X59448002Y-28616820D01*
X59362220Y-28687220D01*
X59291820Y-28773002D01*
X59239508Y-28870870D01*
X59207295Y-28977063D01*
X59196418Y-29087500D01*
X59196418Y-29662500D01*
X59207295Y-29772937D01*
X59239508Y-29879130D01*
X59291820Y-29976998D01*
X59362220Y-30062780D01*
X59448002Y-30133180D01*
X59545870Y-30185492D01*
X59548000Y-30186138D01*
X59548001Y-31808499D01*
X59484165Y-31834941D01*
X59305803Y-31954119D01*
X59154119Y-32105803D01*
X59034941Y-32284165D01*
X59000000Y-32368520D01*
X58965059Y-32284165D01*
X58845881Y-32105803D01*
X58694197Y-31954119D01*
X58515835Y-31834941D01*
X58452000Y-31808500D01*
X58452000Y-30186138D01*
X58454130Y-30185492D01*
X58551998Y-30133180D01*
X58637780Y-30062780D01*
X58708180Y-29976998D01*
X58760492Y-29879130D01*
X58792705Y-29772937D01*
X58803582Y-29662500D01*
X58803582Y-29087500D01*
X58792705Y-28977063D01*
X58760492Y-28870870D01*
X58708180Y-28773002D01*
X58637780Y-28687220D01*
X58551998Y-28616820D01*
X58454130Y-28564508D01*
X58347937Y-28532295D01*
X58237500Y-28521418D01*
X57762500Y-28521418D01*
X57652063Y-28532295D01*
X57545870Y-28564508D01*
X57448002Y-28616820D01*
X57362220Y-28687220D01*
X57291820Y-28773002D01*
X57239508Y-28870870D01*
X57207295Y-28977063D01*
X57196418Y-29087500D01*
X57196418Y-29662500D01*
X57207295Y-29772937D01*
X57239508Y-29879130D01*
X57291820Y-29976998D01*
X57362220Y-30062780D01*
X57448002Y-30133180D01*
X57545870Y-30185492D01*
X57548000Y-30186138D01*
X57548001Y-31808499D01*
X57484165Y-31834941D01*
X57305803Y-31954119D01*
X57154119Y-32105803D01*
X57034941Y-32284165D01*
X57000000Y-32368520D01*
X56965059Y-32284165D01*
X56845881Y-32105803D01*
X56694197Y-31954119D01*
X56515835Y-31834941D01*
X56452000Y-31808500D01*
X56452000Y-30186138D01*
X56454130Y-30185492D01*
X56551998Y-30133180D01*
X56637780Y-30062780D01*
X56708180Y-29976998D01*
X56760492Y-29879130D01*
X56792705Y-29772937D01*
X56803582Y-29662500D01*
X56803582Y-29162500D01*
X56792705Y-29052063D01*
X56760492Y-28945870D01*
X56708180Y-28848002D01*
X56637780Y-28762220D01*
X56551998Y-28691820D01*
X56454130Y-28639508D01*
X56347937Y-28607295D01*
X56237500Y-28596418D01*
X55762500Y-28596418D01*
X55652063Y-28607295D01*
X55545870Y-28639508D01*
X55448002Y-28691820D01*
X55362220Y-28762220D01*
X55291820Y-28848002D01*
X55239508Y-28945870D01*
X55207295Y-29052063D01*
X55196418Y-29162500D01*
X55196418Y-29662500D01*
X55207295Y-29772937D01*
X55239508Y-29879130D01*
X55291820Y-29976998D01*
X55362220Y-30062780D01*
X55448002Y-30133180D01*
X55545870Y-30185492D01*
X55548000Y-30186138D01*
X55548001Y-31808499D01*
X55484165Y-31834941D01*
X55305803Y-31954119D01*
X55154119Y-32105803D01*
X55034941Y-32284165D01*
X54952850Y-32482350D01*
X54911000Y-32692743D01*
X53089000Y-32692743D01*
X53047150Y-32482350D01*
X52965059Y-32284165D01*
X52845881Y-32105803D01*
X52694197Y-31954119D01*
X52515835Y-31834941D01*
X52317650Y-31752850D01*
X52107257Y-31711000D01*
X51892743Y-31711000D01*
X51682350Y-31752850D01*
X51484165Y-31834941D01*
X51305803Y-31954119D01*
X51154119Y-32105803D01*
X51153255Y-32107096D01*
X51008424Y-31890340D01*
X50809660Y-31691576D01*
X50575938Y-31535409D01*
X50316241Y-31427838D01*
X50040547Y-31373000D01*
X49759453Y-31373000D01*
X49483759Y-31427838D01*
X49224062Y-31535409D01*
X48990340Y-31691576D01*
X48791576Y-31890340D01*
X48635409Y-32124062D01*
X48527838Y-32383759D01*
X48473000Y-32659453D01*
X30427000Y-32659453D01*
X30427000Y-31200000D01*
X30424203Y-31157318D01*
X30407166Y-31027908D01*
X30385072Y-30945453D01*
X30335122Y-30824863D01*
X30292438Y-30750933D01*
X30212978Y-30647380D01*
X30152620Y-30587022D01*
X30049067Y-30507562D01*
X29975137Y-30464878D01*
X29854547Y-30414928D01*
X29772092Y-30392834D01*
X29642682Y-30375797D01*
X29600000Y-30373000D01*
X17500000Y-30373000D01*
X17457318Y-30375797D01*
X17327908Y-30392834D01*
X17245453Y-30414928D01*
X17124863Y-30464878D01*
X17050933Y-30507562D01*
X16947380Y-30587022D01*
X16887022Y-30647380D01*
X16807562Y-30750933D01*
X16764878Y-30824863D01*
X16714928Y-30945453D01*
X16692834Y-31027908D01*
X16675797Y-31157318D01*
X16673000Y-31200000D01*
X15289000Y-31200000D01*
X15289000Y-16600000D01*
X16673000Y-16600000D01*
X16673000Y-27300000D01*
X16675797Y-27342682D01*
X16692834Y-27472092D01*
X16714928Y-27554547D01*
X16764878Y-27675137D01*
X16807562Y-27749067D01*
X16887022Y-27852620D01*
X16947380Y-27912978D01*
X17050933Y-27992438D01*
X17124863Y-28035122D01*
X17245453Y-28085072D01*
X17327908Y-28107166D01*
X17457318Y-28124203D01*
X17500000Y-28127000D01*
X28000000Y-28127000D01*
X28042682Y-28124203D01*
X28172092Y-28107166D01*
X28254547Y-28085072D01*
X28375137Y-28035122D01*
X28449067Y-27992438D01*
X28552620Y-27912978D01*
X28612978Y-27852620D01*
X28692438Y-27749067D01*
X28735122Y-27675137D01*
X28785072Y-27554547D01*
X28807166Y-27472092D01*
X28824203Y-27342682D01*
X28827000Y-27300000D01*
X28827000Y-23621436D01*
X28835621Y-23555953D01*
X28852621Y-23514911D01*
X28879666Y-23479666D01*
X28914911Y-23452621D01*
X28955953Y-23435621D01*
X29021436Y-23427000D01*
X29595644Y-23427000D01*
X29600022Y-23427029D01*
X29608936Y-23427146D01*
X29591820Y-23448002D01*
X29539508Y-23545870D01*
X29507295Y-23652063D01*
X29496418Y-23762500D01*
X29496418Y-24262500D01*
X29507295Y-24372937D01*
X29539508Y-24479130D01*
X29591820Y-24576998D01*
X29662220Y-24662780D01*
X29723000Y-24712662D01*
X29723001Y-25287338D01*
X29662220Y-25337220D01*
X29591820Y-25423002D01*
X29539508Y-25520870D01*
X29507295Y-25627063D01*
X29496418Y-25737500D01*
X29496418Y-26312500D01*
X29507295Y-26422937D01*
X29539508Y-26529130D01*
X29591820Y-26626998D01*
X29662220Y-26712780D01*
X29748002Y-26783180D01*
X29845870Y-26835492D01*
X29952063Y-26867705D01*
X30062500Y-26878582D01*
X30537500Y-26878582D01*
X30647937Y-26867705D01*
X30754130Y-26835492D01*
X30851998Y-26783180D01*
X30937780Y-26712780D01*
X31008180Y-26626998D01*
X31060492Y-26529130D01*
X31092705Y-26422937D01*
X31103582Y-26312500D01*
X31103582Y-25737500D01*
X31092705Y-25627063D01*
X31060492Y-25520870D01*
X31008180Y-25423002D01*
X30937780Y-25337220D01*
X30877000Y-25287339D01*
X30877000Y-24712661D01*
X30937780Y-24662780D01*
X31008180Y-24576998D01*
X31060492Y-24479130D01*
X31092705Y-24372937D01*
X31103582Y-24262500D01*
X31103582Y-24152062D01*
X39173000Y-24152062D01*
X39173000Y-32152062D01*
X39175440Y-32176838D01*
X39182667Y-32200663D01*
X39194403Y-32222619D01*
X39210197Y-32241865D01*
X39229443Y-32257659D01*
X39251399Y-32269395D01*
X39275224Y-32276622D01*
X39300000Y-32279062D01*
X39600000Y-32279062D01*
X39624776Y-32276622D01*
X39648601Y-32269395D01*
X39670557Y-32257659D01*
X39689803Y-32241865D01*
X39705597Y-32222619D01*
X39717333Y-32200663D01*
X39724560Y-32176838D01*
X39727000Y-32152062D01*
X39727000Y-29362500D01*
X41496418Y-29362500D01*
X41496418Y-29837500D01*
X41507295Y-29947937D01*
X41539508Y-30054130D01*
X41591820Y-30151998D01*
X41662220Y-30237780D01*
X41748002Y-30308180D01*
X41845870Y-30360492D01*
X41952063Y-30392705D01*
X42062500Y-30403582D01*
X42662500Y-30403582D01*
X42772937Y-30392705D01*
X42879130Y-30360492D01*
X42976998Y-30308180D01*
X43062780Y-30237780D01*
X43133180Y-30151998D01*
X43173268Y-30077000D01*
X43638862Y-30077000D01*
X43639508Y-30079130D01*
X43691820Y-30176998D01*
X43762220Y-30262780D01*
X43848002Y-30333180D01*
X43945870Y-30385492D01*
X44052063Y-30417705D01*
X44162500Y-30428582D01*
X44637500Y-30428582D01*
X44747937Y-30417705D01*
X44854130Y-30385492D01*
X44951998Y-30333180D01*
X45037780Y-30262780D01*
X45108180Y-30176998D01*
X45160492Y-30079130D01*
X45192705Y-29972937D01*
X45203582Y-29862500D01*
X45203582Y-29362500D01*
X45192705Y-29252063D01*
X45160492Y-29145870D01*
X45108180Y-29048002D01*
X45037780Y-28962220D01*
X44951998Y-28891820D01*
X44854130Y-28839508D01*
X44747937Y-28807295D01*
X44637500Y-28796418D01*
X44162500Y-28796418D01*
X44052063Y-28807295D01*
X43945870Y-28839508D01*
X43848002Y-28891820D01*
X43762220Y-28962220D01*
X43691820Y-29048002D01*
X43651732Y-29123000D01*
X43173268Y-29123000D01*
X43133180Y-29048002D01*
X43062780Y-28962220D01*
X42976998Y-28891820D01*
X42879130Y-28839508D01*
X42772937Y-28807295D01*
X42662500Y-28796418D01*
X42062500Y-28796418D01*
X41952063Y-28807295D01*
X41845870Y-28839508D01*
X41748002Y-28891820D01*
X41662220Y-28962220D01*
X41591820Y-29048002D01*
X41539508Y-29145870D01*
X41507295Y-29252063D01*
X41496418Y-29362500D01*
X39727000Y-29362500D01*
X39727000Y-27562500D01*
X41496418Y-27562500D01*
X41496418Y-28037500D01*
X41507295Y-28147937D01*
X41539508Y-28254130D01*
X41591820Y-28351998D01*
X41662220Y-28437780D01*
X41748002Y-28508180D01*
X41845870Y-28560492D01*
X41952063Y-28592705D01*
X42062500Y-28603582D01*
X42662500Y-28603582D01*
X42772937Y-28592705D01*
X42879130Y-28560492D01*
X42976998Y-28508180D01*
X43062780Y-28437780D01*
X43133180Y-28351998D01*
X43179949Y-28264500D01*
X43645051Y-28264500D01*
X43691820Y-28351998D01*
X43762220Y-28437780D01*
X43848002Y-28508180D01*
X43945870Y-28560492D01*
X44052063Y-28592705D01*
X44162500Y-28603582D01*
X44637500Y-28603582D01*
X44747937Y-28592705D01*
X44854130Y-28560492D01*
X44951998Y-28508180D01*
X45037780Y-28437780D01*
X45108180Y-28351998D01*
X45160492Y-28254130D01*
X45182372Y-28182000D01*
X45481341Y-28182000D01*
X45496430Y-28231743D01*
X45526794Y-28288550D01*
X45567657Y-28338343D01*
X45617450Y-28379206D01*
X45674257Y-28409570D01*
X45735897Y-28428268D01*
X45800000Y-28434582D01*
X47305000Y-28434582D01*
X47369103Y-28428268D01*
X47430743Y-28409570D01*
X47487550Y-28379206D01*
X47537343Y-28338343D01*
X47573000Y-28294894D01*
X47573000Y-28473000D01*
X45400000Y-28473000D01*
X45375224Y-28475440D01*
X45351399Y-28482667D01*
X45329443Y-28494403D01*
X45310197Y-28510197D01*
X45294403Y-28529443D01*
X45282667Y-28551399D01*
X45275440Y-28575224D01*
X45273000Y-28600000D01*
X45273000Y-30500000D01*
X45275440Y-30524776D01*
X45282667Y-30548601D01*
X45294403Y-30570557D01*
X45310197Y-30589803D01*
X45329443Y-30605597D01*
X45351399Y-30617333D01*
X45375224Y-30624560D01*
X45400000Y-30627000D01*
X51200000Y-30627000D01*
X51224776Y-30624560D01*
X51248601Y-30617333D01*
X51270557Y-30605597D01*
X51289803Y-30589803D01*
X51305597Y-30570557D01*
X51317333Y-30548601D01*
X51324560Y-30524776D01*
X51327000Y-30500000D01*
X51327000Y-28600000D01*
X51324560Y-28575224D01*
X51317333Y-28551399D01*
X51305597Y-28529443D01*
X51289803Y-28510197D01*
X51270557Y-28494403D01*
X51248601Y-28482667D01*
X51224776Y-28475440D01*
X51200000Y-28473000D01*
X50127000Y-28473000D01*
X50127000Y-27727000D01*
X50700000Y-27727000D01*
X50724776Y-27724560D01*
X50748601Y-27717333D01*
X50770557Y-27705597D01*
X50789803Y-27689803D01*
X50805597Y-27670557D01*
X50817333Y-27648601D01*
X50824560Y-27624776D01*
X50827000Y-27600000D01*
X50827000Y-27164582D01*
X52300000Y-27164582D01*
X52364103Y-27158268D01*
X52425743Y-27139570D01*
X52482550Y-27109206D01*
X52532343Y-27068343D01*
X52573206Y-27018550D01*
X52603570Y-26961743D01*
X52622268Y-26900103D01*
X52627006Y-26852000D01*
X52665288Y-26852000D01*
X52700311Y-26887023D01*
X52803004Y-26955640D01*
X52917111Y-27002905D01*
X53038246Y-27027000D01*
X53161754Y-27027000D01*
X53282889Y-27002905D01*
X53396996Y-26955640D01*
X53499689Y-26887023D01*
X53587023Y-26799689D01*
X53655640Y-26696996D01*
X53702905Y-26582889D01*
X53727000Y-26461754D01*
X53727000Y-26338246D01*
X53712354Y-26264614D01*
X53739508Y-26354130D01*
X53791820Y-26451998D01*
X53862220Y-26537780D01*
X53948002Y-26608180D01*
X54045870Y-26660492D01*
X54152063Y-26692705D01*
X54262500Y-26703582D01*
X54737500Y-26703582D01*
X54847937Y-26692705D01*
X54954130Y-26660492D01*
X55051998Y-26608180D01*
X55137780Y-26537780D01*
X55208180Y-26451998D01*
X55260492Y-26354130D01*
X55292705Y-26247937D01*
X55303582Y-26137500D01*
X55303582Y-25585628D01*
X55312977Y-25599689D01*
X55400311Y-25687023D01*
X55503004Y-25755640D01*
X55617111Y-25802905D01*
X55738246Y-25827000D01*
X55861754Y-25827000D01*
X55982889Y-25802905D01*
X56096996Y-25755640D01*
X56199689Y-25687023D01*
X56287023Y-25599689D01*
X56355640Y-25496996D01*
X56402905Y-25382889D01*
X56427000Y-25261754D01*
X56427000Y-25138246D01*
X56402905Y-25017111D01*
X56355640Y-24903004D01*
X56302000Y-24822726D01*
X56302000Y-24686138D01*
X56304130Y-24685492D01*
X56401998Y-24633180D01*
X56487780Y-24562780D01*
X56558180Y-24476998D01*
X56610492Y-24379130D01*
X56642705Y-24272937D01*
X56653582Y-24162500D01*
X56653582Y-23662500D01*
X56642705Y-23552063D01*
X56610492Y-23445870D01*
X56609654Y-23444303D01*
X74796341Y-23524775D01*
X74839154Y-23522151D01*
X74968994Y-23505593D01*
X75051763Y-23483742D01*
X75172857Y-23434053D01*
X75247118Y-23391469D01*
X75351166Y-23312055D01*
X75411828Y-23251662D01*
X75491702Y-23147966D01*
X75534615Y-23073891D01*
X75584838Y-22953018D01*
X75607054Y-22870351D01*
X75624187Y-22740586D01*
X75627000Y-22697783D01*
X75627000Y-19900000D01*
X75624203Y-19857318D01*
X75607166Y-19727908D01*
X75585072Y-19645453D01*
X75535122Y-19524863D01*
X75492438Y-19450933D01*
X75412978Y-19347380D01*
X75352620Y-19287022D01*
X75249067Y-19207562D01*
X75175137Y-19164878D01*
X75054547Y-19114928D01*
X74972092Y-19092834D01*
X74842682Y-19075797D01*
X74800000Y-19073000D01*
X66217433Y-19073000D01*
X66152270Y-19064464D01*
X66111391Y-19047625D01*
X66076225Y-19020823D01*
X66049151Y-18985871D01*
X66031992Y-18945120D01*
X66022947Y-18880028D01*
X66005866Y-16693539D01*
X66002764Y-16651090D01*
X65984889Y-16522445D01*
X65962372Y-16440545D01*
X65911967Y-16320844D01*
X65869113Y-16247503D01*
X65789578Y-16144823D01*
X65729280Y-16084994D01*
X65625982Y-16006264D01*
X65552311Y-15963986D01*
X65432220Y-15914517D01*
X65350143Y-15892639D01*
X65221362Y-15875770D01*
X65178891Y-15873000D01*
X56617556Y-15873000D01*
X56566887Y-15876949D01*
X56413806Y-15900959D01*
X56377129Y-15908891D01*
X56317331Y-15931987D01*
X56178952Y-16001713D01*
X56146469Y-16020490D01*
X56096613Y-16060784D01*
X56004515Y-16151511D01*
X55962978Y-16097380D01*
X55902620Y-16037022D01*
X55799067Y-15957562D01*
X55725137Y-15914878D01*
X55604547Y-15864928D01*
X55522092Y-15842834D01*
X55392682Y-15825797D01*
X55350000Y-15823000D01*
X49600000Y-15823000D01*
X49557318Y-15825797D01*
X49427908Y-15842834D01*
X49345453Y-15864928D01*
X49224863Y-15914878D01*
X49150933Y-15957562D01*
X49047380Y-16037022D01*
X48987022Y-16097380D01*
X48907562Y-16200933D01*
X48864878Y-16274863D01*
X48814928Y-16395453D01*
X48792834Y-16477908D01*
X48775797Y-16607318D01*
X48773000Y-16650000D01*
X48773000Y-22700000D01*
X48775797Y-22742682D01*
X48792834Y-22872092D01*
X48814928Y-22954547D01*
X48864878Y-23075137D01*
X48907562Y-23149067D01*
X48987022Y-23252620D01*
X49047380Y-23312978D01*
X49150933Y-23392438D01*
X49224863Y-23435122D01*
X49345453Y-23485072D01*
X49427908Y-23507166D01*
X49557318Y-23524203D01*
X49600000Y-23527000D01*
X50028564Y-23527000D01*
X50094047Y-23535621D01*
X50135089Y-23552621D01*
X50170334Y-23579666D01*
X50197379Y-23614911D01*
X50214379Y-23655953D01*
X50223000Y-23721436D01*
X50223000Y-24000000D01*
X50225797Y-24042682D01*
X50242834Y-24172092D01*
X50264928Y-24254547D01*
X50314878Y-24375137D01*
X50357562Y-24449067D01*
X50437022Y-24552620D01*
X50497380Y-24612978D01*
X50502742Y-24617093D01*
X50491430Y-24638257D01*
X50472732Y-24699897D01*
X50466418Y-24764000D01*
X50466418Y-25566000D01*
X50472732Y-25630103D01*
X50491430Y-25691743D01*
X50521794Y-25748550D01*
X50562657Y-25798343D01*
X50564676Y-25800000D01*
X50562657Y-25801657D01*
X50521794Y-25851450D01*
X50491430Y-25908257D01*
X50472732Y-25969897D01*
X50466418Y-26034000D01*
X50466418Y-26778111D01*
X50451399Y-26782667D01*
X50429443Y-26794403D01*
X50410197Y-26810197D01*
X50394403Y-26829443D01*
X50382667Y-26851399D01*
X50375440Y-26875224D01*
X50373000Y-26900000D01*
X50373000Y-27273000D01*
X50127000Y-27273000D01*
X50127000Y-27200000D01*
X50124560Y-27175224D01*
X50117333Y-27151399D01*
X50105597Y-27129443D01*
X50089803Y-27110197D01*
X50070557Y-27094403D01*
X50048601Y-27082667D01*
X50024776Y-27075440D01*
X50000000Y-27073000D01*
X49800000Y-27073000D01*
X49775224Y-27075440D01*
X49751399Y-27082667D01*
X49729443Y-27094403D01*
X49710197Y-27110197D01*
X49694403Y-27129443D01*
X49682667Y-27151399D01*
X49675440Y-27175224D01*
X49673000Y-27200000D01*
X49673000Y-28800000D01*
X49675440Y-28824776D01*
X49682667Y-28848601D01*
X49694403Y-28870557D01*
X49710197Y-28889803D01*
X49729443Y-28905597D01*
X49751399Y-28917333D01*
X49775224Y-28924560D01*
X49800000Y-28927000D01*
X50873000Y-28927000D01*
X50873000Y-30173000D01*
X45727000Y-30173000D01*
X45727000Y-28927000D01*
X47900000Y-28927000D01*
X47924776Y-28924560D01*
X47948601Y-28917333D01*
X47970557Y-28905597D01*
X47989803Y-28889803D01*
X48005597Y-28870557D01*
X48017333Y-28848601D01*
X48024560Y-28824776D01*
X48027000Y-28800000D01*
X48027000Y-27800000D01*
X48024560Y-27775224D01*
X48017333Y-27751399D01*
X48005597Y-27729443D01*
X47989803Y-27710197D01*
X47970557Y-27694403D01*
X47948601Y-27682667D01*
X47924776Y-27675440D01*
X47900000Y-27673000D01*
X47700000Y-27673000D01*
X47675224Y-27675440D01*
X47651399Y-27682667D01*
X47633582Y-27692191D01*
X47633582Y-27304000D01*
X47627268Y-27239897D01*
X47608570Y-27178257D01*
X47578206Y-27121450D01*
X47537343Y-27071657D01*
X47535324Y-27070000D01*
X47537343Y-27068343D01*
X47578206Y-27018550D01*
X47608570Y-26961743D01*
X47627268Y-26900103D01*
X47633582Y-26836000D01*
X47633582Y-26034000D01*
X47627268Y-25969897D01*
X47608570Y-25908257D01*
X47578206Y-25851450D01*
X47537343Y-25801657D01*
X47535324Y-25800000D01*
X47537343Y-25798343D01*
X47578206Y-25748550D01*
X47608570Y-25691743D01*
X47627268Y-25630103D01*
X47633582Y-25566000D01*
X47633582Y-24764000D01*
X47627268Y-24699897D01*
X47608570Y-24638257D01*
X47578206Y-24581450D01*
X47537343Y-24531657D01*
X47487550Y-24490794D01*
X47430743Y-24460430D01*
X47369103Y-24441732D01*
X47305000Y-24435418D01*
X45800000Y-24435418D01*
X45735897Y-24441732D01*
X45674257Y-24460430D01*
X45617450Y-24490794D01*
X45567657Y-24531657D01*
X45526794Y-24581450D01*
X45496430Y-24638257D01*
X45477732Y-24699897D01*
X45471418Y-24764000D01*
X45471418Y-24823000D01*
X44759712Y-24823000D01*
X44749689Y-24812977D01*
X44646996Y-24744360D01*
X44532889Y-24697095D01*
X44411754Y-24673000D01*
X44288246Y-24673000D01*
X44167111Y-24697095D01*
X44053004Y-24744360D01*
X43950311Y-24812977D01*
X43862977Y-24900311D01*
X43794360Y-25003004D01*
X43747095Y-25117111D01*
X43723000Y-25238246D01*
X43723000Y-25361754D01*
X43747095Y-25482889D01*
X43794360Y-25596996D01*
X43862977Y-25699689D01*
X43950311Y-25787023D01*
X44053004Y-25855640D01*
X44167111Y-25902905D01*
X44288246Y-25927000D01*
X44411754Y-25927000D01*
X44532889Y-25902905D01*
X44646996Y-25855640D01*
X44749689Y-25787023D01*
X44759712Y-25777000D01*
X45550142Y-25777000D01*
X45567657Y-25798343D01*
X45569676Y-25800000D01*
X45567657Y-25801657D01*
X45526794Y-25851450D01*
X45496430Y-25908257D01*
X45477732Y-25969897D01*
X45471418Y-26034000D01*
X45471418Y-26836000D01*
X45477732Y-26900103D01*
X45496430Y-26961743D01*
X45526794Y-27018550D01*
X45567657Y-27068343D01*
X45569676Y-27070000D01*
X45567657Y-27071657D01*
X45526794Y-27121450D01*
X45496430Y-27178257D01*
X45481341Y-27228000D01*
X45110852Y-27228000D01*
X45108180Y-27223002D01*
X45037780Y-27137220D01*
X44951998Y-27066820D01*
X44854130Y-27014508D01*
X44747937Y-26982295D01*
X44637500Y-26971418D01*
X44162500Y-26971418D01*
X44052063Y-26982295D01*
X43945870Y-27014508D01*
X43848002Y-27066820D01*
X43762220Y-27137220D01*
X43691820Y-27223002D01*
X43645051Y-27310500D01*
X43166586Y-27310500D01*
X43133180Y-27248002D01*
X43062780Y-27162220D01*
X42976998Y-27091820D01*
X42879130Y-27039508D01*
X42772937Y-27007295D01*
X42662500Y-26996418D01*
X42062500Y-26996418D01*
X41952063Y-27007295D01*
X41845870Y-27039508D01*
X41748002Y-27091820D01*
X41662220Y-27162220D01*
X41591820Y-27248002D01*
X41539508Y-27345870D01*
X41507295Y-27452063D01*
X41496418Y-27562500D01*
X39727000Y-27562500D01*
X39727000Y-24152062D01*
X39724560Y-24127286D01*
X39717333Y-24103461D01*
X39705597Y-24081505D01*
X39689803Y-24062259D01*
X39670557Y-24046465D01*
X39648601Y-24034729D01*
X39624776Y-24027502D01*
X39600000Y-24025062D01*
X39300000Y-24025062D01*
X39275224Y-24027502D01*
X39251399Y-24034729D01*
X39229443Y-24046465D01*
X39210197Y-24062259D01*
X39194403Y-24081505D01*
X39182667Y-24103461D01*
X39175440Y-24127286D01*
X39173000Y-24152062D01*
X31103582Y-24152062D01*
X31103582Y-23762500D01*
X31092705Y-23652063D01*
X31060492Y-23545870D01*
X31008180Y-23448002D01*
X31006152Y-23445531D01*
X37192409Y-23526929D01*
X37194573Y-23526950D01*
X37201151Y-23526993D01*
X37203289Y-23527000D01*
X47200000Y-23527000D01*
X47242682Y-23524203D01*
X47372092Y-23507166D01*
X47454547Y-23485072D01*
X47575137Y-23435122D01*
X47649067Y-23392438D01*
X47752620Y-23312978D01*
X47812978Y-23252620D01*
X47892438Y-23149067D01*
X47935122Y-23075137D01*
X47985072Y-22954547D01*
X48007166Y-22872092D01*
X48024203Y-22742682D01*
X48027000Y-22700000D01*
X48027000Y-16600000D01*
X48024203Y-16557318D01*
X48007166Y-16427908D01*
X47985072Y-16345453D01*
X47935122Y-16224863D01*
X47892438Y-16150933D01*
X47812978Y-16047380D01*
X47752620Y-15987022D01*
X47649067Y-15907562D01*
X47575137Y-15864878D01*
X47454547Y-15814928D01*
X47372092Y-15792834D01*
X47242682Y-15775797D01*
X47200000Y-15773000D01*
X17500000Y-15773000D01*
X17457318Y-15775797D01*
X17327908Y-15792834D01*
X17245453Y-15814928D01*
X17124863Y-15864878D01*
X17050933Y-15907562D01*
X16947380Y-15987022D01*
X16887022Y-16047380D01*
X16807562Y-16150933D01*
X16764878Y-16224863D01*
X16714928Y-16345453D01*
X16692834Y-16427908D01*
X16675797Y-16557318D01*
X16673000Y-16600000D01*
X15289000Y-16600000D01*
X15289000Y-15539000D01*
X75697670Y-15539000D01*
X75721586Y-15539390D01*
G36*
X52942672Y-23386382D02*
G01*
X53024813Y-23408717D01*
X53153790Y-23426230D01*
X53196341Y-23429200D01*
X55093930Y-23437596D01*
X55089508Y-23445870D01*
X55057295Y-23552063D01*
X55046418Y-23662500D01*
X55046418Y-24162500D01*
X55057295Y-24272937D01*
X55089508Y-24379130D01*
X55141820Y-24476998D01*
X55212220Y-24562780D01*
X55298002Y-24633180D01*
X55395870Y-24685492D01*
X55398001Y-24686138D01*
X55398001Y-24715287D01*
X55312977Y-24800311D01*
X55244360Y-24903004D01*
X55197095Y-25017111D01*
X55173000Y-25138246D01*
X55173000Y-25180135D01*
X55137780Y-25137220D01*
X55051998Y-25066820D01*
X54954130Y-25014508D01*
X54847937Y-24982295D01*
X54737500Y-24971418D01*
X54273141Y-24971418D01*
X54162823Y-24861100D01*
X54148659Y-24843841D01*
X54079833Y-24787357D01*
X54001310Y-24745386D01*
X53916107Y-24719540D01*
X53849705Y-24713000D01*
X53827500Y-24710813D01*
X53805295Y-24713000D01*
X52623559Y-24713000D01*
X52622268Y-24699897D01*
X52609501Y-24657809D01*
X52636035Y-24636033D01*
X52676701Y-24586481D01*
X52747152Y-24481043D01*
X52777370Y-24424509D01*
X52795978Y-24363166D01*
X52820717Y-24238794D01*
X52827000Y-24175000D01*
X52827000Y-23338019D01*
X52942672Y-23386382D01*
G37*
X52942672Y-23386382D02*
X53024813Y-23408717D01*
X53153790Y-23426230D01*
X53196341Y-23429200D01*
X55093930Y-23437596D01*
X55089508Y-23445870D01*
X55057295Y-23552063D01*
X55046418Y-23662500D01*
X55046418Y-24162500D01*
X55057295Y-24272937D01*
X55089508Y-24379130D01*
X55141820Y-24476998D01*
X55212220Y-24562780D01*
X55298002Y-24633180D01*
X55395870Y-24685492D01*
X55398001Y-24686138D01*
X55398001Y-24715287D01*
X55312977Y-24800311D01*
X55244360Y-24903004D01*
X55197095Y-25017111D01*
X55173000Y-25138246D01*
X55173000Y-25180135D01*
X55137780Y-25137220D01*
X55051998Y-25066820D01*
X54954130Y-25014508D01*
X54847937Y-24982295D01*
X54737500Y-24971418D01*
X54273141Y-24971418D01*
X54162823Y-24861100D01*
X54148659Y-24843841D01*
X54079833Y-24787357D01*
X54001310Y-24745386D01*
X53916107Y-24719540D01*
X53849705Y-24713000D01*
X53827500Y-24710813D01*
X53805295Y-24713000D01*
X52623559Y-24713000D01*
X52622268Y-24699897D01*
X52609501Y-24657809D01*
X52636035Y-24636033D01*
X52676701Y-24586481D01*
X52747152Y-24481043D01*
X52777370Y-24424509D01*
X52795978Y-24363166D01*
X52820717Y-24238794D01*
X52827000Y-24175000D01*
X52827000Y-23338019D01*
X52942672Y-23386382D01*
%TO.N,5Vi*%
G36*
X75096257Y-35390769D02*
G01*
X75185955Y-35427923D01*
X75262976Y-35487024D01*
X75322077Y-35564045D01*
X75359231Y-35653743D01*
X75373000Y-35758328D01*
X75373000Y-38991672D01*
X75359231Y-39096257D01*
X75322077Y-39185955D01*
X75262976Y-39262976D01*
X75185955Y-39322077D01*
X75096257Y-39359231D01*
X74991672Y-39373000D01*
X68250000Y-39373000D01*
X68233423Y-39374086D01*
X68104013Y-39391123D01*
X68071989Y-39399704D01*
X67951399Y-39449654D01*
X67922687Y-39466232D01*
X67819134Y-39545692D01*
X67795692Y-39569134D01*
X67716232Y-39672687D01*
X67699654Y-39701399D01*
X67649704Y-39821989D01*
X67641123Y-39854013D01*
X67624086Y-39983423D01*
X67623000Y-40000000D01*
X67623000Y-43673000D01*
X67228582Y-43673000D01*
X67228582Y-43410000D01*
X67222268Y-43345897D01*
X67203570Y-43284257D01*
X67173206Y-43227450D01*
X67132343Y-43177657D01*
X67082550Y-43136794D01*
X67025743Y-43106430D01*
X66964103Y-43087732D01*
X66900000Y-43081418D01*
X65200000Y-43081418D01*
X65135897Y-43087732D01*
X65074257Y-43106430D01*
X65017450Y-43136794D01*
X64967657Y-43177657D01*
X64926794Y-43227450D01*
X64896430Y-43284257D01*
X64877732Y-43345897D01*
X64871418Y-43410000D01*
X64871418Y-45110000D01*
X64877732Y-45174103D01*
X64896430Y-45235743D01*
X64926794Y-45292550D01*
X64967657Y-45342343D01*
X65017450Y-45383206D01*
X65074257Y-45413570D01*
X65135897Y-45432268D01*
X65200000Y-45438582D01*
X66900000Y-45438582D01*
X66964103Y-45432268D01*
X67025743Y-45413570D01*
X67082550Y-45383206D01*
X67132343Y-45342343D01*
X67173206Y-45292550D01*
X67203570Y-45235743D01*
X67222268Y-45174103D01*
X67228582Y-45110000D01*
X67228582Y-44827000D01*
X67623000Y-44827000D01*
X67623000Y-52741672D01*
X67609231Y-52846257D01*
X67572077Y-52935955D01*
X67512976Y-53012976D01*
X67435955Y-53072077D01*
X67346257Y-53109231D01*
X67241672Y-53123000D01*
X62008328Y-53123000D01*
X61903743Y-53109231D01*
X61814045Y-53072077D01*
X61737024Y-53012976D01*
X61677923Y-52935955D01*
X61640769Y-52846257D01*
X61627000Y-52741672D01*
X61627000Y-40870000D01*
X64871418Y-40870000D01*
X64871418Y-42570000D01*
X64877732Y-42634103D01*
X64896430Y-42695743D01*
X64926794Y-42752550D01*
X64967657Y-42802343D01*
X65017450Y-42843206D01*
X65074257Y-42873570D01*
X65135897Y-42892268D01*
X65200000Y-42898582D01*
X66900000Y-42898582D01*
X66964103Y-42892268D01*
X67025743Y-42873570D01*
X67082550Y-42843206D01*
X67132343Y-42802343D01*
X67173206Y-42752550D01*
X67203570Y-42695743D01*
X67222268Y-42634103D01*
X67228582Y-42570000D01*
X67228582Y-40870000D01*
X67222268Y-40805897D01*
X67203570Y-40744257D01*
X67173206Y-40687450D01*
X67132343Y-40637657D01*
X67082550Y-40596794D01*
X67025743Y-40566430D01*
X66964103Y-40547732D01*
X66900000Y-40541418D01*
X65200000Y-40541418D01*
X65135897Y-40547732D01*
X65074257Y-40566430D01*
X65017450Y-40596794D01*
X64967657Y-40637657D01*
X64926794Y-40687450D01*
X64896430Y-40744257D01*
X64877732Y-40805897D01*
X64871418Y-40870000D01*
X61627000Y-40870000D01*
X61627000Y-35758328D01*
X61640769Y-35653743D01*
X61677923Y-35564045D01*
X61737024Y-35487024D01*
X61814045Y-35427923D01*
X61903743Y-35390769D01*
X62008328Y-35377000D01*
X74991672Y-35377000D01*
X75096257Y-35390769D01*
G37*
X75096257Y-35390769D02*
X75185955Y-35427923D01*
X75262976Y-35487024D01*
X75322077Y-35564045D01*
X75359231Y-35653743D01*
X75373000Y-35758328D01*
X75373000Y-38991672D01*
X75359231Y-39096257D01*
X75322077Y-39185955D01*
X75262976Y-39262976D01*
X75185955Y-39322077D01*
X75096257Y-39359231D01*
X74991672Y-39373000D01*
X68250000Y-39373000D01*
X68233423Y-39374086D01*
X68104013Y-39391123D01*
X68071989Y-39399704D01*
X67951399Y-39449654D01*
X67922687Y-39466232D01*
X67819134Y-39545692D01*
X67795692Y-39569134D01*
X67716232Y-39672687D01*
X67699654Y-39701399D01*
X67649704Y-39821989D01*
X67641123Y-39854013D01*
X67624086Y-39983423D01*
X67623000Y-40000000D01*
X67623000Y-43673000D01*
X67228582Y-43673000D01*
X67228582Y-43410000D01*
X67222268Y-43345897D01*
X67203570Y-43284257D01*
X67173206Y-43227450D01*
X67132343Y-43177657D01*
X67082550Y-43136794D01*
X67025743Y-43106430D01*
X66964103Y-43087732D01*
X66900000Y-43081418D01*
X65200000Y-43081418D01*
X65135897Y-43087732D01*
X65074257Y-43106430D01*
X65017450Y-43136794D01*
X64967657Y-43177657D01*
X64926794Y-43227450D01*
X64896430Y-43284257D01*
X64877732Y-43345897D01*
X64871418Y-43410000D01*
X64871418Y-45110000D01*
X64877732Y-45174103D01*
X64896430Y-45235743D01*
X64926794Y-45292550D01*
X64967657Y-45342343D01*
X65017450Y-45383206D01*
X65074257Y-45413570D01*
X65135897Y-45432268D01*
X65200000Y-45438582D01*
X66900000Y-45438582D01*
X66964103Y-45432268D01*
X67025743Y-45413570D01*
X67082550Y-45383206D01*
X67132343Y-45342343D01*
X67173206Y-45292550D01*
X67203570Y-45235743D01*
X67222268Y-45174103D01*
X67228582Y-45110000D01*
X67228582Y-44827000D01*
X67623000Y-44827000D01*
X67623000Y-52741672D01*
X67609231Y-52846257D01*
X67572077Y-52935955D01*
X67512976Y-53012976D01*
X67435955Y-53072077D01*
X67346257Y-53109231D01*
X67241672Y-53123000D01*
X62008328Y-53123000D01*
X61903743Y-53109231D01*
X61814045Y-53072077D01*
X61737024Y-53012976D01*
X61677923Y-52935955D01*
X61640769Y-52846257D01*
X61627000Y-52741672D01*
X61627000Y-40870000D01*
X64871418Y-40870000D01*
X64871418Y-42570000D01*
X64877732Y-42634103D01*
X64896430Y-42695743D01*
X64926794Y-42752550D01*
X64967657Y-42802343D01*
X65017450Y-42843206D01*
X65074257Y-42873570D01*
X65135897Y-42892268D01*
X65200000Y-42898582D01*
X66900000Y-42898582D01*
X66964103Y-42892268D01*
X67025743Y-42873570D01*
X67082550Y-42843206D01*
X67132343Y-42802343D01*
X67173206Y-42752550D01*
X67203570Y-42695743D01*
X67222268Y-42634103D01*
X67228582Y-42570000D01*
X67228582Y-40870000D01*
X67222268Y-40805897D01*
X67203570Y-40744257D01*
X67173206Y-40687450D01*
X67132343Y-40637657D01*
X67082550Y-40596794D01*
X67025743Y-40566430D01*
X66964103Y-40547732D01*
X66900000Y-40541418D01*
X65200000Y-40541418D01*
X65135897Y-40547732D01*
X65074257Y-40566430D01*
X65017450Y-40596794D01*
X64967657Y-40637657D01*
X64926794Y-40687450D01*
X64896430Y-40744257D01*
X64877732Y-40805897D01*
X64871418Y-40870000D01*
X61627000Y-40870000D01*
X61627000Y-35758328D01*
X61640769Y-35653743D01*
X61677923Y-35564045D01*
X61737024Y-35487024D01*
X61814045Y-35427923D01*
X61903743Y-35390769D01*
X62008328Y-35377000D01*
X74991672Y-35377000D01*
X75096257Y-35390769D01*
%TD*%
M02*
