%TF.GenerationSoftware,KiCad,Pcbnew,(5.1.6-0-10_14)*%
%TF.CreationDate,2022-04-17T17:35:50+02:00*%
%TF.ProjectId,smoke_extractor,736d6f6b-655f-4657-9874-726163746f72,rev?*%
%TF.SameCoordinates,Original*%
%TF.FileFunction,Paste,Top*%
%TF.FilePolarity,Positive*%
%FSLAX46Y46*%
G04 Gerber Fmt 4.6, Leading zero omitted, Abs format (unit mm)*
G04 Created by KiCad (PCBNEW (5.1.6-0-10_14)) date 2022-04-17 17:35:50*
%MOMM*%
%LPD*%
G01*
G04 APERTURE LIST*
%ADD10R,1.500000X3.700000*%
%ADD11R,1.560000X0.650000*%
%ADD12R,3.500000X1.800000*%
%ADD13R,2.000000X2.000000*%
%ADD14R,4.000000X0.700000*%
%ADD15R,4.000000X0.800000*%
%ADD16R,4.000000X0.900000*%
%ADD17R,1.505000X0.802000*%
%ADD18R,1.567800X2.101200*%
G04 APERTURE END LIST*
%TO.C,R13*%
G36*
G01*
X60800000Y-53912500D02*
X60800000Y-54387500D01*
G75*
G02*
X60562500Y-54625000I-237500J0D01*
G01*
X59987500Y-54625000D01*
G75*
G02*
X59750000Y-54387500I0J237500D01*
G01*
X59750000Y-53912500D01*
G75*
G02*
X59987500Y-53675000I237500J0D01*
G01*
X60562500Y-53675000D01*
G75*
G02*
X60800000Y-53912500I0J-237500D01*
G01*
G37*
G36*
G01*
X62550000Y-53912500D02*
X62550000Y-54387500D01*
G75*
G02*
X62312500Y-54625000I-237500J0D01*
G01*
X61737500Y-54625000D01*
G75*
G02*
X61500000Y-54387500I0J237500D01*
G01*
X61500000Y-53912500D01*
G75*
G02*
X61737500Y-53675000I237500J0D01*
G01*
X62312500Y-53675000D01*
G75*
G02*
X62550000Y-53912500I0J-237500D01*
G01*
G37*
%TD*%
D10*
%TO.C,L1*%
X46850000Y-20000000D03*
X49950000Y-20000000D03*
%TD*%
%TO.C,9V*%
G36*
G01*
X58237500Y-28150000D02*
X57762500Y-28150000D01*
G75*
G02*
X57525000Y-27912500I0J237500D01*
G01*
X57525000Y-27337500D01*
G75*
G02*
X57762500Y-27100000I237500J0D01*
G01*
X58237500Y-27100000D01*
G75*
G02*
X58475000Y-27337500I0J-237500D01*
G01*
X58475000Y-27912500D01*
G75*
G02*
X58237500Y-28150000I-237500J0D01*
G01*
G37*
G36*
G01*
X58237500Y-29900000D02*
X57762500Y-29900000D01*
G75*
G02*
X57525000Y-29662500I0J237500D01*
G01*
X57525000Y-29087500D01*
G75*
G02*
X57762500Y-28850000I237500J0D01*
G01*
X58237500Y-28850000D01*
G75*
G02*
X58475000Y-29087500I0J-237500D01*
G01*
X58475000Y-29662500D01*
G75*
G02*
X58237500Y-29900000I-237500J0D01*
G01*
G37*
%TD*%
%TO.C,5V*%
G36*
G01*
X60237500Y-28150000D02*
X59762500Y-28150000D01*
G75*
G02*
X59525000Y-27912500I0J237500D01*
G01*
X59525000Y-27337500D01*
G75*
G02*
X59762500Y-27100000I237500J0D01*
G01*
X60237500Y-27100000D01*
G75*
G02*
X60475000Y-27337500I0J-237500D01*
G01*
X60475000Y-27912500D01*
G75*
G02*
X60237500Y-28150000I-237500J0D01*
G01*
G37*
G36*
G01*
X60237500Y-29900000D02*
X59762500Y-29900000D01*
G75*
G02*
X59525000Y-29662500I0J237500D01*
G01*
X59525000Y-29087500D01*
G75*
G02*
X59762500Y-28850000I237500J0D01*
G01*
X60237500Y-28850000D01*
G75*
G02*
X60475000Y-29087500I0J-237500D01*
G01*
X60475000Y-29662500D01*
G75*
G02*
X60237500Y-29900000I-237500J0D01*
G01*
G37*
%TD*%
%TO.C,U4*%
G36*
G01*
X49920000Y-46720000D02*
X49920000Y-47140000D01*
G75*
G02*
X49750000Y-47310000I-170000J0D01*
G01*
X49410000Y-47310000D01*
G75*
G02*
X49240000Y-47140000I0J170000D01*
G01*
X49240000Y-46720000D01*
G75*
G02*
X49410000Y-46550000I170000J0D01*
G01*
X49750000Y-46550000D01*
G75*
G02*
X49920000Y-46720000I0J-170000D01*
G01*
G37*
G36*
G01*
X49920000Y-47660000D02*
X49920000Y-48080000D01*
G75*
G02*
X49750000Y-48250000I-170000J0D01*
G01*
X49410000Y-48250000D01*
G75*
G02*
X49240000Y-48080000I0J170000D01*
G01*
X49240000Y-47660000D01*
G75*
G02*
X49410000Y-47490000I170000J0D01*
G01*
X49750000Y-47490000D01*
G75*
G02*
X49920000Y-47660000I0J-170000D01*
G01*
G37*
G36*
G01*
X50760000Y-46720000D02*
X50760000Y-47140000D01*
G75*
G02*
X50590000Y-47310000I-170000J0D01*
G01*
X50250000Y-47310000D01*
G75*
G02*
X50080000Y-47140000I0J170000D01*
G01*
X50080000Y-46720000D01*
G75*
G02*
X50250000Y-46550000I170000J0D01*
G01*
X50590000Y-46550000D01*
G75*
G02*
X50760000Y-46720000I0J-170000D01*
G01*
G37*
G36*
G01*
X50760000Y-47660000D02*
X50760000Y-48080000D01*
G75*
G02*
X50590000Y-48250000I-170000J0D01*
G01*
X50250000Y-48250000D01*
G75*
G02*
X50080000Y-48080000I0J170000D01*
G01*
X50080000Y-47660000D01*
G75*
G02*
X50250000Y-47490000I170000J0D01*
G01*
X50590000Y-47490000D01*
G75*
G02*
X50760000Y-47660000I0J-170000D01*
G01*
G37*
G36*
G01*
X48575000Y-48275000D02*
X48575000Y-48475000D01*
G75*
G02*
X48475000Y-48575000I-100000J0D01*
G01*
X47225000Y-48575000D01*
G75*
G02*
X47125000Y-48475000I0J100000D01*
G01*
X47125000Y-48275000D01*
G75*
G02*
X47225000Y-48175000I100000J0D01*
G01*
X48475000Y-48175000D01*
G75*
G02*
X48575000Y-48275000I0J-100000D01*
G01*
G37*
G36*
G01*
X48575000Y-47625000D02*
X48575000Y-47825000D01*
G75*
G02*
X48475000Y-47925000I-100000J0D01*
G01*
X47225000Y-47925000D01*
G75*
G02*
X47125000Y-47825000I0J100000D01*
G01*
X47125000Y-47625000D01*
G75*
G02*
X47225000Y-47525000I100000J0D01*
G01*
X48475000Y-47525000D01*
G75*
G02*
X48575000Y-47625000I0J-100000D01*
G01*
G37*
G36*
G01*
X48575000Y-46975000D02*
X48575000Y-47175000D01*
G75*
G02*
X48475000Y-47275000I-100000J0D01*
G01*
X47225000Y-47275000D01*
G75*
G02*
X47125000Y-47175000I0J100000D01*
G01*
X47125000Y-46975000D01*
G75*
G02*
X47225000Y-46875000I100000J0D01*
G01*
X48475000Y-46875000D01*
G75*
G02*
X48575000Y-46975000I0J-100000D01*
G01*
G37*
G36*
G01*
X48575000Y-46325000D02*
X48575000Y-46525000D01*
G75*
G02*
X48475000Y-46625000I-100000J0D01*
G01*
X47225000Y-46625000D01*
G75*
G02*
X47125000Y-46525000I0J100000D01*
G01*
X47125000Y-46325000D01*
G75*
G02*
X47225000Y-46225000I100000J0D01*
G01*
X48475000Y-46225000D01*
G75*
G02*
X48575000Y-46325000I0J-100000D01*
G01*
G37*
G36*
G01*
X52875000Y-46325000D02*
X52875000Y-46525000D01*
G75*
G02*
X52775000Y-46625000I-100000J0D01*
G01*
X51525000Y-46625000D01*
G75*
G02*
X51425000Y-46525000I0J100000D01*
G01*
X51425000Y-46325000D01*
G75*
G02*
X51525000Y-46225000I100000J0D01*
G01*
X52775000Y-46225000D01*
G75*
G02*
X52875000Y-46325000I0J-100000D01*
G01*
G37*
G36*
G01*
X52875000Y-46975000D02*
X52875000Y-47175000D01*
G75*
G02*
X52775000Y-47275000I-100000J0D01*
G01*
X51525000Y-47275000D01*
G75*
G02*
X51425000Y-47175000I0J100000D01*
G01*
X51425000Y-46975000D01*
G75*
G02*
X51525000Y-46875000I100000J0D01*
G01*
X52775000Y-46875000D01*
G75*
G02*
X52875000Y-46975000I0J-100000D01*
G01*
G37*
G36*
G01*
X52875000Y-47625000D02*
X52875000Y-47825000D01*
G75*
G02*
X52775000Y-47925000I-100000J0D01*
G01*
X51525000Y-47925000D01*
G75*
G02*
X51425000Y-47825000I0J100000D01*
G01*
X51425000Y-47625000D01*
G75*
G02*
X51525000Y-47525000I100000J0D01*
G01*
X52775000Y-47525000D01*
G75*
G02*
X52875000Y-47625000I0J-100000D01*
G01*
G37*
G36*
G01*
X52875000Y-48275000D02*
X52875000Y-48475000D01*
G75*
G02*
X52775000Y-48575000I-100000J0D01*
G01*
X51525000Y-48575000D01*
G75*
G02*
X51425000Y-48475000I0J100000D01*
G01*
X51425000Y-48275000D01*
G75*
G02*
X51525000Y-48175000I100000J0D01*
G01*
X52775000Y-48175000D01*
G75*
G02*
X52875000Y-48275000I0J-100000D01*
G01*
G37*
%TD*%
D11*
%TO.C,U3*%
X29100000Y-40650000D03*
X29100000Y-38750000D03*
X31800000Y-38750000D03*
X31800000Y-39700000D03*
X31800000Y-40650000D03*
%TD*%
%TO.C,R10*%
G36*
G01*
X48525000Y-51574999D02*
X48525000Y-54425001D01*
G75*
G02*
X48275001Y-54675000I-249999J0D01*
G01*
X47249999Y-54675000D01*
G75*
G02*
X47000000Y-54425001I0J249999D01*
G01*
X47000000Y-51574999D01*
G75*
G02*
X47249999Y-51325000I249999J0D01*
G01*
X48275001Y-51325000D01*
G75*
G02*
X48525000Y-51574999I0J-249999D01*
G01*
G37*
G36*
G01*
X54500000Y-51574999D02*
X54500000Y-54425001D01*
G75*
G02*
X54250001Y-54675000I-249999J0D01*
G01*
X53224999Y-54675000D01*
G75*
G02*
X52975000Y-54425001I0J249999D01*
G01*
X52975000Y-51574999D01*
G75*
G02*
X53224999Y-51325000I249999J0D01*
G01*
X54250001Y-51325000D01*
G75*
G02*
X54500000Y-51574999I0J-249999D01*
G01*
G37*
%TD*%
%TO.C,R9*%
G36*
G01*
X61500000Y-52737500D02*
X61500000Y-52262500D01*
G75*
G02*
X61737500Y-52025000I237500J0D01*
G01*
X62312500Y-52025000D01*
G75*
G02*
X62550000Y-52262500I0J-237500D01*
G01*
X62550000Y-52737500D01*
G75*
G02*
X62312500Y-52975000I-237500J0D01*
G01*
X61737500Y-52975000D01*
G75*
G02*
X61500000Y-52737500I0J237500D01*
G01*
G37*
G36*
G01*
X59750000Y-52737500D02*
X59750000Y-52262500D01*
G75*
G02*
X59987500Y-52025000I237500J0D01*
G01*
X60562500Y-52025000D01*
G75*
G02*
X60800000Y-52262500I0J-237500D01*
G01*
X60800000Y-52737500D01*
G75*
G02*
X60562500Y-52975000I-237500J0D01*
G01*
X59987500Y-52975000D01*
G75*
G02*
X59750000Y-52737500I0J237500D01*
G01*
G37*
%TD*%
%TO.C,R8*%
G36*
G01*
X32850000Y-47450001D02*
X32850000Y-46549999D01*
G75*
G02*
X33099999Y-46300000I249999J0D01*
G01*
X33750001Y-46300000D01*
G75*
G02*
X34000000Y-46549999I0J-249999D01*
G01*
X34000000Y-47450001D01*
G75*
G02*
X33750001Y-47700000I-249999J0D01*
G01*
X33099999Y-47700000D01*
G75*
G02*
X32850000Y-47450001I0J249999D01*
G01*
G37*
G36*
G01*
X30800000Y-47450001D02*
X30800000Y-46549999D01*
G75*
G02*
X31049999Y-46300000I249999J0D01*
G01*
X31700001Y-46300000D01*
G75*
G02*
X31950000Y-46549999I0J-249999D01*
G01*
X31950000Y-47450001D01*
G75*
G02*
X31700001Y-47700000I-249999J0D01*
G01*
X31049999Y-47700000D01*
G75*
G02*
X30800000Y-47450001I0J249999D01*
G01*
G37*
%TD*%
%TO.C,R7*%
G36*
G01*
X56762500Y-46550000D02*
X57237500Y-46550000D01*
G75*
G02*
X57475000Y-46787500I0J-237500D01*
G01*
X57475000Y-47362500D01*
G75*
G02*
X57237500Y-47600000I-237500J0D01*
G01*
X56762500Y-47600000D01*
G75*
G02*
X56525000Y-47362500I0J237500D01*
G01*
X56525000Y-46787500D01*
G75*
G02*
X56762500Y-46550000I237500J0D01*
G01*
G37*
G36*
G01*
X56762500Y-44800000D02*
X57237500Y-44800000D01*
G75*
G02*
X57475000Y-45037500I0J-237500D01*
G01*
X57475000Y-45612500D01*
G75*
G02*
X57237500Y-45850000I-237500J0D01*
G01*
X56762500Y-45850000D01*
G75*
G02*
X56525000Y-45612500I0J237500D01*
G01*
X56525000Y-45037500D01*
G75*
G02*
X56762500Y-44800000I237500J0D01*
G01*
G37*
%TD*%
%TO.C,Q1*%
G36*
G01*
X40700000Y-45155000D02*
X40700000Y-45455000D01*
G75*
G02*
X40550000Y-45605000I-150000J0D01*
G01*
X38900000Y-45605000D01*
G75*
G02*
X38750000Y-45455000I0J150000D01*
G01*
X38750000Y-45155000D01*
G75*
G02*
X38900000Y-45005000I150000J0D01*
G01*
X40550000Y-45005000D01*
G75*
G02*
X40700000Y-45155000I0J-150000D01*
G01*
G37*
G36*
G01*
X40700000Y-43885000D02*
X40700000Y-44185000D01*
G75*
G02*
X40550000Y-44335000I-150000J0D01*
G01*
X38900000Y-44335000D01*
G75*
G02*
X38750000Y-44185000I0J150000D01*
G01*
X38750000Y-43885000D01*
G75*
G02*
X38900000Y-43735000I150000J0D01*
G01*
X40550000Y-43735000D01*
G75*
G02*
X40700000Y-43885000I0J-150000D01*
G01*
G37*
G36*
G01*
X40700000Y-42615000D02*
X40700000Y-42915000D01*
G75*
G02*
X40550000Y-43065000I-150000J0D01*
G01*
X38900000Y-43065000D01*
G75*
G02*
X38750000Y-42915000I0J150000D01*
G01*
X38750000Y-42615000D01*
G75*
G02*
X38900000Y-42465000I150000J0D01*
G01*
X40550000Y-42465000D01*
G75*
G02*
X40700000Y-42615000I0J-150000D01*
G01*
G37*
G36*
G01*
X40700000Y-41345000D02*
X40700000Y-41645000D01*
G75*
G02*
X40550000Y-41795000I-150000J0D01*
G01*
X38900000Y-41795000D01*
G75*
G02*
X38750000Y-41645000I0J150000D01*
G01*
X38750000Y-41345000D01*
G75*
G02*
X38900000Y-41195000I150000J0D01*
G01*
X40550000Y-41195000D01*
G75*
G02*
X40700000Y-41345000I0J-150000D01*
G01*
G37*
G36*
G01*
X45650000Y-41345000D02*
X45650000Y-41645000D01*
G75*
G02*
X45500000Y-41795000I-150000J0D01*
G01*
X43850000Y-41795000D01*
G75*
G02*
X43700000Y-41645000I0J150000D01*
G01*
X43700000Y-41345000D01*
G75*
G02*
X43850000Y-41195000I150000J0D01*
G01*
X45500000Y-41195000D01*
G75*
G02*
X45650000Y-41345000I0J-150000D01*
G01*
G37*
G36*
G01*
X45650000Y-42615000D02*
X45650000Y-42915000D01*
G75*
G02*
X45500000Y-43065000I-150000J0D01*
G01*
X43850000Y-43065000D01*
G75*
G02*
X43700000Y-42915000I0J150000D01*
G01*
X43700000Y-42615000D01*
G75*
G02*
X43850000Y-42465000I150000J0D01*
G01*
X45500000Y-42465000D01*
G75*
G02*
X45650000Y-42615000I0J-150000D01*
G01*
G37*
G36*
G01*
X45650000Y-43885000D02*
X45650000Y-44185000D01*
G75*
G02*
X45500000Y-44335000I-150000J0D01*
G01*
X43850000Y-44335000D01*
G75*
G02*
X43700000Y-44185000I0J150000D01*
G01*
X43700000Y-43885000D01*
G75*
G02*
X43850000Y-43735000I150000J0D01*
G01*
X45500000Y-43735000D01*
G75*
G02*
X45650000Y-43885000I0J-150000D01*
G01*
G37*
G36*
G01*
X45650000Y-45155000D02*
X45650000Y-45455000D01*
G75*
G02*
X45500000Y-45605000I-150000J0D01*
G01*
X43850000Y-45605000D01*
G75*
G02*
X43700000Y-45455000I0J150000D01*
G01*
X43700000Y-45155000D01*
G75*
G02*
X43850000Y-45005000I150000J0D01*
G01*
X45500000Y-45005000D01*
G75*
G02*
X45650000Y-45155000I0J-150000D01*
G01*
G37*
%TD*%
%TO.C,L2*%
G36*
G01*
X36400000Y-42300000D02*
X36400000Y-40600000D01*
G75*
G02*
X36650000Y-40350000I250000J0D01*
G01*
X37400000Y-40350000D01*
G75*
G02*
X37650000Y-40600000I0J-250000D01*
G01*
X37650000Y-42300000D01*
G75*
G02*
X37400000Y-42550000I-250000J0D01*
G01*
X36650000Y-42550000D01*
G75*
G02*
X36400000Y-42300000I0J250000D01*
G01*
G37*
G36*
G01*
X34250000Y-42300000D02*
X34250000Y-40600000D01*
G75*
G02*
X34500000Y-40350000I250000J0D01*
G01*
X35250000Y-40350000D01*
G75*
G02*
X35500000Y-40600000I0J-250000D01*
G01*
X35500000Y-42300000D01*
G75*
G02*
X35250000Y-42550000I-250000J0D01*
G01*
X34500000Y-42550000D01*
G75*
G02*
X34250000Y-42300000I0J250000D01*
G01*
G37*
%TD*%
D12*
%TO.C,D5*%
X32700000Y-44200000D03*
X27700000Y-44200000D03*
%TD*%
%TO.C,D4*%
G36*
G01*
X55037500Y-45850000D02*
X54562500Y-45850000D01*
G75*
G02*
X54325000Y-45612500I0J237500D01*
G01*
X54325000Y-45037500D01*
G75*
G02*
X54562500Y-44800000I237500J0D01*
G01*
X55037500Y-44800000D01*
G75*
G02*
X55275000Y-45037500I0J-237500D01*
G01*
X55275000Y-45612500D01*
G75*
G02*
X55037500Y-45850000I-237500J0D01*
G01*
G37*
G36*
G01*
X55037500Y-47600000D02*
X54562500Y-47600000D01*
G75*
G02*
X54325000Y-47362500I0J237500D01*
G01*
X54325000Y-46787500D01*
G75*
G02*
X54562500Y-46550000I237500J0D01*
G01*
X55037500Y-46550000D01*
G75*
G02*
X55275000Y-46787500I0J-237500D01*
G01*
X55275000Y-47362500D01*
G75*
G02*
X55037500Y-47600000I-237500J0D01*
G01*
G37*
%TD*%
%TO.C,D3*%
X63850000Y-49850000D03*
X58850000Y-49850000D03*
%TD*%
%TO.C,C14*%
G36*
G01*
X26200000Y-40837500D02*
X26200000Y-40362500D01*
G75*
G02*
X26437500Y-40125000I237500J0D01*
G01*
X27012500Y-40125000D01*
G75*
G02*
X27250000Y-40362500I0J-237500D01*
G01*
X27250000Y-40837500D01*
G75*
G02*
X27012500Y-41075000I-237500J0D01*
G01*
X26437500Y-41075000D01*
G75*
G02*
X26200000Y-40837500I0J237500D01*
G01*
G37*
G36*
G01*
X24450000Y-40837500D02*
X24450000Y-40362500D01*
G75*
G02*
X24687500Y-40125000I237500J0D01*
G01*
X25262500Y-40125000D01*
G75*
G02*
X25500000Y-40362500I0J-237500D01*
G01*
X25500000Y-40837500D01*
G75*
G02*
X25262500Y-41075000I-237500J0D01*
G01*
X24687500Y-41075000D01*
G75*
G02*
X24450000Y-40837500I0J237500D01*
G01*
G37*
%TD*%
%TO.C,C12*%
G36*
G01*
X26150000Y-38937500D02*
X26150000Y-38462500D01*
G75*
G02*
X26387500Y-38225000I237500J0D01*
G01*
X26962500Y-38225000D01*
G75*
G02*
X27200000Y-38462500I0J-237500D01*
G01*
X27200000Y-38937500D01*
G75*
G02*
X26962500Y-39175000I-237500J0D01*
G01*
X26387500Y-39175000D01*
G75*
G02*
X26150000Y-38937500I0J237500D01*
G01*
G37*
G36*
G01*
X24400000Y-38937500D02*
X24400000Y-38462500D01*
G75*
G02*
X24637500Y-38225000I237500J0D01*
G01*
X25212500Y-38225000D01*
G75*
G02*
X25450000Y-38462500I0J-237500D01*
G01*
X25450000Y-38937500D01*
G75*
G02*
X25212500Y-39175000I-237500J0D01*
G01*
X24637500Y-39175000D01*
G75*
G02*
X24400000Y-38937500I0J237500D01*
G01*
G37*
%TD*%
%TO.C,C11*%
G36*
G01*
X26150000Y-37037500D02*
X26150000Y-36562500D01*
G75*
G02*
X26387500Y-36325000I237500J0D01*
G01*
X26962500Y-36325000D01*
G75*
G02*
X27200000Y-36562500I0J-237500D01*
G01*
X27200000Y-37037500D01*
G75*
G02*
X26962500Y-37275000I-237500J0D01*
G01*
X26387500Y-37275000D01*
G75*
G02*
X26150000Y-37037500I0J237500D01*
G01*
G37*
G36*
G01*
X24400000Y-37037500D02*
X24400000Y-36562500D01*
G75*
G02*
X24637500Y-36325000I237500J0D01*
G01*
X25212500Y-36325000D01*
G75*
G02*
X25450000Y-36562500I0J-237500D01*
G01*
X25450000Y-37037500D01*
G75*
G02*
X25212500Y-37275000I-237500J0D01*
G01*
X24637500Y-37275000D01*
G75*
G02*
X24400000Y-37037500I0J237500D01*
G01*
G37*
%TD*%
%TO.C,C10*%
G36*
G01*
X27900000Y-47237500D02*
X27900000Y-46762500D01*
G75*
G02*
X28137500Y-46525000I237500J0D01*
G01*
X28712500Y-46525000D01*
G75*
G02*
X28950000Y-46762500I0J-237500D01*
G01*
X28950000Y-47237500D01*
G75*
G02*
X28712500Y-47475000I-237500J0D01*
G01*
X28137500Y-47475000D01*
G75*
G02*
X27900000Y-47237500I0J237500D01*
G01*
G37*
G36*
G01*
X26150000Y-47237500D02*
X26150000Y-46762500D01*
G75*
G02*
X26387500Y-46525000I237500J0D01*
G01*
X26962500Y-46525000D01*
G75*
G02*
X27200000Y-46762500I0J-237500D01*
G01*
X27200000Y-47237500D01*
G75*
G02*
X26962500Y-47475000I-237500J0D01*
G01*
X26387500Y-47475000D01*
G75*
G02*
X26150000Y-47237500I0J237500D01*
G01*
G37*
%TD*%
D13*
%TO.C,D1*%
X54800000Y-18800000D03*
X57600000Y-18800000D03*
%TD*%
%TO.C,R4*%
G36*
G01*
X30062500Y-23525000D02*
X30537500Y-23525000D01*
G75*
G02*
X30775000Y-23762500I0J-237500D01*
G01*
X30775000Y-24262500D01*
G75*
G02*
X30537500Y-24500000I-237500J0D01*
G01*
X30062500Y-24500000D01*
G75*
G02*
X29825000Y-24262500I0J237500D01*
G01*
X29825000Y-23762500D01*
G75*
G02*
X30062500Y-23525000I237500J0D01*
G01*
G37*
G36*
G01*
X30062500Y-21700000D02*
X30537500Y-21700000D01*
G75*
G02*
X30775000Y-21937500I0J-237500D01*
G01*
X30775000Y-22437500D01*
G75*
G02*
X30537500Y-22675000I-237500J0D01*
G01*
X30062500Y-22675000D01*
G75*
G02*
X29825000Y-22437500I0J237500D01*
G01*
X29825000Y-21937500D01*
G75*
G02*
X30062500Y-21700000I237500J0D01*
G01*
G37*
%TD*%
%TO.C,D2*%
G36*
G01*
X30537500Y-26550000D02*
X30062500Y-26550000D01*
G75*
G02*
X29825000Y-26312500I0J237500D01*
G01*
X29825000Y-25737500D01*
G75*
G02*
X30062500Y-25500000I237500J0D01*
G01*
X30537500Y-25500000D01*
G75*
G02*
X30775000Y-25737500I0J-237500D01*
G01*
X30775000Y-26312500D01*
G75*
G02*
X30537500Y-26550000I-237500J0D01*
G01*
G37*
G36*
G01*
X30537500Y-28300000D02*
X30062500Y-28300000D01*
G75*
G02*
X29825000Y-28062500I0J237500D01*
G01*
X29825000Y-27487500D01*
G75*
G02*
X30062500Y-27250000I237500J0D01*
G01*
X30537500Y-27250000D01*
G75*
G02*
X30775000Y-27487500I0J-237500D01*
G01*
X30775000Y-28062500D01*
G75*
G02*
X30537500Y-28300000I-237500J0D01*
G01*
G37*
%TD*%
%TO.C,C1*%
G36*
G01*
X44062500Y-23475000D02*
X44537500Y-23475000D01*
G75*
G02*
X44775000Y-23712500I0J-237500D01*
G01*
X44775000Y-24312500D01*
G75*
G02*
X44537500Y-24550000I-237500J0D01*
G01*
X44062500Y-24550000D01*
G75*
G02*
X43825000Y-24312500I0J237500D01*
G01*
X43825000Y-23712500D01*
G75*
G02*
X44062500Y-23475000I237500J0D01*
G01*
G37*
G36*
G01*
X44062500Y-21750000D02*
X44537500Y-21750000D01*
G75*
G02*
X44775000Y-21987500I0J-237500D01*
G01*
X44775000Y-22587500D01*
G75*
G02*
X44537500Y-22825000I-237500J0D01*
G01*
X44062500Y-22825000D01*
G75*
G02*
X43825000Y-22587500I0J237500D01*
G01*
X43825000Y-21987500D01*
G75*
G02*
X44062500Y-21750000I237500J0D01*
G01*
G37*
%TD*%
%TO.C,12V*%
G36*
G01*
X56237500Y-28075000D02*
X55762500Y-28075000D01*
G75*
G02*
X55525000Y-27837500I0J237500D01*
G01*
X55525000Y-27337500D01*
G75*
G02*
X55762500Y-27100000I237500J0D01*
G01*
X56237500Y-27100000D01*
G75*
G02*
X56475000Y-27337500I0J-237500D01*
G01*
X56475000Y-27837500D01*
G75*
G02*
X56237500Y-28075000I-237500J0D01*
G01*
G37*
G36*
G01*
X56237500Y-29900000D02*
X55762500Y-29900000D01*
G75*
G02*
X55525000Y-29662500I0J237500D01*
G01*
X55525000Y-29162500D01*
G75*
G02*
X55762500Y-28925000I237500J0D01*
G01*
X56237500Y-28925000D01*
G75*
G02*
X56475000Y-29162500I0J-237500D01*
G01*
X56475000Y-29662500D01*
G75*
G02*
X56237500Y-29900000I-237500J0D01*
G01*
G37*
%TD*%
D14*
%TO.C,U2*%
X71450000Y-46250000D03*
X71450000Y-45250000D03*
D15*
X71450000Y-47250000D03*
X71450000Y-44250000D03*
D16*
X71450000Y-48500000D03*
X71450000Y-43000000D03*
%TD*%
D17*
%TO.C,U1*%
X46552500Y-23895000D03*
X46552500Y-25165000D03*
X46552500Y-26435000D03*
X46552500Y-27705000D03*
X51547500Y-27705000D03*
X51547500Y-26435000D03*
X51547500Y-25165000D03*
X51547500Y-23895000D03*
D18*
X49050000Y-25800000D03*
%TD*%
%TO.C,R6*%
G36*
G01*
X76562500Y-43975000D02*
X77037500Y-43975000D01*
G75*
G02*
X77275000Y-44212500I0J-237500D01*
G01*
X77275000Y-44712500D01*
G75*
G02*
X77037500Y-44950000I-237500J0D01*
G01*
X76562500Y-44950000D01*
G75*
G02*
X76325000Y-44712500I0J237500D01*
G01*
X76325000Y-44212500D01*
G75*
G02*
X76562500Y-43975000I237500J0D01*
G01*
G37*
G36*
G01*
X76562500Y-42150000D02*
X77037500Y-42150000D01*
G75*
G02*
X77275000Y-42387500I0J-237500D01*
G01*
X77275000Y-42887500D01*
G75*
G02*
X77037500Y-43125000I-237500J0D01*
G01*
X76562500Y-43125000D01*
G75*
G02*
X76325000Y-42887500I0J237500D01*
G01*
X76325000Y-42387500D01*
G75*
G02*
X76562500Y-42150000I237500J0D01*
G01*
G37*
%TD*%
%TO.C,R5*%
G36*
G01*
X77037500Y-47325000D02*
X76562500Y-47325000D01*
G75*
G02*
X76325000Y-47087500I0J237500D01*
G01*
X76325000Y-46587500D01*
G75*
G02*
X76562500Y-46350000I237500J0D01*
G01*
X77037500Y-46350000D01*
G75*
G02*
X77275000Y-46587500I0J-237500D01*
G01*
X77275000Y-47087500D01*
G75*
G02*
X77037500Y-47325000I-237500J0D01*
G01*
G37*
G36*
G01*
X77037500Y-49150000D02*
X76562500Y-49150000D01*
G75*
G02*
X76325000Y-48912500I0J237500D01*
G01*
X76325000Y-48412500D01*
G75*
G02*
X76562500Y-48175000I237500J0D01*
G01*
X77037500Y-48175000D01*
G75*
G02*
X77275000Y-48412500I0J-237500D01*
G01*
X77275000Y-48912500D01*
G75*
G02*
X77037500Y-49150000I-237500J0D01*
G01*
G37*
%TD*%
%TO.C,R2*%
G36*
G01*
X55612500Y-23425000D02*
X56087500Y-23425000D01*
G75*
G02*
X56325000Y-23662500I0J-237500D01*
G01*
X56325000Y-24162500D01*
G75*
G02*
X56087500Y-24400000I-237500J0D01*
G01*
X55612500Y-24400000D01*
G75*
G02*
X55375000Y-24162500I0J237500D01*
G01*
X55375000Y-23662500D01*
G75*
G02*
X55612500Y-23425000I237500J0D01*
G01*
G37*
G36*
G01*
X55612500Y-21600000D02*
X56087500Y-21600000D01*
G75*
G02*
X56325000Y-21837500I0J-237500D01*
G01*
X56325000Y-22337500D01*
G75*
G02*
X56087500Y-22575000I-237500J0D01*
G01*
X55612500Y-22575000D01*
G75*
G02*
X55375000Y-22337500I0J237500D01*
G01*
X55375000Y-21837500D01*
G75*
G02*
X55612500Y-21600000I237500J0D01*
G01*
G37*
%TD*%
%TO.C,R1*%
G36*
G01*
X44162500Y-29125000D02*
X44637500Y-29125000D01*
G75*
G02*
X44875000Y-29362500I0J-237500D01*
G01*
X44875000Y-29862500D01*
G75*
G02*
X44637500Y-30100000I-237500J0D01*
G01*
X44162500Y-30100000D01*
G75*
G02*
X43925000Y-29862500I0J237500D01*
G01*
X43925000Y-29362500D01*
G75*
G02*
X44162500Y-29125000I237500J0D01*
G01*
G37*
G36*
G01*
X44162500Y-27300000D02*
X44637500Y-27300000D01*
G75*
G02*
X44875000Y-27537500I0J-237500D01*
G01*
X44875000Y-28037500D01*
G75*
G02*
X44637500Y-28275000I-237500J0D01*
G01*
X44162500Y-28275000D01*
G75*
G02*
X43925000Y-28037500I0J237500D01*
G01*
X43925000Y-27537500D01*
G75*
G02*
X44162500Y-27300000I237500J0D01*
G01*
G37*
%TD*%
%TO.C,C7*%
G36*
G01*
X57512500Y-23325000D02*
X57987500Y-23325000D01*
G75*
G02*
X58225000Y-23562500I0J-237500D01*
G01*
X58225000Y-24162500D01*
G75*
G02*
X57987500Y-24400000I-237500J0D01*
G01*
X57512500Y-24400000D01*
G75*
G02*
X57275000Y-24162500I0J237500D01*
G01*
X57275000Y-23562500D01*
G75*
G02*
X57512500Y-23325000I237500J0D01*
G01*
G37*
G36*
G01*
X57512500Y-21600000D02*
X57987500Y-21600000D01*
G75*
G02*
X58225000Y-21837500I0J-237500D01*
G01*
X58225000Y-22437500D01*
G75*
G02*
X57987500Y-22675000I-237500J0D01*
G01*
X57512500Y-22675000D01*
G75*
G02*
X57275000Y-22437500I0J237500D01*
G01*
X57275000Y-21837500D01*
G75*
G02*
X57512500Y-21600000I237500J0D01*
G01*
G37*
%TD*%
%TO.C,C6*%
G36*
G01*
X54262500Y-27025000D02*
X54737500Y-27025000D01*
G75*
G02*
X54975000Y-27262500I0J-237500D01*
G01*
X54975000Y-27862500D01*
G75*
G02*
X54737500Y-28100000I-237500J0D01*
G01*
X54262500Y-28100000D01*
G75*
G02*
X54025000Y-27862500I0J237500D01*
G01*
X54025000Y-27262500D01*
G75*
G02*
X54262500Y-27025000I237500J0D01*
G01*
G37*
G36*
G01*
X54262500Y-25300000D02*
X54737500Y-25300000D01*
G75*
G02*
X54975000Y-25537500I0J-237500D01*
G01*
X54975000Y-26137500D01*
G75*
G02*
X54737500Y-26375000I-237500J0D01*
G01*
X54262500Y-26375000D01*
G75*
G02*
X54025000Y-26137500I0J237500D01*
G01*
X54025000Y-25537500D01*
G75*
G02*
X54262500Y-25300000I237500J0D01*
G01*
G37*
%TD*%
%TO.C,C5*%
G36*
G01*
X41175000Y-27562500D02*
X41175000Y-28037500D01*
G75*
G02*
X40937500Y-28275000I-237500J0D01*
G01*
X40337500Y-28275000D01*
G75*
G02*
X40100000Y-28037500I0J237500D01*
G01*
X40100000Y-27562500D01*
G75*
G02*
X40337500Y-27325000I237500J0D01*
G01*
X40937500Y-27325000D01*
G75*
G02*
X41175000Y-27562500I0J-237500D01*
G01*
G37*
G36*
G01*
X42900000Y-27562500D02*
X42900000Y-28037500D01*
G75*
G02*
X42662500Y-28275000I-237500J0D01*
G01*
X42062500Y-28275000D01*
G75*
G02*
X41825000Y-28037500I0J237500D01*
G01*
X41825000Y-27562500D01*
G75*
G02*
X42062500Y-27325000I237500J0D01*
G01*
X42662500Y-27325000D01*
G75*
G02*
X42900000Y-27562500I0J-237500D01*
G01*
G37*
%TD*%
%TO.C,C4*%
G36*
G01*
X41175000Y-29362500D02*
X41175000Y-29837500D01*
G75*
G02*
X40937500Y-30075000I-237500J0D01*
G01*
X40337500Y-30075000D01*
G75*
G02*
X40100000Y-29837500I0J237500D01*
G01*
X40100000Y-29362500D01*
G75*
G02*
X40337500Y-29125000I237500J0D01*
G01*
X40937500Y-29125000D01*
G75*
G02*
X41175000Y-29362500I0J-237500D01*
G01*
G37*
G36*
G01*
X42900000Y-29362500D02*
X42900000Y-29837500D01*
G75*
G02*
X42662500Y-30075000I-237500J0D01*
G01*
X42062500Y-30075000D01*
G75*
G02*
X41825000Y-29837500I0J237500D01*
G01*
X41825000Y-29362500D01*
G75*
G02*
X42062500Y-29125000I237500J0D01*
G01*
X42662500Y-29125000D01*
G75*
G02*
X42900000Y-29362500I0J-237500D01*
G01*
G37*
%TD*%
%TO.C,C2*%
G36*
G01*
X42162500Y-23475000D02*
X42637500Y-23475000D01*
G75*
G02*
X42875000Y-23712500I0J-237500D01*
G01*
X42875000Y-24312500D01*
G75*
G02*
X42637500Y-24550000I-237500J0D01*
G01*
X42162500Y-24550000D01*
G75*
G02*
X41925000Y-24312500I0J237500D01*
G01*
X41925000Y-23712500D01*
G75*
G02*
X42162500Y-23475000I237500J0D01*
G01*
G37*
G36*
G01*
X42162500Y-21750000D02*
X42637500Y-21750000D01*
G75*
G02*
X42875000Y-21987500I0J-237500D01*
G01*
X42875000Y-22587500D01*
G75*
G02*
X42637500Y-22825000I-237500J0D01*
G01*
X42162500Y-22825000D01*
G75*
G02*
X41925000Y-22587500I0J237500D01*
G01*
X41925000Y-21987500D01*
G75*
G02*
X42162500Y-21750000I237500J0D01*
G01*
G37*
%TD*%
M02*
