%TF.GenerationSoftware,KiCad,Pcbnew,(5.1.6-0-10_14)*%
%TF.CreationDate,2022-04-17T17:35:50+02:00*%
%TF.ProjectId,smoke_extractor,736d6f6b-655f-4657-9874-726163746f72,rev?*%
%TF.SameCoordinates,Original*%
%TF.FileFunction,Soldermask,Bot*%
%TF.FilePolarity,Negative*%
%FSLAX46Y46*%
G04 Gerber Fmt 4.6, Leading zero omitted, Abs format (unit mm)*
G04 Created by KiCad (PCBNEW (5.1.6-0-10_14)) date 2022-04-17 17:35:50*
%MOMM*%
%LPD*%
G01*
G04 APERTURE LIST*
%ADD10R,1.700000X1.700000*%
%ADD11C,1.600000*%
%ADD12R,1.600000X1.600000*%
%ADD13R,3.000000X3.000000*%
%ADD14C,1.524000*%
%ADD15C,2.200000*%
%ADD16C,0.800000*%
%ADD17C,6.400000*%
%ADD18C,0.100000*%
G04 APERTURE END LIST*
D10*
%TO.C,JPe*%
X66050000Y-41720000D03*
X66050000Y-44260000D03*
X66050000Y-46800000D03*
%TD*%
D11*
%TO.C,C13*%
X51700000Y-42350000D03*
D12*
X49200000Y-42350000D03*
%TD*%
D11*
%TO.C,C9*%
X54900000Y-41400000D03*
D12*
X57400000Y-41400000D03*
%TD*%
D13*
%TO.C,J3*%
X73400000Y-37030000D03*
X73400000Y-31950000D03*
%TD*%
D14*
%TO.C,SW2*%
X56000000Y-32800000D03*
X58000000Y-32800000D03*
X60000000Y-32800000D03*
D15*
X62100000Y-32800000D03*
D14*
X52000000Y-32800000D03*
D15*
X49900000Y-32800000D03*
%TD*%
D13*
%TO.C,J2*%
X38420000Y-50700000D03*
X43500000Y-50700000D03*
%TD*%
%TO.C,J1*%
X73400000Y-26380000D03*
X73400000Y-21300000D03*
%TD*%
D16*
%TO.C,H2*%
X44647056Y-33802944D03*
X42950000Y-33100000D03*
X41252944Y-33802944D03*
X40550000Y-35500000D03*
X41252944Y-37197056D03*
X42950000Y-37900000D03*
X44647056Y-37197056D03*
X45350000Y-35500000D03*
D17*
X42950000Y-35500000D03*
%TD*%
D11*
%TO.C,C3*%
X36250000Y-25650000D03*
D12*
X36250000Y-22150000D03*
%TD*%
D18*
%TO.C,U2*%
G36*
X72500000Y-50550000D02*
G01*
X72500000Y-49550000D01*
X74200000Y-49550000D01*
X74200000Y-50550000D01*
X72500000Y-50550000D01*
G37*
G36*
X72500000Y-42000000D02*
G01*
X72500000Y-41000000D01*
X74200000Y-41000000D01*
X74200000Y-42000000D01*
X72500000Y-42000000D01*
G37*
%TD*%
%TO.C,SW1*%
G36*
X25850000Y-34300000D02*
G01*
X18850000Y-34300000D01*
X18850000Y-31300000D01*
X25850000Y-31300000D01*
X25850000Y-34300000D01*
G37*
G36*
X25850000Y-27300000D02*
G01*
X18850000Y-27300000D01*
X18850000Y-24300000D01*
X25850000Y-24300000D01*
X25850000Y-27300000D01*
G37*
G36*
X25850000Y-20300000D02*
G01*
X18850000Y-20300000D01*
X18850000Y-17300000D01*
X25850000Y-17300000D01*
X25850000Y-20300000D01*
G37*
%TD*%
D11*
%TO.C,C8*%
X64200000Y-25300000D03*
D12*
X64200000Y-21800000D03*
%TD*%
M02*
