%TF.GenerationSoftware,KiCad,Pcbnew,(5.1.9)-1*%
%TF.CreationDate,2021-11-10T21:50:44+01:00*%
%TF.ProjectId,smoke_extractor,736d6f6b-655f-4657-9874-726163746f72,rev?*%
%TF.SameCoordinates,Original*%
%TF.FileFunction,Copper,L2,Bot*%
%TF.FilePolarity,Positive*%
%FSLAX46Y46*%
G04 Gerber Fmt 4.6, Leading zero omitted, Abs format (unit mm)*
G04 Created by KiCad (PCBNEW (5.1.9)-1) date 2021-11-10 21:50:44*
%MOMM*%
%LPD*%
G01*
G04 APERTURE LIST*
%TA.AperFunction,ComponentPad*%
%ADD10C,0.800000*%
%TD*%
%TA.AperFunction,ComponentPad*%
%ADD11C,6.400000*%
%TD*%
%TA.AperFunction,ComponentPad*%
%ADD12O,2.000000X1.700000*%
%TD*%
%TA.AperFunction,ComponentPad*%
%ADD13O,1.700000X2.000000*%
%TD*%
%TA.AperFunction,ComponentPad*%
%ADD14C,1.600000*%
%TD*%
%TA.AperFunction,ComponentPad*%
%ADD15R,1.600000X1.600000*%
%TD*%
%TA.AperFunction,ComponentPad*%
%ADD16C,0.100000*%
%TD*%
%TA.AperFunction,ViaPad*%
%ADD17C,0.600000*%
%TD*%
%TA.AperFunction,Conductor*%
%ADD18C,0.300000*%
%TD*%
%TA.AperFunction,Conductor*%
%ADD19C,0.254000*%
%TD*%
%TA.AperFunction,Conductor*%
%ADD20C,0.100000*%
%TD*%
G04 APERTURE END LIST*
D10*
%TO.P,H2,1*%
%TO.N,GND*%
X145397056Y-71302944D03*
X143700000Y-70600000D03*
X142002944Y-71302944D03*
X141300000Y-73000000D03*
X142002944Y-74697056D03*
X143700000Y-75400000D03*
X145397056Y-74697056D03*
X146100000Y-73000000D03*
D11*
X143700000Y-73000000D03*
%TD*%
D12*
%TO.P,J3,2*%
%TO.N,GND*%
X144500000Y-81900000D03*
%TO.P,J3,1*%
%TO.N,12V*%
%TA.AperFunction,ComponentPad*%
G36*
G01*
X145250000Y-85250000D02*
X143750000Y-85250000D01*
G75*
G02*
X143500000Y-85000000I0J250000D01*
G01*
X143500000Y-83800000D01*
G75*
G02*
X143750000Y-83550000I250000J0D01*
G01*
X145250000Y-83550000D01*
G75*
G02*
X145500000Y-83800000I0J-250000D01*
G01*
X145500000Y-85000000D01*
G75*
G02*
X145250000Y-85250000I-250000J0D01*
G01*
G37*
%TD.AperFunction*%
%TD*%
D13*
%TO.P,J2,2*%
%TO.N,GND*%
X128200000Y-72300000D03*
%TO.P,J2,1*%
%TO.N,12V*%
%TA.AperFunction,ComponentPad*%
G36*
G01*
X131550000Y-71550000D02*
X131550000Y-73050000D01*
G75*
G02*
X131300000Y-73300000I-250000J0D01*
G01*
X130100000Y-73300000D01*
G75*
G02*
X129850000Y-73050000I0J250000D01*
G01*
X129850000Y-71550000D01*
G75*
G02*
X130100000Y-71300000I250000J0D01*
G01*
X131300000Y-71300000D01*
G75*
G02*
X131550000Y-71550000I0J-250000D01*
G01*
G37*
%TD.AperFunction*%
%TD*%
D14*
%TO.P,C3,2*%
%TO.N,GND*%
X109750000Y-89150000D03*
D15*
%TO.P,C3,1*%
%TO.N,Net-(C1-Pad1)*%
X109750000Y-85650000D03*
%TD*%
D10*
%TO.P,H1,1*%
%TO.N,GND*%
X121197056Y-71302944D03*
X119500000Y-70600000D03*
X117802944Y-71302944D03*
X117100000Y-73000000D03*
X117802944Y-74697056D03*
X119500000Y-75400000D03*
X121197056Y-74697056D03*
X121900000Y-73000000D03*
D11*
X119500000Y-73000000D03*
%TD*%
%TA.AperFunction,ComponentPad*%
D16*
%TO.P,U2,SHELL*%
%TO.N,GND*%
G36*
X97500000Y-84700000D02*
G01*
X97500000Y-85700000D01*
X95800000Y-85700000D01*
X95800000Y-84700000D01*
X97500000Y-84700000D01*
G37*
%TD.AperFunction*%
%TA.AperFunction,ComponentPad*%
G36*
X97500000Y-93250000D02*
G01*
X97500000Y-94250000D01*
X95800000Y-94250000D01*
X95800000Y-93250000D01*
X97500000Y-93250000D01*
G37*
%TD.AperFunction*%
%TD*%
%TA.AperFunction,ComponentPad*%
%TO.P,SW1,1*%
%TO.N,+5V*%
G36*
X95300000Y-79450000D02*
G01*
X95300000Y-72450000D01*
X98300000Y-72450000D01*
X98300000Y-79450000D01*
X95300000Y-79450000D01*
G37*
%TD.AperFunction*%
%TA.AperFunction,ComponentPad*%
%TO.P,SW1,2*%
%TO.N,Net-(C1-Pad1)*%
G36*
X102300000Y-79450000D02*
G01*
X102300000Y-72450000D01*
X105300000Y-72450000D01*
X105300000Y-79450000D01*
X102300000Y-79450000D01*
G37*
%TD.AperFunction*%
%TA.AperFunction,ComponentPad*%
%TO.P,SW1,3*%
%TO.N,N/C*%
G36*
X109300000Y-79450000D02*
G01*
X109300000Y-72450000D01*
X112300000Y-72450000D01*
X112300000Y-79450000D01*
X109300000Y-79450000D01*
G37*
%TD.AperFunction*%
%TD*%
D14*
%TO.P,C8,2*%
%TO.N,GND*%
X136850000Y-89100000D03*
D15*
%TO.P,C8,1*%
%TO.N,12V*%
X136850000Y-85600000D03*
%TD*%
D17*
%TO.N,GND*%
X121900000Y-80700000D03*
X122800000Y-80700000D03*
X122800000Y-81700000D03*
X121900000Y-81700000D03*
X122800000Y-82700000D03*
X121900000Y-82700000D03*
X122800000Y-83700000D03*
X121900000Y-83700000D03*
X121900000Y-84800000D03*
X122800000Y-84800000D03*
X122800000Y-85800000D03*
X121900000Y-85800000D03*
X122800000Y-79700000D03*
X121900000Y-79700000D03*
X122800000Y-86900000D03*
X121900000Y-86900000D03*
X122800000Y-87900000D03*
X121900000Y-87900000D03*
X122800000Y-89000000D03*
X121900000Y-90000000D03*
X121900000Y-89000000D03*
X122800000Y-90000000D03*
X121900000Y-91200000D03*
X122800000Y-92200000D03*
X122800000Y-91200000D03*
X121900000Y-92200000D03*
X121900000Y-94200000D03*
X121900000Y-93200000D03*
X122800000Y-94200000D03*
X122800000Y-93200000D03*
X123900000Y-93200000D03*
X124800000Y-93200000D03*
X123900000Y-94200000D03*
X124800000Y-94200000D03*
X119900000Y-94200000D03*
X120800000Y-94200000D03*
X120800000Y-93200000D03*
X119900000Y-93200000D03*
X126800000Y-94200000D03*
X126800000Y-93200000D03*
X125900000Y-94200000D03*
X125900000Y-93200000D03*
X122800000Y-78700000D03*
X121900000Y-77700000D03*
X121900000Y-78700000D03*
X122800000Y-77700000D03*
X123900000Y-77700000D03*
X124800000Y-78700000D03*
X123900000Y-78700000D03*
X124800000Y-77700000D03*
X125900000Y-77700000D03*
X126800000Y-77700000D03*
X125900000Y-78700000D03*
X126800000Y-78700000D03*
X128700000Y-77700000D03*
X127800000Y-78700000D03*
X128700000Y-78700000D03*
X127800000Y-77700000D03*
X133200000Y-91900000D03*
X136100000Y-90900000D03*
X134100000Y-91900000D03*
X134100000Y-90900000D03*
X136100000Y-91900000D03*
X133200000Y-90900000D03*
X135200000Y-90900000D03*
X135200000Y-91900000D03*
X136100000Y-93900000D03*
X134100000Y-92900000D03*
X135200000Y-92900000D03*
X133200000Y-93900000D03*
X135200000Y-93900000D03*
X136100000Y-92900000D03*
X133200000Y-92900000D03*
X134100000Y-93900000D03*
X134100000Y-89000000D03*
X133200000Y-90000000D03*
X133200000Y-89000000D03*
X134100000Y-90000000D03*
X133200000Y-88100000D03*
X134100000Y-88100000D03*
X137200000Y-90900000D03*
X138100000Y-91900000D03*
X138100000Y-90900000D03*
X137200000Y-91900000D03*
X138100000Y-93900000D03*
X137200000Y-92900000D03*
X137200000Y-93900000D03*
X138100000Y-92900000D03*
X140100000Y-91900000D03*
X139200000Y-91900000D03*
X139200000Y-90900000D03*
X140100000Y-90900000D03*
X139200000Y-93900000D03*
X139200000Y-92900000D03*
X140100000Y-93900000D03*
X140100000Y-92900000D03*
X135200000Y-88100000D03*
X135200000Y-89000000D03*
X135200000Y-90000000D03*
X112300000Y-88300000D03*
X112300000Y-87300000D03*
X111400000Y-88300000D03*
X111400000Y-87300000D03*
X114100000Y-88300000D03*
X114100000Y-87300000D03*
X111400000Y-90300000D03*
X112300000Y-89300000D03*
X111400000Y-89300000D03*
X112300000Y-90300000D03*
X121000000Y-77700000D03*
X121000000Y-78700000D03*
X127700000Y-87750000D03*
X126800000Y-87750000D03*
%TO.N,Net-(C1-Pad1)*%
X117850000Y-84150000D03*
X117850000Y-88800000D03*
%TD*%
D18*
%TO.N,Net-(C1-Pad1)*%
X117850000Y-88650000D02*
X117850000Y-84150000D01*
%TD*%
D19*
%TO.N,GND*%
X145426304Y-69241991D02*
X145932552Y-69394836D01*
X146399476Y-69643104D01*
X146809286Y-69977336D01*
X147146371Y-70384802D01*
X147397894Y-70849985D01*
X147554271Y-71355154D01*
X147610980Y-71894707D01*
X147611001Y-71900720D01*
X147611000Y-92785863D01*
X147558009Y-93326304D01*
X147405164Y-93832552D01*
X147156896Y-94299476D01*
X146822661Y-94709288D01*
X146415198Y-95046371D01*
X145950015Y-95297894D01*
X145444846Y-95454271D01*
X144905292Y-95510980D01*
X144899567Y-95511000D01*
X94814137Y-95511000D01*
X94273696Y-95458009D01*
X93767448Y-95305164D01*
X93300524Y-95056896D01*
X92890712Y-94722661D01*
X92553629Y-94315198D01*
X92302106Y-93850015D01*
X92145729Y-93344846D01*
X92089020Y-92805292D01*
X92089000Y-92799567D01*
X92089000Y-84850000D01*
X108621418Y-84850000D01*
X108621418Y-86450000D01*
X108627732Y-86514103D01*
X108646430Y-86575743D01*
X108676794Y-86632550D01*
X108717657Y-86682343D01*
X108767450Y-86723206D01*
X108824257Y-86753570D01*
X108885897Y-86772268D01*
X108950000Y-86778582D01*
X110550000Y-86778582D01*
X110614103Y-86772268D01*
X110675743Y-86753570D01*
X110732550Y-86723206D01*
X110782343Y-86682343D01*
X110823206Y-86632550D01*
X110853570Y-86575743D01*
X110872268Y-86514103D01*
X110878582Y-86450000D01*
X110878582Y-84850000D01*
X110872268Y-84785897D01*
X110853570Y-84724257D01*
X110823206Y-84667450D01*
X110782343Y-84617657D01*
X110732550Y-84576794D01*
X110675743Y-84546430D01*
X110614103Y-84527732D01*
X110550000Y-84521418D01*
X108950000Y-84521418D01*
X108885897Y-84527732D01*
X108824257Y-84546430D01*
X108767450Y-84576794D01*
X108717657Y-84617657D01*
X108676794Y-84667450D01*
X108646430Y-84724257D01*
X108627732Y-84785897D01*
X108621418Y-84850000D01*
X92089000Y-84850000D01*
X92089000Y-84088246D01*
X117223000Y-84088246D01*
X117223000Y-84211754D01*
X117247095Y-84332889D01*
X117294360Y-84446996D01*
X117362977Y-84549689D01*
X117373001Y-84559713D01*
X117373000Y-88390288D01*
X117362977Y-88400311D01*
X117294360Y-88503004D01*
X117247095Y-88617111D01*
X117223000Y-88738246D01*
X117223000Y-88861754D01*
X117247095Y-88982889D01*
X117294360Y-89096996D01*
X117362977Y-89199689D01*
X117450311Y-89287023D01*
X117553004Y-89355640D01*
X117667111Y-89402905D01*
X117788246Y-89427000D01*
X117911754Y-89427000D01*
X118032889Y-89402905D01*
X118146996Y-89355640D01*
X118249689Y-89287023D01*
X118337023Y-89199689D01*
X118405640Y-89096996D01*
X118452905Y-88982889D01*
X118477000Y-88861754D01*
X118477000Y-88738246D01*
X118452905Y-88617111D01*
X118405640Y-88503004D01*
X118337023Y-88400311D01*
X118327000Y-88390288D01*
X118327000Y-84800000D01*
X135721418Y-84800000D01*
X135721418Y-86400000D01*
X135727732Y-86464103D01*
X135746430Y-86525743D01*
X135776794Y-86582550D01*
X135817657Y-86632343D01*
X135867450Y-86673206D01*
X135924257Y-86703570D01*
X135985897Y-86722268D01*
X136050000Y-86728582D01*
X137650000Y-86728582D01*
X137714103Y-86722268D01*
X137775743Y-86703570D01*
X137832550Y-86673206D01*
X137882343Y-86632343D01*
X137923206Y-86582550D01*
X137953570Y-86525743D01*
X137972268Y-86464103D01*
X137978582Y-86400000D01*
X137978582Y-84800000D01*
X137972268Y-84735897D01*
X137953570Y-84674257D01*
X137923206Y-84617450D01*
X137882343Y-84567657D01*
X137832550Y-84526794D01*
X137775743Y-84496430D01*
X137714103Y-84477732D01*
X137650000Y-84471418D01*
X136050000Y-84471418D01*
X135985897Y-84477732D01*
X135924257Y-84496430D01*
X135867450Y-84526794D01*
X135817657Y-84567657D01*
X135776794Y-84617450D01*
X135746430Y-84674257D01*
X135727732Y-84735897D01*
X135721418Y-84800000D01*
X118327000Y-84800000D01*
X118327000Y-84559712D01*
X118337023Y-84549689D01*
X118405640Y-84446996D01*
X118452905Y-84332889D01*
X118477000Y-84211754D01*
X118477000Y-84088246D01*
X118452905Y-83967111D01*
X118405640Y-83853004D01*
X118370224Y-83800000D01*
X143171418Y-83800000D01*
X143171418Y-85000000D01*
X143182535Y-85112876D01*
X143215460Y-85221414D01*
X143268927Y-85321443D01*
X143340881Y-85409119D01*
X143428557Y-85481073D01*
X143528586Y-85534540D01*
X143637124Y-85567465D01*
X143750000Y-85578582D01*
X145250000Y-85578582D01*
X145362876Y-85567465D01*
X145471414Y-85534540D01*
X145571443Y-85481073D01*
X145659119Y-85409119D01*
X145731073Y-85321443D01*
X145784540Y-85221414D01*
X145817465Y-85112876D01*
X145828582Y-85000000D01*
X145828582Y-83800000D01*
X145817465Y-83687124D01*
X145784540Y-83578586D01*
X145731073Y-83478557D01*
X145659119Y-83390881D01*
X145571443Y-83318927D01*
X145471414Y-83265460D01*
X145362876Y-83232535D01*
X145250000Y-83221418D01*
X143750000Y-83221418D01*
X143637124Y-83232535D01*
X143528586Y-83265460D01*
X143428557Y-83318927D01*
X143340881Y-83390881D01*
X143268927Y-83478557D01*
X143215460Y-83578586D01*
X143182535Y-83687124D01*
X143171418Y-83800000D01*
X118370224Y-83800000D01*
X118337023Y-83750311D01*
X118249689Y-83662977D01*
X118146996Y-83594360D01*
X118032889Y-83547095D01*
X117911754Y-83523000D01*
X117788246Y-83523000D01*
X117667111Y-83547095D01*
X117553004Y-83594360D01*
X117450311Y-83662977D01*
X117362977Y-83750311D01*
X117294360Y-83853004D01*
X117247095Y-83967111D01*
X117223000Y-84088246D01*
X92089000Y-84088246D01*
X92089000Y-72450000D01*
X94971418Y-72450000D01*
X94971418Y-79450000D01*
X94977732Y-79514103D01*
X94996430Y-79575743D01*
X95026794Y-79632550D01*
X95067657Y-79682343D01*
X95117450Y-79723206D01*
X95174257Y-79753570D01*
X95235897Y-79772268D01*
X95300000Y-79778582D01*
X98300000Y-79778582D01*
X98364103Y-79772268D01*
X98425743Y-79753570D01*
X98482550Y-79723206D01*
X98532343Y-79682343D01*
X98573206Y-79632550D01*
X98603570Y-79575743D01*
X98622268Y-79514103D01*
X98628582Y-79450000D01*
X98628582Y-72450000D01*
X101971418Y-72450000D01*
X101971418Y-79450000D01*
X101977732Y-79514103D01*
X101996430Y-79575743D01*
X102026794Y-79632550D01*
X102067657Y-79682343D01*
X102117450Y-79723206D01*
X102174257Y-79753570D01*
X102235897Y-79772268D01*
X102300000Y-79778582D01*
X105300000Y-79778582D01*
X105364103Y-79772268D01*
X105425743Y-79753570D01*
X105482550Y-79723206D01*
X105532343Y-79682343D01*
X105573206Y-79632550D01*
X105603570Y-79575743D01*
X105622268Y-79514103D01*
X105628582Y-79450000D01*
X105628582Y-72450000D01*
X108971418Y-72450000D01*
X108971418Y-79450000D01*
X108977732Y-79514103D01*
X108996430Y-79575743D01*
X109026794Y-79632550D01*
X109067657Y-79682343D01*
X109117450Y-79723206D01*
X109174257Y-79753570D01*
X109235897Y-79772268D01*
X109300000Y-79778582D01*
X112300000Y-79778582D01*
X112364103Y-79772268D01*
X112425743Y-79753570D01*
X112482550Y-79723206D01*
X112532343Y-79682343D01*
X112573206Y-79632550D01*
X112603570Y-79575743D01*
X112622268Y-79514103D01*
X112628582Y-79450000D01*
X112628582Y-72450000D01*
X112622268Y-72385897D01*
X112603570Y-72324257D01*
X112573206Y-72267450D01*
X112532343Y-72217657D01*
X112482550Y-72176794D01*
X112425743Y-72146430D01*
X112364103Y-72127732D01*
X112300000Y-72121418D01*
X109300000Y-72121418D01*
X109235897Y-72127732D01*
X109174257Y-72146430D01*
X109117450Y-72176794D01*
X109067657Y-72217657D01*
X109026794Y-72267450D01*
X108996430Y-72324257D01*
X108977732Y-72385897D01*
X108971418Y-72450000D01*
X105628582Y-72450000D01*
X105622268Y-72385897D01*
X105603570Y-72324257D01*
X105573206Y-72267450D01*
X105532343Y-72217657D01*
X105482550Y-72176794D01*
X105425743Y-72146430D01*
X105364103Y-72127732D01*
X105300000Y-72121418D01*
X102300000Y-72121418D01*
X102235897Y-72127732D01*
X102174257Y-72146430D01*
X102117450Y-72176794D01*
X102067657Y-72217657D01*
X102026794Y-72267450D01*
X101996430Y-72324257D01*
X101977732Y-72385897D01*
X101971418Y-72450000D01*
X98628582Y-72450000D01*
X98622268Y-72385897D01*
X98603570Y-72324257D01*
X98573206Y-72267450D01*
X98532343Y-72217657D01*
X98482550Y-72176794D01*
X98425743Y-72146430D01*
X98364103Y-72127732D01*
X98300000Y-72121418D01*
X95300000Y-72121418D01*
X95235897Y-72127732D01*
X95174257Y-72146430D01*
X95117450Y-72176794D01*
X95067657Y-72217657D01*
X95026794Y-72267450D01*
X94996430Y-72324257D01*
X94977732Y-72385897D01*
X94971418Y-72450000D01*
X92089000Y-72450000D01*
X92089000Y-71914138D01*
X92124704Y-71550000D01*
X129521418Y-71550000D01*
X129521418Y-73050000D01*
X129532535Y-73162876D01*
X129565460Y-73271414D01*
X129618927Y-73371443D01*
X129690881Y-73459119D01*
X129778557Y-73531073D01*
X129878586Y-73584540D01*
X129987124Y-73617465D01*
X130100000Y-73628582D01*
X131300000Y-73628582D01*
X131412876Y-73617465D01*
X131521414Y-73584540D01*
X131621443Y-73531073D01*
X131709119Y-73459119D01*
X131781073Y-73371443D01*
X131834540Y-73271414D01*
X131867465Y-73162876D01*
X131878582Y-73050000D01*
X131878582Y-71550000D01*
X131867465Y-71437124D01*
X131834540Y-71328586D01*
X131781073Y-71228557D01*
X131709119Y-71140881D01*
X131621443Y-71068927D01*
X131521414Y-71015460D01*
X131412876Y-70982535D01*
X131300000Y-70971418D01*
X130100000Y-70971418D01*
X129987124Y-70982535D01*
X129878586Y-71015460D01*
X129778557Y-71068927D01*
X129690881Y-71140881D01*
X129618927Y-71228557D01*
X129565460Y-71328586D01*
X129532535Y-71437124D01*
X129521418Y-71550000D01*
X92124704Y-71550000D01*
X92141991Y-71373696D01*
X92294836Y-70867448D01*
X92543104Y-70400524D01*
X92877336Y-69990714D01*
X93284802Y-69653629D01*
X93749985Y-69402106D01*
X94255154Y-69245729D01*
X94794707Y-69189020D01*
X94800433Y-69189000D01*
X144885862Y-69189000D01*
X145426304Y-69241991D01*
%TA.AperFunction,Conductor*%
D20*
G36*
X145426304Y-69241991D02*
G01*
X145932552Y-69394836D01*
X146399476Y-69643104D01*
X146809286Y-69977336D01*
X147146371Y-70384802D01*
X147397894Y-70849985D01*
X147554271Y-71355154D01*
X147610980Y-71894707D01*
X147611001Y-71900720D01*
X147611000Y-92785863D01*
X147558009Y-93326304D01*
X147405164Y-93832552D01*
X147156896Y-94299476D01*
X146822661Y-94709288D01*
X146415198Y-95046371D01*
X145950015Y-95297894D01*
X145444846Y-95454271D01*
X144905292Y-95510980D01*
X144899567Y-95511000D01*
X94814137Y-95511000D01*
X94273696Y-95458009D01*
X93767448Y-95305164D01*
X93300524Y-95056896D01*
X92890712Y-94722661D01*
X92553629Y-94315198D01*
X92302106Y-93850015D01*
X92145729Y-93344846D01*
X92089020Y-92805292D01*
X92089000Y-92799567D01*
X92089000Y-84850000D01*
X108621418Y-84850000D01*
X108621418Y-86450000D01*
X108627732Y-86514103D01*
X108646430Y-86575743D01*
X108676794Y-86632550D01*
X108717657Y-86682343D01*
X108767450Y-86723206D01*
X108824257Y-86753570D01*
X108885897Y-86772268D01*
X108950000Y-86778582D01*
X110550000Y-86778582D01*
X110614103Y-86772268D01*
X110675743Y-86753570D01*
X110732550Y-86723206D01*
X110782343Y-86682343D01*
X110823206Y-86632550D01*
X110853570Y-86575743D01*
X110872268Y-86514103D01*
X110878582Y-86450000D01*
X110878582Y-84850000D01*
X110872268Y-84785897D01*
X110853570Y-84724257D01*
X110823206Y-84667450D01*
X110782343Y-84617657D01*
X110732550Y-84576794D01*
X110675743Y-84546430D01*
X110614103Y-84527732D01*
X110550000Y-84521418D01*
X108950000Y-84521418D01*
X108885897Y-84527732D01*
X108824257Y-84546430D01*
X108767450Y-84576794D01*
X108717657Y-84617657D01*
X108676794Y-84667450D01*
X108646430Y-84724257D01*
X108627732Y-84785897D01*
X108621418Y-84850000D01*
X92089000Y-84850000D01*
X92089000Y-84088246D01*
X117223000Y-84088246D01*
X117223000Y-84211754D01*
X117247095Y-84332889D01*
X117294360Y-84446996D01*
X117362977Y-84549689D01*
X117373001Y-84559713D01*
X117373000Y-88390288D01*
X117362977Y-88400311D01*
X117294360Y-88503004D01*
X117247095Y-88617111D01*
X117223000Y-88738246D01*
X117223000Y-88861754D01*
X117247095Y-88982889D01*
X117294360Y-89096996D01*
X117362977Y-89199689D01*
X117450311Y-89287023D01*
X117553004Y-89355640D01*
X117667111Y-89402905D01*
X117788246Y-89427000D01*
X117911754Y-89427000D01*
X118032889Y-89402905D01*
X118146996Y-89355640D01*
X118249689Y-89287023D01*
X118337023Y-89199689D01*
X118405640Y-89096996D01*
X118452905Y-88982889D01*
X118477000Y-88861754D01*
X118477000Y-88738246D01*
X118452905Y-88617111D01*
X118405640Y-88503004D01*
X118337023Y-88400311D01*
X118327000Y-88390288D01*
X118327000Y-84800000D01*
X135721418Y-84800000D01*
X135721418Y-86400000D01*
X135727732Y-86464103D01*
X135746430Y-86525743D01*
X135776794Y-86582550D01*
X135817657Y-86632343D01*
X135867450Y-86673206D01*
X135924257Y-86703570D01*
X135985897Y-86722268D01*
X136050000Y-86728582D01*
X137650000Y-86728582D01*
X137714103Y-86722268D01*
X137775743Y-86703570D01*
X137832550Y-86673206D01*
X137882343Y-86632343D01*
X137923206Y-86582550D01*
X137953570Y-86525743D01*
X137972268Y-86464103D01*
X137978582Y-86400000D01*
X137978582Y-84800000D01*
X137972268Y-84735897D01*
X137953570Y-84674257D01*
X137923206Y-84617450D01*
X137882343Y-84567657D01*
X137832550Y-84526794D01*
X137775743Y-84496430D01*
X137714103Y-84477732D01*
X137650000Y-84471418D01*
X136050000Y-84471418D01*
X135985897Y-84477732D01*
X135924257Y-84496430D01*
X135867450Y-84526794D01*
X135817657Y-84567657D01*
X135776794Y-84617450D01*
X135746430Y-84674257D01*
X135727732Y-84735897D01*
X135721418Y-84800000D01*
X118327000Y-84800000D01*
X118327000Y-84559712D01*
X118337023Y-84549689D01*
X118405640Y-84446996D01*
X118452905Y-84332889D01*
X118477000Y-84211754D01*
X118477000Y-84088246D01*
X118452905Y-83967111D01*
X118405640Y-83853004D01*
X118370224Y-83800000D01*
X143171418Y-83800000D01*
X143171418Y-85000000D01*
X143182535Y-85112876D01*
X143215460Y-85221414D01*
X143268927Y-85321443D01*
X143340881Y-85409119D01*
X143428557Y-85481073D01*
X143528586Y-85534540D01*
X143637124Y-85567465D01*
X143750000Y-85578582D01*
X145250000Y-85578582D01*
X145362876Y-85567465D01*
X145471414Y-85534540D01*
X145571443Y-85481073D01*
X145659119Y-85409119D01*
X145731073Y-85321443D01*
X145784540Y-85221414D01*
X145817465Y-85112876D01*
X145828582Y-85000000D01*
X145828582Y-83800000D01*
X145817465Y-83687124D01*
X145784540Y-83578586D01*
X145731073Y-83478557D01*
X145659119Y-83390881D01*
X145571443Y-83318927D01*
X145471414Y-83265460D01*
X145362876Y-83232535D01*
X145250000Y-83221418D01*
X143750000Y-83221418D01*
X143637124Y-83232535D01*
X143528586Y-83265460D01*
X143428557Y-83318927D01*
X143340881Y-83390881D01*
X143268927Y-83478557D01*
X143215460Y-83578586D01*
X143182535Y-83687124D01*
X143171418Y-83800000D01*
X118370224Y-83800000D01*
X118337023Y-83750311D01*
X118249689Y-83662977D01*
X118146996Y-83594360D01*
X118032889Y-83547095D01*
X117911754Y-83523000D01*
X117788246Y-83523000D01*
X117667111Y-83547095D01*
X117553004Y-83594360D01*
X117450311Y-83662977D01*
X117362977Y-83750311D01*
X117294360Y-83853004D01*
X117247095Y-83967111D01*
X117223000Y-84088246D01*
X92089000Y-84088246D01*
X92089000Y-72450000D01*
X94971418Y-72450000D01*
X94971418Y-79450000D01*
X94977732Y-79514103D01*
X94996430Y-79575743D01*
X95026794Y-79632550D01*
X95067657Y-79682343D01*
X95117450Y-79723206D01*
X95174257Y-79753570D01*
X95235897Y-79772268D01*
X95300000Y-79778582D01*
X98300000Y-79778582D01*
X98364103Y-79772268D01*
X98425743Y-79753570D01*
X98482550Y-79723206D01*
X98532343Y-79682343D01*
X98573206Y-79632550D01*
X98603570Y-79575743D01*
X98622268Y-79514103D01*
X98628582Y-79450000D01*
X98628582Y-72450000D01*
X101971418Y-72450000D01*
X101971418Y-79450000D01*
X101977732Y-79514103D01*
X101996430Y-79575743D01*
X102026794Y-79632550D01*
X102067657Y-79682343D01*
X102117450Y-79723206D01*
X102174257Y-79753570D01*
X102235897Y-79772268D01*
X102300000Y-79778582D01*
X105300000Y-79778582D01*
X105364103Y-79772268D01*
X105425743Y-79753570D01*
X105482550Y-79723206D01*
X105532343Y-79682343D01*
X105573206Y-79632550D01*
X105603570Y-79575743D01*
X105622268Y-79514103D01*
X105628582Y-79450000D01*
X105628582Y-72450000D01*
X108971418Y-72450000D01*
X108971418Y-79450000D01*
X108977732Y-79514103D01*
X108996430Y-79575743D01*
X109026794Y-79632550D01*
X109067657Y-79682343D01*
X109117450Y-79723206D01*
X109174257Y-79753570D01*
X109235897Y-79772268D01*
X109300000Y-79778582D01*
X112300000Y-79778582D01*
X112364103Y-79772268D01*
X112425743Y-79753570D01*
X112482550Y-79723206D01*
X112532343Y-79682343D01*
X112573206Y-79632550D01*
X112603570Y-79575743D01*
X112622268Y-79514103D01*
X112628582Y-79450000D01*
X112628582Y-72450000D01*
X112622268Y-72385897D01*
X112603570Y-72324257D01*
X112573206Y-72267450D01*
X112532343Y-72217657D01*
X112482550Y-72176794D01*
X112425743Y-72146430D01*
X112364103Y-72127732D01*
X112300000Y-72121418D01*
X109300000Y-72121418D01*
X109235897Y-72127732D01*
X109174257Y-72146430D01*
X109117450Y-72176794D01*
X109067657Y-72217657D01*
X109026794Y-72267450D01*
X108996430Y-72324257D01*
X108977732Y-72385897D01*
X108971418Y-72450000D01*
X105628582Y-72450000D01*
X105622268Y-72385897D01*
X105603570Y-72324257D01*
X105573206Y-72267450D01*
X105532343Y-72217657D01*
X105482550Y-72176794D01*
X105425743Y-72146430D01*
X105364103Y-72127732D01*
X105300000Y-72121418D01*
X102300000Y-72121418D01*
X102235897Y-72127732D01*
X102174257Y-72146430D01*
X102117450Y-72176794D01*
X102067657Y-72217657D01*
X102026794Y-72267450D01*
X101996430Y-72324257D01*
X101977732Y-72385897D01*
X101971418Y-72450000D01*
X98628582Y-72450000D01*
X98622268Y-72385897D01*
X98603570Y-72324257D01*
X98573206Y-72267450D01*
X98532343Y-72217657D01*
X98482550Y-72176794D01*
X98425743Y-72146430D01*
X98364103Y-72127732D01*
X98300000Y-72121418D01*
X95300000Y-72121418D01*
X95235897Y-72127732D01*
X95174257Y-72146430D01*
X95117450Y-72176794D01*
X95067657Y-72217657D01*
X95026794Y-72267450D01*
X94996430Y-72324257D01*
X94977732Y-72385897D01*
X94971418Y-72450000D01*
X92089000Y-72450000D01*
X92089000Y-71914138D01*
X92124704Y-71550000D01*
X129521418Y-71550000D01*
X129521418Y-73050000D01*
X129532535Y-73162876D01*
X129565460Y-73271414D01*
X129618927Y-73371443D01*
X129690881Y-73459119D01*
X129778557Y-73531073D01*
X129878586Y-73584540D01*
X129987124Y-73617465D01*
X130100000Y-73628582D01*
X131300000Y-73628582D01*
X131412876Y-73617465D01*
X131521414Y-73584540D01*
X131621443Y-73531073D01*
X131709119Y-73459119D01*
X131781073Y-73371443D01*
X131834540Y-73271414D01*
X131867465Y-73162876D01*
X131878582Y-73050000D01*
X131878582Y-71550000D01*
X131867465Y-71437124D01*
X131834540Y-71328586D01*
X131781073Y-71228557D01*
X131709119Y-71140881D01*
X131621443Y-71068927D01*
X131521414Y-71015460D01*
X131412876Y-70982535D01*
X131300000Y-70971418D01*
X130100000Y-70971418D01*
X129987124Y-70982535D01*
X129878586Y-71015460D01*
X129778557Y-71068927D01*
X129690881Y-71140881D01*
X129618927Y-71228557D01*
X129565460Y-71328586D01*
X129532535Y-71437124D01*
X129521418Y-71550000D01*
X92124704Y-71550000D01*
X92141991Y-71373696D01*
X92294836Y-70867448D01*
X92543104Y-70400524D01*
X92877336Y-69990714D01*
X93284802Y-69653629D01*
X93749985Y-69402106D01*
X94255154Y-69245729D01*
X94794707Y-69189020D01*
X94800433Y-69189000D01*
X144885862Y-69189000D01*
X145426304Y-69241991D01*
G37*
%TD.AperFunction*%
%TD*%
M02*
