%TF.GenerationSoftware,KiCad,Pcbnew,(5.1.9)-1*%
%TF.CreationDate,2021-11-10T21:50:44+01:00*%
%TF.ProjectId,smoke_extractor,736d6f6b-655f-4657-9874-726163746f72,rev?*%
%TF.SameCoordinates,Original*%
%TF.FileFunction,Legend,Bot*%
%TF.FilePolarity,Positive*%
%FSLAX46Y46*%
G04 Gerber Fmt 4.6, Leading zero omitted, Abs format (unit mm)*
G04 Created by KiCad (PCBNEW (5.1.9)-1) date 2021-11-10 21:50:44*
%MOMM*%
%LPD*%
G01*
G04 APERTURE LIST*
%ADD10C,0.150000*%
G04 APERTURE END LIST*
D10*
X118264404Y-93527380D02*
X118264404Y-92527380D01*
X117692976Y-93527380D01*
X117692976Y-92527380D01*
X116788214Y-92860714D02*
X116788214Y-93527380D01*
X117216785Y-92860714D02*
X117216785Y-93384523D01*
X117169166Y-93479761D01*
X117073928Y-93527380D01*
X116931071Y-93527380D01*
X116835833Y-93479761D01*
X116788214Y-93432142D01*
X116312023Y-92860714D02*
X116312023Y-93527380D01*
X116312023Y-92955952D02*
X116264404Y-92908333D01*
X116169166Y-92860714D01*
X116026309Y-92860714D01*
X115931071Y-92908333D01*
X115883452Y-93003571D01*
X115883452Y-93527380D01*
X115264404Y-93527380D02*
X115359642Y-93479761D01*
X115407261Y-93432142D01*
X115454880Y-93336904D01*
X115454880Y-93051190D01*
X115407261Y-92955952D01*
X115359642Y-92908333D01*
X115264404Y-92860714D01*
X115121547Y-92860714D01*
X115026309Y-92908333D01*
X114978690Y-92955952D01*
X114931071Y-93051190D01*
X114931071Y-93336904D01*
X114978690Y-93432142D01*
X115026309Y-93479761D01*
X115121547Y-93527380D01*
X115264404Y-93527380D01*
X113740595Y-93527380D02*
X113740595Y-92527380D01*
X113169166Y-93527380D01*
X113169166Y-92527380D01*
X112550119Y-93527380D02*
X112645357Y-93479761D01*
X112692976Y-93432142D01*
X112740595Y-93336904D01*
X112740595Y-93051190D01*
X112692976Y-92955952D01*
X112645357Y-92908333D01*
X112550119Y-92860714D01*
X112407261Y-92860714D01*
X112312023Y-92908333D01*
X112264404Y-92955952D01*
X112216785Y-93051190D01*
X112216785Y-93336904D01*
X112264404Y-93432142D01*
X112312023Y-93479761D01*
X112407261Y-93527380D01*
X112550119Y-93527380D01*
X111359642Y-92860714D02*
X111359642Y-93670238D01*
X111407261Y-93765476D01*
X111454880Y-93813095D01*
X111550119Y-93860714D01*
X111692976Y-93860714D01*
X111788214Y-93813095D01*
X111359642Y-93479761D02*
X111454880Y-93527380D01*
X111645357Y-93527380D01*
X111740595Y-93479761D01*
X111788214Y-93432142D01*
X111835833Y-93336904D01*
X111835833Y-93051190D01*
X111788214Y-92955952D01*
X111740595Y-92908333D01*
X111645357Y-92860714D01*
X111454880Y-92860714D01*
X111359642Y-92908333D01*
X110454880Y-92860714D02*
X110454880Y-93527380D01*
X110883452Y-92860714D02*
X110883452Y-93384523D01*
X110835833Y-93479761D01*
X110740595Y-93527380D01*
X110597738Y-93527380D01*
X110502500Y-93479761D01*
X110454880Y-93432142D01*
X109597738Y-93479761D02*
X109692976Y-93527380D01*
X109883452Y-93527380D01*
X109978690Y-93479761D01*
X110026309Y-93384523D01*
X110026309Y-93003571D01*
X109978690Y-92908333D01*
X109883452Y-92860714D01*
X109692976Y-92860714D01*
X109597738Y-92908333D01*
X109550119Y-93003571D01*
X109550119Y-93098809D01*
X110026309Y-93194047D01*
X109121547Y-93527380D02*
X109121547Y-92860714D01*
X109121547Y-92527380D02*
X109169166Y-92575000D01*
X109121547Y-92622619D01*
X109073928Y-92575000D01*
X109121547Y-92527380D01*
X109121547Y-92622619D01*
X108645357Y-93527380D02*
X108645357Y-92860714D01*
X108645357Y-93051190D02*
X108597738Y-92955952D01*
X108550119Y-92908333D01*
X108454880Y-92860714D01*
X108359642Y-92860714D01*
X107597738Y-93527380D02*
X107597738Y-93003571D01*
X107645357Y-92908333D01*
X107740595Y-92860714D01*
X107931071Y-92860714D01*
X108026309Y-92908333D01*
X107597738Y-93479761D02*
X107692976Y-93527380D01*
X107931071Y-93527380D01*
X108026309Y-93479761D01*
X108073928Y-93384523D01*
X108073928Y-93289285D01*
X108026309Y-93194047D01*
X107931071Y-93146428D01*
X107692976Y-93146428D01*
X107597738Y-93098809D01*
X107073928Y-93479761D02*
X107073928Y-93527380D01*
X107121547Y-93622619D01*
X107169166Y-93670238D01*
X117740595Y-95177380D02*
X118312023Y-95177380D01*
X118026309Y-95177380D02*
X118026309Y-94177380D01*
X118121547Y-94320238D01*
X118216785Y-94415476D01*
X118312023Y-94463095D01*
X116788214Y-95177380D02*
X117359642Y-95177380D01*
X117073928Y-95177380D02*
X117073928Y-94177380D01*
X117169166Y-94320238D01*
X117264404Y-94415476D01*
X117359642Y-94463095D01*
X115645357Y-94129761D02*
X116502500Y-95415476D01*
X114788214Y-95177380D02*
X115359642Y-95177380D01*
X115073928Y-95177380D02*
X115073928Y-94177380D01*
X115169166Y-94320238D01*
X115264404Y-94415476D01*
X115359642Y-94463095D01*
X114169166Y-94177380D02*
X114073928Y-94177380D01*
X113978690Y-94225000D01*
X113931071Y-94272619D01*
X113883452Y-94367857D01*
X113835833Y-94558333D01*
X113835833Y-94796428D01*
X113883452Y-94986904D01*
X113931071Y-95082142D01*
X113978690Y-95129761D01*
X114073928Y-95177380D01*
X114169166Y-95177380D01*
X114264404Y-95129761D01*
X114312023Y-95082142D01*
X114359642Y-94986904D01*
X114407261Y-94796428D01*
X114407261Y-94558333D01*
X114359642Y-94367857D01*
X114312023Y-94272619D01*
X114264404Y-94225000D01*
X114169166Y-94177380D01*
X112692976Y-94129761D02*
X113550119Y-95415476D01*
X112407261Y-94272619D02*
X112359642Y-94225000D01*
X112264404Y-94177380D01*
X112026309Y-94177380D01*
X111931071Y-94225000D01*
X111883452Y-94272619D01*
X111835833Y-94367857D01*
X111835833Y-94463095D01*
X111883452Y-94605952D01*
X112454880Y-95177380D01*
X111835833Y-95177380D01*
X111216785Y-94177380D02*
X111121547Y-94177380D01*
X111026309Y-94225000D01*
X110978690Y-94272619D01*
X110931071Y-94367857D01*
X110883452Y-94558333D01*
X110883452Y-94796428D01*
X110931071Y-94986904D01*
X110978690Y-95082142D01*
X111026309Y-95129761D01*
X111121547Y-95177380D01*
X111216785Y-95177380D01*
X111312023Y-95129761D01*
X111359642Y-95082142D01*
X111407261Y-94986904D01*
X111454880Y-94796428D01*
X111454880Y-94558333D01*
X111407261Y-94367857D01*
X111359642Y-94272619D01*
X111312023Y-94225000D01*
X111216785Y-94177380D01*
X110502500Y-94272619D02*
X110454880Y-94225000D01*
X110359642Y-94177380D01*
X110121547Y-94177380D01*
X110026309Y-94225000D01*
X109978690Y-94272619D01*
X109931071Y-94367857D01*
X109931071Y-94463095D01*
X109978690Y-94605952D01*
X110550119Y-95177380D01*
X109931071Y-95177380D01*
X108978690Y-95177380D02*
X109550119Y-95177380D01*
X109264404Y-95177380D02*
X109264404Y-94177380D01*
X109359642Y-94320238D01*
X109454880Y-94415476D01*
X109550119Y-94463095D01*
X107835833Y-95129761D02*
X107692976Y-95177380D01*
X107454880Y-95177380D01*
X107359642Y-95129761D01*
X107312023Y-95082142D01*
X107264404Y-94986904D01*
X107264404Y-94891666D01*
X107312023Y-94796428D01*
X107359642Y-94748809D01*
X107454880Y-94701190D01*
X107645357Y-94653571D01*
X107740595Y-94605952D01*
X107788214Y-94558333D01*
X107835833Y-94463095D01*
X107835833Y-94367857D01*
X107788214Y-94272619D01*
X107740595Y-94225000D01*
X107645357Y-94177380D01*
X107407261Y-94177380D01*
X107264404Y-94225000D01*
X106978690Y-94510714D02*
X106597738Y-94510714D01*
X106835833Y-94177380D02*
X106835833Y-95034523D01*
X106788214Y-95129761D01*
X106692976Y-95177380D01*
X106597738Y-95177380D01*
X106121547Y-95177380D02*
X106216785Y-95129761D01*
X106264404Y-95082142D01*
X106312023Y-94986904D01*
X106312023Y-94701190D01*
X106264404Y-94605952D01*
X106216785Y-94558333D01*
X106121547Y-94510714D01*
X105978690Y-94510714D01*
X105883452Y-94558333D01*
X105835833Y-94605952D01*
X105788214Y-94701190D01*
X105788214Y-94986904D01*
X105835833Y-95082142D01*
X105883452Y-95129761D01*
X105978690Y-95177380D01*
X106121547Y-95177380D01*
X104931071Y-95129761D02*
X105026309Y-95177380D01*
X105216785Y-95177380D01*
X105312023Y-95129761D01*
X105359642Y-95082142D01*
X105407261Y-94986904D01*
X105407261Y-94701190D01*
X105359642Y-94605952D01*
X105312023Y-94558333D01*
X105216785Y-94510714D01*
X105026309Y-94510714D01*
X104931071Y-94558333D01*
X104502500Y-95177380D02*
X104502500Y-94177380D01*
X104407261Y-94796428D02*
X104121547Y-95177380D01*
X104121547Y-94510714D02*
X104502500Y-94891666D01*
X103692976Y-95177380D02*
X103692976Y-94177380D01*
X103264404Y-95177380D02*
X103264404Y-94653571D01*
X103312023Y-94558333D01*
X103407261Y-94510714D01*
X103550119Y-94510714D01*
X103645357Y-94558333D01*
X103692976Y-94605952D01*
X102645357Y-95177380D02*
X102740595Y-95129761D01*
X102788214Y-95082142D01*
X102835833Y-94986904D01*
X102835833Y-94701190D01*
X102788214Y-94605952D01*
X102740595Y-94558333D01*
X102645357Y-94510714D01*
X102502500Y-94510714D01*
X102407261Y-94558333D01*
X102359642Y-94605952D01*
X102312023Y-94701190D01*
X102312023Y-94986904D01*
X102359642Y-95082142D01*
X102407261Y-95129761D01*
X102502500Y-95177380D01*
X102645357Y-95177380D01*
X101740595Y-95177380D02*
X101835833Y-95129761D01*
X101883452Y-95034523D01*
X101883452Y-94177380D01*
X101359642Y-95177380D02*
X101359642Y-94510714D01*
X101359642Y-94605952D02*
X101312023Y-94558333D01*
X101216785Y-94510714D01*
X101073928Y-94510714D01*
X100978690Y-94558333D01*
X100931071Y-94653571D01*
X100931071Y-95177380D01*
X100931071Y-94653571D02*
X100883452Y-94558333D01*
X100788214Y-94510714D01*
X100645357Y-94510714D01*
X100550119Y-94558333D01*
X100502500Y-94653571D01*
X100502500Y-95177380D01*
X100026309Y-95082142D02*
X99978690Y-95129761D01*
X100026309Y-95177380D01*
X100073928Y-95129761D01*
X100026309Y-95082142D01*
X100026309Y-95177380D01*
X105745357Y-84442857D02*
X105631071Y-84480952D01*
X105592976Y-84519047D01*
X105554880Y-84595238D01*
X105554880Y-84709523D01*
X105592976Y-84785714D01*
X105631071Y-84823809D01*
X105707261Y-84861904D01*
X106012023Y-84861904D01*
X106012023Y-84061904D01*
X105745357Y-84061904D01*
X105669166Y-84100000D01*
X105631071Y-84138095D01*
X105592976Y-84214285D01*
X105592976Y-84290476D01*
X105631071Y-84366666D01*
X105669166Y-84404761D01*
X105745357Y-84442857D01*
X106012023Y-84442857D01*
X105097738Y-84861904D02*
X105173928Y-84823809D01*
X105212023Y-84785714D01*
X105250119Y-84709523D01*
X105250119Y-84480952D01*
X105212023Y-84404761D01*
X105173928Y-84366666D01*
X105097738Y-84328571D01*
X104983452Y-84328571D01*
X104907261Y-84366666D01*
X104869166Y-84404761D01*
X104831071Y-84480952D01*
X104831071Y-84709523D01*
X104869166Y-84785714D01*
X104907261Y-84823809D01*
X104983452Y-84861904D01*
X105097738Y-84861904D01*
X104373928Y-84861904D02*
X104450119Y-84823809D01*
X104488214Y-84785714D01*
X104526309Y-84709523D01*
X104526309Y-84480952D01*
X104488214Y-84404761D01*
X104450119Y-84366666D01*
X104373928Y-84328571D01*
X104259642Y-84328571D01*
X104183452Y-84366666D01*
X104145357Y-84404761D01*
X104107261Y-84480952D01*
X104107261Y-84709523D01*
X104145357Y-84785714D01*
X104183452Y-84823809D01*
X104259642Y-84861904D01*
X104373928Y-84861904D01*
X103802500Y-84823809D02*
X103726309Y-84861904D01*
X103573928Y-84861904D01*
X103497738Y-84823809D01*
X103459642Y-84747619D01*
X103459642Y-84709523D01*
X103497738Y-84633333D01*
X103573928Y-84595238D01*
X103688214Y-84595238D01*
X103764404Y-84557142D01*
X103802500Y-84480952D01*
X103802500Y-84442857D01*
X103764404Y-84366666D01*
X103688214Y-84328571D01*
X103573928Y-84328571D01*
X103497738Y-84366666D01*
X103231071Y-84328571D02*
X102926309Y-84328571D01*
X103116785Y-84061904D02*
X103116785Y-84747619D01*
X103078690Y-84823809D01*
X103002500Y-84861904D01*
X102926309Y-84861904D01*
X105631071Y-85411904D02*
X106012023Y-85411904D01*
X106050119Y-85792857D01*
X106012023Y-85754761D01*
X105935833Y-85716666D01*
X105745357Y-85716666D01*
X105669166Y-85754761D01*
X105631071Y-85792857D01*
X105592976Y-85869047D01*
X105592976Y-86059523D01*
X105631071Y-86135714D01*
X105669166Y-86173809D01*
X105745357Y-86211904D01*
X105935833Y-86211904D01*
X106012023Y-86173809D01*
X106050119Y-86135714D01*
X104678690Y-85373809D02*
X105364404Y-86402380D01*
X103992976Y-86211904D02*
X104450119Y-86211904D01*
X104221547Y-86211904D02*
X104221547Y-85411904D01*
X104297738Y-85526190D01*
X104373928Y-85602380D01*
X104450119Y-85640476D01*
X103688214Y-85488095D02*
X103650119Y-85450000D01*
X103573928Y-85411904D01*
X103383452Y-85411904D01*
X103307261Y-85450000D01*
X103269166Y-85488095D01*
X103231071Y-85564285D01*
X103231071Y-85640476D01*
X103269166Y-85754761D01*
X103726309Y-86211904D01*
X103231071Y-86211904D01*
X103002500Y-85411904D02*
X102735833Y-86211904D01*
X102469166Y-85411904D01*
X105783452Y-87866666D02*
X105821547Y-87828571D01*
X105897738Y-87714285D01*
X105935833Y-87638095D01*
X105973928Y-87523809D01*
X106012023Y-87333333D01*
X106012023Y-87180952D01*
X105973928Y-86990476D01*
X105935833Y-86876190D01*
X105897738Y-86800000D01*
X105821547Y-86685714D01*
X105783452Y-86647619D01*
X105440595Y-87561904D02*
X105288214Y-87561904D01*
X105212023Y-87523809D01*
X105173928Y-87485714D01*
X105097738Y-87371428D01*
X105059642Y-87219047D01*
X105059642Y-86914285D01*
X105097738Y-86838095D01*
X105135833Y-86800000D01*
X105212023Y-86761904D01*
X105364404Y-86761904D01*
X105440595Y-86800000D01*
X105478690Y-86838095D01*
X105516785Y-86914285D01*
X105516785Y-87104761D01*
X105478690Y-87180952D01*
X105440595Y-87219047D01*
X105364404Y-87257142D01*
X105212023Y-87257142D01*
X105135833Y-87219047D01*
X105097738Y-87180952D01*
X105059642Y-87104761D01*
X104564404Y-86761904D02*
X104488214Y-86761904D01*
X104412023Y-86800000D01*
X104373928Y-86838095D01*
X104335833Y-86914285D01*
X104297738Y-87066666D01*
X104297738Y-87257142D01*
X104335833Y-87409523D01*
X104373928Y-87485714D01*
X104412023Y-87523809D01*
X104488214Y-87561904D01*
X104564404Y-87561904D01*
X104640595Y-87523809D01*
X104678690Y-87485714D01*
X104716785Y-87409523D01*
X104754880Y-87257142D01*
X104754880Y-87066666D01*
X104716785Y-86914285D01*
X104678690Y-86838095D01*
X104640595Y-86800000D01*
X104564404Y-86761904D01*
X103992976Y-87561904D02*
X103383452Y-86761904D01*
X103878690Y-86761904D02*
X103802500Y-86800000D01*
X103764404Y-86876190D01*
X103802500Y-86952380D01*
X103878690Y-86990476D01*
X103954880Y-86952380D01*
X103992976Y-86876190D01*
X103954880Y-86800000D01*
X103878690Y-86761904D01*
X103421547Y-87523809D02*
X103383452Y-87447619D01*
X103421547Y-87371428D01*
X103497738Y-87333333D01*
X103573928Y-87371428D01*
X103612023Y-87447619D01*
X103573928Y-87523809D01*
X103497738Y-87561904D01*
X103421547Y-87523809D01*
X103116785Y-87866666D02*
X103078690Y-87828571D01*
X103002500Y-87714285D01*
X102964404Y-87638095D01*
X102926309Y-87523809D01*
X102888214Y-87333333D01*
X102888214Y-87180952D01*
X102926309Y-86990476D01*
X102964404Y-86876190D01*
X103002500Y-86800000D01*
X103078690Y-86685714D01*
X103116785Y-86647619D01*
X106012023Y-88111904D02*
X106012023Y-88759523D01*
X105973928Y-88835714D01*
X105935833Y-88873809D01*
X105859642Y-88911904D01*
X105707261Y-88911904D01*
X105631071Y-88873809D01*
X105592976Y-88835714D01*
X105554880Y-88759523D01*
X105554880Y-88111904D01*
X105173928Y-88378571D02*
X105173928Y-89178571D01*
X105173928Y-88416666D02*
X105097738Y-88378571D01*
X104945357Y-88378571D01*
X104869166Y-88416666D01*
X104831071Y-88454761D01*
X104792976Y-88530952D01*
X104792976Y-88759523D01*
X104831071Y-88835714D01*
X104869166Y-88873809D01*
X104945357Y-88911904D01*
X105097738Y-88911904D01*
X105173928Y-88873809D01*
X103954880Y-88378571D02*
X103650119Y-88378571D01*
X103840595Y-88111904D02*
X103840595Y-88797619D01*
X103802500Y-88873809D01*
X103726309Y-88911904D01*
X103650119Y-88911904D01*
X103269166Y-88911904D02*
X103345357Y-88873809D01*
X103383452Y-88835714D01*
X103421547Y-88759523D01*
X103421547Y-88530952D01*
X103383452Y-88454761D01*
X103345357Y-88416666D01*
X103269166Y-88378571D01*
X103154880Y-88378571D01*
X103078690Y-88416666D01*
X103040595Y-88454761D01*
X103002500Y-88530952D01*
X103002500Y-88759523D01*
X103040595Y-88835714D01*
X103078690Y-88873809D01*
X103154880Y-88911904D01*
X103269166Y-88911904D01*
X101631071Y-88911904D02*
X102088214Y-88911904D01*
X101859642Y-88911904D02*
X101859642Y-88111904D01*
X101935833Y-88226190D01*
X102012023Y-88302380D01*
X102088214Y-88340476D01*
X101288214Y-88835714D02*
X101250119Y-88873809D01*
X101288214Y-88911904D01*
X101326309Y-88873809D01*
X101288214Y-88835714D01*
X101288214Y-88911904D01*
X100945357Y-88188095D02*
X100907261Y-88150000D01*
X100831071Y-88111904D01*
X100640595Y-88111904D01*
X100564404Y-88150000D01*
X100526309Y-88188095D01*
X100488214Y-88264285D01*
X100488214Y-88340476D01*
X100526309Y-88454761D01*
X100983452Y-88911904D01*
X100488214Y-88911904D01*
X100183452Y-88683333D02*
X99802500Y-88683333D01*
X100259642Y-88911904D02*
X99992976Y-88111904D01*
X99726309Y-88911904D01*
X105783452Y-90566666D02*
X105821547Y-90528571D01*
X105897738Y-90414285D01*
X105935833Y-90338095D01*
X105973928Y-90223809D01*
X106012023Y-90033333D01*
X106012023Y-89880952D01*
X105973928Y-89690476D01*
X105935833Y-89576190D01*
X105897738Y-89500000D01*
X105821547Y-89385714D01*
X105783452Y-89347619D01*
X105554880Y-89728571D02*
X105364404Y-90261904D01*
X105173928Y-89728571D01*
X104450119Y-90261904D02*
X104907261Y-90261904D01*
X104678690Y-90261904D02*
X104678690Y-89461904D01*
X104754880Y-89576190D01*
X104831071Y-89652380D01*
X104907261Y-89690476D01*
X104107261Y-90185714D02*
X104069166Y-90223809D01*
X104107261Y-90261904D01*
X104145357Y-90223809D01*
X104107261Y-90185714D01*
X104107261Y-90261904D01*
X103573928Y-89461904D02*
X103497738Y-89461904D01*
X103421547Y-89500000D01*
X103383452Y-89538095D01*
X103345357Y-89614285D01*
X103307261Y-89766666D01*
X103307261Y-89957142D01*
X103345357Y-90109523D01*
X103383452Y-90185714D01*
X103421547Y-90223809D01*
X103497738Y-90261904D01*
X103573928Y-90261904D01*
X103650119Y-90223809D01*
X103688214Y-90185714D01*
X103726309Y-90109523D01*
X103764404Y-89957142D01*
X103764404Y-89766666D01*
X103726309Y-89614285D01*
X103688214Y-89538095D01*
X103650119Y-89500000D01*
X103573928Y-89461904D01*
X103040595Y-90566666D02*
X103002500Y-90528571D01*
X102926309Y-90414285D01*
X102888214Y-90338095D01*
X102850119Y-90223809D01*
X102812023Y-90033333D01*
X102812023Y-89880952D01*
X102850119Y-89690476D01*
X102888214Y-89576190D01*
X102926309Y-89500000D01*
X103002500Y-89385714D01*
X103040595Y-89347619D01*
M02*
