%TF.GenerationSoftware,KiCad,Pcbnew,(5.1.9)-1*%
%TF.CreationDate,2021-11-10T21:50:44+01:00*%
%TF.ProjectId,smoke_extractor,736d6f6b-655f-4657-9874-726163746f72,rev?*%
%TF.SameCoordinates,Original*%
%TF.FileFunction,Soldermask,Top*%
%TF.FilePolarity,Negative*%
%FSLAX46Y46*%
G04 Gerber Fmt 4.6, Leading zero omitted, Abs format (unit mm)*
G04 Created by KiCad (PCBNEW (5.1.9)-1) date 2021-11-10 21:50:44*
%MOMM*%
%LPD*%
G01*
G04 APERTURE LIST*
%ADD10R,2.000000X2.000000*%
%ADD11C,0.800000*%
%ADD12C,6.400000*%
%ADD13O,2.000000X1.700000*%
%ADD14O,1.700000X2.000000*%
%ADD15R,1.600000X5.700000*%
%ADD16R,2.300000X5.700000*%
%ADD17C,1.600000*%
%ADD18R,1.600000X1.600000*%
%ADD19R,4.000000X0.700000*%
%ADD20R,4.000000X0.800000*%
%ADD21R,4.000000X0.900000*%
%ADD22C,0.100000*%
%ADD23R,1.505000X0.802000*%
%ADD24R,2.613000X3.502000*%
G04 APERTURE END LIST*
D10*
%TO.C,D1*%
X128300000Y-82300000D03*
X131100000Y-82300000D03*
%TD*%
D11*
%TO.C,H2*%
X145397056Y-71302944D03*
X143700000Y-70600000D03*
X142002944Y-71302944D03*
X141300000Y-73000000D03*
X142002944Y-74697056D03*
X143700000Y-75400000D03*
X145397056Y-74697056D03*
X146100000Y-73000000D03*
D12*
X143700000Y-73000000D03*
%TD*%
D13*
%TO.C,J3*%
X144500000Y-81900000D03*
G36*
G01*
X145250000Y-85250000D02*
X143750000Y-85250000D01*
G75*
G02*
X143500000Y-85000000I0J250000D01*
G01*
X143500000Y-83800000D01*
G75*
G02*
X143750000Y-83550000I250000J0D01*
G01*
X145250000Y-83550000D01*
G75*
G02*
X145500000Y-83800000I0J-250000D01*
G01*
X145500000Y-85000000D01*
G75*
G02*
X145250000Y-85250000I-250000J0D01*
G01*
G37*
%TD*%
D14*
%TO.C,J2*%
X128200000Y-72300000D03*
G36*
G01*
X131550000Y-71550000D02*
X131550000Y-73050000D01*
G75*
G02*
X131300000Y-73300000I-250000J0D01*
G01*
X130100000Y-73300000D01*
G75*
G02*
X129850000Y-73050000I0J250000D01*
G01*
X129850000Y-71550000D01*
G75*
G02*
X130100000Y-71300000I250000J0D01*
G01*
X131300000Y-71300000D01*
G75*
G02*
X131550000Y-71550000I0J-250000D01*
G01*
G37*
%TD*%
D15*
%TO.C,L1*%
X120150000Y-82950000D03*
D16*
X124850000Y-82950000D03*
%TD*%
%TO.C,R4*%
G36*
G01*
X103562500Y-87025000D02*
X104037500Y-87025000D01*
G75*
G02*
X104275000Y-87262500I0J-237500D01*
G01*
X104275000Y-87762500D01*
G75*
G02*
X104037500Y-88000000I-237500J0D01*
G01*
X103562500Y-88000000D01*
G75*
G02*
X103325000Y-87762500I0J237500D01*
G01*
X103325000Y-87262500D01*
G75*
G02*
X103562500Y-87025000I237500J0D01*
G01*
G37*
G36*
G01*
X103562500Y-85200000D02*
X104037500Y-85200000D01*
G75*
G02*
X104275000Y-85437500I0J-237500D01*
G01*
X104275000Y-85937500D01*
G75*
G02*
X104037500Y-86175000I-237500J0D01*
G01*
X103562500Y-86175000D01*
G75*
G02*
X103325000Y-85937500I0J237500D01*
G01*
X103325000Y-85437500D01*
G75*
G02*
X103562500Y-85200000I237500J0D01*
G01*
G37*
%TD*%
%TO.C,D2*%
G36*
G01*
X104037500Y-90050000D02*
X103562500Y-90050000D01*
G75*
G02*
X103325000Y-89812500I0J237500D01*
G01*
X103325000Y-89237500D01*
G75*
G02*
X103562500Y-89000000I237500J0D01*
G01*
X104037500Y-89000000D01*
G75*
G02*
X104275000Y-89237500I0J-237500D01*
G01*
X104275000Y-89812500D01*
G75*
G02*
X104037500Y-90050000I-237500J0D01*
G01*
G37*
G36*
G01*
X104037500Y-91800000D02*
X103562500Y-91800000D01*
G75*
G02*
X103325000Y-91562500I0J237500D01*
G01*
X103325000Y-90987500D01*
G75*
G02*
X103562500Y-90750000I237500J0D01*
G01*
X104037500Y-90750000D01*
G75*
G02*
X104275000Y-90987500I0J-237500D01*
G01*
X104275000Y-91562500D01*
G75*
G02*
X104037500Y-91800000I-237500J0D01*
G01*
G37*
%TD*%
D17*
%TO.C,C3*%
X109750000Y-89150000D03*
D18*
X109750000Y-85650000D03*
%TD*%
%TO.C,C1*%
G36*
G01*
X117562500Y-86975000D02*
X118037500Y-86975000D01*
G75*
G02*
X118275000Y-87212500I0J-237500D01*
G01*
X118275000Y-87812500D01*
G75*
G02*
X118037500Y-88050000I-237500J0D01*
G01*
X117562500Y-88050000D01*
G75*
G02*
X117325000Y-87812500I0J237500D01*
G01*
X117325000Y-87212500D01*
G75*
G02*
X117562500Y-86975000I237500J0D01*
G01*
G37*
G36*
G01*
X117562500Y-85250000D02*
X118037500Y-85250000D01*
G75*
G02*
X118275000Y-85487500I0J-237500D01*
G01*
X118275000Y-86087500D01*
G75*
G02*
X118037500Y-86325000I-237500J0D01*
G01*
X117562500Y-86325000D01*
G75*
G02*
X117325000Y-86087500I0J237500D01*
G01*
X117325000Y-85487500D01*
G75*
G02*
X117562500Y-85250000I237500J0D01*
G01*
G37*
%TD*%
%TO.C,R3*%
G36*
G01*
X129112500Y-90625000D02*
X129587500Y-90625000D01*
G75*
G02*
X129825000Y-90862500I0J-237500D01*
G01*
X129825000Y-91362500D01*
G75*
G02*
X129587500Y-91600000I-237500J0D01*
G01*
X129112500Y-91600000D01*
G75*
G02*
X128875000Y-91362500I0J237500D01*
G01*
X128875000Y-90862500D01*
G75*
G02*
X129112500Y-90625000I237500J0D01*
G01*
G37*
G36*
G01*
X129112500Y-88800000D02*
X129587500Y-88800000D01*
G75*
G02*
X129825000Y-89037500I0J-237500D01*
G01*
X129825000Y-89537500D01*
G75*
G02*
X129587500Y-89775000I-237500J0D01*
G01*
X129112500Y-89775000D01*
G75*
G02*
X128875000Y-89537500I0J237500D01*
G01*
X128875000Y-89037500D01*
G75*
G02*
X129112500Y-88800000I237500J0D01*
G01*
G37*
%TD*%
D11*
%TO.C,H1*%
X121197056Y-71302944D03*
X119500000Y-70600000D03*
X117802944Y-71302944D03*
X117100000Y-73000000D03*
X117802944Y-74697056D03*
X119500000Y-75400000D03*
X121197056Y-74697056D03*
X121900000Y-73000000D03*
D12*
X119500000Y-73000000D03*
%TD*%
D19*
%TO.C,U2*%
X98550000Y-89000000D03*
X98550000Y-90000000D03*
D20*
X98550000Y-88000000D03*
X98550000Y-91000000D03*
D21*
X98550000Y-86750000D03*
X98550000Y-92250000D03*
D22*
G36*
X97500000Y-84700000D02*
G01*
X97500000Y-85700000D01*
X95800000Y-85700000D01*
X95800000Y-84700000D01*
X97500000Y-84700000D01*
G37*
G36*
X97500000Y-93250000D02*
G01*
X97500000Y-94250000D01*
X95800000Y-94250000D01*
X95800000Y-93250000D01*
X97500000Y-93250000D01*
G37*
%TD*%
D23*
%TO.C,U1*%
X120052500Y-87395000D03*
X120052500Y-88665000D03*
X120052500Y-89935000D03*
X120052500Y-91205000D03*
X125047500Y-91205000D03*
X125047500Y-89935000D03*
X125047500Y-88665000D03*
X125047500Y-87395000D03*
D24*
X122550000Y-89300000D03*
%TD*%
D22*
%TO.C,SW1*%
G36*
X95300000Y-79450000D02*
G01*
X95300000Y-72450000D01*
X98300000Y-72450000D01*
X98300000Y-79450000D01*
X95300000Y-79450000D01*
G37*
G36*
X102300000Y-79450000D02*
G01*
X102300000Y-72450000D01*
X105300000Y-72450000D01*
X105300000Y-79450000D01*
X102300000Y-79450000D01*
G37*
G36*
X109300000Y-79450000D02*
G01*
X109300000Y-72450000D01*
X112300000Y-72450000D01*
X112300000Y-79450000D01*
X109300000Y-79450000D01*
G37*
%TD*%
%TO.C,R6*%
G36*
G01*
X92962500Y-91725000D02*
X93437500Y-91725000D01*
G75*
G02*
X93675000Y-91962500I0J-237500D01*
G01*
X93675000Y-92462500D01*
G75*
G02*
X93437500Y-92700000I-237500J0D01*
G01*
X92962500Y-92700000D01*
G75*
G02*
X92725000Y-92462500I0J237500D01*
G01*
X92725000Y-91962500D01*
G75*
G02*
X92962500Y-91725000I237500J0D01*
G01*
G37*
G36*
G01*
X92962500Y-89900000D02*
X93437500Y-89900000D01*
G75*
G02*
X93675000Y-90137500I0J-237500D01*
G01*
X93675000Y-90637500D01*
G75*
G02*
X93437500Y-90875000I-237500J0D01*
G01*
X92962500Y-90875000D01*
G75*
G02*
X92725000Y-90637500I0J237500D01*
G01*
X92725000Y-90137500D01*
G75*
G02*
X92962500Y-89900000I237500J0D01*
G01*
G37*
%TD*%
%TO.C,R5*%
G36*
G01*
X93437500Y-87075000D02*
X92962500Y-87075000D01*
G75*
G02*
X92725000Y-86837500I0J237500D01*
G01*
X92725000Y-86337500D01*
G75*
G02*
X92962500Y-86100000I237500J0D01*
G01*
X93437500Y-86100000D01*
G75*
G02*
X93675000Y-86337500I0J-237500D01*
G01*
X93675000Y-86837500D01*
G75*
G02*
X93437500Y-87075000I-237500J0D01*
G01*
G37*
G36*
G01*
X93437500Y-88900000D02*
X92962500Y-88900000D01*
G75*
G02*
X92725000Y-88662500I0J237500D01*
G01*
X92725000Y-88162500D01*
G75*
G02*
X92962500Y-87925000I237500J0D01*
G01*
X93437500Y-87925000D01*
G75*
G02*
X93675000Y-88162500I0J-237500D01*
G01*
X93675000Y-88662500D01*
G75*
G02*
X93437500Y-88900000I-237500J0D01*
G01*
G37*
%TD*%
%TO.C,R2*%
G36*
G01*
X129112500Y-86925000D02*
X129587500Y-86925000D01*
G75*
G02*
X129825000Y-87162500I0J-237500D01*
G01*
X129825000Y-87662500D01*
G75*
G02*
X129587500Y-87900000I-237500J0D01*
G01*
X129112500Y-87900000D01*
G75*
G02*
X128875000Y-87662500I0J237500D01*
G01*
X128875000Y-87162500D01*
G75*
G02*
X129112500Y-86925000I237500J0D01*
G01*
G37*
G36*
G01*
X129112500Y-85100000D02*
X129587500Y-85100000D01*
G75*
G02*
X129825000Y-85337500I0J-237500D01*
G01*
X129825000Y-85837500D01*
G75*
G02*
X129587500Y-86075000I-237500J0D01*
G01*
X129112500Y-86075000D01*
G75*
G02*
X128875000Y-85837500I0J237500D01*
G01*
X128875000Y-85337500D01*
G75*
G02*
X129112500Y-85100000I237500J0D01*
G01*
G37*
%TD*%
%TO.C,R1*%
G36*
G01*
X117662500Y-92625000D02*
X118137500Y-92625000D01*
G75*
G02*
X118375000Y-92862500I0J-237500D01*
G01*
X118375000Y-93362500D01*
G75*
G02*
X118137500Y-93600000I-237500J0D01*
G01*
X117662500Y-93600000D01*
G75*
G02*
X117425000Y-93362500I0J237500D01*
G01*
X117425000Y-92862500D01*
G75*
G02*
X117662500Y-92625000I237500J0D01*
G01*
G37*
G36*
G01*
X117662500Y-90800000D02*
X118137500Y-90800000D01*
G75*
G02*
X118375000Y-91037500I0J-237500D01*
G01*
X118375000Y-91537500D01*
G75*
G02*
X118137500Y-91775000I-237500J0D01*
G01*
X117662500Y-91775000D01*
G75*
G02*
X117425000Y-91537500I0J237500D01*
G01*
X117425000Y-91037500D01*
G75*
G02*
X117662500Y-90800000I237500J0D01*
G01*
G37*
%TD*%
D17*
%TO.C,C8*%
X136850000Y-89100000D03*
D18*
X136850000Y-85600000D03*
%TD*%
%TO.C,C7*%
G36*
G01*
X131012500Y-86825000D02*
X131487500Y-86825000D01*
G75*
G02*
X131725000Y-87062500I0J-237500D01*
G01*
X131725000Y-87662500D01*
G75*
G02*
X131487500Y-87900000I-237500J0D01*
G01*
X131012500Y-87900000D01*
G75*
G02*
X130775000Y-87662500I0J237500D01*
G01*
X130775000Y-87062500D01*
G75*
G02*
X131012500Y-86825000I237500J0D01*
G01*
G37*
G36*
G01*
X131012500Y-85100000D02*
X131487500Y-85100000D01*
G75*
G02*
X131725000Y-85337500I0J-237500D01*
G01*
X131725000Y-85937500D01*
G75*
G02*
X131487500Y-86175000I-237500J0D01*
G01*
X131012500Y-86175000D01*
G75*
G02*
X130775000Y-85937500I0J237500D01*
G01*
X130775000Y-85337500D01*
G75*
G02*
X131012500Y-85100000I237500J0D01*
G01*
G37*
%TD*%
%TO.C,C6*%
G36*
G01*
X127262500Y-90525000D02*
X127737500Y-90525000D01*
G75*
G02*
X127975000Y-90762500I0J-237500D01*
G01*
X127975000Y-91362500D01*
G75*
G02*
X127737500Y-91600000I-237500J0D01*
G01*
X127262500Y-91600000D01*
G75*
G02*
X127025000Y-91362500I0J237500D01*
G01*
X127025000Y-90762500D01*
G75*
G02*
X127262500Y-90525000I237500J0D01*
G01*
G37*
G36*
G01*
X127262500Y-88800000D02*
X127737500Y-88800000D01*
G75*
G02*
X127975000Y-89037500I0J-237500D01*
G01*
X127975000Y-89637500D01*
G75*
G02*
X127737500Y-89875000I-237500J0D01*
G01*
X127262500Y-89875000D01*
G75*
G02*
X127025000Y-89637500I0J237500D01*
G01*
X127025000Y-89037500D01*
G75*
G02*
X127262500Y-88800000I237500J0D01*
G01*
G37*
%TD*%
%TO.C,C5*%
G36*
G01*
X114675000Y-91062500D02*
X114675000Y-91537500D01*
G75*
G02*
X114437500Y-91775000I-237500J0D01*
G01*
X113837500Y-91775000D01*
G75*
G02*
X113600000Y-91537500I0J237500D01*
G01*
X113600000Y-91062500D01*
G75*
G02*
X113837500Y-90825000I237500J0D01*
G01*
X114437500Y-90825000D01*
G75*
G02*
X114675000Y-91062500I0J-237500D01*
G01*
G37*
G36*
G01*
X116400000Y-91062500D02*
X116400000Y-91537500D01*
G75*
G02*
X116162500Y-91775000I-237500J0D01*
G01*
X115562500Y-91775000D01*
G75*
G02*
X115325000Y-91537500I0J237500D01*
G01*
X115325000Y-91062500D01*
G75*
G02*
X115562500Y-90825000I237500J0D01*
G01*
X116162500Y-90825000D01*
G75*
G02*
X116400000Y-91062500I0J-237500D01*
G01*
G37*
%TD*%
%TO.C,C4*%
G36*
G01*
X114675000Y-92862500D02*
X114675000Y-93337500D01*
G75*
G02*
X114437500Y-93575000I-237500J0D01*
G01*
X113837500Y-93575000D01*
G75*
G02*
X113600000Y-93337500I0J237500D01*
G01*
X113600000Y-92862500D01*
G75*
G02*
X113837500Y-92625000I237500J0D01*
G01*
X114437500Y-92625000D01*
G75*
G02*
X114675000Y-92862500I0J-237500D01*
G01*
G37*
G36*
G01*
X116400000Y-92862500D02*
X116400000Y-93337500D01*
G75*
G02*
X116162500Y-93575000I-237500J0D01*
G01*
X115562500Y-93575000D01*
G75*
G02*
X115325000Y-93337500I0J237500D01*
G01*
X115325000Y-92862500D01*
G75*
G02*
X115562500Y-92625000I237500J0D01*
G01*
X116162500Y-92625000D01*
G75*
G02*
X116400000Y-92862500I0J-237500D01*
G01*
G37*
%TD*%
%TO.C,C2*%
G36*
G01*
X115662500Y-86975000D02*
X116137500Y-86975000D01*
G75*
G02*
X116375000Y-87212500I0J-237500D01*
G01*
X116375000Y-87812500D01*
G75*
G02*
X116137500Y-88050000I-237500J0D01*
G01*
X115662500Y-88050000D01*
G75*
G02*
X115425000Y-87812500I0J237500D01*
G01*
X115425000Y-87212500D01*
G75*
G02*
X115662500Y-86975000I237500J0D01*
G01*
G37*
G36*
G01*
X115662500Y-85250000D02*
X116137500Y-85250000D01*
G75*
G02*
X116375000Y-85487500I0J-237500D01*
G01*
X116375000Y-86087500D01*
G75*
G02*
X116137500Y-86325000I-237500J0D01*
G01*
X115662500Y-86325000D01*
G75*
G02*
X115425000Y-86087500I0J237500D01*
G01*
X115425000Y-85487500D01*
G75*
G02*
X115662500Y-85250000I237500J0D01*
G01*
G37*
%TD*%
M02*
