%TF.GenerationSoftware,KiCad,Pcbnew,(5.1.9)-1*%
%TF.CreationDate,2021-11-10T21:50:44+01:00*%
%TF.ProjectId,smoke_extractor,736d6f6b-655f-4657-9874-726163746f72,rev?*%
%TF.SameCoordinates,Original*%
%TF.FileFunction,Legend,Top*%
%TF.FilePolarity,Positive*%
%FSLAX46Y46*%
G04 Gerber Fmt 4.6, Leading zero omitted, Abs format (unit mm)*
G04 Created by KiCad (PCBNEW (5.1.9)-1) date 2021-11-10 21:50:44*
%MOMM*%
%LPD*%
G01*
G04 APERTURE LIST*
%ADD10C,0.150000*%
%ADD11C,0.010000*%
%ADD12C,0.120000*%
%ADD13C,0.100000*%
G04 APERTURE END LIST*
D10*
X144304761Y-88361904D02*
X143847619Y-88361904D01*
X144076190Y-88361904D02*
X144076190Y-87561904D01*
X144000000Y-87676190D01*
X143923809Y-87752380D01*
X143847619Y-87790476D01*
X144609523Y-87638095D02*
X144647619Y-87600000D01*
X144723809Y-87561904D01*
X144914285Y-87561904D01*
X144990476Y-87600000D01*
X145028571Y-87638095D01*
X145066666Y-87714285D01*
X145066666Y-87790476D01*
X145028571Y-87904761D01*
X144571428Y-88361904D01*
X145066666Y-88361904D01*
X145295238Y-87561904D02*
X145561904Y-88361904D01*
X145828571Y-87561904D01*
X134761904Y-73195238D02*
X134761904Y-73652380D01*
X134761904Y-73423809D02*
X133961904Y-73423809D01*
X134076190Y-73500000D01*
X134152380Y-73576190D01*
X134190476Y-73652380D01*
X134038095Y-72890476D02*
X134000000Y-72852380D01*
X133961904Y-72776190D01*
X133961904Y-72585714D01*
X134000000Y-72509523D01*
X134038095Y-72471428D01*
X134114285Y-72433333D01*
X134190476Y-72433333D01*
X134304761Y-72471428D01*
X134761904Y-72928571D01*
X134761904Y-72433333D01*
X133961904Y-72204761D02*
X134761904Y-71938095D01*
X133961904Y-71671428D01*
D11*
%TO.C,REF\u002A\u002A*%
G36*
X135355814Y-75368931D02*
G01*
X135439635Y-75813555D01*
X135748920Y-75941053D01*
X136058206Y-76068551D01*
X136429246Y-75816246D01*
X136533157Y-75745996D01*
X136627087Y-75683272D01*
X136706652Y-75630938D01*
X136767470Y-75591857D01*
X136805157Y-75568893D01*
X136815421Y-75563942D01*
X136833910Y-75576676D01*
X136873420Y-75611882D01*
X136929522Y-75665062D01*
X136997787Y-75731718D01*
X137073786Y-75807354D01*
X137153092Y-75887472D01*
X137231275Y-75967574D01*
X137303907Y-76043164D01*
X137366559Y-76109745D01*
X137414803Y-76162818D01*
X137444210Y-76197887D01*
X137451241Y-76209623D01*
X137441123Y-76231260D01*
X137412759Y-76278662D01*
X137369129Y-76347193D01*
X137313218Y-76432215D01*
X137248006Y-76529093D01*
X137210219Y-76584350D01*
X137141343Y-76685248D01*
X137080140Y-76776299D01*
X137029578Y-76852970D01*
X136992628Y-76910728D01*
X136972258Y-76945043D01*
X136969197Y-76952254D01*
X136976136Y-76972748D01*
X136995051Y-77020513D01*
X137023087Y-77088832D01*
X137057391Y-77170989D01*
X137095109Y-77260270D01*
X137133387Y-77349958D01*
X137169370Y-77433338D01*
X137200206Y-77503694D01*
X137223039Y-77554310D01*
X137235017Y-77578471D01*
X137235724Y-77579422D01*
X137254531Y-77584036D01*
X137304618Y-77594328D01*
X137380793Y-77609287D01*
X137477865Y-77627901D01*
X137590643Y-77649159D01*
X137656442Y-77661418D01*
X137776950Y-77684362D01*
X137885797Y-77706195D01*
X137977476Y-77725722D01*
X138046481Y-77741748D01*
X138087304Y-77753079D01*
X138095511Y-77756674D01*
X138103548Y-77781006D01*
X138110033Y-77835959D01*
X138114970Y-77915108D01*
X138118364Y-78012026D01*
X138120218Y-78120287D01*
X138120538Y-78233465D01*
X138119327Y-78345135D01*
X138116590Y-78448868D01*
X138112331Y-78538241D01*
X138106555Y-78606826D01*
X138099267Y-78648197D01*
X138094895Y-78656810D01*
X138068764Y-78667133D01*
X138013393Y-78681892D01*
X137936107Y-78699352D01*
X137844230Y-78717780D01*
X137812158Y-78723741D01*
X137657524Y-78752066D01*
X137535375Y-78774876D01*
X137441673Y-78793080D01*
X137372384Y-78807583D01*
X137323471Y-78819292D01*
X137290897Y-78829115D01*
X137270628Y-78837956D01*
X137258626Y-78846724D01*
X137256947Y-78848457D01*
X137240184Y-78876371D01*
X137214614Y-78930695D01*
X137182788Y-79004777D01*
X137147260Y-79091965D01*
X137110583Y-79185608D01*
X137075311Y-79279052D01*
X137043996Y-79365647D01*
X137019193Y-79438740D01*
X137003454Y-79491678D01*
X136999332Y-79517811D01*
X136999676Y-79518726D01*
X137013641Y-79540086D01*
X137045322Y-79587084D01*
X137091391Y-79654827D01*
X137148518Y-79738423D01*
X137213373Y-79832982D01*
X137231843Y-79859854D01*
X137297699Y-79957275D01*
X137355650Y-80046163D01*
X137402538Y-80121412D01*
X137435207Y-80177920D01*
X137450500Y-80210581D01*
X137451241Y-80214593D01*
X137438392Y-80235684D01*
X137402888Y-80277464D01*
X137349293Y-80335445D01*
X137282171Y-80405135D01*
X137206087Y-80482045D01*
X137125604Y-80561683D01*
X137045287Y-80639561D01*
X136969699Y-80711186D01*
X136903405Y-80772070D01*
X136850969Y-80817721D01*
X136816955Y-80843650D01*
X136807545Y-80847883D01*
X136785643Y-80837912D01*
X136740800Y-80811020D01*
X136680321Y-80771736D01*
X136633789Y-80740117D01*
X136549475Y-80682098D01*
X136449626Y-80613784D01*
X136349473Y-80545579D01*
X136295627Y-80509075D01*
X136113371Y-80385800D01*
X135960381Y-80468520D01*
X135890682Y-80504759D01*
X135831414Y-80532926D01*
X135791311Y-80548991D01*
X135781103Y-80551226D01*
X135768829Y-80534722D01*
X135744613Y-80488082D01*
X135710263Y-80415609D01*
X135667588Y-80321606D01*
X135618394Y-80210374D01*
X135564490Y-80086215D01*
X135507684Y-79953432D01*
X135449782Y-79816327D01*
X135392593Y-79679202D01*
X135337924Y-79546358D01*
X135287584Y-79422098D01*
X135243380Y-79310725D01*
X135207119Y-79216539D01*
X135180609Y-79143844D01*
X135165658Y-79096941D01*
X135163254Y-79080833D01*
X135182311Y-79060286D01*
X135224036Y-79026933D01*
X135279706Y-78987702D01*
X135284378Y-78984599D01*
X135428264Y-78869423D01*
X135544283Y-78735053D01*
X135631430Y-78585784D01*
X135688699Y-78425913D01*
X135715086Y-78259737D01*
X135709585Y-78091552D01*
X135671190Y-77925655D01*
X135598895Y-77766342D01*
X135577626Y-77731487D01*
X135466996Y-77590737D01*
X135336302Y-77477714D01*
X135190064Y-77393003D01*
X135032808Y-77337194D01*
X134869057Y-77310874D01*
X134703333Y-77314630D01*
X134540162Y-77349050D01*
X134384065Y-77414723D01*
X134239567Y-77512235D01*
X134194869Y-77551813D01*
X134081112Y-77675703D01*
X133998218Y-77806124D01*
X133941356Y-77952315D01*
X133909687Y-78097088D01*
X133901869Y-78259860D01*
X133927938Y-78423440D01*
X133985245Y-78582298D01*
X134071144Y-78730906D01*
X134182986Y-78863735D01*
X134318123Y-78975256D01*
X134335883Y-78987011D01*
X134392150Y-79025508D01*
X134434923Y-79058863D01*
X134455372Y-79080160D01*
X134455669Y-79080833D01*
X134451279Y-79103871D01*
X134433876Y-79156157D01*
X134405268Y-79233390D01*
X134367265Y-79331268D01*
X134321674Y-79445491D01*
X134270303Y-79571758D01*
X134214962Y-79705767D01*
X134157458Y-79843218D01*
X134099601Y-79979808D01*
X134043198Y-80111237D01*
X133990058Y-80233205D01*
X133941990Y-80341409D01*
X133900801Y-80431549D01*
X133868301Y-80499323D01*
X133846297Y-80540430D01*
X133837436Y-80551226D01*
X133810360Y-80542819D01*
X133759697Y-80520272D01*
X133694183Y-80487613D01*
X133658159Y-80468520D01*
X133505168Y-80385800D01*
X133322912Y-80509075D01*
X133229875Y-80572228D01*
X133128015Y-80641727D01*
X133032562Y-80707165D01*
X132984750Y-80740117D01*
X132917505Y-80785273D01*
X132860564Y-80821057D01*
X132821354Y-80842938D01*
X132808619Y-80847563D01*
X132790083Y-80835085D01*
X132749059Y-80800252D01*
X132689525Y-80746678D01*
X132615458Y-80677983D01*
X132530835Y-80597781D01*
X132477315Y-80546286D01*
X132383681Y-80454286D01*
X132302759Y-80371999D01*
X132237823Y-80302945D01*
X132192142Y-80250644D01*
X132168989Y-80218616D01*
X132166768Y-80212116D01*
X132177076Y-80187394D01*
X132205561Y-80137405D01*
X132249063Y-80067212D01*
X132304423Y-79981875D01*
X132368480Y-79886456D01*
X132386697Y-79859854D01*
X132453073Y-79763167D01*
X132512622Y-79676117D01*
X132562016Y-79603595D01*
X132597925Y-79550493D01*
X132617019Y-79521703D01*
X132618864Y-79518726D01*
X132616105Y-79495782D01*
X132601462Y-79445336D01*
X132577487Y-79374041D01*
X132546734Y-79288547D01*
X132511756Y-79195507D01*
X132475107Y-79101574D01*
X132439339Y-79013399D01*
X132407006Y-78937634D01*
X132380662Y-78880931D01*
X132362858Y-78849943D01*
X132361593Y-78848457D01*
X132350706Y-78839601D01*
X132332318Y-78830843D01*
X132302394Y-78821277D01*
X132256897Y-78809996D01*
X132191791Y-78796093D01*
X132103039Y-78778663D01*
X131986607Y-78756798D01*
X131838458Y-78729591D01*
X131806382Y-78723741D01*
X131711314Y-78705374D01*
X131628435Y-78687405D01*
X131565070Y-78671569D01*
X131528542Y-78659600D01*
X131523644Y-78656810D01*
X131515573Y-78632072D01*
X131509013Y-78576790D01*
X131503967Y-78497389D01*
X131500441Y-78400296D01*
X131498439Y-78291938D01*
X131497964Y-78178740D01*
X131499023Y-78067128D01*
X131501618Y-77963529D01*
X131505754Y-77874368D01*
X131511437Y-77806072D01*
X131518669Y-77765066D01*
X131523029Y-77756674D01*
X131547302Y-77748208D01*
X131602574Y-77734435D01*
X131683338Y-77716550D01*
X131784088Y-77695748D01*
X131899317Y-77673223D01*
X131962098Y-77661418D01*
X132081213Y-77639151D01*
X132187435Y-77618979D01*
X132275573Y-77601915D01*
X132340434Y-77588969D01*
X132376826Y-77581155D01*
X132382816Y-77579422D01*
X132392939Y-77559890D01*
X132414338Y-77512843D01*
X132444161Y-77445003D01*
X132479555Y-77363091D01*
X132517668Y-77273828D01*
X132555647Y-77183935D01*
X132590640Y-77100135D01*
X132619794Y-77029147D01*
X132640257Y-76977694D01*
X132649177Y-76952497D01*
X132649343Y-76951396D01*
X132639231Y-76931519D01*
X132610883Y-76885777D01*
X132567277Y-76818717D01*
X132511394Y-76734884D01*
X132446213Y-76638826D01*
X132408321Y-76583650D01*
X132339275Y-76482481D01*
X132277950Y-76390630D01*
X132227337Y-76312744D01*
X132190429Y-76253469D01*
X132170218Y-76217451D01*
X132167299Y-76209377D01*
X132179847Y-76190584D01*
X132214537Y-76150457D01*
X132266937Y-76093493D01*
X132332616Y-76024185D01*
X132407144Y-75947031D01*
X132486087Y-75866525D01*
X132565017Y-75787163D01*
X132639500Y-75713440D01*
X132705106Y-75649852D01*
X132757404Y-75600894D01*
X132791961Y-75571061D01*
X132803522Y-75563942D01*
X132822346Y-75573953D01*
X132867369Y-75602078D01*
X132934213Y-75645454D01*
X133018501Y-75701218D01*
X133115856Y-75766506D01*
X133189293Y-75816246D01*
X133560333Y-76068551D01*
X134178905Y-75813555D01*
X134262725Y-75368931D01*
X134346546Y-74924307D01*
X135271994Y-74924307D01*
X135355814Y-75368931D01*
G37*
X135355814Y-75368931D02*
X135439635Y-75813555D01*
X135748920Y-75941053D01*
X136058206Y-76068551D01*
X136429246Y-75816246D01*
X136533157Y-75745996D01*
X136627087Y-75683272D01*
X136706652Y-75630938D01*
X136767470Y-75591857D01*
X136805157Y-75568893D01*
X136815421Y-75563942D01*
X136833910Y-75576676D01*
X136873420Y-75611882D01*
X136929522Y-75665062D01*
X136997787Y-75731718D01*
X137073786Y-75807354D01*
X137153092Y-75887472D01*
X137231275Y-75967574D01*
X137303907Y-76043164D01*
X137366559Y-76109745D01*
X137414803Y-76162818D01*
X137444210Y-76197887D01*
X137451241Y-76209623D01*
X137441123Y-76231260D01*
X137412759Y-76278662D01*
X137369129Y-76347193D01*
X137313218Y-76432215D01*
X137248006Y-76529093D01*
X137210219Y-76584350D01*
X137141343Y-76685248D01*
X137080140Y-76776299D01*
X137029578Y-76852970D01*
X136992628Y-76910728D01*
X136972258Y-76945043D01*
X136969197Y-76952254D01*
X136976136Y-76972748D01*
X136995051Y-77020513D01*
X137023087Y-77088832D01*
X137057391Y-77170989D01*
X137095109Y-77260270D01*
X137133387Y-77349958D01*
X137169370Y-77433338D01*
X137200206Y-77503694D01*
X137223039Y-77554310D01*
X137235017Y-77578471D01*
X137235724Y-77579422D01*
X137254531Y-77584036D01*
X137304618Y-77594328D01*
X137380793Y-77609287D01*
X137477865Y-77627901D01*
X137590643Y-77649159D01*
X137656442Y-77661418D01*
X137776950Y-77684362D01*
X137885797Y-77706195D01*
X137977476Y-77725722D01*
X138046481Y-77741748D01*
X138087304Y-77753079D01*
X138095511Y-77756674D01*
X138103548Y-77781006D01*
X138110033Y-77835959D01*
X138114970Y-77915108D01*
X138118364Y-78012026D01*
X138120218Y-78120287D01*
X138120538Y-78233465D01*
X138119327Y-78345135D01*
X138116590Y-78448868D01*
X138112331Y-78538241D01*
X138106555Y-78606826D01*
X138099267Y-78648197D01*
X138094895Y-78656810D01*
X138068764Y-78667133D01*
X138013393Y-78681892D01*
X137936107Y-78699352D01*
X137844230Y-78717780D01*
X137812158Y-78723741D01*
X137657524Y-78752066D01*
X137535375Y-78774876D01*
X137441673Y-78793080D01*
X137372384Y-78807583D01*
X137323471Y-78819292D01*
X137290897Y-78829115D01*
X137270628Y-78837956D01*
X137258626Y-78846724D01*
X137256947Y-78848457D01*
X137240184Y-78876371D01*
X137214614Y-78930695D01*
X137182788Y-79004777D01*
X137147260Y-79091965D01*
X137110583Y-79185608D01*
X137075311Y-79279052D01*
X137043996Y-79365647D01*
X137019193Y-79438740D01*
X137003454Y-79491678D01*
X136999332Y-79517811D01*
X136999676Y-79518726D01*
X137013641Y-79540086D01*
X137045322Y-79587084D01*
X137091391Y-79654827D01*
X137148518Y-79738423D01*
X137213373Y-79832982D01*
X137231843Y-79859854D01*
X137297699Y-79957275D01*
X137355650Y-80046163D01*
X137402538Y-80121412D01*
X137435207Y-80177920D01*
X137450500Y-80210581D01*
X137451241Y-80214593D01*
X137438392Y-80235684D01*
X137402888Y-80277464D01*
X137349293Y-80335445D01*
X137282171Y-80405135D01*
X137206087Y-80482045D01*
X137125604Y-80561683D01*
X137045287Y-80639561D01*
X136969699Y-80711186D01*
X136903405Y-80772070D01*
X136850969Y-80817721D01*
X136816955Y-80843650D01*
X136807545Y-80847883D01*
X136785643Y-80837912D01*
X136740800Y-80811020D01*
X136680321Y-80771736D01*
X136633789Y-80740117D01*
X136549475Y-80682098D01*
X136449626Y-80613784D01*
X136349473Y-80545579D01*
X136295627Y-80509075D01*
X136113371Y-80385800D01*
X135960381Y-80468520D01*
X135890682Y-80504759D01*
X135831414Y-80532926D01*
X135791311Y-80548991D01*
X135781103Y-80551226D01*
X135768829Y-80534722D01*
X135744613Y-80488082D01*
X135710263Y-80415609D01*
X135667588Y-80321606D01*
X135618394Y-80210374D01*
X135564490Y-80086215D01*
X135507684Y-79953432D01*
X135449782Y-79816327D01*
X135392593Y-79679202D01*
X135337924Y-79546358D01*
X135287584Y-79422098D01*
X135243380Y-79310725D01*
X135207119Y-79216539D01*
X135180609Y-79143844D01*
X135165658Y-79096941D01*
X135163254Y-79080833D01*
X135182311Y-79060286D01*
X135224036Y-79026933D01*
X135279706Y-78987702D01*
X135284378Y-78984599D01*
X135428264Y-78869423D01*
X135544283Y-78735053D01*
X135631430Y-78585784D01*
X135688699Y-78425913D01*
X135715086Y-78259737D01*
X135709585Y-78091552D01*
X135671190Y-77925655D01*
X135598895Y-77766342D01*
X135577626Y-77731487D01*
X135466996Y-77590737D01*
X135336302Y-77477714D01*
X135190064Y-77393003D01*
X135032808Y-77337194D01*
X134869057Y-77310874D01*
X134703333Y-77314630D01*
X134540162Y-77349050D01*
X134384065Y-77414723D01*
X134239567Y-77512235D01*
X134194869Y-77551813D01*
X134081112Y-77675703D01*
X133998218Y-77806124D01*
X133941356Y-77952315D01*
X133909687Y-78097088D01*
X133901869Y-78259860D01*
X133927938Y-78423440D01*
X133985245Y-78582298D01*
X134071144Y-78730906D01*
X134182986Y-78863735D01*
X134318123Y-78975256D01*
X134335883Y-78987011D01*
X134392150Y-79025508D01*
X134434923Y-79058863D01*
X134455372Y-79080160D01*
X134455669Y-79080833D01*
X134451279Y-79103871D01*
X134433876Y-79156157D01*
X134405268Y-79233390D01*
X134367265Y-79331268D01*
X134321674Y-79445491D01*
X134270303Y-79571758D01*
X134214962Y-79705767D01*
X134157458Y-79843218D01*
X134099601Y-79979808D01*
X134043198Y-80111237D01*
X133990058Y-80233205D01*
X133941990Y-80341409D01*
X133900801Y-80431549D01*
X133868301Y-80499323D01*
X133846297Y-80540430D01*
X133837436Y-80551226D01*
X133810360Y-80542819D01*
X133759697Y-80520272D01*
X133694183Y-80487613D01*
X133658159Y-80468520D01*
X133505168Y-80385800D01*
X133322912Y-80509075D01*
X133229875Y-80572228D01*
X133128015Y-80641727D01*
X133032562Y-80707165D01*
X132984750Y-80740117D01*
X132917505Y-80785273D01*
X132860564Y-80821057D01*
X132821354Y-80842938D01*
X132808619Y-80847563D01*
X132790083Y-80835085D01*
X132749059Y-80800252D01*
X132689525Y-80746678D01*
X132615458Y-80677983D01*
X132530835Y-80597781D01*
X132477315Y-80546286D01*
X132383681Y-80454286D01*
X132302759Y-80371999D01*
X132237823Y-80302945D01*
X132192142Y-80250644D01*
X132168989Y-80218616D01*
X132166768Y-80212116D01*
X132177076Y-80187394D01*
X132205561Y-80137405D01*
X132249063Y-80067212D01*
X132304423Y-79981875D01*
X132368480Y-79886456D01*
X132386697Y-79859854D01*
X132453073Y-79763167D01*
X132512622Y-79676117D01*
X132562016Y-79603595D01*
X132597925Y-79550493D01*
X132617019Y-79521703D01*
X132618864Y-79518726D01*
X132616105Y-79495782D01*
X132601462Y-79445336D01*
X132577487Y-79374041D01*
X132546734Y-79288547D01*
X132511756Y-79195507D01*
X132475107Y-79101574D01*
X132439339Y-79013399D01*
X132407006Y-78937634D01*
X132380662Y-78880931D01*
X132362858Y-78849943D01*
X132361593Y-78848457D01*
X132350706Y-78839601D01*
X132332318Y-78830843D01*
X132302394Y-78821277D01*
X132256897Y-78809996D01*
X132191791Y-78796093D01*
X132103039Y-78778663D01*
X131986607Y-78756798D01*
X131838458Y-78729591D01*
X131806382Y-78723741D01*
X131711314Y-78705374D01*
X131628435Y-78687405D01*
X131565070Y-78671569D01*
X131528542Y-78659600D01*
X131523644Y-78656810D01*
X131515573Y-78632072D01*
X131509013Y-78576790D01*
X131503967Y-78497389D01*
X131500441Y-78400296D01*
X131498439Y-78291938D01*
X131497964Y-78178740D01*
X131499023Y-78067128D01*
X131501618Y-77963529D01*
X131505754Y-77874368D01*
X131511437Y-77806072D01*
X131518669Y-77765066D01*
X131523029Y-77756674D01*
X131547302Y-77748208D01*
X131602574Y-77734435D01*
X131683338Y-77716550D01*
X131784088Y-77695748D01*
X131899317Y-77673223D01*
X131962098Y-77661418D01*
X132081213Y-77639151D01*
X132187435Y-77618979D01*
X132275573Y-77601915D01*
X132340434Y-77588969D01*
X132376826Y-77581155D01*
X132382816Y-77579422D01*
X132392939Y-77559890D01*
X132414338Y-77512843D01*
X132444161Y-77445003D01*
X132479555Y-77363091D01*
X132517668Y-77273828D01*
X132555647Y-77183935D01*
X132590640Y-77100135D01*
X132619794Y-77029147D01*
X132640257Y-76977694D01*
X132649177Y-76952497D01*
X132649343Y-76951396D01*
X132639231Y-76931519D01*
X132610883Y-76885777D01*
X132567277Y-76818717D01*
X132511394Y-76734884D01*
X132446213Y-76638826D01*
X132408321Y-76583650D01*
X132339275Y-76482481D01*
X132277950Y-76390630D01*
X132227337Y-76312744D01*
X132190429Y-76253469D01*
X132170218Y-76217451D01*
X132167299Y-76209377D01*
X132179847Y-76190584D01*
X132214537Y-76150457D01*
X132266937Y-76093493D01*
X132332616Y-76024185D01*
X132407144Y-75947031D01*
X132486087Y-75866525D01*
X132565017Y-75787163D01*
X132639500Y-75713440D01*
X132705106Y-75649852D01*
X132757404Y-75600894D01*
X132791961Y-75571061D01*
X132803522Y-75563942D01*
X132822346Y-75573953D01*
X132867369Y-75602078D01*
X132934213Y-75645454D01*
X133018501Y-75701218D01*
X133115856Y-75766506D01*
X133189293Y-75816246D01*
X133560333Y-76068551D01*
X134178905Y-75813555D01*
X134262725Y-75368931D01*
X134346546Y-74924307D01*
X135271994Y-74924307D01*
X135355814Y-75368931D01*
D12*
%TO.C,D1*%
X131900000Y-83300000D02*
X128050000Y-83300000D01*
X131900000Y-81300000D02*
X128050000Y-81300000D01*
X131900000Y-83300000D02*
X131900000Y-81300000D01*
%TO.C,J3*%
X147110000Y-87310000D02*
X147110000Y-84810000D01*
X144610000Y-87310000D02*
X147110000Y-87310000D01*
X145310000Y-80290000D02*
X146810000Y-80290000D01*
X145310000Y-79290000D02*
X145310000Y-80290000D01*
X145310000Y-86010000D02*
X146810000Y-86010000D01*
X145310000Y-87010000D02*
X145310000Y-86010000D01*
X144500000Y-79790000D02*
X144500000Y-79290000D01*
X143290000Y-79790000D02*
X144500000Y-79790000D01*
X143290000Y-86510000D02*
X143290000Y-79790000D01*
X144500000Y-86510000D02*
X143290000Y-86510000D01*
X144500000Y-87010000D02*
X144500000Y-86510000D01*
X142790000Y-79290000D02*
X142790000Y-87010000D01*
X146810000Y-79290000D02*
X142790000Y-79290000D01*
X146810000Y-87010000D02*
X146810000Y-79290000D01*
X142790000Y-87010000D02*
X146810000Y-87010000D01*
%TO.C,J2*%
X133610000Y-69690000D02*
X131110000Y-69690000D01*
X133610000Y-72190000D02*
X133610000Y-69690000D01*
X126590000Y-71490000D02*
X126590000Y-69990000D01*
X125590000Y-71490000D02*
X126590000Y-71490000D01*
X132310000Y-71490000D02*
X132310000Y-69990000D01*
X133310000Y-71490000D02*
X132310000Y-71490000D01*
X126090000Y-72300000D02*
X125590000Y-72300000D01*
X126090000Y-73510000D02*
X126090000Y-72300000D01*
X132810000Y-73510000D02*
X126090000Y-73510000D01*
X132810000Y-72300000D02*
X132810000Y-73510000D01*
X133310000Y-72300000D02*
X132810000Y-72300000D01*
X125590000Y-74010000D02*
X133310000Y-74010000D01*
X125590000Y-69990000D02*
X125590000Y-74010000D01*
X133310000Y-69990000D02*
X125590000Y-69990000D01*
X133310000Y-74010000D02*
X133310000Y-69990000D01*
%TO.C,L1*%
X125900000Y-86150000D02*
X125900000Y-84950000D01*
X125900000Y-86150000D02*
X124500000Y-86150000D01*
X119100000Y-86150000D02*
X120500000Y-86150000D01*
X119100000Y-86150000D02*
X119100000Y-84950000D01*
X119100000Y-79750000D02*
X119100000Y-80950000D01*
X125900000Y-79750000D02*
X125900000Y-80950000D01*
X119100000Y-79750000D02*
X120500000Y-79750000D01*
X125900000Y-79750000D02*
X124500000Y-79750000D01*
%TO.C,R4*%
X103277500Y-86345276D02*
X103277500Y-86854724D01*
X104322500Y-86345276D02*
X104322500Y-86854724D01*
%TO.C,D2*%
X104535000Y-92060000D02*
X104535000Y-89600000D01*
X103065000Y-92060000D02*
X104535000Y-92060000D01*
X103065000Y-89600000D02*
X103065000Y-92060000D01*
%TO.C,C3*%
X113870000Y-87400000D02*
G75*
G03*
X113870000Y-87400000I-4120000J0D01*
G01*
X113830000Y-87400000D02*
X105670000Y-87400000D01*
X113830000Y-87440000D02*
X105670000Y-87440000D01*
X113830000Y-87480000D02*
X105670000Y-87480000D01*
X113829000Y-87520000D02*
X105671000Y-87520000D01*
X113827000Y-87560000D02*
X105673000Y-87560000D01*
X113826000Y-87600000D02*
X105674000Y-87600000D01*
X113824000Y-87640000D02*
X105676000Y-87640000D01*
X113821000Y-87680000D02*
X105679000Y-87680000D01*
X113818000Y-87720000D02*
X105682000Y-87720000D01*
X113815000Y-87760000D02*
X105685000Y-87760000D01*
X113811000Y-87800000D02*
X105689000Y-87800000D01*
X113807000Y-87840000D02*
X105693000Y-87840000D01*
X113802000Y-87880000D02*
X105698000Y-87880000D01*
X113798000Y-87920000D02*
X105702000Y-87920000D01*
X113792000Y-87960000D02*
X105708000Y-87960000D01*
X113787000Y-88000000D02*
X105713000Y-88000000D01*
X113780000Y-88040000D02*
X105720000Y-88040000D01*
X113774000Y-88080000D02*
X105726000Y-88080000D01*
X113767000Y-88121000D02*
X110790000Y-88121000D01*
X108710000Y-88121000D02*
X105733000Y-88121000D01*
X113760000Y-88161000D02*
X110790000Y-88161000D01*
X108710000Y-88161000D02*
X105740000Y-88161000D01*
X113752000Y-88201000D02*
X110790000Y-88201000D01*
X108710000Y-88201000D02*
X105748000Y-88201000D01*
X113744000Y-88241000D02*
X110790000Y-88241000D01*
X108710000Y-88241000D02*
X105756000Y-88241000D01*
X113735000Y-88281000D02*
X110790000Y-88281000D01*
X108710000Y-88281000D02*
X105765000Y-88281000D01*
X113726000Y-88321000D02*
X110790000Y-88321000D01*
X108710000Y-88321000D02*
X105774000Y-88321000D01*
X113717000Y-88361000D02*
X110790000Y-88361000D01*
X108710000Y-88361000D02*
X105783000Y-88361000D01*
X113707000Y-88401000D02*
X110790000Y-88401000D01*
X108710000Y-88401000D02*
X105793000Y-88401000D01*
X113697000Y-88441000D02*
X110790000Y-88441000D01*
X108710000Y-88441000D02*
X105803000Y-88441000D01*
X113686000Y-88481000D02*
X110790000Y-88481000D01*
X108710000Y-88481000D02*
X105814000Y-88481000D01*
X113675000Y-88521000D02*
X110790000Y-88521000D01*
X108710000Y-88521000D02*
X105825000Y-88521000D01*
X113664000Y-88561000D02*
X110790000Y-88561000D01*
X108710000Y-88561000D02*
X105836000Y-88561000D01*
X113652000Y-88601000D02*
X110790000Y-88601000D01*
X108710000Y-88601000D02*
X105848000Y-88601000D01*
X113639000Y-88641000D02*
X110790000Y-88641000D01*
X108710000Y-88641000D02*
X105861000Y-88641000D01*
X113627000Y-88681000D02*
X110790000Y-88681000D01*
X108710000Y-88681000D02*
X105873000Y-88681000D01*
X113613000Y-88721000D02*
X110790000Y-88721000D01*
X108710000Y-88721000D02*
X105887000Y-88721000D01*
X113600000Y-88761000D02*
X110790000Y-88761000D01*
X108710000Y-88761000D02*
X105900000Y-88761000D01*
X113585000Y-88801000D02*
X110790000Y-88801000D01*
X108710000Y-88801000D02*
X105915000Y-88801000D01*
X113571000Y-88841000D02*
X110790000Y-88841000D01*
X108710000Y-88841000D02*
X105929000Y-88841000D01*
X113555000Y-88881000D02*
X110790000Y-88881000D01*
X108710000Y-88881000D02*
X105945000Y-88881000D01*
X113540000Y-88921000D02*
X110790000Y-88921000D01*
X108710000Y-88921000D02*
X105960000Y-88921000D01*
X113524000Y-88961000D02*
X110790000Y-88961000D01*
X108710000Y-88961000D02*
X105976000Y-88961000D01*
X113507000Y-89001000D02*
X110790000Y-89001000D01*
X108710000Y-89001000D02*
X105993000Y-89001000D01*
X113490000Y-89041000D02*
X110790000Y-89041000D01*
X108710000Y-89041000D02*
X106010000Y-89041000D01*
X113472000Y-89081000D02*
X110790000Y-89081000D01*
X108710000Y-89081000D02*
X106028000Y-89081000D01*
X113454000Y-89121000D02*
X110790000Y-89121000D01*
X108710000Y-89121000D02*
X106046000Y-89121000D01*
X113436000Y-89161000D02*
X110790000Y-89161000D01*
X108710000Y-89161000D02*
X106064000Y-89161000D01*
X113416000Y-89201000D02*
X110790000Y-89201000D01*
X108710000Y-89201000D02*
X106084000Y-89201000D01*
X113397000Y-89241000D02*
X110790000Y-89241000D01*
X108710000Y-89241000D02*
X106103000Y-89241000D01*
X113377000Y-89281000D02*
X110790000Y-89281000D01*
X108710000Y-89281000D02*
X106123000Y-89281000D01*
X113356000Y-89321000D02*
X110790000Y-89321000D01*
X108710000Y-89321000D02*
X106144000Y-89321000D01*
X113334000Y-89361000D02*
X110790000Y-89361000D01*
X108710000Y-89361000D02*
X106166000Y-89361000D01*
X113312000Y-89401000D02*
X110790000Y-89401000D01*
X108710000Y-89401000D02*
X106188000Y-89401000D01*
X113290000Y-89441000D02*
X110790000Y-89441000D01*
X108710000Y-89441000D02*
X106210000Y-89441000D01*
X113267000Y-89481000D02*
X110790000Y-89481000D01*
X108710000Y-89481000D02*
X106233000Y-89481000D01*
X113243000Y-89521000D02*
X110790000Y-89521000D01*
X108710000Y-89521000D02*
X106257000Y-89521000D01*
X113219000Y-89561000D02*
X110790000Y-89561000D01*
X108710000Y-89561000D02*
X106281000Y-89561000D01*
X113194000Y-89601000D02*
X110790000Y-89601000D01*
X108710000Y-89601000D02*
X106306000Y-89601000D01*
X113168000Y-89641000D02*
X110790000Y-89641000D01*
X108710000Y-89641000D02*
X106332000Y-89641000D01*
X113142000Y-89681000D02*
X110790000Y-89681000D01*
X108710000Y-89681000D02*
X106358000Y-89681000D01*
X113115000Y-89721000D02*
X110790000Y-89721000D01*
X108710000Y-89721000D02*
X106385000Y-89721000D01*
X113088000Y-89761000D02*
X110790000Y-89761000D01*
X108710000Y-89761000D02*
X106412000Y-89761000D01*
X113059000Y-89801000D02*
X110790000Y-89801000D01*
X108710000Y-89801000D02*
X106441000Y-89801000D01*
X113030000Y-89841000D02*
X110790000Y-89841000D01*
X108710000Y-89841000D02*
X106470000Y-89841000D01*
X113000000Y-89881000D02*
X110790000Y-89881000D01*
X108710000Y-89881000D02*
X106500000Y-89881000D01*
X112970000Y-89921000D02*
X110790000Y-89921000D01*
X108710000Y-89921000D02*
X106530000Y-89921000D01*
X112939000Y-89961000D02*
X110790000Y-89961000D01*
X108710000Y-89961000D02*
X106561000Y-89961000D01*
X112906000Y-90001000D02*
X110790000Y-90001000D01*
X108710000Y-90001000D02*
X106594000Y-90001000D01*
X112874000Y-90041000D02*
X110790000Y-90041000D01*
X108710000Y-90041000D02*
X106626000Y-90041000D01*
X112840000Y-90081000D02*
X110790000Y-90081000D01*
X108710000Y-90081000D02*
X106660000Y-90081000D01*
X112805000Y-90121000D02*
X110790000Y-90121000D01*
X108710000Y-90121000D02*
X106695000Y-90121000D01*
X112769000Y-90161000D02*
X110790000Y-90161000D01*
X108710000Y-90161000D02*
X106731000Y-90161000D01*
X112733000Y-90201000D02*
X106767000Y-90201000D01*
X112695000Y-90241000D02*
X106805000Y-90241000D01*
X112657000Y-90281000D02*
X106843000Y-90281000D01*
X112617000Y-90321000D02*
X106883000Y-90321000D01*
X112576000Y-90361000D02*
X106924000Y-90361000D01*
X112534000Y-90401000D02*
X106966000Y-90401000D01*
X112491000Y-90441000D02*
X107009000Y-90441000D01*
X112447000Y-90481000D02*
X107053000Y-90481000D01*
X112401000Y-90521000D02*
X107099000Y-90521000D01*
X112354000Y-90561000D02*
X107146000Y-90561000D01*
X112306000Y-90601000D02*
X107194000Y-90601000D01*
X112255000Y-90641000D02*
X107245000Y-90641000D01*
X112204000Y-90681000D02*
X107296000Y-90681000D01*
X112150000Y-90721000D02*
X107350000Y-90721000D01*
X112095000Y-90761000D02*
X107405000Y-90761000D01*
X112037000Y-90801000D02*
X107463000Y-90801000D01*
X111978000Y-90841000D02*
X107522000Y-90841000D01*
X111916000Y-90881000D02*
X107584000Y-90881000D01*
X111852000Y-90921000D02*
X107648000Y-90921000D01*
X111784000Y-90961000D02*
X107716000Y-90961000D01*
X111714000Y-91001000D02*
X107786000Y-91001000D01*
X111640000Y-91041000D02*
X107860000Y-91041000D01*
X111563000Y-91081000D02*
X107937000Y-91081000D01*
X111481000Y-91121000D02*
X108019000Y-91121000D01*
X111395000Y-91161000D02*
X108105000Y-91161000D01*
X111302000Y-91201000D02*
X108198000Y-91201000D01*
X111203000Y-91241000D02*
X108297000Y-91241000D01*
X111096000Y-91281000D02*
X108404000Y-91281000D01*
X110979000Y-91321000D02*
X108521000Y-91321000D01*
X110848000Y-91361000D02*
X108652000Y-91361000D01*
X110698000Y-91401000D02*
X108802000Y-91401000D01*
X110518000Y-91441000D02*
X108982000Y-91441000D01*
X110283000Y-91481000D02*
X109217000Y-91481000D01*
X112065000Y-82990302D02*
X112065000Y-83790302D01*
X112465000Y-83390302D02*
X111665000Y-83390302D01*
%TO.C,C1*%
X118310000Y-86503733D02*
X118310000Y-86796267D01*
X117290000Y-86503733D02*
X117290000Y-86796267D01*
%TO.C,R3*%
X129872500Y-89945276D02*
X129872500Y-90454724D01*
X128827500Y-89945276D02*
X128827500Y-90454724D01*
%TO.C,U2*%
X98900000Y-93300000D02*
X98900000Y-85650000D01*
X98400000Y-85150000D02*
X94850000Y-85150000D01*
X94850000Y-93800000D02*
X98400000Y-93800000D01*
X94350000Y-93300000D02*
X94350000Y-85650000D01*
X98400000Y-85150000D02*
G75*
G02*
X98900000Y-85650000I0J-500000D01*
G01*
X94350000Y-85650000D02*
G75*
G02*
X94850000Y-85150000I500000J0D01*
G01*
X94850000Y-93800000D02*
G75*
G02*
X94350000Y-93300000I0J500000D01*
G01*
X98900000Y-93300000D02*
G75*
G02*
X98400000Y-93800000I-500000J0D01*
G01*
D10*
%TO.C,U1*%
X120475000Y-91875000D02*
X124625000Y-91875000D01*
X119375000Y-86725000D02*
X124625000Y-86725000D01*
D12*
%TO.C,SW1*%
X113050000Y-69950000D02*
X113050000Y-81950000D01*
X94100000Y-69400000D02*
X113500000Y-69400000D01*
X113500000Y-69400000D02*
X113500000Y-82500000D01*
X113500000Y-82500000D02*
X94100000Y-82500000D01*
X94100000Y-82500000D02*
X94100000Y-69400000D01*
X94550000Y-69950000D02*
X113050000Y-69950000D01*
X94550000Y-81950000D02*
X113050000Y-81950000D01*
X94550000Y-69950000D02*
X94550000Y-81950000D01*
%TO.C,R6*%
X93722500Y-91045276D02*
X93722500Y-91554724D01*
X92677500Y-91045276D02*
X92677500Y-91554724D01*
%TO.C,R5*%
X92677500Y-87754724D02*
X92677500Y-87245276D01*
X93722500Y-87754724D02*
X93722500Y-87245276D01*
%TO.C,R2*%
X129872500Y-86245276D02*
X129872500Y-86754724D01*
X128827500Y-86245276D02*
X128827500Y-86754724D01*
%TO.C,R1*%
X118422500Y-91945276D02*
X118422500Y-92454724D01*
X117377500Y-91945276D02*
X117377500Y-92454724D01*
%TO.C,C8*%
X140970000Y-87350000D02*
G75*
G03*
X140970000Y-87350000I-4120000J0D01*
G01*
X140930000Y-87350000D02*
X132770000Y-87350000D01*
X140930000Y-87390000D02*
X132770000Y-87390000D01*
X140930000Y-87430000D02*
X132770000Y-87430000D01*
X140929000Y-87470000D02*
X132771000Y-87470000D01*
X140927000Y-87510000D02*
X132773000Y-87510000D01*
X140926000Y-87550000D02*
X132774000Y-87550000D01*
X140924000Y-87590000D02*
X132776000Y-87590000D01*
X140921000Y-87630000D02*
X132779000Y-87630000D01*
X140918000Y-87670000D02*
X132782000Y-87670000D01*
X140915000Y-87710000D02*
X132785000Y-87710000D01*
X140911000Y-87750000D02*
X132789000Y-87750000D01*
X140907000Y-87790000D02*
X132793000Y-87790000D01*
X140902000Y-87830000D02*
X132798000Y-87830000D01*
X140898000Y-87870000D02*
X132802000Y-87870000D01*
X140892000Y-87910000D02*
X132808000Y-87910000D01*
X140887000Y-87950000D02*
X132813000Y-87950000D01*
X140880000Y-87990000D02*
X132820000Y-87990000D01*
X140874000Y-88030000D02*
X132826000Y-88030000D01*
X140867000Y-88071000D02*
X137890000Y-88071000D01*
X135810000Y-88071000D02*
X132833000Y-88071000D01*
X140860000Y-88111000D02*
X137890000Y-88111000D01*
X135810000Y-88111000D02*
X132840000Y-88111000D01*
X140852000Y-88151000D02*
X137890000Y-88151000D01*
X135810000Y-88151000D02*
X132848000Y-88151000D01*
X140844000Y-88191000D02*
X137890000Y-88191000D01*
X135810000Y-88191000D02*
X132856000Y-88191000D01*
X140835000Y-88231000D02*
X137890000Y-88231000D01*
X135810000Y-88231000D02*
X132865000Y-88231000D01*
X140826000Y-88271000D02*
X137890000Y-88271000D01*
X135810000Y-88271000D02*
X132874000Y-88271000D01*
X140817000Y-88311000D02*
X137890000Y-88311000D01*
X135810000Y-88311000D02*
X132883000Y-88311000D01*
X140807000Y-88351000D02*
X137890000Y-88351000D01*
X135810000Y-88351000D02*
X132893000Y-88351000D01*
X140797000Y-88391000D02*
X137890000Y-88391000D01*
X135810000Y-88391000D02*
X132903000Y-88391000D01*
X140786000Y-88431000D02*
X137890000Y-88431000D01*
X135810000Y-88431000D02*
X132914000Y-88431000D01*
X140775000Y-88471000D02*
X137890000Y-88471000D01*
X135810000Y-88471000D02*
X132925000Y-88471000D01*
X140764000Y-88511000D02*
X137890000Y-88511000D01*
X135810000Y-88511000D02*
X132936000Y-88511000D01*
X140752000Y-88551000D02*
X137890000Y-88551000D01*
X135810000Y-88551000D02*
X132948000Y-88551000D01*
X140739000Y-88591000D02*
X137890000Y-88591000D01*
X135810000Y-88591000D02*
X132961000Y-88591000D01*
X140727000Y-88631000D02*
X137890000Y-88631000D01*
X135810000Y-88631000D02*
X132973000Y-88631000D01*
X140713000Y-88671000D02*
X137890000Y-88671000D01*
X135810000Y-88671000D02*
X132987000Y-88671000D01*
X140700000Y-88711000D02*
X137890000Y-88711000D01*
X135810000Y-88711000D02*
X133000000Y-88711000D01*
X140685000Y-88751000D02*
X137890000Y-88751000D01*
X135810000Y-88751000D02*
X133015000Y-88751000D01*
X140671000Y-88791000D02*
X137890000Y-88791000D01*
X135810000Y-88791000D02*
X133029000Y-88791000D01*
X140655000Y-88831000D02*
X137890000Y-88831000D01*
X135810000Y-88831000D02*
X133045000Y-88831000D01*
X140640000Y-88871000D02*
X137890000Y-88871000D01*
X135810000Y-88871000D02*
X133060000Y-88871000D01*
X140624000Y-88911000D02*
X137890000Y-88911000D01*
X135810000Y-88911000D02*
X133076000Y-88911000D01*
X140607000Y-88951000D02*
X137890000Y-88951000D01*
X135810000Y-88951000D02*
X133093000Y-88951000D01*
X140590000Y-88991000D02*
X137890000Y-88991000D01*
X135810000Y-88991000D02*
X133110000Y-88991000D01*
X140572000Y-89031000D02*
X137890000Y-89031000D01*
X135810000Y-89031000D02*
X133128000Y-89031000D01*
X140554000Y-89071000D02*
X137890000Y-89071000D01*
X135810000Y-89071000D02*
X133146000Y-89071000D01*
X140536000Y-89111000D02*
X137890000Y-89111000D01*
X135810000Y-89111000D02*
X133164000Y-89111000D01*
X140516000Y-89151000D02*
X137890000Y-89151000D01*
X135810000Y-89151000D02*
X133184000Y-89151000D01*
X140497000Y-89191000D02*
X137890000Y-89191000D01*
X135810000Y-89191000D02*
X133203000Y-89191000D01*
X140477000Y-89231000D02*
X137890000Y-89231000D01*
X135810000Y-89231000D02*
X133223000Y-89231000D01*
X140456000Y-89271000D02*
X137890000Y-89271000D01*
X135810000Y-89271000D02*
X133244000Y-89271000D01*
X140434000Y-89311000D02*
X137890000Y-89311000D01*
X135810000Y-89311000D02*
X133266000Y-89311000D01*
X140412000Y-89351000D02*
X137890000Y-89351000D01*
X135810000Y-89351000D02*
X133288000Y-89351000D01*
X140390000Y-89391000D02*
X137890000Y-89391000D01*
X135810000Y-89391000D02*
X133310000Y-89391000D01*
X140367000Y-89431000D02*
X137890000Y-89431000D01*
X135810000Y-89431000D02*
X133333000Y-89431000D01*
X140343000Y-89471000D02*
X137890000Y-89471000D01*
X135810000Y-89471000D02*
X133357000Y-89471000D01*
X140319000Y-89511000D02*
X137890000Y-89511000D01*
X135810000Y-89511000D02*
X133381000Y-89511000D01*
X140294000Y-89551000D02*
X137890000Y-89551000D01*
X135810000Y-89551000D02*
X133406000Y-89551000D01*
X140268000Y-89591000D02*
X137890000Y-89591000D01*
X135810000Y-89591000D02*
X133432000Y-89591000D01*
X140242000Y-89631000D02*
X137890000Y-89631000D01*
X135810000Y-89631000D02*
X133458000Y-89631000D01*
X140215000Y-89671000D02*
X137890000Y-89671000D01*
X135810000Y-89671000D02*
X133485000Y-89671000D01*
X140188000Y-89711000D02*
X137890000Y-89711000D01*
X135810000Y-89711000D02*
X133512000Y-89711000D01*
X140159000Y-89751000D02*
X137890000Y-89751000D01*
X135810000Y-89751000D02*
X133541000Y-89751000D01*
X140130000Y-89791000D02*
X137890000Y-89791000D01*
X135810000Y-89791000D02*
X133570000Y-89791000D01*
X140100000Y-89831000D02*
X137890000Y-89831000D01*
X135810000Y-89831000D02*
X133600000Y-89831000D01*
X140070000Y-89871000D02*
X137890000Y-89871000D01*
X135810000Y-89871000D02*
X133630000Y-89871000D01*
X140039000Y-89911000D02*
X137890000Y-89911000D01*
X135810000Y-89911000D02*
X133661000Y-89911000D01*
X140006000Y-89951000D02*
X137890000Y-89951000D01*
X135810000Y-89951000D02*
X133694000Y-89951000D01*
X139974000Y-89991000D02*
X137890000Y-89991000D01*
X135810000Y-89991000D02*
X133726000Y-89991000D01*
X139940000Y-90031000D02*
X137890000Y-90031000D01*
X135810000Y-90031000D02*
X133760000Y-90031000D01*
X139905000Y-90071000D02*
X137890000Y-90071000D01*
X135810000Y-90071000D02*
X133795000Y-90071000D01*
X139869000Y-90111000D02*
X137890000Y-90111000D01*
X135810000Y-90111000D02*
X133831000Y-90111000D01*
X139833000Y-90151000D02*
X133867000Y-90151000D01*
X139795000Y-90191000D02*
X133905000Y-90191000D01*
X139757000Y-90231000D02*
X133943000Y-90231000D01*
X139717000Y-90271000D02*
X133983000Y-90271000D01*
X139676000Y-90311000D02*
X134024000Y-90311000D01*
X139634000Y-90351000D02*
X134066000Y-90351000D01*
X139591000Y-90391000D02*
X134109000Y-90391000D01*
X139547000Y-90431000D02*
X134153000Y-90431000D01*
X139501000Y-90471000D02*
X134199000Y-90471000D01*
X139454000Y-90511000D02*
X134246000Y-90511000D01*
X139406000Y-90551000D02*
X134294000Y-90551000D01*
X139355000Y-90591000D02*
X134345000Y-90591000D01*
X139304000Y-90631000D02*
X134396000Y-90631000D01*
X139250000Y-90671000D02*
X134450000Y-90671000D01*
X139195000Y-90711000D02*
X134505000Y-90711000D01*
X139137000Y-90751000D02*
X134563000Y-90751000D01*
X139078000Y-90791000D02*
X134622000Y-90791000D01*
X139016000Y-90831000D02*
X134684000Y-90831000D01*
X138952000Y-90871000D02*
X134748000Y-90871000D01*
X138884000Y-90911000D02*
X134816000Y-90911000D01*
X138814000Y-90951000D02*
X134886000Y-90951000D01*
X138740000Y-90991000D02*
X134960000Y-90991000D01*
X138663000Y-91031000D02*
X135037000Y-91031000D01*
X138581000Y-91071000D02*
X135119000Y-91071000D01*
X138495000Y-91111000D02*
X135205000Y-91111000D01*
X138402000Y-91151000D02*
X135298000Y-91151000D01*
X138303000Y-91191000D02*
X135397000Y-91191000D01*
X138196000Y-91231000D02*
X135504000Y-91231000D01*
X138079000Y-91271000D02*
X135621000Y-91271000D01*
X137948000Y-91311000D02*
X135752000Y-91311000D01*
X137798000Y-91351000D02*
X135902000Y-91351000D01*
X137618000Y-91391000D02*
X136082000Y-91391000D01*
X137383000Y-91431000D02*
X136317000Y-91431000D01*
X139165000Y-82940302D02*
X139165000Y-83740302D01*
X139565000Y-83340302D02*
X138765000Y-83340302D01*
%TO.C,C7*%
X131760000Y-86353733D02*
X131760000Y-86646267D01*
X130740000Y-86353733D02*
X130740000Y-86646267D01*
%TO.C,C6*%
X128010000Y-90053733D02*
X128010000Y-90346267D01*
X126990000Y-90053733D02*
X126990000Y-90346267D01*
%TO.C,C5*%
X115146267Y-91810000D02*
X114853733Y-91810000D01*
X115146267Y-90790000D02*
X114853733Y-90790000D01*
%TO.C,C4*%
X115146267Y-93610000D02*
X114853733Y-93610000D01*
X115146267Y-92590000D02*
X114853733Y-92590000D01*
%TO.C,C2*%
X116410000Y-86503733D02*
X116410000Y-86796267D01*
X115390000Y-86503733D02*
X115390000Y-86796267D01*
%TO.C,D1*%
D10*
X132611904Y-82752380D02*
X132611904Y-81752380D01*
X132850000Y-81752380D01*
X132992857Y-81800000D01*
X133088095Y-81895238D01*
X133135714Y-81990476D01*
X133183333Y-82180952D01*
X133183333Y-82323809D01*
X133135714Y-82514285D01*
X133088095Y-82609523D01*
X132992857Y-82704761D01*
X132850000Y-82752380D01*
X132611904Y-82752380D01*
X134135714Y-82752380D02*
X133564285Y-82752380D01*
X133850000Y-82752380D02*
X133850000Y-81752380D01*
X133754761Y-81895238D01*
X133659523Y-81990476D01*
X133564285Y-82038095D01*
%TO.C,H2*%
X142838095Y-73452380D02*
X142838095Y-72452380D01*
X142838095Y-72928571D02*
X143409523Y-72928571D01*
X143409523Y-73452380D02*
X143409523Y-72452380D01*
X143838095Y-72547619D02*
X143885714Y-72500000D01*
X143980952Y-72452380D01*
X144219047Y-72452380D01*
X144314285Y-72500000D01*
X144361904Y-72547619D01*
X144409523Y-72642857D01*
X144409523Y-72738095D01*
X144361904Y-72880952D01*
X143790476Y-73452380D01*
X144409523Y-73452380D01*
%TO.C,L1*%
X122383333Y-83302380D02*
X121907142Y-83302380D01*
X121907142Y-82302380D01*
X123240476Y-83302380D02*
X122669047Y-83302380D01*
X122954761Y-83302380D02*
X122954761Y-82302380D01*
X122859523Y-82445238D01*
X122764285Y-82540476D01*
X122669047Y-82588095D01*
%TO.C,R4*%
D12*
X104189285Y-84275000D02*
X103832142Y-84525000D01*
X104189285Y-84703571D02*
X103439285Y-84703571D01*
X103439285Y-84417857D01*
X103475000Y-84346428D01*
X103510714Y-84310714D01*
X103582142Y-84275000D01*
X103689285Y-84275000D01*
X103760714Y-84310714D01*
X103796428Y-84346428D01*
X103832142Y-84417857D01*
X103832142Y-84703571D01*
X103689285Y-83632142D02*
X104189285Y-83632142D01*
X103403571Y-83810714D02*
X103939285Y-83989285D01*
X103939285Y-83525000D01*
%TO.C,D2*%
X104139285Y-93503571D02*
X103389285Y-93503571D01*
X103389285Y-93325000D01*
X103425000Y-93217857D01*
X103496428Y-93146428D01*
X103567857Y-93110714D01*
X103710714Y-93075000D01*
X103817857Y-93075000D01*
X103960714Y-93110714D01*
X104032142Y-93146428D01*
X104103571Y-93217857D01*
X104139285Y-93325000D01*
X104139285Y-93503571D01*
X103460714Y-92789285D02*
X103425000Y-92753571D01*
X103389285Y-92682142D01*
X103389285Y-92503571D01*
X103425000Y-92432142D01*
X103460714Y-92396428D01*
X103532142Y-92360714D01*
X103603571Y-92360714D01*
X103710714Y-92396428D01*
X104139285Y-92825000D01*
X104139285Y-92360714D01*
%TO.C,C3*%
X111675000Y-86367857D02*
X111639285Y-86403571D01*
X111532142Y-86439285D01*
X111460714Y-86439285D01*
X111353571Y-86403571D01*
X111282142Y-86332142D01*
X111246428Y-86260714D01*
X111210714Y-86117857D01*
X111210714Y-86010714D01*
X111246428Y-85867857D01*
X111282142Y-85796428D01*
X111353571Y-85725000D01*
X111460714Y-85689285D01*
X111532142Y-85689285D01*
X111639285Y-85725000D01*
X111675000Y-85760714D01*
X111925000Y-85689285D02*
X112389285Y-85689285D01*
X112139285Y-85975000D01*
X112246428Y-85975000D01*
X112317857Y-86010714D01*
X112353571Y-86046428D01*
X112389285Y-86117857D01*
X112389285Y-86296428D01*
X112353571Y-86367857D01*
X112317857Y-86403571D01*
X112246428Y-86439285D01*
X112032142Y-86439285D01*
X111960714Y-86403571D01*
X111925000Y-86367857D01*
%TO.C,C1*%
D13*
X118067857Y-89925000D02*
X118103571Y-89960714D01*
X118139285Y-90067857D01*
X118139285Y-90139285D01*
X118103571Y-90246428D01*
X118032142Y-90317857D01*
X117960714Y-90353571D01*
X117817857Y-90389285D01*
X117710714Y-90389285D01*
X117567857Y-90353571D01*
X117496428Y-90317857D01*
X117425000Y-90246428D01*
X117389285Y-90139285D01*
X117389285Y-90067857D01*
X117425000Y-89960714D01*
X117460714Y-89925000D01*
X118139285Y-89210714D02*
X118139285Y-89639285D01*
X118139285Y-89425000D02*
X117389285Y-89425000D01*
X117496428Y-89496428D01*
X117567857Y-89567857D01*
X117603571Y-89639285D01*
%TO.C,R3*%
D12*
X132089285Y-90325000D02*
X131732142Y-90575000D01*
X132089285Y-90753571D02*
X131339285Y-90753571D01*
X131339285Y-90467857D01*
X131375000Y-90396428D01*
X131410714Y-90360714D01*
X131482142Y-90325000D01*
X131589285Y-90325000D01*
X131660714Y-90360714D01*
X131696428Y-90396428D01*
X131732142Y-90467857D01*
X131732142Y-90753571D01*
X131339285Y-90075000D02*
X131339285Y-89610714D01*
X131625000Y-89860714D01*
X131625000Y-89753571D01*
X131660714Y-89682142D01*
X131696428Y-89646428D01*
X131767857Y-89610714D01*
X131946428Y-89610714D01*
X132017857Y-89646428D01*
X132053571Y-89682142D01*
X132089285Y-89753571D01*
X132089285Y-89967857D01*
X132053571Y-90039285D01*
X132017857Y-90075000D01*
%TO.C,R6*%
X93539285Y-84925000D02*
X93182142Y-85175000D01*
X93539285Y-85353571D02*
X92789285Y-85353571D01*
X92789285Y-85067857D01*
X92825000Y-84996428D01*
X92860714Y-84960714D01*
X92932142Y-84925000D01*
X93039285Y-84925000D01*
X93110714Y-84960714D01*
X93146428Y-84996428D01*
X93182142Y-85067857D01*
X93182142Y-85353571D01*
X92789285Y-84282142D02*
X92789285Y-84425000D01*
X92825000Y-84496428D01*
X92860714Y-84532142D01*
X92967857Y-84603571D01*
X93110714Y-84639285D01*
X93396428Y-84639285D01*
X93467857Y-84603571D01*
X93503571Y-84567857D01*
X93539285Y-84496428D01*
X93539285Y-84353571D01*
X93503571Y-84282142D01*
X93467857Y-84246428D01*
X93396428Y-84210714D01*
X93217857Y-84210714D01*
X93146428Y-84246428D01*
X93110714Y-84282142D01*
X93075000Y-84353571D01*
X93075000Y-84496428D01*
X93110714Y-84567857D01*
X93146428Y-84603571D01*
X93217857Y-84639285D01*
%TO.C,R5*%
X93539285Y-83225000D02*
X93182142Y-83475000D01*
X93539285Y-83653571D02*
X92789285Y-83653571D01*
X92789285Y-83367857D01*
X92825000Y-83296428D01*
X92860714Y-83260714D01*
X92932142Y-83225000D01*
X93039285Y-83225000D01*
X93110714Y-83260714D01*
X93146428Y-83296428D01*
X93182142Y-83367857D01*
X93182142Y-83653571D01*
X92789285Y-82546428D02*
X92789285Y-82903571D01*
X93146428Y-82939285D01*
X93110714Y-82903571D01*
X93075000Y-82832142D01*
X93075000Y-82653571D01*
X93110714Y-82582142D01*
X93146428Y-82546428D01*
X93217857Y-82510714D01*
X93396428Y-82510714D01*
X93467857Y-82546428D01*
X93503571Y-82582142D01*
X93539285Y-82653571D01*
X93539285Y-82832142D01*
X93503571Y-82903571D01*
X93467857Y-82939285D01*
%TO.C,R2*%
X127189285Y-86575000D02*
X126832142Y-86825000D01*
X127189285Y-87003571D02*
X126439285Y-87003571D01*
X126439285Y-86717857D01*
X126475000Y-86646428D01*
X126510714Y-86610714D01*
X126582142Y-86575000D01*
X126689285Y-86575000D01*
X126760714Y-86610714D01*
X126796428Y-86646428D01*
X126832142Y-86717857D01*
X126832142Y-87003571D01*
X126510714Y-86289285D02*
X126475000Y-86253571D01*
X126439285Y-86182142D01*
X126439285Y-86003571D01*
X126475000Y-85932142D01*
X126510714Y-85896428D01*
X126582142Y-85860714D01*
X126653571Y-85860714D01*
X126760714Y-85896428D01*
X127189285Y-86325000D01*
X127189285Y-85860714D01*
%TO.C,R1*%
D13*
X117775000Y-94689285D02*
X117525000Y-94332142D01*
X117346428Y-94689285D02*
X117346428Y-93939285D01*
X117632142Y-93939285D01*
X117703571Y-93975000D01*
X117739285Y-94010714D01*
X117775000Y-94082142D01*
X117775000Y-94189285D01*
X117739285Y-94260714D01*
X117703571Y-94296428D01*
X117632142Y-94332142D01*
X117346428Y-94332142D01*
X118489285Y-94689285D02*
X118060714Y-94689285D01*
X118275000Y-94689285D02*
X118275000Y-93939285D01*
X118203571Y-94046428D01*
X118132142Y-94117857D01*
X118060714Y-94153571D01*
%TO.C,C8*%
D10*
X140083333Y-91957142D02*
X140035714Y-92004761D01*
X139892857Y-92052380D01*
X139797619Y-92052380D01*
X139654761Y-92004761D01*
X139559523Y-91909523D01*
X139511904Y-91814285D01*
X139464285Y-91623809D01*
X139464285Y-91480952D01*
X139511904Y-91290476D01*
X139559523Y-91195238D01*
X139654761Y-91100000D01*
X139797619Y-91052380D01*
X139892857Y-91052380D01*
X140035714Y-91100000D01*
X140083333Y-91147619D01*
X140654761Y-91480952D02*
X140559523Y-91433333D01*
X140511904Y-91385714D01*
X140464285Y-91290476D01*
X140464285Y-91242857D01*
X140511904Y-91147619D01*
X140559523Y-91100000D01*
X140654761Y-91052380D01*
X140845238Y-91052380D01*
X140940476Y-91100000D01*
X140988095Y-91147619D01*
X141035714Y-91242857D01*
X141035714Y-91290476D01*
X140988095Y-91385714D01*
X140940476Y-91433333D01*
X140845238Y-91480952D01*
X140654761Y-91480952D01*
X140559523Y-91528571D01*
X140511904Y-91576190D01*
X140464285Y-91671428D01*
X140464285Y-91861904D01*
X140511904Y-91957142D01*
X140559523Y-92004761D01*
X140654761Y-92052380D01*
X140845238Y-92052380D01*
X140940476Y-92004761D01*
X140988095Y-91957142D01*
X141035714Y-91861904D01*
X141035714Y-91671428D01*
X140988095Y-91576190D01*
X140940476Y-91528571D01*
X140845238Y-91480952D01*
%TO.C,C7*%
D12*
X128267857Y-86575000D02*
X128303571Y-86610714D01*
X128339285Y-86717857D01*
X128339285Y-86789285D01*
X128303571Y-86896428D01*
X128232142Y-86967857D01*
X128160714Y-87003571D01*
X128017857Y-87039285D01*
X127910714Y-87039285D01*
X127767857Y-87003571D01*
X127696428Y-86967857D01*
X127625000Y-86896428D01*
X127589285Y-86789285D01*
X127589285Y-86717857D01*
X127625000Y-86610714D01*
X127660714Y-86575000D01*
X127589285Y-86325000D02*
X127589285Y-85825000D01*
X128339285Y-86146428D01*
%TO.C,C6*%
X130967857Y-90325000D02*
X131003571Y-90360714D01*
X131039285Y-90467857D01*
X131039285Y-90539285D01*
X131003571Y-90646428D01*
X130932142Y-90717857D01*
X130860714Y-90753571D01*
X130717857Y-90789285D01*
X130610714Y-90789285D01*
X130467857Y-90753571D01*
X130396428Y-90717857D01*
X130325000Y-90646428D01*
X130289285Y-90539285D01*
X130289285Y-90467857D01*
X130325000Y-90360714D01*
X130360714Y-90325000D01*
X130289285Y-89682142D02*
X130289285Y-89825000D01*
X130325000Y-89896428D01*
X130360714Y-89932142D01*
X130467857Y-90003571D01*
X130610714Y-90039285D01*
X130896428Y-90039285D01*
X130967857Y-90003571D01*
X131003571Y-89967857D01*
X131039285Y-89896428D01*
X131039285Y-89753571D01*
X131003571Y-89682142D01*
X130967857Y-89646428D01*
X130896428Y-89610714D01*
X130717857Y-89610714D01*
X130646428Y-89646428D01*
X130610714Y-89682142D01*
X130575000Y-89753571D01*
X130575000Y-89896428D01*
X130610714Y-89967857D01*
X130646428Y-90003571D01*
X130717857Y-90039285D01*
%TO.C,C5*%
D13*
X114925000Y-90417857D02*
X114889285Y-90453571D01*
X114782142Y-90489285D01*
X114710714Y-90489285D01*
X114603571Y-90453571D01*
X114532142Y-90382142D01*
X114496428Y-90310714D01*
X114460714Y-90167857D01*
X114460714Y-90060714D01*
X114496428Y-89917857D01*
X114532142Y-89846428D01*
X114603571Y-89775000D01*
X114710714Y-89739285D01*
X114782142Y-89739285D01*
X114889285Y-89775000D01*
X114925000Y-89810714D01*
X115603571Y-89739285D02*
X115246428Y-89739285D01*
X115210714Y-90096428D01*
X115246428Y-90060714D01*
X115317857Y-90025000D01*
X115496428Y-90025000D01*
X115567857Y-90060714D01*
X115603571Y-90096428D01*
X115639285Y-90167857D01*
X115639285Y-90346428D01*
X115603571Y-90417857D01*
X115567857Y-90453571D01*
X115496428Y-90489285D01*
X115317857Y-90489285D01*
X115246428Y-90453571D01*
X115210714Y-90417857D01*
%TO.C,C4*%
X114925000Y-94617857D02*
X114889285Y-94653571D01*
X114782142Y-94689285D01*
X114710714Y-94689285D01*
X114603571Y-94653571D01*
X114532142Y-94582142D01*
X114496428Y-94510714D01*
X114460714Y-94367857D01*
X114460714Y-94260714D01*
X114496428Y-94117857D01*
X114532142Y-94046428D01*
X114603571Y-93975000D01*
X114710714Y-93939285D01*
X114782142Y-93939285D01*
X114889285Y-93975000D01*
X114925000Y-94010714D01*
X115567857Y-94189285D02*
X115567857Y-94689285D01*
X115389285Y-93903571D02*
X115210714Y-94439285D01*
X115675000Y-94439285D01*
%TO.C,C2*%
X116167857Y-84325000D02*
X116203571Y-84360714D01*
X116239285Y-84467857D01*
X116239285Y-84539285D01*
X116203571Y-84646428D01*
X116132142Y-84717857D01*
X116060714Y-84753571D01*
X115917857Y-84789285D01*
X115810714Y-84789285D01*
X115667857Y-84753571D01*
X115596428Y-84717857D01*
X115525000Y-84646428D01*
X115489285Y-84539285D01*
X115489285Y-84467857D01*
X115525000Y-84360714D01*
X115560714Y-84325000D01*
X115560714Y-84039285D02*
X115525000Y-84003571D01*
X115489285Y-83932142D01*
X115489285Y-83753571D01*
X115525000Y-83682142D01*
X115560714Y-83646428D01*
X115632142Y-83610714D01*
X115703571Y-83610714D01*
X115810714Y-83646428D01*
X116239285Y-84075000D01*
X116239285Y-83610714D01*
%TD*%
M02*
